<svg version="1.1" xmlns="http://www.w3.org/2000/svg" xmlns:xlink="http://www.w3.org/1999/xlink" width="62.2" height="73.4" viewBox="0,0,62.2,73.4"><g transform="translate(-208.9,-145.10003)"><g data-paper-data="{&quot;isPaintingLayer&quot;:true}" fill-rule="nonzero" stroke-linecap="butt" stroke-linejoin="miter" stroke-miterlimit="10" stroke-dasharray="" stroke-dashoffset="0" style="mix-blend-mode: normal"><path d="M238.03278,182.89236c-0.2797,1.19339 -0.2797,1.65956 -0.2797,1.92061c0,1.37986 0.55939,2.21895 1.62226,2.21895c0.70858,0 2.48001,-0.2797 3.67341,-1.86468c0.16783,-0.16783 0.18646,-0.18646 0.2424,-0.18646c0.07459,0 0.18646,0.09323 0.18646,0.20512c0,0.2424 -1.60361,2.21896 -4.13957,2.21896c-1.69685,0 -2.81564,-1.36121 -2.81564,-3.31911c0,-3.31911 2.81564,-5.09055 4.77355,-5.09055c1.23069,0 1.93925,0.74587 1.93925,1.56633c0,0.33563 -0.13052,1.41714 -1.54768,1.9579c-0.89505,0.33563 -2.16302,0.37293 -2.66648,0.37293zM238.90917,182.51942c0.78316,0 3.76663,0 3.76663,-1.9579c0,-0.70856 -0.5594,-1.19339 -1.37986,-1.19339c-0.5967,0 -2.36812,0.2797 -3.16994,3.1513z" fill="#ff0000" stroke="none" stroke-width="1"/><path d="M208.9,218.50003v-73.4h62.2v73.4z" fill="none" stroke="#000000" stroke-width="0"/></g></g></svg>