<svg version="1.1" xmlns="http://www.w3.org/2000/svg" xmlns:xlink="http://www.w3.org/1999/xlink" width="17.6" height="55.6" viewBox="0,0,17.6,55.6"><g transform="translate(-231.2,-152.2)"><g data-paper-data="{&quot;isPaintingLayer&quot;:true}" fill-rule="nonzero" stroke-linecap="butt" stroke-linejoin="miter" stroke-miterlimit="10" stroke-dasharray="" stroke-dashoffset="0" style="mix-blend-mode: normal"><path d="M237.493,179.04238c0.5595,-0.60253 1.50636,-1.14052 2.73295,-1.14052c2.25952,0 3.98107,2.13042 3.98107,4.69121c0,2.73296 -2.13042,4.77729 -4.56209,4.77729c-2.38864,0 -3.85194,-2.08737 -3.85194,-3.91652c0,-0.83925 0.55949,-1.03292 0.94685,-1.03292c0.53798,0 0.94684,0.34429 0.94684,0.94684c0,0.73165 -0.58103,0.94684 -0.94684,0.94684c-0.1076,0 -0.23671,-0.02152 -0.34431,-0.06456c0.38734,1.57092 1.78609,2.53929 3.20636,2.53929c0.94684,0 1.78608,-0.53798 2.25951,-1.31268c0.60253,-0.96837 0.60254,-2.19496 0.60254,-3.0127c0,-0.81774 -0.02151,-1.87219 -0.38735,-2.71143c-0.17215,-0.36584 -0.73165,-1.42028 -1.87217,-1.42028c-1.07596,0 -2.08736,0.51647 -2.6899,1.39875c-0.21519,0.25823 -0.23672,0.27975 -0.34431,0.27975c-0.25822,0 -0.25822,-0.12912 -0.25822,-0.51647v-6.39123c0,-0.34431 0,-0.47342 0.17216,-0.47342c0.02151,0 0.06454,0 0.21519,0.06455c0.40887,0.17216 1.42027,0.60255 2.84054,0.60255c0.5595,0 1.59241,-0.06456 2.79749,-0.58103c0.19368,-0.08607 0.23671,-0.08607 0.27975,-0.08607c0.12912,0 0.17215,0.1076 0.17215,0.19367c0,0.30128 -1.54939,2.08737 -3.98106,2.08737c-0.2367,0 -0.98988,-0.02151 -1.91521,-0.32279z" fill="#ff0000" stroke="none" stroke-width="1"/><path d="M231.2,207.8v-55.6h17.6v55.6z" fill="none" stroke="#000000" stroke-width="0"/></g></g></svg>