<svg version="1.1" xmlns="http://www.w3.org/2000/svg" xmlns:xlink="http://www.w3.org/1999/xlink" width="20.57143" height="35.33333" viewBox="0,0,20.57143,35.33333"><g transform="translate(-231.50001,-162.33335)"><g data-paper-data="{&quot;isPaintingLayer&quot;:true}" fill-rule="nonzero" stroke="none" stroke-linecap="butt" stroke-linejoin="miter" stroke-miterlimit="10" stroke-dasharray="" stroke-dashoffset="0" style="mix-blend-mode: normal"><path d="M231.50001,197.66668v-35.33333h20.57143v35.33333z" fill="none" stroke-width="0"/><path d="M247.13312,176.5822c1.7353,0 2.85192,1.67495 2.85192,3.41026c0,1.7655 -1.14681,3.42536 -2.91229,3.42536c-0.76962,0 -1.6146,-0.27161 -2.45962,-0.95065c-0.46779,-0.37725 -0.64885,-0.60358 -1.4637,-1.62969c-0.73939,1.20717 -1.99184,2.58034 -3.72715,2.58034c-1.73531,0 -2.85195,-1.67495 -2.85195,-3.41026c0,-1.7655 1.14681,-3.42536 2.91231,-3.42536c0.76957,0 1.61459,0.27161 2.45962,0.95064c0.46779,0.37725 0.64885,0.60358 1.4637,1.62969c0.73939,-1.20717 1.99187,-2.58034 3.72717,-2.58034zM245.44305,181.74287c0.31689,0.31688 0.99597,0.95065 1.87109,0.95065c1.32793,0 2.33894,-1.22226 2.33894,-2.70106c0,-1.35807 -0.81485,-2.92739 -2.41436,-2.92739c-1.70513,0 -2.82178,1.52406 -3.44044,2.61051c0.92047,1.19208 1.26753,1.65986 1.64477,2.06729zM241.11233,178.25716c-0.31689,-0.31689 -0.99593,-0.95065 -1.87113,-0.95065c-1.32791,0 -2.33889,1.22226 -2.33889,2.70106c0,1.35807 0.81484,2.92739 2.41434,2.92739c1.70513,0 2.82178,-1.52406 3.44044,-2.61051c-0.92047,-1.19208 -1.26753,-1.65986 -1.64477,-2.06728z" fill="#ff0000" stroke-width="1"/></g></g></svg>