<svg version="1.1" xmlns="http://www.w3.org/2000/svg" xmlns:xlink="http://www.w3.org/1999/xlink" width="21.86806" height="18.37525" viewBox="0,0,21.86806,18.37525"><g transform="translate(-229.06597,-170.81239)"><g data-paper-data="{&quot;isPaintingLayer&quot;:true}" fill-rule="nonzero" stroke="none" stroke-linecap="butt" stroke-linejoin="miter" stroke-miterlimit="10" stroke-dasharray="" stroke-dashoffset="0" style="mix-blend-mode: normal"><path d="M229.06597,189.18764v-18.37525h21.86806v18.37525z" fill-opacity="0.00392" fill="#ffffff" stroke-width="0"/><path d="M243.90248,175.55693c0.21627,-0.21627 0.2949,-0.2949 0.45216,-0.2949c0.2359,0 0.39318,0.17693 0.39318,0.39319c0,0.13762 -0.07863,0.21627 -0.09829,0.25558c-0.09829,0.11796 -0.39319,0.37353 -0.49149,0.4915l-3.59774,3.59772c0.98297,1.00265 4.10888,4.08921 4.12854,4.12854c0.05898,0.09829 0.05897,0.17693 0.05897,0.21625c0,0.21626 -0.15728,0.3932 -0.39318,0.3932c-0.11796,0 -0.25557,-0.09829 -0.2949,-0.11796l-4.06957,-4.06957l-3.91227,3.91229c-0.2359,0.23591 -0.27525,0.27523 -0.43253,0.27523c-0.19659,0 -0.39318,-0.17693 -0.39318,-0.3932c0,-0.13762 0.03932,-0.17693 0.25557,-0.39319l3.93194,-3.95161l-3.93194,-3.95159c-0.21627,-0.21627 -0.25557,-0.25558 -0.25557,-0.3932c0,-0.21627 0.19659,-0.39319 0.39318,-0.39319c0.15728,0 0.19662,0.03932 0.43253,0.27523l3.93194,3.91229z" fill="#ff0000" stroke-width="1"/></g></g></svg>