<svg version="1.1" xmlns="http://www.w3.org/2000/svg" xmlns:xlink="http://www.w3.org/1999/xlink" width="20.57143" height="35.33333" viewBox="0,0,20.57143,35.33333"><g transform="translate(-231.50001,-162.33336)"><g data-paper-data="{&quot;isPaintingLayer&quot;:true}" fill-rule="nonzero" stroke="none" stroke-linecap="butt" stroke-linejoin="miter" stroke-miterlimit="10" stroke-dasharray="" stroke-dashoffset="0" style="mix-blend-mode: normal"><path d="M231.50001,197.66669v-35.33333h20.57143v35.33333z" data-paper-data="{&quot;index&quot;:null}" fill="none" stroke-width="0"/><path d="M236.45312,190.2824c-0.08216,0 -0.18489,-0.0411 -0.18489,-0.16435c0,-0.06164 0,-0.10273 0.34925,-0.45198c2.05442,-2.07497 3.20491,-5.46478 3.20491,-9.65581c0,-3.98558 -0.96556,-7.4165 -3.34871,-9.84068c-0.20544,-0.18489 -0.20544,-0.22598 -0.20544,-0.2877c0,-0.1233 0.10273,-0.16426 0.18489,-0.16426c0.26707,0 1.95171,1.47913 2.95837,3.49248c1.04776,2.07497 1.52027,4.27321 1.52027,6.80016c0,1.82844 -0.28761,4.27321 -1.35592,6.47145c-1.21211,2.46531 -2.89675,3.80069 -3.12274,3.80069z" data-paper-data="{&quot;index&quot;:null}" fill="#ff0000" stroke-width="1"/></g></g></svg>