<svg version="1.1" xmlns="http://www.w3.org/2000/svg" xmlns:xlink="http://www.w3.org/1999/xlink" width="31.25" height="16.02979" viewBox="0,0,31.25,16.02979"><g transform="translate(-224.375,-171.98512)"><g data-paper-data="{&quot;isPaintingLayer&quot;:true}" fill-rule="nonzero" stroke="none" stroke-linecap="butt" stroke-linejoin="miter" stroke-miterlimit="10" stroke-dasharray="" stroke-dashoffset="0" style="mix-blend-mode: normal"><path d="M224.375,188.01491v-16.02979h31.25v16.02979z" fill-opacity="0.00392" fill="#ffffff" stroke-width="0"/><g fill="#000000" stroke-width="1"><path d="M232.7906,183.26399c0,0.55308 0.04609,0.73745 1.39807,0.73745h0.47626v0.44553c-0.41481,-0.03073 -1.8897,-0.03073 -2.39668,-0.03073c-0.50698,0 -1.99722,0 -2.41203,0.03073v-0.44553h0.47626c1.35197,0 1.39807,-0.18436 1.39807,-0.73745v-8.00429c-0.84498,0.39946 -1.61316,0.39946 -1.96651,0.39946v-0.44553c1.58243,0 2.35059,-0.56845 2.71931,-0.98325c0.30726,0 0.30726,0.01536 0.30726,0.36872z"/><path d="M242.21945,184.44697h-5.60761v-0.36872l3.1034,-3.47211c0.8757,-0.98325 1.6285,-2.12013 1.6285,-3.42602c0,-1.41344 -0.79889,-2.50422 -2.10478,-2.50422c-0.99861,0 -1.82822,0.70671 -2.12013,1.75143c0.04609,-0.01536 0.0768,-0.01537 0.21508,-0.01537c0.43019,0 0.72209,0.29191 0.72209,0.72208c0,0.49163 -0.39946,0.72208 -0.72209,0.72208c-0.04608,0 -0.72207,0 -0.72207,-0.78352c0,-1.32125 1.0447,-2.84221 2.82684,-2.84221c1.78215,0 3.18021,1.18298 3.18021,2.94977c0,1.52096 -0.86035,2.31985 -3.19556,4.47073c-0.39945,0.36872 -1.3366,1.35198 -1.75143,1.70532h2.84221c0.46089,0 1.3366,0 1.44416,-0.13827c0.15363,-0.24579 0.27654,-1.0908 0.32263,-1.35197h0.338z"/><path d="M246.64093,178.88546c0.41479,-0.01536 0.93715,-0.06147 1.39806,-0.73745c0.44553,-0.66062 0.49163,-1.52096 0.49163,-1.81287c0,-1.50561 -0.99861,-1.73605 -1.5056,-1.73605c-0.0768,0 -1.52097,0 -2.10478,1.04471c0.04609,-0.01536 0.07682,-0.01536 0.169,-0.01536c0.338,0 0.70673,0.21509 0.70673,0.70673c0,0.46089 -0.36873,0.69135 -0.69135,0.69135c-0.23046,0 -0.70672,-0.12291 -0.70672,-0.73745c0,-1.12151 1.13688,-2.05868 2.67321,-2.05868c1.49024,0 2.75003,0.89107 2.75003,2.10478c0,1.19833 -0.86034,2.31985 -2.19696,2.70394c1.47488,0.26117 2.61178,1.36733 2.61178,2.78076c0,1.5517 -1.35198,2.94977 -3.18021,2.94977c-1.70532,0 -3.07266,-1.12152 -3.07266,-2.48885c0,-0.58381 0.39945,-0.7989 0.76816,-0.7989c0.43019,0 0.75282,0.30727 0.75282,0.75282c0,0.55308 -0.44553,0.82962 -0.93717,0.7528c0.44553,1.01398 1.70532,1.36733 2.44276,1.36733c0.75281,0 1.79751,-0.53772 1.79751,-2.55031c0,-1.47488 -0.58381,-2.5503 -1.88969,-2.5503h-0.70672c-0.27653,0 -0.35335,0 -0.35335,-0.15364c0,-0.13826 0.06145,-0.15363 0.32263,-0.16899z"/></g></g></g></svg>