<svg version="1.1" xmlns="http://www.w3.org/2000/svg" xmlns:xlink="http://www.w3.org/1999/xlink" width="32.38359" height="32.76219" viewBox="0,0,32.38359,32.76219"><g transform="translate(-223.80823,-163.61895)"><g data-paper-data="{&quot;isPaintingLayer&quot;:true}" fill-rule="nonzero" stroke-linecap="butt" stroke-linejoin="miter" stroke-miterlimit="10" stroke-dasharray="" stroke-dashoffset="0" style="mix-blend-mode: normal"><path d="M223.87136,186.2222v-13.12651h32.32046l-0.14426,13.27071z" data-paper-data="{&quot;origPos&quot;:null}" fill="#cccccc" stroke="#000000" stroke-width="0"/><g fill="#cccccc" stroke="#000000" stroke-width="0"><path d="M237.06095,186.90587c0,-5.22808 4.23817,-9.46625 9.46625,-9.46625c5.22808,0 9.4662,4.23823 9.4662,9.46625c0,5.22808 -4.23817,9.4662 -9.4662,9.4662c-5.22808,0 -9.46625,-4.23818 -9.46625,-9.4662z" data-paper-data="{&quot;origPos&quot;:null}"/><path d="M223.80823,173.14833c0,-5.22808 4.23817,-9.46625 9.4662,-9.46625c5.22808,0 9.46626,4.23823 9.46626,9.46625c0,5.22808 -4.23818,9.4662 -9.46626,9.4662c-5.22808,0 -9.4662,-4.23818 -9.4662,-9.4662z" data-paper-data="{&quot;origPos&quot;:null}"/><path d="M223.80823,186.90587c0,-5.22808 4.23817,-9.46625 9.4662,-9.46625c5.22808,0 9.46626,4.23823 9.46626,9.46625c0,5.22808 -4.23818,9.4662 -9.46626,9.4662c-5.22808,0 -9.4662,-4.23818 -9.4662,-9.4662z" data-paper-data="{&quot;origPos&quot;:null}"/><path d="M237.25029,173.0852c0,-5.22808 4.23818,-9.46625 9.46626,-9.46625c5.22808,0 9.46626,4.23817 9.46626,9.46625c0,5.22808 -4.23818,9.4662 -9.46626,9.4662c-5.22808,0 -9.46626,-4.23818 -9.46626,-9.4662z" data-paper-data="{&quot;origPos&quot;:null}"/><path d="M233.58398,196.38114l-0.03606,-32.69914l13.63139,-0.03605v32.69908z" data-paper-data="{&quot;origPos&quot;:null}"/></g><path d="M245.93056,176.01906c0,-1.28418 -0.70047,-2.42826 -2.21813,-2.42826c-2.03134,0 -3.80583,2.14808 -4.55298,5.13671c-0.14009,0.51367 -0.53702,2.70844 -0.53702,2.75514c0,0.11675 0.35023,0.11674 0.74716,0.11674c3.57234,0 6.56097,-2.91858 6.56097,-5.58033zM237.54839,187.10967c-0.18679,0.46697 -0.60707,0.56037 -0.84055,0.56037c-0.04669,0 -0.60706,-0.02335 -0.60706,-0.58372c0,-0.09339 0,-0.14009 0.11674,-0.49032l1.21413,-3.94593c-1.89124,-0.42028 -3.94592,-1.84454 -3.94592,-4.45959c0,-2.21812 1.77449,-5.62703 2.40491,-5.62703c0.04669,0 0.23349,0 0.23349,0.18679c0,0.04669 0,0.0934 -0.25684,0.39693c-1.35422,1.68111 -1.84454,4.17941 -1.84454,4.80982c0,1.56436 1.12073,2.98863 3.80583,3.5023c1.30752,-4.38954 2.73179,-9.12932 6.094,-9.12932c1.96128,0 2.5917,1.7278 2.5917,3.15207c0,3.68909 -3.52564,7.37817 -7.35483,7.37817c-0.42028,0 -0.65376,-0.02335 -0.79386,-0.0467c-0.09339,0.46697 -0.74716,4.08602 -0.8172,4.29615z" fill="#000000" stroke="none" stroke-width="1"/></g></g></svg>