<svg version="1.1" xmlns="http://www.w3.org/2000/svg" xmlns:xlink="http://www.w3.org/1999/xlink" width="17.6" height="55.6" viewBox="0,0,17.6,55.6"><g transform="translate(-231.2,-152.2)"><g data-paper-data="{&quot;isPaintingLayer&quot;:true}" fill-rule="nonzero" stroke-linecap="butt" stroke-linejoin="miter" stroke-miterlimit="10" stroke-dasharray="" stroke-dashoffset="0" style="mix-blend-mode: normal"><path d="M244.37917,183.35702c0,2.25953 -2.00129,4.02411 -4.38993,4.02411c-2.19496,0 -4.3684,-1.42027 -4.3684,-3.70133c0,-1.57091 1.07595,-3.0127 3.16332,-3.98107c-1.50634,-1.05445 -1.52787,-1.07596 -1.76457,-1.35572c-0.60255,-0.73165 -0.81774,-1.46331 -0.81774,-2.19496c0,-1.95827 1.67849,-3.52918 3.80891,-3.52918c1.97977,0 3.78738,1.29116 3.78738,3.16334c0,1.80762 -1.5709,2.79752 -2.64686,3.37852c1.67849,1.03293 3.22789,2.00131 3.22789,4.19627zM240.72089,178.85949c1.24811,-0.68862 2.19496,-1.74307 2.19496,-3.05574c0,-1.5494 -1.37722,-2.6684 -2.92661,-2.6684c-1.44178,0 -2.90509,0.88229 -2.90509,2.28105c0,1.05444 0.86076,1.61394 1.14051,1.80762zM236.61072,183.67981c0,1.78611 1.5709,3.12031 3.40004,3.12031c1.72153,0 3.37851,-1.119 3.37851,-2.75447c0,-1.31268 -0.98988,-1.97978 -1.54939,-2.34561l-2.60383,-1.70002c-1.39875,0.64559 -2.62534,2.0013 -2.62534,3.6798z" fill="#ff0000" stroke="none" stroke-width="1"/><path d="M231.2,207.8v-55.6h17.6v55.6z" fill="none" stroke="#000000" stroke-width="0"/></g></g></svg>