<svg version="1.1" xmlns="http://www.w3.org/2000/svg" xmlns:xlink="http://www.w3.org/1999/xlink" width="23.25" height="45.75" viewBox="0,0,23.25,45.75"><g transform="translate(-228.375,-157.125)"><g data-paper-data="{&quot;isPaintingLayer&quot;:true}" fill-rule="nonzero" stroke="none" stroke-linecap="butt" stroke-linejoin="miter" stroke-miterlimit="10" stroke-dasharray="" stroke-dashoffset="0" style="mix-blend-mode: normal"><path d="M228.375,202.875v-45.75h23.25v45.75z" fill="none" stroke-width="0"/><path d="M242.74091,183.92727c-0.52364,1.12909 -1.55454,1.80001 -2.7491,1.80001c-0.93273,0 -2.17636,-0.44182 -2.8309,-2.01274c-0.49091,-1.19455 -0.55636,-2.38909 -0.55636,-3.68182c0,-1.3091 0.08182,-2.66727 0.62182,-3.86183c0.67091,-1.45637 1.81637,-1.89818 2.78181,-1.89818c0.83456,0 1.96364,0.39273 2.63456,1.62c0.68727,1.32545 0.75271,2.84727 0.75271,4.14001c0,1.75091 -0.16363,2.83092 -0.65454,3.89456zM241.82454,182.97818c0.29454,-1.03091 0.29454,-2.06181 0.29454,-3.14182c0,-1.01456 0,-2.11091 -0.3109,-3.02728c-0.11454,-0.29456 -0.54,-1.53819 -1.81637,-1.53819c-1.32545,0 -1.73454,1.34183 -1.83272,1.65273c-0.27819,0.90001 -0.27819,1.88183 -0.27819,2.91274c0,1.27637 0.01637,2.16001 0.27819,3.09274c0.32727,1.17818 0.99818,1.8 1.84908,1.8c0.52364,0 1.39091,-0.26182 1.81637,-1.75092z" fill="#ff0000" stroke-width="1"/></g></g></svg>