<svg version="1.1" xmlns="http://www.w3.org/2000/svg" xmlns:xlink="http://www.w3.org/1999/xlink" width="25.95662" height="25.95662" viewBox="0,0,25.95662,25.95662"><defs><radialGradient cx="240.00001" cy="181.35758" r="12.97831" gradientUnits="userSpaceOnUse" id="color-1"><stop offset="0" stop-color="#383838"/><stop offset="1" stop-color="#d6d6d6" stop-opacity="0.00392"/></radialGradient></defs><g transform="translate(-227.0217,-168.37927)"><g data-paper-data="{&quot;isPaintingLayer&quot;:true}" fill-rule="nonzero" stroke="none" stroke-width="0" stroke-linecap="butt" stroke-linejoin="miter" stroke-miterlimit="10" stroke-dasharray="" stroke-dashoffset="0" style="mix-blend-mode: normal"><path d="M227.0217,181.35758c0,-7.16773 5.81058,-12.97831 12.97831,-12.97831c7.16773,0 12.97831,5.81058 12.97831,12.97831c0,7.16773 -5.81058,12.97831 -12.97831,12.97831c-7.16773,0 -12.97831,-5.81058 -12.97831,-12.97831z" fill="url(#color-1)"/><path d="M229.44596,180.00001c0,-5.82885 4.7252,-10.55406 10.55405,-10.55406c5.82885,0 10.55406,4.72521 10.55406,10.55406c0,5.82885 -4.72521,10.55405 -10.55406,10.55405c-5.82885,0 -10.55405,-4.7252 -10.55405,-10.55405z" fill="#fff5ce"/><path d="M236.89754,184.38726v-3.86549h-1.78565l4.90443,-4.90902l4.87182,4.90902h-1.75304v3.86549h-1.81419l-0.03534,-2.24025l-2.53306,-0.01936l-0.02446,2.25961z" fill="#ffa000"/></g></g></svg>