<svg version="1.1" xmlns="http://www.w3.org/2000/svg" xmlns:xlink="http://www.w3.org/1999/xlink" width="17.6" height="55.6" viewBox="0,0,17.6,55.6"><g transform="translate(-231.2,-152.2)"><g data-paper-data="{&quot;isPaintingLayer&quot;:true}" fill-rule="nonzero" stroke-linecap="butt" stroke-linejoin="miter" stroke-miterlimit="10" stroke-dasharray="" stroke-dashoffset="0" style="mix-blend-mode: normal"><path d="M239.34368,179.13924c0.58101,-0.02152 1.31266,-0.08608 1.95825,-1.03293c0.62406,-0.92533 0.68861,-2.1304 0.68861,-2.53928c0,-2.10889 -1.39874,-2.43168 -2.10888,-2.43168c-0.1076,0 -2.1304,0 -2.94813,1.46331c0.06456,-0.02152 0.10759,-0.02152 0.23671,-0.02152c0.47343,0 0.9899,0.30128 0.9899,0.9899c0,0.64557 -0.51646,0.96837 -0.96837,0.96837c-0.3228,0 -0.98989,-0.17216 -0.98989,-1.03293c0,-1.57091 1.59242,-2.88359 3.74435,-2.88359c2.08736,0 3.85194,1.24812 3.85194,2.94815c0,1.6785 -1.20508,3.2494 -3.07725,3.7874c2.06585,0.36582 3.65828,1.91522 3.65828,3.89499c0,2.17345 -1.8937,4.13171 -4.45449,4.13171c-2.38862,0 -4.30384,-1.57091 -4.30384,-3.48612c0,-0.81774 0.5595,-1.11902 1.07596,-1.11902c0.60255,0 1.05445,0.4304 1.05445,1.05446c0,0.77469 -0.62405,1.16204 -1.31268,1.05444c0.62406,1.42028 2.38864,1.91522 3.42155,1.91522c1.05445,0 2.51776,-0.75318 2.51776,-3.57221c0,-2.06584 -0.81774,-3.57219 -2.64686,-3.57219h-0.98989c-0.38734,0 -0.49493,0 -0.49493,-0.2152c0,-0.19367 0.08607,-0.21519 0.4519,-0.2367z" fill="#ff0000" stroke="none" stroke-width="1"/><path d="M231.2,207.8v-55.6h17.6v55.6z" fill="none" stroke="#000000" stroke-width="0"/></g></g></svg>