<svg version="1.1" xmlns="http://www.w3.org/2000/svg" xmlns:xlink="http://www.w3.org/1999/xlink" width="119.45761" height="98.42105" viewBox="0,0,119.45761,98.42105"><g transform="translate(-222.83691,-164.59325)"><g data-paper-data="{&quot;isPaintingLayer&quot;:true}" fill-rule="nonzero" stroke="none" stroke-width="0" stroke-linecap="butt" stroke-linejoin="miter" stroke-miterlimit="10" stroke-dasharray="" stroke-dashoffset="0" style="mix-blend-mode: normal"><path d="M222.83691,258.79695c0,-15.26544 0,-78.74026 0,-88.85907c0,-2.58437 2.64925,-5.34463 5.20921,-5.34463c11.39323,0 92.16673,0 109.89333,0c2.15545,0 4.35508,2.41935 4.35508,4.66695c0,9.62087 0,75.12571 0,89.87559c0,1.83722 -2.27798,3.87851 -4.01057,3.87851c-9.51788,0 -91.2699,0 -110.52021,0c-0.9049,0 -2.26331,-0.55523 -2.86881,-0.84072c-1.07988,-0.50915 -2.05802,-2.06354 -2.05802,-3.37663z" fill-opacity="0.11373" fill="#000000"/><path d="M223.43691,258.79884c0,-15.01727 0,-79.04569 0,-89c0,-2.54236 2.0218,-4.67226 4.54747,-4.67226c11.24063,0 92.51083,0 110,0c2.12658,0 3.31014,1.79453 3.31014,4.00559c0,9.46447 0,75.48991 0,90c0,1.80735 -1.26743,2.81545 -2.97681,2.81545c-9.3904,0 -92.00753,0 -111,0c-0.89278,0 -1.64497,-0.1462 -2.24236,-0.42705c-1.06542,-0.50087 -1.63844,-1.42999 -1.63844,-2.72174z" fill="#ffffff"/></g></g></svg>