<svg version="1.1" xmlns="http://www.w3.org/2000/svg" xmlns:xlink="http://www.w3.org/1999/xlink" width="17" height="35.33333" viewBox="0,0,17,35.33333"><g transform="translate(-231.50001,-162.33335)"><g data-paper-data="{&quot;isPaintingLayer&quot;:true}" fill-rule="nonzero" stroke="none" stroke-linecap="butt" stroke-linejoin="miter" stroke-miterlimit="10" stroke-dasharray="" stroke-dashoffset="0" style="mix-blend-mode: normal"><path d="M231.50001,197.66668v-35.33333h17v35.33333z" fill="none" stroke-width="0"/><path d="M239.64184,186.66021c-2.16843,0 -3.50434,-1.87802 -3.50434,-3.54306c0,-0.89061 0.67764,-1.02613 0.94869,-1.02613c0.63891,0 0.96805,0.48402 0.96805,0.94868c0,0.46467 -0.32914,0.9487 -0.96805,0.9487c-0.21297,0 -0.27106,-0.01937 -0.32914,-0.03872c0.32914,1.1423 1.43272,2.16843 2.84606,2.16843c0.89061,0 1.60695,-0.50338 2.07161,-1.25847c0.46466,-0.81317 0.46467,-1.97483 0.46467,-2.65247c0,-0.96805 -0.03873,-1.72313 -0.34849,-2.43949c-0.15488,-0.34849 -0.63891,-1.23911 -1.64567,-1.23911c-1.56824,0 -2.28459,1.0455 -2.49757,1.35529c-0.07744,0.11617 -0.11616,0.17424 -0.25169,0.17424c-0.27105,0 -0.27106,-0.15488 -0.27106,-0.50339v-5.73087c0,-0.30977 0,-0.46465 0.1936,-0.46465c0.03872,0 0.07745,0 0.23234,0.05807c0.90995,0.40659 1.80055,0.54212 2.57501,0.54212c1.29718,0 2.24588,-0.38722 2.63309,-0.56149c0.0968,-0.05807 0.13553,-0.05807 0.1549,-0.05807c0.13552,0 0.1936,0.0968 0.1936,0.21298c0,0.25169 -1.35527,2.01354 -3.73667,2.01354c-0.61955,0 -1.25847,-0.13552 -1.64568,-0.25169v3.77542c0.69699,-0.67764 1.52952,-0.98743 2.45883,-0.98743c2.091,0 3.6786,1.93612 3.6786,4.24007c0,2.45885 -1.97482,4.31751 -4.22069,4.31751z" fill="#ff0000" stroke-width="1"/></g></g></svg>