<svg version="1.1" xmlns="http://www.w3.org/2000/svg" xmlns:xlink="http://www.w3.org/1999/xlink" width="755.33156" height="360" viewBox="0,0,755.33156,360"><g transform="translate(137.66578,0)"><g data-paper-data="{&quot;isPaintingLayer&quot;:true}" fill-rule="nonzero" stroke-width="0" stroke-linecap="butt" stroke-linejoin="miter" stroke-miterlimit="10" stroke-dasharray="" stroke-dashoffset="0" style="mix-blend-mode: normal"><path d="M43.25,277.4v-188.5h395.5v188.5z" fill="none" stroke="#005fff"/><path d="M-137.66578,360v-360h755.33156v360z" fill="none" stroke="#005fff"/><path d="M181.59381,186.85029c0,-2.31969 0,-11.85355 0,-13.4196c0,-0.42506 0.32781,-0.78939 0.66968,-0.78939c1.11765,0 7.15712,0 7.15712,0l3.69826,3.57856c0,0 0.04328,9.16032 0.04973,10.52512c0.00156,0.32957 -0.23571,0.61373 -0.64306,0.61373c-2.17098,0 -9.13478,0 -10.31468,0c-0.33248,0 -0.61706,-0.18339 -0.61706,-0.50842zM188.51625,176.28468l-0.03756,-2.37299l-5.73798,0.00199l0.00579,2.35522c0.22698,0.03779 5.76975,0.01578 5.76975,0.01578zM187.21033,184.11374c0.72661,0 1.31565,-0.58904 1.31565,-1.31565c0,-0.72661 -0.58904,-1.31565 -1.31565,-1.31565c-0.72661,0 -1.31565,0.58904 -1.31565,1.31565c0,0.72661 0.58904,1.31565 1.31565,1.31565z" fill="#a8a8a8" stroke="none"/><text transform="translate(212.78561,183.48432) scale(0.29036,0.29036)" font-size="40" xml:space="preserve" fill="#ffffff" fill-rule="nonzero" stroke-opacity="0" stroke="#000000" stroke-width="0" stroke-linecap="butt" stroke-linejoin="miter" stroke-miterlimit="10" stroke-dasharray="" stroke-dashoffset="0" font-family="&quot;Microsoft YaHei&quot;, &quot;微软雅黑&quot;, STXihei, &quot;华文细黑&quot;" font-weight="normal" text-anchor="start" style="mix-blend-mode: normal"><tspan x="0" dy="0">文件</tspan></text><path d="M94.69443,254.21179v-133h301v133z" fill="none" stroke="none"/><path d="M177.33334,193v-26h166.33333v26z" fill-opacity="0.00392" fill="#ffffff" stroke="#005fff"/></g></g></svg>