<svg version="1.1" xmlns="http://www.w3.org/2000/svg" xmlns:xlink="http://www.w3.org/1999/xlink" width="37.86704" height="26.07225" viewBox="0,0,37.86704,26.07225"><g transform="translate(-221.0665,-166.96388)"><g data-paper-data="{&quot;isPaintingLayer&quot;:true}" fill-rule="nonzero" stroke-linejoin="miter" stroke-miterlimit="10" stroke-dasharray="" stroke-dashoffset="0" style="mix-blend-mode: normal"><path d="M256.45744,192.78613c-6.7336,0 -28.27729,0 -32.63067,0c-1.51414,0 -2.51026,-0.95831 -2.51026,-2.4908c0,-5.38467 0,-17.85811 0,-20.75669c0,-1.17748 0.83864,-2.32476 2.27173,-2.32476c4.30441,0 26.35938,0 32.92602,0c1.18062,0 2.16929,0.87327 2.16929,1.82658c0,2.7465 0,16.26468 0,21.58696c0,1.33855 -0.9369,2.1587 -2.22611,2.1587z" data-paper-data="{&quot;index&quot;:null}" fill="#d0d0d0" stroke="#d0d0d0" stroke-width="0.5" stroke-linecap="butt"/><g><path d="M229.23368,180.09642l5.78474,-5.78474h12.14795v11.37665h-12.34078l-5.01344,-5.01344z" fill="none" stroke="#000000" stroke-width="0.5" stroke-linecap="round"/><path d="M242.83128,176.91668c0.15008,-0.15008 0.20465,-0.20465 0.31378,-0.20465c0.16371,0 0.27285,0.12279 0.27285,0.27286c0,0.0955 -0.05456,0.15008 -0.06821,0.17737c-0.06821,0.08186 -0.27286,0.25922 -0.34107,0.34108l-2.4967,2.49668c0.68215,0.6958 2.85142,2.83777 2.86506,2.86506c0.04093,0.06821 0.04092,0.12279 0.04092,0.15007c0,0.15008 -0.10914,0.27287 -0.27285,0.27287c-0.08186,0 -0.17736,-0.06821 -0.20465,-0.08186l-2.82413,-2.82413l-2.71497,2.71499c-0.16371,0.16372 -0.19101,0.191 -0.30016,0.191c-0.13643,0 -0.27285,-0.12279 -0.27285,-0.27287c0,-0.0955 0.02729,-0.12279 0.17736,-0.27286l2.72862,-2.74227l-2.72862,-2.74226c-0.15008,-0.15008 -0.17736,-0.17737 -0.17736,-0.27287c0,-0.15008 0.13643,-0.27286 0.27285,-0.27286c0.10914,0 0.13645,0.02729 0.30016,0.191l2.72862,2.71499z" fill="#000000" stroke="none" stroke-width="1" stroke-linecap="butt"/></g></g></g></svg>