<svg version="1.1" xmlns="http://www.w3.org/2000/svg" xmlns:xlink="http://www.w3.org/1999/xlink" width="330.60287" height="367.61443" viewBox="0,0,330.60287,367.61443"><defs><linearGradient x1="149.3972" y1="179.02986" x2="373.86798" y2="179.02986" gradientUnits="userSpaceOnUse" id="color-1"><stop offset="0" stop-color="#252523" stop-opacity="0.79216"/><stop offset="1" stop-color="#252523" stop-opacity="0"/></linearGradient><linearGradient x1="252.57436" y1="336.05807" x2="252.57436" y2="345.80801" gradientUnits="userSpaceOnUse" id="color-2"><stop offset="0" stop-color="#ffc400" stop-opacity="0.49804"/><stop offset="1" stop-color="#ff7b00" stop-opacity="0.45098"/></linearGradient><linearGradient x1="260.91855" y1="336.05813" x2="260.91855" y2="345.80805" gradientUnits="userSpaceOnUse" id="color-3"><stop offset="0" stop-color="#ffc400" stop-opacity="0.49804"/><stop offset="1" stop-color="#ff7b00" stop-opacity="0.45098"/></linearGradient><linearGradient x1="270.33646" y1="336.05811" x2="270.33646" y2="345.80803" gradientUnits="userSpaceOnUse" id="color-4"><stop offset="0" stop-color="#ffc400" stop-opacity="0.49804"/><stop offset="1" stop-color="#ff7b00" stop-opacity="0.45098"/></linearGradient></defs><g transform="translate(-149.3972,4.77736)"><g data-paper-data="{&quot;isPaintingLayer&quot;:true}" fill-rule="nonzero" stroke-linejoin="miter" stroke-miterlimit="10" stroke-dasharray="" stroke-dashoffset="0" style="mix-blend-mode: normal"><path d="M149.3972,362.83707v-367.61443h224.47069v367.61443z" fill="url(#color-1)" stroke="none" stroke-width="0" stroke-linecap="butt"/><path d="M149.3972,362.83707v-367.61443h210.89974v367.61443z" fill="#fffdf2" stroke="none" stroke-width="0" stroke-linecap="butt"/><path d="M284.54427,362.83707v-367.61443h195.4558v367.61443z" fill="none" stroke="none" stroke-width="0" stroke-linecap="butt"/><text transform="translate(179.17075,25.74846) scale(0.39851,0.39851)" font-size="40" xml:space="preserve" fill="#000000" fill-rule="nonzero" stroke-opacity="0" stroke="#000000" stroke-width="0" stroke-linecap="butt" stroke-linejoin="miter" stroke-miterlimit="10" stroke-dasharray="" stroke-dashoffset="0" font-family="Sans Serif" font-weight="normal" text-anchor="start" style="mix-blend-mode: normal"><tspan x="0" dy="0">文件</tspan></text><text transform="translate(182.50393,52.91501) scale(0.31518,0.31518)" font-size="40" xml:space="preserve" fill="#000000" fill-rule="nonzero" stroke-opacity="0" stroke="#000000" stroke-width="0" stroke-linecap="butt" stroke-linejoin="miter" stroke-miterlimit="10" stroke-dasharray="" stroke-dashoffset="0" font-family="Sans Serif" font-weight="normal" text-anchor="start" style="mix-blend-mode: normal"><tspan x="0" dy="0">保存</tspan></text><path d="M364.16592,361.7803v-366.36637h66.06607v366.36637z" fill="none" stroke="none" stroke-width="NaN" stroke-linecap="butt"/><text transform="translate(182.50393,98.41501) scale(0.31518,0.31518)" font-size="40" xml:space="preserve" fill="#000000" fill-rule="nonzero" stroke-opacity="0" stroke="#000000" stroke-width="0" stroke-linecap="butt" stroke-linejoin="miter" stroke-miterlimit="10" stroke-dasharray="" stroke-dashoffset="0" font-family="Sans Serif" font-weight="normal" text-anchor="start" style="mix-blend-mode: normal"><tspan x="0" dy="0">打开</tspan></text><text transform="translate(182.50394,144.41501) scale(0.31518,0.31518)" font-size="40" xml:space="preserve" fill="#000000" fill-rule="nonzero" stroke-opacity="0" stroke="#000000" stroke-width="0" stroke-linecap="butt" stroke-linejoin="miter" stroke-miterlimit="10" stroke-dasharray="" stroke-dashoffset="0" font-family="Sans Serif" font-weight="normal" text-anchor="start" style="mix-blend-mode: normal"><tspan x="0" dy="0">转换</tspan></text><path d="M182.34706,257.73356c0,-24.60831 0,-82.16656 0,-94.3091c0,-4.40927 3.92272,-8.49004 8.46779,-8.49004c15.68395,0 106.00034,0 135.33334,0c5.78569,0 9.19887,5.03256 9.19887,10.21731c0,10.00742 0,69.48568 0,93.61819c0,6.27847 -4.65616,10.16451 -9.86554,10.16451c-16.42732,0 -103.42458,0 -133,0c-6.14872,0 -10.13446,-4.30775 -10.13446,-11.20087z" fill-opacity="0.41176" fill="#737373" stroke="none" stroke-width="0" stroke-linecap="butt"/><path d="M181.34707,256.73356c0,-24.60831 0,-82.16655 0,-94.30909c0,-4.40927 3.92272,-8.49004 8.46779,-8.49004c15.68395,0 106.00033,0 135.33334,0c5.78569,0 9.19887,5.03256 9.19887,10.21731c0,10.00741 0,69.48567 0,93.61818c0,6.27847 -4.65616,10.16451 -9.86554,10.16451c-16.42732,0 -103.42458,0 -133,0c-6.14871,0 -10.13446,-4.30775 -10.13446,-11.20087z" fill="#fff4c8" stroke="none" stroke-width="0" stroke-linecap="butt"/><g><g><path d="M235.17949,343.49353c0,-2.12238 1.72053,-3.84291 3.84291,-3.84291c2.12238,0 3.84291,1.72053 3.84291,3.84291c0,2.12238 -1.72053,3.84291 -3.84291,3.84291c-2.12238,0 -3.84291,-1.72053 -3.84291,-3.84291z" fill-opacity="0.40392" fill="#6dff00" stroke="none" stroke-width="0" stroke-linecap="butt"/><path d="M245.5414,334.52183c0,0 -2.43343,10.61163 -5.43522,10.61163c-3.00179,0 -5.43522,-10.61163 -5.43522,-10.61163z" fill-opacity="0.1451" fill="#ff0000" stroke="none" stroke-width="0" stroke-linecap="butt"/><path d="M244.27387,348.61741c0,0 -1.16263,-13.07979 -3.83162,-4.379c-2.74668,8.95403 -4.62227,-9.42701 -4.62227,-9.42701" fill="none" stroke="#006bff" stroke-width="0.5" stroke-linecap="round"/></g><g stroke="none" stroke-width="1" stroke-linecap="butt"><path d="M255.77503,339.13773c-0.05379,0.21517 -0.06724,0.25553 -0.18828,0.25553c-0.04034,0 -0.14793,0 -0.14793,-0.12103c0,-0.05379 0.06724,-0.41688 0.06724,-0.76655c0,-1.27757 -0.6186,-2.08446 -1.93653,-2.08446c-1.27757,0 -2.42066,1.15655 -2.42066,2.28619c0,0.45724 0.17483,0.78 0.40345,1.0086c0.24207,0.21517 0.3631,0.25552 1.26411,0.49758c1.23724,0.32275 1.4793,0.38999 1.76171,0.6724c0.51104,0.49758 0.64552,0.99517 0.64552,1.55998c0,1.68103 -1.58688,3.36205 -3.32169,3.36205c-1.25068,0 -1.94999,-0.53792 -2.27275,-1.02205l-0.6186,0.80688c-0.16138,0.20173 -0.17484,0.21517 -0.22863,0.21517c-0.0269,0 -0.13449,0 -0.13449,-0.12103c0,-0.01344 0.05378,-0.18827 0.05378,-0.20173l0.68585,-2.75687c0.05379,-0.22862 0.06724,-0.25552 0.18828,-0.25552c0.10758,0 0.13449,0.06724 0.13449,0.12103c0,0.0269 -0.01345,0.09414 -0.01345,0.13449c-0.04034,0.13449 -0.09414,0.45725 -0.09414,0.71276c0,1.50621 1.22378,1.97687 2.32653,1.97687c1.3448,0 2.50135,-1.29102 2.50135,-2.54171c0,-0.63206 -0.26895,-0.94136 -0.32275,-1.0086c-0.28241,-0.29585 -0.45725,-0.34966 -1.14308,-0.53793c-0.40345,-0.09414 -1.19688,-0.30931 -1.3448,-0.3631c-0.65896,-0.22862 -1.26414,-0.82034 -1.26414,-1.82896c0,-1.51964 1.54654,-3.07964 3.25445,-3.07964c0.56482,0 1.45239,0.14793 1.89618,1.02206c0.01344,-0.01344 0.56482,-0.71276 0.64552,-0.80688c0.16138,-0.20172 0.17483,-0.21517 0.22862,-0.21517c0.0269,0 0.12104,0 0.12104,0.12103z" fill="url(#color-2)"/><path d="M264.75131,339.60843c-0.05379,0.24207 -0.06724,0.25551 -0.21517,0.25551c-0.04034,0 -0.17483,0.00001 -0.17483,-0.12103c0,-0.18827 0.05379,-0.48414 0.05379,-0.6993c0,-1.23724 -0.56483,-2.59549 -2.15171,-2.59549c-1.18344,0 -2.43413,0.65896 -3.28135,1.62723c-1.30448,1.51965 -1.62723,3.57721 -1.62723,4.47824c0,2.32653 1.68103,2.86446 2.71653,2.86446c0.79344,0 1.85584,-0.30931 2.36689,-1.06241c0.25553,-0.40345 0.51103,-1.76171 0.51103,-1.77516c0,-0.20173 0,-0.30931 -1.06241,-0.30931h-0.33621c0,-0.01344 -0.10758,-0.01345 -0.10758,-0.14794c0,-0.24207 0.16138,-0.24206 0.2824,-0.24206c0.55137,0 1.14308,0.0269 1.70792,0.0269h0.7262c0.24207,0 0.49758,-0.0269 0.7262,-0.0269c0.04034,0 0.17483,0 0.17483,0.13449c0,0.25553 -0.16138,0.25551 -0.21517,0.25551c-0.73965,0.01344 -0.76654,0.05379 -0.90102,0.56482c-0.09414,0.40345 -0.14794,0.59171 -0.25553,1.03551l-0.21517,0.86068c-0.06724,0.24207 -0.17483,0.71276 -0.18828,0.73965c-0.01344,0 -0.0269,0.04034 -0.09414,0.04034c-0.09414,0 -0.38999,-0.3631 -0.53793,-0.87412c-0.67241,0.84724 -1.8962,1.17 -2.86447,1.17c-2.01723,0 -3.55031,-1.42551 -3.55031,-3.64446c0,-3.17376 3.02584,-6.10546 5.90375,-6.10546c0.20173,0 0.78001,0 1.35826,0.3631c0.52447,0.30931 0.79345,0.78 0.86069,0.88758l0.92791,-1.1162c0.10758,-0.13449 0.16138,-0.13449 0.18827,-0.13449c0.0269,0 0.12104,0 0.12104,0.12103z" fill="url(#color-3)"/><path d="M274.17593,339.60843c-0.05379,0.24207 -0.06724,0.25551 -0.21517,0.25551c-0.04034,0 -0.17484,0.00001 -0.17484,-0.12103c0,-0.05379 0.04035,-0.34965 0.04035,-0.6993c0,-1.37172 -0.65896,-2.59549 -2.13827,-2.59549c-1.27757,0 -2.54171,0.75311 -3.28135,1.61379c-1.51964,1.76171 -1.65413,4.10168 -1.65413,4.53203c0,1.90963 1.23724,2.82411 2.66274,2.82411c1.3448,0 3.16031,-1.0086 3.77893,-3.10653c0.0269,-0.05379 0.04034,-0.13449 0.16138,-0.13449c0.04034,0 0.14793,0 0.14793,0.12103c0,0.10758 -0.34964,1.41206 -1.51963,2.39377c-0.78001,0.65896 -1.72136,1.1162 -2.79723,1.1162c-1.96344,0 -3.53687,-1.39862 -3.53687,-3.64446c0,-3.16032 3.01239,-6.10546 5.91719,-6.10546c1.0086,0 1.74826,0.45725 2.21895,1.26414l0.92793,-1.12965c0.10758,-0.13449 0.16138,-0.13449 0.18828,-0.13449c0.0269,0 0.12103,0 0.12103,0.12104z" fill="url(#color-4)"/></g></g><path d="M298.79864,166.44019h22.875" fill="none" stroke="#cfcfcf" stroke-width="12.5" stroke-linecap="round"/><path d="M298.776,166.44019h6.875" fill="none" stroke="#ffcd05" stroke-width="11.5" stroke-linecap="round"/><g fill="none" stroke="#ffffff" stroke-width="0.5" stroke-linecap="round"><path d="M306.2507,167.44691l-1.86963,1.86963h-5.7527v-5.7527h3.06811l0.86291,1.91757h1.82169v1.86963"/><path d="M298.62837,169.2686l1.96551,-1.86963l5.70476,-0.04794"/></g><path d="M320.30809,168.9612c0.04802,0 0.09124,0.0192 0.12485,0.05282c0.03361,0.03361 0.05282,0.07683 0.05282,0.12485c0,0.04802 -0.0192,0.09123 -0.05282,0.12484c-0.03361,0.03361 -0.07683,0.05282 -0.12485,0.05282h-3.60144c-0.04802,0 -0.09123,-0.01921 -0.12484,-0.05282c-0.03361,-0.03361 -0.05283,-0.07682 -0.05283,-0.12484c0,-0.04802 0.01921,-0.09124 0.05283,-0.12485c0.03361,-0.03361 0.07682,-0.05282 0.12484,-0.05282zM316.70649,166.80033c0,-0.04802 0.0192,-0.09123 0.05282,-0.12484c0.03361,-0.03361 0.07683,-0.05283 0.12485,-0.05283c0.04802,0 0.09123,0.01921 0.12484,0.05283l1.31573,1.31092v-4.24491c0,-0.04802 0.01921,-0.09123 0.05282,-0.12484c0.03361,-0.03361 0.07683,-0.05282 0.12485,-0.05282c0.04802,0 0.09123,0.01921 0.12485,0.05282c0.03361,0.03361 0.05282,0.07682 0.05282,0.12484v4.24491l1.31572,-1.31092c0.03361,-0.03361 0.07683,-0.05283 0.12485,-0.05283c0.04802,0 0.09123,0.01921 0.12485,0.05283c0.03361,0.03361 0.05282,0.07682 0.05282,0.12484c0,0.04802 -0.0192,0.09124 -0.05282,0.12485l-1.61345,1.61344c-0.01921,0.01921 -0.03842,0.03841 -0.06242,0.04801c-0.02402,0.0096 -0.04322,0.01441 -0.07683,0.01441c-0.03361,0 -0.05282,-0.00481 -0.07683,-0.01441c-0.02402,-0.0096 -0.03842,-0.02401 -0.06242,-0.04801l-1.61344,-1.61344c-0.01921,-0.03361 -0.03362,-0.07683 -0.03362,-0.12485z" fill="#000000" stroke="none" stroke-width="0" stroke-linecap="butt"/></g></g></svg>