<svg version="1.1" xmlns="http://www.w3.org/2000/svg" xmlns:xlink="http://www.w3.org/1999/xlink" width="17.6" height="55.6" viewBox="0,0,17.6,55.6"><g transform="translate(-231.2,-152.2)"><g data-paper-data="{&quot;isPaintingLayer&quot;:true}" fill-rule="nonzero" stroke-linecap="butt" stroke-linejoin="miter" stroke-miterlimit="10" stroke-dasharray="" stroke-dashoffset="0" style="mix-blend-mode: normal"><path d="M243.56144,185.01402c-0.62406,1.24812 -1.70002,2.36712 -3.57219,2.36712c-1.11899,0 -2.60383,-0.51646 -3.44307,-2.15193c-0.77469,-1.52787 -0.92532,-3.09878 -0.92532,-5.18615c0,-2.32409 0.21519,-3.6583 0.81773,-5.01401c0.79621,-1.78609 2.32408,-2.41016 3.5722,-2.41016c1.05444,0 2.60382,0.47343 3.4861,2.25952c0.77469,1.63547 0.8823,3.37853 0.8823,5.16465c0,1.24812 -0.04305,3.35701 -0.81774,4.97096zM242.507,184.17476c0.2367,-1.31268 0.2367,-2.94815 0.2367,-4.38995c0,-1.46331 0,-3.16334 -0.27975,-4.38993c-0.40886,-1.85066 -1.65697,-2.34562 -2.47471,-2.34562c-0.92532,0 -2.0228,0.66711 -2.38864,2.1089c-0.34431,1.26965 -0.34431,2.86206 -0.34431,4.62665c0,1.50636 0,3.14183 0.23672,4.43299c0.40887,2.3456 1.80761,2.73295 2.49623,2.73295c0.75318,0 2.10889,-0.40887 2.51776,-2.77599z" fill="#ff0000" stroke="none" stroke-width="1"/><path d="M231.2,207.8v-55.6h17.6v55.6z" fill="none" stroke="#000000" stroke-width="0"/></g></g></svg>