<svg version="1.1" xmlns="http://www.w3.org/2000/svg" xmlns:xlink="http://www.w3.org/1999/xlink" width="17" height="35.33333" viewBox="0,0,17,35.33333"><g transform="translate(-231.50002,-162.33335)"><g data-paper-data="{&quot;isPaintingLayer&quot;:true}" fill-rule="nonzero" stroke="none" stroke-linecap="butt" stroke-linejoin="miter" stroke-miterlimit="10" stroke-dasharray="" stroke-dashoffset="0" style="mix-blend-mode: normal"><path d="M231.50002,197.66668v-35.33333h17v35.33333z" fill="none" stroke-width="0"/><path d="M241.38679,178.1903c-0.8655,1.21959 -1.1409,2.91126 -1.21956,3.36368c-0.15738,1.06221 -0.21637,2.14408 -0.21637,3.22597v1.0032c0,0.19671 0,1.08188 -0.90484,1.08188c-0.90484,0 -0.90484,-0.88517 -0.90484,-1.08188c0,-2.0064 0.64912,-4.74061 2.41947,-7.39614c0.43275,-0.64912 1.98672,-2.79322 2.2031,-3.10794h-4.0718c-0.2557,0 -1.79001,0 -1.92771,0.11802c-0.2557,0.23605 -0.43274,1.47529 -0.49175,1.79002h-0.49176l0.64912,-4.05213h0.49177c0.07867,0.37374 0.11801,0.62945 2.51781,0.62945h4.77993c0,0.41308 0,0.45242 -0.17703,0.68847z" fill="#ff0000" stroke-width="1"/></g></g></svg>