<svg version="1.1" xmlns="http://www.w3.org/2000/svg" xmlns:xlink="http://www.w3.org/1999/xlink" width="395.5" height="188.5" viewBox="0,0,395.5,188.5"><g transform="translate(-43.25,-88.9)"><g data-paper-data="{&quot;isPaintingLayer&quot;:true}" fill-rule="nonzero" stroke-width="0" stroke-linejoin="miter" stroke-miterlimit="10" stroke-dasharray="" stroke-dashoffset="0" style="mix-blend-mode: normal"><path d="M43.25,277.4v-188.5h395.5v188.5z" fill="none" stroke="#005fff" stroke-linecap="butt"/><path d="M194.50133,179.28661c0.01905,0.19044 0.0288,0.38361 0.0288,0.57907c0,0.19545 -0.00975,0.38863 -0.0288,0.57907l1.50245,1.69433l-1.64266,2.84517l-2.21857,-0.454c-0.31237,0.22552 -0.64829,0.42043 -1.00338,0.58034l-0.71569,2.14706h-3.28532l-0.71569,-2.14706c-0.35509,-0.15991 -0.69101,-0.35482 -1.00338,-0.58034l-2.21857,0.454l-1.64266,-2.84517l1.50245,-1.69433c-0.01905,-0.19044 -0.0288,-0.38361 -0.0288,-0.57907c0,-0.19545 0.00975,-0.38863 0.0288,-0.57907l-1.50245,-1.69433l1.64266,-2.84517l2.21857,0.454c0.31237,-0.22552 0.64829,-0.42043 1.00338,-0.58034l0.71569,-2.14706h3.28532l0.71569,2.14706c0.35509,0.15991 0.69101,0.35482 1.00338,0.58034l2.21857,-0.454l1.64266,2.84517zM188.75949,177.13594c-1.51879,0 -2.75,1.23121 -2.75,2.75c0,1.51879 1.23121,2.75 2.75,2.75c1.51879,0 2.75,-1.23121 2.75,-2.75c0,-1.51879 -1.23121,-2.75 -2.75,-2.75z" fill="#b4b4b4" stroke="none" stroke-linecap="square"/><text transform="translate(212.78561,183.48432) scale(0.29036,0.29036)" font-size="40" xml:space="preserve" fill="#ffffff" fill-rule="nonzero" stroke-opacity="0" stroke="#000000" stroke-width="0" stroke-linecap="butt" stroke-linejoin="miter" stroke-miterlimit="10" stroke-dasharray="" stroke-dashoffset="0" font-family="&quot;Microsoft YaHei&quot;, &quot;微软雅黑&quot;, STXihei, &quot;华文细黑&quot;" font-weight="normal" text-anchor="start" style="mix-blend-mode: normal"><tspan x="0" dy="0">设置</tspan></text><path d="M94.69443,254.21179v-133h301v133z" fill="none" stroke="none" stroke-linecap="butt"/><path d="M177.33334,193v-26h166.33333v26z" fill-opacity="0.00392" fill="#ffffff" stroke="#005fff" stroke-linecap="butt"/></g></g></svg>