<svg version="1.1" xmlns="http://www.w3.org/2000/svg" xmlns:xlink="http://www.w3.org/1999/xlink" width="480" height="153.25894" viewBox="0,0,480,153.25894"><g transform="translate(0.0015,-206.74106)"><g data-paper-data="{&quot;isPaintingLayer&quot;:true}" fill-rule="nonzero" stroke-linecap="butt" stroke-linejoin="miter" stroke-miterlimit="10" stroke-dasharray="" stroke-dashoffset="0" style="mix-blend-mode: normal"><path d="M-0.0015,360v-153.25894h480v153.25894z" fill-opacity="0.72157" fill="#f5efcb" stroke="none" stroke-width="0"/><g><path d="M91.55746,263.02718c-6.7336,0 -28.27729,0 -32.63067,0c-1.51414,0 -2.51026,-0.95831 -2.51026,-2.4908c0,-5.38467 0,-17.85811 0,-20.75669c0,-1.17748 0.83864,-2.32476 2.27173,-2.32476c4.30441,0 26.35938,0 32.92602,0c1.18062,0 2.16929,0.87327 2.16929,1.82658c0,2.7465 0,16.26468 0,21.58696c0,1.33855 -0.9369,2.1587 -2.22611,2.1587z" data-paper-data="{&quot;index&quot;:null}" fill-opacity="0.91765" fill="#ffffff" stroke="#d0d0d0" stroke-width="0.5"/><path d="M131.55746,263.02718c-6.7336,0 -28.27729,0 -32.63067,0c-1.51414,0 -2.51026,-0.95831 -2.51026,-2.4908c0,-5.38467 0,-17.85811 0,-20.75669c0,-1.17748 0.83864,-2.32476 2.27173,-2.32476c4.30441,0 26.35938,0 32.92602,0c1.18062,0 2.16929,0.87327 2.16929,1.82658c0,2.7465 0,16.26468 0,21.58696c0,1.33855 -0.9369,2.1587 -2.22611,2.1587z" data-paper-data="{&quot;index&quot;:null}" fill-opacity="0.91765" fill="#ffffff" stroke="#d0d0d0" stroke-width="0.5"/><path d="M171.55746,263.02718c-6.7336,0 -28.27729,0 -32.63067,0c-1.51414,0 -2.51026,-0.95831 -2.51026,-2.4908c0,-5.38467 0,-17.85811 0,-20.75669c0,-1.17748 0.83864,-2.32476 2.27173,-2.32476c4.30441,0 26.35938,0 32.92602,0c1.18062,0 2.16929,0.87327 2.16929,1.82658c0,2.7465 0,16.26468 0,21.58696c0,1.33855 -0.9369,2.1587 -2.22611,2.1587z" data-paper-data="{&quot;index&quot;:null}" fill-opacity="0.91765" fill="#ffffff" stroke="#d0d0d0" stroke-width="0.5"/><path d="M211.55746,263.02718c-6.7336,0 -28.27729,0 -32.63067,0c-1.51414,0 -2.51026,-0.95831 -2.51026,-2.4908c0,-5.38467 0,-17.85811 0,-20.75669c0,-1.17748 0.83864,-2.32476 2.27173,-2.32476c4.30441,0 26.35938,0 32.92602,0c1.18062,0 2.16929,0.87327 2.16929,1.82658c0,2.7465 0,16.26468 0,21.58696c0,1.33855 -0.9369,2.1587 -2.22611,2.1587z" data-paper-data="{&quot;index&quot;:null}" fill-opacity="0.91765" fill="#ffffff" stroke="#d0d0d0" stroke-width="0.5"/><path d="M91.55746,293.02718c-6.7336,0 -28.27729,0 -32.63067,0c-1.51414,0 -2.51026,-0.95831 -2.51026,-2.4908c0,-5.38467 0,-17.85811 0,-20.75669c0,-1.17748 0.83864,-2.32476 2.27173,-2.32476c4.30441,0 26.35938,0 32.92602,0c1.18062,0 2.16929,0.87327 2.16929,1.82658c0,2.7465 0,16.26468 0,21.58696c0,1.33855 -0.9369,2.1587 -2.22611,2.1587z" data-paper-data="{&quot;index&quot;:null}" fill-opacity="0.91765" fill="#ffffff" stroke="#d0d0d0" stroke-width="0.5"/><path d="M131.55746,293.02718c-6.7336,0 -28.27729,0 -32.63067,0c-1.51414,0 -2.51026,-0.95831 -2.51026,-2.4908c0,-5.38467 0,-17.85811 0,-20.75669c0,-1.17748 0.83864,-2.32476 2.27173,-2.32476c4.30441,0 26.35938,0 32.92602,0c1.18062,0 2.16929,0.87327 2.16929,1.82658c0,2.7465 0,16.26468 0,21.58696c0,1.33855 -0.9369,2.1587 -2.22611,2.1587z" data-paper-data="{&quot;index&quot;:null}" fill-opacity="0.91765" fill="#ffffff" stroke="#d0d0d0" stroke-width="0.5"/><path d="M171.55746,293.02718c-6.7336,0 -28.27729,0 -32.63067,0c-1.51414,0 -2.51026,-0.95831 -2.51026,-2.4908c0,-5.38467 0,-17.85811 0,-20.75669c0,-1.17748 0.83864,-2.32476 2.27173,-2.32476c4.30441,0 26.35938,0 32.92602,0c1.18062,0 2.16929,0.87327 2.16929,1.82658c0,2.7465 0,16.26468 0,21.58696c0,1.33855 -0.9369,2.1587 -2.22611,2.1587z" data-paper-data="{&quot;index&quot;:null}" fill-opacity="0.91765" fill="#ffffff" stroke="#d0d0d0" stroke-width="0.5"/><path d="M211.55746,293.02718c-6.7336,0 -28.27729,0 -32.63067,0c-1.51414,0 -2.51026,-0.95831 -2.51026,-2.4908c0,-5.38467 0,-17.85811 0,-20.75669c0,-1.17748 0.83864,-2.32476 2.27173,-2.32476c4.30441,0 26.35938,0 32.92602,0c1.18062,0 2.16929,0.87327 2.16929,1.82658c0,2.7465 0,16.26468 0,21.58696c0,1.33855 -0.9369,2.1587 -2.22611,2.1587z" data-paper-data="{&quot;index&quot;:null}" fill-opacity="0.91765" fill="#ffffff" stroke="#d0d0d0" stroke-width="0.5"/><path d="M91.55746,323.02718c-6.7336,0 -28.27729,0 -32.63067,0c-1.51414,0 -2.51026,-0.95831 -2.51026,-2.4908c0,-5.38467 0,-17.85811 0,-20.75669c0,-1.17748 0.83864,-2.32476 2.27173,-2.32476c4.30441,0 26.35938,0 32.92602,0c1.18062,0 2.16929,0.87327 2.16929,1.82658c0,2.7465 0,16.26468 0,21.58696c0,1.33855 -0.9369,2.1587 -2.22611,2.1587z" data-paper-data="{&quot;index&quot;:null}" fill-opacity="0.91765" fill="#ffffff" stroke="#d0d0d0" stroke-width="0.5"/><path d="M131.55746,323.02718c-6.7336,0 -28.27729,0 -32.63067,0c-1.51414,0 -2.51026,-0.95831 -2.51026,-2.4908c0,-5.38467 0,-17.85811 0,-20.75669c0,-1.17748 0.83864,-2.32476 2.27173,-2.32476c4.30441,0 26.35938,0 32.92602,0c1.18062,0 2.16929,0.87327 2.16929,1.82658c0,2.7465 0,16.26468 0,21.58696c0,1.33855 -0.9369,2.1587 -2.22611,2.1587z" data-paper-data="{&quot;index&quot;:null}" fill-opacity="0.91765" fill="#ffffff" stroke="#d0d0d0" stroke-width="0.5"/><path d="M171.55746,323.02718c-6.7336,0 -28.27729,0 -32.63067,0c-1.51414,0 -2.51026,-0.95831 -2.51026,-2.4908c0,-5.38467 0,-17.85811 0,-20.75669c0,-1.17748 0.83864,-2.32476 2.27173,-2.32476c4.30441,0 26.35938,0 32.92602,0c1.18062,0 2.16929,0.87327 2.16929,1.82658c0,2.7465 0,16.26468 0,21.58696c0,1.33855 -0.9369,2.1587 -2.22611,2.1587z" data-paper-data="{&quot;index&quot;:null}" fill-opacity="0.91765" fill="#ffffff" stroke="#d0d0d0" stroke-width="0.5"/><path d="M211.55746,323.02718c-6.7336,0 -28.27729,0 -32.63067,0c-1.51414,0 -2.51026,-0.95831 -2.51026,-2.4908c0,-5.38467 0,-17.85811 0,-20.75669c0,-1.17748 0.83864,-2.32476 2.27173,-2.32476c4.30441,0 26.35938,0 32.92602,0c1.18062,0 2.16929,0.87327 2.16929,1.82658c0,2.7465 0,16.26468 0,21.58696c0,1.33855 -0.9369,2.1587 -2.22611,2.1587z" data-paper-data="{&quot;index&quot;:null}" fill-opacity="0.91765" fill="#ffffff" stroke="#d0d0d0" stroke-width="0.5"/><path d="M91.55746,353.02719c-6.7336,0 -28.27729,0 -32.63067,0c-1.51414,0 -2.51026,-0.95831 -2.51026,-2.4908c0,-5.38467 0,-17.85811 0,-20.75669c0,-1.17748 0.83864,-2.32476 2.27173,-2.32476c4.30441,0 26.35938,0 32.92602,0c1.18062,0 2.16929,0.87327 2.16929,1.82658c0,2.7465 0,16.26468 0,21.58696c0,1.33855 -0.9369,2.1587 -2.22611,2.1587z" data-paper-data="{&quot;index&quot;:null}" fill-opacity="0.91765" fill="#ffffff" stroke="#d0d0d0" stroke-width="0.5"/><path d="M131.55746,353.02719c-6.7336,0 -28.27729,0 -32.63067,0c-1.51414,0 -2.51026,-0.95831 -2.51026,-2.4908c0,-5.38467 0,-17.85811 0,-20.75669c0,-1.17748 0.83864,-2.32476 2.27173,-2.32476c4.30441,0 26.35938,0 32.92602,0c1.18062,0 2.16929,0.87327 2.16929,1.82658c0,2.7465 0,16.26468 0,21.58696c0,1.33855 -0.9369,2.1587 -2.22611,2.1587z" data-paper-data="{&quot;index&quot;:null}" fill-opacity="0.91765" fill="#ffffff" stroke="#d0d0d0" stroke-width="0.5"/><path d="M171.55746,353.02719c-6.7336,0 -28.27729,0 -32.63067,0c-1.51414,0 -2.51026,-0.95831 -2.51026,-2.4908c0,-5.38467 0,-17.85811 0,-20.75669c0,-1.17748 0.83864,-2.32476 2.27173,-2.32476c4.30441,0 26.35938,0 32.92602,0c1.18062,0 2.16929,0.87327 2.16929,1.82658c0,2.7465 0,16.26468 0,21.58696c0,1.33855 -0.9369,2.1587 -2.22611,2.1587z" data-paper-data="{&quot;index&quot;:null}" fill-opacity="0.91765" fill="#ffffff" stroke="#d0d0d0" stroke-width="0.5"/><path d="M211.55746,353.02719c-6.7336,0 -28.27729,0 -32.63067,0c-1.51414,0 -2.51026,-0.95831 -2.51026,-2.4908c0,-5.38467 0,-17.85811 0,-20.75669c0,-1.17748 0.83864,-2.32476 2.27173,-2.32476c4.30441,0 26.35938,0 32.92602,0c1.18062,0 2.16929,0.87327 2.16929,1.82658c0,2.7465 0,16.26468 0,21.58696c0,1.33855 -0.9369,2.1587 -2.22611,2.1587z" data-paper-data="{&quot;index&quot;:null}" fill-opacity="0.91765" fill="#ffffff" stroke="#d0d0d0" stroke-width="0.5"/><path d="M75.7368,254.57937c0,0.61128 0.05094,0.81503 1.54515,0.81503h0.52636v0.49241c-0.45846,-0.03396 -2.08851,-0.03396 -2.64883,-0.03396c-0.56033,0 -2.20735,0 -2.66581,0.03396v-0.49241h0.52636c1.49422,0 1.54516,-0.20376 1.54516,-0.81503v-8.84642c-0.93388,0.44148 -1.78286,0.44148 -2.1734,0.44148v-0.49241c1.74891,0 2.59789,-0.62825 3.0054,-1.08671c0.33959,0 0.33959,0.01698 0.33959,0.40751z" fill="#000000" stroke="none" stroke-width="1"/><path d="M117.97811,255.8868h-6.19759v-0.40751l3.4299,-3.83741c0.96784,-1.0867 1.79984,-2.34319 1.79984,-3.78647c0,-1.56214 -0.88294,-2.76769 -2.32622,-2.76769c-1.10368,0 -2.02057,0.78106 -2.34319,1.93569c0.05094,-0.01698 0.0849,-0.01699 0.23771,-0.01699c0.47544,0 0.79805,0.32262 0.79805,0.79805c0,0.54335 -0.44148,0.79805 -0.79805,0.79805c-0.05093,0 -0.79804,0 -0.79804,-0.86596c0,-1.46026 1.15461,-3.14124 3.12426,-3.14124c1.96965,0 3.5148,1.30744 3.5148,3.26011c0,1.68098 -0.95086,2.56392 -3.53177,4.94109c-0.44147,0.40751 -1.47723,1.49422 -1.93569,1.88474h3.14124c0.50938,0 1.47723,0 1.59609,-0.15282c0.16979,-0.27166 0.30563,-1.20556 0.35657,-1.49421h0.37356z" fill="#000000" stroke="none" stroke-width="1"/><path d="M154.58218,249.56185c0.45844,-0.01698 1.03576,-0.06793 1.54515,-0.81503c0.49241,-0.73013 0.54335,-1.68098 0.54335,-2.0036c0,-1.66402 -1.10368,-1.9187 -1.66401,-1.9187c-0.0849,0 -1.68098,0 -2.32622,1.15462c0.05094,-0.01698 0.08489,-0.01698 0.18677,-0.01698c0.37356,0 0.78107,0.23772 0.78107,0.78108c0,0.50938 -0.40751,0.76409 -0.76409,0.76409c-0.2547,0 -0.78107,-0.13584 -0.78107,-0.81503c0,-1.23951 1.2565,-2.27527 2.95447,-2.27527c1.64703,0 3.03936,0.98482 3.03936,2.32622c0,1.32441 -0.95086,2.56392 -2.4281,2.98842c1.63006,0.28865 2.88656,1.51119 2.88656,3.07332c0,1.71495 -1.49421,3.26011 -3.5148,3.26011c-1.88474,0 -3.39593,-1.23952 -3.39593,-2.75071c0,-0.64523 0.44148,-0.88296 0.84898,-0.88296c0.47544,0 0.83201,0.3396 0.83201,0.83202c0,0.61127 -0.49241,0.9169 -1.03576,0.832c0.49241,1.12066 1.88474,1.51119 2.69976,1.51119c0.83201,0 1.98663,-0.59429 1.98663,-2.81863c0,-1.63005 -0.64523,-2.81862 -2.08849,-2.81862h-0.78107c-0.30564,0 -0.39053,0 -0.39053,-0.16981c0,-0.15281 0.06791,-0.16979 0.35658,-0.18677z" fill="#000000" stroke="none" stroke-width="1"/><path d="M193.48349,252.66123c-0.18266,0.73065 -0.18266,0.76719 -0.47492,1.69877c-0.2192,0.76719 -0.36533,1.24211 -0.89505,1.24211c-0.1644,0 -0.49319,-0.09133 -0.49319,-0.47492c0,-0.10959 -0.00001,-0.14613 0.14612,-0.43839c1.49784,-3.19661 1.9545,-4.78578 2.35636,-6.15576h-1.04118c-0.45666,0 -1.40651,0 -2.35636,1.49784c-0.09133,0.10959 -0.1096,0.1644 -0.23747,0.1644c-0.10959,0 -0.20093,-0.03654 -0.20093,-0.14613c0,-0.10959 0.58452,-1.07772 1.05945,-1.60744c0.84026,-0.89505 1.46131,-0.89505 1.88143,-0.89505h6.00963c0.32879,0 0.67585,0 0.67585,0.40186c0,0.58452 -0.60279,0.58452 -0.84026,0.58452h-2.04582c-0.38359,1.64397 -0.3836,2.94088 -0.3836,3.05048c0,0.12787 0,1.69877 0.49319,2.95914c0.12787,0.274 0.12787,0.31053 0.12787,0.40186c0,0.31053 -0.3288,0.65759 -0.71239,0.65759c-0.74892,0 -0.74892,-1.97277 -0.74892,-2.22849c0,-1.46131 0.31053,-2.79475 0.80372,-4.84058h-2.0641z" fill="#000000" stroke="none" stroke-width="1"/><path d="M77.07818,282.64369h1.71494v0.49241h-1.71494v1.54515c0,0.62825 0.05094,0.79804 1.27347,0.79804h0.3396v0.49241c-0.39055,-0.03396 -1.74893,-0.03396 -2.22435,-0.03396c-0.47542,0 -1.81682,0 -2.20735,0.03396v-0.49241h0.33959c1.23952,0 1.27349,-0.16979 1.27349,-0.79804v-1.54515h-4.46566v-0.49241l5.11087,-7.92952c0.13584,-0.20375 0.18678,-0.20375 0.32262,-0.20375c0.23772,0 0.23772,0.0849 0.23772,0.40751zM71.83146,282.64369h4.12607v-6.40135z" fill="#000000" stroke="none" stroke-width="1"/><path d="M113.1219,279.48545c0.44147,-0.47542 1.18859,-0.89993 2.15643,-0.89993c1.78286,0 3.14124,1.681 3.14124,3.70158c0,2.15643 -1.68099,3.7695 -3.59969,3.7695c-1.88474,0 -3.03936,-1.64703 -3.03936,-3.09031c0,-0.66221 0.44146,-0.81502 0.74711,-0.81502c0.42448,0 0.7471,0.27166 0.7471,0.7471c0,0.5773 -0.45845,0.7471 -0.7471,0.7471c-0.0849,0 -0.18678,-0.01698 -0.27168,-0.05094c0.30564,1.23952 1.40931,2.00361 2.52997,2.00361c0.7471,0 1.40931,-0.42449 1.78286,-1.03576c0.47542,-0.76408 0.47543,-1.73192 0.47543,-2.37716c0,-0.64523 -0.01697,-1.47723 -0.30564,-2.13944c-0.13584,-0.28866 -0.5773,-1.12066 -1.47723,-1.12066c-0.84898,0 -1.64703,0.40751 -2.12246,1.10368c-0.16979,0.20375 -0.18677,0.22074 -0.27168,0.22074c-0.20376,0 -0.20376,-0.10188 -0.20376,-0.40751v-5.04297c0,-0.27168 0,-0.37354 0.13584,-0.37354c0.01697,0 0.05093,0 0.16979,0.05093c0.32262,0.13583 1.12066,0.47544 2.24132,0.47544c0.44147,0 1.25648,-0.05094 2.20735,-0.45845c0.15282,-0.06791 0.18678,-0.06791 0.22074,-0.06791c0.10188,0 0.13584,0.0849 0.13584,0.15281c0,0.23772 -1.22254,1.64703 -3.14124,1.64703c-0.18677,0 -0.78106,-0.01697 -1.51119,-0.2547z" fill="#000000" stroke="none" stroke-width="1"/><path d="M153.03702,280.25802c0.16979,-0.47542 0.73013,-1.78286 2.24132,-1.78286c1.69797,0 3.27708,1.51119 3.27708,3.7695c0,2.20735 -1.57911,3.82043 -3.4299,3.82043c-1.44327,0 -3.48083,-1.05274 -3.48083,-5.72215c0,-3.73553 2.24131,-5.92591 4.38075,-5.92591c1.47723,0 2.12247,0.86597 2.12247,1.74891c0,0.49241 -0.28866,0.7471 -0.71315,0.7471c-0.44147,0 -0.69617,-0.32262 -0.69617,-0.69616c0,-0.69617 0.64523,-0.69617 0.84898,-0.69617c-0.32262,-0.50938 -0.93388,-0.69617 -1.54515,-0.69617c-0.91691,0 -3.00541,0.67919 -3.00541,4.97504zM156.84047,284.50295c0.32262,-0.64523 0.32262,-1.40931 0.32262,-2.27527c0,-0.73013 0,-1.57912 -0.27168,-2.20736c-0.2547,-0.5773 -0.7471,-1.20556 -1.68098,-1.20556c-1.52817,0 -2.13945,1.681 -2.13945,3.02239c0,1.18858 0.1698,2.02058 0.32262,2.46206c0.15282,0.35657 0.66221,1.30743 1.73192,1.30743c0.67919,0 1.29047,-0.28866 1.71495,-1.10368z" fill="#000000" stroke="none" stroke-width="1"/><path d="M193.13282,281.26672c-0.2797,1.19339 -0.2797,1.65956 -0.2797,1.92061c0,1.37986 0.55939,2.21895 1.62226,2.21895c0.70858,0 2.48001,-0.2797 3.67341,-1.86468c0.16783,-0.16783 0.18646,-0.18646 0.2424,-0.18646c0.07459,0 0.18646,0.09323 0.18646,0.20512c0,0.2424 -1.60361,2.21896 -4.13957,2.21896c-1.69685,0 -2.81564,-1.36121 -2.81564,-3.31911c0,-3.31911 2.81564,-5.09055 4.77355,-5.09055c1.23069,0 1.93925,0.74587 1.93925,1.56633c0,0.33563 -0.13052,1.41714 -1.54768,1.9579c-0.89505,0.33563 -2.16302,0.37293 -2.66648,0.37293zM194.00922,280.89379c0.78316,0 3.76663,0 3.76663,-1.9579c0,-0.70856 -0.5594,-1.19339 -1.37986,-1.19339c-0.5967,0 -2.36812,0.2797 -3.16994,3.1513z" fill="#000000" stroke="none" stroke-width="1"/><path d="M76.21222,308.7893c-0.79804,1.13765 -1.20556,3.10728 -1.20556,5.63726v0.84898c0,0.22074 0.00001,0.88295 -0.71314,0.88295c-0.69616,0 -0.69616,-0.67919 -0.69616,-0.86597c0,-3.19218 1.71495,-5.97685 2.17339,-6.63906l1.79985,-2.58091h-3.59969c-0.23772,0 -1.51119,0 -1.64703,0.10188c-0.22074,0.18678 -0.37356,1.23952 -0.4245,1.54515h-0.37355l0.52637,-3.39594h0.37355c0.06792,0.32262 0.10189,0.54335 2.15643,0.54335h4.0921v0.39053z" fill="#000000" stroke="none" stroke-width="1"/><path d="M118.55542,312.88989c0,1.78287 -1.57912,3.1752 -3.46387,3.1752c-1.73192,0 -3.44687,-1.12066 -3.44687,-2.92051c0,-1.23951 0.84898,-2.37715 2.49601,-3.14124c-1.18858,-0.83202 -1.20556,-0.84898 -1.39233,-1.06972c-0.47544,-0.5773 -0.64523,-1.15462 -0.64523,-1.73193c0,-1.54516 1.3244,-2.78467 3.0054,-2.78467c1.56213,0 2.98843,1.01878 2.98843,2.49601c0,1.42629 -1.23952,2.20737 -2.0885,2.66581c1.32441,0.81503 2.54696,1.57912 2.54696,3.31104zM115.66887,309.34115c0.98482,-0.54335 1.73192,-1.37537 1.73192,-2.41112c0,-1.22255 -1.0867,-2.10548 -2.30923,-2.10548c-1.13764,0 -2.29225,0.69616 -2.29225,1.79985c0,0.832 0.67918,1.27347 0.89991,1.42629zM112.42576,313.14459c0,1.40932 1.23951,2.46206 2.68278,2.46206c1.35836,0 2.6658,-0.88295 2.6658,-2.1734c0,-1.03576 -0.78106,-1.56214 -1.22254,-1.85079l-2.05454,-1.34139c-1.10368,0.50939 -2.07151,1.57912 -2.07151,2.90353z" fill="#000000" stroke="none" stroke-width="1"/><path d="M157.16309,310.20711c-0.3396,0.86597 -0.98482,1.78286 -2.24132,1.78286c-1.69797,0 -3.27708,-1.52817 -3.27708,-3.76949c0,-2.24132 1.64704,-3.80345 3.5148,-3.80345c1.49421,0 3.39593,1.13763 3.39593,5.70517c0,3.6846 -2.05454,5.94289 -4.17701,5.94289c-1.47723,0 -2.32622,-0.71315 -2.32622,-1.76588c0,-0.44148 0.27167,-0.73013 0.71315,-0.73013c0.44147,0 0.69617,0.32262 0.69617,0.69617c0,0.62825 -0.61127,0.73013 -0.73013,0.69617h-0.10188c0.4245,0.59429 1.32442,0.64523 1.73194,0.64523c1.01878,0 2.80165,-0.83201 2.80165,-4.83921zM157.12914,308.59403c0,-0.2547 0,-1.69797 -0.3396,-2.52997c-0.16979,-0.39053 -0.66221,-1.23951 -1.63004,-1.23951c-0.91691,0 -1.37536,0.49241 -1.68099,0.95086c-0.44147,0.69617 -0.44147,1.51119 -0.44147,2.46205c0,0.76409 0,1.57912 0.27168,2.22435c0.15282,0.32261 0.61127,1.18858 1.68098,1.18858c1.49422,0 2.13945,-1.63006 2.13945,-3.05635z" fill="#000000" stroke="none" stroke-width="1"/><path d="M197.68098,308.08505c-0.78106,0 -1.35837,0.7471 -1.61308,1.7659l-0.59428,2.30923c-0.27168,1.12066 -0.3396,1.39234 -0.3396,1.76588c0,0.69617 0.32261,1.13765 0.9169,1.13765c0.76407,0 1.7489,-0.69617 2.20735,-2.19037c0.05094,-0.13583 0.06792,-0.22074 0.22074,-0.22074c0.10188,0 0.16979,0.06791 0.16979,0.15281c0,0.37356 -0.91689,2.5979 -2.64882,2.5979c-0.62825,0 -1.47723,-0.3396 -1.74891,-1.34139c-0.35658,0.69617 -0.93388,1.34139 -1.74891,1.34139c-0.73013,0 -1.52817,-0.32262 -1.52817,-1.03576c0,-0.54334 0.44147,-0.89991 0.84898,-0.89991c0.32262,0 0.5773,0.20375 0.5773,0.54334c0,0.20376 -0.13583,0.71315 -0.7471,0.83201c0.35658,0.22074 0.78107,0.22074 0.86597,0.22074c0.89992,0 1.39233,-0.93388 1.64703,-1.95266l0.5773,-2.32622c0.20375,-0.81503 0.30564,-1.20556 0.30564,-1.57912c0,-0.40751 -0.15282,-1.12066 -0.9169,-1.12066c-0.49241,0 -1.63006,0.35658 -2.20736,2.24132c-0.03396,0.06791 -0.06791,0.16979 -0.20375,0.16979c-0.11886,0 -0.18678,-0.0849 -0.18678,-0.15281c0,-0.37356 0.9169,-2.5979 2.64882,-2.5979c0.30564,0 1.35837,0.06791 1.7489,1.3414c0.15282,-0.32262 0.73013,-1.3414 1.7659,-1.3414c0.71315,0 1.52816,0.32262 1.52816,1.03576c0,0.45844 -0.35657,0.89991 -0.86595,0.89991c-0.23772,0 -0.56034,-0.13583 -0.56034,-0.54334c0,-0.32262 0.20376,-0.73013 0.74712,-0.83202c-0.35658,-0.22074 -0.83202,-0.22074 -0.86597,-0.22074z" fill="#000000" stroke="none" stroke-width="1"/><path d="M77.91018,344.19733c-0.49241,0.98481 -1.3414,1.86776 -2.81863,1.86776c-0.88294,0 -2.05454,-0.40751 -2.71674,-1.69797c-0.61127,-1.20556 -0.73013,-2.44507 -0.73013,-4.09211c0,-1.83381 0.16979,-2.88656 0.64523,-3.95627c0.62825,-1.40931 1.8338,-1.90172 2.81863,-1.90172c0.832,0 2.05455,0.37356 2.75071,1.78286c0.61127,1.29046 0.69617,2.6658 0.69617,4.07513c0,0.98482 -0.03397,2.64882 -0.64523,3.92231zM77.07819,343.53514c0.18677,-1.03576 0.18677,-2.32622 0.18677,-3.46387c0,-1.15462 0,-2.49602 -0.22074,-3.46385c-0.3226,-1.46025 -1.30743,-1.85079 -1.95267,-1.85079c-0.73012,0 -1.59609,0.52638 -1.88474,1.66402c-0.27168,1.00181 -0.27168,2.25829 -0.27168,3.65063c0,1.18859 0,2.47904 0.18677,3.49782c0.32262,1.85078 1.42629,2.15642 1.96965,2.15642c0.59429,0 1.66401,-0.32262 1.98663,-2.19037z" fill="#000000" stroke="none" stroke-width="1"/><path d="M196.29711,344.32553l-0.01697,-0.01698c-0.59429,0.62825 -1.20556,0.78107 -1.69797,0.78107c-0.84898,0 -2.00361,-0.37355 -2.00361,-1.98662c0,-0.40751 0,-0.96785 0.83202,-3.19219c0.2547,-0.64522 0.44147,-1.13763 0.44147,-1.5791c0,-0.56034 -0.28866,-0.56034 -0.44147,-0.56034c-0.66221,0 -1.30744,0.67919 -1.71495,2.10548c-0.06791,0.23772 -0.0849,0.30564 -0.23772,0.30564c-0.11886,0 -0.18678,-0.0849 -0.18678,-0.15281c0,-0.13583 0.62825,-2.5979 2.19039,-2.5979c0.832,0 1.34139,0.64522 1.34139,1.35837c0,0.3396 -0.10188,0.5773 -0.28866,1.06972c-0.45846,1.22255 -0.9169,2.52999 -0.9169,3.49782c0,0.45845 0.0849,1.39233 1.03575,1.39233c0.81503,0 1.37536,-0.5773 1.71495,-1.05274c0.13583,-0.18677 0.13584,-0.22074 0.22074,-0.52636l1.2565,-4.99203c0.13583,-0.50939 0.49241,-0.5773 0.64522,-0.5773c0.2547,0 0.45845,0.16979 0.45845,0.42449c0,0.10188 -0.03396,0.20376 -0.05094,0.28866l-1.664,6.62208c-0.47544,1.88474 -2.19037,3.44687 -3.88834,3.44687c-0.96785,0 -1.69797,-0.59428 -1.69797,-1.46025c0,-0.832 0.59429,-1.03576 0.86596,-1.03576c0.2547,0 0.57731,0.13585 0.57731,0.52637c0,0.39053 -0.33959,0.832 -0.84898,0.832c-0.03395,0 -0.11885,0 -0.16979,-0.01698c0.2547,0.78107 1.06972,0.81503 1.27348,0.81503c0.832,0 1.49421,-0.5773 1.95266,-1.22255c0.59429,-0.832 0.76409,-1.49421 1.01878,-2.49601z" fill="#000000" stroke="none" stroke-width="1"/><path d="M153.49547,344.12358c0.22074,0 0.40751,0 1.0867,0.27168c0.35658,0.15281 0.69617,0.27168 1.05274,0.27168c0.66222,0 1.66401,-0.40752 2.03757,-1.40931c0.05094,-0.16979 0.06791,-0.23772 0.20375,-0.23772c0.16979,0 0.18678,0.10188 0.18678,0.16979c0,0.39055 -0.95086,2.54696 -2.61486,2.54696c-0.54335,0 -0.83202,-0.35657 -1.15463,-0.73013c-0.33959,-0.42449 -0.50938,-0.54335 -0.86595,-0.54335c-0.62825,0 -1.1716,0.62825 -1.44327,1.05274c-0.11886,0.20376 -0.13583,0.22074 -0.23772,0.22074c-0.10188,0 -0.18678,-0.03396 -0.18678,-0.13583c0,-0.11886 0.62825,-1.12066 1.664,-2.1734l1.71495,-1.57912c0.76409,-0.69617 1.68098,-1.51119 2.24132,-2.1734c-0.0849,0.01698 -0.15282,0.01698 -0.27168,0.01698c-0.16979,0 -0.44147,0 -1.0867,-0.27168c-0.35658,-0.15282 -0.69617,-0.27168 -1.05274,-0.27168c-0.32262,0 -1.13765,0.11885 -1.42629,0.79804c-0.05094,0.11885 -0.06793,0.18678 -0.20376,0.18678c-0.15281,0 -0.16979,-0.10188 -0.16979,-0.15282c0,-0.35658 0.7471,-1.90172 1.98663,-1.90172c0.49241,0 0.78106,0.28865 1.13763,0.71315c0.32262,0.40751 0.5094,0.56032 0.86597,0.56032c0.44147,0 0.84898,-0.35658 1.27346,-1.0867c0.0849,-0.11886 0.11885,-0.18678 0.23772,-0.18678c0.03395,0 0.16979,0 0.16979,0.13584c0,0.13583 -0.59429,1.12066 -1.78286,2.29225c-0.23772,0.2547 -0.67919,0.67919 -1.69797,1.56214c-0.84898,0.76409 -1.44327,1.29046 -2.17339,2.12247c0.15281,-0.06793 0.33959,-0.06793 0.50938,-0.06793z" fill="#000000" stroke="none" stroke-width="1"/><path d="M114.41666,344.9832c0,-0.32217 0.26117,-0.58333 0.58333,-0.58333c0.32217,0 0.58333,0.26117 0.58333,0.58333c0,0.32217 -0.26117,0.58333 -0.58333,0.58333c-0.32217,0 -0.58333,-0.26117 -0.58333,-0.58333z" fill="#000000" stroke="#d0d0d0" stroke-width="0"/></g><g><g><path d="M351.39079,323.0028c-6.7336,0 -28.27729,0 -32.63067,0c-1.51414,0 -2.51026,-0.95831 -2.51026,-2.4908c0,-5.38467 0,-17.85811 0,-20.75669c0,-1.17748 0.83864,-2.32476 2.27173,-2.32476c4.30441,0 26.35938,0 32.92602,0c1.18062,0 2.16929,0.87327 2.16929,1.82658c0,2.7465 0,16.26468 0,21.58696c0,1.33855 -0.9369,2.1587 -2.22611,2.1587z" data-paper-data="{&quot;index&quot;:null}" fill-opacity="0.91765" fill="#fff6d1" stroke="#d0d0d0" stroke-width="0.5"/><path d="M311.14079,322.95282c-6.7336,0 -28.27729,0 -32.63067,0c-1.51414,0 -2.51026,-0.95831 -2.51026,-2.4908c0,-5.38467 0,-17.85811 0,-20.75669c0,-1.17748 0.83864,-2.32476 2.27173,-2.32476c4.30441,0 26.35938,0 32.92602,0c1.18062,0 2.16929,0.87327 2.16929,1.82658c0,2.7465 0,16.26468 0,21.58696c0,1.33855 -0.9369,2.1587 -2.22611,2.1587z" data-paper-data="{&quot;index&quot;:null}" fill-opacity="0.91765" fill="#fff6d1" stroke="#d0d0d0" stroke-width="0.5"/><path d="M271.14079,323.0028c-6.7336,0 -28.27729,0 -32.63067,0c-1.51414,0 -2.51026,-0.95831 -2.51026,-2.4908c0,-5.38467 0,-17.85811 0,-20.75669c0,-1.17748 0.83864,-2.32476 2.27173,-2.32476c4.30441,0 26.35938,0 32.92602,0c1.18062,0 2.16929,0.87327 2.16929,1.82658c0,2.7465 0,16.26468 0,21.58696c0,1.33855 -0.9369,2.1587 -2.22611,2.1587z" data-paper-data="{&quot;index&quot;:null}" fill-opacity="0.91765" fill="#fff6d1" stroke="#d0d0d0" stroke-width="0.5"/><path d="M391.64079,323.08613c-6.7336,0 -28.27729,0 -32.63067,0c-1.51414,0 -2.51026,-0.95831 -2.51026,-2.4908c0,-5.38467 0,-17.85811 0,-20.75669c0,-1.17748 0.83864,-2.32476 2.27173,-2.32476c4.30441,0 26.35938,0 32.92602,0c1.18062,0 2.16929,0.87327 2.16929,1.82658c0,2.7465 0,16.26468 0,21.58696c0,1.33855 -0.9369,2.1587 -2.22611,2.1587z" data-paper-data="{&quot;index&quot;:null}" fill-opacity="0.91765" fill="#fff6d1" stroke="#d0d0d0" stroke-width="0.5"/><path d="M369.8495,309.03502c-0.25469,0 -0.54335,0 -0.54335,-0.32262c0,-0.30563 0.30564,-0.30563 0.54335,-0.30563h10.00103c0.2547,0 0.5434,0 0.5434,0.32262c0,0.30563 -0.30568,0.30564 -0.5434,0.30564zM369.8495,312.19324c-0.25469,0 -0.54335,0 -0.54335,-0.3226c0,-0.30563 0.30564,-0.30564 0.54335,-0.30564h10.00103c0.2547,0 0.5434,0 0.5434,0.32261c0,0.30563 -0.30568,0.30563 -0.5434,0.30563z" fill="#000000" stroke="none" stroke-width="1"/><path d="M257.71713,306.38313c0.18659,-0.18659 0.25444,-0.25444 0.39014,-0.25444c0.20354,0 0.33924,0.15266 0.33924,0.33925c0,0.11874 -0.06784,0.18659 -0.08481,0.22051c-0.08482,0.10178 -0.33925,0.32229 -0.42406,0.42407l-3.10417,3.10415c0.84813,0.8651 3.54519,3.52822 3.56215,3.56215c0.05089,0.08482 0.05088,0.15266 0.05088,0.18659c0,0.18659 -0.1357,0.33926 -0.33924,0.33926c-0.10178,0 -0.22051,-0.08482 -0.25444,-0.10178l-3.51127,-3.51127l-3.37555,3.37557c-0.20354,0.20355 -0.23748,0.23748 -0.37318,0.23748c-0.16962,0 -0.33925,-0.15266 -0.33925,-0.33926c0,-0.11874 0.03393,-0.15266 0.22051,-0.33926l3.39252,-3.40949l-3.39252,-3.40948c-0.18659,-0.18659 -0.22051,-0.22051 -0.22051,-0.33926c0,-0.18659 0.16962,-0.33925 0.33925,-0.33925c0.1357,0 0.16964,0.03393 0.37318,0.23747l3.39252,3.37557z" fill="#000000" stroke="none" stroke-width="1"/><path d="M290.33434,310.17519l8.74454,4.02418c0.30563,0.13583 0.3396,0.2547 0.3396,0.35658c0,0.18677 -0.13583,0.32261 -0.32262,0.32261c-0.03395,0 -0.06793,-0.01698 -0.28866,-0.11886l-9.18601,-4.22794c-0.32262,-0.15282 -0.33959,-0.2547 -0.33959,-0.37356c0,-0.10188 0.03396,-0.22074 0.33959,-0.35658l9.18601,-4.22794c0.23772,-0.10188 0.2547,-0.11886 0.28866,-0.11886c0.18678,0 0.32262,0.13583 0.32262,0.32262c0,0.10188 -0.03397,0.22074 -0.3396,0.35658z" fill="#000000" stroke="none" stroke-width="1"/><path d="M330.14287,314.80968c-0.23772,0.10188 -0.2547,0.11886 -0.28865,0.11886c-0.20376,0 -0.32262,-0.16979 -0.32262,-0.30564c0,-0.10188 0,-0.22074 0.33959,-0.37355l8.74454,-4.04117l-8.72755,-4.02419c-0.22074,-0.10187 -0.35658,-0.16979 -0.35658,-0.37354c0,-0.13583 0.11885,-0.30564 0.32262,-0.30564c0.03395,0 0.06791,0.01698 0.28865,0.11886l9.186,4.22794c0.30563,0.13583 0.3396,0.2547 0.3396,0.35658c0,0.11885 -0.01699,0.22074 -0.3396,0.37356z" fill="#000000" stroke="none" stroke-width="1"/></g><g><path d="M391.64079,292.93613c-6.7336,0 -28.27729,0 -32.63067,0c-1.51414,0 -2.51026,-0.95831 -2.51026,-2.4908c0,-5.38467 0,-17.85811 0,-20.75669c0,-1.17748 0.83864,-2.32476 2.27173,-2.32476c4.30441,0 26.35938,0 32.92602,0c1.18062,0 2.16929,0.87327 2.16929,1.82658c0,2.7465 0,16.26468 0,21.58696c0,1.33855 -0.9369,2.1587 -2.22611,2.1587z" data-paper-data="{&quot;index&quot;:null}" fill-opacity="0.91765" fill="#fff6d1" stroke="#d0d0d0" stroke-width="0.5"/><path d="M351.51579,292.8028c-6.7336,0 -28.27729,0 -32.63067,0c-1.51414,0 -2.51026,-0.95831 -2.51026,-2.4908c0,-5.38467 0,-17.85811 0,-20.75669c0,-1.17748 0.83864,-2.32476 2.27173,-2.32476c4.30441,0 26.35938,0 32.92602,0c1.18062,0 2.16929,0.87327 2.16929,1.82658c0,2.7465 0,16.26468 0,21.58696c0,1.33855 -0.9369,2.1587 -2.22611,2.1587z" data-paper-data="{&quot;index&quot;:null}" fill-opacity="0.91765" fill="#fff6d1" stroke="#d0d0d0" stroke-width="0.5"/><path d="M311.26579,292.75282c-6.7336,0 -28.27729,0 -32.63067,0c-1.51414,0 -2.51026,-0.95831 -2.51026,-2.4908c0,-5.38467 0,-17.85811 0,-20.75669c0,-1.17748 0.83864,-2.32476 2.27173,-2.32476c4.30441,0 26.35938,0 32.92602,0c1.18062,0 2.16929,0.87327 2.16929,1.82658c0,2.7465 0,16.26468 0,21.58696c0,1.33855 -0.9369,2.1587 -2.22611,2.1587z" data-paper-data="{&quot;index&quot;:null}" fill-opacity="0.91765" fill="#fff6d1" stroke="#d0d0d0" stroke-width="0.5"/><path d="M271.26579,292.8028c-6.7336,0 -28.27729,0 -32.63067,0c-1.51414,0 -2.51026,-0.95831 -2.51026,-2.4908c0,-5.38467 0,-17.85811 0,-20.75669c0,-1.17748 0.83864,-2.32476 2.27173,-2.32476c4.30441,0 26.35938,0 32.92602,0c1.18062,0 2.16929,0.87327 2.16929,1.82658c0,2.7465 0,16.26468 0,21.58696c0,1.33855 -0.9369,2.1587 -2.22611,2.1587z" data-paper-data="{&quot;index&quot;:null}" fill-opacity="0.91765" fill="#fff6d1" stroke="#d0d0d0" stroke-width="0.5"/><path d="M249.88666,280.35592c-0.28836,0 -0.5937,0 -0.5937,-0.33925c0,-0.33925 0.30534,-0.33925 0.5937,-0.33925h9.17677c0.28837,0 0.5937,0 0.5937,0.33925c0,0.33925 -0.30532,0.33925 -0.5937,0.33925z" fill="#000000" stroke="none" stroke-width="1"/><g fill="#000000" stroke="none" stroke-width="1"><path d="M295.56641,273.31819c0.11106,-0.22208 0.2082,-0.29148 0.31928,-0.29148c0.1665,0 0.27758,0.1388 0.27758,0.2776c0,0.02776 -0.00001,0.08328 -0.09714,0.2776l-6.30154,13.04719c-0.09715,0.19437 -0.13879,0.27758 -0.347,0.27758c-0.12491,0 -0.19432,0 -0.29149,-0.22204l-2.73437,-6.01003c-0.15267,0.11104 -0.36087,0.26371 -0.44416,0.33311c-0.15267,0.11104 -0.38864,0.30537 -0.47192,0.30537c-0.09715,0 -0.13879,-0.08329 -0.13879,-0.15269c0,-0.04164 -0.00001,-0.08327 0.18044,-0.22208l1.3186,-0.99935c0.15269,-0.11104 0.22209,-0.11104 0.23597,-0.11104c0.04164,0 0.11104,0 0.2082,0.22208l2.44288,5.39932z"/><path d="M295.89013,273.58192v-0.55518h7.72309v0.55518z"/><path d="M301.76137,277.73585c-0.63848,0 -1.11039,0.61072 -1.3186,1.44353l-0.4858,1.88768c-0.22208,0.91608 -0.2776,1.13817 -0.2776,1.44351c0,0.56908 0.26373,0.92997 0.74953,0.92997c0.62459,0 1.42964,-0.56908 1.80439,-1.79051c0.04164,-0.11104 0.05552,-0.18045 0.18044,-0.18045c0.08328,0 0.1388,0.05552 0.1388,0.12491c0,0.30536 -0.7495,2.12365 -2.16527,2.12365c-0.51356,0 -1.20756,-0.2776 -1.42964,-1.09652c-0.29149,0.56908 -0.7634,1.09652 -1.42964,1.09652c-0.59684,0 -1.2492,-0.26373 -1.2492,-0.84668c0,-0.44415 0.36089,-0.73563 0.694,-0.73563c0.26373,0 0.47191,0.16655 0.47191,0.44415c0,0.16656 -0.11103,0.58297 -0.61071,0.68012c0.29149,0.18045 0.63849,0.18045 0.70788,0.18045c0.73564,0 1.13817,-0.7634 1.34636,-1.5962l0.47191,-1.90156c0.16656,-0.66625 0.24984,-0.98549 0.24984,-1.29085c0,-0.33312 -0.12492,-0.91608 -0.74951,-0.91608c-0.40252,0 -1.33248,0.29148 -1.8044,1.83216c-0.02775,0.05552 -0.05552,0.13879 -0.16656,0.13879c-0.09716,0 -0.15268,-0.0694 -0.15268,-0.12491c0,-0.30536 0.74952,-2.12365 2.16527,-2.12365c0.24984,0 1.1104,0.05552 1.42964,1.09653c0.12492,-0.26373 0.59684,-1.09653 1.44353,-1.09653c0.58297,0 1.24919,0.26373 1.24919,0.84668c0,0.37475 -0.29148,0.73563 -0.70787,0.73563c-0.19432,0 -0.45805,-0.11103 -0.45805,-0.44415c0,-0.26373 0.16657,-0.59684 0.61074,-0.68013c-0.29149,-0.18045 -0.68014,-0.18045 -0.70789,-0.18045z"/></g><g fill="#000000" stroke="none" stroke-width="1"><path d="M329.9203,276.70751c-0.11469,0 -0.17542,0 -0.17542,-0.09445c0,-0.07423 0.05398,-0.08771 0.06747,-0.08771c0.03373,-0.00675 0.04723,-0.00675 0.21591,-0.02024c0.33737,-0.02024 0.52628,-0.03374 0.74894,-0.29014c0.17543,-0.20916 0.2699,-0.51953 0.2699,-0.80291c0,-0.58702 -0.42508,-0.73545 -0.7287,-0.73545c-0.24965,0 -0.7152,0.07423 -0.95135,0.3711c0.20917,0.01349 0.34411,0.15518 0.34411,0.35085c0,0.18893 -0.13493,0.34411 -0.34411,0.34411c-0.20241,0 -0.35086,-0.12819 -0.35086,-0.3576c0,-0.53978 0.57351,-0.90413 1.32245,-0.90413c0.74894,0 1.36294,0.39809 1.36294,0.93113c0,0.41158 -0.2564,0.91762 -0.96485,1.17402c0.74219,0.15519 1.17402,0.68146 1.17402,1.20775c0,0.67473 -0.64773,1.30222 -1.5856,1.30222c-0.81641,0 -1.51812,-0.41159 -1.51812,-1.04582c0,-0.27664 0.18893,-0.39134 0.37785,-0.39134c0.20916,0 0.37109,0.15518 0.37109,0.3711c0,0.14169 -0.07423,0.36435 -0.39134,0.37784c0.28339,0.39809 0.87713,0.47231 1.14703,0.47231c0.39134,0 0.87714,-0.24964 0.87714,-1.0863c0,-0.72195 -0.37785,-1.08631 -0.90413,-1.08631z"/><path d="M335.8164,273.36817c0.11106,-0.22208 0.2082,-0.29149 0.31928,-0.29149c0.1665,0 0.27757,0.1388 0.27757,0.2776c0,0.02776 0,0.08328 -0.09713,0.2776l-6.30154,13.04719c-0.09715,0.19437 -0.1388,0.27758 -0.34701,0.27758c-0.12491,0 -0.19431,0 -0.29148,-0.22204l-2.73436,-6.01003c-0.15267,0.11104 -0.36088,0.26371 -0.44416,0.33311c-0.15267,0.11104 -0.38863,0.30536 -0.47191,0.30536c-0.09715,0 -0.1388,-0.08329 -0.1388,-0.15269c0,-0.04164 0,-0.08327 0.18045,-0.22208l1.3186,-0.99935c0.15269,-0.11104 0.22209,-0.11104 0.23597,-0.11104c0.04164,0 0.11104,0 0.2082,0.22208l2.44288,5.39933z"/><path d="M336.14013,273.63191v-0.55518h7.72309v0.55518z"/><path d="M342.01136,277.78582c-0.63848,0 -1.11039,0.61072 -1.3186,1.44353l-0.48581,1.88768c-0.22208,0.91608 -0.2776,1.13817 -0.2776,1.44351c0,0.56908 0.26373,0.92997 0.74953,0.92997c0.62459,0 1.42962,-0.56909 1.80439,-1.79052c0.04164,-0.11104 0.05553,-0.18044 0.18045,-0.18044c0.08328,0 0.1388,0.05552 0.1388,0.12491c0,0.30536 -0.74952,2.12365 -2.16528,2.12365c-0.51356,0 -1.20756,-0.2776 -1.42963,-1.09652c-0.29149,0.56908 -0.7634,1.09652 -1.42964,1.09652c-0.59684,0 -1.2492,-0.26372 -1.2492,-0.84668c0,-0.44415 0.36088,-0.73563 0.69399,-0.73563c0.26373,0 0.47192,0.16655 0.47192,0.44415c0,0.16656 -0.11104,0.58297 -0.61072,0.68013c0.29149,0.18045 0.63849,0.18044 0.70789,0.18044c0.73564,0 1.13817,-0.7634 1.34636,-1.5962l0.47191,-1.90156c0.16656,-0.66625 0.24984,-0.98548 0.24984,-1.29085c0,-0.33312 -0.12492,-0.91608 -0.74951,-0.91608c-0.40252,0 -1.33249,0.29148 -1.8044,1.83216c-0.02775,0.05552 -0.05551,0.1388 -0.16655,0.1388c-0.09716,0 -0.15269,-0.0694 -0.15269,-0.12491c0,-0.30536 0.74951,-2.12365 2.16528,-2.12365c0.24984,0 1.1104,0.05551 1.42964,1.09652c0.12492,-0.26373 0.59684,-1.09652 1.44352,-1.09652c0.58297,0 1.24919,0.26372 1.24919,0.84668c0,0.37475 -0.29148,0.73563 -0.70787,0.73563c-0.19432,0 -0.45804,-0.11104 -0.45804,-0.44416c0,-0.26373 0.16657,-0.59684 0.61074,-0.68013c-0.29149,-0.18045 -0.68014,-0.18044 -0.70789,-0.18044z"/></g><g fill="#000000" stroke="none" stroke-width="1"><path d="M374.84607,278.41621c-0.77613,0 -1.3498,0.74239 -1.6029,1.75476l-0.59053,2.29466c-0.26997,1.11359 -0.33746,1.38356 -0.33746,1.75474c0,0.69178 0.32057,1.13047 0.91111,1.13047c0.75925,0 1.73787,-0.69178 2.19342,-2.17655c0.05062,-0.13497 0.06749,-0.21935 0.21935,-0.21935c0.10124,0 0.16872,0.06748 0.16872,0.15185c0,0.3712 -0.91111,2.58151 -2.63211,2.58151c-0.62429,0 -1.46791,-0.33746 -1.73788,-1.33293c-0.35433,0.69178 -0.92799,1.33293 -1.73788,1.33293c-0.72552,0 -1.51853,-0.32058 -1.51853,-1.02923c0,-0.53991 0.43868,-0.89423 0.84362,-0.89423c0.32058,0 0.57366,0.20246 0.57366,0.53991c0,0.20247 -0.13497,0.70865 -0.74239,0.82676c0.35433,0.21935 0.77614,0.21935 0.86051,0.21935c0.89424,0 1.38355,-0.92799 1.63664,-1.94034l0.57366,-2.31154c0.20246,-0.80989 0.30371,-1.19795 0.30371,-1.56916c0,-0.40494 -0.15186,-1.11359 -0.91111,-1.11359c-0.4893,0 -1.61978,0.35433 -2.19343,2.22718c-0.03375,0.06748 -0.06748,0.16872 -0.20246,0.16872c-0.11811,0 -0.1856,-0.08436 -0.1856,-0.15185c0,-0.3712 0.91111,-2.58151 2.63211,-2.58151c0.30371,0 1.3498,0.06748 1.73787,1.33294c0.15186,-0.32058 0.72552,-1.33294 1.75476,-1.33294c0.70865,0 1.51852,0.32058 1.51852,1.02923c0,0.45555 -0.35432,0.89423 -0.86049,0.89423c-0.23622,0 -0.5568,-0.13497 -0.5568,-0.53991c0,-0.32058 0.20247,-0.72552 0.74241,-0.82677c-0.35433,-0.21935 -0.82677,-0.21935 -0.86051,-0.21935z"/><path d="M380.20368,278.05616l-0.00848,-0.00849c-0.29693,0.31391 -0.60236,0.39026 -0.84838,0.39026c-0.42419,0 -1.0011,-0.18664 -1.0011,-0.99261c0,-0.20361 0,-0.48358 0.41572,-1.59497c0.12726,-0.32238 0.22058,-0.56841 0.22058,-0.78899c0,-0.27997 -0.14422,-0.27997 -0.22058,-0.27997c-0.33087,0 -0.65326,0.33936 -0.85687,1.052c-0.03393,0.11878 -0.04242,0.15271 -0.11878,0.15271c-0.05939,0 -0.09333,-0.04242 -0.09333,-0.07636c0,-0.06787 0.31391,-1.29804 1.09442,-1.29804c0.41571,0 0.67022,0.32238 0.67022,0.67871c0,0.16968 -0.05091,0.28845 -0.14422,0.53449c-0.22907,0.61084 -0.45813,1.2641 -0.45813,1.74767c0,0.22907 0.04242,0.69567 0.51751,0.69567c0.40722,0 0.6872,-0.28845 0.85687,-0.526c0.06787,-0.09332 0.06787,-0.11029 0.11029,-0.26299l0.6278,-2.49425c0.06787,-0.25451 0.24603,-0.28845 0.32238,-0.28845c0.12726,0 0.22907,0.08483 0.22907,0.21209c0,0.05091 -0.01697,0.1018 -0.02545,0.14422l-0.83141,3.3087c-0.23755,0.9417 -1.09441,1.72222 -1.9428,1.72222c-0.48358,0 -0.84838,-0.29693 -0.84838,-0.72961c0,-0.41571 0.29693,-0.51751 0.43267,-0.51751c0.12726,0 0.28845,0.06788 0.28845,0.263c0,0.19513 -0.16967,0.41571 -0.42419,0.41571c-0.01696,0 -0.05938,0 -0.08483,-0.00849c0.12726,0.39026 0.53449,0.40722 0.63629,0.40722c0.41571,0 0.74658,-0.28845 0.97565,-0.61084c0.29693,-0.41571 0.38178,-0.74658 0.50903,-1.24712z"/></g></g><g><path d="M391.64079,262.93613c-6.7336,0 -28.27729,0 -32.63067,0c-1.51414,0 -2.51026,-0.95831 -2.51026,-2.4908c0,-5.38467 0,-17.85811 0,-20.75669c0,-1.17748 0.83864,-2.32476 2.27173,-2.32476c4.30441,0 26.35938,0 32.92602,0c1.18062,0 2.16929,0.87327 2.16929,1.82658c0,2.7465 0,16.26468 0,21.58696c0,1.33855 -0.9369,2.1587 -2.22611,2.1587z" data-paper-data="{&quot;index&quot;:null}" fill-opacity="0.91765" fill="#fff6d1" stroke="#d0d0d0" stroke-width="0.5"/><path d="M351.64079,262.73613c-6.7336,0 -28.27729,0 -32.63067,0c-1.51414,0 -2.51026,-0.95831 -2.51026,-2.4908c0,-5.38467 0,-17.85811 0,-20.75669c0,-1.17748 0.83864,-2.32476 2.27173,-2.32476c4.30441,0 26.35938,0 32.92602,0c1.18062,0 2.16929,0.87327 2.16929,1.82658c0,2.7465 0,16.26468 0,21.58696c0,1.33855 -0.9369,2.1587 -2.22611,2.1587z" data-paper-data="{&quot;index&quot;:null}" fill-opacity="0.91765" fill="#fff6d1" stroke="#d0d0d0" stroke-width="0.5"/><path d="M311.39079,262.68615c-6.7336,0 -28.27729,0 -32.63067,0c-1.51414,0 -2.51026,-0.95831 -2.51026,-2.4908c0,-5.38467 0,-17.85811 0,-20.75669c0,-1.17748 0.83864,-2.32476 2.27173,-2.32476c4.30441,0 26.35938,0 32.92602,0c1.18062,0 2.16929,0.87327 2.16929,1.82658c0,2.7465 0,16.26468 0,21.58696c0,1.33855 -0.9369,2.1587 -2.22611,2.1587z" data-paper-data="{&quot;index&quot;:null}" fill-opacity="0.91765" fill="#fff6d1" stroke="#d0d0d0" stroke-width="0.5"/><path d="M271.39079,262.73613c-6.7336,0 -28.27729,0 -32.63067,0c-1.51414,0 -2.51026,-0.95831 -2.51026,-2.4908c0,-5.38467 0,-17.85811 0,-20.75669c0,-1.17748 0.83864,-2.32476 2.27173,-2.32476c4.30441,0 26.35938,0 32.92602,0c1.18062,0 2.16929,0.87327 2.16929,1.82658c0,2.7465 0,16.26468 0,21.58696c0,1.33855 -0.9369,2.1587 -2.22611,2.1587z" data-paper-data="{&quot;index&quot;:null}" fill-opacity="0.91765" fill="#fff6d1" stroke="#d0d0d0" stroke-width="0.5"/><path d="M296.37263,258.38979c-0.18659,0 -1.57753,-1.10257 -2.57832,-3.13808c-0.88206,-1.815 -1.11953,-3.83355 -1.11953,-5.34322c0,-2.0864 0.39013,-3.9014 1.25523,-5.61462c0.83116,-1.66234 2.2221,-2.8836 2.44261,-2.8836c0.06784,0 0.15266,0.03382 0.15266,0.13562c0,0.05096 0,0.08489 -0.16962,0.23754c-1.96767,2.00155 -2.7649,4.83432 -2.7649,8.12506c0,3.46037 0.94991,6.2592 2.64617,7.97242c0.28836,0.28836 0.28836,0.32229 0.28836,0.37318c0,0.10176 -0.08482,0.1357 -0.15266,0.1357z" fill="#000000" stroke="none" stroke-width="1"/><path d="M335.52006,255.75613c-0.83116,1.66234 -2.2221,2.88365 -2.44261,2.88365c-0.06784,0 -0.15266,-0.03393 -0.15266,-0.1357c0,-0.05089 0,-0.08482 0.16962,-0.23748c1.96767,-2.00158 2.76489,-4.83435 2.76489,-8.1251c0,-3.46037 -0.94989,-6.25921 -2.64615,-7.97248c-0.28837,-0.28826 -0.28837,-0.3222 -0.28837,-0.37316c0,-0.1018 0.08482,-0.13562 0.15266,-0.13562c0.18658,0 1.57751,1.10252 2.57832,3.13803c0.94991,1.96767 1.11954,4.07103 1.11954,5.36019c0,2.03551 -0.39015,3.86747 -1.25524,5.59766z" fill="#000000" stroke="none" stroke-width="1"/><path d="M254.91381,254.94549c0,0.25444 0,0.54281 -0.32229,0.54281c-0.30532,0 -0.30532,-0.30533 -0.30532,-0.54281v-4.68168h-4.68168c-0.25444,0 -0.5428,0 -0.5428,-0.32229c0,-0.30532 0.30533,-0.30532 0.5428,-0.30532h4.68168v-4.68168c0,-0.25444 0,-0.54281 0.32229,-0.54281c0.30532,0 0.30533,0.30533 0.30533,0.54281v4.68168h4.68168c0.25445,0 0.54285,0 0.54285,0.32229c0,0.30532 -0.30538,0.30532 -0.54285,0.30532h-4.68168z" fill="#000000" stroke="none" stroke-width="1"/><path d="M375.06379,252.80463c-0.01696,0.30534 -0.05089,0.35622 -0.22051,0.35622c-0.15267,0 -0.18659,-0.06784 -0.20356,-0.35622l-0.61065,-7.76887c-0.05089,-0.71245 0.47495,-0.94987 0.83116,-0.94987c0.35622,0 0.81421,0.25445 0.81421,0.79721zM374.84327,256.21412c-0.44103,0 -0.81421,-0.37317 -0.81421,-0.8142c0,-0.45798 0.35622,-0.83116 0.83116,-0.83116c0.44103,0 0.81421,0.37318 0.81421,0.8142c0,0.45799 -0.35622,0.83116 -0.83116,0.83116z" fill="#000000" stroke="none" stroke-width="1"/></g><g><path d="M351.79079,352.81113c-6.7336,0 -28.27729,0 -32.63067,0c-1.51414,0 -2.51026,-0.95831 -2.51026,-2.4908c0,-5.38467 0,-17.85811 0,-20.75669c0,-1.17748 0.83864,-2.32476 2.27173,-2.32476c4.30441,0 26.35938,0 32.92602,0c1.18062,0 2.16929,0.87327 2.16929,1.82658c0,2.7465 0,16.26468 0,21.58696c0,1.33855 -0.9369,2.1587 -2.22611,2.1587z" data-paper-data="{&quot;index&quot;:null}" fill-opacity="0.91765" fill="#fff6d1" stroke="#d0d0d0" stroke-width="0.5"/><path d="M311.54079,352.76115c-6.7336,0 -28.27729,0 -32.63067,0c-1.51414,0 -2.51026,-0.95831 -2.51026,-2.4908c0,-5.38467 0,-17.85811 0,-20.75669c0,-1.17748 0.83864,-2.32476 2.27173,-2.32476c4.30441,0 26.35938,0 32.92602,0c1.18062,0 2.16929,0.87327 2.16929,1.82658c0,2.7465 0,16.26468 0,21.58696c0,1.33855 -0.9369,2.1587 -2.22611,2.1587z" data-paper-data="{&quot;index&quot;:null}" fill-opacity="0.91765" fill="#fff6d1" stroke="#d0d0d0" stroke-width="0.5"/><path d="M271.14079,353.01113c-6.7336,0 -28.27729,0 -32.63067,0c-1.51414,0 -2.51026,-0.95831 -2.51026,-2.4908c0,-5.38467 0,-17.85811 0,-20.75669c0,-1.17748 0.83864,-2.32476 2.27173,-2.32476c4.30441,0 26.35938,0 32.92602,0c1.18062,0 2.16929,0.87327 2.16929,1.82658c0,2.7465 0,16.26468 0,21.58696c0,1.33855 -0.9369,2.1587 -2.22611,2.1587z" data-paper-data="{&quot;index&quot;:null}" fill-opacity="0.91765" fill="#fff6d1" stroke="#d0d0d0" stroke-width="0.5"/><path d="M252.19717,348.1331c-0.11873,0.35622 -0.2714,0.37318 -0.37317,0.37318c-0.13571,0 -0.30534,-0.11873 -0.30534,-0.32229c0,-0.03392 0.10178,-0.28836 0.10178,-0.30532l5.68247,-15.96179c0.1357,-0.37316 0.28836,-0.37316 0.37317,-0.37316c0.1357,0 0.30534,0.11871 0.30534,0.3222c0,0.03393 -0.10178,0.28838 -0.10178,0.30541z" fill="#000000" stroke="none" stroke-width="1"/><g fill="#000000" stroke="none" stroke-width="1"><path d="M301.46103,347.3318c0,0.2889 -0.00002,0.57781 -0.32102,0.57781c-0.32101,0 -0.32101,-0.2889 -0.32101,-0.57781v-14.89491c0,-0.28887 -0.00002,-0.57775 0.32101,-0.57775c0.32102,0 0.32102,0.28887 0.32102,0.57775z"/><path d="M288.68172,347.51251c0,0.2892 -0.00001,0.5784 -0.32134,0.5784c-0.32133,0 -0.32133,-0.2892 -0.32133,-0.5784v-14.9099c0,-0.28917 -0.00001,-0.57833 0.32133,-0.57833c0.32134,0 0.32134,0.28917 0.32134,0.57833z"/><path d="M297.38733,337.31005c-0.73906,0 -1.28532,0.70693 -1.52633,1.67095l-0.56232,2.18506c-0.25707,1.0604 -0.32134,1.31747 -0.32134,1.67093c0,0.65874 0.30527,1.07648 0.86761,1.07648c0.72298,0 1.65485,-0.65874 2.08866,-2.07259c0.0482,-0.12853 0.06428,-0.20887 0.20887,-0.20887c0.0964,0 0.16066,0.06426 0.16066,0.14459c0,0.35347 -0.86759,2.45821 -2.50639,2.45821c-0.59447,0 -1.3978,-0.32134 -1.65487,-1.26926c-0.33741,0.65874 -0.88366,1.26926 -1.65487,1.26926c-0.69087,0 -1.446,-0.30527 -1.446,-0.98007c0,-0.51412 0.41774,-0.85152 0.80333,-0.85152c0.30527,0 0.54626,0.19279 0.54626,0.51412c0,0.1928 -0.12853,0.6748 -0.70693,0.78727c0.33741,0.20887 0.73907,0.20887 0.81941,0.20887c0.85154,0 1.31746,-0.88366 1.55847,-1.84766l0.54626,-2.20114c0.19279,-0.7712 0.2892,-1.14074 0.2892,-1.49421c0,-0.3856 -0.1446,-1.0604 -0.8676,-1.0604c-0.46593,0 -1.5424,0.33741 -2.08867,2.1208c-0.03212,0.06426 -0.06426,0.16066 -0.19279,0.16066c-0.11247,0 -0.17674,-0.08033 -0.17674,-0.14459c0,-0.35347 0.86759,-2.45821 2.50639,-2.45821c0.28921,0 1.28534,0.06426 1.65487,1.26927c0.1446,-0.30527 0.69087,-1.26927 1.67094,-1.26927c0.6748,0 1.446,0.30527 1.446,0.98007c0,0.43379 -0.33741,0.85152 -0.8194,0.85152c-0.22494,0 -0.53021,-0.12853 -0.53021,-0.51412c0,-0.30527 0.1928,-0.69087 0.70695,-0.78728c-0.33741,-0.20887 -0.78728,-0.20887 -0.81941,-0.20887z"/></g><path d="M334.47367,348.30128c-0.08489,0 -0.16979,-0.08491 -0.16979,-0.1698c0,-0.03395 0,-0.06791 0.18678,-0.27168c0.98482,-1.10368 1.08669,-2.20736 1.08669,-2.76769c0,-0.0849 0,-0.32261 -0.03396,-0.32261c-0.01697,0 -0.03395,0 -0.06791,0.03396c-0.15282,0.15281 -0.3396,0.22074 -0.56034,0.22074c-0.57731,0 -0.832,-0.45845 -0.832,-0.832c0,-0.37356 0.27168,-0.81502 0.81503,-0.81502c0.69617,0 1.01878,0.73012 1.01878,1.71494c0,1.95267 -1.30744,3.20917 -1.44327,3.20917z" fill="#000000" stroke="none" stroke-width="1"/><path d="M392.0408,352.63613c-6.7336,0 -28.27729,0 -32.63067,0c-1.51414,0 -2.51026,-0.95831 -2.51026,-2.4908c0,-5.38467 0,-17.85811 0,-20.75669c0,-1.17748 0.83864,-2.32476 2.27173,-2.32476c4.30441,0 26.35938,0 32.92602,0c1.18062,0 2.16929,0.87327 2.16929,1.82658c0,2.7465 0,16.26468 0,21.58696c0,1.33855 -0.9369,2.1587 -2.22611,2.1587z" data-paper-data="{&quot;index&quot;:null}" fill-opacity="0.91765" fill="#d1e4ff" stroke="#d0d0d0" stroke-width="0.5"/><path d="M376.24386,334.77711c1.15873,1.11391 4.84349,4.54298 4.86665,4.58665c0.06952,0.10921 0.06952,0.19657 0.06952,0.24024c0,0.24024 -0.18539,0.43683 -0.46347,0.43683c-0.13906,0 -0.30128,-0.10921 -0.34762,-0.13105l-4.79715,-4.52113l-4.61172,4.34642c-0.27809,0.26209 -0.32445,0.30578 -0.50986,0.30578c-0.23174,0 -0.46347,-0.19657 -0.46347,-0.43683c0,-0.15289 0.04635,-0.19657 0.30128,-0.43683l4.63491,-4.39008l0.67208,-0.61154z" fill="#000000" stroke="none" stroke-width="1"/><path d="M370.53526,343.90144c-0.25711,0 -0.54852,0 -0.54852,-0.44434c0,-0.42094 0.30855,-0.42094 0.54852,-0.42094h10.09621c0.25712,0 0.54857,0 0.54857,0.44434c0,0.42094 -0.30859,0.42096 -0.54857,0.42096z" fill="#000000" stroke="none" stroke-width="1"/></g></g></g></g></svg>