<svg version="1.1" xmlns="http://www.w3.org/2000/svg" xmlns:xlink="http://www.w3.org/1999/xlink" width="17.6" height="55.6" viewBox="0,0,17.6,55.6"><g transform="translate(-231.2,-152.2)"><g data-paper-data="{&quot;isPaintingLayer&quot;:true}" fill-rule="nonzero" stroke-linecap="butt" stroke-linejoin="miter" stroke-miterlimit="10" stroke-dasharray="" stroke-dashoffset="0" style="mix-blend-mode: normal"><path d="M237.38542,180.02153c0.21519,-0.60253 0.92534,-2.25953 2.84055,-2.25953c2.15193,0 4.15321,1.91522 4.15321,4.7773c0,2.79751 -2.00129,4.84184 -4.3469,4.84184c-1.82912,0 -4.41143,-1.33419 -4.41143,-7.25201c0,-4.73424 2.84053,-7.51024 5.55195,-7.51024c1.87218,0 2.68991,1.09749 2.68991,2.21649c0,0.62406 -0.36583,0.94685 -0.9038,0.94685c-0.5595,0 -0.8823,-0.40888 -0.8823,-0.88229c0,-0.8823 0.81774,-0.8823 1.07596,-0.8823c-0.40887,-0.64557 -1.18356,-0.88228 -1.95825,-0.88228c-1.16204,0 -3.80891,0.86077 -3.80891,6.30515zM242.20573,185.40136c0.40887,-0.81774 0.40887,-1.7861 0.40887,-2.88359c0,-0.92533 0,-2.00131 -0.34431,-2.79752c-0.32279,-0.73165 -0.94684,-1.52787 -2.13039,-1.52787c-1.93673,0 -2.71144,2.13042 -2.71144,3.83045c0,1.50635 0.21521,2.56079 0.40887,3.12031c0.19368,0.4519 0.83925,1.65698 2.19496,1.65698c0.86077,0 1.63547,-0.36583 2.17345,-1.39875z" fill="#ff0000" stroke="none" stroke-width="1"/><path d="M231.2,207.8v-55.6h17.6v55.6z" fill="none" stroke="#000000" stroke-width="0"/></g></g></svg>