<svg version="1.1" xmlns="http://www.w3.org/2000/svg" xmlns:xlink="http://www.w3.org/1999/xlink" width="23.25" height="45.75" viewBox="0,0,23.25,45.75"><g transform="translate(-228.375,-157.125)"><g data-paper-data="{&quot;isPaintingLayer&quot;:true}" fill-rule="nonzero" stroke="none" stroke-linecap="butt" stroke-linejoin="miter" stroke-miterlimit="10" stroke-dasharray="" stroke-dashoffset="0" style="mix-blend-mode: normal"><path d="M239.47363,189.96934c-0.08489,0 -0.16979,-0.08491 -0.16979,-0.1698c0,-0.03395 0,-0.06791 0.18678,-0.27168c0.98482,-1.10368 1.08669,-2.20736 1.08669,-2.76769c0,-0.0849 0,-0.32261 -0.03396,-0.32261c-0.01697,0 -0.03395,0 -0.06791,0.03396c-0.15282,0.15281 -0.3396,0.22074 -0.56034,0.22074c-0.57731,0 -0.832,-0.45845 -0.832,-0.832c0,-0.37356 0.27168,-0.81502 0.81503,-0.81502c0.69617,0 1.01878,0.73012 1.01878,1.71494c0,1.95267 -1.30744,3.20917 -1.44327,3.20917z" fill="#ff0000" stroke-width="1"/><path d="M228.375,202.875v-45.75h23.25v45.75z" fill="none" stroke-width="0"/></g></g></svg>