<svg version="1.1" xmlns="http://www.w3.org/2000/svg" xmlns:xlink="http://www.w3.org/1999/xlink" width="17.6" height="55.6" viewBox="0,0,17.6,55.6"><g transform="translate(-231.2,-152.2)"><g data-paper-data="{&quot;isPaintingLayer&quot;:true}" fill-rule="nonzero" stroke-linecap="butt" stroke-linejoin="miter" stroke-miterlimit="10" stroke-dasharray="" stroke-dashoffset="0" style="mix-blend-mode: normal"><path d="M242.61459,179.95697c-0.43039,1.09749 -1.24812,2.25952 -2.84054,2.25952c-2.15193,0 -4.15321,-1.93672 -4.15321,-4.77728c0,-2.84055 2.08737,-4.82033 4.45449,-4.82033c1.89369,0 4.30384,1.44179 4.30384,7.23049c0,4.6697 -2.60383,7.53176 -5.29374,7.53176c-1.87218,0 -2.94813,-0.90381 -2.94813,-2.238c0,-0.55952 0.34431,-0.92534 0.90381,-0.92534c0.5595,0 0.88229,0.40888 0.88229,0.88229c0,0.79622 -0.7747,0.92533 -0.92533,0.88229h-0.12912c0.53799,0.75317 1.67851,0.81773 2.19497,0.81773c1.29115,0 3.55067,-1.05445 3.55067,-6.133zM242.57156,177.91263c0,-0.32279 0,-2.15194 -0.43039,-3.20638c-0.21519,-0.49494 -0.83925,-1.5709 -2.06584,-1.5709c-1.16204,0 -1.74307,0.62406 -2.13042,1.20508c-0.5595,0.88228 -0.55949,1.91522 -0.55949,3.12029c0,0.96837 -0.00001,2.00131 0.3443,2.81905c0.19368,0.40885 0.77469,1.50634 2.1304,1.50634c1.8937,0 2.71143,-2.06587 2.71143,-3.87348z" fill="#ff0000" stroke="none" stroke-width="1"/><path d="M231.2,207.8v-55.6h17.6v55.6z" fill="none" stroke="#000000" stroke-width="0"/></g></g></svg>