<svg version="1.1" xmlns="http://www.w3.org/2000/svg" xmlns:xlink="http://www.w3.org/1999/xlink" width="17.6" height="55.6" viewBox="0,0,17.6,55.6"><g transform="translate(-231.2,-152.2)"><g data-paper-data="{&quot;isPaintingLayer&quot;:true}" fill-rule="nonzero" stroke-linecap="butt" stroke-linejoin="miter" stroke-miterlimit="10" stroke-dasharray="" stroke-dashoffset="0" style="mix-blend-mode: normal"><path d="M242.50699,183.04499h2.17344v0.62406h-2.17344v1.95826c0,0.79621 0.06456,1.0114 1.61394,1.0114h0.43039v0.62407c-0.49496,-0.04304 -2.2165,-0.04304 -2.81903,-0.04304c-0.60253,0 -2.30255,0 -2.79749,0.04304v-0.62407h0.43037c1.5709,0 1.61395,-0.21519 1.61395,-1.0114v-1.95826h-5.65956v-0.62406l6.47728,-10.04953c0.17215,-0.25823 0.23672,-0.25823 0.40887,-0.25823c0.30127,0 0.30127,0.1076 0.30127,0.51647zM235.85755,183.04499h5.22918v-8.11279z" fill="#ff0000" stroke="none" stroke-width="1"/><path d="M231.2,207.8v-55.6h17.6v55.6z" fill="none" stroke="#000000" stroke-width="0"/></g></g></svg>