<svg version="1.1" xmlns="http://www.w3.org/2000/svg" xmlns:xlink="http://www.w3.org/1999/xlink" width="147.55437" height="30.17583" viewBox="0,0,147.55437,30.17583"><g transform="translate(-132.5466,-264.80026)"><g fill="#ff0000" stroke="none" stroke-miterlimit="10"><path d="M166.12434,265.55751c-0.69331,-0.02085 -1.27715,0.35969 -1.75152,1.14161c-0.48479,0.80278 -0.79757,2.02258 -0.93831,3.65942c0.18766,-0.29713 0.49001,-0.58123 0.90703,-0.8523c0.41703,-0.26064 0.82102,-0.39096 1.21199,-0.39096c0.57863,0 1.18331,0.28149 1.81407,0.84448c0.64118,0.5682 0.98783,1.41789 1.03996,2.54908c-0.02606,1.15204 -0.3232,2.0695 -0.8914,2.75238c-0.55778,0.67767 -1.21199,1.02432 -1.96264,1.03996c-0.83406,-0.00521 -1.56385,-0.47176 -2.1894,-1.39965c-0.6099,-0.90703 -0.93049,-2.23892 -0.96177,-3.99564c0.01564,-1.21459 0.20851,-2.2728 0.57863,-3.17462c0.38054,-0.91746 0.85751,-1.62641 1.43093,-2.12684c0.5682,-0.50043 1.14943,-0.75326 1.7437,-0.75847c0.51086,0.01564 0.95656,0.17463 1.33709,0.47697c0.37532,0.30756 0.57081,0.66724 0.58645,1.07906c-0.00521,0.60469 -0.25804,0.90182 -0.75847,0.8914c-0.47958,0 -0.7298,-0.27367 -0.75065,-0.82102c0.00521,-0.14075 0.03388,-0.25543 0.08601,-0.34405c0.05213,-0.08341 0.07819,-0.15899 0.07819,-0.22676c-0.00521,-0.05213 -0.05995,-0.11729 -0.1642,-0.19548c-0.1199,-0.09383 -0.26846,-0.14335 -0.4457,-0.14857zM165.28768,269.86592c-0.35969,0.01043 -0.72198,0.16942 -1.08688,0.47697c-0.35969,0.30756 -0.62554,0.69592 -0.79757,1.16507c0.02085,1.32927 0.2424,2.36402 0.66464,3.10425c0.42224,0.7298 0.94092,1.09991 1.55603,1.11033c0.35447,0 0.70373,-0.22936 1.04778,-0.68809c0.34926,-0.4483 0.53692,-1.14682 0.56299,-2.09556c-0.02606,-1.13119 -0.23197,-1.92875 -0.61772,-2.39269c-0.39618,-0.46916 -0.83927,-0.69592 -1.32927,-0.68028z"/><path d="M169.70055,264.84595h5.46451v0.87432c-1.29529,2.27755 -2.1912,4.16112 -2.68772,5.6507c-0.48573,1.468 -0.71781,2.80376 -0.69622,4.0073c-0.0054,0.28065 -0.07016,0.50462 -0.19429,0.67193c-0.12413,0.16191 -0.25096,0.24556 -0.38049,0.25096c-0.5397,-0.03778 -0.82305,-0.46145 -0.85003,-1.271c0,-0.38319 0.16191,-1.03623 0.48573,-1.95913c0.32382,-0.9121 0.79067,-1.9996 1.40053,-3.26251c0.62066,-1.2791 1.32497,-2.5582 2.11294,-3.8373h-3.39204c-0.31842,-0.01619 -0.60717,0.11873 -0.86622,0.40478c-0.25906,0.28065 -0.52351,0.82035 -0.79336,1.61911l-0.24287,0.24287l-0.25906,-0.25906v-0.25906z"/><path d="M178.95416,264.84595c0.77787,0.01051 1.44274,0.24177 1.99461,0.69378c0.56764,0.47303 0.86197,1.09323 0.88299,1.86059c0.01051,0.59392 -0.18133,1.10899 -0.57552,1.54523c-0.36791,0.42573 -0.90664,0.83043 -1.61619,1.21411c0.87248,0.43624 1.51895,0.90664 1.93942,1.41121c0.40996,0.49931 0.60706,1.04855 0.59129,1.64772c-0.01577,0.99336 -0.33638,1.7581 -0.96183,2.2942c-0.61494,0.52033 -1.42172,0.78313 -2.42034,0.78838c-0.92504,-0.01051 -1.67926,-0.28907 -2.26266,-0.83569c-0.59917,-0.54661 -0.90664,-1.29558 -0.92241,-2.2469c0.01051,-0.55187 0.25491,-1.11425 0.7332,-1.68714c0.46778,-0.56238 1.00388,-0.93292 1.6083,-1.11162c-0.59392,-0.33638 -1.04855,-0.75159 -1.36391,-1.24565c-0.32587,-0.49931 -0.48354,-1.05906 -0.47303,-1.67926c0.01577,-0.78313 0.2917,-1.41909 0.8278,-1.90789c0.52033,-0.47829 1.19309,-0.72531 2.01826,-0.74108zM178.60727,270.71942c-0.57289,0.18921 -1.04592,0.50982 -1.41909,0.96183c-0.36266,0.44675 -0.55187,0.9592 -0.56764,1.53735c0.02102,0.67276 0.25491,1.24827 0.70166,1.72656c0.46778,0.49405 1.04592,0.75159 1.73444,0.77262c0.5834,-0.01577 1.07746,-0.23389 1.48216,-0.65436c0.39419,-0.40996 0.59917,-0.91453 0.61494,-1.5137c0.01051,-0.50457 -0.18133,-0.9776 -0.57552,-1.41909c-0.39945,-0.45726 -1.05643,-0.92766 -1.97096,-1.41121zM178.92262,265.43724c-0.46252,0.02628 -0.90402,0.23652 -1.32449,0.63071c-0.39945,0.39419 -0.61494,0.81729 -0.64648,1.2693c-0.00526,0.38894 0.15242,0.78313 0.47303,1.18258c0.33638,0.40996 0.88036,0.8646 1.63196,1.36391c0.6675,-0.47303 1.16155,-0.91715 1.48216,-1.33237c0.30484,-0.38894 0.45464,-0.79627 0.44938,-1.222c-0.02102,-0.44675 -0.23126,-0.86722 -0.63071,-1.26141c-0.42047,-0.39419 -0.89876,-0.60443 -1.43486,-0.63071z"/><path d="M185.25649,264.80027c1.07871,0.03757 1.89445,0.53399 2.44721,1.48926c0.55814,0.94454 0.83721,2.1279 0.83721,3.55007c-0.00536,1.10554 -0.17173,2.13595 -0.4991,3.09122c-0.34347,0.97674 -0.81306,1.77101 -1.40876,2.38282c-0.59034,0.6118 -1.27727,0.92576 -2.06081,0.94186c-0.5313,-0.01073 -0.99552,-0.161 -1.39266,-0.4508c-0.41324,-0.3059 -0.63059,-0.71377 -0.65205,-1.22361c0.05367,-0.52057 0.27639,-0.79427 0.66815,-0.8211c0.45617,0.05367 0.6923,0.32737 0.70841,0.8211c-0.00536,0.19857 -0.05635,0.37835 -0.15295,0.53935c0.11807,0.34884 0.42665,0.52594 0.92576,0.5313c0.68694,-0.01073 1.29338,-0.4669 1.81931,-1.36851c0.53667,-0.90697 0.86404,-2.05813 0.98211,-3.45347c-0.40787,0.71914 -1.19409,1.08407 -2.35867,1.09481c-0.8533,-0.00536 -1.52146,-0.30859 -2.00446,-0.90966c-0.49374,-0.60644 -0.74597,-1.45706 -0.75671,-2.55187c0.00536,-1.04114 0.26297,-1.90786 0.7728,-2.60017c0.5152,-0.68157 1.22361,-1.03577 2.12521,-1.06261zM185.19209,265.39597c-0.48837,0.02683 -0.90697,0.32737 -1.25581,0.90161c-0.34884,0.5796 -0.5313,1.27996 -0.5474,2.10106c0.02147,0.97137 0.2254,1.70124 0.6118,2.18961c0.3864,0.48837 0.82915,0.73256 1.32826,0.73256c0.47227,-0.01073 0.92307,-0.18515 1.35241,-0.52325c0.4347,-0.33273 0.72182,-0.76207 0.86135,-1.28801c-0.05367,-1.36314 -0.3059,-2.39087 -0.75671,-3.08317c-0.44544,-0.68694 -0.97674,-1.03041 -1.59391,-1.03041z"/><path d="M144.41589,264.84596l0.43716,0.21048v9.94945c-0.01619,0.19429 0.09715,0.35351 0.34001,0.47764c0.27525,0.14032 0.85273,0.21048 1.73245,0.21048v0.38049l-0.24287,0.22668h-5.01925l-0.23477,-0.23477v-0.37239c0.97686,0 1.61102,-0.06207 1.90246,-0.1862c0.24826,-0.10794 0.3616,-0.26446 0.34001,-0.46954v-8.87274c-0.32382,0.04318 -0.70162,0.07286 -1.13338,0.08905c-0.42637,0.02159 -0.83114,0.03238 -1.21433,0.03238l-0.43716,-0.34811c0.81495,-0.14032 1.50577,-0.29954 2.07246,-0.47764c0.58288,-0.1781 1.06861,-0.38319 1.4572,-0.61526z"/><path d="M149.86591,275.26141h2.62296c0.86353,0.02159 1.468,-0.11064 1.8134,-0.39668c0.3616,-0.28604 0.63415,-0.89051 0.81765,-1.8134h0.34811l-0.55859,3.33537h-5.99881v-0.34001c0.31842,-0.84734 0.7259,-1.66229 1.22243,-2.44486c0.49113,-0.79337 1.11179,-1.60292 1.86198,-2.42867c1.48958,-1.65149 2.23438,-2.81186 2.23438,-3.48109c-0.02159,-0.5559 -0.21588,-1.02544 -0.58288,-1.40863c-0.3616,-0.367 -0.79337,-0.55859 -1.29529,-0.57478c-0.88512,0.01619 -1.54625,0.39398 -1.98341,1.13338c0.39398,0.11874 0.60177,0.45875 0.62336,1.02004c-0.0054,0.30763 -0.09175,0.53431 -0.25906,0.68003c-0.15112,0.14032 -0.32652,0.21048 -0.52621,0.21048c-0.28604,-0.0108 -0.51812,-0.11604 -0.69622,-0.31573c-0.16191,-0.19429 -0.24556,-0.41017 -0.25096,-0.64764c0.04317,-0.77178 0.41557,-1.43561 1.11719,-1.99151c0.68003,-0.5505 1.41942,-0.83924 2.21819,-0.86623c0.75559,0.02159 1.41133,0.30763 1.96722,0.85813c0.56129,0.53431 0.85543,1.20084 0.88242,1.9996c0.0108,0.43716 -0.1808,0.9202 -0.57478,1.44911c-0.37779,0.50732 -1.00385,1.17656 -1.87817,2.0077c-0.70162,0.70162 -1.30878,1.37355 -1.8215,2.0158c-0.51812,0.63145 -0.95258,1.29799 -1.30339,1.9996z"/><path d="M158.24609,270.69091l-0.23865,-0.23865v-0.30229l0.2466,-0.19092h0.25456c0.81671,0 1.46903,-0.20418 1.95693,-0.61254c0.472,-0.38714 0.71595,-0.9546 0.73186,-1.70237c-0.01591,-0.57806 -0.20153,-1.07393 -0.55685,-1.48759c-0.33941,-0.39775 -0.76898,-0.60723 -1.28871,-0.62845c-0.29699,0 -0.59397,0.07955 -0.89096,0.23865c-0.27577,0.14849 -0.42427,0.34737 -0.44548,0.59663c0,0.03712 0.02917,0.11137 0.0875,0.22274c0.04773,0.10607 0.07425,0.24395 0.07955,0.41366c-0.0053,0.23865 -0.0822,0.42692 -0.2307,0.56481c-0.12728,0.13258 -0.28108,0.20153 -0.46139,0.20683c-0.42427,-0.03182 -0.64701,-0.3235 -0.66822,-0.87505c0.0053,-0.49851 0.236,-0.94665 0.69209,-1.3444c0.46139,-0.39245 1.1084,-0.59928 1.94102,-0.62049c0.7902,0.01591 1.44251,0.25191 1.95693,0.708c0.52503,0.46139 0.7955,1.03945 0.81141,1.73419c-0.0053,0.67883 -0.22009,1.28871 -0.64436,1.82965c-0.44018,0.55155 -0.90157,0.89361 -1.38417,1.0262c1.54327,0.50382 2.33347,1.49554 2.37059,2.97518c-0.0053,0.98112 -0.3129,1.75541 -0.92278,2.32286c-0.59397,0.56215 -1.43721,0.84853 -2.52969,0.85914c-0.83262,-0.04243 -1.5035,-0.32085 -2.01262,-0.83528c-0.50912,-0.50382 -0.77164,-1.01294 -0.78755,-1.52736c0.0053,-0.21744 0.06629,-0.41101 0.18296,-0.58072c0.12728,-0.1644 0.28903,-0.25191 0.48526,-0.26252c0.23335,0.0053 0.42957,0.09281 0.58867,0.26252c0.18031,0.16971 0.27312,0.38449 0.27843,0.64436c0,0.13258 -0.04243,0.26252 -0.12728,0.3898c-0.02121,0.05303 -0.03712,0.13789 -0.04773,0.25456c0.02121,0.28108 0.17236,0.52238 0.45344,0.72391c0.30759,0.21744 0.6364,0.33146 0.98642,0.34207c0.62049,0.0053 1.14817,-0.19888 1.58305,-0.61254c0.42957,-0.40305 0.65496,-1.02885 0.67618,-1.87738c0.01061,-0.85384 -0.22274,-1.50085 -0.70004,-1.94102c-0.48791,-0.45078 -1.29667,-0.67618 -2.42628,-0.67618z"/><path d="M166.3715,283.46077h0.2307l0.2307,0.2307v7.67659h2.03648v0.35002l-0.22274,0.2466h-1.81374v1.83761c-0.01061,0.14319 0.0822,0.26252 0.27843,0.35798c0.24395,0.10607 0.71595,0.1591 1.41599,0.1591v0.35002l-0.22274,0.2466h-3.59567l-0.22274,-0.2466v-0.35002c0.54094,0.0053 0.90952,-0.03182 1.10575,-0.11137c0.14849,-0.05834 0.22009,-0.16971 0.21478,-0.33411v-1.9092h-3.6434l-0.22274,-0.2466v-0.43753zM165.8067,285.50521l-3.26156,5.86285h3.26156z"/><path d="M174.47158,283.71989h3.69369c0.47232,-0.00531 0.93138,-0.07165 1.37717,-0.19901v0.32638c-0.00531,0.30781 -0.10349,0.54662 -0.29454,0.71645c-0.19636,0.16452 -0.42191,0.24943 -0.67665,0.25474h-3.58224l-0.15125,3.56632c0.48825,-0.37149 1.15428,-0.56785 1.9981,-0.58908c0.92873,0.03715 1.66375,0.40333 2.20507,1.09855c0.5254,0.6793 0.7934,1.46474 0.80401,2.35632c-0.04776,1.17816 -0.4166,2.09097 -1.10651,2.73843c-0.68461,0.64746 -1.3984,0.97649 -2.14139,0.98711c-0.6793,-0.03715 -1.30553,-0.31577 -1.87869,-0.83586c-0.57847,-0.52009 -0.88627,-1.07733 -0.92342,-1.67171c0.00531,-0.2282 0.06899,-0.4166 0.19105,-0.5652c0.13798,-0.1539 0.29719,-0.23351 0.47763,-0.23882c0.42456,0.04246 0.65542,0.31046 0.69257,0.80401c-0.00531,0.16452 -0.03449,0.29454 -0.08757,0.39007c-0.05307,0.10083 -0.07961,0.17248 -0.07961,0.21493c0.02653,0.30781 0.20963,0.59439 0.54928,0.85974c0.35026,0.28127 0.70318,0.42987 1.05875,0.44579c0.52009,-0.01592 1.0216,-0.32108 1.50454,-0.91546c0.47232,-0.58908 0.72441,-1.37187 0.75625,-2.34836c-0.02653,-0.81198 -0.25474,-1.46474 -0.68461,-1.95829c-0.44048,-0.49886 -0.942,-0.75625 -1.50454,-0.77217c-0.70053,0.00531 -1.39575,0.33434 -2.08566,0.98711h-0.27862z"/><path d="M132.5466,270.59105c0.00534,-0.99263 0.1601,-1.9132 0.46429,-2.76174c0.30953,-0.85387 0.71245,-1.53964 1.20876,-2.0573c0.523,-0.54434 1.09936,-0.82452 1.72909,-0.84053c0.66709,0.01601 1.25679,0.28818 1.76911,0.81651c0.51232,0.53367 0.91791,1.22477 1.21677,2.0733c0.29352,0.8432 0.44295,1.75577 0.44828,2.73772c-0.01067,1.04599 -0.16811,2.00126 -0.4723,2.8658c-0.3202,0.88589 -0.7338,1.593 -1.24078,2.12133c-0.523,0.54434 -1.09669,0.82452 -1.72108,0.84053c-0.92325,-0.04269 -1.71575,-0.61639 -2.3775,-1.72108c-0.65641,-1.08869 -0.99796,-2.44687 -1.02464,-4.07457zM135.94874,265.52386c-0.62439,0.01601 -1.16874,0.47497 -1.63303,1.37687c-0.46963,0.91257 -0.71512,2.17737 -0.73646,3.79439c0.02135,1.53697 0.26683,2.76708 0.73646,3.69032c0.46429,0.91257 1.00864,1.3822 1.63303,1.40889c0.59237,-0.00534 1.13405,-0.45095 1.62502,-1.33684c0.49098,-0.89656 0.7498,-2.19605 0.77649,-3.89845c-0.02135,-1.55832 -0.26683,-2.78842 -0.73646,-3.69032c-0.46963,-0.88055 -1.02464,-1.32884 -1.66505,-1.34485z"/><path d="M206.18265,274.39001c-0.72,1.55455 -1.96363,1.89818 -2.84726,1.89818c-0.80181,0 -1.99637,-0.32727 -2.7,-1.65273c-0.67091,-1.24365 -0.73637,-2.71638 -0.73637,-3.94366c0,-1.3091 0.08182,-2.58545 0.60546,-3.71455c0.67091,-1.52183 1.86546,-1.94727 2.84727,-1.94727c0.68727,0 2.02909,0.26181 2.78182,1.83273c0.57272,1.21091 0.65454,2.51999 0.65454,3.82909c0,1.29273 -0.08182,2.56911 -0.60546,3.69821zM205.24994,273.88272c0.18,-1.04728 0.18,-2.16 0.18,-3.38728c0,-1.03091 0,-2.27455 -0.16363,-3.19092c-0.31092,-1.62 -1.39091,-1.91455 -1.93091,-1.91455c-0.40908,0 -1.63637,0.14728 -1.94727,2.09455c-0.1309,0.88364 -0.13091,1.96364 -0.13091,3.01092c0,0.96546 0,2.47093 0.18,3.45274c0.29454,1.57092 1.26,1.98001 1.89818,1.98001c0.73636,0 1.66909,-0.49092 1.91455,-2.04547z"/><path d="M212.22274,274.63546c0,0.60546 0.0491,0.78546 1.52183,0.78546h0.52364v0.50727c-0.57273,-0.04909 -1.99635,-0.04909 -2.65091,-0.04909c-0.65456,0 -2.07819,0 -2.65091,0.04909v-0.50727h0.52364c1.47273,0 1.52182,-0.19636 1.52182,-0.78546v-8.4764c-0.85091,0.42546 -1.81637,0.42546 -2.14364,0.42546v-0.50727c0.52364,0 1.96363,0 2.97817,-1.04727c0.37637,0 0.37636,0.03273 0.37636,0.42544z"/><path d="M220.58647,274.66818c0.36,0 1.44,0 1.55454,-0.13091c0.16363,-0.24546 0.27819,-0.96546 0.36,-1.45637h0.40909l-0.45817,2.84728h-6.07091c0,-0.39273 0,-0.42545 0.18,-0.60546l3.14182,-3.50183c0.9,-1.01454 1.71817,-2.30728 1.71817,-3.61638c0,-1.34181 -0.70363,-2.66728 -2.19271,-2.66728c-0.94909,0 -1.83273,0.60546 -2.20909,1.6691c0.0491,-0.01637 0.08181,-0.01637 0.21273,-0.01637c0.57273,0 0.86727,0.42545 0.86727,0.85091c0,0.67091 -0.57273,0.86728 -0.8509,0.86728c-0.0491,0 -0.86728,0 -0.86728,-0.91637c0,-1.45637 1.21092,-2.96182 3.06,-2.96182c1.99637,0 3.46909,1.30908 3.46909,3.17455c0,1.63637 -0.98181,2.52001 -3.53454,4.7782l-1.73456,1.68546z"/><path d="M231.1935,273.13c0,1.66909 -1.48908,3.15819 -3.48544,3.15819c-1.78364,0 -3.30545,-1.08 -3.30545,-2.5691c0,-0.72001 0.52364,-0.94908 0.91636,-0.94908c0.47454,0 0.91637,0.32727 0.91637,0.91635c0,0.62183 -0.50727,0.98183 -1.08,0.90001c0.57273,0.96546 1.8,1.24364 2.50364,1.24364c0.72,0 1.84909,-0.47455 1.84909,-2.70001c0,-1.60364 -0.60546,-2.71637 -1.94727,-2.71637h-0.72c-0.27819,0 -0.39273,0 -0.39273,-0.18c0,-0.16363 0.11454,-0.18 0.24545,-0.19637c0.11455,0 0.50729,-0.03273 0.63819,-0.04909c0.40909,-0.01637 0.96544,-0.06546 1.45636,-0.85091c0.42545,-0.72001 0.45818,-1.66911 0.45818,-1.86547c0,-1.47273 -0.89999,-1.83274 -1.5709,-1.83274c-0.58909,0 -1.6691,0.21273 -2.17637,1.01456c0.24546,0 1.01454,0 1.01454,0.81817c0,0.47456 -0.32727,0.83456 -0.83454,0.83456c-0.47454,0 -0.83454,-0.31092 -0.83454,-0.85093c0,-1.24364 1.24364,-2.22545 2.89637,-2.22545c1.5709,0 3.0109,0.91636 3.0109,2.25818c0,1.29273 -0.94909,2.43821 -2.29091,2.88002c1.70181,0.34364 2.73272,1.62 2.73272,2.96183z"/><path d="M232.32451,273.22818v-0.50727l5.02363,-7.67457c0.13092,-0.19637 0.18,-0.19636 0.32728,-0.19636c0.26181,0 0.26181,0.09817 0.26181,0.42544v7.44549h1.63637v0.50727h-1.63637v1.42364c0,0.58909 0.03273,0.7691 1.24363,0.7691h0.34364v0.50727c-0.67091,-0.04909 -1.53817,-0.04909 -2.22544,-0.04909c-0.68727,0 -1.53818,0 -2.20909,0.04909v-0.50727h0.34364c1.21091,0 1.24363,-0.18 1.24363,-0.7691v-1.42364zM236.77542,266.61725l-3.99273,6.10366h3.99273z"/><path d="M243.79732,276.28819c-1.83273,0 -2.96182,-1.58728 -2.96182,-2.99455c0,-0.75273 0.57273,-0.86727 0.80182,-0.86727c0.54,0 0.81818,0.40909 0.81818,0.80181c0,0.39273 -0.27818,0.80183 -0.81818,0.80183c-0.18,0 -0.22909,-0.01637 -0.27818,-0.03273c0.27818,0.96546 1.21091,1.83273 2.40545,1.83273c0.75273,0 1.35818,-0.42545 1.7509,-1.06364c0.39273,-0.68728 0.39273,-1.6691 0.39273,-2.24183c0,-0.81818 -0.03273,-1.45637 -0.29454,-2.06183c-0.1309,-0.29454 -0.54,-1.04728 -1.3909,-1.04728c-1.32546,0 -1.93091,0.88364 -2.11091,1.14547c-0.06545,0.09818 -0.09818,0.14727 -0.21272,0.14727c-0.22909,0 -0.2291,-0.1309 -0.2291,-0.42546v-4.84366c0,-0.26181 0,-0.39272 0.16363,-0.39272c0.03273,0 0.06546,0 0.19637,0.04908c0.76908,0.34364 1.5218,0.45819 2.17636,0.45819c1.09636,0 1.89818,-0.32727 2.22545,-0.47456c0.08182,-0.04908 0.11455,-0.04908 0.13092,-0.04908c0.11454,0 0.16363,0.08181 0.16363,0.18c0,0.21273 -1.14545,1.70182 -3.15818,1.70182c-0.52364,0 -1.06364,-0.11454 -1.39091,-0.21273v3.19093c0.58909,-0.57273 1.29273,-0.83456 2.07817,-0.83456c1.76729,0 3.1091,1.63638 3.1091,3.58365c0,2.07819 -1.66909,3.6491 -3.56727,3.6491z"/><path d="M252.37377,268.94089c1.81635,0 3.27272,1.57091 3.27272,3.64911c0,2.16 -1.55453,3.69819 -3.3709,3.69819c-1.52181,0 -3.42,-1.16182 -3.42,-5.53092c0,-3.61638 2.20909,-5.72729 4.30363,-5.72729c1.35819,0 2.07819,0.78544 2.07819,1.76727c0,0.63817 -0.49092,0.78546 -0.75273,0.78546c-0.36,0 -0.75273,-0.24546 -0.75273,-0.75273c0,-0.73637 0.65454,-0.73637 0.9,-0.73637c-0.36,-0.55637 -1.04727,-0.65456 -1.44,-0.65456c-0.83454,0 -2.86363,0.5891 -2.86363,4.72912v0.39273c0.32727,-0.78546 0.93273,-1.62 2.04546,-1.62zM253.89558,274.76637c0.27819,-0.58909 0.27819,-1.40728 0.27819,-2.19273c0,-0.80183 0,-1.63637 -0.29456,-2.24183c-0.50727,-1.01454 -1.26,-1.01454 -1.52181,-1.01454c-1.47273,0 -1.99636,1.63637 -1.99636,2.91274c0,0.29454 0,1.60364 0.29454,2.37273c0.09819,0.24545 0.58909,1.22728 1.62,1.22728c0.37637,0 1.12909,-0.08182 1.61999,-1.06364z"/><path d="M261.89931,269.0718c-0.72,1.01456 -0.9491,2.42183 -1.01454,2.7982c-0.13092,0.88364 -0.18,1.78364 -0.18,2.68364v0.83455c0,0.16363 0,0.9 -0.75272,0.9c-0.75273,0 -0.75273,-0.73636 -0.75273,-0.9c0,-1.6691 0.53999,-3.94365 2.01273,-6.15276c0.36,-0.54 1.65273,-2.32364 1.83273,-2.58545h-3.38728c-0.21272,0 -1.48908,0 -1.60363,0.09817c-0.21272,0.19637 -0.36,1.22728 -0.40909,1.4891h-0.40909l0.54,-3.37091h0.40909c0.06545,0.3109 0.09817,0.52363 2.09454,0.52363h3.97636c0,0.34364 0,0.37637 -0.14727,0.57273z"/><path d="M269.16817,269.75907c0.98181,-0.57272 1.62,-1.35818 1.62,-2.29091c0,-1.17818 -1.04726,-2.02911 -2.24182,-2.02911c-1.16181,0 -2.22545,0.68729 -2.22545,1.68547c0,0.27819 0.06545,0.83454 0.81817,1.32547zM271.14817,271.16636c0.62181,0.68727 0.80181,1.42364 0.80181,2.01272c0,1.75092 -1.55453,3.1091 -3.40363,3.1091c-1.71817,0 -3.38727,-1.09636 -3.38727,-2.83091c0,-1.62 1.40726,-2.53638 2.35636,-3.01092c-0.40909,-0.27819 -1.01454,-0.68729 -1.19454,-0.88366c-0.68727,-0.76909 -0.72,-1.50545 -0.72,-1.79999c0,-1.52183 1.32545,-2.73274 2.96182,-2.73274c1.4891,0 2.94545,0.93273 2.94545,2.43818c0,1.08001 -0.80183,1.93092 -1.98,2.53638c1.04727,0.65454 1.3091,0.81817 1.62,1.16182zM265.97727,273.45727c0,1.35818 1.17818,2.37273 2.58545,2.37273c1.34182,0 2.56909,-0.85091 2.56909,-2.06183c0,-0.99818 -0.76909,-1.4891 -1.22727,-1.8l-2.01272,-1.27637c-1.3909,0.7691 -1.91454,1.81637 -1.91454,2.76547z"/><path d="M276.5828,272.3609c-1.83273,0 -3.27272,-1.60363 -3.27272,-3.64911c0,-1.22728 0.37636,-1.91454 1.04726,-2.65091c0.70364,-0.73637 1.50546,-1.03091 2.40546,-1.03091c1.45637,0 3.33817,1.11273 3.33817,5.51456c0,3.51819 -1.99636,5.74365 -4.10726,5.74365c-1.3909,0 -2.27454,-0.67091 -2.27454,-1.76728c0,-0.63819 0.4909,-0.78546 0.75273,-0.78546c0.36,0 0.75272,0.24546 0.75272,0.75273c0,0.27819 -0.1309,0.75273 -0.85091,0.75273c0.44182,0.55637 1.32546,0.58909 1.60363,0.58909c0.94909,0 2.65091,-0.75273 2.65091,-4.58184v-0.52364c-0.37637,0.9491 -1.04728,1.63637 -2.04546,1.63637zM278.59553,269.03907c0,-0.75272 -0.06546,-1.78365 -0.26182,-2.30728c-0.27817,-0.73637 -0.81817,-1.29273 -1.5709,-1.29273c-0.57273,0 -1.19454,0.21273 -1.63637,1.03093c-0.34364,0.60544 -0.34364,1.37454 -0.34364,2.25818c0,0.80183 0,1.62001 0.29454,2.22547c0.50727,1.03091 1.26,1.03091 1.52183,1.03091c1.44,0 1.99636,-1.58727 1.99636,-2.94547z"/></g></g></svg>