<svg version="1.1" xmlns="http://www.w3.org/2000/svg" xmlns:xlink="http://www.w3.org/1999/xlink" width="17" height="35.33333" viewBox="0,0,17,35.33333"><g transform="translate(-231.50001,-162.33335)"><g data-paper-data="{&quot;isPaintingLayer&quot;:true}" fill-rule="nonzero" stroke="none" stroke-linecap="butt" stroke-linejoin="miter" stroke-miterlimit="10" stroke-dasharray="" stroke-dashoffset="0" style="mix-blend-mode: normal"><path d="M231.50001,197.66668v-35.33333h17v35.33333z" fill="none" stroke-width="0"/><path d="M238.69161,183.71141c-0.19627,0.78507 -0.19627,0.82433 -0.51029,1.8253c-0.23553,0.82433 -0.39254,1.33463 -0.96172,1.33463c-0.17665,0 -0.52992,-0.09813 -0.52992,-0.51029c0,-0.11775 -0.00001,-0.15701 0.157,-0.47104c1.6094,-3.43471 2.10008,-5.14224 2.53187,-6.61426h-1.11873c-0.49067,0 -1.51127,0 -2.53187,1.6094c-0.09813,0.11775 -0.11776,0.17665 -0.25516,0.17665c-0.11775,0 -0.2159,-0.03926 -0.2159,-0.15701c0,-0.11775 0.62806,-1.15799 1.13836,-1.72717c0.90285,-0.96172 1.57015,-0.96172 2.02157,-0.96172h6.45725c0.35328,0 0.72619,0 0.72619,0.43179c0,0.62806 -0.64769,0.62806 -0.90285,0.62806h-2.1982c-0.41216,1.76642 -0.41217,3.15993 -0.41217,3.27769c0,0.13739 0,1.8253 0.52992,3.17955c0.13739,0.29441 0.13739,0.33366 0.13739,0.43179c0,0.33366 -0.35329,0.70657 -0.76545,0.70657c-0.8047,0 -0.8047,-2.11971 -0.8047,-2.39448c0,-1.57015 0.33366,-3.00291 0.86358,-5.20112h-2.21784z" fill="#ff0000" stroke-width="1"/></g></g></svg>