<svg version="1.1" xmlns="http://www.w3.org/2000/svg" xmlns:xlink="http://www.w3.org/1999/xlink" width="110.57889" height="155.02375" viewBox="0,0,110.57889,155.02375"><g transform="translate(-177.21814,-102.356)"><g data-paper-data="{&quot;isPaintingLayer&quot;:true}" fill-rule="nonzero" stroke="none" stroke-linecap="butt" stroke-linejoin="miter" stroke-miterlimit="10" stroke-dasharray="" stroke-dashoffset="0" style="mix-blend-mode: normal"><path d="M255.09252,136.08368c2.08297,0.54558 4.12516,1.30636 6.03902,2.29308l1.61142,1.92885c0,0 0.96245,1.60412 -0.07658,2.92617c0.08641,0.24263 0.15922,0.4872 0.21752,0.73123c0.30458,1.27484 0.02738,2.62019 -0.40249,3.9095c0.03475,0.14579 0.05734,0.29624 0.06607,0.45208c0.08762,1.56416 -1.06284,2.99089 -1.97438,4.26501c-0.65253,0.91207 -1.53873,1.85434 -2.54102,2.76854c-2.60726,2.94835 -5.69049,5.60154 -7.65024,8.93607c-1.39783,2.37843 -2.77412,7.11178 -5.10297,8.66823c-1.57193,1.05058 -2.75436,1.4236 -3.86119,1.41273c-0.94514,0.7418 -1.9508,1.41901 -3.0624,1.29258c-0.34811,-0.03959 -0.68215,-0.12178 -1.00541,-0.23657l-0.04387,0.15302l-2.78222,-0.79773c-1.13798,-0.29838 -1.97749,-1.33388 -1.97749,-2.56546c0,-0.45513 0.11465,-0.88347 0.31664,-1.25774c-3.44502,-2.14591 -6.41737,-4.81546 -8.78109,-8.30596c-1.97364,-2.91446 -3.78776,-6.19769 -5.31682,-9.40853l-0.4708,-0.17057c-1.03422,-0.90225 -2.41508,-1.51894 -3.10266,-2.70676c-2.12745,-3.67524 -1.31175,-9.37161 1.81851,-12.15536c0.00699,-0.00622 0.01401,-0.01241 0.02108,-0.0186c0.11897,-0.97233 0.76419,-1.78203 1.64212,-2.13558c1.64111,-3.03501 4.76339,-3.44611 7.87062,-3.64225c2.58561,-0.16323 5.81553,0.40778 8.60444,1.71141c4.03479,-0.23375 8.11432,-0.09431 12.01096,0.37983c2.19067,0.26655 4.86225,0.53429 7.02711,1.5028c0.51558,-0.03014 0.90613,0.06996 0.90613,0.06996zM244.56594,161.56927c-0.02598,0.13173 -0.05242,0.26391 -0.07945,0.3964c0.06164,-0.12616 0.12277,-0.25254 0.18343,-0.3791c-0.03475,-0.00557 -0.06942,-0.01134 -0.10398,-0.0173z" fill="#ffc100" stroke-width="0.5"/><path d="M211.2788,215.80453c2.91204,-16.15928 13.97644,-27.9538 18.59861,-32.27043l3.21423,-3.00881l-3.21423,-3.00078c-4.62218,-4.31663 -15.6797,-16.11114 -18.59861,-32.27043c-0.35027,-1.92563 -0.364,-6.00958 1.77882,-9.09862c1.18817,-1.71702 3.48896,-3.76301 7.69219,-3.76301h35.65876c4.18949,0 6.48341,2.03797 7.67845,3.74697c2.64419,3.7951 1.88184,8.56907 1.79255,9.09862c-2.91891,16.17534 -13.97643,27.96985 -18.5986,32.28648l-3.21424,3.0088l3.21424,3.0088c4.62217,4.31663 15.67969,16.11115 18.5986,32.27044c0.09616,0.53758 0.85164,5.31956 -1.79255,9.11467c-1.19504,1.709 -3.48896,3.74697 -7.67845,3.74697h-35.65876c-4.19636,0 -6.49716,-2.04598 -7.69219,-3.76301c-2.14282,-3.09706 -2.12909,-7.18102 -1.77882,-9.10665zM218.00258,143.62532c2.45188,13.59178 12.12205,23.86183 16.16732,27.63287l4.40927,4.13209l4.41614,-4.12407c4.04526,-3.77906 13.70857,-14.04109 16.16732,-27.66496c0.05495,-0.3771 0.07555,-1.74109 -0.41208,-2.41506c-0.48076,-0.66595 -1.67579,-0.77025 -2.34199,-0.77025h-35.65876c-0.66619,0 -1.86123,0.1043 -2.34199,0.77025c-0.48762,0.67397 -0.46702,2.02191 -0.40521,2.43913zM234.16992,189.79241c-4.04526,3.77906 -13.71544,14.04109 -16.16732,27.66496c-0.05494,0.38513 -0.07555,1.7411 0.41208,2.41507c0.48076,0.66595 1.67581,0.77025 2.342,0.77025h35.65876c0.6662,0 1.86123,-0.1043 2.342,-0.77025c0.48076,-0.67397 0.46015,-2.02995 0.40521,-2.44717c-2.45188,-13.58375 -12.12205,-23.85379 -16.16732,-27.62483l-4.41614,-4.13209l-4.40927,4.12407z" fill="#000000" stroke-width="1"/><path d="M177.21814,257.37975v-155.02375h110.57889v155.02375z" fill="none" stroke-width="0"/></g></g></svg>