<svg version="1.1" xmlns="http://www.w3.org/2000/svg" xmlns:xlink="http://www.w3.org/1999/xlink" width="17" height="35.33333" viewBox="0,0,17,35.33333"><g transform="translate(-231.50001,-162.33335)"><g data-paper-data="{&quot;isPaintingLayer&quot;:true}" fill-rule="nonzero" stroke="none" stroke-linecap="butt" stroke-linejoin="miter" stroke-miterlimit="10" stroke-dasharray="" stroke-dashoffset="0" style="mix-blend-mode: normal"><path d="M231.50001,197.66668v-35.33333h17v35.33333z" fill="none" stroke-width="0"/><path d="M238.36045,186.76668c-1.9902,0 -2.17973,-2.93792 -2.17973,-3.80981c0,-4.16994 2.82419,-9.72354 5.47778,-9.72354c1.55424,0 2.16078,1.87647 2.16078,3.80979c0,4.30261 -2.88105,9.72354 -5.45883,9.72354zM242.0755,179.71567c0.54966,-2.12289 0.60653,-3.07059 0.60653,-3.75295c0,-1.81961 -0.417,-2.35033 -1.04248,-2.35033c-0.83399,0 -1.49738,0.9098 -2.12289,2.04707c-0.75816,1.34575 -1.15622,2.93792 -1.44052,4.05621zM237.9245,180.2843c-0.30328,1.25099 -0.60653,2.53987 -0.60653,3.7719c0,1.87648 0.47385,2.33137 1.06144,2.33137c0.79607,0 1.45947,-0.89085 2.00916,-1.85751c0.68235,-1.19413 1.08039,-2.38823 1.55424,-4.24575z" fill="#ff0000" stroke-width="1"/></g></g></svg>