<svg version="1.1" xmlns="http://www.w3.org/2000/svg" xmlns:xlink="http://www.w3.org/1999/xlink" width="23.25" height="45.75" viewBox="0,0,23.25,45.75"><g transform="translate(-228.375,-157.125)"><g data-paper-data="{&quot;isPaintingLayer&quot;:true}" fill-rule="nonzero" stroke="none" stroke-linecap="butt" stroke-linejoin="miter" stroke-miterlimit="10" stroke-dasharray="" stroke-dashoffset="0" style="mix-blend-mode: normal"><path d="M240.09,181.30911c0.96546,-0.98183 1.89819,-1.91456 1.89819,-3.30547c0,-1.27637 -0.83455,-2.50365 -2.37273,-2.50365c-1.4891,0 -1.94727,1.27637 -2.27455,2.53638c-0.16363,-0.22909 -0.32727,-0.44182 -0.36,-0.47454c-0.03273,-0.0491 -0.11454,-0.14729 -0.3109,-0.42547c0.39272,-1.40728 1.30909,-2.68364 3.17453,-2.68364c2.16,0 3.48546,1.63637 3.48546,3.51818c0,1.39091 -0.88363,2.2582 -1.62,2.99457c-0.3109,0.29454 -1.14546,0.98181 -1.45636,1.27635c-0.50727,0.47456 -1.7509,1.70183 -2.27454,2.16001h1.78364c0.19637,0 0.39273,-0.01636 0.58909,-0.01636h2.97817v1.16182h-6.52908v-1.04728l2.02909,-2.0291z" fill="#ff0000" stroke-width="1"/><path d="M228.375,202.875v-45.75h23.25v45.75z" fill="none" stroke-width="0"/></g></g></svg>