<svg version="1.1" xmlns="http://www.w3.org/2000/svg" xmlns:xlink="http://www.w3.org/1999/xlink" width="17.6" height="55.6" viewBox="0,0,17.6,55.6"><g transform="translate(-231.2,-152.2)"><g data-paper-data="{&quot;isPaintingLayer&quot;:true}" fill-rule="nonzero" stroke-linecap="butt" stroke-linejoin="miter" stroke-miterlimit="10" stroke-dasharray="" stroke-dashoffset="0" style="mix-blend-mode: normal"><path d="M243.64751,187.15517h-7.85452v-0.51647l4.34689,-4.86336c1.22659,-1.37724 2.28103,-2.96966 2.28103,-4.79881c0,-1.97977 -1.119,-3.50765 -2.94814,-3.50765c-1.39875,0 -2.56078,0.98988 -2.96965,2.45321c0.06456,-0.02152 0.10759,-0.02152 0.30126,-0.02152c0.60255,0 1.01142,0.40887 1.01142,1.0114c0,0.68862 -0.55951,1.0114 -1.01142,1.0114c-0.06455,0 -1.01139,0 -1.01139,-1.09748c0,-1.85067 1.4633,-3.98108 3.95953,-3.98108c2.49623,0 4.4545,1.65699 4.4545,4.13171c0,2.1304 -1.20508,3.2494 -4.476,6.26211c-0.5595,0.51647 -1.87217,1.89371 -2.45319,2.38865h3.98107c0.64557,0 1.87217,0 2.0228,-0.19368c0.21519,-0.34429 0.38735,-1.52787 0.45191,-1.8937h0.47343z" fill="#ff0000" stroke="none" stroke-width="1"/><path d="M231.2,207.8v-55.6h17.6v55.6z" fill="none" stroke="#000000" stroke-width="0"/></g></g></svg>