<svg version="1.1" xmlns="http://www.w3.org/2000/svg" xmlns:xlink="http://www.w3.org/1999/xlink" width="480" height="153.25894" viewBox="0,0,480,153.25894"><g transform="translate(0,-206.74107)"><g data-paper-data="{&quot;isPaintingLayer&quot;:true}" fill-rule="nonzero" stroke-linecap="butt" stroke-linejoin="miter" stroke-miterlimit="10" stroke-dasharray="" stroke-dashoffset="0" style="mix-blend-mode: normal"><path d="M0,360.00002v-153.25894h480v153.25894z" fill-opacity="0.84314" fill="#252525" stroke="none" stroke-width="0"/><path d="" fill-opacity="0.91765" fill="#fff6d1" stroke="none" stroke-width="1"/><path d="" fill-opacity="0.91765" fill="#fff6d1" stroke="none" stroke-width="1"/><path d="" fill-opacity="0.91765" fill="#fff6d1" stroke="none" stroke-width="1"/><path d="" fill-opacity="0.91765" fill="#fff6d1" stroke="none" stroke-width="1"/><path d="" fill-opacity="0.91765" fill="#fff6d1" stroke="none" stroke-width="1"/><path d="" fill-opacity="0.91765" fill="#fff6d1" stroke="none" stroke-width="1"/><path d="" fill-opacity="0.91765" fill="#fff6d1" stroke="none" stroke-width="1"/><g><path d="M91.55746,263.0272c-6.7336,0 -28.27729,0 -32.63067,0c-1.51414,0 -2.51026,-0.95831 -2.51026,-2.4908c0,-5.38467 0,-17.85811 0,-20.75669c0,-1.17748 0.83864,-2.32476 2.27173,-2.32476c4.30441,0 26.35938,0 32.92602,0c1.18062,0 2.16929,0.87327 2.16929,1.82658c0,2.7465 0,16.26468 0,21.58696c0,1.33855 -0.9369,2.1587 -2.22611,2.1587z" data-paper-data="{&quot;index&quot;:null}" fill-opacity="0.91765" fill="#fff6d1" stroke="#d0d0d0" stroke-width="0.5"/><path d="M131.55746,263.0272c-6.7336,0 -28.27729,0 -32.63067,0c-1.51414,0 -2.51026,-0.95831 -2.51026,-2.4908c0,-5.38467 0,-17.85811 0,-20.75669c0,-1.17748 0.83864,-2.32476 2.27173,-2.32476c4.30441,0 26.35938,0 32.92602,0c1.18062,0 2.16929,0.87327 2.16929,1.82658c0,2.7465 0,16.26468 0,21.58696c0,1.33855 -0.9369,2.1587 -2.22611,2.1587z" data-paper-data="{&quot;index&quot;:null}" fill-opacity="0.91765" fill="#fff6d1" stroke="#d0d0d0" stroke-width="0.5"/><path d="M171.55746,263.0272c-6.7336,0 -28.27729,0 -32.63067,0c-1.51414,0 -2.51026,-0.95831 -2.51026,-2.4908c0,-5.38467 0,-17.85811 0,-20.75669c0,-1.17748 0.83864,-2.32476 2.27173,-2.32476c4.30441,0 26.35938,0 32.92602,0c1.18062,0 2.16929,0.87327 2.16929,1.82658c0,2.7465 0,16.26468 0,21.58696c0,1.33855 -0.9369,2.1587 -2.22611,2.1587z" data-paper-data="{&quot;index&quot;:null}" fill-opacity="0.91765" fill="#fff6d1" stroke="#d0d0d0" stroke-width="0.5"/><path d="M91.55746,293.0272c-6.7336,0 -28.27729,0 -32.63067,0c-1.51414,0 -2.51026,-0.95831 -2.51026,-2.4908c0,-5.38467 0,-17.85811 0,-20.75669c0,-1.17748 0.83864,-2.32476 2.27173,-2.32476c4.30441,0 26.35938,0 32.92602,0c1.18062,0 2.16929,0.87327 2.16929,1.82658c0,2.7465 0,16.26468 0,21.58696c0,1.33855 -0.9369,2.1587 -2.22611,2.1587z" data-paper-data="{&quot;index&quot;:null}" fill-opacity="0.91765" fill="#fff6d1" stroke="#d0d0d0" stroke-width="0.5"/><path d="M131.55746,293.0272c-6.7336,0 -28.27729,0 -32.63067,0c-1.51414,0 -2.51026,-0.95831 -2.51026,-2.4908c0,-5.38467 0,-17.85811 0,-20.75669c0,-1.17748 0.83864,-2.32476 2.27173,-2.32476c4.30441,0 26.35938,0 32.92602,0c1.18062,0 2.16929,0.87327 2.16929,1.82658c0,2.7465 0,16.26468 0,21.58696c0,1.33855 -0.9369,2.1587 -2.22611,2.1587z" data-paper-data="{&quot;index&quot;:null}" fill-opacity="0.91765" fill="#fff6d1" stroke="#d0d0d0" stroke-width="0.5"/><path d="M171.55746,293.0272c-6.7336,0 -28.27729,0 -32.63067,0c-1.51414,0 -2.51026,-0.95831 -2.51026,-2.4908c0,-5.38467 0,-17.85811 0,-20.75669c0,-1.17748 0.83864,-2.32476 2.27173,-2.32476c4.30441,0 26.35938,0 32.92602,0c1.18062,0 2.16929,0.87327 2.16929,1.82658c0,2.7465 0,16.26468 0,21.58696c0,1.33855 -0.9369,2.1587 -2.22611,2.1587z" data-paper-data="{&quot;index&quot;:null}" fill-opacity="0.91765" fill="#fff6d1" stroke="#d0d0d0" stroke-width="0.5"/><path d="M91.55746,323.0272c-6.7336,0 -28.27729,0 -32.63067,0c-1.51414,0 -2.51026,-0.95831 -2.51026,-2.4908c0,-5.38467 0,-17.85811 0,-20.75669c0,-1.17748 0.83864,-2.32476 2.27173,-2.32476c4.30441,0 26.35938,0 32.92602,0c1.18062,0 2.16929,0.87327 2.16929,1.82658c0,2.7465 0,16.26468 0,21.58696c0,1.33855 -0.9369,2.1587 -2.22611,2.1587z" data-paper-data="{&quot;index&quot;:null}" fill-opacity="0.91765" fill="#fff6d1" stroke="#d0d0d0" stroke-width="0.5"/><path d="M131.55746,323.0272c-6.7336,0 -28.27729,0 -32.63067,0c-1.51414,0 -2.51026,-0.95831 -2.51026,-2.4908c0,-5.38467 0,-17.85811 0,-20.75669c0,-1.17748 0.83864,-2.32476 2.27173,-2.32476c4.30441,0 26.35938,0 32.92602,0c1.18062,0 2.16929,0.87327 2.16929,1.82658c0,2.7465 0,16.26468 0,21.58696c0,1.33855 -0.9369,2.1587 -2.22611,2.1587z" data-paper-data="{&quot;index&quot;:null}" fill-opacity="0.91765" fill="#fff6d1" stroke="#d0d0d0" stroke-width="0.5"/><path d="M171.55746,323.0272c-6.7336,0 -28.27729,0 -32.63067,0c-1.51414,0 -2.51026,-0.95831 -2.51026,-2.4908c0,-5.38467 0,-17.85811 0,-20.75669c0,-1.17748 0.83864,-2.32476 2.27173,-2.32476c4.30441,0 26.35938,0 32.92602,0c1.18062,0 2.16929,0.87327 2.16929,1.82658c0,2.7465 0,16.26468 0,21.58696c0,1.33855 -0.9369,2.1587 -2.22611,2.1587z" data-paper-data="{&quot;index&quot;:null}" fill-opacity="0.91765" fill="#fff6d1" stroke="#d0d0d0" stroke-width="0.5"/><path d="M91.55746,353.02732c-6.7336,0 -28.27729,0 -32.63067,0c-1.51414,0 -2.51026,-0.95831 -2.51026,-2.4908c0,-5.38467 0,-17.85811 0,-20.75669c0,-1.17748 0.83864,-2.32476 2.27173,-2.32476c4.30441,0 26.35938,0 32.92602,0c1.18062,0 2.16929,0.87327 2.16929,1.82658c0,2.7465 0,16.26468 0,21.58696c0,1.33855 -0.9369,2.1587 -2.22611,2.1587z" data-paper-data="{&quot;index&quot;:null}" fill-opacity="0.91765" fill="#fff6d1" stroke="#d0d0d0" stroke-width="0.5"/><path d="M131.55746,353.02732c-6.7336,0 -28.27729,0 -32.63067,0c-1.51414,0 -2.51026,-0.95831 -2.51026,-2.4908c0,-5.38467 0,-17.85811 0,-20.75669c0,-1.17748 0.83864,-2.32476 2.27173,-2.32476c4.30441,0 26.35938,0 32.92602,0c1.18062,0 2.16929,0.87327 2.16929,1.82658c0,2.7465 0,16.26468 0,21.58696c0,1.33855 -0.9369,2.1587 -2.22611,2.1587z" data-paper-data="{&quot;index&quot;:null}" fill-opacity="0.91765" fill="#fff6d1" stroke="#d0d0d0" stroke-width="0.5"/><path d="M171.55746,353.02732c-6.7336,0 -28.27729,0 -32.63067,0c-1.51414,0 -2.51026,-0.95831 -2.51026,-2.4908c0,-5.38467 0,-17.85811 0,-20.75669c0,-1.17748 0.83864,-2.32476 2.27173,-2.32476c4.30441,0 26.35938,0 32.92602,0c1.18062,0 2.16929,0.87327 2.16929,1.82658c0,2.7465 0,16.26468 0,21.58696c0,1.33855 -0.9369,2.1587 -2.22611,2.1587z" data-paper-data="{&quot;index&quot;:null}" fill-opacity="0.91765" fill="#fff6d1" stroke="#d0d0d0" stroke-width="0.5"/><g fill="#000000" stroke="none" stroke-width="1"><path d="M65.59507,310.32552c0,0.24298 0,0.31048 -0.14848,0.31048c-0.04049,0 -0.13498,0 -0.14848,-0.10799c-0.027,-0.41846 -0.10799,-1.67382 -1.57933,-1.67382c-1.21487,0 -1.49834,0.62092 -1.49834,1.03939c0,0.80991 0.9854,0.99888 1.39035,1.07988c0.89091,0.16199 1.25537,0.24297 1.74131,0.66143c0.12149,0.12149 0.56694,0.55345 0.56694,1.28236c0,1.06638 -0.70192,1.8493 -2.11927,1.8493c-0.22948,0 -0.9584,0 -1.47135,-0.63443c-0.20248,0.21598 -0.20248,0.24298 -0.26997,0.33746c-0.22948,0.28347 -0.24298,0.29697 -0.31047,0.29697c-0.13498,0 -0.13498,-0.06749 -0.13498,-0.31046v-1.83579c0,-0.24297 0,-0.31048 0.14849,-0.31048c0.0405,0 0.09449,0 0.12148,0.054c0.0135,0.0135 0.0135,0.02699 0.06749,0.26997c0.29697,1.34986 0.9449,1.8628 1.8358,1.8628c1.18788,0 1.52534,-0.64793 1.52534,-1.22837c0,-0.37795 -0.17548,-0.67492 -0.41846,-0.8774c-0.33746,-0.26997 -0.51295,-0.31046 -1.25537,-0.45895c-0.62093,-0.12148 -1.07988,-0.21598 -1.51184,-0.59393c-0.51294,-0.47245 -0.51294,-0.9449 -0.51294,-1.09337c0,-0.74242 0.48595,-1.63332 2.11927,-1.63332c0.43196,0 0.85041,0.08098 1.26886,0.41846c0.09449,-0.12149 0.35096,-0.41846 0.45895,-0.41846c0.13498,0 0.13498,0.06749 0.13498,0.31046z"/><path d="M68.04871,306.96439c-0.32396,0 -0.64792,-0.25647 -0.64792,-0.66143c0,-0.36447 0.29696,-0.64793 0.64792,-0.64793c0.37797,0 0.66144,0.31046 0.66144,0.66143c0,0.29697 -0.24298,0.64793 -0.66144,0.64793zM68.68315,308.67868v4.96746c0,0.52644 0.05399,0.59393 0.93139,0.59393v0.39146c-0.45895,-0.027 -1.24186,-0.027 -1.39034,-0.027c-0.39146,0 -1.03939,0 -1.41735,0.027v-0.39146c0.87741,0 1.02589,0.00001 1.02589,-0.60743v-3.6716c0,-0.66144 -0.12149,-0.74242 -0.9854,-0.74242v-0.39146z"/><path d="M76.02653,313.83516c0.01349,0.40496 0.35096,0.40495 1.02589,0.40495v0.39146c-0.35096,-0.027 -1.07989,-0.027 -1.47135,-0.027c-0.37795,0 -1.10688,0 -1.45784,0.027v-0.39146c0.87741,0 1.02589,0.00001 1.02589,-0.60743v-3.17215c0,-0.82341 -0.18899,-1.51184 -1.02589,-1.51184c-0.83691,0 -1.76831,0.75592 -1.76831,2.17326v2.51073c0,0.60744 0.16199,0.60743 1.02589,0.60743v0.39146c-0.35096,-0.027 -1.07988,-0.027 -1.47134,-0.027c-0.37797,0 -1.10689,0 -1.45785,0.027v-0.39146c0.8774,0 1.02589,0.00001 1.02589,-0.60743v-3.6581c0,-0.66143 -0.10799,-0.75591 -1.02589,-0.75591v-0.39146l1.83581,-0.14849v1.39035h0.0135c0.10799,-0.26997 0.62093,-1.39035 1.93029,-1.39035c0.45895,0 1.09338,0.08098 1.48484,0.60744c0.31048,0.43194 0.31048,0.80991 0.31048,2.06527z"/><path d="M78.50164,307.13604c-0.15935,0 -0.32809,0 -0.32809,-0.18748c0,-0.18748 0.16874,-0.18748 0.32809,-0.18748h5.07133c0.15935,0 0.32808,0 0.32808,0.18748c0,0.18748 -0.16873,0.18748 -0.32808,0.18748z"/><path d="M87.41533,308.55152c0,0.34684 0.02811,0.44995 0.87178,0.44995h0.29998v0.29059c-0.3281,-0.02812 -1.14363,-0.02812 -1.51859,-0.02812c-0.37497,0 -1.1905,0 -1.51859,0.02812v-0.29059h0.29998c0.84365,0 0.87178,-0.11249 0.87178,-0.44995v-4.85572c-0.48745,0.24373 -1.04051,0.24373 -1.22799,0.24373v-0.29059c0.29997,0 1.12488,0 1.70607,-0.59993c0.2156,0 0.2156,0.01875 0.2156,0.24372z"/></g><g fill="#000000" stroke="none" stroke-width="1"><path d="M103.74032,308.68769c-0.67492,0 -1.8223,0.55345 -1.8223,2.7942c0,2.05177 1.09338,2.76719 1.91679,2.76719c0.72892,0 1.45784,-0.40496 1.7548,-1.36335c0.0405,-0.16198 0.054,-0.20247 0.17548,-0.20247c0.0405,0 0.13499,-0.00001 0.13499,0.12148c0,0.12149 -0.40496,1.74131 -2.18677,1.74131c-1.52534,0 -2.8212,-1.32286 -2.8212,-3.05067c0,-1.70082 1.25536,-3.10466 2.8347,-3.10466c1.09338,0 2.03827,0.64793 2.03827,1.55233c0,0.39146 -0.25646,0.58044 -0.56694,0.58044c-0.32397,0 -0.55344,-0.22948 -0.55344,-0.55345c0,-0.55344 0.49944,-0.55344 0.66143,-0.55344c-0.31046,-0.52644 -1.05288,-0.72892 -1.56583,-0.72892z"/><path d="M109.56582,314.54603c-1.53883,0 -2.88869,-1.29585 -2.88869,-3.02368c0,-1.70081 1.28235,-3.13165 2.90219,-3.13165c1.56583,0 2.88869,1.39034 2.88869,3.13165c0,1.70082 -1.30936,3.02368 -2.90218,3.02368zM111.09116,313.34466c0.35096,-0.63443 0.35096,-1.47133 0.35096,-1.94379c0,-0.49944 0,-1.34986 -0.41846,-1.97079c-0.36447,-0.52644 -0.93141,-0.76941 -1.45784,-0.76941c-0.47245,0 -1.06639,0.21597 -1.44434,0.79642c-0.41845,0.60742 -0.41845,1.43084 -0.41845,1.94379c0,0.56694 0.01349,1.36335 0.37795,1.97078c0.39146,0.66143 0.99889,0.8774 1.49834,0.8774c0.51294,0 1.13388,-0.25647 1.51184,-0.9044z"/><path d="M117.28328,310.10501c0,0.24298 0,0.31048 -0.14848,0.31048c-0.04049,0 -0.13498,0 -0.14848,-0.10799c-0.027,-0.41846 -0.10799,-1.67382 -1.57933,-1.67382c-1.21487,0 -1.49834,0.62092 -1.49834,1.03939c0,0.80991 0.9854,0.99888 1.39035,1.07988c0.89091,0.16199 1.25537,0.24297 1.74131,0.66143c0.12149,0.12149 0.56694,0.55345 0.56694,1.28236c0,1.06638 -0.70192,1.8493 -2.11927,1.8493c-0.22948,0 -0.9584,0 -1.47135,-0.63443c-0.20248,0.21598 -0.20248,0.24298 -0.26997,0.33746c-0.22948,0.28347 -0.24298,0.29697 -0.31047,0.29697c-0.13498,0 -0.13498,-0.06749 -0.13498,-0.31046v-1.83579c0,-0.24297 0,-0.31048 0.14848,-0.31048c0.0405,0 0.09449,0 0.12148,0.054c0.0135,0.0135 0.0135,0.02699 0.06749,0.26997c0.29697,1.34986 0.9449,1.8628 1.8358,1.8628c1.18788,0 1.52534,-0.64793 1.52534,-1.22837c0,-0.37795 -0.17548,-0.67492 -0.41846,-0.8774c-0.33746,-0.26997 -0.51295,-0.31046 -1.25537,-0.45895c-0.62093,-0.12148 -1.07988,-0.21598 -1.51184,-0.59393c-0.51294,-0.47245 -0.51294,-0.9449 -0.51294,-1.09337c0,-0.74242 0.48595,-1.63332 2.11927,-1.63332c0.43196,0 0.85041,0.08098 1.26886,0.41846c0.09449,-0.12149 0.35096,-0.41846 0.45895,-0.41846c0.13498,0 0.13498,0.06749 0.13498,0.31046z"/><path d="M119.22254,307.35658c-0.15935,0 -0.32809,0 -0.32809,-0.18747c0,-0.18748 0.16874,-0.18748 0.32809,-0.18748h5.07133c0.15935,0 0.32808,0 0.32808,0.18748c0,0.18748 -0.16874,0.18747 -0.32808,0.18747z"/><path d="M128.13623,308.77203c0,0.34683 0.02811,0.44995 0.87178,0.44995h0.29997v0.29059c-0.3281,-0.02812 -1.14363,-0.02812 -1.51859,-0.02812c-0.37496,0 -1.1905,0 -1.51859,0.02812v-0.29059h0.29997c0.84365,0 0.87177,-0.11249 0.87177,-0.44995v-4.85572c-0.48745,0.24372 -1.04051,0.24372 -1.22799,0.24372v-0.29059c0.29997,0 1.12488,0 1.70607,-0.59993c0.2156,0 0.2156,0.01875 0.2156,0.24372z"/></g><g fill="#000000" stroke="none" stroke-width="1"><path d="M142.10495,312.76424c0,0.22948 0,1.48484 0.9179,1.48484c0.52644,0 0.9179,-0.56694 0.9179,-1.53883v-0.74242h0.29697v0.76941c0,0.9719 -0.44545,1.8088 -1.29585,1.8088c-0.71543,0 -1.71432,-0.31046 -1.71432,-1.8088v-3.75259h-1.14738v-0.26997c1.22837,-0.0405 1.71432,-1.33636 1.72781,-2.60522h0.29697v2.48373h1.90329v0.39146h-1.90329z"/><path d="M150.16809,313.16918c0,0.20248 0,0.91789 0.51295,0.91789c0.18897,0 0.51294,-0.10799 0.51294,-0.8774v-0.75593h0.29697v0.75593c0,1.07988 -0.78292,1.26886 -1.06638,1.26886c-0.58044,0 -0.99889,-0.48595 -1.05288,-1.12037c-0.25647,0.64793 -0.8639,1.18787 -1.75481,1.18787c-0.82341,0 -2.06528,-0.33746 -2.06528,-1.40385c0,-1.03939 1.02589,-2.17327 3.7391,-2.21376v-0.53994c0,-1.21486 -0.79642,-1.72781 -1.41734,-1.72781c-0.53994,0 -1.18788,0.24297 -1.49834,0.80991c0.20248,0 0.68843,0 0.68843,0.55345c0,0.32396 -0.22948,0.55343 -0.55345,0.55343c-0.31046,0 -0.56694,-0.18898 -0.56694,-0.58044c0,-0.8774 0.85041,-1.60632 1.95729,-1.60632c0.59393,0 1.20137,0.18897 1.67382,0.62093c0.59393,0.52644 0.59393,1.06638 0.59393,1.79531zM149.29069,311.17139c-0.48595,0.027 -2.7807,0.18899 -2.7807,1.97079c0,0.64793 0.55345,1.13387 1.21487,1.13387c0.58044,0 1.56583,-0.44545 1.56583,-1.76831z"/><path d="M157.54903,313.61465c0.01349,0.40496 0.35096,0.40495 1.02589,0.40495v0.39146c-0.35096,-0.027 -1.07989,-0.027 -1.47135,-0.027c-0.37795,0 -1.10688,0 -1.45784,0.027v-0.39146c0.87742,0 1.02589,0.00001 1.02589,-0.60743v-3.17215c0,-0.82341 -0.18898,-1.51184 -1.02589,-1.51184c-0.83691,0 -1.76831,0.75592 -1.76831,2.17326v2.51073c0,0.60744 0.16199,0.60743 1.02589,0.60743v0.39146c-0.35096,-0.027 -1.07988,-0.027 -1.47134,-0.027c-0.37797,0 -1.10689,0 -1.45785,0.027v-0.39146c0.8774,0 1.02589,0.00001 1.02589,-0.60743v-3.6581c0,-0.66143 -0.10799,-0.75591 -1.02589,-0.75591v-0.39146l1.83581,-0.14849v1.39035h0.0135c0.10799,-0.26997 0.62093,-1.39035 1.93029,-1.39035c0.45895,0 1.09338,0.08098 1.48484,0.60744c0.31048,0.43194 0.31048,0.80991 0.31048,2.06527z"/><path d="M160.03449,307.35658c-0.15935,0 -0.32808,0 -0.32808,-0.18747c0,-0.18748 0.16874,-0.18748 0.32808,-0.18748h5.07133c0.15935,0 0.32808,0 0.32808,0.18748c0,0.18748 -0.16874,0.18747 -0.32808,0.18747z"/><path d="M168.94818,308.77203c0,0.34683 0.02811,0.44995 0.87178,0.44995h0.29997v0.29059c-0.3281,-0.02812 -1.14363,-0.02812 -1.51859,-0.02812c-0.37496,0 -1.1905,0 -1.51859,0.02812v-0.29059h0.29997c0.84365,0 0.87178,-0.11249 0.87178,-0.44995v-4.85572c-0.48745,0.24372 -1.04051,0.24372 -1.22799,0.24372v-0.29059c0.29997,0 1.12488,0 1.70607,-0.59993c0.2156,0 0.2156,0.01875 0.2156,0.24372z"/></g><g fill="#000000" stroke="none" stroke-width="1"><path d="M64.10774,338.68769c-0.67492,0 -1.8223,0.55345 -1.8223,2.7942c0,2.05177 1.09338,2.76719 1.91679,2.76719c0.72892,0 1.45785,-0.40496 1.75481,-1.36335c0.0405,-0.16198 0.054,-0.20247 0.17548,-0.20247c0.0405,0 0.135,-0.00001 0.135,0.12148c0,0.12149 -0.40496,1.74131 -2.18677,1.74131c-1.52534,0 -2.82119,-1.32286 -2.82119,-3.05066c0,-1.70081 1.25536,-3.10465 2.8347,-3.10465c1.09338,0 2.03827,0.64792 2.03827,1.55232c0,0.39146 -0.25646,0.58044 -0.56694,0.58044c-0.32396,0 -0.55344,-0.22948 -0.55344,-0.55345c0,-0.55343 0.49945,-0.55343 0.66143,-0.55343c-0.31046,-0.52644 -1.05288,-0.72893 -1.56583,-0.72893z"/><path d="M71.06711,340.1051c0,0.24298 0,0.31048 -0.14849,0.31048c-0.04049,0 -0.13498,0 -0.14848,-0.10799c-0.027,-0.41846 -0.10799,-1.67382 -1.57933,-1.67382c-1.21487,0 -1.49834,0.62093 -1.49834,1.03939c0,0.80991 0.9854,0.99888 1.39035,1.07988c0.89091,0.16199 1.25537,0.24297 1.74131,0.66143c0.12149,0.12149 0.56694,0.55345 0.56694,1.28236c0,1.06638 -0.70192,1.84929 -2.11927,1.84929c-0.22948,0 -0.9584,0.00001 -1.47135,-0.63443c-0.20248,0.21598 -0.20247,0.24297 -0.26997,0.33746c-0.22948,0.28347 -0.24298,0.29697 -0.31047,0.29697c-0.13498,0 -0.13498,-0.06749 -0.13498,-0.31046v-1.83579c0,-0.24297 0,-0.31048 0.14848,-0.31048c0.04049,0 0.09449,0 0.12148,0.054c0.0135,0.0135 0.0135,0.027 0.06749,0.26997c0.29697,1.34986 0.9449,1.8628 1.8358,1.8628c1.18788,0 1.52534,-0.64793 1.52534,-1.22837c0,-0.37795 -0.17548,-0.67492 -0.41845,-0.8774c-0.33746,-0.26997 -0.51295,-0.31046 -1.25537,-0.45895c-0.62093,-0.12148 -1.07988,-0.21598 -1.51183,-0.59393c-0.51295,-0.47245 -0.51294,-0.9449 -0.51294,-1.09338c0,-0.74242 0.48595,-1.63332 2.11927,-1.63332c0.43196,0 0.85041,0.08098 1.26886,0.41845c0.09449,-0.12149 0.35096,-0.41845 0.45895,-0.41845c0.13498,0 0.13498,0.06749 0.13498,0.31046z"/><path d="M75.15408,338.68769c-0.67492,0 -1.8223,0.55345 -1.8223,2.7942c0,2.05177 1.09338,2.76719 1.91679,2.76719c0.72892,0 1.45785,-0.40496 1.75481,-1.36335c0.0405,-0.16198 0.054,-0.20247 0.17548,-0.20247c0.0405,0 0.135,-0.00001 0.135,0.12148c0,0.12149 -0.40496,1.74131 -2.18677,1.74131c-1.52534,0 -2.82119,-1.32286 -2.82119,-3.05066c0,-1.70081 1.25536,-3.10465 2.8347,-3.10465c1.09338,0 2.03827,0.64792 2.03827,1.55232c0,0.39146 -0.25646,0.58044 -0.56694,0.58044c-0.32396,0 -0.55344,-0.22948 -0.55344,-0.55345c0,-0.55343 0.49945,-0.55343 0.66143,-0.55343c-0.31046,-0.52644 -1.05288,-0.72893 -1.56583,-0.72893z"/><path d="M78.8551,337.35666c-0.15935,0 -0.32808,0 -0.32808,-0.18747c0,-0.18748 0.16874,-0.18748 0.32808,-0.18748h5.07133c0.15935,0 0.32808,0 0.32808,0.18748c0,0.18748 -0.16874,0.18747 -0.32808,0.18747z"/><path d="M87.7688,338.77203c0,0.34684 0.02811,0.44995 0.87178,0.44995h0.29997v0.29059c-0.3281,-0.02812 -1.14363,-0.02812 -1.51859,-0.02812c-0.37496,0 -1.1905,0 -1.51859,0.02812v-0.29059h0.29997c0.84365,0 0.87178,-0.11249 0.87178,-0.44995v-4.85572c-0.48745,0.24373 -1.04051,0.24372 -1.22799,0.24372v-0.29059c0.29997,0 1.12488,0 1.70607,-0.59993c0.2156,0 0.2156,0.01876 0.2156,0.24373z"/></g><g fill="#000000" stroke="none" stroke-width="1"><path d="M105.22811,340.1051c0,0.24298 0,0.31048 -0.14849,0.31048c-0.04049,0 -0.13498,0 -0.14848,-0.10799c-0.027,-0.41846 -0.10799,-1.67382 -1.57933,-1.67382c-1.21487,0 -1.49834,0.62093 -1.49834,1.03939c0,0.80991 0.9854,0.99888 1.39035,1.07988c0.89091,0.16199 1.25537,0.24297 1.74131,0.66143c0.12149,0.12149 0.56694,0.55345 0.56694,1.28236c0,1.06638 -0.70192,1.84929 -2.11927,1.84929c-0.22948,0 -0.9584,0.00001 -1.47135,-0.63443c-0.20248,0.21598 -0.20248,0.24297 -0.26997,0.33746c-0.22948,0.28347 -0.24298,0.29697 -0.31046,0.29697c-0.13498,0 -0.13498,-0.06749 -0.13498,-0.31046v-1.83579c0,-0.24297 0,-0.31048 0.14848,-0.31048c0.04049,0 0.09449,0 0.12148,0.054c0.0135,0.0135 0.0135,0.027 0.06749,0.26997c0.29697,1.34986 0.9449,1.8628 1.8358,1.8628c1.18788,0 1.52534,-0.64793 1.52534,-1.22837c0,-0.37795 -0.17548,-0.67492 -0.41845,-0.8774c-0.33746,-0.26997 -0.51295,-0.31046 -1.25537,-0.45895c-0.62093,-0.12148 -1.07988,-0.21598 -1.51184,-0.59393c-0.51295,-0.47245 -0.51294,-0.9449 -0.51294,-1.09338c0,-0.74242 0.48595,-1.63332 2.11927,-1.63332c0.43196,0 0.85041,0.08098 1.26886,0.41845c0.09449,-0.12149 0.35096,-0.41845 0.45895,-0.41845c0.13498,0 0.13498,0.06749 0.13498,0.31046z"/><path d="M107.42529,341.27946v0.25647c0,2.33525 1.36335,2.7132 1.93029,2.7132c0.56694,0 1.47135,-0.31047 1.82231,-1.44435c0.02699,-0.06749 0.05399,-0.13498 0.16198,-0.13498c0.08099,0 0.14849,0.054 0.14849,0.13498c0,0.28347 -0.60744,1.74131 -2.21376,1.74131c-1.49834,0 -2.8752,-1.30935 -2.8752,-3.09116c0,-1.67382 1.18787,-3.06416 2.72671,-3.06416c1.63333,0 2.36224,1.26886 2.36224,2.6322c0,0.25647 -0.02699,0.25647 -0.32396,0.25647zM110.65145,341.02293c-0.0135,-0.45895 -0.09449,-2.36224 -1.53884,-2.36224c-0.37795,0 -1.56583,0.24298 -1.67382,2.36224z"/><path d="M115.16758,338.68769c-0.67492,0 -1.8223,0.55345 -1.8223,2.7942c0,2.05177 1.09338,2.76719 1.91679,2.76719c0.72892,0 1.45785,-0.40496 1.75481,-1.36335c0.0405,-0.16198 0.054,-0.20247 0.17548,-0.20247c0.0405,0 0.135,-0.00001 0.135,0.12148c0,0.12149 -0.40496,1.74131 -2.18677,1.74131c-1.52534,0 -2.82119,-1.32286 -2.82119,-3.05066c0,-1.70081 1.25536,-3.10465 2.8347,-3.10465c1.09338,0 2.03827,0.64792 2.03827,1.55232c0,0.39146 -0.25646,0.58044 -0.56694,0.58044c-0.32396,0 -0.55344,-0.22948 -0.55344,-0.55345c0,-0.55343 0.49945,-0.55343 0.66143,-0.55343c-0.31046,-0.52644 -1.05288,-0.72893 -1.56583,-0.72893z"/><path d="M118.8686,337.35666c-0.15935,0 -0.32808,0 -0.32808,-0.18747c0,-0.18748 0.16874,-0.18748 0.32808,-0.18748h5.07133c0.15935,0 0.32808,0 0.32808,0.18748c0,0.18748 -0.16874,0.18747 -0.32808,0.18747z"/><path d="M127.7823,338.77203c0,0.34684 0.02811,0.44995 0.87178,0.44995h0.29998v0.29059c-0.3281,-0.02812 -1.14363,-0.02812 -1.51859,-0.02812c-0.37496,0 -1.1905,0 -1.51859,0.02812v-0.29059h0.29997c0.84365,0 0.87178,-0.11249 0.87178,-0.44995v-4.85572c-0.48745,0.24373 -1.04051,0.24372 -1.22799,0.24372v-0.29059c0.29997,0 1.12488,0 1.70607,-0.59993c0.2156,0 0.2156,0.01876 0.2156,0.24373z"/></g><g fill="#000000" stroke="none" stroke-width="1"><path d="M143.77747,338.68769c-0.67492,0 -1.8223,0.55345 -1.8223,2.7942c0,2.05177 1.09338,2.76719 1.91679,2.76719c0.72892,0 1.45785,-0.40496 1.75481,-1.36335c0.0405,-0.16198 0.054,-0.20247 0.17548,-0.20247c0.0405,0 0.135,-0.00001 0.135,0.12148c0,0.12149 -0.40496,1.74131 -2.18677,1.74131c-1.52534,0 -2.82119,-1.32286 -2.82119,-3.05066c0,-1.70081 1.25536,-3.10465 2.8347,-3.10465c1.09338,0 2.03827,0.64792 2.03827,1.55232c0,0.39146 -0.25646,0.58044 -0.56694,0.58044c-0.32396,0 -0.55344,-0.22948 -0.55344,-0.55345c0,-0.55343 0.49945,-0.55343 0.66143,-0.55343c-0.31046,-0.52644 -1.05288,-0.72893 -1.56583,-0.72893z"/><path d="M149.60297,344.54612c-1.53883,0 -2.88869,-1.29585 -2.88869,-3.02367c0,-1.70081 1.28235,-3.13165 2.90219,-3.13165c1.56583,0 2.88869,1.39034 2.88869,3.13165c0,1.70081 -1.30936,3.02367 -2.90218,3.02367zM151.12831,343.34478c0.35096,-0.63443 0.35096,-1.47133 0.35096,-1.94378c0,-0.49945 0,-1.34986 -0.41846,-1.97079c-0.36447,-0.52644 -0.9314,-0.76942 -1.45784,-0.76942c-0.47245,0 -1.06639,0.21598 -1.44434,0.79642c-0.41846,0.60742 -0.41845,1.43083 -0.41845,1.94379c0,0.56693 0.01349,1.36334 0.37795,1.97078c0.39146,0.66143 0.99889,0.8774 1.49834,0.8774c0.51294,0 1.13388,-0.25647 1.51183,-0.9044z"/><path d="M155.16067,342.76424c0,0.22948 0,1.48484 0.9179,1.48484c0.52644,0 0.9179,-0.56694 0.9179,-1.53883v-0.74242h0.29697v0.76942c0,0.9719 -0.44545,1.8088 -1.29586,1.8088c-0.71543,0 -1.71432,-0.31046 -1.71432,-1.8088v-3.75259h-1.14738v-0.26997c1.22837,-0.0405 1.71432,-1.33636 1.72781,-2.60521h0.29697v2.48372h1.9033v0.39146h-1.9033z"/><path d="M159.18536,337.35666c-0.15935,0 -0.32808,0 -0.32808,-0.18747c0,-0.18748 0.16874,-0.18748 0.32808,-0.18748h5.07133c0.15935,0 0.32808,0 0.32808,0.18748c0,0.18748 -0.16874,0.18747 -0.32808,0.18747z"/><path d="M168.09906,338.77203c0,0.34684 0.02811,0.44995 0.87178,0.44995h0.29997v0.29059c-0.3281,-0.02812 -1.14363,-0.02812 -1.51859,-0.02812c-0.37496,0 -1.1905,0 -1.51859,0.02812v-0.29059h0.29997c0.84365,0 0.87178,-0.11249 0.87178,-0.44995v-4.85572c-0.48745,0.24373 -1.04051,0.24372 -1.22799,0.24372v-0.29059c0.29997,0 1.12488,0 1.70607,-0.59993c0.2156,0 0.2156,0.01876 0.2156,0.24373z"/></g><g fill="#000000" stroke="none" stroke-width="1"><path d="M71.36265,250.3559c0,0.24298 0,0.31048 -0.14849,0.31048c-0.04048,0 -0.13498,0 -0.14848,-0.10799c-0.027,-0.41846 -0.10799,-1.67382 -1.57934,-1.67382c-1.21487,0 -1.49834,0.62092 -1.49834,1.03939c0,0.80991 0.9854,0.99888 1.39035,1.07988c0.89091,0.16199 1.25537,0.24298 1.74131,0.66143c0.12149,0.12149 0.56694,0.55345 0.56694,1.28236c0,1.06639 -0.70192,1.8493 -2.11927,1.8493c-0.22948,0 -0.9584,0 -1.47135,-0.63443c-0.20247,0.21598 -0.20247,0.24298 -0.26997,0.33746c-0.22948,0.28347 -0.24298,0.29697 -0.31047,0.29697c-0.13499,0 -0.13498,-0.06749 -0.13498,-0.31046v-1.83579c0,-0.24298 -0.00001,-0.31048 0.14848,-0.31048c0.04049,0 0.09449,0 0.12149,0.054c0.0135,0.0135 0.0135,0.02699 0.06749,0.26997c0.29697,1.34986 0.94489,1.8628 1.8358,1.8628c1.18788,0 1.52534,-0.64793 1.52534,-1.22836c0,-0.37795 -0.17548,-0.67492 -0.41845,-0.8774c-0.33746,-0.26997 -0.51295,-0.31046 -1.25537,-0.45895c-0.62093,-0.12148 -1.07988,-0.21598 -1.51183,-0.59393c-0.51294,-0.47245 -0.51294,-0.9449 -0.51294,-1.09337c0,-0.74242 0.48595,-1.63332 2.11927,-1.63332c0.43196,0 0.85041,0.08099 1.26886,0.41846c0.09449,-0.12149 0.35096,-0.41846 0.45895,-0.41846c0.13498,0 0.13498,0.06749 0.13498,0.31046z"/><path d="M73.81639,246.99477c-0.32396,0 -0.64792,-0.25647 -0.64792,-0.66143c0,-0.36447 0.29696,-0.64793 0.64792,-0.64793c0.37797,0 0.66144,0.31046 0.66144,0.66143c0,0.29697 -0.24297,0.64793 -0.66144,0.64793zM74.45083,248.70906v4.96746c0,0.52644 0.05399,0.59393 0.93139,0.59393v0.39146c-0.45895,-0.027 -1.24186,-0.027 -1.39034,-0.027c-0.39146,0 -1.03939,0 -1.41735,0.027v-0.39146c0.87741,0 1.02589,0 1.02589,-0.60744v-3.6716c0,-0.66143 -0.12149,-0.74242 -0.9854,-0.74242v-0.39146z"/><path d="M81.79364,253.86549c0.01349,0.40496 0.35096,0.40496 1.02589,0.40496v0.39146c-0.35096,-0.027 -1.07988,-0.027 -1.47134,-0.027c-0.37796,0 -1.10688,0 -1.45784,0.027v-0.39146c0.87741,0 1.02589,0 1.02589,-0.60744v-3.17215c0,-0.82341 -0.18898,-1.51184 -1.02589,-1.51184c-0.83691,0 -1.76831,0.75592 -1.76831,2.17326v2.51073c0,0.60744 0.16199,0.60744 1.02589,0.60744v0.39146c-0.35096,-0.027 -1.07988,-0.027 -1.47134,-0.027c-0.37797,0 -1.10688,0 -1.45784,0.027v-0.39146c0.8774,0 1.02589,0 1.02589,-0.60744v-3.6581c0,-0.66143 -0.10799,-0.75591 -1.02589,-0.75591v-0.39146l1.8358,-0.14849v1.39035h0.0135c0.10799,-0.26998 0.62093,-1.39035 1.93029,-1.39035c0.45895,0 1.09338,0.08098 1.48484,0.60744c0.31047,0.43194 0.31048,0.80991 0.31048,2.06527z"/></g><g fill="#000000" stroke="none" stroke-width="1"><path d="M109.59059,248.79376c-0.67492,0 -1.8223,0.55345 -1.8223,2.7942c0,2.05177 1.09338,2.76719 1.91679,2.76719c0.72892,0 1.45784,-0.40496 1.7548,-1.36335c0.0405,-0.16198 0.054,-0.20248 0.17548,-0.20248c0.0405,0 0.13499,-0.00001 0.13499,0.12148c0,0.12149 -0.40496,1.74131 -2.18677,1.74131c-1.52534,0 -2.8212,-1.32286 -2.8212,-3.05067c0,-1.70081 1.25536,-3.10466 2.8347,-3.10466c1.09338,0 2.03827,0.64793 2.03827,1.55233c0,0.39146 -0.25647,0.58044 -0.56694,0.58044c-0.32396,0 -0.55343,-0.22948 -0.55343,-0.55345c0,-0.55343 0.49944,-0.55344 0.66142,-0.55344c-0.31046,-0.52644 -1.05288,-0.72892 -1.56583,-0.72892z"/><path d="M115.4159,254.65212c-1.53883,0 -2.88869,-1.29585 -2.88869,-3.02367c0,-1.70081 1.28236,-3.13165 2.90219,-3.13165c1.56583,0 2.88869,1.39034 2.88869,3.13165c0,1.70081 -1.30936,3.02367 -2.90219,3.02367zM116.94123,253.45078c0.35096,-0.63443 0.35096,-1.47133 0.35096,-1.94379c0,-0.49944 0,-1.34986 -0.41846,-1.97079c-0.36446,-0.52644 -0.93141,-0.76941 -1.45784,-0.76941c-0.47245,0 -1.06638,0.21597 -1.44434,0.79642c-0.41846,0.60743 -0.41845,1.43084 -0.41845,1.94379c0,0.56694 0.01349,1.36335 0.37795,1.97078c0.39146,0.66143 0.99889,0.8774 1.49834,0.8774c0.51294,0 1.13388,-0.25647 1.51184,-0.9044z"/><path d="M123.13374,250.21111c0,0.24298 0,0.31048 -0.14848,0.31048c-0.04048,0 -0.13498,0 -0.14848,-0.10799c-0.027,-0.41846 -0.10799,-1.67382 -1.57934,-1.67382c-1.21487,0 -1.49834,0.62092 -1.49834,1.03939c0,0.80991 0.9854,0.99888 1.39035,1.07988c0.89091,0.16199 1.25537,0.24298 1.74131,0.66143c0.12149,0.12149 0.56694,0.55345 0.56694,1.28236c0,1.06639 -0.70192,1.8493 -2.11927,1.8493c-0.22948,0 -0.9584,0 -1.47135,-0.63443c-0.20247,0.21598 -0.20247,0.24298 -0.26997,0.33746c-0.22948,0.28347 -0.24298,0.29697 -0.31047,0.29697c-0.13498,0 -0.13498,-0.06749 -0.13498,-0.31046v-1.83579c0,-0.24298 -0.00001,-0.31048 0.14848,-0.31048c0.04049,0 0.09449,0 0.12148,0.054c0.0135,0.0135 0.0135,0.02699 0.06749,0.26997c0.29697,1.34986 0.94489,1.8628 1.8358,1.8628c1.18787,0 1.52534,-0.64793 1.52534,-1.22836c0,-0.37795 -0.17548,-0.67492 -0.41846,-0.8774c-0.33746,-0.26997 -0.51295,-0.31046 -1.25537,-0.45895c-0.62093,-0.12148 -1.07988,-0.21598 -1.51183,-0.59393c-0.51294,-0.47245 -0.51294,-0.9449 -0.51294,-1.09337c0,-0.74242 0.48595,-1.63332 2.11927,-1.63332c0.43196,0 0.85041,0.08099 1.26886,0.41846c0.09449,-0.12149 0.35096,-0.41846 0.45895,-0.41846c0.13498,0 0.13498,0.06749 0.13498,0.31046z"/></g><g fill="#000000" stroke="none" stroke-width="1"><path d="M147.87755,253.01098c0,0.22948 0,1.48484 0.9179,1.48484c0.52644,0 0.9179,-0.56694 0.9179,-1.53883v-0.74241h0.29697v0.76941c0,0.9719 -0.44545,1.8088 -1.29585,1.8088c-0.71542,0 -1.71432,-0.31046 -1.71432,-1.8088v-3.75259h-1.14738v-0.26997c1.22837,-0.0405 1.71432,-1.33636 1.72781,-2.60522h0.29697v2.48373h1.9033v0.39146h-1.9033z"/><path d="M155.94107,253.4159c0,0.20248 0,0.91789 0.51295,0.91789c0.18897,0 0.51294,-0.10799 0.51294,-0.8774v-0.75593h0.29697v0.75593c0,1.07988 -0.78292,1.26886 -1.06638,1.26886c-0.58044,0 -0.99889,-0.48595 -1.05288,-1.12037c-0.25647,0.64793 -0.86391,1.18787 -1.75481,1.18787c-0.82341,0 -2.06528,-0.33746 -2.06528,-1.40384c0,-1.03939 1.02589,-2.17327 3.7391,-2.21377v-0.53994c0,-1.21486 -0.79642,-1.72781 -1.41735,-1.72781c-0.53995,0 -1.18787,0.24297 -1.49834,0.80991c0.20247,0 0.68843,0 0.68843,0.55345c0,0.32397 -0.22948,0.55343 -0.55345,0.55343c-0.31046,0 -0.56694,-0.18898 -0.56694,-0.58044c0,-0.8774 0.85041,-1.60632 1.95729,-1.60632c0.59393,0 1.20137,0.18897 1.67383,0.62093c0.59393,0.52644 0.59393,1.06638 0.59393,1.79531zM155.06366,251.41813c-0.48595,0.027 -2.78071,0.18899 -2.78071,1.97079c0,0.64793 0.55345,1.13387 1.21487,1.13387c0.58044,0 1.56583,-0.44545 1.56583,-1.7683z"/><path d="M163.32144,253.86137c0.01349,0.40496 0.35096,0.40496 1.02589,0.40496v0.39146c-0.35096,-0.027 -1.07989,-0.027 -1.47135,-0.027c-0.37796,0 -1.10688,0 -1.45784,0.027v-0.39146c0.87741,0 1.02589,0 1.02589,-0.60744v-3.17215c0,-0.82341 -0.18898,-1.51184 -1.02589,-1.51184c-0.83691,0 -1.76831,0.75592 -1.76831,2.17326v2.51073c0,0.60744 0.16198,0.60744 1.02589,0.60744v0.39146c-0.35096,-0.027 -1.07988,-0.027 -1.47133,-0.027c-0.37797,0 -1.10689,0 -1.45785,0.027v-0.39146c0.8774,0 1.02589,0 1.02589,-0.60744v-3.6581c0,-0.66143 -0.10799,-0.75591 -1.02589,-0.75591v-0.39146l1.83581,-0.14849v1.39035h0.0135c0.10799,-0.26998 0.62092,-1.39035 1.93029,-1.39035c0.45895,0 1.09338,0.08098 1.48484,0.60744c0.31048,0.43194 0.31047,0.80991 0.31047,2.06527z"/></g><g fill="#000000" stroke="none" stroke-width="1"><path d="M69.92109,279.12708c-0.67492,0 -1.8223,0.55345 -1.8223,2.7942c0,2.05177 1.09338,2.76719 1.91679,2.76719c0.72892,0 1.45784,-0.40496 1.75481,-1.36335c0.0405,-0.16198 0.054,-0.20248 0.17548,-0.20248c0.0405,0 0.135,-0.00001 0.135,0.12148c0,0.12149 -0.40496,1.74131 -2.18677,1.74131c-1.52534,0 -2.82119,-1.32286 -2.82119,-3.05067c0,-1.70081 1.25536,-3.10466 2.8347,-3.10466c1.09338,0 2.03827,0.64793 2.03827,1.55233c0,0.39146 -0.25646,0.58044 -0.56694,0.58044c-0.32396,0 -0.55343,-0.22948 -0.55343,-0.55345c0,-0.55343 0.49945,-0.55344 0.66143,-0.55344c-0.31046,-0.52644 -1.05288,-0.72892 -1.56583,-0.72892z"/><path d="M76.88046,280.54444c0,0.24298 0,0.31048 -0.14849,0.31048c-0.04049,0 -0.13498,0 -0.14848,-0.10799c-0.027,-0.41846 -0.10799,-1.67382 -1.57933,-1.67382c-1.21487,0 -1.49834,0.62092 -1.49834,1.03939c0,0.80991 0.9854,0.99888 1.39035,1.07988c0.89091,0.16199 1.25537,0.24298 1.74131,0.66143c0.12149,0.12149 0.56694,0.55345 0.56694,1.28236c0,1.06639 -0.70192,1.8493 -2.11927,1.8493c-0.22948,0 -0.9584,0 -1.47135,-0.63443c-0.20247,0.21598 -0.20248,0.24298 -0.26997,0.33746c-0.22948,0.28347 -0.24297,0.29697 -0.31046,0.29697c-0.13498,0 -0.13499,-0.06749 -0.13499,-0.31046v-1.83579c0,-0.24298 0,-0.31048 0.14849,-0.31048c0.04049,0 0.09449,0 0.12148,0.054c0.0135,0.0135 0.0135,0.02699 0.06749,0.26997c0.29697,1.34986 0.94489,1.8628 1.8358,1.8628c1.18787,0 1.52534,-0.64793 1.52534,-1.22836c0,-0.37795 -0.17548,-0.67492 -0.41846,-0.8774c-0.33746,-0.26997 -0.51295,-0.31046 -1.25537,-0.45895c-0.62093,-0.12148 -1.07988,-0.21598 -1.51183,-0.59393c-0.51294,-0.47245 -0.51294,-0.9449 -0.51294,-1.09337c0,-0.74242 0.48595,-1.63332 2.11927,-1.63332c0.43196,0 0.85041,0.08099 1.26886,0.41846c0.09449,-0.12149 0.35096,-0.41846 0.45895,-0.41846c0.13498,0 0.13498,0.06749 0.13498,0.31046z"/><path d="M80.96743,279.12708c-0.67492,0 -1.8223,0.55345 -1.8223,2.7942c0,2.05177 1.09338,2.76719 1.91679,2.76719c0.72892,0 1.45784,-0.40496 1.7548,-1.36335c0.0405,-0.16198 0.054,-0.20248 0.17548,-0.20248c0.0405,0 0.13499,-0.00001 0.13499,0.12148c0,0.12149 -0.40496,1.74131 -2.18677,1.74131c-1.52534,0 -2.8212,-1.32286 -2.8212,-3.05067c0,-1.70081 1.25536,-3.10466 2.8347,-3.10466c1.09338,0 2.03827,0.64793 2.03827,1.55233c0,0.39146 -0.25646,0.58044 -0.56694,0.58044c-0.32397,0 -0.55343,-0.22948 -0.55343,-0.55345c0,-0.55343 0.49944,-0.55344 0.66142,-0.55344c-0.31046,-0.52644 -1.05288,-0.72892 -1.56583,-0.72892z"/></g><g fill="#000000" stroke="none" stroke-width="1"><path d="M111.04147,280.54444c0,0.24298 0,0.31048 -0.14849,0.31048c-0.04049,0 -0.13498,0 -0.14848,-0.10799c-0.027,-0.41846 -0.10799,-1.67382 -1.57933,-1.67382c-1.21487,0 -1.49834,0.62092 -1.49834,1.03939c0,0.80991 0.9854,0.99888 1.39035,1.07988c0.89091,0.16199 1.25536,0.24298 1.74131,0.66143c0.12149,0.12149 0.56694,0.55345 0.56694,1.28236c0,1.06639 -0.70192,1.8493 -2.11927,1.8493c-0.22948,0 -0.9584,0 -1.47135,-0.63443c-0.20248,0.21598 -0.20247,0.24298 -0.26997,0.33746c-0.22948,0.28347 -0.24298,0.29697 -0.31047,0.29697c-0.13498,0 -0.13498,-0.06749 -0.13498,-0.31046v-1.83579c0,-0.24298 0,-0.31048 0.14849,-0.31048c0.0405,0 0.09449,0 0.12148,0.054c0.0135,0.0135 0.0135,0.02699 0.06749,0.26997c0.29697,1.34986 0.9449,1.8628 1.8358,1.8628c1.18788,0 1.52533,-0.64793 1.52533,-1.22836c0,-0.37795 -0.17547,-0.67492 -0.41845,-0.8774c-0.33746,-0.26997 -0.51295,-0.31046 -1.25537,-0.45895c-0.62093,-0.12148 -1.07988,-0.21598 -1.51184,-0.59393c-0.51294,-0.47245 -0.51294,-0.9449 -0.51294,-1.09337c0,-0.74242 0.48595,-1.63332 2.11927,-1.63332c0.43196,0 0.85041,0.08099 1.26886,0.41846c0.09449,-0.12149 0.35096,-0.41846 0.45895,-0.41846c0.13498,0 0.13498,0.06749 0.13498,0.31046z"/><path d="M113.23865,281.7188v0.25647c0,2.33525 1.36335,2.7132 1.93029,2.7132c0.56694,0 1.47135,-0.31046 1.82231,-1.44434c0.027,-0.06749 0.05399,-0.13498 0.16198,-0.13498c0.08099,0 0.14849,0.054 0.14849,0.13498c0,0.28347 -0.60744,1.74131 -2.21376,1.74131c-1.49834,0 -2.87519,-1.30936 -2.87519,-3.09116c0,-1.67382 1.18787,-3.06416 2.72671,-3.06416c1.63333,0 2.36224,1.26886 2.36224,2.6322c0,0.25647 -0.02699,0.25647 -0.32396,0.25647zM116.4648,281.46232c-0.0135,-0.45895 -0.0945,-2.36224 -1.53884,-2.36224c-0.37795,0 -1.56583,0.24297 -1.67382,2.36224z"/><path d="M120.98093,279.12708c-0.67492,0 -1.8223,0.55345 -1.8223,2.7942c0,2.05177 1.09338,2.76719 1.91679,2.76719c0.72892,0 1.45785,-0.40496 1.75481,-1.36335c0.0405,-0.16198 0.054,-0.20248 0.17548,-0.20248c0.0405,0 0.13499,-0.00001 0.13499,0.12148c0,0.12149 -0.40496,1.74131 -2.18677,1.74131c-1.52534,0 -2.82119,-1.32286 -2.82119,-3.05067c0,-1.70081 1.25536,-3.10466 2.8347,-3.10466c1.09338,0 2.03828,0.64793 2.03828,1.55233c0,0.39146 -0.25647,0.58044 -0.56694,0.58044c-0.32397,0 -0.55343,-0.22948 -0.55343,-0.55345c0,-0.55343 0.49944,-0.55344 0.66143,-0.55344c-0.31046,-0.52644 -1.05288,-0.72892 -1.56583,-0.72892z"/></g><g fill="#000000" stroke="none" stroke-width="1"><path d="M149.76617,278.93439c-0.67492,0 -1.8223,0.55345 -1.8223,2.7942c0,2.05177 1.09338,2.76719 1.91679,2.76719c0.72892,0 1.45785,-0.40496 1.75481,-1.36335c0.0405,-0.16198 0.054,-0.20248 0.17548,-0.20248c0.0405,0 0.13499,-0.00001 0.13499,0.12148c0,0.12149 -0.40496,1.74131 -2.18677,1.74131c-1.52534,0 -2.8212,-1.32286 -2.8212,-3.05067c0,-1.70081 1.25536,-3.10466 2.8347,-3.10466c1.09338,0 2.03827,0.64793 2.03827,1.55233c0,0.39146 -0.25646,0.58044 -0.56694,0.58044c-0.32397,0 -0.55343,-0.22948 -0.55343,-0.55345c0,-0.55343 0.49944,-0.55344 0.66143,-0.55344c-0.31046,-0.52644 -1.05288,-0.72892 -1.56583,-0.72892z"/><path d="M155.59166,284.79274c-1.53883,0 -2.88869,-1.29585 -2.88869,-3.02367c0,-1.70081 1.28235,-3.13165 2.90219,-3.13165c1.56583,0 2.88869,1.39034 2.88869,3.13165c0,1.70081 -1.30936,3.02367 -2.90218,3.02367zM157.117,283.59137c0.35096,-0.63443 0.35096,-1.47133 0.35096,-1.94379c0,-0.49944 0,-1.34986 -0.41846,-1.97079c-0.36447,-0.52644 -0.93141,-0.76941 -1.45784,-0.76941c-0.47245,0 -1.06639,0.21597 -1.44434,0.79642c-0.41845,0.60743 -0.41845,1.43084 -0.41845,1.94379c0,0.56694 0.01349,1.36335 0.37795,1.97078c0.39146,0.66143 0.99889,0.8774 1.49834,0.8774c0.51294,0 1.13388,-0.25647 1.51184,-0.9044z"/><path d="M161.14935,283.0109c0,0.22948 0,1.48484 0.9179,1.48484c0.52644,0 0.9179,-0.56694 0.9179,-1.53883v-0.74241h0.29697v0.76941c0,0.9719 -0.44545,1.8088 -1.29586,1.8088c-0.71542,0 -1.71432,-0.31046 -1.71432,-1.8088v-3.75259h-1.14738v-0.26997c1.22837,-0.0405 1.71432,-1.33636 1.72782,-2.60522h0.29697v2.48373h1.9033v0.39146h-1.9033z"/></g></g><g><path d="M221.55746,263.0272c-6.7336,0 -28.27729,0 -32.63067,0c-1.51414,0 -2.51026,-0.95831 -2.51026,-2.4908c0,-5.38467 0,-17.85811 0,-20.75669c0,-1.17748 0.83864,-2.32476 2.27173,-2.32476c4.30441,0 26.35938,0 32.92602,0c1.18062,0 2.16929,0.87327 2.16929,1.82658c0,2.7465 0,16.26468 0,21.58696c0,1.33855 -0.9369,2.1587 -2.22611,2.1587z" data-paper-data="{&quot;index&quot;:null}" fill-opacity="0.91765" fill="#fff6d1" stroke="#d0d0d0" stroke-width="0.5"/><path d="M261.55746,263.0272c-6.7336,0 -28.27729,0 -32.63067,0c-1.51414,0 -2.51026,-0.95831 -2.51026,-2.4908c0,-5.38467 0,-17.85811 0,-20.75669c0,-1.17748 0.83864,-2.32476 2.27173,-2.32476c4.30441,0 26.35938,0 32.92602,0c1.18062,0 2.16929,0.87327 2.16929,1.82658c0,2.7465 0,16.26468 0,21.58696c0,1.33855 -0.9369,2.1587 -2.22611,2.1587z" data-paper-data="{&quot;index&quot;:null}" fill-opacity="0.91765" fill="#fff6d1" stroke="#d0d0d0" stroke-width="0.5"/><path d="M301.55746,263.0272c-6.7336,0 -28.27729,0 -32.63067,0c-1.51414,0 -2.51026,-0.95831 -2.51026,-2.4908c0,-5.38467 0,-17.85811 0,-20.75669c0,-1.17748 0.83864,-2.32476 2.27173,-2.32476c4.30441,0 26.35938,0 32.92602,0c1.18062,0 2.16929,0.87327 2.16929,1.82658c0,2.7465 0,16.26468 0,21.58696c0,1.33855 -0.9369,2.1587 -2.22611,2.1587z" data-paper-data="{&quot;index&quot;:null}" fill-opacity="0.91765" fill="#fff6d1" stroke="#d0d0d0" stroke-width="0.5"/><path d="M221.55746,293.0272c-6.7336,0 -28.27729,0 -32.63067,0c-1.51414,0 -2.51026,-0.95831 -2.51026,-2.4908c0,-5.38467 0,-17.85811 0,-20.75669c0,-1.17748 0.83864,-2.32476 2.27173,-2.32476c4.30441,0 26.35938,0 32.92602,0c1.18062,0 2.16929,0.87327 2.16929,1.82658c0,2.7465 0,16.26468 0,21.58696c0,1.33855 -0.9369,2.1587 -2.22611,2.1587z" data-paper-data="{&quot;index&quot;:null}" fill-opacity="0.91765" fill="#fff6d1" stroke="#d0d0d0" stroke-width="0.5"/><path d="M261.55746,293.0272c-6.7336,0 -28.27729,0 -32.63067,0c-1.51414,0 -2.51026,-0.95831 -2.51026,-2.4908c0,-5.38467 0,-17.85811 0,-20.75669c0,-1.17748 0.83864,-2.32476 2.27173,-2.32476c4.30441,0 26.35938,0 32.92602,0c1.18062,0 2.16929,0.87327 2.16929,1.82658c0,2.7465 0,16.26468 0,21.58696c0,1.33855 -0.9369,2.1587 -2.22611,2.1587z" data-paper-data="{&quot;index&quot;:null}" fill-opacity="0.91765" fill="#fff6d1" stroke="#d0d0d0" stroke-width="0.5"/><path d="M301.55746,293.0272c-6.7336,0 -28.27729,0 -32.63067,0c-1.51414,0 -2.51026,-0.95831 -2.51026,-2.4908c0,-5.38467 0,-17.85811 0,-20.75669c0,-1.17748 0.83864,-2.32476 2.27173,-2.32476c4.30441,0 26.35938,0 32.92602,0c1.18062,0 2.16929,0.87327 2.16929,1.82658c0,2.7465 0,16.26468 0,21.58696c0,1.33855 -0.9369,2.1587 -2.22611,2.1587z" data-paper-data="{&quot;index&quot;:null}" fill-opacity="0.91765" fill="#fff6d1" stroke="#d0d0d0" stroke-width="0.5"/><path d="M221.55746,323.0272c-6.7336,0 -28.27729,0 -32.63067,0c-1.51414,0 -2.51026,-0.95831 -2.51026,-2.4908c0,-5.38467 0,-17.85811 0,-20.75669c0,-1.17748 0.83864,-2.32476 2.27173,-2.32476c4.30441,0 26.35938,0 32.92602,0c1.18062,0 2.16929,0.87327 2.16929,1.82658c0,2.7465 0,16.26468 0,21.58696c0,1.33855 -0.9369,2.1587 -2.22611,2.1587z" data-paper-data="{&quot;index&quot;:null}" fill-opacity="0.91765" fill="#fff6d1" stroke="#d0d0d0" stroke-width="0.5"/><path d="M261.55746,323.0272c-6.7336,0 -28.27729,0 -32.63067,0c-1.51414,0 -2.51026,-0.95831 -2.51026,-2.4908c0,-5.38467 0,-17.85811 0,-20.75669c0,-1.17748 0.83864,-2.32476 2.27173,-2.32476c4.30441,0 26.35938,0 32.92602,0c1.18062,0 2.16929,0.87327 2.16929,1.82658c0,2.7465 0,16.26468 0,21.58696c0,1.33855 -0.9369,2.1587 -2.22611,2.1587z" data-paper-data="{&quot;index&quot;:null}" fill-opacity="0.91765" fill="#fff6d1" stroke="#d0d0d0" stroke-width="0.5"/><path d="M301.55746,323.0272c-6.7336,0 -28.27729,0 -32.63067,0c-1.51414,0 -2.51026,-0.95831 -2.51026,-2.4908c0,-5.38467 0,-17.85811 0,-20.75669c0,-1.17748 0.83864,-2.32476 2.27173,-2.32476c4.30441,0 26.35938,0 32.92602,0c1.18062,0 2.16929,0.87327 2.16929,1.82658c0,2.7465 0,16.26468 0,21.58696c0,1.33855 -0.9369,2.1587 -2.22611,2.1587z" data-paper-data="{&quot;index&quot;:null}" fill-opacity="0.91765" fill="#fff6d1" stroke="#d0d0d0" stroke-width="0.5"/><path d="M221.55746,353.02729c-6.7336,0 -28.27729,0 -32.63067,0c-1.51414,0 -2.51026,-0.95831 -2.51026,-2.4908c0,-5.38467 0,-17.85811 0,-20.75669c0,-1.17748 0.83864,-2.32476 2.27173,-2.32476c4.30441,0 26.35938,0 32.92602,0c1.18062,0 2.16929,0.87327 2.16929,1.82658c0,2.7465 0,16.26468 0,21.58696c0,1.33855 -0.9369,2.1587 -2.22611,2.1587z" data-paper-data="{&quot;index&quot;:null}" fill-opacity="0.91765" fill="#fff6d1" stroke="#d0d0d0" stroke-width="0.5"/><path d="M261.55746,353.02729c-6.7336,0 -28.27729,0 -32.63067,0c-1.51414,0 -2.51026,-0.95831 -2.51026,-2.4908c0,-5.38467 0,-17.85811 0,-20.75669c0,-1.17748 0.83864,-2.32476 2.27173,-2.32476c4.30441,0 26.35938,0 32.92602,0c1.18062,0 2.16929,0.87327 2.16929,1.82658c0,2.7465 0,16.26468 0,21.58696c0,1.33855 -0.9369,2.1587 -2.22611,2.1587z" data-paper-data="{&quot;index&quot;:null}" fill-opacity="0.91765" fill="#fff6d1" stroke="#d0d0d0" stroke-width="0.5"/><path d="M301.55746,353.02729c-6.7336,0 -28.27729,0 -32.63067,0c-1.51414,0 -2.51026,-0.95831 -2.51026,-2.4908c0,-5.38467 0,-17.85811 0,-20.75669c0,-1.17748 0.83864,-2.32476 2.27173,-2.32476c4.30441,0 26.35938,0 32.92602,0c1.18062,0 2.16929,0.87327 2.16929,1.82658c0,2.7465 0,16.26468 0,21.58696c0,1.33855 -0.9369,2.1587 -2.22611,2.1587z" data-paper-data="{&quot;index&quot;:null}" fill-opacity="0.91765" fill="#fff6d1" stroke="#d0d0d0" stroke-width="0.5"/><path d="M208.66172,278.65887h-0.29624c-0.18853,-1.8852 -0.53863,-2.61234 -2.3969,-2.61234h-1.44083c-0.59249,0 -0.61942,0.09426 -0.61942,0.53863v7.20413c0,0.48477 0.02694,0.64636 1.19846,0.64636h0.40397v0.39051c-0.39051,-0.02693 -1.57548,-0.02693 -2.04679,-0.02693c-0.40398,0 -1.60241,0 -1.92559,0.02693v-0.39051h0.26931c0.96952,0 1.00993,-0.13466 1.00993,-0.63288v-7.12335c0,-0.49823 -0.0404,-0.63288 -1.00993,-0.63288h-0.26931v-0.39051h6.77325z" fill="#000000" stroke="none" stroke-width="1"/><path d="M245.44342,283.32471c0.49823,0.16159 1.27924,0.4309 1.27924,1.3735c0,0.70021 -0.59249,1.60241 -1.45429,1.60241c-0.67328,0 -1.25231,-0.51169 -1.25231,-0.64635c0,-0.02694 0.02694,-0.13466 0.13466,-0.13466c0.06733,0 0.09426,0.02694 0.14812,0.0808c0.33665,0.33665 0.70022,0.4309 0.96954,0.4309c0.49823,0 0.78101,-0.52516 0.78101,-0.91566c0,-0.64635 -0.52516,-0.82141 -1.07726,-1.00993c-0.17505,-0.06732 -0.60595,-0.21545 -0.78101,-0.26932c-0.70021,-0.24238 -1.92559,-0.67328 -1.92559,-2.51808c0,-2.51808 1.96599,-5.03617 3.52801,-5.8441c-0.16159,-0.28278 -0.16159,-0.56556 -0.16159,-0.68674c0,-0.10773 0,-0.60596 0.21545,-0.60596c0.06733,0 0.13466,0.05386 0.13466,0.13466c0,0.0404 -0.05386,0.22892 -0.05386,0.4713c0,0.20199 0.0404,0.39051 0.1212,0.56556c0.35011,-0.14813 0.57903,-0.14813 0.84834,-0.14813c0.4309,0 1.03686,0.01345 1.03686,0.33663c0,0.39051 -0.82141,0.39051 -1.15806,0.39051c-0.25584,0 -0.56556,0 -0.80794,-0.22891c-1.65628,0.95606 -3.01632,3.42028 -3.01632,5.26508c0,1.00993 0.45784,1.61587 1.25231,1.92559zM246.78999,275.66274c0.56556,0 0.67328,-0.0404 0.83487,-0.10773c-0.26931,-0.06732 -0.30971,-0.0808 -0.74061,-0.0808c-0.22891,0 -0.41743,0 -0.61942,0.09426c0.14813,0.09426 0.24238,0.09426 0.52516,0.09426z" fill="#000000" stroke="none" stroke-width="1"/><path d="M287.82691,255.05853c-0.06739,0.20199 -0.12122,0.25584 -0.24241,0.25584c-0.10773,0 -0.17505,-0.0404 -0.24239,-0.24238l-2.24877,-6.98868l-2.2353,6.98868c-0.06733,0.20199 -0.13466,0.24238 -0.24238,0.24238c-0.1212,0 -0.17505,-0.05386 -0.24238,-0.25584l-2.66621,-8.32179c-0.16159,-0.51169 -0.41744,-0.51169 -1.14458,-0.51169v-0.39051c0.35011,0.02693 1.17152,0.02693 1.56202,0.02693c0.37705,0 1.40044,0 1.71014,-0.02693v0.39051c-0.35011,0 -1.03686,0 -1.03686,0.40397c0,0.0404 0,0.06732 0.06733,0.25584l2.15452,6.70591l1.92559,-6.00569c-0.17505,-0.48476 -0.26931,-0.90219 -0.36358,-1.07725c-0.14812,-0.24238 -0.33663,-0.28278 -1.05032,-0.28278v-0.39051c0.35011,0.02693 1.17152,0.02693 1.56202,0.02693c0.39051,0 1.38697,0 1.71015,-0.02693v0.39051c-0.32318,0 -1.03686,0 -1.03686,0.40397c0,0.0404 0.02693,0.14812 0.0404,0.18853l2.18142,6.77323l2.04676,-6.38273c0.02694,-0.09426 0.06739,-0.20199 0.06739,-0.26931c0,-0.26932 -0.24245,-0.70022 -1.06384,-0.71368v-0.39051c0.32317,0.02693 1.05032,0.02693 1.40043,0.02693c0.59255,0 0.61949,0 1.19844,-0.02693v0.39051c-0.67328,0.01346 -1.06374,0.28278 -1.27916,0.92913z" fill="#000000" stroke="none" stroke-width="1"/><g fill="#000000" stroke="none" stroke-width="1"><path d="M198.8874,253.53703c0,0.60596 0.16159,0.60595 1.0234,0.60595v0.39051c-0.37705,-0.02693 -1.05032,-0.02693 -1.45429,-0.02693c-0.40398,0 -1.06379,0 -1.44083,0.02693v-0.39051c0.87527,0 1.0234,0 1.0234,-0.60595v-7.05602c0,-0.65982 -0.10772,-0.75407 -1.0234,-0.75407v-0.39051l1.87174,-0.14813z"/><path d="M203.5063,254.66813c-1.53508,0 -2.88165,-1.2927 -2.88165,-3.01631c0,-1.69667 1.27924,-3.12403 2.89513,-3.12403c1.56202,0 2.88165,1.38696 2.88165,3.12403c0,1.69667 -1.30617,3.01631 -2.89513,3.01631zM205.02792,253.46971c0.35011,-0.63289 0.35011,-1.46775 0.35011,-1.93906c0,-0.49823 0,-1.34657 -0.41743,-1.96599c-0.36358,-0.52516 -0.92914,-0.76754 -1.4543,-0.76754c-0.4713,0 -1.06379,0.21545 -1.44083,0.79448c-0.41743,0.60595 -0.41743,1.42735 -0.41743,1.93906c0,0.56556 0.01346,1.36003 0.37703,1.96598c0.39051,0.65982 0.99646,0.87527 1.4947,0.87527c0.51169,0 1.13112,-0.25584 1.50815,-0.9022z"/><path d="M208.1752,252.74254c0,0.28278 0.12119,0.53862 0.25585,0.67328c0.24238,0.25584 0.33663,0.25584 1.15804,0.25584c1.15804,0 1.83133,0 2.51809,0.35011c0.80794,0.41743 0.90219,1.21191 0.90219,1.54856c0,1.00992 -1.3331,1.7236 -2.93552,1.7236c-1.65628,0 -2.92205,-0.76754 -2.92205,-1.69667c0,-0.70021 0.61942,-1.18498 1.23885,-1.36004c-0.10773,-0.06733 -0.57903,-0.40397 -0.57903,-1.18498c0,-0.52516 0.24238,-0.91566 0.40397,-1.11766c-0.13466,-0.12119 -0.60596,-0.61942 -0.60596,-1.38696c0,-1.03686 0.9022,-1.95252 2.11411,-1.95252c0.5117,0 0.98299,0.17505 1.38697,0.48476c0.18853,-0.20198 0.71368,-0.63288 1.4139,-0.63288c0.4713,0 0.65982,0.37703 0.65982,0.61942c0,0.29625 -0.24238,0.36357 -0.35011,0.36357c-0.21545,0 -0.35011,-0.16158 -0.35011,-0.35011c0,-0.14813 0.06733,-0.28278 0.20199,-0.33663c-0.05386,-0.02694 -0.12119,-0.02694 -0.17505,-0.02694c-0.06733,0 -0.70021,0 -1.22538,0.53863c0.4309,0.4309 0.53863,0.9426 0.53863,1.30617c0,1.03686 -0.90221,1.95252 -2.11412,1.95252c-0.14812,0 -0.68674,0 -1.31963,-0.41743c-0.13466,0.18853 -0.21545,0.41743 -0.21545,0.64635zM210.66635,251.70571c0.22892,-0.36358 0.22892,-0.91566 0.22892,-1.15804c0,-0.30972 0,-1.66975 -1.18498,-1.66975c-0.28278,0 -0.68674,0.13466 -0.94259,0.52516c-0.22891,0.36358 -0.22891,0.91567 -0.22891,1.15804c0,0.30971 0,1.66975 1.18498,1.66975c0.28278,0 0.68675,-0.13466 0.94259,-0.52516zM212.34957,255.58379c0,-1.17151 -1.52162,-1.17151 -2.63928,-1.17151c-0.9426,0 -1.06378,0 -1.36003,0.18852c-0.5117,0.35011 -0.53863,0.87527 -0.53863,0.98299c0,0.76755 0.98299,1.42736 2.2757,1.42736c1.23884,0 2.26224,-0.63288 2.26224,-1.42736z"/></g><g fill="#000000" stroke="none" stroke-width="1"><path d="M241.86146,253.91723c0,0.60596 0.16159,0.60595 1.0234,0.60595v0.39051c-0.37705,-0.02693 -1.05032,-0.02693 -1.45429,-0.02693c-0.40398,0 -1.06379,0 -1.44083,0.02693v-0.39051c0.87527,0 1.0234,0 1.0234,-0.60595v-7.05602c0,-0.65982 -0.10772,-0.75407 -1.0234,-0.75407v-0.39051l1.87174,-0.14813z"/><path d="M249.18697,254.11925c0.01346,0.40397 0.35011,0.40397 1.0234,0.40397v0.39051c-0.35011,-0.02693 -1.07726,-0.02693 -1.46777,-0.02693c-0.37703,0 -1.10419,0 -1.45429,0.02693v-0.39051c0.87527,0 1.02339,0 1.02339,-0.60595v-3.16443c0,-0.82141 -0.18852,-1.50816 -1.02339,-1.50816c-0.83487,0 -1.76401,0.75408 -1.76401,2.16797v2.50462c0,0.60596 0.16159,0.60595 1.0234,0.60595v0.39051c-0.35011,-0.02693 -1.07725,-0.02693 -1.46776,-0.02693c-0.37705,0 -1.10419,0 -1.4543,0.02693v-0.39051c0.87527,0 1.0234,0 1.0234,-0.60595v-3.6492c0,-0.65982 -0.10773,-0.75407 -1.0234,-0.75407v-0.39051l1.83134,-0.14813v1.38696h0.01347c0.10773,-0.26932 0.61942,-1.38696 1.92559,-1.38696c0.45783,0 1.09072,0.08078 1.48123,0.60596c0.30972,0.4309 0.30972,0.80794 0.30972,2.06024z"/></g><g fill="#000000" stroke="none" stroke-width="1"><path d="M280.34851,287.69124c-0.35011,-0.02693 -1.07726,-0.02693 -1.46777,-0.02693c-0.37703,0 -1.10418,0 -1.45429,0.02693v-0.39051c0.87527,0 1.02339,0 1.02339,-0.60596v-6.32886c0,-0.59249 -0.08078,-0.68674 -1.02339,-0.68674v-0.39051l1.87173,-0.14813v0.90219c0.0404,-0.05386 0.67328,-0.90219 1.85827,-0.90219c1.46777,0 2.73354,1.31963 2.73354,3.02977c0,1.73707 -1.36004,3.04324 -2.90859,3.04324c-0.86181,0 -1.4139,-0.52516 -1.65627,-0.8618v2.34303c0,0.60596 0.16158,0.60596 1.02339,0.60596zM279.32511,283.55728c0,0.37703 0.20198,0.64635 0.51169,0.95606c0.26932,0.25584 0.65982,0.4309 1.07725,0.4309c1.03686,0 1.95253,-1.17151 1.95253,-2.77393c0,-1.50815 -0.80795,-2.73353 -1.81787,-2.73353c-0.5117,0 -1.17151,0.25584 -1.57548,0.8618c-0.14813,0.21545 -0.14813,0.22892 -0.14813,0.48476z"/><path d="M288.76396,280.78337c0,0.24239 0,0.30972 -0.14813,0.30972c-0.04039,0 -0.13466,0 -0.14812,-0.10773c-0.02694,-0.41744 -0.10772,-1.66975 -1.57549,-1.66975c-1.21192,0 -1.49469,0.61941 -1.49469,1.03686c0,0.80794 0.983,0.99645 1.38697,1.07725c0.88874,0.16159 1.25231,0.24238 1.73707,0.65982c0.1212,0.1212 0.56556,0.5521 0.56556,1.27924c0,1.06379 -0.70021,1.8448 -2.11411,1.8448c-0.22892,0 -0.95606,0 -1.46777,-0.63289c-0.20199,0.21545 -0.20199,0.24238 -0.26931,0.33665c-0.22892,0.28278 -0.24238,0.29624 -0.30972,0.29624c-0.13466,0 -0.13466,-0.06733 -0.13466,-0.30971v-1.83133c0,-0.24238 0,-0.30972 0.14813,-0.30972c0.0404,0 0.09426,0 0.12119,0.05386c0.01347,0.01347 0.01347,0.02693 0.06733,0.26931c0.29625,1.34657 0.9426,1.85827 1.83133,1.85827c1.18499,0 1.52162,-0.64635 1.52162,-1.22538c0,-0.37703 -0.17505,-0.67328 -0.41743,-0.87527c-0.33663,-0.26931 -0.5117,-0.3097 -1.25231,-0.45783c-0.61942,-0.12119 -1.07725,-0.21545 -1.50816,-0.59249c-0.51169,-0.4713 -0.51169,-0.9426 -0.51169,-1.09071c0,-0.74061 0.48477,-1.62935 2.11412,-1.62935c0.4309,0 0.84834,0.08079 1.26577,0.41744c0.09426,-0.1212 0.35011,-0.41744 0.45783,-0.41744c0.13466,0 0.13466,0.06733 0.13466,0.30971z"/><path d="M291.21163,277.43039c-0.32317,0 -0.64635,-0.25585 -0.64635,-0.65982c0,-0.36358 0.29624,-0.64636 0.64635,-0.64636c0.37705,0 0.65982,0.30971 0.65982,0.65982c0,0.29625 -0.24238,0.64636 -0.65982,0.64636zM291.84453,279.14054v4.95537c0,0.52516 0.05386,0.59249 0.92913,0.59249v0.39051c-0.45784,-0.02693 -1.23885,-0.02693 -1.38696,-0.02693c-0.39051,0 -1.03686,0 -1.41391,0.02693v-0.39051c0.87527,0 1.0234,0 1.0234,-0.60596v-3.66266c0,-0.65983 -0.1212,-0.74061 -0.983,-0.74061v-0.39051z"/></g><g fill="#000000" stroke="none" stroke-width="1"><path d="M199.91241,309.94186c0,0.24239 0,0.30972 -0.14813,0.30972c-0.04039,0 -0.13466,0 -0.14812,-0.10773c-0.02694,-0.41744 -0.10772,-1.66975 -1.57549,-1.66975c-1.21192,0 -1.49469,0.61941 -1.49469,1.03686c0,0.80794 0.983,0.99645 1.38697,1.07725c0.88874,0.16159 1.25231,0.24238 1.73708,0.65982c0.1212,0.1212 0.56556,0.5521 0.56556,1.27924c0,1.06379 -0.70021,1.8448 -2.11411,1.8448c-0.22892,0 -0.95606,0 -1.46777,-0.63289c-0.20199,0.21545 -0.20199,0.24238 -0.26931,0.33665c-0.22891,0.28278 -0.24238,0.29624 -0.30971,0.29624c-0.13466,0 -0.13466,-0.06733 -0.13466,-0.30971v-1.83133c0,-0.24238 0,-0.30972 0.14813,-0.30972c0.04039,0 0.09426,0 0.12119,0.05386c0.01347,0.01347 0.01347,0.02693 0.06733,0.26931c0.29625,1.34657 0.9426,1.85827 1.83133,1.85827c1.18499,0 1.52162,-0.64635 1.52162,-1.22538c0,-0.37703 -0.17505,-0.67328 -0.41744,-0.87527c-0.33664,-0.26931 -0.5117,-0.3097 -1.25231,-0.45783c-0.61942,-0.12119 -1.07725,-0.21545 -1.50816,-0.59249c-0.5117,-0.4713 -0.51169,-0.9426 -0.51169,-1.09071c0,-0.74061 0.48477,-1.62935 2.11412,-1.62935c0.4309,0 0.84834,0.08079 1.26577,0.41744c0.09426,-0.1212 0.35011,-0.41744 0.45783,-0.41744c0.13466,0 0.13466,0.06733 0.13466,0.30971z"/><path d="M202.06384,312.4465c0,0.28278 0.12119,0.53862 0.25585,0.67328c0.24238,0.25584 0.33663,0.25584 1.15804,0.25584c1.15805,0 1.83133,0 2.51809,0.35011c0.80794,0.41743 0.9022,1.21191 0.9022,1.54856c0,1.00992 -1.3331,1.7236 -2.93553,1.7236c-1.65628,0 -2.92205,-0.76754 -2.92205,-1.69667c0,-0.70021 0.61942,-1.18498 1.23885,-1.36004c-0.10772,-0.06733 -0.57903,-0.40397 -0.57903,-1.18498c0,-0.52516 0.24238,-0.91566 0.40398,-1.11766c-0.13467,-0.12119 -0.60596,-0.61942 -0.60596,-1.38696c0,-1.03686 0.90219,-1.95252 2.11411,-1.95252c0.5117,0 0.983,0.17505 1.38697,0.48476c0.18852,-0.20198 0.71368,-0.63288 1.4139,-0.63288c0.4713,0 0.65982,0.37703 0.65982,0.61942c0,0.29625 -0.24238,0.36357 -0.35011,0.36357c-0.21545,0 -0.35011,-0.16158 -0.35011,-0.35011c0,-0.14813 0.06733,-0.28278 0.20199,-0.33663c-0.05386,-0.02694 -0.12118,-0.02694 -0.17505,-0.02694c-0.06733,0 -0.70021,0 -1.22538,0.53863c0.4309,0.4309 0.53863,0.9426 0.53863,1.30617c0,1.03686 -0.90221,1.95252 -2.11412,1.95252c-0.14812,0 -0.68674,0 -1.31963,-0.41743c-0.13466,0.18853 -0.21545,0.41743 -0.21545,0.64635zM204.55499,311.40967c0.22892,-0.36358 0.22892,-0.91566 0.22892,-1.15804c0,-0.30972 0,-1.66975 -1.18499,-1.66975c-0.28278,0 -0.68675,0.13466 -0.9426,0.52516c-0.22891,0.36358 -0.22891,0.91567 -0.22891,1.15804c0,0.30971 0,1.66975 1.18498,1.66975c0.28278,0 0.68675,-0.13466 0.9426,-0.52516zM206.2382,315.28777c0,-1.17151 -1.52162,-1.17151 -2.63928,-1.17151c-0.9426,0 -1.06378,0 -1.36003,0.18852c-0.5117,0.35011 -0.53863,0.87527 -0.53863,0.98299c0,0.76755 0.983,1.42736 2.27571,1.42736c1.23885,0 2.26224,-0.63288 2.26224,-1.42736z"/><path d="M213.23666,313.44294c0.01346,0.40397 0.35011,0.40397 1.0234,0.40397v0.39051c-0.35011,-0.02693 -1.07726,-0.02693 -1.46777,-0.02693c-0.37703,0 -1.10419,0 -1.45429,0.02693v-0.39051c0.87528,0 1.0234,0 1.0234,-0.60595v-3.16443c0,-0.82141 -0.18853,-1.50816 -1.0234,-1.50816c-0.83487,0 -1.76401,0.75408 -1.76401,2.16797v2.50462c0,0.60596 0.16159,0.60595 1.0234,0.60595v0.39051c-0.35011,-0.02693 -1.07725,-0.02693 -1.46776,-0.02693c-0.37705,0 -1.10419,0 -1.4543,0.02693v-0.39051c0.87527,0 1.0234,0 1.0234,-0.60595v-3.6492c0,-0.65982 -0.10773,-0.75407 -1.0234,-0.75407v-0.39051l1.83133,-0.14813v1.38696h0.01347c0.10772,-0.26932 0.61942,-1.38696 1.92559,-1.38696c0.45783,0 1.09072,0.08078 1.48123,0.60596c0.30972,0.4309 0.30972,0.80794 0.30972,2.06024z"/></g><g fill="#000000" stroke="none" stroke-width="1"><path d="M234.59654,309.4769c0.45784,-0.56556 1.09073,-0.90219 1.83134,-0.90219c1.49469,0 2.76047,1.31963 2.76047,3.02977c0,1.73707 -1.36004,3.04324 -2.90859,3.04324c-0.86181,0 -1.44083,-0.51169 -1.75054,-1.00992c-0.05386,0.09426 -0.43089,0.76754 -0.48476,0.87527h-0.29625v-8.05248c0,-0.65982 -0.10773,-0.75407 -1.02339,-0.75407v-0.39051l1.87173,-0.14813zM234.62348,312.97793c0,0.22892 0,0.28278 0.17505,0.56556c0.22891,0.36357 0.70021,0.83488 1.42736,0.83488c0.67328,0 1.21191,-0.41743 1.48123,-0.83488c0.32317,-0.48476 0.45784,-1.05032 0.45784,-1.95252c0,-2.58541 -1.4139,-2.747 -1.81787,-2.747c-0.65982,0 -1.25231,0.3905 -1.57548,0.87526c-0.14813,0.21545 -0.14813,0.24239 -0.14813,0.48477z"/><path d="M241.43901,311.389v0.25585c0,2.32956 1.36003,2.7066 1.92559,2.7066c0.56556,0 1.46776,-0.30972 1.81787,-1.44083c0.02693,-0.06733 0.05386,-0.13466 0.16158,-0.13466c0.0808,0 0.14813,0.05386 0.14813,0.13466c0,0.28278 -0.60596,1.73707 -2.20837,1.73707c-1.49469,0 -2.8682,-1.30617 -2.8682,-3.08364c0,-1.66975 1.18498,-3.0567 2.72007,-3.0567c1.62935,0 2.35649,1.26577 2.35649,2.6258c0,0.25585 -0.02693,0.25585 -0.32317,0.25585zM244.65732,311.13315c-0.01347,-0.45784 -0.09426,-2.35649 -1.53509,-2.35649c-0.37703,0 -1.56202,0.24238 -1.66975,2.35649z"/><path d="M248.11119,312.87022c0,0.22892 0,1.48123 0.91567,1.48123c0.52516,0 0.91567,-0.56556 0.91567,-1.53509v-0.74061h0.29625v0.76754c0,0.96953 -0.44436,1.8044 -1.29271,1.8044c-0.71369,0 -1.71015,-0.30971 -1.71015,-1.8044v-3.74346h-1.14458v-0.26931c1.22538,-0.0404 1.71014,-1.3331 1.7236,-2.59888h0.29625v2.47768h1.89866v0.39051h-1.89866z"/><path d="M256.15565,313.27418c0,0.20199 0,0.91566 0.5117,0.91566c0.18851,0 0.51169,-0.10772 0.51169,-0.87526v-0.75409h0.29625v0.75409c0,1.07725 -0.78101,1.26577 -1.06379,1.26577c-0.57903,0 -0.99646,-0.48476 -1.05032,-1.11765c-0.25585,0.64635 -0.86181,1.18498 -1.75054,1.18498c-0.82141,0 -2.06025,-0.33664 -2.06025,-1.40043c0,-1.03686 1.02339,-2.16798 3.73,-2.20837v-0.53863c0,-1.2119 -0.79448,-1.7236 -1.4139,-1.7236c-0.53863,0 -1.18499,0.24238 -1.49469,0.80794c0.20199,0 0.68675,0 0.68675,0.5521c0,0.32317 -0.22892,0.55209 -0.5521,0.55209c-0.30971,0 -0.56556,-0.18852 -0.56556,-0.57903c0,-0.87526 0.84834,-1.60241 1.95253,-1.60241c0.59249,0 1.19845,0.18851 1.66975,0.61942c0.59249,0.52516 0.59249,1.06379 0.59249,1.79093zM255.28038,311.28124c-0.48476,0.02694 -2.77394,0.18853 -2.77394,1.96599c0,0.64635 0.5521,1.13111 1.21192,1.13111c0.57903,0 1.56202,-0.44436 1.56202,-1.764z"/></g><g fill="#000000" stroke="none" stroke-width="1"><path d="M237.93066,333.73501v13.06869c0,0.25459 -0.00001,0.50917 -0.28288,0.50917c-0.28287,0 -0.28287,-0.29702 -0.28287,-0.50917v-13.12528c0,-0.45261 0.05658,-0.50911 0.50917,-0.50911h2.48927c0.21215,0 0.50916,0 0.50916,0.28285c0,0.28285 -0.29701,0.28285 -0.50916,0.28285z"/><path d="M247.17263,337.82245c-0.6506,0 -1.13149,0.62232 -1.34365,1.47095l-0.49502,1.92352c-0.2263,0.93348 -0.28289,1.15978 -0.28289,1.47093c0,0.5799 0.26873,0.94763 0.76376,0.94763c0.63646,0 1.45679,-0.57989 1.83866,-1.82453c0.04243,-0.11316 0.05658,-0.18387 0.18386,-0.18387c0.08487,0 0.14144,0.05657 0.14144,0.12729c0,0.31117 -0.76375,2.16397 -2.20639,2.16397c-0.52331,0 -1.23049,-0.28287 -1.45679,-1.11735c-0.29702,0.57988 -0.7779,1.11735 -1.45679,1.11735c-0.60818,0 -1.27293,-0.26873 -1.27293,-0.86276c0,-0.45259 0.36773,-0.74961 0.70718,-0.74961c0.26873,0 0.48089,0.16971 0.48089,0.45258c0,0.16973 -0.11315,0.59404 -0.62231,0.69304c0.29701,0.18387 0.65061,0.18386 0.72133,0.18386c0.74962,0 1.15978,-0.7779 1.37193,-1.62651l0.48089,-1.93767c0.16972,-0.6789 0.25458,-1.00419 0.25458,-1.31536c0,-0.33945 -0.1273,-0.93348 -0.76375,-0.93348c-0.41017,0 -1.35779,0.29702 -1.83868,1.86696c-0.02829,0.05657 -0.05656,0.14144 -0.16972,0.14144c-0.09901,0 -0.15559,-0.07072 -0.15559,-0.12729c0,-0.31117 0.76375,-2.16397 2.2064,-2.16397c0.25459,0 1.1315,0.05657 1.45679,1.11734c0.1273,-0.26873 0.60818,-1.11734 1.47094,-1.11734c0.59403,0 1.27292,0.26873 1.27292,0.86276c0,0.38187 -0.29702,0.74961 -0.72132,0.74961c-0.19801,0 -0.46675,-0.11316 -0.46675,-0.45258c0,-0.26873 0.16973,-0.60818 0.62233,-0.69304c-0.29702,-0.18387 -0.69305,-0.18387 -0.72133,-0.18387z"/><path d="M252.8352,346.80373c0,0.25459 -0.00001,0.50917 -0.28288,0.50917c-0.28287,0 -0.28287,-0.29702 -0.28287,-0.50917v-13.06869h-2.4327c-0.21215,0 -0.50917,0 -0.50917,-0.28285c0,-0.28285 0.29702,-0.28285 0.50917,-0.28285h2.50342c0.4526,0 0.49503,0.04239 0.49503,0.50911z"/></g><g fill="#000000" stroke="none" stroke-width="1"><path d="M197.87456,347.31287c-0.4526,0 -0.50917,-0.05658 -0.50917,-0.50917v-13.12528c0,-0.21216 -0.00001,-0.50911 0.28287,-0.50911c0.28288,0 0.28288,0.25455 0.28288,0.50911v13.0687h2.43269c0.21215,0 0.50917,0.00002 0.50917,0.28288c0,0.28287 -0.29702,0.28287 -0.50917,0.28287z"/><path d="M207.1731,337.82245c-0.6506,0 -1.13149,0.62232 -1.34365,1.47095l-0.49502,1.92352c-0.2263,0.93348 -0.28289,1.15978 -0.28289,1.47093c0,0.5799 0.26873,0.94763 0.76376,0.94763c0.63646,0 1.45679,-0.57989 1.83866,-1.82453c0.04243,-0.11316 0.05658,-0.18387 0.18386,-0.18387c0.08487,0 0.14144,0.05657 0.14144,0.12729c0,0.31117 -0.76375,2.16397 -2.20639,2.16397c-0.52331,0 -1.23049,-0.28287 -1.45679,-1.11735c-0.29702,0.57988 -0.7779,1.11735 -1.45679,1.11735c-0.60818,0 -1.27293,-0.26873 -1.27293,-0.86276c0,-0.45259 0.36773,-0.74961 0.70718,-0.74961c0.26873,0 0.48089,0.16971 0.48089,0.45258c0,0.16973 -0.11315,0.59404 -0.62231,0.69304c0.29701,0.18387 0.65061,0.18386 0.72133,0.18386c0.74962,0 1.15978,-0.7779 1.37193,-1.62651l0.48089,-1.93767c0.16972,-0.6789 0.25459,-1.00419 0.25459,-1.31536c0,-0.33945 -0.1273,-0.93348 -0.76376,-0.93348c-0.41017,0 -1.35779,0.29702 -1.83868,1.86696c-0.02829,0.05657 -0.05656,0.14144 -0.16972,0.14144c-0.09901,0 -0.15559,-0.07072 -0.15559,-0.12729c0,-0.31117 0.76375,-2.16397 2.2064,-2.16397c0.25459,0 1.1315,0.05657 1.45679,1.11734c0.1273,-0.26873 0.60818,-1.11734 1.47094,-1.11734c0.59403,0 1.27292,0.26873 1.27292,0.86276c0,0.38187 -0.29702,0.74961 -0.72132,0.74961c-0.19801,0 -0.46675,-0.11316 -0.46675,-0.45258c0,-0.26873 0.16973,-0.60818 0.62233,-0.69304c-0.29702,-0.18387 -0.69305,-0.18387 -0.72133,-0.18387z"/><path d="M212.83471,346.80373c0,0.46674 -0.04243,0.50917 -0.49503,0.50917h-2.50342c-0.21215,0 -0.50917,0.00001 -0.50917,-0.28287c0,-0.28287 0.29702,-0.28288 0.50917,-0.28288h2.4327v-13.0687c0,-0.21216 -0.00001,-0.50911 0.28287,-0.50911c0.28288,0 0.28288,0.25455 0.28288,0.50911z"/></g><g fill="#000000" stroke="none" stroke-width="1"><path d="M278.82203,311.16971v0.24521c0,2.2327 1.30349,2.59407 1.84553,2.59407c0.54204,0 1.40673,-0.29682 1.74228,-1.38092c0.0258,-0.06453 0.05162,-0.12906 0.15486,-0.12906c0.07744,0 0.14197,0.05163 0.14197,0.12906c0,0.27102 -0.58076,1.66485 -2.11654,1.66485c-1.43254,0 -2.74894,-1.25187 -2.74894,-2.95543c0,-1.60032 1.1357,-2.92961 2.60697,-2.92961c1.5616,0 2.25851,1.21314 2.25851,2.51662c0,0.24521 -0.02581,0.24521 -0.30975,0.24521zM281.90653,310.92445c-0.01291,-0.43879 -0.09035,-2.25851 -1.47126,-2.25851c-0.36136,0 -1.49708,0.2323 -1.60032,2.25851z"/><path d="M285.20387,313.183c0,0.46461 0.02582,0.60657 0.96793,0.60657h0.25812v0.37428c-0.29682,-0.02581 -1.21315,-0.02581 -1.5616,-0.02581c-0.38717,0 -1.09699,0 -1.45835,0.02581v-0.37428c0.83889,0 0.98084,0 0.98084,-0.58076v-3.49747c0,-0.63238 -0.10326,-0.72272 -0.98084,-0.72272v-0.37427l1.72937,-0.14197v1.43254h0.01291c0.07744,-0.24521 0.45171,-1.43254 1.5487,-1.43254c0.55495,0 0.90341,0.36136 0.90341,0.74854c0,0.34845 -0.25812,0.51623 -0.51623,0.51623c-0.20649,0 -0.50332,-0.14196 -0.50332,-0.51623c0,-0.34847 0.20649,-0.4259 0.30974,-0.47751c-0.05163,-0.01291 -0.07744,-0.01291 -0.18068,-0.01291c-0.99375,0 -1.50999,1.17444 -1.50999,2.42629z"/><path d="M290.16492,313.183c0,0.46461 0.0258,0.60657 0.96793,0.60657h0.25812v0.37428c-0.29682,-0.02581 -1.21314,-0.02581 -1.5616,-0.02581c-0.38717,0 -1.09699,0 -1.45835,0.02581v-0.37428c0.83888,0 0.98085,0 0.98085,-0.58076v-4.2331h-1.00666v-0.37427h1.00666v-1.50998c0,-1.31639 1.01954,-2.01328 1.92296,-2.01328c0.61948,0 1.08409,0.37425 1.08409,0.85176c0,0.30974 -0.20649,0.51622 -0.51624,0.51622c-0.29682,0 -0.50332,-0.20648 -0.50332,-0.50332c0,-0.37427 0.32264,-0.49042 0.37427,-0.50333c-0.15487,-0.07744 -0.34847,-0.10325 -0.45171,-0.10325c-0.52913,0 -1.12281,0.59367 -1.12281,1.75519v1.50998h1.48418v0.37427h-1.45836z"/></g><g fill="#000000" stroke="none" stroke-width="1"><path d="M273.66638,343.05714c0,0.38111 0.02117,0.49756 0.79399,0.49756h0.21173v0.30701c-0.24349,-0.02118 -0.99513,-0.02118 -1.28097,-0.02118c-0.31759,0 -0.89986,0 -1.19627,0.02118v-0.30701c0.68813,0 0.80457,0.00001 0.80457,-0.47639v-2.86894c0,-0.51873 -0.0847,-0.59285 -0.80457,-0.59285v-0.30701l1.41859,-0.11644v1.1751h0.01059c0.06352,-0.20114 0.37053,-1.1751 1.27038,-1.1751c0.45523,0 0.74106,0.29642 0.74106,0.61402c0,0.28582 -0.21174,0.42345 -0.42347,0.42345c-0.16938,0 -0.41287,-0.11644 -0.41287,-0.42345c0,-0.28584 0.16938,-0.34936 0.25408,-0.39171c-0.04235,-0.01059 -0.06351,-0.01059 -0.1482,-0.01059c-0.81516,0 -1.23863,0.96338 -1.23863,1.99026z"/><path d="M278.49812,343.96757c-1.20686,0 -2.26552,-1.0163 -2.26552,-2.37138c0,-1.3339 1.00572,-2.45607 2.2761,-2.45607c1.22803,0 2.26551,1.0904 2.26551,2.45607c0,1.3339 -1.0269,2.37138 -2.2761,2.37138zM279.69439,343.02539c0.27525,-0.49757 0.27525,-1.15392 0.27525,-1.52445c0,-0.39171 0,-1.05864 -0.32818,-1.54563c-0.28584,-0.41287 -0.73047,-0.60343 -1.14335,-0.60343c-0.37054,0 -0.83634,0.16939 -1.13276,0.62462c-0.32819,0.47638 -0.32819,1.12216 -0.32819,1.52445c0,0.44464 0.01058,1.06924 0.29642,1.54562c0.30701,0.51874 0.7834,0.68813 1.17511,0.68813c0.40229,0 0.88926,-0.20114 1.18569,-0.70929z"/><path d="M285.78933,339.19307v3.7688c0,0.51874 0.0847,0.59285 0.80457,0.59285v0.30701l-1.47153,0.10586v-0.95279c0,0 -0.16938,0.40229 -0.47639,0.64578c-0.35994,0.30701 -0.69871,0.30701 -0.87869,0.30701c-0.53991,0 -0.97396,-0.12705 -1.22803,-0.40229c-0.31761,-0.34935 -0.31759,-0.73047 -0.31759,-1.38683v-1.58796c0,-0.94221 0,-0.97397 -0.80458,-0.97397v-0.30701l1.49269,-0.11644v3.50414c0,0.56109 0.05292,1.05864 0.92103,1.05864c0.794,0 1.27038,-0.75163 1.27038,-1.65149v-1.89498c0,-0.51873 -0.0847,-0.59285 -0.80458,-0.59285v-0.30701z"/><path d="M291.52675,343.23711c0.01058,0.31759 0.27525,0.31758 0.80457,0.31758v0.30701c-0.27525,-0.02118 -0.84692,-0.02118 -1.15393,-0.02118c-0.29642,0 -0.8681,0 -1.14335,0.02118v-0.30701c0.68813,0 0.80457,0.00001 0.80457,-0.47639v-2.48782c0,-0.64578 -0.14821,-1.1857 -0.80457,-1.1857c-0.65636,0 -1.38683,0.59285 -1.38683,1.70444v1.96908c0,0.4764 0.12705,0.47639 0.80457,0.47639v0.30701c-0.27525,-0.02118 -0.84692,-0.02118 -1.15393,-0.02118c-0.29643,0 -0.8681,0 -1.14335,0.02118v-0.30701c0.68813,0 0.80457,0.00001 0.80457,-0.47639v-2.86894c0,-0.51873 -0.0847,-0.59285 -0.80457,-0.59285v-0.30701l1.43977,-0.11644v1.09041h0.01059c0.0847,-0.21173 0.48697,-1.09041 1.51387,-1.09041c0.35994,0 0.8575,0.06352 1.16451,0.47639c0.24349,0.33877 0.24349,0.63519 0.24349,1.61972z"/><path d="M297.20066,336.51468v6.44718c0,0.51874 0.0847,0.59285 0.80458,0.59285v0.30701l-1.4927,0.10586v-0.73047c-0.14821,0.20114 -0.61402,0.73047 -1.41859,0.73047c-1.16451,0 -2.17023,-1.03749 -2.17023,-2.38196c0,-1.35507 1.05865,-2.39255 2.2867,-2.39255c0.64577,0 1.101,0.37052 1.32331,0.67754v-2.33962c0,-0.51873 -0.0847,-0.59283 -0.80457,-0.59283v-0.30701zM296.51254,340.44227c0,-0.19056 0,-0.21173 -0.12705,-0.39171c-0.10586,-0.16938 -0.47639,-0.64578 -1.13276,-0.64578c-0.52933,0 -0.95278,0.32818 -1.16451,0.65638c-0.2329,0.34935 -0.35995,0.77281 -0.35995,1.53503c0,2.05379 1.14335,2.15965 1.4186,2.15965c0.52933,0 0.96337,-0.30701 1.21744,-0.67754c0.14821,-0.2329 0.1482,-0.26466 0.1482,-0.45522z"/></g></g><g><path d="M351.55747,263.06332c-6.7336,0 -28.27729,0 -32.63067,0c-1.51414,0 -2.51026,-0.95831 -2.51026,-2.4908c0,-5.38467 0,-17.85811 0,-20.75669c0,-1.17748 0.83864,-2.32476 2.27173,-2.32476c4.30441,0 26.35938,0 32.92602,0c1.18062,0 2.16929,0.87327 2.16929,1.82658c0,2.7465 0,16.26468 0,21.58696c0,1.33855 -0.9369,2.1587 -2.22611,2.1587z" data-paper-data="{&quot;index&quot;:null}" fill-opacity="0.91765" fill="#fff6d1" stroke="#d0d0d0" stroke-width="0.5"/><path d="M351.55747,293.06332c-6.7336,0 -28.27729,0 -32.63067,0c-1.51414,0 -2.51026,-0.95831 -2.51026,-2.4908c0,-5.38467 0,-17.85811 0,-20.75669c0,-1.17748 0.83864,-2.32476 2.27173,-2.32476c4.30441,0 26.35938,0 32.92602,0c1.18062,0 2.16929,0.87327 2.16929,1.82658c0,2.7465 0,16.26468 0,21.58696c0,1.33855 -0.9369,2.1587 -2.22611,2.1587z" data-paper-data="{&quot;index&quot;:null}" fill-opacity="0.91765" fill="#fff6d1" stroke="#d0d0d0" stroke-width="0.5"/><path d="M351.55747,323.06332c-6.7336,0 -28.27729,0 -32.63067,0c-1.51414,0 -2.51026,-0.95831 -2.51026,-2.4908c0,-5.38467 0,-17.85811 0,-20.75669c0,-1.17748 0.83864,-2.32476 2.27173,-2.32476c4.30441,0 26.35938,0 32.92602,0c1.18062,0 2.16929,0.87327 2.16929,1.82658c0,2.7465 0,16.26468 0,21.58696c0,1.33855 -0.9369,2.1587 -2.22611,2.1587z" data-paper-data="{&quot;index&quot;:null}" fill-opacity="0.91765" fill="#fff6d1" stroke="#d0d0d0" stroke-width="0.5"/><path d="M351.55747,353.06344c-6.7336,0 -28.27729,0 -32.63067,0c-1.51414,0 -2.51026,-0.95831 -2.51026,-2.4908c0,-5.38467 0,-17.85811 0,-20.75669c0,-1.17748 0.83864,-2.32476 2.27173,-2.32476c4.30441,0 26.35938,0 32.92602,0c1.18062,0 2.16929,0.87327 2.16929,1.82658c0,2.7465 0,16.26468 0,21.58696c0,1.33855 -0.9369,2.1587 -2.22611,2.1587z" data-paper-data="{&quot;index&quot;:null}" fill-opacity="0.91765" fill="#fff6d1" stroke="#d0d0d0" stroke-width="0.5"/><path d="M391.55747,263.06332c-6.7336,0 -28.27729,0 -32.63067,0c-1.51414,0 -2.51026,-0.95831 -2.51026,-2.4908c0,-5.38467 0,-17.85811 0,-20.75669c0,-1.17748 0.83864,-2.32476 2.27173,-2.32476c4.30441,0 26.35938,0 32.92602,0c1.18062,0 2.16929,0.87327 2.16929,1.82658c0,2.7465 0,16.26468 0,21.58696c0,1.33855 -0.9369,2.1587 -2.22611,2.1587z" data-paper-data="{&quot;index&quot;:null}" fill-opacity="0.91765" fill="#fff6d1" stroke="#d0d0d0" stroke-width="0.5"/><path d="M391.55747,293.06332c-6.7336,0 -28.27729,0 -32.63067,0c-1.51414,0 -2.51026,-0.95831 -2.51026,-2.4908c0,-5.38467 0,-17.85811 0,-20.75669c0,-1.17748 0.83864,-2.32476 2.27173,-2.32476c4.30441,0 26.35938,0 32.92602,0c1.18062,0 2.16929,0.87327 2.16929,1.82658c0,2.7465 0,16.26468 0,21.58696c0,1.33855 -0.9369,2.1587 -2.22611,2.1587z" data-paper-data="{&quot;index&quot;:null}" fill-opacity="0.91765" fill="#fff6d1" stroke="#d0d0d0" stroke-width="0.5"/><path d="M391.55747,323.06332c-6.7336,0 -28.27729,0 -32.63067,0c-1.51414,0 -2.51026,-0.95831 -2.51026,-2.4908c0,-5.38467 0,-17.85811 0,-20.75669c0,-1.17748 0.83864,-2.32476 2.27173,-2.32476c4.30441,0 26.35938,0 32.92602,0c1.18062,0 2.16929,0.87327 2.16929,1.82658c0,2.7465 0,16.26468 0,21.58696c0,1.33855 -0.9369,2.1587 -2.22611,2.1587z" data-paper-data="{&quot;index&quot;:null}" fill-opacity="0.91765" fill="#fff6d1" stroke="#d0d0d0" stroke-width="0.5"/><g fill="#000000" stroke="none" stroke-width="1"><path d="M328.70819,339.89201c0,0.24298 0,0.31048 -0.14849,0.31048c-0.04048,0 -0.13498,0 -0.14848,-0.10799c-0.027,-0.41846 -0.10799,-1.67382 -1.57934,-1.67382c-1.21487,0 -1.49834,0.62092 -1.49834,1.03939c0,0.80991 0.9854,0.99888 1.39035,1.07988c0.89091,0.16199 1.25537,0.24298 1.74131,0.66143c0.12149,0.12149 0.56694,0.55345 0.56694,1.28236c0,1.06639 -0.70192,1.8493 -2.11927,1.8493c-0.22948,0 -0.9584,0 -1.47135,-0.63443c-0.20247,0.21598 -0.20247,0.24298 -0.26997,0.33746c-0.22948,0.28347 -0.24298,0.29697 -0.31047,0.29697c-0.13499,0 -0.13498,-0.06749 -0.13498,-0.31046v-1.83579c0,-0.24298 -0.00001,-0.31048 0.14848,-0.31048c0.04049,0 0.09449,0 0.12149,0.054c0.0135,0.0135 0.0135,0.02699 0.06749,0.26997c0.29697,1.34986 0.94489,1.8628 1.8358,1.8628c1.18788,0 1.52534,-0.64793 1.52534,-1.22836c0,-0.37795 -0.17548,-0.67492 -0.41845,-0.8774c-0.33746,-0.26997 -0.51295,-0.31046 -1.25537,-0.45895c-0.62093,-0.12148 -1.07988,-0.21598 -1.51183,-0.59393c-0.51294,-0.47245 -0.51294,-0.9449 -0.51294,-1.09337c0,-0.74242 0.48595,-1.63332 2.11927,-1.63332c0.43196,0 0.85041,0.08099 1.26886,0.41846c0.09449,-0.12149 0.35096,-0.41846 0.45895,-0.41846c0.13498,0 0.13498,0.06749 0.13498,0.31046z"/><path d="M331.16193,336.53088c-0.32396,0 -0.64792,-0.25647 -0.64792,-0.66143c0,-0.36447 0.29696,-0.64793 0.64792,-0.64793c0.37797,0 0.66144,0.31046 0.66144,0.66143c0,0.29697 -0.24297,0.64793 -0.66144,0.64793zM331.79637,338.24518v4.96746c0,0.52644 0.05399,0.59393 0.93139,0.59393v0.39146c-0.45895,-0.027 -1.24186,-0.027 -1.39034,-0.027c-0.39146,0 -1.03939,0 -1.41735,0.027v-0.39146c0.87741,0 1.02589,0 1.02589,-0.60744v-3.6716c0,-0.66143 -0.12149,-0.74242 -0.9854,-0.74242v-0.39146z"/><path d="M339.13918,343.40161c0.01349,0.40496 0.35096,0.40496 1.02589,0.40496v0.39146c-0.35096,-0.027 -1.07988,-0.027 -1.47134,-0.027c-0.37796,0 -1.10688,0 -1.45784,0.027v-0.39146c0.87741,0 1.02589,0 1.02589,-0.60744v-3.17215c0,-0.82341 -0.18898,-1.51184 -1.02589,-1.51184c-0.83691,0 -1.76831,0.75592 -1.76831,2.17326v2.51073c0,0.60744 0.16199,0.60744 1.02589,0.60744v0.39146c-0.35096,-0.027 -1.07988,-0.027 -1.47134,-0.027c-0.37797,0 -1.10688,0 -1.45784,0.027v-0.39146c0.8774,0 1.02589,0 1.02589,-0.60744v-3.6581c0,-0.66143 -0.10799,-0.75591 -1.02589,-0.75591v-0.39146l1.8358,-0.14849v1.39035h0.0135c0.10799,-0.26998 0.62093,-1.39035 1.93029,-1.39035c0.45895,0 1.09338,0.08098 1.48484,0.60744c0.31047,0.43194 0.31048,0.80991 0.31048,2.06527z"/><path d="M343.31424,338.47466c-0.67492,0 -1.8223,0.55345 -1.8223,2.7942c0,2.05177 1.09338,2.76719 1.91679,2.76719c0.72892,0 1.45784,-0.40496 1.75481,-1.36335c0.0405,-0.16198 0.054,-0.20248 0.17548,-0.20248c0.0405,0 0.135,-0.00001 0.135,0.12148c0,0.12149 -0.40496,1.74131 -2.18677,1.74131c-1.52534,0 -2.82119,-1.32286 -2.82119,-3.05067c0,-1.70081 1.25536,-3.10466 2.8347,-3.10466c1.09338,0 2.03827,0.64793 2.03827,1.55233c0,0.39146 -0.25646,0.58044 -0.56694,0.58044c-0.32396,0 -0.55343,-0.22948 -0.55343,-0.55345c0,-0.55343 0.49945,-0.55344 0.66143,-0.55344c-0.31046,-0.52644 -1.05288,-0.72892 -1.56583,-0.72892z"/></g><g><path d="M391.5408,352.8862c-6.7336,0 -28.27729,0 -32.63067,0c-1.51414,0 -2.51026,-0.95831 -2.51026,-2.4908c0,-5.38467 0,-17.85811 0,-20.75669c0,-1.17748 0.83864,-2.32476 2.27173,-2.32476c4.30441,0 26.35938,0 32.92602,0c1.18062,0 2.16929,0.87327 2.16929,1.82658c0,2.7465 0,16.26468 0,21.58696c0,1.33855 -0.9369,2.1587 -2.22611,2.1587z" data-paper-data="{&quot;index&quot;:null}" fill-opacity="0.91765" fill="#d1e4ff" stroke="#d0d0d0" stroke-width="0.5"/><path d="M375.74386,335.02711c1.15873,1.11391 4.84349,4.54298 4.86665,4.58665c0.06952,0.10921 0.06952,0.19657 0.06952,0.24024c0,0.24024 -0.18539,0.43683 -0.46347,0.43683c-0.13906,0 -0.30128,-0.10921 -0.34762,-0.13105l-4.79715,-4.52113l-4.61172,4.34642c-0.27809,0.26209 -0.32445,0.30578 -0.50986,0.30578c-0.23174,0 -0.46347,-0.19657 -0.46347,-0.43683c0,-0.15289 0.04635,-0.19657 0.30128,-0.43683l4.63491,-4.39008l0.67208,-0.61154z" fill="#000000" stroke="none" stroke-width="1"/><path d="M370.03526,344.15151c-0.25711,0 -0.54852,0 -0.54852,-0.44434c0,-0.42094 0.30855,-0.42094 0.54852,-0.42094h10.09621c0.25712,0 0.54857,0 0.54857,0.44434c0,0.42094 -0.30859,0.42096 -0.54857,0.42096z" fill="#000000" stroke="none" stroke-width="1"/></g><g fill="#000000" stroke="none" stroke-width="1"><path d="M372.48776,253.82989c0.01295,0.3873 0.33565,0.3873 0.98114,0.3873v0.37439c-0.33565,-0.02582 -1.03279,-0.02582 -1.40714,-0.02582c-0.36148,0 -1.0586,0 -1.39427,0.02582v-0.37439c0.83913,0 0.98115,0 0.98115,-0.58094v-3.0338c0,-0.7875 -0.18074,-1.44591 -0.98115,-1.44591c-0.80042,0 -1.69119,0.72295 -1.69119,2.07849v2.40123c0,0.58094 0.15491,0.58094 0.98114,0.58094v0.37438c-0.33565,-0.02582 -1.03279,-0.02581 -1.40717,-0.02581c-0.36147,0 -1.05861,-0.00001 -1.39427,0.02581v-0.37438c0.83916,0 0.98116,0 0.98116,-0.58094v-3.0338c0,-0.7875 -0.18075,-1.44591 -0.98116,-1.44591c-0.80041,0 -1.69118,0.72295 -1.69118,2.07849v2.40124c0,0.58094 0.15492,0.58094 0.98114,0.58094v0.37438c-0.33565,-0.02582 -1.03278,-0.02582 -1.40717,-0.02582c-0.36148,0 -1.05861,0 -1.39426,0.02582v-0.37438c0.83913,0 0.98116,0 0.98116,-0.58094v-3.49857c0,-0.63259 -0.10327,-0.72295 -0.98116,-0.72295v-0.37438l1.75574,-0.14202v1.32971h0.01291c0.10329,-0.2582 0.59386,-1.32971 1.84611,-1.32971c0.81333,0 1.51047,0.28401 1.69119,1.27808c0.20656,-0.50348 0.74877,-1.27808 1.82029,-1.27808c0.43894,0 1.0457,0.07746 1.4201,0.58095c0.2969,0.4131 0.2969,0.77458 0.2969,1.9752z"/><path d="M378.70903,253.40387c0,0.19365 0,0.87787 0.49057,0.87787c0.18074,0 0.49057,-0.10327 0.49057,-0.83913v-0.72295h0.28402v0.72295c0,1.03278 -0.74877,1.21354 -1.01988,1.21354c-0.55513,0 -0.95533,-0.46476 -1.00698,-1.07153c-0.24529,0.61967 -0.82624,1.13605 -1.67829,1.13605c-0.7875,0 -1.97521,-0.32275 -1.97521,-1.34261c0,-0.99406 0.98114,-2.07849 3.57603,-2.11722v-0.51638c0,-1.16189 -0.7617,-1.65246 -1.35555,-1.65246c-0.51639,0 -1.13607,0.23237 -1.433,0.77458c0.19365,0 0.65841,0 0.65841,0.52932c0,0.30983 -0.21947,0.5293 -0.52931,0.5293c-0.29692,0 -0.54221,-0.18074 -0.54221,-0.55512c0,-0.83913 0.81333,-1.53627 1.87194,-1.53627c0.56804,0 1.14898,0.18073 1.60083,0.59385c0.56804,0.50348 0.56803,1.01989 0.56803,1.71702zM377.86988,251.49318c-0.46475,0.02583 -2.65944,0.18074 -2.65944,1.88485c0,0.61967 0.52931,1.08443 1.1619,1.08443c0.55513,0 1.49755,-0.42602 1.49755,-1.69118z"/><path d="M385.32914,253.77824c0.30984,0.41312 0.54222,0.43894 1.22645,0.43894v0.37439c-0.7746,-0.02582 -0.80043,-0.02582 -1.22645,-0.02582c-0.36148,0 -0.99406,0 -1.32971,0.02582v-0.37439c0.34858,-0.01291 0.45186,-0.21946 0.45186,-0.32275c0,-0.07746 0,-0.10327 -0.21947,-0.3873l-1.05861,-1.38135c-0.30984,0.40022 -0.73586,0.92951 -0.9295,1.20061c-0.1291,0.16782 -0.21947,0.27111 -0.21947,0.47767c0,0.18074 0.05164,0.37438 0.36148,0.41312v0.37439c-0.64549,-0.02582 -0.67132,-0.02582 -1.16188,-0.02582c-0.55513,0 -0.58093,0 -1.07152,0.02582v-0.37439c0.55513,-0.01291 1.12315,-0.15491 1.69118,-0.85205c0.1291,-0.16782 1.13607,-1.43299 1.13607,-1.47171c0,-0.03874 -0.05165,-0.11619 -0.07746,-0.14201l-1.51045,-1.97523c-0.27111,-0.34858 -0.51639,-0.37438 -1.1748,-0.37438v-0.37437c0.7875,0.02581 0.81331,0.0258 1.23935,0.0258c0.34858,0 1.00698,0.00001 1.32972,-0.0258v0.37437c-0.3873,0.01291 -0.45184,0.24531 -0.45184,0.32275c0,0.09038 0.07746,0.20655 0.11619,0.2582l1.00698,1.32972l0.82623,-1.04572c0.07745,-0.10327 0.19366,-0.24528 0.19366,-0.46475c0,-0.29692 -0.20655,-0.37438 -0.37438,-0.40022v-0.37438c0.64549,0.02581 0.67132,0.02582 1.1619,0.02582c0.50348,0 0.52929,-0.00001 1.08443,-0.02582v0.37438c-0.41311,0 -1.01988,0.09036 -1.54919,0.68422c-0.24529,0.27111 -0.7875,0.96824 -1.16188,1.45882z"/></g><g fill="#000000" stroke="none" stroke-width="1"><path d="M333.79025,253.80808c0.01295,0.3873 0.33565,0.3873 0.98113,0.3873v0.37439c-0.33565,-0.02582 -1.03279,-0.02582 -1.40714,-0.02582c-0.36148,0 -1.05861,0 -1.39426,0.02582v-0.37439c0.83913,0 0.98114,0 0.98114,-0.58094v-3.03381c0,-0.7875 -0.18073,-1.44591 -0.98114,-1.44591c-0.80042,0 -1.69119,0.72295 -1.69119,2.07849v2.40124c0,0.58094 0.15491,0.58094 0.98115,0.58094v0.37439c-0.33565,-0.02582 -1.03279,-0.02582 -1.40717,-0.02582c-0.36147,0 -1.05861,0 -1.39426,0.02582v-0.37439c0.83916,0 0.98114,0 0.98114,-0.58094v-3.03381c0,-0.7875 -0.18074,-1.44591 -0.98114,-1.44591c-0.80041,0 -1.69119,0.72295 -1.69119,2.07849v2.40123c0,0.58094 0.15494,0.58094 0.98116,0.58094v0.37438c-0.33565,-0.02582 -1.03278,-0.02581 -1.40717,-0.02581c-0.36148,0 -1.05861,-0.00001 -1.39426,0.02581v-0.37438c0.83913,0 0.98114,0 0.98114,-0.58094v-3.49857c0,-0.63259 -0.10327,-0.72295 -0.98114,-0.72295v-0.37439l1.75573,-0.14202v1.32971h0.01292c0.10329,-0.2582 0.59386,-1.32971 1.84611,-1.32971c0.81333,0 1.51046,0.28401 1.69118,1.27808c0.20656,-0.50348 0.74877,-1.27808 1.8203,-1.27808c0.43894,0 1.0457,0.07746 1.42008,0.58095c0.2969,0.4131 0.2969,0.77458 0.2969,1.9752z"/><path d="M336.64203,247.23696c-0.30984,0 -0.61967,-0.24529 -0.61967,-0.63257c0,-0.34858 0.28402,-0.61968 0.61967,-0.61968c0.36148,0 0.63259,0.29691 0.63259,0.63258c0,0.28402 -0.23237,0.61968 -0.63259,0.61968zM337.24881,248.8765v4.75084c0,0.50348 0.05164,0.56803 0.89078,0.56803v0.37439c-0.43894,-0.02582 -1.18772,-0.02582 -1.32972,-0.02582c-0.37439,0 -0.99406,0 -1.35554,0.02582v-0.37439c0.83914,0 0.98116,0 0.98116,-0.58094v-3.51148c0,-0.6326 -0.1162,-0.71004 -0.94243,-0.71004v-0.37439z"/><path d="M344.27193,253.80808c0.0129,0.3873 0.33567,0.3873 0.98116,0.3873v0.37439c-0.33565,-0.02582 -1.03279,-0.02582 -1.40718,-0.02582c-0.36147,0 -1.05861,0 -1.39426,0.02582v-0.37439c0.83916,0 0.98115,0 0.98115,-0.58094v-3.03381c0,-0.7875 -0.18075,-1.44591 -0.98115,-1.44591c-0.80041,0 -1.69118,0.72295 -1.69118,2.07849v2.40124c0,0.58094 0.15492,0.58094 0.98115,0.58094v0.37439c-0.33565,-0.02582 -1.03278,-0.02582 -1.40716,-0.02582c-0.36148,0 -1.05861,0 -1.39427,0.02582v-0.37439c0.83913,0 0.98116,0 0.98116,-0.58094v-3.49858c0,-0.63259 -0.10327,-0.72294 -0.98116,-0.72294v-0.37439l1.75574,-0.14202v1.32971h0.01291c0.10329,-0.2582 0.59385,-1.32971 1.84611,-1.32971c0.43893,0 1.0457,0.07746 1.42008,0.58095c0.29694,0.4131 0.29694,0.77459 0.29694,1.9752z"/></g><g fill="#000000" stroke="none" stroke-width="1"><path d="M372.55016,314.31476c-1.51877,0 -2.85102,-1.27896 -2.85102,-2.98426c0,-1.67865 1.26564,-3.09081 2.86435,-3.09081c1.54542,0 2.85101,1.37221 2.85101,3.09081c0,1.67865 -1.29229,2.98426 -2.86434,2.98426zM374.05561,313.12904c0.34639,-0.62615 0.34638,-1.45216 0.34638,-1.91845c0,-0.49293 0.00001,-1.33227 -0.413,-1.9451c-0.35972,-0.51958 -0.91926,-0.75939 -1.43884,-0.75939c-0.4663,0 -1.05249,0.21317 -1.42552,0.78604c-0.413,0.59951 -0.413,1.41219 -0.413,1.91845c0,0.55955 0.01331,1.34557 0.37303,1.94509c0.38636,0.65281 0.98588,0.86597 1.47881,0.86597c0.50625,0 1.1191,-0.25313 1.49212,-0.89261z"/><path d="M378.02299,313.16899c0,0.4796 0.02664,0.62616 0.9992,0.62616h0.26645v0.38636c-0.30642,-0.02665 -1.25232,-0.02665 -1.61203,-0.02665c-0.39967,0 -1.13242,0 -1.50545,0.02665v-0.38636c0.86597,0 1.01251,0 1.01251,-0.59951v-3.61041c0,-0.65281 -0.10658,-0.74605 -1.01251,-0.74605v-0.38636l1.78522,-0.14656v1.47881h0.01333c0.07995,-0.25313 0.4663,-1.47881 1.5987,-1.47881c0.57288,0 0.93259,0.37303 0.93259,0.77271c0,0.3597 -0.26646,0.5329 -0.53291,0.5329c-0.21317,0 -0.51958,-0.14654 -0.51958,-0.5329c0,-0.35972 0.21315,-0.43966 0.31974,-0.49293c-0.05331,-0.01333 -0.07993,-0.01333 -0.18651,-0.01333c-1.02584,0 -1.55874,1.21236 -1.55874,2.50465z"/></g><g fill="#000000" stroke="none" stroke-width="1"><path d="M329.6599,313.10785c0,0.19984 0,0.90594 0.50626,0.90594c0.18651,0 0.50625,-0.10658 0.50625,-0.86597v-0.74607h0.29311v0.74607c0,1.06579 -0.77271,1.25232 -1.05249,1.25232c-0.57288,0 -0.98588,-0.47961 -1.03915,-1.10577c-0.25313,0.63948 -0.85265,1.17238 -1.73194,1.17238c-0.81268,0 -2.03835,-0.33307 -2.03835,-1.38554c0,-1.02584 1.01251,-2.14494 3.69035,-2.18491v-0.5329c0,-1.19903 -0.78604,-1.70529 -1.39887,-1.70529c-0.53291,0 -1.17239,0.23981 -1.47881,0.79935c0.19984,0 0.67945,0 0.67945,0.54624c0,0.31975 -0.22649,0.54622 -0.54622,0.54622c-0.30642,0 -0.55955,-0.18651 -0.55955,-0.57288c0,-0.86596 0.83933,-1.58538 1.93178,-1.58538c0.58619,0 1.1857,0.18652 1.652,0.61284c0.58619,0.51958 0.5862,1.05248 0.5862,1.77191zM328.79394,311.13613c-0.4796,0.02666 -2.74445,0.18651 -2.74445,1.94511c0,0.63948 0.54623,1.11909 1.19903,1.11909c0.57288,0 1.54542,-0.43965 1.54542,-1.74525z"/><path d="M336.94371,313.5475c0.01332,0.39968 0.34638,0.39968 1.01252,0.39968v0.38636c-0.34639,-0.02665 -1.06582,-0.02665 -1.45217,-0.02665c-0.37303,0 -1.09245,0 -1.43884,0.02665v-0.38636c0.86597,0 1.01252,0 1.01252,-0.59951v-3.13079c0,-0.81268 -0.18651,-1.49213 -1.01252,-1.49213c-0.82599,0 -1.74525,0.74606 -1.74525,2.14493v2.47799c0,0.59951 0.15987,0.59951 1.01252,0.59951v0.38636c-0.34639,-0.02665 -1.06579,-0.02665 -1.45216,-0.02665c-0.37304,0 -1.09246,0 -1.43884,0.02665v-0.38636c0.86596,0 1.01252,0 1.01252,-0.59951v-3.61041c0,-0.65281 -0.10658,-0.74606 -1.01252,-0.74606v-0.38635l1.81187,-0.14656v1.37222h0.01333c0.10659,-0.26645 0.61283,-1.37222 1.90512,-1.37222c0.45297,0 1.07912,0.07993 1.46548,0.59952c0.30642,0.42631 0.30643,0.79935 0.30643,2.03834z"/><path d="M344.08401,305.08768v8.11343c0,0.65281 0.10658,0.74607 1.01252,0.74607v0.38636l-1.87848,0.13323v-0.91926c-0.18651,0.25313 -0.77271,0.91926 -1.78523,0.91926c-1.46548,0 -2.73113,-1.30562 -2.73113,-2.99757c0,-1.70529 1.33227,-3.0109 2.87769,-3.0109c0.81266,0 1.38554,0.46628 1.66532,0.85264v-2.94428c0,-0.65281 -0.10658,-0.74606 -1.01252,-0.74606v-0.38636zM343.21803,310.03039c0,-0.2398 0,-0.26645 -0.15987,-0.49294c-0.13323,-0.21317 -0.59952,-0.81268 -1.42551,-0.81268c-0.66613,0 -1.19902,0.413 -1.46547,0.82601c-0.29309,0.43964 -0.45297,0.97255 -0.45297,1.93177c0,2.58459 1.43883,2.71779 1.78522,2.71779c0.66613,0 1.21235,-0.38635 1.5321,-0.85264c0.18651,-0.29309 0.18652,-0.33306 0.18652,-0.57286z"/></g><g fill="#000000" stroke="none" stroke-width="1"><path d="M371.78486,283.77126c0.01332,0.39968 0.34638,0.39968 1.01252,0.39968v0.38636c-0.34639,-0.02665 -1.0658,-0.02665 -1.45215,-0.02665c-0.37303,0 -1.09245,0 -1.43884,0.02665v-0.38636c0.86597,0 1.01252,0 1.01252,-0.59951v-3.13079c0,-0.81268 -0.18653,-1.49213 -1.01252,-1.49213c-0.82599,0 -1.74525,0.74606 -1.74525,2.14493v2.47799c0,0.59951 0.15987,0.59951 1.01252,0.59951v0.38636c-0.34639,-0.02665 -1.06579,-0.02665 -1.45216,-0.02665c-0.37304,0 -1.09245,0 -1.43883,0.02665v-0.38636c0.86596,0 1.01251,0 1.01251,-0.59951v-3.61041c0,-0.65281 -0.10658,-0.74605 -1.01251,-0.74605v-0.38636l1.81187,-0.14656v1.37223h0.01333c0.10659,-0.26645 0.61283,-1.37223 1.90512,-1.37223c0.45297,0 1.07912,0.07994 1.46549,0.59953c0.30642,0.42631 0.30642,0.79935 0.30642,2.03834z"/><path d="M376.32632,284.69052c-1.51877,0 -2.85104,-1.27896 -2.85104,-2.98426c0,-1.67865 1.26563,-3.09081 2.86435,-3.09081c1.54542,0 2.85102,1.37221 2.85102,3.09081c0,1.67865 -1.29229,2.98426 -2.86435,2.98426zM377.83175,283.50484c0.34639,-0.62615 0.34639,-1.45216 0.34639,-1.91845c0,-0.49293 0,-1.33227 -0.413,-1.9451c-0.35972,-0.51958 -0.91925,-0.75939 -1.43883,-0.75939c-0.4663,0 -1.05249,0.21317 -1.42551,0.78604c-0.413,0.59951 -0.413,1.41219 -0.413,1.91845c0,0.55955 0.01332,1.34557 0.37303,1.94509c0.38636,0.65281 0.98587,0.86597 1.47881,0.86597c0.50625,0 1.11909,-0.25313 1.49212,-0.89261z"/><path d="M381.8125,282.93196c0,0.22649 0,1.46549 0.90593,1.46549c0.51958,0 0.90593,-0.55955 0.90593,-1.51877v-0.73274h0.29309v0.75938c0,0.95923 -0.43963,1.78523 -1.27897,1.78523c-0.7061,0 -1.69197,-0.30641 -1.69197,-1.78523v-3.70367h-1.13242v-0.26645c1.21236,-0.03996 1.69197,-1.31894 1.70528,-2.57125h0.29311v2.45135h1.87847v0.38636h-1.87847z"/></g><g fill="#000000" stroke="none" stroke-width="1"><path d="M332.46212,277.39954c-0.31973,0 -0.63948,-0.25313 -0.63948,-0.65281c0,-0.35972 0.29309,-0.63949 0.63948,-0.63949c0.37303,0 0.65281,0.30642 0.65281,0.65281c0,0.29311 -0.2398,0.63949 -0.65281,0.63949zM333.08828,279.09153v4.9027c0,0.51958 0.05329,0.58619 0.91924,0.58619v0.38636c-0.45297,-0.02665 -1.22568,-0.02665 -1.37222,-0.02665c-0.38636,0 -1.02584,0 -1.39887,0.02665v-0.38636c0.86597,0 1.01252,0 1.01252,-0.59951v-3.62373c0,-0.65281 -0.11991,-0.73275 -0.97255,-0.73275v-0.38636z"/><path d="M336.69886,283.95421c0,0.4796 0.02663,0.62617 0.99919,0.62617h0.26645v0.38636c-0.30642,-0.02665 -1.25232,-0.02665 -1.61203,-0.02665c-0.39967,0 -1.13241,0 -1.50544,0.02665v-0.38636c0.86597,0 1.01252,0 1.01252,-0.59951v-4.3698h-1.03917v-0.38635h1.03917v-1.55875c0,-1.3589 1.05247,-2.0783 1.98505,-2.0783c0.63949,0 1.11909,0.38634 1.11909,0.87928c0,0.31975 -0.21316,0.5329 -0.5329,0.5329c-0.30642,0 -0.51958,-0.21316 -0.51958,-0.51958c0,-0.38636 0.33307,-0.50625 0.38636,-0.51958c-0.15987,-0.07993 -0.35973,-0.10658 -0.4663,-0.10658c-0.54622,0 -1.15907,0.61284 -1.15907,1.81187v1.55875h1.5321v0.38636h-1.50545z"/></g></g></g></g></svg>