<svg version="1.1" xmlns="http://www.w3.org/2000/svg" xmlns:xlink="http://www.w3.org/1999/xlink" width="23.25" height="45.75" viewBox="0,0,23.25,45.75"><g transform="translate(-228.375,-157.125)"><g data-paper-data="{&quot;isPaintingLayer&quot;:true}" fill-rule="nonzero" stroke="none" stroke-linecap="butt" stroke-linejoin="miter" stroke-miterlimit="10" stroke-dasharray="" stroke-dashoffset="0" style="mix-blend-mode: normal"><path d="M236.83365,176.07272c0.68727,-1.14547 1.88181,-1.8 3.14181,-1.8c1.62,0 2.97819,1.08 2.97819,2.48727c0,1.03091 -0.57273,2.14364 -1.81637,2.81455c1.11273,0.34364 2.25817,1.3582 2.25817,2.84728c0,1.71819 -1.44,3.30547 -3.43636,3.30547c-0.65454,0 -2.15998,-0.16364 -3.35453,-1.70182l0.18,-0.98182c0.71999,1.11273 2.01272,1.68546 3.14182,1.68546c1.26,0 2.01271,-1.04728 2.01271,-2.32363c0,-0.8182 -0.36,-2.34001 -2.12727,-2.34001h-1.16181v-0.99819c1.16181,-0.09818 1.19454,-0.09818 1.29273,-0.11454c0.99818,-0.22909 1.66908,-1.19456 1.66908,-2.19274c0,-1.04728 -0.80181,-1.53818 -1.65273,-1.53818c-0.99818,0 -2.06181,0.58908 -2.53635,1.73454z" fill="#ff0000" stroke-width="1"/><path d="M228.375,202.875v-45.75h23.25v45.75z" fill="none" stroke-width="0"/></g></g></svg>