<svg version="1.1" xmlns="http://www.w3.org/2000/svg" xmlns:xlink="http://www.w3.org/1999/xlink" width="31.25" height="16.02979" viewBox="0,0,31.25,16.02979"><g transform="translate(-224.375,-171.98512)"><g data-paper-data="{&quot;isPaintingLayer&quot;:true}" fill-rule="nonzero" stroke="none" stroke-linecap="butt" stroke-linejoin="miter" stroke-miterlimit="10" stroke-dasharray="" stroke-dashoffset="0" style="mix-blend-mode: normal"><path d="M224.375,188.01491v-16.02979h31.25v16.02979z" fill-opacity="0.00392" fill="#ffffff" stroke-width="0"/><g fill="#000000" stroke-width="1"><path d="M227.2864,182.90742c-0.16798,0.09046 -0.19383,0.09046 -0.23259,0.09046c-0.14214,0 -0.25844,-0.11629 -0.25844,-0.25844c0,-0.11629 0.05169,-0.19383 0.24552,-0.28427l6.78394,-3.20461l-6.77101,-3.19168c-0.15507,-0.07753 -0.25844,-0.1163 -0.25844,-0.28428c0,-0.14213 0.1163,-0.25843 0.25844,-0.25843c0.02584,0 0.07753,0 0.25843,0.09045l7.11991,3.37259c0.16798,0.07753 0.25843,0.1163 0.25843,0.28428c0,0.10337 -0.05168,0.19383 -0.25843,0.28427zM227.2864,185.41425c-0.16798,0.09045 -0.19383,0.09045 -0.23259,0.09045c-0.14214,0 -0.25844,-0.11631 -0.25844,-0.25844c0,-0.14213 0.1163,-0.21967 0.24552,-0.28427l7.31373,-3.45012c0.09045,0 0.33597,0 0.33597,0.25844c0,0.10338 -0.05168,0.19383 -0.25843,0.28427z"/><path d="M240.00957,183.74733c-0.07753,0.1809 -0.1163,0.27135 -0.28428,0.27135c-0.11629,0 -0.19383,-0.05169 -0.2972,-0.27135l-3.21753,-7.27496c-0.07753,-0.15507 -0.07753,-0.18091 -0.07753,-0.20675c0,-0.14214 0.11629,-0.25844 0.25843,-0.25844c0.09046,0 0.19383,0.02585 0.29721,0.27137l3.03662,6.84854l3.03662,-6.83563c0.09045,-0.19382 0.16798,-0.28428 0.2972,-0.28428c0.14214,0 0.25844,0.1163 0.25844,0.25844c0,0.06461 -0.01293,0.09045 -0.09046,0.25843z"/><path d="M246.49823,179.2764c0.02584,-0.02584 0.09045,-0.09045 0.09045,-0.12922c0,-0.02584 -0.03877,-0.12922 -0.06461,-0.21967c-0.32305,-0.8916 -0.43934,-1.77029 -0.43934,-2.37761c0,-1.3568 0.90452,-2.05454 1.69276,-2.05454c1.05959,0 1.07251,1.4989 1.07251,1.62812c0,0.96914 -1.18881,2.24839 -1.52477,2.6102c0.59441,1.55062 1.91243,3.23044 2.13209,3.5018c0.05169,-0.06461 0.45227,-0.55564 0.91745,-1.30509c0.32305,-0.5298 0.67194,-1.11128 0.93037,-1.58938c0.05169,-0.10337 0.05169,-0.1809 0.05169,-0.23259c0,-0.3618 -0.36182,-0.56855 -0.90453,-0.56855v-0.37473c0.2972,0.02584 1.1242,0.02584 1.47309,0.02584c0.42641,0 0.85284,-0.01292 1.27926,-0.02584v0.37473c-1.12421,0.01292 -1.39556,0.49102 -1.84782,1.27925c-0.67194,1.13712 -1.11128,1.8995 -1.71861,2.64896c0.54271,0.63317 1.12419,1.16296 1.75736,1.16296c0.63318,0 1.43432,-0.4781 1.46016,-1.46016h0.28432c-0.02585,1.09835 -0.82703,1.83489 -1.79616,1.83489c-1.09836,0 -1.8995,-0.7107 -2.22255,-0.99498c-0.65901,0.62025 -1.43431,0.99498 -2.30007,0.99498c-1.21465,0 -2.28716,-0.80115 -2.28716,-1.92534c0,-0.51687 0.25844,-0.9433 0.4781,-1.1888zM248.56571,176.13641c0,-0.25844 -0.05169,-1.38263 -0.76239,-1.38263c-0.46518,0 -0.95621,0.45227 -0.95621,1.49893c0,0.56857 0.1163,1.44725 0.38766,2.19671c0.27136,-0.31012 1.33095,-1.47308 1.33095,-2.313zM245.91675,180.32306c-0.34889,0.47811 -0.40058,1.02082 -0.40058,1.35678c0,0.78823 0.36182,1.95119 1.42141,1.95119c0.37473,0 1.16296,-0.09045 1.96411,-0.83991c-0.827,-0.91745 -1.67984,-2.18378 -2.19671,-3.35966c-0.10337,0.11629 -0.77531,0.85284 -0.78822,0.8916z"/></g></g></g></svg>