<svg version="1.1" xmlns="http://www.w3.org/2000/svg" xmlns:xlink="http://www.w3.org/1999/xlink" width="755.33156" height="360" viewBox="0,0,755.33156,360"><g transform="translate(137.66578,0)"><g data-paper-data="{&quot;isPaintingLayer&quot;:true}" fill-rule="nonzero" stroke-linejoin="miter" stroke-miterlimit="10" stroke-dasharray="" stroke-dashoffset="0" style="mix-blend-mode: normal"><path d="M43.25,277.4v-188.5h395.5v188.5z" fill="none" stroke="#005fff" stroke-width="0" stroke-linecap="butt"/><g fill="none" stroke="#000000" stroke-width="0.75" stroke-linecap="round"><path d="M187.30683,175.57714v8.84572"/><path d="M182.88397,180h8.84572"/></g><path d="M193.35806,173.40058c-0.49279,0 -0.85702,0.47136 -1.01771,1.11412l-0.37495,1.45694c-0.1714,0.70704 -0.21426,0.87844 -0.21426,1.11412c0,0.43922 0.20354,0.71776 0.57849,0.71776c0.48208,0 1.10341,-0.43923 1.39265,-1.38194c0.03214,-0.0857 0.04285,-0.13926 0.13926,-0.13926c0.06428,0 0.10713,0.04284 0.10713,0.09641c0,0.23568 -0.57849,1.63905 -1.6712,1.63905c-0.39637,0 -0.93201,-0.21426 -1.10341,-0.84631c-0.22497,0.43922 -0.5892,0.84631 -1.10342,0.84631c-0.46065,0 -0.96415,-0.20354 -0.96415,-0.65348c0,-0.34281 0.27853,-0.56778 0.53564,-0.56778c0.20354,0 0.36423,0.12856 0.36423,0.34281c0,0.12855 -0.0857,0.44993 -0.47136,0.52492c0.22497,0.13926 0.49278,0.13926 0.54635,0.13926c0.56778,0 0.87844,-0.5892 1.03914,-1.23196l0.36423,-1.46765c0.12855,-0.51421 0.19283,-0.7606 0.19283,-0.99628c0,-0.2571 -0.09642,-0.70704 -0.57849,-0.70704c-0.31067,0 -1.02842,0.22497 -1.39265,1.41408c-0.02142,0.04285 -0.04285,0.10713 -0.12855,0.10713c-0.07499,0 -0.11784,-0.05357 -0.11784,-0.09642c0,-0.23568 0.57849,-1.63905 1.67119,-1.63905c0.19283,0 0.85702,0.04285 1.10342,0.84631c0.09641,-0.20354 0.46065,-0.84631 1.11412,-0.84631c0.44994,0 0.96415,0.20354 0.96415,0.65348c0,0.28924 -0.22497,0.56777 -0.54635,0.56777c-0.14997,0 -0.35352,-0.0857 -0.35352,-0.34281c0,-0.20354 0.12855,-0.46065 0.47136,-0.52493c-0.22497,-0.13926 -0.52493,-0.13926 -0.54636,-0.13926z" fill="#000000" stroke="none" stroke-width="1" stroke-linecap="butt"/><path d="M-137.66578,360v-360h755.33156v360z" fill="none" stroke="#005fff" stroke-width="0" stroke-linecap="butt"/><text transform="translate(212.78561,183.48432) scale(0.29036,0.29036)" font-size="40" xml:space="preserve" fill="#000000" fill-rule="nonzero" stroke-opacity="0" stroke="#000000" stroke-width="0" stroke-linecap="butt" stroke-linejoin="miter" stroke-miterlimit="10" stroke-dasharray="" stroke-dashoffset="0" font-family="&quot;Microsoft YaHei&quot;, &quot;微软雅黑&quot;, STXihei, &quot;华文细黑&quot;" font-weight="normal" text-anchor="start" style="mix-blend-mode: normal"><tspan x="0" dy="0">导入</tspan></text><path d="M94.69443,254.21179v-133h301v133z" fill="none" stroke="none" stroke-width="0" stroke-linecap="butt"/><path d="M177.33334,193v-26h166.33333v26z" fill-opacity="0.00392" fill="#ffffff" stroke="#005fff" stroke-width="0" stroke-linecap="butt"/></g></g></svg>