<svg version="1.1" xmlns="http://www.w3.org/2000/svg" xmlns:xlink="http://www.w3.org/1999/xlink" width="17" height="35.33333" viewBox="0,0,17,35.33333"><g transform="translate(-231.50002,-162.33335)"><g data-paper-data="{&quot;isPaintingLayer&quot;:true}" fill-rule="nonzero" stroke="none" stroke-linecap="butt" stroke-linejoin="miter" stroke-miterlimit="10" stroke-dasharray="" stroke-dashoffset="0" style="mix-blend-mode: normal"><path d="M231.50002,197.66668v-35.33333h17v35.33333z" fill="none" stroke-width="0"/><path d="M241.11325,184.95643c0.42594,0 1.70376,0 1.83928,-0.15489c0.1936,-0.29042 0.32915,-1.1423 0.42595,-1.72313h0.48402l-0.54209,3.36881h-7.18293c0,-0.46466 0,-0.50338 0.21298,-0.71636l3.71731,-4.14326c1.06485,-1.20038 2.03289,-2.72991 2.03289,-4.2788c0,-1.58759 -0.83252,-3.15584 -2.59435,-3.15584c-1.12294,0 -2.16843,0.71636 -2.61373,1.97483c0.0581,-0.01937 0.09679,-0.01937 0.25169,-0.01937c0.67764,0 1.02613,0.50338 1.02613,1.00677c0,0.7938 -0.67764,1.02614 -1.00676,1.02614c-0.0581,0 -1.02614,0 -1.02614,-1.08422c0,-1.72314 1.43273,-3.50434 3.6205,-3.50434c2.36204,0 4.10452,1.54886 4.10452,3.75603c0,1.9361 -1.16165,2.9816 -4.18196,5.65343l-2.05228,1.99419z" fill="#ff0000" stroke-width="1"/></g></g></svg>