<svg version="1.1" xmlns="http://www.w3.org/2000/svg" xmlns:xlink="http://www.w3.org/1999/xlink" width="20.57143" height="35.33333" viewBox="0,0,20.57143,35.33333"><g transform="translate(-231.50001,-162.33335)"><g data-paper-data="{&quot;isPaintingLayer&quot;:true}" fill-rule="nonzero" stroke="none" stroke-linecap="butt" stroke-linejoin="miter" stroke-miterlimit="10" stroke-dasharray="" stroke-dashoffset="0" style="mix-blend-mode: normal"><path d="M231.50001,197.66668v-35.33333h20.57143v35.33333z" fill="none" stroke-width="0"/><path d="M242.14689,190.28239c-0.22599,0 -1.91063,-1.33538 -3.12274,-3.80069c-1.06831,-2.19824 -1.35592,-4.64301 -1.35592,-6.47145c0,-2.52695 0.47251,-4.72519 1.52027,-6.80016c1.00666,-2.01335 2.6913,-3.49248 2.95837,-3.49248c0.08216,0 0.18489,0.04096 0.18489,0.16426c0,0.06172 0,0.10281 -0.20544,0.2877c-2.38315,2.42418 -3.34871,5.8551 -3.34871,9.84068c0,4.19103 1.15049,7.58084 3.20491,9.65581c0.34925,0.34925 0.34925,0.39034 0.34925,0.45198c0,0.12325 -0.10273,0.16435 -0.18489,0.16435z" fill="#ff0000" stroke-width="1"/></g></g></svg>