<svg version="1.1" xmlns="http://www.w3.org/2000/svg" xmlns:xlink="http://www.w3.org/1999/xlink" width="23.25" height="45.75" viewBox="0,0,23.25,45.75"><g transform="translate(-228.375,-157.125)"><g data-paper-data="{&quot;isPaintingLayer&quot;:true}" fill-rule="nonzero" stroke="none" stroke-linecap="butt" stroke-linejoin="miter" stroke-miterlimit="10" stroke-dasharray="" stroke-dashoffset="0" style="mix-blend-mode: normal"><path d="M243.39547,182.42183c0,1.73456 -1.45637,3.30547 -3.40364,3.30547c-1.88181,0 -3.38727,-1.52182 -3.38727,-3.30547c0,-1.42364 1.06364,-2.45455 2.24183,-2.86364c-1.45637,-0.47454 -2.01273,-1.55455 -2.01273,-2.42182c0,-1.50547 1.3418,-2.86364 3.17453,-2.86364c1.76727,0 3.15819,1.32545 3.15819,2.86364c0,0.86728 -0.55637,1.94728 -2.01273,2.42182c1.09636,0.37637 2.24181,1.37456 2.24181,2.86364zM242.02093,177.13636c0,-1.06364 -0.73636,-1.91454 -2.02909,-1.91454c-1.21091,0 -2.01271,0.78544 -2.01271,1.91454c0,1.1291 0.76908,1.93092 2.02908,1.93092c1.17819,0 2.01273,-0.75274 2.01273,-1.93092zM242.07002,182.40548c0,-1.68547 -1.1291,-2.34001 -2.07819,-2.34001c-0.88364,0 -2.0618,0.62182 -2.0618,2.34001c0,1.53818 0.94907,2.32363 2.07817,2.32363c1.04727,0 2.06182,-0.73637 2.06182,-2.32363z" fill="#ff0000" stroke-width="1"/><path d="M228.375,202.875v-45.75h23.25v45.75z" fill="none" stroke-width="0"/></g></g></svg>