<svg version="1.1" xmlns="http://www.w3.org/2000/svg" xmlns:xlink="http://www.w3.org/1999/xlink" width="17" height="35.33333" viewBox="0,0,17,35.33333"><g transform="translate(-231.50002,-162.33336)"><g data-paper-data="{&quot;isPaintingLayer&quot;:true}" fill-rule="nonzero" stroke="none" stroke-linecap="butt" stroke-linejoin="miter" stroke-miterlimit="10" stroke-dasharray="" stroke-dashoffset="0" style="mix-blend-mode: normal"><path d="M231.50002,197.66669v-35.33333h17v35.33333z" fill="none" stroke-width="0"/><path d="M237.64078,180.0194c0.19416,-0.54368 0.83495,-2.03883 2.56311,-2.03883c1.94175,0 3.74757,1.72815 3.74757,4.31069c0,2.52426 -1.80582,4.36893 -3.92233,4.36893c-1.65048,0 -3.98058,-1.20389 -3.98058,-6.54369c0,-4.27185 2.5631,-6.77669 5.0097,-6.77669c1.68931,0 2.42719,0.9903 2.42719,2c0,0.56311 -0.33011,0.85437 -0.81554,0.85437c-0.50485,0 -0.79612,-0.36894 -0.79612,-0.79611c0,-0.79612 0.73787,-0.79612 0.97087,-0.79612c-0.36894,-0.58251 -1.06796,-0.79612 -1.76699,-0.79612c-1.04855,0 -3.4369,0.7767 -3.4369,5.68931zM241.99029,184.87377c0.36894,-0.73786 0.36893,-1.61165 0.36893,-2.60193c0,-0.83496 0,-1.80584 -0.31068,-2.52427c-0.29127,-0.66019 -0.85436,-1.37865 -1.92232,-1.37865c-1.74757,0 -2.44661,1.92234 -2.44661,3.45631c0,1.35923 0.19418,2.31068 0.36894,2.81554c0.17476,0.40777 0.75728,1.49514 1.98057,1.49514c0.7767,0 1.47574,-0.3301 1.96117,-1.26214z" fill="#ff0000" stroke-width="1"/></g></g></svg>