<svg version="1.1" xmlns="http://www.w3.org/2000/svg" xmlns:xlink="http://www.w3.org/1999/xlink" width="23.25" height="45.75" viewBox="0,0,23.25,45.75"><g transform="translate(-228.375,-157.125)"><g data-paper-data="{&quot;isPaintingLayer&quot;:true}" fill-rule="nonzero" stroke="none" stroke-linecap="butt" stroke-linejoin="miter" stroke-miterlimit="10" stroke-dasharray="" stroke-dashoffset="0" style="mix-blend-mode: normal"><path d="M241.66818,189.15681c-0.1756,0 -1.4846,-1.18921 -2.42644,-3.38464c-0.83009,-1.9576 -1.05359,-4.13473 -1.05359,-5.76302c0,-2.25033 0.36716,-4.20793 1.18129,-6.05575c0.78221,-1.79294 2.09121,-3.1102 2.29873,-3.1102c0.06385,0 0.14367,0.0366 0.14367,0.14636c0,0.05488 0,0.09147 -0.15964,0.25613c-1.85176,2.15885 -2.60204,5.21417 -2.60204,8.76346c0,3.73225 0.89395,6.75097 2.49029,8.59879c0.27138,0.31102 0.27138,0.34761 0.27138,0.4025c0,0.10977 -0.07982,0.14636 -0.14367,0.14636z" fill="#ff0000" stroke-width="1"/><path d="M228.375,202.875v-45.75h23.25v45.75z" fill="none" stroke-width="0"/></g></g></svg>