<svg version="1.1" xmlns="http://www.w3.org/2000/svg" xmlns:xlink="http://www.w3.org/1999/xlink" width="17" height="35.33333" viewBox="0,0,17,35.33333"><g transform="translate(-231.50001,-162.33335)"><g data-paper-data="{&quot;isPaintingLayer&quot;:true}" fill-rule="nonzero" stroke="none" stroke-linecap="butt" stroke-linejoin="miter" stroke-miterlimit="10" stroke-dasharray="" stroke-dashoffset="0" style="mix-blend-mode: normal"><path d="M231.50001,197.66668v-35.33333h17v35.33333z" fill="none" stroke-width="0"/><path d="M239.85249,182.04575c-2.2031,0 -3.9341,-1.92771 -3.9341,-4.38654c0,-1.47529 0.45242,-2.30145 1.2589,-3.18663c0.84583,-0.88518 1.80969,-1.23924 2.89157,-1.23924c1.75068,0 4.01277,1.3376 4.01277,6.62898c0,4.22917 -2.3998,6.90437 -4.93729,6.90437c-1.67199,0 -2.73419,-0.80649 -2.73419,-2.12442c0,-0.76716 0.59011,-0.94419 0.90485,-0.94419c0.43275,0 0.90483,0.29507 0.90483,0.90485c0,0.3344 -0.15736,0.90485 -1.02286,0.90485c0.53111,0.6688 1.59332,0.70814 1.92771,0.70814c1.14089,0 3.18663,-0.90485 3.18663,-5.50777v-0.62945c-0.45242,1.1409 -1.25892,1.96706 -2.45881,1.96706zM242.27196,178.05262c0,-0.90483 -0.07869,-2.14409 -0.31474,-2.77355c-0.33439,-0.88518 -0.98351,-1.55398 -1.88836,-1.55398c-0.68847,0 -1.43594,0.25572 -1.96705,1.23926c-0.41308,0.7278 -0.41308,1.65232 -0.41308,2.71453c0,0.96387 0,1.94739 0.35406,2.6752c0.60978,1.23924 1.51463,1.23924 1.82936,1.23924c1.731,0 2.3998,-1.90804 2.3998,-3.54071z" fill="#ff0000" stroke-width="1"/></g></g></svg>