<svg version="1.1" xmlns="http://www.w3.org/2000/svg" xmlns:xlink="http://www.w3.org/1999/xlink" width="17.6" height="55.6" viewBox="0,0,17.6,55.6"><g transform="translate(-231.2,-152.2)"><g data-paper-data="{&quot;isPaintingLayer&quot;:true}" fill-rule="nonzero" stroke-linecap="butt" stroke-linejoin="miter" stroke-miterlimit="10" stroke-dasharray="" stroke-dashoffset="0" style="mix-blend-mode: normal"><path d="M241.40951,178.1601c-1.0114,1.4418 -1.52787,3.93803 -1.52787,7.14442v1.07596c0,0.27975 0,1.119 -0.9038,1.119c-0.88228,0 -0.88229,-0.86078 -0.88229,-1.09749c0,-4.04563 2.17345,-7.5748 2.75446,-8.41405l2.28105,-3.27094h-4.56207c-0.30127,0 -1.91521,0 -2.08736,0.12912c-0.27975,0.23672 -0.47343,1.57091 -0.53799,1.95826h-0.47342l0.6671,-4.30387h0.47341c0.08609,0.40887 0.12912,0.68862 2.73294,0.68862h5.18613v0.49494z" fill="#ff0000" stroke="none" stroke-width="1"/><path d="M231.2,207.8v-55.6h17.6v55.6z" fill="none" stroke="#000000" stroke-width="0"/></g></g></svg>