<svg version="1.1" xmlns="http://www.w3.org/2000/svg" xmlns:xlink="http://www.w3.org/1999/xlink" width="17" height="35.33333" viewBox="0,0,17,35.33333"><g transform="translate(-231.50002,-162.33335)"><g data-paper-data="{&quot;isPaintingLayer&quot;:true}" fill-rule="nonzero" stroke="none" stroke-linecap="butt" stroke-linejoin="miter" stroke-miterlimit="10" stroke-dasharray="" stroke-dashoffset="0" style="mix-blend-mode: normal"><path d="M231.50002,197.66668v-35.33333h17v35.33333z" fill="none" stroke-width="0"/><path d="M244.01738,182.92353c0,1.97482 -1.76184,3.73667 -4.12387,3.73667c-2.11035,0 -3.91091,-1.27782 -3.91091,-3.03968c0,-0.8519 0.61956,-1.12292 1.08421,-1.12292c0.56146,0 1.08422,0.38722 1.08422,1.0842c0,0.73573 -0.60019,1.16167 -1.27783,1.06486c0.67764,1.14231 2.12971,1.47144 2.96223,1.47144c0.85189,0 2.18779,-0.56147 2.18779,-3.19457c0,-1.89738 -0.71636,-3.21393 -2.30396,-3.21393h-0.85188c-0.32915,0 -0.46467,0 -0.46467,-0.21297c0,-0.1936 0.13552,-0.21297 0.29041,-0.23234c0.13553,0 0.60021,-0.03872 0.75509,-0.05808c0.48403,-0.01937 1.14228,-0.07745 1.72312,-1.00678c0.50338,-0.8519 0.5421,-1.97484 0.5421,-2.20717c0,-1.74249 -1.06484,-2.16844 -1.85864,-2.16844c-0.69699,0 -1.97483,0.2517 -2.57502,1.2004c0.29042,0 1.20038,0 1.20038,0.96803c0,0.56149 -0.38722,0.98743 -0.9874,0.98743c-0.56146,0 -0.9874,-0.36787 -0.9874,-1.00679c0,-1.47144 1.47144,-2.63309 3.4269,-2.63309c1.85864,0 3.56241,1.08422 3.56241,2.67182c0,1.52952 -1.12294,2.88481 -2.71054,3.40755c2.01353,0.40659 3.23327,1.91674 3.23327,3.50435z" fill="#ff0000" stroke-width="1"/></g></g></svg>