<svg version="1.1" xmlns="http://www.w3.org/2000/svg" xmlns:xlink="http://www.w3.org/1999/xlink" width="37.86704" height="26.07225" viewBox="0,0,37.86704,26.07225"><g transform="translate(-221.06648,-166.96387)"><g data-paper-data="{&quot;isPaintingLayer&quot;:true}" fill-rule="nonzero" stroke-linecap="butt" stroke-linejoin="miter" stroke-miterlimit="10" stroke-dasharray="" stroke-dashoffset="0" style="mix-blend-mode: normal"><path d="M256.45741,192.78613c-6.7336,0 -28.27729,0 -32.63067,0c-1.51414,0 -2.51026,-0.95831 -2.51026,-2.4908c0,-5.38467 0,-17.85811 0,-20.75669c0,-1.17748 0.83864,-2.32476 2.27173,-2.32476c4.30441,0 26.35938,0 32.92602,0c1.18062,0 2.16929,0.87327 2.16929,1.82658c0,2.7465 0,16.26468 0,21.58696c0,1.33855 -0.9369,2.1587 -2.22611,2.1587z" data-paper-data="{&quot;index&quot;:null}" fill-opacity="0.91765" fill="#d1e4ff" stroke="#d0d0d0" stroke-width="0.5"/><path d="M240.66047,174.92711c1.15873,1.11391 4.84349,4.54298 4.86665,4.58665c0.06952,0.10921 0.06952,0.19657 0.06952,0.24024c0,0.24024 -0.18539,0.43683 -0.46347,0.43683c-0.13906,0 -0.30128,-0.10921 -0.34762,-0.13105l-4.79715,-4.52113l-4.61172,4.34642c-0.27809,0.26209 -0.32445,0.30578 -0.50986,0.30578c-0.23174,0 -0.46347,-0.19657 -0.46347,-0.43683c0,-0.15289 0.04635,-0.19657 0.30128,-0.43683l4.63491,-4.39008l0.67208,-0.61154z" fill="#000000" stroke="none" stroke-width="1"/><path d="M234.95187,184.05143c-0.25711,0 -0.54852,0 -0.54852,-0.44434c0,-0.42094 0.30855,-0.42094 0.54852,-0.42094h10.09621c0.25712,0 0.54857,0 0.54857,0.44434c0,0.42094 -0.30859,0.42096 -0.54857,0.42096z" fill="#000000" stroke="none" stroke-width="1"/></g></g></svg>