<svg version="1.1" xmlns="http://www.w3.org/2000/svg" xmlns:xlink="http://www.w3.org/1999/xlink" width="23.25" height="45.75" viewBox="0,0,23.25,45.75"><g transform="translate(-228.375,-157.125)"><g data-paper-data="{&quot;isPaintingLayer&quot;:true}" fill-rule="nonzero" stroke="none" stroke-linecap="butt" stroke-linejoin="miter" stroke-miterlimit="10" stroke-dasharray="" stroke-dashoffset="0" style="mix-blend-mode: normal"><path d="M228.375,202.875v-45.75h23.25v45.75z" fill="none" stroke-width="0"/><path d="M242.92092,176.0891c-0.60546,-0.50727 -1.3909,-1.04728 -2.76546,-1.04728c-1.50545,0 -2.38908,0.98183 -2.38908,1.94727c0,0.72 0.45818,1.19456 0.57272,1.29273c0.49092,0.42546 0.75273,0.49091 1.70182,0.72c1.50546,0.37637 2.04546,0.52363 2.81453,1.34183c0.36,0.39273 0.86727,1.17818 0.86727,2.24182c0,1.80001 -1.50544,3.45274 -3.66544,3.45274c-1.03091,0 -2.34,-0.2291 -3.78,-1.1291l0.24545,-1.32546c1.37455,1.16182 2.84728,1.32546 3.51818,1.32546c1.4891,0 2.38909,-1.08 2.38909,-2.16001c0,-0.70364 -0.36,-1.24364 -0.68727,-1.52182c-0.45819,-0.40909 -0.62183,-0.45819 -2.01273,-0.80183c-0.96546,-0.22908 -1.68546,-0.42545 -2.37273,-1.16181c-0.65454,-0.68727 -0.88364,-1.37456 -0.88364,-2.0782c0,-1.62 1.42363,-3.22365 3.69817,-3.22365c1.19455,0 2.09455,0.27819 2.99455,0.8182z" fill="#ff0000" stroke-width="1"/></g></g></svg>