<svg version="1.1" xmlns="http://www.w3.org/2000/svg" xmlns:xlink="http://www.w3.org/1999/xlink" width="395.5" height="188.5" viewBox="0,0,395.5,188.5"><g transform="translate(-43.25,-88.9)"><g data-paper-data="{&quot;isPaintingLayer&quot;:true}" fill-rule="nonzero" stroke-width="0" stroke-linecap="butt" stroke-linejoin="miter" stroke-miterlimit="10" stroke-dasharray="" stroke-dashoffset="0" style="mix-blend-mode: normal"><path d="M43.25,277.4v-188.5h395.5v188.5z" fill="none" stroke="#005fff"/><path d="M181.73689,179.86568c0,-3.86393 3.13234,-6.99627 6.99627,-6.99627c3.86393,0 6.99627,3.13234 6.99627,6.99627c0,3.86393 -3.13234,6.99627 -6.99627,6.99627c-3.86393,0 -6.99627,-3.13234 -6.99627,-6.99627zM187.34501,178.27133v0.55526h1.10973l-0.05311,4.42914l-1.55852,0.02372l0.00432,0.64475l3.48801,-0.00357l0.01192,-0.64802l-1.28104,-0.00395l-0.00276,-4.99706zM188.67764,176.82765c0.30666,0 0.55526,-0.2486 0.55526,-0.55526c0,-0.30666 -0.2486,-0.55526 -0.55526,-0.55526c-0.30666,0 -0.55526,0.2486 -0.55526,0.55526c0,0.30666 0.2486,0.55526 0.55526,0.55526z" fill="#464646" stroke="none"/><text transform="translate(212.78561,183.48432) scale(0.29036,0.29036)" font-size="40" xml:space="preserve" fill="#000000" fill-rule="nonzero" stroke-opacity="0" stroke="#000000" stroke-width="0" stroke-linecap="butt" stroke-linejoin="miter" stroke-miterlimit="10" stroke-dasharray="" stroke-dashoffset="0" font-family="&quot;Microsoft YaHei&quot;, &quot;微软雅黑&quot;, STXihei, &quot;华文细黑&quot;" font-weight="normal" text-anchor="start" style="mix-blend-mode: normal"><tspan x="0" dy="0">关于</tspan></text><path d="M94.69443,254.21179v-133h301v133z" fill="none" stroke="none"/><path d="M177.33334,193v-26h166.33333v26z" fill-opacity="0.00392" fill="#ffffff" stroke="#005fff"/></g></g></svg>