<svg version="1.1" xmlns="http://www.w3.org/2000/svg" xmlns:xlink="http://www.w3.org/1999/xlink" width="31.25" height="16.02979" viewBox="0,0,31.25,16.02979"><g transform="translate(-224.375,-171.9851)"><g data-paper-data="{&quot;isPaintingLayer&quot;:true}" fill-rule="nonzero" stroke="none" stroke-linecap="butt" stroke-linejoin="miter" stroke-miterlimit="10" stroke-dasharray="" stroke-dashoffset="0" style="mix-blend-mode: normal"><path d="M240.31379,184.99549c0,0.25444 0,0.54281 -0.32229,0.54281c-0.30532,0 -0.30532,-0.30533 -0.30532,-0.54281v-4.68168h-4.68167c-0.25444,0 -0.5428,0 -0.5428,-0.32229c0,-0.30532 0.30533,-0.30533 0.5428,-0.30533h4.68167v-4.68167c0,-0.25444 0,-0.54281 0.32229,-0.54281c0.30532,0 0.30533,0.30534 0.30533,0.54281v4.68167h4.68168c0.25445,0 0.54285,0 0.54285,0.32229c0,0.30532 -0.30538,0.30532 -0.54285,0.30532h-4.68168z" fill="#000000" stroke-width="1"/><path d="M224.375,188.0149v-16.02979h31.25v16.02979z" fill-opacity="0.00392" fill="#ffffff" stroke-width="0"/></g></g></svg>