<svg version="1.1" xmlns="http://www.w3.org/2000/svg" xmlns:xlink="http://www.w3.org/1999/xlink" width="197.52473" height="163.55508" viewBox="0,0,197.52473,163.55508"><g transform="translate(-141.95947,-112.73311)"><g data-paper-data="{&quot;isPaintingLayer&quot;:true}" fill="#ff0000" fill-rule="nonzero" stroke="none" stroke-width="1" stroke-linecap="butt" stroke-linejoin="miter" stroke-miterlimit="10" stroke-dasharray="" stroke-dashoffset="0" style="mix-blend-mode: normal"><path d="M239.05401,116.07693c-3.06149,-0.09207 -5.63959,1.5883 -7.7343,5.0411c-2.14074,3.54488 -3.52187,8.93127 -4.14338,16.15916c0.82867,-1.31207 2.16376,-2.56659 4.00526,-3.76357c1.8415,-1.15094 3.62545,-1.72641 5.35186,-1.72641c2.55508,0 5.22525,1.24301 8.01052,3.72904c2.8313,2.50904 4.36205,6.2611 4.59224,11.25616c-0.11509,5.08714 -1.42716,9.13844 -3.93621,12.1539c-2.46301,2.99243 -5.35186,4.52318 -8.66656,4.59224c-3.683,-0.02302 -6.90563,-2.0832 -9.66788,-6.18054c-2.69319,-4.00526 -4.10884,-9.88655 -4.24696,-17.64387c0.06906,-5.36337 0.92075,-10.03618 2.55508,-14.01842c1.68037,-4.0513 3.78658,-7.18185 6.31865,-9.39165c2.50904,-2.2098 5.07563,-3.32621 7.69977,-3.34923c2.25584,0.06906 4.22394,0.77113 5.90431,2.10621c1.65735,1.35811 2.52055,2.9464 2.58961,4.76488c-0.02302,2.67017 -1.13943,3.98224 -3.34923,3.93621c-2.11773,0 -3.22262,-1.20848 -3.3147,-3.62545c0.02302,-0.6215 0.14962,-1.12792 0.37981,-1.51924c0.23019,-0.3683 0.34528,-0.70207 0.34528,-1.00132c-0.02302,-0.23019 -0.26472,-0.51793 -0.72509,-0.8632c-0.52943,-0.41434 -1.18547,-0.63302 -1.9681,-0.65604zM235.3595,135.10193c-1.5883,0.04604 -3.1881,0.74811 -4.79941,2.10621c-1.5883,1.35811 -2.76225,3.07301 -3.52187,5.14469c0.09207,5.86978 1.07037,10.439 2.93489,13.70766c1.86452,3.22262 4.15488,4.85696 6.87109,4.90299c1.56528,0 3.10753,-1.01282 4.62677,-3.03847c1.54226,-1.97961 2.37093,-5.06412 2.48603,-9.25354c-0.11509,-4.99507 -1.02434,-8.51693 -2.72772,-10.5656c-1.74943,-2.07169 -3.70602,-3.07301 -5.86978,-3.00395z"/><path d="M254.84574,112.93488h24.13003v3.8608c-5.71971,10.05716 -9.67585,18.37457 -11.86839,24.95224c-2.14489,6.48234 -3.16967,12.38079 -3.07435,17.69536c-0.02383,1.23927 -0.30982,2.2283 -0.85795,2.9671c-0.54814,0.71496 -1.10819,1.08436 -1.68017,1.10819c-2.38321,-0.16683 -3.6344,-2.03764 -3.75356,-5.61247c0,-1.69208 0.71496,-4.57576 2.14489,-8.65107c1.42993,-4.02763 3.4914,-8.8298 6.18444,-14.40652c2.7407,-5.64822 5.85079,-11.29643 9.33028,-16.94464h-14.97849c-1.40609,-0.0715 -2.68112,0.5243 -3.82505,1.78741c-1.14394,1.23927 -2.31171,3.62248 -3.50332,7.14963l-1.07245,1.07245l-1.14394,-1.14394v-1.14394z"/><path d="M295.70761,112.93488c3.43491,0.04642 6.37083,1.06761 8.80776,3.06357c2.50656,2.0888 3.80625,4.82744 3.89909,8.21593c0.04642,2.6226 -0.8007,4.89707 -2.54137,6.8234c-1.62462,1.87992 -4.00353,3.667 -7.13672,5.36124c3.85267,1.92633 6.70736,4.00353 8.56406,6.23158c1.81029,2.20484 2.68062,4.63017 2.61099,7.27598c-0.06963,4.38647 -1.48536,7.76336 -4.24722,10.13066c-2.71544,2.29767 -6.278,3.45812 -10.68767,3.48132c-4.08476,-0.04642 -7.41523,-1.27649 -9.99141,-3.69021c-2.64581,-2.41372 -4.00353,-5.72098 -4.07315,-9.92179c0.04642,-2.43693 1.12563,-4.92028 3.23763,-7.45004c2.06559,-2.48334 4.43289,-4.11957 7.10191,-4.90867c-2.6226,-1.48536 -4.63017,-3.31887 -6.0227,-5.5005c-1.43895,-2.20484 -2.13521,-4.67659 -2.0888,-7.41523c0.06963,-3.45812 1.28809,-6.26639 3.65539,-8.42482c2.29767,-2.112 5.26841,-3.20282 8.9122,-3.27245zM294.17582,138.87077c-2.52976,0.83552 -4.61856,2.25126 -6.26639,4.24722c-1.60141,1.97275 -2.43693,4.23561 -2.50656,6.78859c0.09283,2.97074 1.12563,5.5121 3.09838,7.62411c2.06559,2.18163 4.61856,3.31887 7.65892,3.4117c2.57618,-0.06963 4.75781,-1.0328 6.5449,-2.8895c1.74066,-1.81029 2.64581,-4.03834 2.71544,-6.68415c0.04642,-2.22805 -0.8007,-4.31685 -2.54137,-6.26639c-1.76387,-2.01917 -4.66498,-4.09636 -8.70332,-6.23158zM295.56835,115.54587c-2.04238,0.11604 -3.99193,1.0444 -5.84863,2.78506c-1.76387,1.74066 -2.71544,3.60897 -2.85469,5.60494c-0.02321,1.71745 0.67305,3.45812 2.0888,5.22199c1.48536,1.81029 3.88748,3.81786 7.20635,6.0227c2.94752,-2.0888 5.12916,-4.04995 6.5449,-5.88344c1.34611,-1.71745 2.00757,-3.51614 1.98435,-5.39606c-0.09283,-1.97275 -1.02119,-3.82946 -2.78506,-5.57012c-1.85671,-1.74066 -3.96871,-2.66902 -6.33602,-2.78506z"/><path d="M323.53727,112.73313c4.76333,0.16589 8.36545,2.35797 10.80635,6.57624c2.46461,4.17088 3.69691,9.39631 3.69691,15.67632c-0.02369,4.88181 -0.75834,9.43186 -2.20393,13.65013c-1.51668,4.31307 -3.59027,7.82039 -6.22076,10.52198c-2.6068,2.70159 -5.64016,4.08793 -9.10009,4.15903c-2.34611,-0.04739 -4.396,-0.71095 -6.14967,-1.99065c-1.82476,-1.3508 -2.78453,-3.15185 -2.87932,-5.40318c0.23698,-2.29872 1.22046,-3.50733 2.95042,-3.62581c2.01434,0.23698 3.05706,1.44559 3.12816,3.62581c-0.02369,0.87683 -0.24883,1.67072 -0.6754,2.38166c0.52136,1.54038 1.884,2.32242 4.08793,2.34611c3.03336,-0.04739 5.71126,-2.06174 8.03367,-6.04303c2.36981,-4.00499 3.8154,-9.08823 4.33676,-15.24976c-1.80106,3.17555 -5.27284,4.78703 -10.41534,4.83442c-3.768,-0.02369 -6.71842,-1.36265 -8.85126,-4.01684c-2.18023,-2.67789 -3.29404,-6.43404 -3.34144,-11.26847c0.02369,-4.59744 1.16121,-8.42469 3.41253,-11.48175c2.27502,-3.00966 5.40318,-4.57374 9.38447,-4.69223zM323.25289,115.36363c-2.15653,0.11849 -4.00499,1.44559 -5.54537,3.98129c-1.54038,2.5594 -2.34611,5.65201 -2.41721,9.27782c0.09479,4.28936 0.99532,7.51231 2.70159,9.66884c1.70627,2.15653 3.66136,3.2348 5.86529,3.2348c2.08543,-0.04739 4.07608,-0.81758 5.97193,-2.31057c1.91955,-1.46928 3.1874,-3.36514 3.80355,-5.68755c-0.23698,-6.01933 -1.3508,-10.55753 -3.34144,-13.61458c-1.96695,-3.03336 -4.31307,-4.55004 -7.03835,-4.55004z"/><path d="M174.10477,112.93488l1.9304,0.92945v43.93453c-0.0715,0.85796 0.42898,1.56101 1.50142,2.10914c1.21544,0.61963 3.76548,0.92945 7.65011,0.92945v1.68016l-1.07245,1.00095h-22.16388l-1.0367,-1.0367v-1.64441c4.31361,0 7.11389,-0.27407 8.40082,-0.82221c1.09628,-0.47664 1.59675,-1.16778 1.50142,-2.07339v-39.18002c-1.42993,0.19066 -3.09818,0.32173 -5.00474,0.39323c-1.88274,0.09533 -3.67015,0.143 -5.36223,0.143l-1.9304,-1.53717c3.59865,-0.61963 6.64916,-1.32268 9.15154,-2.10914c2.57387,-0.78646 4.71876,-1.69209 6.43467,-2.71687z"/><path d="M187.42353,241.02179h11.58242c3.81314,0.09533 6.48234,-0.48856 8.00759,-1.75166c1.59675,-1.26311 2.80027,-3.9323 3.61057,-8.00759h1.53717l-2.46662,14.72826h-26.48941v-1.50142c1.40609,-3.74165 3.20542,-7.3403 5.39798,-10.79596c2.16872,-3.50333 4.90942,-7.07814 8.22209,-10.72446c6.57767,-7.29263 9.8665,-12.41654 9.8665,-15.37172c-0.09533,-2.45471 -0.95328,-4.52811 -2.57387,-6.22019c-1.59675,-1.62059 -3.50333,-2.46662 -5.71971,-2.53812c-3.90847,0.0715 -6.8279,1.73974 -8.75831,5.00475c1.73974,0.52431 2.65728,2.02573 2.75261,4.50427c-0.02383,1.35843 -0.40515,2.35938 -1.14394,3.00285c-0.6673,0.61963 -1.44184,0.92945 -2.32363,0.92945c-1.26311,-0.04767 -2.28789,-0.51239 -3.07435,-1.39418c-0.71496,-0.85796 -1.08436,-1.81124 -1.10819,-2.85985c0.19065,-3.408 1.83507,-6.33935 4.93325,-8.79406c3.00285,-2.43087 6.26785,-3.7059 9.79501,-3.82506c3.3365,0.09533 6.2321,1.35843 8.68681,3.78931c2.47854,2.35938 3.77739,5.30265 3.89655,8.8298c0.04767,1.9304 -0.79838,4.06338 -2.53812,6.39893c-1.66825,2.24022 -4.43278,5.19541 -8.29358,8.86555c-3.09818,3.09818 -5.77929,6.06528 -8.04334,8.9013c-2.28789,2.78836 -4.20637,5.73163 -5.75546,8.8298z"/><path d="M150.49549,222.11553l-1.05383,-1.05383v-1.33485l1.08895,-0.84306h1.12408c3.60643,0 6.48689,-0.90161 8.64138,-2.70482c2.08424,-1.70954 3.16148,-4.21531 3.23174,-7.5173c-0.07026,-2.5526 -0.8899,-4.74222 -2.45893,-6.56885c-1.49877,-1.75638 -3.39566,-2.6814 -5.69067,-2.77508c-1.31143,0 -2.62286,0.35128 -3.93429,1.05383c-1.21775,0.65571 -1.87347,1.5339 -1.96714,2.63457c0,0.16393 0.1288,0.49179 0.3864,0.98357c0.21077,0.46837 0.32786,1.07724 0.35128,1.82663c-0.02342,1.05383 -0.36299,1.88518 -1.0187,2.49406c-0.56204,0.58546 -1.24118,0.8899 -2.0374,0.91332c-1.87347,-0.14051 -2.85704,-1.42852 -2.95072,-3.86403c0.02342,-2.20133 1.04212,-4.18018 3.0561,-5.93656c2.0374,-1.73296 4.89444,-2.64627 8.57112,-2.73995c3.48934,0.07026 6.3698,1.11237 8.64138,3.12635c2.31842,2.0374 3.51276,4.59 3.58301,7.65781c-0.02342,2.99755 -0.97186,5.69067 -2.84533,8.07934c-1.94373,2.43551 -3.98112,3.94599 -6.1122,4.53146c6.81474,2.22475 10.30409,6.60398 10.46801,13.13771c-0.02342,4.3324 -1.38169,7.75148 -4.0748,10.25725c-2.62286,2.48235 -6.34638,3.74694 -11.17056,3.79378c-3.67668,-0.18735 -6.63911,-1.41681 -8.88727,-3.6884c-2.24817,-2.22475 -3.40738,-4.47291 -3.47763,-6.74449c0.02342,-0.96016 0.29273,-1.81492 0.80793,-2.56431c0.56204,-0.72597 1.2763,-1.11237 2.14278,-1.15921c1.03041,0.02342 1.89689,0.40982 2.59944,1.15921c0.79622,0.74939 1.20605,1.69784 1.22947,2.84533c0,0.58546 -0.18735,1.15921 -0.56204,1.72125c-0.09367,0.23418 -0.16393,0.60888 -0.21077,1.12408c0.09367,1.24118 0.7611,2.30671 2.00227,3.19661c1.35826,0.96016 2.81021,1.46365 4.35582,1.51049c2.73995,0.02342 5.07008,-0.87819 6.99038,-2.70482c1.89689,-1.7798 2.89217,-4.54316 2.98584,-8.2901c0.04684,-3.77036 -0.98357,-6.6274 -3.09123,-8.57112c-2.15449,-1.99056 -5.7258,-2.98584 -10.7139,-2.98584z"/><path d="M240.14541,195.13374h1.0187l1.0187,1.0187v33.89809h8.99265v1.54561l-0.98357,1.08895h-8.00908v8.11446c-0.04684,0.6323 0.36299,1.15921 1.22947,1.58074c1.07724,0.46837 3.16148,0.70255 6.25271,0.70255v1.54561l-0.98357,1.08895h-15.87766l-0.98357,-1.08895v-1.54561c2.38868,0.02342 4.01625,-0.14051 4.88273,-0.49179c0.65571,-0.2576 0.97186,-0.74939 0.94844,-1.47536v-8.43061h-16.08842l-0.98357,-1.08895v-1.93202zM237.65136,204.16152l-14.4023,25.88901h14.4023z"/><path d="M275.91353,196.27796h16.31051c2.08568,-0.02343 4.11278,-0.31637 6.08129,-0.8788v1.44123c-0.02343,1.35921 -0.45698,2.41377 -1.30062,3.16368c-0.86708,0.72647 -1.86305,1.10143 -2.98792,1.12486h-15.81839l-0.66789,15.74808c2.15599,-1.64043 5.09704,-2.50751 8.82315,-2.60125c4.10106,0.16404 7.34676,1.78103 9.7371,4.85097c2.32003,2.99963 3.50348,6.46796 3.55035,10.40498c-0.21091,5.20249 -1.83962,9.23325 -4.88612,12.09228c-3.02307,2.85903 -6.17503,4.31198 -9.45588,4.35884c-2.99963,-0.16404 -5.76492,-1.39436 -8.29587,-3.69096c-2.55438,-2.2966 -3.91359,-4.75723 -4.07763,-7.38191c0.02343,-1.00769 0.30465,-1.83962 0.84365,-2.49579c0.6093,-0.6796 1.31234,-1.03112 2.10912,-1.05456c1.87477,0.18748 2.89418,1.37093 3.05822,3.55035c-0.02343,0.72647 -0.15232,1.30062 -0.38667,1.72245c-0.23435,0.44526 -0.35152,0.76163 -0.35152,0.9491c0.11717,1.35921 0.92567,2.62468 2.42549,3.79641c1.54669,1.24204 3.10509,1.89821 4.67521,1.96851c2.2966,-0.0703 4.51117,-1.4178 6.64372,-4.04248c2.08568,-2.60125 3.19883,-6.05786 3.33944,-10.36983c-0.11717,-3.5855 -1.12486,-6.46796 -3.02307,-8.64738c-1.94508,-2.20286 -4.15965,-3.33944 -6.64372,-3.40974c-3.09337,0.02343 -6.16331,1.47638 -9.20982,4.35884h-1.23032z"/><path d="M309.2966,221.65772c0.02357,-4.38321 0.70697,-8.44828 2.05021,-12.19522c1.36681,-3.7705 3.14601,-6.79869 5.33762,-9.08456c2.30943,-2.4037 4.85452,-3.64089 7.63527,-3.71159c2.94571,0.0707 5.54971,1.27254 7.81201,3.60554c2.2623,2.35656 4.05329,5.40831 5.37297,9.15525c1.29611,3.72337 1.95595,7.7531 1.97952,12.08918c-0.04713,4.61887 -0.74232,8.83712 -2.08556,12.65475c-1.41394,3.9119 -3.24028,7.03435 -5.47901,9.36734c-2.30943,2.4037 -4.84274,3.64089 -7.59992,3.71159c-4.07686,-0.18853 -7.57636,-2.72183 -10.49849,-7.59992c-2.89858,-4.80739 -4.40678,-10.80485 -4.5246,-17.99237zM324.3197,199.28214c-2.75718,0.0707 -5.16088,2.09734 -7.21109,6.07994c-2.07378,4.02972 -3.1578,9.61478 -3.25206,16.75517c0.09426,6.7869 1.17828,12.21879 3.25206,16.29564c2.05021,4.02972 4.45391,6.1035 7.21109,6.22133c2.61579,-0.02357 5.0077,-1.9913 7.17574,-5.90319c2.16804,-3.95903 3.31097,-9.69726 3.4288,-17.2147c-0.09426,-6.88117 -1.17828,-12.31305 -3.25206,-16.29564c-2.07378,-3.88833 -4.5246,-5.86784 -7.35248,-5.93854z"/><path d="M206.18265,274.39001c-0.72,1.55455 -1.96363,1.89818 -2.84726,1.89818c-0.80181,0 -1.99637,-0.32727 -2.7,-1.65273c-0.67091,-1.24365 -0.73637,-2.71638 -0.73637,-3.94366c0,-1.3091 0.08182,-2.58545 0.60546,-3.71455c0.67091,-1.52183 1.86546,-1.94727 2.84727,-1.94727c0.68727,0 2.02909,0.26181 2.78182,1.83273c0.57272,1.21091 0.65454,2.51999 0.65454,3.82909c0,1.29273 -0.08182,2.56911 -0.60546,3.69821zM205.24994,273.88272c0.18,-1.04728 0.18,-2.16 0.18,-3.38728c0,-1.03091 0,-2.27455 -0.16363,-3.19092c-0.31092,-1.62 -1.39091,-1.91455 -1.93091,-1.91455c-0.40908,0 -1.63637,0.14728 -1.94727,2.09455c-0.1309,0.88364 -0.13091,1.96364 -0.13091,3.01092c0,0.96546 0,2.47093 0.18,3.45274c0.29454,1.57092 1.26,1.98001 1.89818,1.98001c0.73636,0 1.66909,-0.49092 1.91455,-2.04547z"/><path d="M212.22274,274.63546c0,0.60546 0.0491,0.78546 1.52183,0.78546h0.52364v0.50727c-0.57273,-0.04909 -1.99635,-0.04909 -2.65091,-0.04909c-0.65456,0 -2.07819,0 -2.65091,0.04909v-0.50727h0.52364c1.47273,0 1.52182,-0.19636 1.52182,-0.78546v-8.4764c-0.85091,0.42546 -1.81637,0.42546 -2.14364,0.42546v-0.50727c0.52364,0 1.96363,0 2.97817,-1.04727c0.37637,0 0.37636,0.03273 0.37636,0.42544z"/><path d="M220.58647,274.66818c0.36,0 1.44,0 1.55454,-0.13091c0.16363,-0.24546 0.27819,-0.96546 0.36,-1.45637h0.40909l-0.45817,2.84728h-6.07091c0,-0.39273 0,-0.42545 0.18,-0.60546l3.14182,-3.50183c0.9,-1.01454 1.71817,-2.30728 1.71817,-3.61638c0,-1.34181 -0.70363,-2.66728 -2.19271,-2.66728c-0.94909,0 -1.83273,0.60546 -2.20909,1.6691c0.0491,-0.01637 0.08181,-0.01637 0.21273,-0.01637c0.57273,0 0.86727,0.42545 0.86727,0.85091c0,0.67091 -0.57273,0.86728 -0.8509,0.86728c-0.0491,0 -0.86728,0 -0.86728,-0.91637c0,-1.45637 1.21092,-2.96182 3.06,-2.96182c1.99637,0 3.46909,1.30908 3.46909,3.17455c0,1.63637 -0.98181,2.52001 -3.53454,4.7782l-1.73456,1.68546z"/><path d="M231.1935,273.13c0,1.66909 -1.48908,3.15819 -3.48544,3.15819c-1.78364,0 -3.30545,-1.08 -3.30545,-2.5691c0,-0.72001 0.52364,-0.94908 0.91636,-0.94908c0.47454,0 0.91637,0.32727 0.91637,0.91635c0,0.62183 -0.50727,0.98183 -1.08,0.90001c0.57273,0.96546 1.8,1.24364 2.50364,1.24364c0.72,0 1.84909,-0.47455 1.84909,-2.70001c0,-1.60364 -0.60546,-2.71637 -1.94727,-2.71637h-0.72c-0.27819,0 -0.39273,0 -0.39273,-0.18c0,-0.16363 0.11454,-0.18 0.24545,-0.19637c0.11455,0 0.50729,-0.03273 0.63819,-0.04909c0.40909,-0.01637 0.96544,-0.06546 1.45636,-0.85091c0.42545,-0.72001 0.45818,-1.66911 0.45818,-1.86547c0,-1.47273 -0.89999,-1.83274 -1.5709,-1.83274c-0.58909,0 -1.6691,0.21273 -2.17637,1.01456c0.24546,0 1.01454,0 1.01454,0.81817c0,0.47456 -0.32727,0.83456 -0.83454,0.83456c-0.47454,0 -0.83454,-0.31092 -0.83454,-0.85093c0,-1.24364 1.24364,-2.22545 2.89637,-2.22545c1.5709,0 3.0109,0.91636 3.0109,2.25818c0,1.29273 -0.94909,2.43821 -2.29091,2.88002c1.70181,0.34364 2.73272,1.62 2.73272,2.96183z"/><path d="M232.32451,273.22818v-0.50727l5.02363,-7.67457c0.13092,-0.19637 0.18,-0.19636 0.32728,-0.19636c0.26181,0 0.26181,0.09817 0.26181,0.42544v7.44549h1.63637v0.50727h-1.63637v1.42364c0,0.58909 0.03273,0.7691 1.24363,0.7691h0.34364v0.50727c-0.67091,-0.04909 -1.53817,-0.04909 -2.22544,-0.04909c-0.68727,0 -1.53818,0 -2.20909,0.04909v-0.50727h0.34364c1.21091,0 1.24363,-0.18 1.24363,-0.7691v-1.42364zM236.77542,266.61725l-3.99273,6.10366h3.99273z"/><path d="M243.79732,276.28819c-1.83273,0 -2.96182,-1.58728 -2.96182,-2.99455c0,-0.75273 0.57273,-0.86727 0.80182,-0.86727c0.54,0 0.81818,0.40909 0.81818,0.80181c0,0.39273 -0.27818,0.80183 -0.81818,0.80183c-0.18,0 -0.22909,-0.01637 -0.27818,-0.03273c0.27818,0.96546 1.21091,1.83273 2.40545,1.83273c0.75273,0 1.35818,-0.42545 1.7509,-1.06364c0.39273,-0.68728 0.39273,-1.6691 0.39273,-2.24183c0,-0.81818 -0.03273,-1.45637 -0.29454,-2.06183c-0.1309,-0.29454 -0.54,-1.04728 -1.3909,-1.04728c-1.32546,0 -1.93091,0.88364 -2.11091,1.14547c-0.06545,0.09818 -0.09818,0.14727 -0.21272,0.14727c-0.22909,0 -0.2291,-0.1309 -0.2291,-0.42546v-4.84366c0,-0.26181 0,-0.39272 0.16363,-0.39272c0.03273,0 0.06546,0 0.19637,0.04908c0.76908,0.34364 1.5218,0.45819 2.17636,0.45819c1.09636,0 1.89818,-0.32727 2.22545,-0.47456c0.08182,-0.04908 0.11455,-0.04908 0.13092,-0.04908c0.11454,0 0.16363,0.08181 0.16363,0.18c0,0.21273 -1.14545,1.70182 -3.15818,1.70182c-0.52364,0 -1.06364,-0.11454 -1.39091,-0.21273v3.19093c0.58909,-0.57273 1.29273,-0.83456 2.07817,-0.83456c1.76729,0 3.1091,1.63638 3.1091,3.58365c0,2.07819 -1.66909,3.6491 -3.56727,3.6491z"/><path d="M252.37377,268.94089c1.81635,0 3.27272,1.57091 3.27272,3.64911c0,2.16 -1.55453,3.69819 -3.3709,3.69819c-1.52181,0 -3.42,-1.16182 -3.42,-5.53092c0,-3.61638 2.20909,-5.72729 4.30363,-5.72729c1.35819,0 2.07819,0.78544 2.07819,1.76727c0,0.63817 -0.49092,0.78546 -0.75273,0.78546c-0.36,0 -0.75273,-0.24546 -0.75273,-0.75273c0,-0.73637 0.65454,-0.73637 0.9,-0.73637c-0.36,-0.55637 -1.04727,-0.65456 -1.44,-0.65456c-0.83454,0 -2.86363,0.5891 -2.86363,4.72912v0.39273c0.32727,-0.78546 0.93273,-1.62 2.04546,-1.62zM253.89558,274.76637c0.27819,-0.58909 0.27819,-1.40728 0.27819,-2.19273c0,-0.80183 0,-1.63637 -0.29456,-2.24183c-0.50727,-1.01454 -1.26,-1.01454 -1.52181,-1.01454c-1.47273,0 -1.99636,1.63637 -1.99636,2.91274c0,0.29454 0,1.60364 0.29454,2.37273c0.09819,0.24545 0.58909,1.22728 1.62,1.22728c0.37637,0 1.12909,-0.08182 1.61999,-1.06364z"/><path d="M261.89931,269.0718c-0.72,1.01456 -0.9491,2.42183 -1.01454,2.7982c-0.13092,0.88364 -0.18,1.78364 -0.18,2.68364v0.83455c0,0.16363 0,0.9 -0.75272,0.9c-0.75273,0 -0.75273,-0.73636 -0.75273,-0.9c0,-1.6691 0.53999,-3.94365 2.01273,-6.15276c0.36,-0.54 1.65273,-2.32364 1.83273,-2.58545h-3.38728c-0.21272,0 -1.48908,0 -1.60363,0.09817c-0.21272,0.19637 -0.36,1.22728 -0.40909,1.4891h-0.40909l0.54,-3.37091h0.40909c0.06545,0.3109 0.09817,0.52363 2.09454,0.52363h3.97636c0,0.34364 0,0.37637 -0.14727,0.57273z"/><path d="M269.16817,269.75907c0.98181,-0.57272 1.62,-1.35818 1.62,-2.29091c0,-1.17818 -1.04726,-2.02911 -2.24182,-2.02911c-1.16181,0 -2.22545,0.68729 -2.22545,1.68547c0,0.27819 0.06545,0.83454 0.81817,1.32547zM271.14817,271.16636c0.62181,0.68727 0.80181,1.42364 0.80181,2.01272c0,1.75092 -1.55453,3.1091 -3.40363,3.1091c-1.71817,0 -3.38727,-1.09636 -3.38727,-2.83091c0,-1.62 1.40726,-2.53638 2.35636,-3.01092c-0.40909,-0.27819 -1.01454,-0.68729 -1.19454,-0.88366c-0.68727,-0.76909 -0.72,-1.50545 -0.72,-1.79999c0,-1.52183 1.32545,-2.73274 2.96182,-2.73274c1.4891,0 2.94545,0.93273 2.94545,2.43818c0,1.08001 -0.80183,1.93092 -1.98,2.53638c1.04727,0.65454 1.3091,0.81817 1.62,1.16182zM265.97727,273.45727c0,1.35818 1.17818,2.37273 2.58545,2.37273c1.34182,0 2.56909,-0.85091 2.56909,-2.06183c0,-0.99818 -0.76909,-1.4891 -1.22727,-1.8l-2.01272,-1.27637c-1.3909,0.7691 -1.91454,1.81637 -1.91454,2.76547z"/><path d="M276.5828,272.3609c-1.83273,0 -3.27272,-1.60363 -3.27272,-3.64911c0,-1.22728 0.37636,-1.91454 1.04726,-2.65091c0.70364,-0.73637 1.50546,-1.03091 2.40546,-1.03091c1.45637,0 3.33817,1.11273 3.33817,5.51456c0,3.51819 -1.99636,5.74365 -4.10726,5.74365c-1.3909,0 -2.27454,-0.67091 -2.27454,-1.76728c0,-0.63819 0.4909,-0.78546 0.75273,-0.78546c0.36,0 0.75272,0.24546 0.75272,0.75273c0,0.27819 -0.1309,0.75273 -0.85091,0.75273c0.44182,0.55637 1.32546,0.58909 1.60363,0.58909c0.94909,0 2.65091,-0.75273 2.65091,-4.58184v-0.52364c-0.37637,0.9491 -1.04728,1.63637 -2.04546,1.63637zM278.59553,269.03907c0,-0.75272 -0.06546,-1.78365 -0.26182,-2.30728c-0.27817,-0.73637 -0.81817,-1.29273 -1.5709,-1.29273c-0.57273,0 -1.19454,0.21273 -1.63637,1.03093c-0.34364,0.60544 -0.34364,1.37454 -0.34364,2.25818c0,0.80183 0,1.62001 0.29454,2.22547c0.50727,1.03091 1.26,1.03091 1.52183,1.03091c1.44,0 1.99636,-1.58727 1.99636,-2.94547z"/></g></g></svg>