<svg version="1.1" xmlns="http://www.w3.org/2000/svg" xmlns:xlink="http://www.w3.org/1999/xlink" width="37.86704" height="26.07225" viewBox="0,0,37.86704,26.07225"><g transform="translate(-221.06648,-166.96391)"><g data-paper-data="{&quot;isPaintingLayer&quot;:true}" fill-rule="nonzero" stroke-linecap="butt" stroke-linejoin="miter" stroke-miterlimit="10" stroke-dasharray="" stroke-dashoffset="0" style="mix-blend-mode: normal"><path d="M256.45741,192.78616c-6.7336,0 -28.27729,0 -32.63067,0c-1.51414,0 -2.51026,-0.95831 -2.51026,-2.4908c0,-5.38467 0,-17.85811 0,-20.75669c0,-1.17748 0.83864,-2.32476 2.27173,-2.32476c4.30441,0 26.35938,0 32.92602,0c1.18062,0 2.16929,0.87327 2.16929,1.82658c0,2.7465 0,16.26468 0,21.58696c0,1.33855 -0.9369,2.1587 -2.22611,2.1587z" data-paper-data="{&quot;index&quot;:null}" fill-opacity="0.91765" fill="#fff6d1" stroke="#d0d0d0" stroke-width="0.5"/><path d="M243.61372,176.79651c1.6265,0 2.67311,1.56994 2.67311,3.19645c0,1.65481 -1.07491,3.2106 -2.7297,3.2106c-0.72137,0 -1.51337,-0.25458 -2.30541,-0.89105c-0.43846,-0.3536 -0.60817,-0.56574 -1.37193,-1.52751c-0.69303,1.13148 -1.86696,2.41856 -3.49347,2.41856c-1.62651,0 -2.67314,-1.56994 -2.67314,-3.19645c0,-1.65481 1.07491,-3.2106 2.72972,-3.2106c0.72132,0 1.51336,0.25458 2.30541,0.89104c0.43846,0.3536 0.60817,0.56574 1.37193,1.52751c0.69303,-1.13148 1.86699,-2.41856 3.49349,-2.41856zM242.02961,181.63362c0.29702,0.29701 0.93353,0.89105 1.75378,0.89105c1.24467,0 2.1923,-1.14563 2.1923,-2.53171c0,-1.27292 -0.76376,-2.74385 -2.26299,-2.74385c-1.59822,0 -2.64486,1.42851 -3.22474,2.44684c0.86276,1.11734 1.18806,1.55579 1.54165,1.93768zM237.97041,178.36645c-0.29702,-0.29702 -0.93349,-0.89105 -1.75382,-0.89105c-1.24465,0 -2.19225,1.14563 -2.19225,2.53171c0,1.27292 0.76375,2.74385 2.26297,2.74385c1.59822,0 2.64486,-1.42851 3.22474,-2.44684c-0.86276,-1.11734 -1.18806,-1.55579 -1.54165,-1.93767z" fill="#000000" stroke="none" stroke-width="1"/></g></g></svg>