<svg version="1.1" xmlns="http://www.w3.org/2000/svg" xmlns:xlink="http://www.w3.org/1999/xlink" width="25.95556" height="32.19127" viewBox="0,0,25.95556,32.19127"><g transform="translate(-227.02223,-163.95558)"><g stroke="none" stroke-miterlimit="10"><text transform="translate(234.3876,194.43039) scale(0.14031,0.14031)" font-size="40" xml:space="preserve" fill="#000000" stroke-width="1" font-family="Sans Serif" font-weight="normal" text-anchor="start"><tspan x="0" dy="0">表格</tspan></text><path d="M231.6,174.48039c0,0 0,-2.22515 0,-3c0,-0.49006 0.62629,-1.2 1.09231,-1.2c1.63685,0 10.99856,0 14.46154,0c0.77761,0 1.24615,0.76439 1.24615,1.27693c0,0.77546 0,2.92307 0,2.92307z" fill="#ffa000" stroke-width="0"/><path d="M242.296,186.232h-4.592v-10.464h4.592z" fill-opacity="0.7098" fill="#ffa200" stroke-width="0"/><path d="M247.07692,186.232c-0.83867,0 -3.46892,0 -3.46892,0v-10.464h4.592c0,0 0,7.71894 0,9.32778c0,0.56151 -0.64588,1.13622 -1.12308,1.13622z" fill-opacity="0.7098" fill="#ffa200" stroke-width="0"/><path d="M236.392,186.232c0,0 -2.88735,0 -3.69969,0c-0.39895,0 -0.89231,-0.53055 -0.89231,-1.0593c0,-1.57547 0,-9.4047 0,-9.4047h4.592z" fill-opacity="0.7098" fill="#ffa200" stroke-width="0"/><path d="M227.02223,196.04446v-32.08888h25.95556v32.08888z" fill-opacity="0.00392" fill="#ffffff" stroke-width="0"/></g></g></svg>