<svg version="1.1" xmlns="http://www.w3.org/2000/svg" xmlns:xlink="http://www.w3.org/1999/xlink" width="11.93411" height="13.09012" viewBox="0,0,11.93411,13.09012"><g transform="translate(-236.78294,-173.45494)"><g stroke="none" stroke-miterlimit="10"><path d="M239.48635,180.03557c0.03558,-0.03556 0.12449,-0.12451 0.12449,-0.17787c0,-0.03556 -0.05336,-0.17787 -0.08893,-0.30234c-0.44465,-1.2272 -0.60472,-2.43663 -0.60472,-3.27255c0,-1.8675 1.24498,-2.82787 2.3299,-2.82787c1.45843,0 1.47621,2.06308 1.47621,2.24095c0,1.33392 -1.63626,3.09469 -2.09871,3.59268c0.81815,2.13428 2.63227,4.44637 2.93462,4.81988c0.07117,-0.08893 0.6225,-0.76479 1.26278,-1.79633c0.44465,-0.72921 0.92486,-1.52956 1.28058,-2.18762c0.07117,-0.14229 0.07115,-0.24899 0.07115,-0.32014c0,-0.49799 -0.49801,-0.78255 -1.245,-0.78255v-0.51579c0.40906,0.03556 1.54734,0.03556 2.02757,0.03556c0.58691,0 1.17385,-0.01776 1.76077,-0.03556v0.51579c-1.54736,0.0178 -1.92086,0.67584 -2.54334,1.76075c-0.92486,1.56514 -1.52956,2.61448 -2.36549,3.64603c0.74699,0.8715 1.54734,1.6007 2.41883,1.6007c0.8715,0 1.97421,-0.65806 2.00977,-2.00977h0.39134c-0.03559,1.51177 -1.13832,2.52554 -2.47223,2.52554c-1.51178,0 -2.61448,-0.9782 -3.05913,-1.36949c-0.90706,0.85372 -1.9742,1.36949 -3.16582,1.36949c-1.67184,0 -3.14804,-1.10269 -3.14804,-2.65004c0,-0.71142 0.35572,-1.29834 0.65806,-1.63626zM242.33204,175.71369c0,-0.3557 -0.07117,-1.90306 -1.04935,-1.90306c-0.64026,0 -1.31614,0.6225 -1.31614,2.06313c0,0.78257 0.16009,1.99199 0.53358,3.02355c0.3735,-0.42685 1.83191,-2.02755 1.83191,-3.1836zM238.686,181.4762c-0.48023,0.65806 -0.55136,1.40505 -0.55136,1.86747c0,1.08491 0.49801,2.68563 1.95643,2.68563c0.51579,0 1.6007,-0.12451 2.70339,-1.15607c-1.13827,-1.26278 -2.31213,-3.00575 -3.02355,-4.62423c-0.14227,0.16007 -1.06713,1.17385 -1.08491,1.22719z" fill="#ff0000"/><path d="" fill="#000000"/></g></g></svg>