<svg version="1.1" xmlns="http://www.w3.org/2000/svg" xmlns:xlink="http://www.w3.org/1999/xlink" width="31.25" height="16.02979" viewBox="0,0,31.25,16.02979"><g transform="translate(-224.375,-171.98513)"><g data-paper-data="{&quot;isPaintingLayer&quot;:true}" fill-rule="nonzero" stroke="none" stroke-linecap="butt" stroke-linejoin="miter" stroke-miterlimit="10" stroke-dasharray="" stroke-dashoffset="0" style="mix-blend-mode: normal"><path d="M224.375,188.01493v-16.02979h31.25v16.02979z" fill-opacity="0.00392" fill="#ffffff" stroke-width="0"/><g fill="#000000" stroke-width="1"><path d="M232.40497,184.261h-1.0166v-5.30286h-1.00288v-0.79681h1.00288v-1.23643c0,-1.33258 0.93417,-2.33546 2.23928,-2.33546c0.50832,0 0.96167,0.10991 1.05783,0.13739v0.9067c-0.16485,-0.06868 -0.59072,-0.21981 -1.07155,-0.21981c-0.45335,0 -1.23642,0.16485 -1.23642,1.09905v1.64856h1.49745v0.79681h-1.46998z"/><path d="M238.60236,173.95748c-0.92043,0.85176 -2.36291,2.83004 -2.36291,6.88275c0,1.25016 0.13737,2.52779 0.5083,3.75048c0.48083,1.5524 1.31884,2.62396 1.85461,3.11853h-0.82428c-1.992,-1.77221 -2.58273,-4.46486 -2.58273,-6.88274c0,-2.23929 0.52204,-5.02811 2.58273,-6.86901z"/><path d="M245.47593,184.261h-1.15399l-1.95079,-2.55527l-1.89584,2.55527h-1.14025l2.56901,-3.146l-2.50032,-2.95367h1.16773l1.79967,2.22555l1.73098,-2.22555h1.154l-2.43162,2.95367z"/><path d="M246.20749,187.70924c0.92045,-0.85176 2.36293,-2.83004 2.36293,-6.88274c0,-1.25016 -0.13737,-2.52779 -0.5083,-3.75048c-0.48083,-1.5524 -1.31885,-2.62396 -1.85463,-3.11854h0.82428c1.99201,1.77221 2.58274,4.46486 2.58274,6.88275c0,2.23931 -0.52205,5.02811 -2.58274,6.86901z"/></g></g></g></svg>