<svg version="1.1" xmlns="http://www.w3.org/2000/svg" xmlns:xlink="http://www.w3.org/1999/xlink" width="25.95662" height="25.95662" viewBox="0,0,25.95662,25.95662"><defs><radialGradient cx="240.00001" cy="181.35758" r="12.97831" gradientUnits="userSpaceOnUse" id="color-1"><stop offset="0" stop-color="#383838"/><stop offset="1" stop-color="#d6d6d6" stop-opacity="0.00392"/></radialGradient></defs><g transform="translate(-227.0217,-168.37927)"><g data-paper-data="{&quot;isPaintingLayer&quot;:true}" fill-rule="nonzero" stroke-linejoin="miter" stroke-miterlimit="10" stroke-dasharray="" stroke-dashoffset="0" style="mix-blend-mode: normal"><path d="M227.0217,181.35758c0,-7.16772 5.81059,-12.97831 12.97831,-12.97831c7.16772,0 12.97831,5.81059 12.97831,12.97831c0,7.16772 -5.81059,12.97831 -12.97831,12.97831c-7.16772,0 -12.97831,-5.81059 -12.97831,-12.97831z" fill="url(#color-1)" stroke="none" stroke-width="0" stroke-linecap="butt"/><path d="M229.44597,180.00005c0,-5.82885 4.7252,-10.55406 10.55405,-10.55406c5.82885,0 10.55406,4.72521 10.55406,10.55406c0,5.82885 -4.72521,10.55405 -10.55406,10.55405c-5.82885,0 -10.55405,-4.7252 -10.55405,-10.55405z" fill="#fff5ce" stroke="none" stroke-width="0" stroke-linecap="butt"/><path d="M236.56909,177.6743h4.48663" fill="none" stroke="#ffa000" stroke-width="0.5" stroke-linecap="round"/><g fill="none" stroke="#ffa000" stroke-width="0.75"><path d="M235.15911,177.61367c0,-1.9832 1.6077,-3.59091 3.59091,-3.59091c1.9832,0 3.59091,1.6077 3.59091,3.59091c0,1.9832 -1.6077,3.59091 -3.59091,3.59091c-1.9832,0 -3.59091,-1.6077 -3.59091,-3.59091z" stroke-linecap="butt"/><path d="M240.88639,180.65912l3.13637,4.04545" stroke-linecap="round"/></g></g></g></svg>