<svg version="1.1" xmlns="http://www.w3.org/2000/svg" xmlns:xlink="http://www.w3.org/1999/xlink" width="301" height="133" viewBox="0,0,301,133"><g transform="translate(-94.69443,-121.21179)"><g data-paper-data="{&quot;isPaintingLayer&quot;:true}" fill-rule="nonzero" stroke-linejoin="miter" stroke-miterlimit="10" stroke-dasharray="" stroke-dashoffset="0" style="mix-blend-mode: normal"><path d="M235.89147,250.1v-46.2h44.60592v46.2z" fill-opacity="0.00392" fill="#ffffff" stroke="#005fff" stroke-width="0" stroke-linecap="butt"/><path d="M94.69443,254.21179v-133h301v133z" fill="none" stroke="none" stroke-width="0" stroke-linecap="butt"/><text transform="translate(243.54272,244.40889) scale(0.1668,0.1668)" font-size="40" xml:space="preserve" fill="#000000" fill-rule="nonzero" stroke="none" stroke-width="1" stroke-linecap="butt" stroke-linejoin="miter" stroke-miterlimit="10" stroke-dasharray="" stroke-dashoffset="0" font-family="Sans Serif" font-weight="normal" text-anchor="start" style="mix-blend-mode: normal"><tspan x="0" dy="0">fox mach</tspan></text><g><path d="M270.94564,221.53706c0,6.90687 -5.70892,12.506 -12.75121,12.506c-7.0423,0 -12.75122,-5.59913 -12.75122,-12.506c0,-6.90687 5.70892,-12.506 12.75122,-12.506c7.0423,0 12.75121,5.59913 12.75121,12.506z" fill="none" stroke="#000000" stroke-width="1.5" stroke-linecap="butt"/><path d="M249.85708,235.39174l0.49044,-28.93544" fill="none" stroke="#000000" stroke-width="1.5" stroke-linecap="round"/><path d="M269.96477,228.64831l-24.52157,-0.98087" fill="none" stroke="#000000" stroke-width="1.5" stroke-linecap="round"/><path d="M259.1753,234.04306c-1.47129,0 -1.47129,-1.47129 -1.47129,-1.47129l0.02001,-0.48709c0.44379,-2.60396 0.42778,-5.43018 0.61274,-8.20098c-2.63668,-2.29994 -3.57535,-5.7895 -3.57535,-9.7031c0,0 0,-1.47129 1.47129,-1.47129c1.47129,0 1.47129,1.47129 1.47129,1.47129c0,2.11887 0.26828,4.09695 1.12891,5.69394c0.48791,-2.38632 1.40213,-4.61699 3.22547,-6.48908c0,0 1.04035,-1.04037 2.08072,0c1.04035,1.04037 0,2.08073 0,2.08073c-1.83061,1.76504 -2.57054,4.24404 -2.89336,6.91273c0.46761,0.27521 0.99304,0.51176 1.58263,0.70494l1.47129,0.49044c0,0 1.3958,0.46525 0.93053,1.86105c-0.46527,1.3958 -1.86107,0.93053 -1.86107,0.93053l-1.47129,-0.49043c-0.30447,-0.10292 -0.59727,-0.2145 -0.8788,-0.33437c-0.09121,2.48447 -0.05411,4.95763 -0.39245,7.02736l0.02002,0.00334c0,0 0,1.47129 -1.47129,1.47129z" fill="#000000" stroke="none" stroke-width="0.5" stroke-linecap="butt"/></g></g></g></svg>