<svg version="1.1" xmlns="http://www.w3.org/2000/svg" xmlns:xlink="http://www.w3.org/1999/xlink" width="301" height="133" viewBox="0,0,301,133"><defs><linearGradient x1="220.07685" y1="169.19327" x2="222.6319" y2="169.19327" gradientUnits="userSpaceOnUse" id="color-1"><stop offset="0" stop-color="#ff0000"/><stop offset="1" stop-color="#ffb000"/></linearGradient><linearGradient x1="214.02272" y1="166.66065" x2="224.04465" y2="166.66065" gradientUnits="userSpaceOnUse" id="color-2"><stop offset="0" stop-color="#ff0000"/><stop offset="1" stop-color="#ffb000"/></linearGradient></defs><g transform="translate(-94.69443,-121.21179)"><g data-paper-data="{&quot;isPaintingLayer&quot;:true}" fill-rule="nonzero" stroke-linejoin="miter" stroke-dasharray="" stroke-dashoffset="0" style="mix-blend-mode: normal"><path d="M184.99704,203.1v-46.2h44.60592v46.2z" fill-opacity="0.00392" fill="#ffffff" stroke="#005fff" stroke-width="0" stroke-linecap="butt" stroke-miterlimit="10"/><text transform="translate(191.09402,198.17833) scale(0.22836,0.22836)" font-size="40" xml:space="preserve" fill="#000000" fill-rule="nonzero" stroke-opacity="0" stroke="#000000" stroke-width="0" stroke-linecap="butt" stroke-linejoin="miter" stroke-miterlimit="10" stroke-dasharray="" stroke-dashoffset="0" font-family="&quot;Microsoft YaHei&quot;, &quot;微软雅黑&quot;, STXihei, &quot;华文细黑&quot;" font-weight="normal" text-anchor="start" style="mix-blend-mode: normal"><tspan x="0" dy="0">SGC V3</tspan></text><path d="M94.69443,254.21179v-133h301v133z" fill="none" stroke="none" stroke-width="0" stroke-linecap="butt" stroke-miterlimit="10"/><g><g><path d="M195.15535,186.44131c0,-4.44867 0,-18.42999 0,-20.82091c0,-0.68091 0.70966,-1.26531 1.50453,-1.26531c2.51002,0 15.87145,0 20.4216,0c0.95242,0 1.51878,0.579 1.51878,1.55053c0,4.57356 0,17.84614 0,20.36456c0,0.80674 -0.52101,1.52983 -1.4047,1.52983c-4.51051,0 -18.46966,0 -20.82091,0c-0.65861,0 -1.21931,-0.503 -1.21931,-1.3587z" fill="#ffe2a2" stroke="#005aff" stroke-width="0" stroke-linecap="butt" stroke-miterlimit="10"/><path d="M212.00223,164.35509l-0.02879,0.17786l-0.02861,0.17583l-0.02879,0.17413l-0.02879,0.1721l-0.0574,0.33945l-0.02879,0.16701l-0.02879,0.16532l-0.11479,0.64469l-0.05758,0.31235l-0.02861,0.15414l-0.02879,0.15211l-0.22997,1.16302l-0.11479,0.54645l-0.05758,0.26493l-0.02879,0.13043l-0.02861,0.12941l-0.22997,0.98584l-0.11479,0.46345l-0.05758,0.22461l-0.02879,0.11078l-0.02861,0.10942l-0.22997,0.8361l-0.11498,0.39264l-0.0574,0.19039l-0.02879,0.09384l-0.02861,0.09283l-0.47736,1.40931l-0.23868,0.61894l-0.11934,0.29033l-0.05967,0.14059l-0.02974,0.06911l-0.02993,0.06843l-0.23868,0.52138l-0.11915,0.24459l-0.05967,0.11857l-0.02993,0.05793l-0.02974,0.05793l-0.23868,0.43939l-0.11934,0.20598l-0.05967,0.0996l-0.02993,0.04912l-0.02974,0.04844l-0.48626,0.72227l-0.24304,0.31642l-0.12142,0.14839l-0.06081,0.07148l-0.0305,0.03523l-0.03031,0.0349l-0.24304,0.26594l-0.12161,0.12433l-0.06081,0.0603l-0.03031,0.02981l-0.03031,0.02914l-0.24323,0.22325l-0.12142,0.10434l-0.06081,0.05082l-0.0305,0.02473l-0.03031,0.02473l-0.44857,0.3337l-0.22428,0.14771l-0.11214,0.06945l-0.05607,0.03388l-0.02804,0.0166l-0.02804,0.01626l-0.22428,0.12602l-0.11233,0.05895l-0.05607,0.02879l-0.02804,0.01423l-0.02804,0.01389l-0.22428,0.10705l-0.11214,0.05048l-0.08411,0.03659l-0.02804,0.01186l-0.48058,0.18667l-0.24039,0.08198l-0.12029,0.03828l-0.06005,0.01863l-0.02993,0.00915l-0.03012,0.00915l-0.24039,0.06877l-0.12009,0.03252l-0.06005,0.01558l-0.03012,0.00745l-0.02993,0.00779l-0.24039,0.05793l-0.12029,0.0271l-0.06005,0.01321l-0.02993,0.00644l-0.03012,0.00644l-0.44308,0.08706l-0.22163,0.03828l-0.11082,0.01829l-0.08297,0.01321l-0.02784,0.00406l-0.22144,0.03286l-0.11082,0.01558l-0.05531,0.00745l-0.02784,0.00373l-0.02766,0.00373l-0.22163,0.02812l-0.11063,0.01321l-0.0555,0.00644l-0.05531,0.0061l-0.45198,0.04675l-0.22599,0.02067l-0.11309,0.00983l-0.1129,0.00949l-0.22599,0.01762l-0.11309,0.00813l-0.1129,0.00813l-0.22599,0.01491l-0.11309,0.00712l-0.08467,0.00508l-0.02841,0.00169l-0.48399,0.02609l-0.24209,0.01118l-0.12104,0.00542l-0.06043,0.00271l-0.03031,0.00102l-0.03012,0.00135l-0.24209,0.00983l-0.12104,0.0044l-0.06043,0.00203l-0.03031,0.00102l-0.03031,0.00135l-0.24209,0.00779l-0.12086,0.00406l-0.06062,0.00169l-0.03031,0.00101l-0.03012,0.00067l-0.44649,0.01219l-0.22334,0.00542l-0.11157,0.00238l-0.05588,0.00135l-0.02784,0.00034l-0.02804,0.00067l-0.22315,0.00474l-0.11157,0.00203l-0.05588,0.00102l-0.02784,0.00067l-0.02804,0.00034l-0.22315,0.00406l-0.11177,0.00169l-0.05569,0.00102l-0.02804,0.00034l-0.02784,0.00034" fill="none" stroke="#005aff" stroke-width="0.25" stroke-linecap="square" stroke-miterlimit="3.25"/><g fill="none" stroke="#ff0000" stroke-width="0.25" stroke-linecap="square" stroke-miterlimit="3.25"><path d="M195.15535,177.83334l0.02598,-0.0669l0.02046,-0.0528l0.01797,-0.04644l0.03483,-0.09039l0.00276,-0.00636l0.00111,-0.00276l0.00249,-0.00608l0.02488,-0.0622l0.01354,-0.03096l0.01548,-0.03925l0.02433,-0.06026l0.01465,-0.03787l0.01852,-0.04285l0.00884,-0.01852l0.01742,-0.04451l0.00276,-0.00719l0.02184,-0.04755l0.00802,-0.02211l0.01189,-0.02764l0.01023,-0.0246l0.00774,-0.01741l0.00387,-0.00774l0.00829,-0.0199l0.01797,-0.04147l0.01852,-0.03787l0.01189,-0.03124l0.02875,-0.06579l0.00111,-0.00221l0.00028,-0.00111l0.00083,-0.00221l0.03013,-0.06607l0.01659,-0.03013l0.01437,-0.03815l0.00553,-0.01133l0.0141,-0.03124l0.00912,-0.01852l0.00249,-0.00719l0.00719,-0.01797l0.02433,-0.04976l0.01161,-0.0246l0.01354,-0.03151l0.00608,-0.01189l0.00359,-0.00608l0.00719,-0.01686l0.00498,-0.01106l0.01161,-0.02184l0.00442,-0.01161l0.00636,-0.01327l0.00553,-0.01244l0.00415,-0.00802l0.00221,-0.00442l0.00581,-0.01189l0.00802,-0.01742l0.01133,-0.02018l0.01824,-0.04229l0.00276,-0.0047l0.00138,-0.00276l0.00415,-0.00857l0.00829,-0.01631l0.00249,-0.00553l0.00553,-0.01299l0.00359,-0.00636l0.00719,-0.0141l0.00553,-0.01051l0.00857,-0.0199l0.00194,-0.00304l0.00111,-0.00194l0.00332,-0.00636l0.01244,-0.02488l0.0141,-0.01852l0.00249,-0.01437l0.01437,-0.03262l0.00166,-0.00111l0.00166,-0.00166l0.00663,-0.00968l0.01051,-0.01935l0.00995,-0.00111l0.00166,0.00525l0.01769,0.02018l0.00083,0.00387l0.00028,0.00083l0.00111,0.00249l0.01493,0.03013l0.00746,0.01244l0.00194,0.0047l0.00746,0.01576l0.00442,0.00912l0.01106,0.01935l0.00166,0.00387l0.00055,0.00166l0.01244,0.02488l0.00359,0.00663l0.00691,0.01797l0.00995,0.01465l0.00525,0.01023l0.0094,0.01686l0.00249,0.00553l0.00111,0.00249l0.00387,0.00746l0.01189,0.02294l0.00829,0.01935l0.00857,0.01327l0.01354,0.02433l0.00359,0.00829l0.00166,0.00359l0.00553,0.01106l0.0199,0.0387l0.00691,0.01216l0.01189,0.02046l0.00802,0.01714l0.01437,0.02737l0.01189,0.02211l0.01548,0.02681l0.00746,0.01548l0.01741,0.03234l0.01327,0.02488l0.00415,0.00719l0.00746,0.01244l0.01521,0.03013l0.01272,0.02156l0.00719,0.01354l0.00774,0.01437l0.00663,0.01161l0.01354,0.02488l0.00663,0.01327l0.01106,0.01852l0.01548,0.02792l0.00166,0.00331l0.00055,0.00083l0.00083,0.00138l0.02571,0.04727l0.00885,0.01521l0.0152,0.02654l0.00415,0.00802l0.01631,0.0293l0.02903,0.05031l0.01023,0.01963l0.03207,0.05722l0.02405,0.04229l0.03317,0.05391l0.01603,0.02931l0.00857,0.01603l0.0282,0.04644l0.00884,0.01521l0.02156,0.03759l0.00636,0.00995l0.00968,0.01576l0.04257,0.07381l0.02184,0.03511l0.03511,0.05805l0.00332,0.00608l0.00553,0.00912l0.03069,0.05059l0.0235,0.03981l0.03621,0.0575l0.01548,0.02599l0.05059,0.08183l0.02073,0.03317l0.00498,0.00774l0.00746,0.01189l0.04976,0.07989l0.01935,0.03013l0.03041,0.04727l0.01354,0.02184l0.03345,0.05225l0.03013,0.04699l0.02211,0.03373l0.02571,0.04008l0.01659,0.02571l0.05694,0.08653l0.00525,0.00774l0.01935,0.02931l0.04948,0.07519l0.01023,0.01493l0.01521,0.02239l0.06469,0.09648l0.04423,0.06469l0.03649,0.05336l0.05335,0.07768l0.02764,0.04008l0.01963,0.02764l0.06192,0.08929l0.04699,0.06718l0.03013,0.04229l0.00498,0.00719l0.00719,0.01023l0.07602,0.10532l0.05584,0.07574l0.02764,0.03953l0.03926,0.05446l0.04478,0.05999l0.03456,0.04479l0.05003,0.06939l0.06939,0.09371l0.01548,0.01991l0.01272,0.01576l0.0727,0.09758l0.01078,0.01437l0.06718,0.0868l0.00857,0.01106l0.01133,0.01493l0.07574,0.09675l0.0235,0.03096l0.03594,0.04478l0.02819,0.03511l0.03511,0.04616l0.01493,0.01824l0.03732,0.04727l0.0188,0.0235l0.02294,0.02847l0.00553,0.00719l0.04202,0.05003l0.05722,0.07215l0.03179,0.03759l0.02516,0.03179l0.04229,0.05252l0.02212,0.02488l0.01741,0.02184l0.05999,0.07326l0.01189,0.0141l0.01051,0.01216l0.07685,0.09233l0.00332,0.00359l0.03594,0.04257l0.05114,0.05999l0.00414,0.00498l0.0047,0.00581l0.07685,0.08874l0.01023,0.01216l0.01244,0.01465l0.06358,0.07243l0.01686,0.0188l0.0188,0.02294l0.05141,0.05778l0.02211,0.02571l0.02599,0.02958l0.03953,0.04395l0.02792,0.03179l0.03179,0.03621l0.02875,0.03124l0.03317,0.03759l0.03732,0.04174l0.0188,0.02018l0.03953,0.04091l0.04119,0.04838l0.0094,0.00995l0.04285,0.04699l0.04699,0.05114l0.00111,0.00111l0.01272,0.0141l0.03456,0.03704l0.04534,0.04838l0.00553,0.00636l0.04506,0.04782l0.04285,0.04506l0.01161,0.01244l0.04229,0.04478l0.04036,0.04202l0.01659,0.01769l0.04008,0.04174l0.0387,0.04008l0.02074,0.02156l0.03815,0.03953l0.03732,0.03815l0.02377,0.0246l0.03704,0.03787l0.03621,0.03704l0.02598,0.02654l0.03621,0.03649l0.03594,0.03621l0.12661,0.12661l0.03621,0.03594l0.03649,0.03621l0.02654,0.02599l0.03704,0.03621l0.03787,0.03704l0.0246,0.02377l0.03815,0.03732l0.03953,0.03815l0.02156,0.02073l0.04008,0.0387l0.04174,0.04008l0.01769,0.01659l0.04202,0.04036l0.04478,0.04229l0.01244,0.01161l0.04506,0.04285l0.04782,0.04506l0.00636,0.00553l0.04838,0.04534l0.03704,0.03456l0.0141,0.01272l0.00111,0.00111l0.05114,0.04699l0.04699,0.04285l0.00995,0.0094l0.04838,0.04119l0.04091,0.03953l0.02018,0.0188l0.04174,0.03732l0.03759,0.03317l0.03124,0.02875l0.03621,0.03179l0.03179,0.02792l0.04395,0.03953l0.02958,0.02599l0.02571,0.02211l0.05778,0.05142l0.02294,0.0188l0.0188,0.01686l0.07243,0.06358l0.01465,0.01244l0.01216,0.01023l0.08874,0.07685l0.00581,0.0047l0.00498,0.00415l0.05999,0.05114l0.03926,0.03317l0.00332,0.00276l0.00359,0.00332l0.09233,0.07685l0.01216,0.01051l0.0141,0.01189l0.07326,0.05999l0.02129,0.01797l0.02543,0.02156l0.05252,0.04229l0.03124,0.02599l0.03759,0.03096l0.03041,0.02433l0.04229,0.0329l0.05004,0.04202l0.00719,0.00553l0.0528,0.04091l0.04644,0.03815l0.01824,0.01493l0.04534,0.03566l0.03594,0.02764l0.04478,0.03594l0.03069,0.02377l0.02377,0.01824l0.07298,0.05722l0.01521,0.01133l0.01106,0.00857l0.0868,0.06718l0.01437,0.01078l0.09758,0.0727l0.01576,0.01271l0.0199,0.01548l0.09371,0.06939l0.06939,0.05004l0.04478,0.03456l0.05999,0.04478l0.05446,0.03926l0.03953,0.02764l0.07574,0.05584l0.10532,0.07602l0.01023,0.00719l0.00719,0.00498l0.04229,0.03013l0.06718,0.04699l0.08929,0.06192l0.02764,0.01963l0.04008,0.02764l0.07768,0.05336l0.05335,0.03649l0.06469,0.04423l0.09648,0.06469l0.02239,0.01521l0.01493,0.01023l0.07519,0.04948l0.0293,0.01935l0.00774,0.00525l0.08653,0.05694l0.02571,0.01659l0.04008,0.02571l0.03373,0.02212l0.04699,0.03013l0.05225,0.03345l0.02184,0.01354l0.04727,0.03041l0.03013,0.01935l0.07989,0.04976l0.01189,0.00746l0.00774,0.00498l0.03317,0.02073l0.08183,0.05059l0.02598,0.01548l0.0575,0.03621l0.03953,0.02377l0.05999,0.03594l0.00608,0.00332l0.05805,0.03511l0.03511,0.02184l0.07381,0.04257l0.01576,0.00968l0.00995,0.00636l0.03759,0.02156l0.0152,0.00885l0.04644,0.02819l0.01603,0.00857l0.02931,0.01603l0.05391,0.03317l0.04229,0.02405l0.05722,0.03207l0.01963,0.01023l0.05031,0.02903l0.02931,0.01631l0.00802,0.00414l0.02654,0.01521l0.0152,0.00884l0.04727,0.02571l0.00138,0.00083l0.00083,0.00056l0.00332,0.00193l0.04644,0.02626l0.01327,0.00664l0.02488,0.01354l0.01161,0.00663l0.01437,0.00774l0.01354,0.00719l0.02156,0.01271l0.03013,0.01521l0.01244,0.00746l0.00719,0.00415l0.02377,0.01216l0.00138,0.00083l0.0246,0.01382l0.00746,0.00387l0.01548,0.00746l0.02681,0.01548l0.02211,0.01189l0.02737,0.01437l0.01714,0.00802l0.02046,0.01189l0.01216,0.00691l0.0387,0.0199l0.01106,0.00553l0.00359,0.00166l0.00829,0.00359l0.03759,0.02211l0.01935,0.00829l0.02294,0.01189l0.00746,0.00387l0.00249,0.00111l0.00553,0.00249l0.01686,0.0094l0.01023,0.00525l0.01465,0.00719l0.00636,0.00304l0.01161,0.00663l0.02709,0.01382l0.00442,0.00249l0.00166,0.00028l0.00387,0.00166l0.01935,0.01106l0.00912,0.00442l0.01576,0.00746l0.0047,0.00194l0.01244,0.00746l0.03013,0.01493l0.00249,0.00111l0.00083,0.00028l0.00387,0.00083l0.02018,0.01769l0.00525,0.00166l-0.00111,0.00995l-0.00414,0.00083l-0.01521,0.00968l-0.00968,0.00663l-0.00166,0.00166l-0.00111,0.00166l-0.03262,0.01437l-0.01437,0.00249l-0.01852,0.0141l-0.02488,0.01244l-0.00636,0.00332l-0.00194,0.00111l-0.00304,0.00194l-0.0199,0.00857l-0.01051,0.00553l-0.0141,0.00719l-0.00636,0.00359l-0.01299,0.00553l-0.02184,0.01078l-0.00857,0.00359l-0.00276,0.00194l-0.0047,0.00276l-0.04229,0.01824l-0.02018,0.01133l-0.01742,0.00802l-0.01189,0.00525l-0.01216,0.00691l-0.02598,0.01189l-0.01161,0.00442l-0.02184,0.01161l-0.01106,0.00498l-0.01686,0.00719l-0.00608,0.00359l-0.01189,0.00608l-0.03151,0.01354l-0.0246,0.01161l-0.04976,0.02433l-0.01797,0.00719l-0.00719,0.00249l-0.01852,0.00912l-0.03124,0.0141l-0.01133,0.00553l-0.02377,0.01133l-0.01437,0.00608l-0.03013,0.01354l-0.06607,0.03013l-0.00221,0.00083l-0.00111,0.00028l-0.00221,0.00111l-0.06579,0.02875l-0.03124,0.01189l-0.03787,0.01852l-0.04146,0.01797l-0.01991,0.00885l-0.00774,0.00331l-0.01742,0.00774l-0.0246,0.01023l-0.02764,0.01189l-0.02211,0.00802l-0.04755,0.02184l-0.00719,0.00276l-0.04451,0.01852l-0.01852,0.00774l-0.04285,0.01852l-0.03787,0.01465l-0.02571,0.01078l-0.034,0.0141l-0.03981,0.01493l-0.03096,0.01354l-0.0622,0.02488l-0.00608,0.00249l-0.00276,0.00111l-0.00636,0.00276l-0.06496,0.02543l-0.02543,0.0094l-0.04589,0.01852l-0.01189,0.00442l-0.04147,0.01548l-0.0669,0.02599"/><path d="M218.60026,180.83627l-0.00359,0.00608l-0.00249,0.00359l-0.02073,0.02709l-0.06192,0.08293l-0.01051,0.01161l-0.05667,0.07713l-0.01824,0.02433l-0.0246,0.02847l-0.034,0.04672l-0.02792,0.03732l-0.03732,0.04478l-0.01244,0.01714l-0.03704,0.04976l-0.04064,0.04948l-0.00912,0.01106l-0.0387,0.04976l-0.02958,0.0387l-0.03124,0.03787l-0.02681,0.03456l-0.02074,0.02681l-0.05169,0.06358l-0.01576,0.02018l-0.01189,0.01548l-0.0716,0.08818l-0.00498,0.00636l-0.00415,0.00498l-0.03787,0.04672l-0.00221,0.00276l-0.00028,0.00055l-0.00028,0.00028l-0.03981,0.04893l-0.00442,0.00553l-0.00553,0.00664l-0.03041,0.03759l-0.00857,0.01051l-0.01078,0.01299l-0.02129,0.02598l-0.01272,0.01576l-0.01548,0.0188l-0.0528,0.06496l-0.02101,0.02571l-0.02571,0.02958l-0.06441,0.07878l-0.0528,0.06469l-0.03759,0.04368l-0.04368,0.05059l-0.04755,0.05695l-0.03925,0.04727l-0.05197,0.05999l-0.05999,0.06939l-0.03179,0.03759l-0.02709,0.03179l-0.06524,0.07464l-0.07464,0.08542l-0.01797,0.02073l-0.01548,0.01797l-0.07741,0.08763l-0.01023,0.01161l-0.07768,0.08763l-0.00525,0.00636l-0.00498,0.00553l-0.08625,0.09648l-0.00249,0.00276l-0.08929,0.09924l-0.00498,0.00553l-0.00525,0.00608l-0.08901,0.09813l-0.08127,0.08901l-0.01382,0.01493l-0.01465,0.01576l-0.08044,0.08763l-0.07464,0.08044l-0.02101,0.02239l-0.02267,0.02405l-0.07353,0.07878l-0.06911,0.07353l-0.02737,0.02847l-0.02875,0.03041l-0.068,0.0716l-0.06524,0.06801l-0.03207,0.03345l-0.03317,0.03456l-0.06441,0.06634l-0.06248,0.06441l-0.03538,0.03649l-0.03649,0.03704l-0.06192,0.06331l-0.06137,0.06192l-0.03732,0.03787l-0.03815,0.03815l-0.06109,0.06137l-0.06137,0.06109l-0.03815,0.03815l-0.03815,0.03732l-0.06192,0.06137l-0.06303,0.06192l-0.03732,0.03649l-0.03621,0.03538l-0.06441,0.06248l-0.06662,0.06441l-0.03428,0.03345l-0.03345,0.03179l-0.068,0.06524l-0.07187,0.06828l-0.03013,0.02875l-0.02875,0.02709l-0.07353,0.06939l-0.07851,0.07326l-0.02405,0.02267l-0.02239,0.02101l-0.08072,0.07464l-0.08735,0.08044l-0.01603,0.01493l-0.01465,0.01354l-0.08901,0.08127l-0.09841,0.08901l-0.00581,0.00553l-0.00553,0.00498l-0.09924,0.08901l-0.00276,0.00249l-0.09675,0.08625l-0.00553,0.00498l-0.00608,0.00553l-0.08763,0.07768l-0.01161,0.00995l-0.08763,0.07741l-0.01797,0.01576l-0.02101,0.01769l-0.08514,0.07464l-0.07464,0.06524l-0.03179,0.02709l-0.03787,0.03179l-0.06911,0.05999l-0.05999,0.05197l-0.04727,0.03953l-0.05694,0.04727l-0.05086,0.04368l-0.04368,0.03759l-0.06441,0.0528l-0.07878,0.06469l-0.02986,0.02543l-0.02543,0.02101l-0.06496,0.0528l-0.01852,0.01603l-0.01603,0.01272l-0.08708,0.07049l-0.00663,0.00581l-0.00553,0.00442l-0.05308,0.04285l-0.05114,0.04146l-0.09454,0.0774l-0.01548,0.01134l-0.02018,0.01548l-0.06358,0.05197l-0.02654,0.02101l-0.03483,0.02626l-0.03815,0.03124l-0.03759,0.03041l-0.05059,0.03787l-0.01106,0.00912l-0.04948,0.04064l-0.04976,0.03704l-0.01714,0.01244l-0.04478,0.03759l-0.03759,0.02764l-0.04644,0.03428l-0.02847,0.02433l-0.02433,0.01824l-0.07713,0.05667l-0.01189,0.01051l-0.08266,0.06192l-0.02709,0.02101l-0.00359,0.00221l-0.00608,0.00359"/><path d="M218.60026,184.66493l-0.04782,0.05556l-0.02516,0.02626l-0.02626,0.02792l-0.03926,0.04506l-0.0293,0.03096l-0.03096,0.03289l-0.03096,0.03566l-0.03317,0.03511l-0.03511,0.03732l-0.02377,0.02681l-0.03649,0.03898l-0.03898,0.04146l-0.01686,0.0188l-0.04008,0.04257l-0.04257,0.04506l-0.01051,0.01189l-0.04312,0.04561l-0.04561,0.04838l-0.0047,0.00525l-0.04616,0.04865l-0.03953,0.04174l-0.00857,0.00884l-0.00028,0.00056l-0.0481,0.05086l-0.04533,0.0481l-0.00608,0.00608l-0.04534,0.04782l-0.0434,0.04534l-0.01051,0.01106l-0.0434,0.04506l-0.04119,0.0434l-0.01493,0.01493l-0.04119,0.04285l-0.04008,0.04146l-0.01797,0.01824l-0.03981,0.04119l-0.0387,0.03981l-0.02073,0.02101l-0.0387,0.03981l-0.03815,0.0387l-0.02267,0.02294l-0.03787,0.03843l-0.03732,0.03787l-0.02405,0.02433l-0.03732,0.03759l-0.03732,0.03732l-0.0246,0.02488l-0.07464,0.07464l-0.02488,0.0246l-0.03732,0.03732l-0.03787,0.03732l-0.02405,0.02405l-0.03787,0.03732l-0.0387,0.03815l-0.02294,0.02267l-0.0387,0.03787l-0.03953,0.0387l-0.02101,0.02073l-0.03981,0.0387l-0.04119,0.03981l-0.01824,0.01797l-0.04147,0.04008l-0.04312,0.04147l-0.01493,0.01465l-0.04312,0.04146l-0.04534,0.04312l-0.01078,0.01078l-0.04534,0.04312l-0.04782,0.04533l-0.00608,0.00608l-0.0481,0.04534l-0.05086,0.0481l-0.00055,0.00055l-0.00884,0.00829l-0.04174,0.03953l-0.04865,0.04616l-0.00525,0.0047l-0.04838,0.04561l-0.04589,0.04312l-0.01161,0.01051l-0.04506,0.04257l-0.04257,0.04008l-0.0188,0.01686l-0.04146,0.03898l-0.03898,0.03649l-0.02681,0.02377l-0.03759,0.03511l-0.03511,0.03317l-0.03538,0.03124l-0.03289,0.03068l-0.03096,0.02931l-0.04506,0.03925l-0.02792,0.02626l-0.02626,0.02516l-0.05556,0.04782"/><path d="M198.29042,187.8l-0.05556,-0.04782l-0.02626,-0.02516l-0.0235,-0.02294l-0.00332,-0.00332l-0.02433,-0.02184l-0.02184,-0.0199l-0.00857,-0.00802l-0.02156,-0.01963l-0.01963,-0.01741l-0.01327,-0.01244l-0.01907,-0.01742l-0.01742,-0.01576l-0.01769,-0.01659l-0.01742,-0.01465l-0.03732,-0.03511l-0.0141,-0.01244l-0.01271,-0.01133l-0.03898,-0.03649l-0.04147,-0.03898l-0.00995,-0.00884l-0.00884,-0.00802l-0.04257,-0.04008l-0.04506,-0.04257l-0.00636,-0.00553l-0.00553,-0.00498l-0.04561,-0.04312l-0.04838,-0.04561l-0.00276,-0.00249l-0.00249,-0.00221l-0.04865,-0.04616l-0.04174,-0.03953l-0.00884,-0.00829l-0.00055,-0.00055l-0.04921,-0.04644l-0.00332,-0.00332l-0.04644,-0.04395l-0.00304,-0.00276l-0.00276,-0.00304l-0.04395,-0.04146l-0.00387,-0.00387l-0.00442,-0.00415l-0.04119,-0.03953l-0.00525,-0.00498l-0.00553,-0.00525l-0.03898,-0.03732l-0.00636,-0.00581l-0.0434,-0.04146l-0.01493,-0.01465l-0.04285,-0.04147l-0.04146,-0.04008l-0.01824,-0.01797l-0.04119,-0.03981l-0.03981,-0.0387l-0.02101,-0.02073l-0.03981,-0.0387l-0.0387,-0.03787l-0.02294,-0.02267l-0.03843,-0.03815l-0.03787,-0.03732l-0.02433,-0.02405l-0.03759,-0.03732l-0.03732,-0.03732l-0.02488,-0.0246l-0.07464,-0.07464l-0.0246,-0.02488l-0.03732,-0.03732l-0.03732,-0.03759l-0.02405,-0.02433l-0.03732,-0.03787l-0.03815,-0.03843l-0.02267,-0.02294l-0.03787,-0.0387l-0.0387,-0.03981l-0.02074,-0.02101l-0.0387,-0.03981l-0.03981,-0.04119l-0.01797,-0.01824l-0.04008,-0.04146l-0.04146,-0.04285l-0.01465,-0.01493l-0.04146,-0.0434l-0.00581,-0.00636l-0.03732,-0.03898l-0.00553,-0.00525l-0.0047,-0.00553l-0.03953,-0.04119l-0.00415,-0.00415l-0.04534,-0.04782l-0.00608,-0.00608l-0.04534,-0.0481l-0.00166,-0.00166l-0.04644,-0.04921l-0.00055,-0.00056l-0.00829,-0.00884l-0.01548,-0.01631l-0.02322,-0.02433l-0.00083,-0.00111l-0.00111,-0.00138l-0.04478,-0.04727l-0.00249,-0.00249l-0.00249,-0.00276l-0.04174,-0.04451l-0.00387,-0.00387l-0.00415,-0.0047l-0.0387,-0.04091l-0.00525,-0.00553l-0.00553,-0.00663l-0.03566,-0.03759l-0.00691,-0.00719l-0.00719,-0.00829l-0.03207,-0.03428l-0.00829,-0.00912l-0.0094,-0.01023l-0.02847,-0.03013l-0.00995,-0.01134l-0.01134,-0.01216l-0.0246,-0.02626l-0.01189,-0.01299l-0.01299,-0.01437l-0.02101,-0.02239l-0.01354,-0.01521l-0.01521,-0.01659l-0.01659,-0.01769l-0.01576,-0.01741l-0.01742,-0.01907l-0.01244,-0.01327l-0.01741,-0.01963l-0.0047,-0.00525l-0.01493,-0.01659l-0.00415,-0.00414l-0.00359,-0.00415l-0.01714,-0.0188l-0.00304,-0.00304l-0.02184,-0.02433l-0.00332,-0.00332l-0.02294,-0.0235l-0.02516,-0.02626l-0.04782,-0.05556"/><path d="M202.11908,187.8l-0.00608,-0.00359l-0.00359,-0.00221l-0.02709,-0.02101l-0.08293,-0.06192l-0.01161,-0.01051l-0.07713,-0.05667l-0.02433,-0.01824l-0.02847,-0.02433l-0.04672,-0.03428l-0.03621,-0.02903l-0.04589,-0.03621l-0.01714,-0.01244l-0.04838,-0.03843l-0.01078,-0.00829l-0.04008,-0.03096l-0.00498,-0.00414l-0.00608,-0.00498l-0.04976,-0.0387l-0.0387,-0.02958l-0.03787,-0.03124l-0.03511,-0.02626l-0.02626,-0.02101l-0.06358,-0.05197l-0.02018,-0.01548l-0.01548,-0.01216l-0.08818,-0.0716l-0.00636,-0.00498l-0.00498,-0.00387l-0.04644,-0.03759l-0.0528,-0.04285l-0.00553,-0.0047l-0.00664,-0.00553l-0.08708,-0.07049l-0.01576,-0.01299l-0.0188,-0.01576l-0.06496,-0.0528l-0.02571,-0.02101l-0.02958,-0.02543l-0.07878,-0.06469l-0.06469,-0.0528l-0.04368,-0.03759l-0.05059,-0.04368l-0.05694,-0.04727l-0.04727,-0.03953l-0.05999,-0.05197l-0.03953,-0.034l-0.02986,-0.02598l-0.03759,-0.03179l-0.03179,-0.02709l-0.07464,-0.06524l-0.0246,-0.02129l-0.06082,-0.05335l-0.02073,-0.01769l-0.01797,-0.01576l-0.07464,-0.06579l-0.01299,-0.01161l-0.01161,-0.00995l-0.08763,-0.07768l-0.00636,-0.00553l-0.00553,-0.00498l-0.09648,-0.08625l-0.00276,-0.00249l-0.00028,-0.00028l-0.09896,-0.08901l-0.00553,-0.0047l-0.00581,-0.00553l-0.08818,-0.07961l-0.01023,-0.0094l-0.01133,-0.01023l-0.07768,-0.07104l-0.01493,-0.01354l-0.01576,-0.01493l-0.06856,-0.06303l-0.01907,-0.01742l-0.02018,-0.0188l-0.06026,-0.05584l-0.02239,-0.02101l-0.02405,-0.02267l-0.0528,-0.04921l-0.02598,-0.02405l-0.02737,-0.02599l-0.04616,-0.0434l-0.02847,-0.02709l-0.03041,-0.02875l-0.04036,-0.03843l-0.03124,-0.02986l-0.03262,-0.03124l-0.03538,-0.034l-0.03345,-0.03179l-0.03456,-0.03345l-0.03151,-0.03041l-0.03483,-0.034l-0.03621,-0.03483l-0.0282,-0.02736l-0.03649,-0.03566l-0.03732,-0.03649l-0.02543,-0.02516l-0.03759,-0.03677l-0.03787,-0.03732l-0.02405,-0.02377l-0.03787,-0.03759l-0.03843,-0.03815l-0.12219,-0.12218l-0.03815,-0.03843l-0.03759,-0.03787l-0.02377,-0.02405l-0.03732,-0.03787l-0.03677,-0.03759l-0.02516,-0.02543l-0.03649,-0.03732l-0.03566,-0.03649l-0.02737,-0.02819l-0.03483,-0.03621l-0.034,-0.03483l-0.03041,-0.03151l-0.03345,-0.03456l-0.03179,-0.03345l-0.034,-0.03538l-0.03124,-0.03262l-0.02986,-0.03124l-0.03843,-0.04036l-0.02875,-0.03041l-0.02709,-0.02847l-0.0434,-0.04616l-0.02598,-0.02737l-0.02405,-0.02599l-0.04921,-0.0528l-0.02267,-0.02405l-0.02101,-0.02239l-0.05584,-0.06026l-0.0188,-0.02018l-0.01742,-0.01907l-0.06303,-0.06856l-0.01493,-0.01576l-0.01354,-0.01493l-0.07104,-0.07768l-0.01023,-0.01134l-0.0094,-0.01023l-0.07961,-0.08818l-0.00553,-0.00581l-0.0047,-0.00553l-0.08901,-0.09896l-0.00028,-0.00028l-0.00249,-0.00276l-0.08625,-0.09648l-0.00498,-0.00553l-0.00553,-0.00636l-0.07768,-0.08763l-0.00995,-0.01161l-0.01161,-0.01299l-0.06579,-0.07464l-0.01576,-0.01797l-0.01769,-0.02073l-0.07464,-0.08542l-0.02488,-0.02875l-0.03981,-0.04589l-0.02764,-0.03179l-0.03179,-0.03759l-0.02598,-0.02986l-0.034,-0.03953l-0.03953,-0.04672l-0.01106,-0.01327l-0.04036,-0.04755l-0.02156,-0.02543l-0.02211,-0.02626l-0.00414,-0.0047l-0.04312,-0.05142l-0.03649,-0.04312l-0.01963,-0.02405l-0.03456,-0.04091l-0.02903,-0.03456l-0.03594,-0.04368l-0.02516,-0.03041l-0.02073,-0.02516l-0.00359,-0.0047l-0.02073,-0.0246l-0.01659,-0.02046l-0.01244,-0.01521l-0.01576,-0.0188l-0.01299,-0.01576l-0.07049,-0.08708l-0.00553,-0.00664l-0.0047,-0.00553l-0.03981,-0.04921l-0.00249,-0.00331l-0.03815,-0.04672l-0.00387,-0.00498l-0.00498,-0.00636l-0.0716,-0.08818l-0.01216,-0.01548l-0.01548,-0.02018l-0.05197,-0.06358l-0.02101,-0.02626l-0.02626,-0.03511l-0.03124,-0.03787l-0.02958,-0.0387l-0.00884,-0.01106l-0.02986,-0.03843l-0.00498,-0.00636l-0.00387,-0.00498l-0.03124,-0.04008l-0.00829,-0.01078l-0.03843,-0.04838l-0.01244,-0.01714l-0.03621,-0.04589l-0.02903,-0.03621l-0.03428,-0.04672l-0.02433,-0.02847l-0.01824,-0.02433l-0.05667,-0.07713l-0.01051,-0.01161l-0.06192,-0.08293l-0.02101,-0.02709l-0.00581,-0.00968"/><path d="M208.63332,187.8l-0.06662,-0.02599l-0.0528,-0.02046l-0.04672,-0.01797l-0.09012,-0.03483l-0.00636,-0.00276l-0.00276,-0.00111l-0.00636,-0.00249l-0.06192,-0.02488l-0.03096,-0.01354l-0.03925,-0.01548l-0.06026,-0.02433l-0.03787,-0.01465l-0.04312,-0.01852l-0.01824,-0.00774l-0.04478,-0.01852l-0.00691,-0.00276l-0.04782,-0.02184l-0.02184,-0.00802l-0.02764,-0.01189l-0.02488,-0.01023l-0.01714,-0.00774l-0.00774,-0.00387l-0.01991,-0.00829l-0.04146,-0.01797l-0.02792,-0.01161l-0.00995,-0.0047l-0.03124,-0.0141l-0.06607,-0.02875l-0.00221,-0.00111l-0.00083,-0.00028l-0.00221,-0.00083l-0.04644,-0.02156l-0.0199,-0.00829l-0.01852,-0.00857l-0.01133,-0.00525l-0.01465,-0.00608l-0.02377,-0.01106l-0.01133,-0.00581l-0.03096,-0.0141l-0.01852,-0.00912l-0.00719,-0.00249l-0.01797,-0.00719l-0.04976,-0.02433l-0.0246,-0.01161l-0.03179,-0.01354l-0.01189,-0.00608l-0.00581,-0.00359l-0.01686,-0.00719l-0.01106,-0.00498l-0.02184,-0.01161l-0.01189,-0.00442l-0.01299,-0.00636l-0.01244,-0.00553l-0.00829,-0.00414l-0.00415,-0.00221l-0.01216,-0.00581l-0.01714,-0.00802l-0.02046,-0.01133l-0.04202,-0.01824l-0.0047,-0.00276l-0.00276,-0.00194l-0.00857,-0.00359l-0.02211,-0.01078l-0.01272,-0.00553l-0.00636,-0.00359l-0.0141,-0.00719l-0.01078,-0.00553l-0.0199,-0.00857l-0.00304,-0.00194l-0.00193,-0.00111l-0.00636,-0.00332l-0.0246,-0.01244l-0.01852,-0.0141l-0.01437,-0.00249l-0.03262,-0.01437l-0.00111,-0.00166l-0.00166,-0.00166l-0.00995,-0.00663l-0.01907,-0.01051l-0.00138,-0.00995l0.00553,-0.00166l0.0199,-0.01769l0.00387,-0.00083l0.00111,-0.00028l0.00249,-0.00111l0.03013,-0.01493l0.01216,-0.00746l0.00498,-0.00194l0.01548,-0.00746l0.0094,-0.00442l0.01935,-0.01106l0.00387,-0.00166l0.00138,-0.00028l0.0047,-0.00249l0.02681,-0.01382l0.01189,-0.00663l0.00636,-0.00304l0.01465,-0.00719l0.01023,-0.00525l0.01686,-0.0094l0.00553,-0.00249l0.00249,-0.00111l0.00746,-0.00387l0.02267,-0.01189l0.01935,-0.00829l0.01354,-0.00857l0.02405,-0.01354l0.00829,-0.00359l0.00387,-0.00166l0.01189,-0.00664l0.01686,-0.00884l0.02101,-0.00995l0.01161,-0.00719l0.02101,-0.01161l0.01714,-0.00802l0.01797,-0.01023l0.00885,-0.0047l0.02267,-0.01134l0.02681,-0.01548l0.01521,-0.00774l0.00774,-0.00359l0.02433,-0.01382l0.00166,-0.00083l0.02377,-0.01216l0.00719,-0.00415l0.01216,-0.00746l0.03013,-0.01521l0.02211,-0.01216l0.02764,-0.01548l0.01133,-0.00663l0.02488,-0.01354l0.01354,-0.00664l0.01852,-0.01106l0.02792,-0.01548l0.00304,-0.00166l0.00111,-0.00056l0.00138,-0.00083l0.04727,-0.02571l0.0152,-0.00884l0.02654,-0.01521l0.00802,-0.00414l0.02903,-0.01631l0.05031,-0.02903l0.01991,-0.01023l0.0246,-0.01437l0.03179,-0.01852l0.04285,-0.02322l0.05418,-0.03317l0.02903,-0.01603l0.01631,-0.00857l0.04644,-0.02819l0.0152,-0.00885l0.03759,-0.02156l0.00995,-0.00636l0.01576,-0.00968l0.07381,-0.04257l0.03511,-0.02184l0.05805,-0.03511l0.00608,-0.00332l0.00912,-0.00553l0.05059,-0.03069l0.03953,-0.0235l0.0575,-0.03621l0.02626,-0.01548l0.08183,-0.05059l0.03317,-0.02073l0.01935,-0.01244l0.07989,-0.04976l0.03041,-0.01935l0.04727,-0.03041l0.02184,-0.01354l0.03787,-0.02433l0.01437,-0.00912l0.04699,-0.03013l0.03373,-0.02212l0.03981,-0.02571l0.02599,-0.01659l0.03428,-0.02267l0.05225,-0.03428l0.00774,-0.00525l0.0293,-0.01935l0.07491,-0.04948l0.0152,-0.01023l0.02239,-0.01521l0.0962,-0.06469l0.06496,-0.04423l0.05335,-0.03649l0.07768,-0.05336l0.03981,-0.02764l0.02792,-0.01963l0.08929,-0.06192l0.06718,-0.04699l0.04202,-0.03013l0.00746,-0.00498l0.01023,-0.00719l0.10532,-0.07602l0.07574,-0.05584l0.03926,-0.02764l0.05473,-0.03926l0.05999,-0.04478l0.04478,-0.03456l0.06939,-0.05004l0.09371,-0.06939l0.0199,-0.01548l0.01576,-0.01271l0.09758,-0.0727l0.00166,-0.00138l0.01244,-0.0094l0.0868,-0.06718l0.01133,-0.00857l0.01493,-0.01133l0.09648,-0.07574l0.03124,-0.0235l0.04478,-0.03594l0.03511,-0.0282l0.04616,-0.03511l0.01824,-0.01493l0.04616,-0.03815l0.05308,-0.04091l0.00719,-0.00553l0.05003,-0.04202l0.07215,-0.05722l0.03759,-0.03179l0.03179,-0.02516l0.05252,-0.04229l0.02488,-0.02211l0.02184,-0.01742l0.07326,-0.05999l0.01382,-0.01244l0.01216,-0.00995l0.09261,-0.07685l0.00359,-0.00332l0.04257,-0.03594l0.05999,-0.05114l0.0047,-0.00415l0.00608,-0.0047l0.08874,-0.07685l0.01216,-0.01023l0.01465,-0.01244l0.07243,-0.06358l0.01935,-0.01631l0.02239,-0.01935l0.0575,-0.05142l0.02516,-0.02294l0.03041,-0.02516l0.04395,-0.03953l0.03068,-0.02875l0.03704,-0.03096l0.03151,-0.02875l0.03732,-0.03317l0.01244,-0.01078l0.02958,-0.02654l0.01023,-0.00968l0.00968,-0.00912l0.04257,-0.03815l0.04672,-0.04257l0.00525,-0.0047l0.00498,-0.0047l0.04699,-0.04285l0.05114,-0.04699l0.00111,-0.00111l0.0141,-0.01272l0.03704,-0.03456l0.0481,-0.04534l0.00636,-0.00553l0.0481,-0.04506l0.04506,-0.04285l0.00608,-0.00553l0.00636,-0.00608l0.04451,-0.04229l0.04229,-0.04036l0.01769,-0.01659l0.04174,-0.04008l0.04008,-0.0387l0.02156,-0.02073l0.03953,-0.03815l0.03815,-0.03732l0.0246,-0.02377l0.03787,-0.03704l0.03677,-0.03621l0.02654,-0.02599l0.03677,-0.03621l0.03621,-0.03594l0.12661,-0.12661l0.03594,-0.03621l0.03594,-0.03649l0.02626,-0.02654l0.03621,-0.03704l0.03704,-0.03787l0.01216,-0.01244l0.01161,-0.01216l0.03732,-0.03815l0.03815,-0.03953l0.02074,-0.02156l0.0387,-0.04008l0.04008,-0.04174l0.01659,-0.01769l0.04036,-0.04202l0.04229,-0.04478l0.01161,-0.01244l0.04257,-0.04506l0.04506,-0.04782l0.00304,-0.00332l0.00276,-0.00304l0.04534,-0.04838l0.03428,-0.03704l0.01299,-0.0141l0.00111,-0.00111l0.04699,-0.05114l0.04285,-0.04699l0.0094,-0.00995l0.04257,-0.04699l0.03815,-0.04229l0.01852,-0.02018l0.03759,-0.04174l0.03317,-0.03759l0.02875,-0.03124l0.03179,-0.03621l0.02792,-0.03179l0.03953,-0.04395l0.02516,-0.03041l0.02294,-0.02488l0.05141,-0.05778l0.0188,-0.02294l0.01686,-0.0188l0.06358,-0.07243l0.01244,-0.01465l0.01023,-0.01216l0.07657,-0.08874l0.00498,-0.00581l0.00387,-0.00498l0.05114,-0.05999l0.03621,-0.04257l0.07906,-0.09592l0.01106,-0.01244l0.01244,-0.01382l0.05999,-0.07326l0.01741,-0.02184l0.02184,-0.02488l0.04257,-0.05252l0.02516,-0.03179l0.03179,-0.03704l0.02405,-0.03041l0.03317,-0.04229l0.04395,-0.05722l0.04451,-0.0528l0.03815,-0.04644l0.01465,-0.01824l0.03538,-0.04616l0.02819,-0.03511l0.03594,-0.04478l0.02322,-0.03096l0.01852,-0.0235l0.0575,-0.07298l0.01134,-0.01521l0.00857,-0.01106l0.0669,-0.0868l0.01106,-0.01437l0.0727,-0.09758l0.01244,-0.01576l0.01576,-0.01991l0.06939,-0.09371l0.05004,-0.06939l0.03456,-0.04479l0.04478,-0.05999l0.03926,-0.05446l0.02764,-0.03953l0.05584,-0.07574l0.07574,-0.10532l0.00746,-0.01023l0.00498,-0.00719l0.02986,-0.04229l0.04727,-0.06718l0.06164,-0.08929l0.0199,-0.02764l0.02764,-0.04008l0.05335,-0.07768l0.03621,-0.05336l0.04423,-0.06469l0.06496,-0.09648l0.01521,-0.02239l0.01023,-0.01493l0.04948,-0.07519l0.01935,-0.02931l0.00498,-0.00774l0.05722,-0.08653l0.01631,-0.02571l0.02599,-0.04008l0.02211,-0.03373l0.03013,-0.04699l0.00912,-0.01437l0.02433,-0.03787l0.01354,-0.02184l0.03013,-0.04727l0.01963,-0.03013l0.04948,-0.07989l0.00774,-0.01189l0.00498,-0.00774l0.02046,-0.03317l0.05059,-0.08183l0.01576,-0.02599l0.03621,-0.0575l0.02377,-0.03953l0.03566,-0.05999l0.00359,-0.00608l0.03511,-0.05805l0.02184,-0.03511l0.04257,-0.07381l0.00968,-0.01576l0.00636,-0.00995l0.02156,-0.03759l0.00884,-0.01521l0.02792,-0.04644l0.00857,-0.01603l0.01631,-0.02931l0.03317,-0.05391l0.02322,-0.04285l0.01824,-0.03207l0.01437,-0.0246l0.01023,-0.01963l0.0293,-0.05031l0.01631,-0.0293l0.00414,-0.00802l0.01521,-0.02654l0.00884,-0.01521l0.02571,-0.04727l0.00083,-0.00138l0.00055,-0.00083l0.00166,-0.00331l0.01548,-0.02792l0.01078,-0.01852l0.00691,-0.01327l0.01327,-0.02488l0.00691,-0.01161l0.00774,-0.01437l0.00719,-0.01354l0.01244,-0.02156l0.01548,-0.03013l0.00719,-0.01244l0.00442,-0.00719l0.01327,-0.02488l0.01714,-0.03234l0.00774,-0.01548l0.01548,-0.02681l0.01133,-0.02267l0.0047,-0.00857l0.00968,-0.01824l0.00829,-0.01659l0.0047,-0.00829l0.00719,-0.01327l0.00719,-0.01161l0.00968,-0.02101l0.00912,-0.01659l0.00663,-0.01216l0.00138,-0.00359l0.00387,-0.00829l0.01327,-0.02433l0.00857,-0.01327l0.00857,-0.01935l0.01189,-0.02294l0.00387,-0.00746l0.00111,-0.00249l0.00249,-0.00553l0.0094,-0.01686l0.00525,-0.01023l0.00719,-0.01465l0.00304,-0.00636l0.00664,-0.01161l0.01354,-0.02709l0.00249,-0.00442l0.00055,-0.00166l0.00138,-0.00387l0.01133,-0.01935l0.00442,-0.00912l0.00746,-0.01576l0.00166,-0.0047l0.00774,-0.01244l0.01493,-0.03013l0.00111,-0.00331l0.00111,-0.00387l0.01769,-0.02018l0.00166,-0.00525l0.00995,0.00111l0.01051,0.01935l0.00636,0.00968l0.00194,0.00166l0.00166,0.00111l0.0141,0.03262l0.00249,0.01437l0.01437,0.01852l0.01244,0.02488l0.00304,0.00636l0.00138,0.00194l0.00193,0.00304l0.00857,0.0199l0.00553,0.01051l0.00691,0.0141l0.00359,0.00636l0.00581,0.01299l0.01051,0.02184l0.00387,0.00857l0.00194,0.00276l0.00276,0.0047l0.01797,0.04229l0.01161,0.02018l0.00802,0.01742l0.00581,0.01189l0.00221,0.00442l0.00415,0.00802l0.00553,0.01244l0.00608,0.01327l0.0047,0.01161l0.01133,0.02184l0.00525,0.01106l0.00719,0.01686l0.00359,0.00608l0.00608,0.01189l0.00968,0.02184l0.00387,0.00968l0.01134,0.0246l0.0246,0.04976l0.00719,0.01797l0.00221,0.00719l0.00912,0.01852l0.01437,0.03124l0.00553,0.01133l0.01133,0.02377l0.00608,0.01437l0.00525,0.01133l0.00857,0.01852l0.00802,0.01991l0.02184,0.04644l0.00083,0.00221l0.00028,0.00111l0.00111,0.00221l0.01382,0.03124l0.00664,0.01603l0.00829,0.01852l0.0141,0.03124l0.00442,0.00995l0.01189,0.02792l0.01797,0.04147l0.00857,0.0199l0.00359,0.00774l0.00774,0.01741l0.01023,0.0246l0.01161,0.02764l0.00829,0.02211l0.02156,0.04755l0.00304,0.00719l0.01852,0.04451l0.00774,0.01852l0.01824,0.04285l0.01493,0.03787l0.01078,0.02571l0.0141,0.034l0.01493,0.03981l0.01354,0.03096l0.02488,0.0622l0.00249,0.00608l0.00111,0.00276l0.00276,0.00636l0.03456,0.09039l0.01824,0.04644l0.04644,0.11942"/><path d="M205.12201,164.35509l0.0669,0.02599l0.0528,0.02046l0.04644,0.01824l0.09039,0.03456l0.00636,0.00276l0.00276,0.00111l0.00608,0.00249l0.0622,0.02488l0.03096,0.01354l0.03926,0.01548l0.06026,0.02433l0.03787,0.01493l0.04285,0.01824l0.01852,0.00884l0.04727,0.02018l0.05197,0.02184l0.02156,0.00857l0.05335,0.02156l0.01686,0.00774l0.00774,0.00414l0.01991,0.00802l0.04146,0.01797l0.03787,0.0188l0.03124,0.01161l0.06579,0.02875l0.00221,0.00111l0.00111,0.00028l0.00221,0.00083l0.04644,0.02184l0.01963,0.00857l0.03013,0.01327l0.01437,0.00608l0.02405,0.01133l0.01106,0.00553l0.02322,0.00995l0.00691,0.00304l0.01963,0.00968l0.00746,0.00276l0.01659,0.00746l0.01741,0.00829l0.00829,0.0047l0.02267,0.00968l0.00304,0.00138l0.02405,0.01189l0.00968,0.00387l0.01493,0.00691l0.00664,0.00276l0.01216,0.00608l0.00608,0.00359l0.01686,0.00719l0.01106,0.00525l0.02184,0.01133l0.01161,0.0047l0.01327,0.00608l0.01244,0.00553l0.00802,0.00414l0.00442,0.00221l0.01189,0.00581l0.01742,0.00802l0.02018,0.01161l0.04229,0.01797l0.0047,0.00276l0.00276,0.00138l0.00857,0.00442l0.01631,0.00802l0.00553,0.00249l0.01299,0.00581l0.00636,0.00359l0.0141,0.00691l0.01051,0.00553l0.0199,0.00857l0.00304,0.00194l0.00194,0.00138l0.00636,0.00304l0.02488,0.01244l0.01852,0.01437l0.01437,0.00249l0.03262,0.0141l0.00111,0.00166l0.00166,0.00193l0.00968,0.00636l0.01935,0.01051l0.00111,0.00995l-0.00525,0.00166l-0.02018,0.01769l-0.00387,0.00111l-0.00332,0.00111l-0.03013,0.01493l-0.01244,0.00774l-0.0047,0.00166l-0.01576,0.00746l-0.00912,0.00442l-0.01935,0.01133l-0.00387,0.00138l-0.00608,0.00304l-0.02046,0.00995l-0.00664,0.00359l-0.01797,0.00691l-0.01465,0.00995l-0.01023,0.00525l-0.01686,0.0094l-0.00553,0.00249l-0.00249,0.00111l-0.00746,0.00387l-0.02294,0.01189l-0.01935,0.00857l-0.01327,0.00857l-0.02433,0.01327l-0.00829,0.00387l-0.00359,0.00138l-0.01216,0.00663l-0.01659,0.00912l-0.02101,0.00968l-0.01161,0.00719l-0.01327,0.00719l-0.00829,0.0047l-0.01659,0.00829l-0.01824,0.00968l-0.00857,0.0047l-0.02267,0.01133l-0.02681,0.01548l-0.01548,0.00774l-0.03234,0.01714l-0.02488,0.01327l-0.00719,0.00442l-0.01244,0.00719l-0.03013,0.01548l-0.02156,0.01244l-0.01354,0.00719l-0.01437,0.00774l-0.01161,0.00691l-0.02488,0.01327l-0.01327,0.00691l-0.01852,0.01078l-0.02792,0.01548l-0.00332,0.00166l-0.00083,0.00055l-0.00138,0.00083l-0.04727,0.02571l-0.0152,0.00884l-0.02654,0.01521l-0.00802,0.00415l-0.02931,0.01631l-0.05031,0.02931l-0.01963,0.01023l-0.05722,0.03179l-0.04229,0.02405l-0.05391,0.03317l-0.02931,0.01631l-0.01603,0.00857l-0.04644,0.02792l-0.0152,0.00885l-0.03759,0.02156l-0.00995,0.00636l-0.01576,0.00968l-0.07381,0.04257l-0.03511,0.02184l-0.05805,0.03511l-0.00608,0.00359l-0.05999,0.03566l-0.03953,0.02377l-0.0575,0.03621l-0.02598,0.01576l-0.08183,0.05059l-0.03317,0.02046l-0.00774,0.00498l-0.01189,0.00774l-0.07989,0.04948l-0.03013,0.01935l-0.04727,0.03041l-0.02184,0.01354l-0.05225,0.03345l-0.08017,0.05225l-0.04064,0.02598l-0.02571,0.01631l-0.08653,0.05722l-0.00774,0.00498l-0.0293,0.01935l-0.07519,0.04948l-0.01493,0.01023l-0.02239,0.01521l-0.09648,0.06496l-0.06469,0.04423l-0.05335,0.03621l-0.07768,0.05335l-0.04008,0.02764l-0.02764,0.0199l-0.08929,0.06164l-0.06718,0.04727l-0.04229,0.02986l-0.00719,0.00498l-0.01023,0.00746l-0.10532,0.07574l-0.07574,0.05584l-0.03953,0.02764l-0.05446,0.03926l-0.05999,0.04478l-0.04478,0.03456l-0.06939,0.05004l-0.09371,0.06939l-0.0199,0.01576l-0.01576,0.01244l-0.09758,0.0727l-0.01437,0.01106l-0.0868,0.06745l-0.01106,0.00802l-0.01493,0.01133l-0.09675,0.07602l-0.07574,0.06109l-0.03511,0.02626l-0.04616,0.03538l-0.01824,0.01465l-0.04644,0.03815l-0.0528,0.04091l-0.00719,0.00553l-0.05004,0.04202l-0.04229,0.03317l-0.03041,0.02405l-0.03704,0.03179l-0.03179,0.02516l-0.05252,0.04257l-0.02488,0.02184l-0.02184,0.01742l-0.07326,0.05999l-0.01382,0.01244l-0.01244,0.00995l-0.09233,0.07685l-0.00359,0.00332l-0.04257,0.03621l-0.05999,0.05142l-0.00498,0.00387l-0.00581,0.0047l-0.10062,0.08736l-0.08735,0.07713l-0.0188,0.01521l-0.02239,0.0188l-0.08321,0.07436l-0.07436,0.06745l-0.03096,0.02599l-0.03566,0.03096l-0.06883,0.06331l-0.06331,0.0586l-0.04091,0.03566l-0.04616,0.04119l-0.0575,0.05391l-0.05391,0.05114l-0.04921,0.04451l-0.05391,0.04921l-0.04893,0.04672l-0.04672,0.04506l-0.05556,0.05141l-0.05888,0.05529l-0.04257,0.04174l-0.04174,0.04064l-0.05943,0.05695l-0.06164,0.05943l-0.03898,0.03843l-0.0387,0.03815l-0.06164,0.06054l-0.06192,0.06164l-0.03759,0.03732l-0.03732,0.03759l-0.06164,0.0622l-0.06054,0.06164l-0.03815,0.03843l-0.03843,0.03898l-0.05971,0.06164l-0.05667,0.05943l-0.04064,0.04174l-0.04174,0.04285l-0.05529,0.05888l-0.05142,0.05529l-0.04506,0.04672l-0.04699,0.04893l-0.04921,0.05391l-0.04423,0.04921l-0.05114,0.05391l-0.05391,0.0575l-0.04119,0.04616l-0.03566,0.04119l-0.05888,0.06303l-0.06303,0.06883l-0.03096,0.03594l-0.02599,0.03068l-0.06745,0.07436l-0.07436,0.08321l-0.0188,0.02239l-0.01548,0.0188l-0.07713,0.08736l-0.08735,0.1009l-0.0047,0.00581l-0.00359,0.0047l-0.05169,0.05999l-0.03594,0.04257l-0.00332,0.00359l-0.07685,0.09261l-0.00995,0.01216l-0.01244,0.01382l-0.05999,0.07326l-0.01741,0.02184l-0.02212,0.02488l-0.04229,0.05252l-0.02516,0.03179l-0.03179,0.03704l-0.02433,0.03068l-0.03289,0.04202l-0.04202,0.05003l-0.00553,0.00719l-0.04091,0.05308l-0.03815,0.04616l-0.01493,0.01824l-0.03511,0.04616l-0.02819,0.03511l-0.03594,0.04478l-0.0235,0.03124l-0.01852,0.02322l-0.05722,0.07326l-0.01133,0.01493l-0.00857,0.01134l-0.06718,0.0868l-0.01078,0.0141l-0.0727,0.09758l-0.01272,0.01576l-0.01548,0.0199l-0.06939,0.09371l-0.05003,0.06939l-0.03456,0.04478l-0.04478,0.05999l-0.03926,0.05474l-0.02764,0.03925l-0.05584,0.07574l-0.07602,0.10532l-0.00719,0.01023l-0.00498,0.00746l-0.03013,0.04202l-0.04699,0.06718l-0.06192,0.08929l-0.01963,0.02792l-0.02764,0.03981l-0.05335,0.07768l-0.03649,0.05336l-0.04423,0.06496l-0.06469,0.0962l-0.01521,0.02239l-0.01023,0.01521l-0.04948,0.07491l-0.01935,0.0293l-0.00525,0.00774l-0.05694,0.08653l-0.01659,0.02598l-0.02571,0.03981l-0.02211,0.03373l-0.03013,0.04699l-0.03345,0.05225l-0.01354,0.02184l-0.03041,0.04727l-0.01935,0.03041l-0.04976,0.07989l-0.00746,0.01161l-0.00525,0.00774l-0.02046,0.03317l-0.05059,0.08183l-0.01548,0.02626l-0.03621,0.0575l-0.0235,0.03953l-0.03069,0.05059l-0.00553,0.00912l-0.00332,0.00608l-0.03511,0.05805l-0.02184,0.03511l-0.04257,0.07381l-0.00968,0.01576l-0.00636,0.00995l-0.02294,0.03898l-0.03566,0.06026l-0.00857,0.01631l-0.01603,0.02903l-0.03317,0.05418l-0.02322,0.04285l-0.01852,0.03179l-0.01437,0.0246l-0.01023,0.0199l-0.02903,0.05031l-0.01631,0.02903l-0.00415,0.00802l-0.0152,0.02654l-0.00885,0.01521l-0.02571,0.04727l-0.00083,0.00138l-0.00055,0.00111l-0.00194,0.00304l-0.02626,0.04644l-0.00663,0.01354l-0.01354,0.02488l-0.00663,0.01133l-0.00774,0.01437l-0.00719,0.01354l-0.01272,0.02184l-0.01521,0.03013l-0.00719,0.01244l-0.00442,0.00691l-0.01327,0.02516l-0.01354,0.0246l-0.00387,0.00774l-0.00746,0.0152l-0.01548,0.02681l-0.01133,0.02267l-0.0047,0.00884l-0.00968,0.01797l-0.00304,0.00581l-0.00553,0.01078l-0.0047,0.00829l-0.00691,0.01327l-0.00719,0.01161l-0.00995,0.02101l-0.00884,0.01686l-0.00663,0.01189l-0.00166,0.00387l-0.00359,0.00829l-0.02211,0.03759l-0.00829,0.01935l-0.01189,0.02267l-0.00387,0.00746l-0.00111,0.00249l-0.00249,0.00553l-0.0094,0.01686l-0.00525,0.01023l-0.00719,0.01465l-0.00304,0.00636l-0.00664,0.01189l-0.00359,0.00664l-0.01023,0.02018l-0.00221,0.0047l-0.00055,0.00138l-0.00166,0.00387l-0.01106,0.01935l-0.00442,0.0094l-0.00746,0.01548l-0.00194,0.00498l-0.00746,0.01216l-0.01493,0.03013l-0.00111,0.00249l-0.00028,0.00111l-0.00083,0.00387l-0.01769,0.0199l-0.00166,0.00553l-0.00995,-0.00138l-0.00083,-0.00415l-0.00968,-0.01493l-0.00663,-0.00995l-0.00166,-0.00166l-0.00166,-0.00111l-0.01437,-0.03262l-0.00249,-0.01437l-0.0141,-0.01852l-0.01244,-0.0246l-0.00332,-0.00636l-0.00111,-0.00194l-0.00194,-0.00304l-0.00857,-0.0199l-0.00553,-0.01078l-0.00442,-0.0141l-0.01189,-0.01907l-0.00249,-0.00581l-0.00829,-0.01631l-0.00415,-0.00857l-0.00138,-0.00276l-0.00276,-0.0047l-0.01824,-0.04202l-0.01133,-0.02046l-0.00802,-0.01714l-0.00581,-0.01216l-0.00221,-0.00415l-0.00415,-0.00829l-0.00553,-0.01244l-0.00636,-0.01299l-0.00442,-0.01189l-0.01161,-0.02184l-0.00498,-0.01106l-0.00719,-0.01686l-0.00359,-0.00581l-0.00608,-0.01189l-0.00968,-0.02211l-0.00387,-0.00968l-0.01161,-0.0246l-0.02433,-0.04976l-0.00719,-0.01797l-0.00249,-0.00719l-0.00912,-0.01852l-0.0141,-0.03096l-0.00553,-0.01161l-0.01133,-0.0235l-0.00608,-0.01465l-0.01354,-0.03013l-0.03013,-0.06607l-0.00083,-0.00221l-0.00028,-0.00083l-0.00111,-0.00221l-0.02875,-0.06607l-0.0141,-0.03124l-0.0047,-0.00995l-0.01161,-0.02792l-0.01797,-0.04146l-0.00829,-0.0199l-0.00387,-0.00774l-0.00774,-0.01686l-0.02156,-0.05336l-0.00857,-0.02129l-0.02211,-0.05225l-0.0199,-0.04727l-0.00884,-0.01824l-0.01852,-0.04312l-0.01465,-0.03787l-0.02433,-0.06026l-0.01548,-0.03925l-0.01354,-0.03096l-0.02488,-0.06192l-0.00249,-0.00636l-0.00111,-0.00276l-0.00276,-0.00636l-0.02543,-0.06496l-0.0094,-0.02516l-0.01852,-0.04616l-0.00442,-0.01189l-0.01548,-0.04146l-0.02598,-0.06662"/><path d="M211.63653,164.35509l0.00608,0.00359l0.00359,0.00249l0.02709,0.02073l0.08266,0.06192l0.08901,0.06331l0.02433,0.02211l0.02847,0.0246l0.04644,0.034l0.03621,0.02903l0.04616,0.03621l0.01714,0.01244l0.04838,0.03843l0.01051,0.00829l0.04036,0.03096l0.00498,0.00414l0.00608,0.00498l0.04976,0.0387l0.03843,0.02958l0.03815,0.03124l0.03456,0.02681l0.02681,0.02073l0.06358,0.05169l0.02018,0.01576l0.01548,0.01189l0.08818,0.0716l0.00636,0.00498l0.0047,0.00387l0.04699,0.03815l0.00304,0.00249l0.04948,0.03981l0.00553,0.0047l0.00663,0.00553l0.08708,0.07049l0.01576,0.01327l0.0188,0.01548l0.06496,0.0528l0.02543,0.02101l0.02986,0.02571l0.07878,0.06441l0.06441,0.0528l0.04368,0.03759l0.05086,0.04368l0.05694,0.04755l0.04727,0.03926l0.05999,0.05197l0.03925,0.034l0.03013,0.02599l0.03759,0.03179l0.03179,0.02764l0.04589,0.03981l0.02875,0.02488l0.0246,0.02128l0.06082,0.05336l0.02073,0.01797l0.01797,0.01548l0.07464,0.06579l0.01299,0.01161l0.01161,0.01023l0.08763,0.07768l0.00608,0.00525l0.00553,0.00498l0.09675,0.08625l0.00276,0.00249l0.00028,0.00028l0.09896,0.08901l0.00553,0.00498l0.00581,0.00525l0.08791,0.07989l0.01051,0.00912l0.08901,0.08127l0.01465,0.01382l0.01603,0.01465l0.06856,0.06303l0.0188,0.01742l0.02046,0.0188l0.06026,0.05612l0.02239,0.02073l0.02405,0.02267l0.0528,0.04921l0.02571,0.02433l0.07353,0.06911l0.02875,0.02737l0.03041,0.02875l0.04036,0.03815l0.03124,0.02986l0.03262,0.03124l0.03538,0.034l0.03345,0.03207l0.03456,0.03317l0.03124,0.03041l0.03511,0.034l0.06441,0.06248l0.03621,0.03538l0.03732,0.03649l0.02571,0.02516l0.03732,0.03676l0.03815,0.03732l0.02377,0.02377l0.03815,0.03759l0.03815,0.03815l0.02322,0.02294l0.03815,0.03815l0.06109,0.06137l0.03815,0.03815l0.03759,0.03815l0.02377,0.02377l0.03732,0.03815l0.03677,0.03732l0.02516,0.02571l0.03649,0.03732l0.03538,0.03621l0.02737,0.02819l0.03511,0.03621l0.06441,0.06662l0.03317,0.03428l0.03207,0.03345l0.034,0.03538l0.03124,0.03262l0.02986,0.03124l0.03815,0.04036l0.02875,0.03041l0.02709,0.02875l0.04368,0.04616l0.02571,0.02737l0.07353,0.07851l0.02267,0.02405l0.02073,0.02239l0.05612,0.06026l0.0188,0.02046l0.01741,0.0188l0.06303,0.06856l0.01465,0.01603l0.01354,0.01465l0.07104,0.07796l0.01051,0.01106l0.08901,0.09841l0.00525,0.00581l0.00498,0.00553l0.08901,0.09896l0.00028,0.00028l0.00249,0.00276l0.08625,0.09675l0.00498,0.00553l0.00525,0.00608l0.07768,0.08763l0.01023,0.01161l0.01161,0.01299l0.06579,0.07464l0.01548,0.01797l0.01797,0.02073l0.05336,0.06082l0.02129,0.0246l0.02488,0.02875l0.03981,0.04589l0.02764,0.03179l0.03179,0.03759l0.02599,0.03013l0.034,0.03925l0.05197,0.05999l0.03925,0.04727l0.04755,0.05695l0.04368,0.05086l0.03759,0.04368l0.0528,0.06441l0.06441,0.07878l0.02571,0.02986l0.02101,0.02543l0.0528,0.06496l0.01548,0.0188l0.01327,0.01576l0.07049,0.08708l0.00553,0.00663l0.0047,0.00553l0.03981,0.04948l0.00249,0.00304l0.03815,0.04699l0.00387,0.0047l0.00498,0.00636l0.0716,0.08818l0.01189,0.01548l0.01576,0.02018l0.05169,0.06358l0.02074,0.02681l0.02681,0.03456l0.01714,0.02101l0.0141,0.01714l0.02958,0.03843l0.0387,0.04976l0.00498,0.00608l0.00387,0.00498l0.03124,0.04036l0.00829,0.01051l0.03843,0.04838l0.01244,0.01714l0.03621,0.04616l0.02903,0.03621l0.034,0.04644l0.0235,0.02931l0.01935,0.0235l0.05667,0.07713l0.01051,0.01189l0.06192,0.08265l0.02073,0.02709l0.00249,0.00359l0.00359,0.00608"/><path d="M215.46518,164.35509l0.05556,0.04782l0.02626,0.02516l0.02322,0.02322l0.00359,0.00304l0.02516,0.02101l0.02101,0.02073l0.00829,0.00802l0.02184,0.01963l0.01963,0.01769l0.01299,0.01244l0.01935,0.01714l0.01714,0.01576l0.01797,0.01659l0.01714,0.01465l0.03759,0.03511l0.0141,0.01272l0.01272,0.01106l0.03898,0.03649l0.04146,0.03898l0.00995,0.00912l0.00884,0.00774l0.04257,0.04008l0.04506,0.04257l0.00608,0.00553l0.00553,0.00498l0.04589,0.04312l0.04838,0.04561l0.00276,0.00249l0.00249,0.00221l0.04865,0.04616l0.04174,0.03953l0.00884,0.00857l0.00028,0.00028h0.00028l0.04921,0.04672l0.00166,0.00138l0.00166,0.00166l0.04644,0.04395l0.00581,0.00581l0.04368,0.04146l0.00442,0.00387l0.00414,0.00442l0.04119,0.03926l0.00525,0.00498l0.00525,0.00525l0.03926,0.03732l0.00636,0.00608l0.04312,0.04119l0.01493,0.01493l0.04312,0.04119l0.04147,0.04008l0.01824,0.01797l0.04119,0.03981l0.03981,0.0387l0.02101,0.02073l0.03953,0.0387l0.0387,0.03815l0.02294,0.02267l0.0387,0.03787l0.03787,0.03732l0.02405,0.02405l0.03787,0.03732l0.03732,0.03732l0.02488,0.0246l0.07464,0.07464l0.0246,0.02488l0.03732,0.03732l0.03732,0.03787l0.02405,0.02405l0.03732,0.03787l0.03787,0.0387l0.02267,0.02294l0.03815,0.0387l0.0387,0.03953l0.02073,0.02101l0.0387,0.03981l0.03981,0.04119l0.01797,0.01824l0.04008,0.04146l0.04119,0.04312l0.01493,0.01493l0.04119,0.04312l0.00608,0.00636l0.03732,0.03925l0.00525,0.00525l0.00498,0.00525l0.03925,0.04119l0.00442,0.00415l0.04534,0.04782l0.00304,0.00331l0.00276,0.00276l0.04396,0.04644l0.00166,0.00166l0.00138,0.00166l0.04672,0.04921v0.00028l0.00028,0.00028l0.00857,0.00884l0.03953,0.04174l0.00111,0.00138l0.04478,0.04727l0.00249,0.00249l0.00249,0.00304l0.04174,0.04423l0.00387,0.00414l0.00414,0.00442l0.03843,0.04119l0.00553,0.00553l0.00553,0.00636l0.03538,0.03759l0.00719,0.00719l0.00719,0.00857l0.03207,0.034l0.00857,0.00884l0.00912,0.01051l0.02847,0.03041l0.00995,0.01106l0.01106,0.01216l0.02488,0.02626l0.01216,0.01272l0.01272,0.01493l0.02073,0.02211l0.01382,0.01521l0.01521,0.01659l0.01659,0.01797l0.01576,0.01714l0.01714,0.01935l0.01244,0.01299l0.01769,0.01963l0.01963,0.02184l0.00802,0.00829l0.02073,0.02101l0.02101,0.02516l0.00304,0.00359l0.02322,0.02322l0.02516,0.02626l0.04782,0.05556"/><path d="M195.15535,167.49016l0.04782,-0.05556l0.02516,-0.02626l0.02626,-0.02792l0.03926,-0.04506l0.0293,-0.03096l0.03068,-0.0329l0.01659,-0.0188l0.01465,-0.01659l0.03317,-0.03511l0.03511,-0.03759l0.01244,-0.0141l0.01133,-0.01272l0.03649,-0.03898l0.03898,-0.04146l0.00885,-0.00995l0.00802,-0.00884l0.04008,-0.04257l0.04257,-0.04506l0.00553,-0.00608l0.00498,-0.00553l0.04312,-0.04589l0.04561,-0.04838l0.00249,-0.00276l0.00221,-0.00249l0.04616,-0.04865l0.03953,-0.04174l0.00829,-0.00884l0.00055,-0.00055l0.04644,-0.04921l0.00331,-0.00332l0.04395,-0.04644l0.00581,-0.00581l0.04146,-0.04368l0.00387,-0.00414l0.00415,-0.00442l0.03953,-0.04119l0.0047,-0.00525l0.00553,-0.00525l0.03732,-0.03925l0.00581,-0.00636l0.00663,-0.00608l0.03538,-0.03704l0.00691,-0.00746l0.00719,-0.00719l0.034,-0.03511l0.00746,-0.00829l0.04008,-0.04146l0.00884,-0.00912l0.00912,-0.00857l0.03069,-0.03179l0.00912,-0.00995l0.00968,-0.0094l0.02986,-0.03041l0.0094,-0.01051l0.01051,-0.00995l0.02847,-0.0293l0.02129,-0.02129l0.02764,-0.02819l0.01051,-0.01161l0.01133,-0.01078l0.02709,-0.02737l0.01106,-0.01189l0.01161,-0.01106l0.02626,-0.02681l0.01134,-0.01189l0.01216,-0.01161l0.02599,-0.02599l0.01133,-0.01244l0.03732,-0.03732l0.01216,-0.01244l0.01244,-0.01161l0.02543,-0.02571l0.01189,-0.01244l0.01244,-0.01161l0.02543,-0.02571l0.01189,-0.01216l0.01244,-0.01189l0.02571,-0.02543l0.02377,-0.02377l0.02626,-0.02599l0.01133,-0.01216l0.01216,-0.01106l0.02654,-0.02654l0.01134,-0.01161l0.01189,-0.01106l0.02736,-0.02681l0.01078,-0.01161l0.01134,-0.01051l0.02819,-0.02764l0.01051,-0.01106l0.03981,-0.0387l0.01051,-0.01023l0.01051,-0.00968l0.03041,-0.02958l0.0094,-0.00995l0.00968,-0.00884l0.03207,-0.03096l0.00857,-0.00912l0.00912,-0.00829l0.03345,-0.03234l0.00829,-0.00802l0.00802,-0.00774l0.03511,-0.03373l0.00719,-0.00746l0.00719,-0.00691l0.03704,-0.03539l0.00636,-0.00636l0.00636,-0.00608l0.03898,-0.03732l0.00525,-0.00525l0.00553,-0.00498l0.04119,-0.03926l0.00415,-0.00442l0.04782,-0.04534l0.00304,-0.00304l0.00304,-0.00276l0.04644,-0.04395l0.00166,-0.00166l0.00166,-0.00138l0.04921,-0.04672h0.00028l0.00028,-0.00028l0.00884,-0.00857l0.04174,-0.03953l0.00138,-0.00111l0.04727,-0.04478l0.00249,-0.00249l0.00276,-0.00249l0.04451,-0.04174l0.00387,-0.00387l0.04561,-0.04312l0.01189,-0.01051l0.04506,-0.04257l0.04257,-0.04008l0.0188,-0.01686l0.04147,-0.03898l0.03898,-0.03649l0.02681,-0.02377l0.03732,-0.03511l0.03511,-0.03317l0.03566,-0.03096l0.03289,-0.03096l0.03096,-0.02931l0.04506,-0.03925l0.02792,-0.02626l0.02626,-0.02516l0.05556,-0.04782"/><path d="M195.15535,171.31882l0.00359,-0.00608l0.00221,-0.00359l0.02101,-0.02709l0.06192,-0.08265l0.06303,-0.08901l0.02239,-0.02433l0.02433,-0.02847l0.03428,-0.04644l0.02764,-0.03759l0.03759,-0.04478l0.01244,-0.01714l0.03704,-0.04976l0.04064,-0.04948l0.00912,-0.01106l0.03787,-0.05059l0.02737,-0.03759l0.06054,-0.07298l0.02101,-0.02654l0.05197,-0.06358l0.01548,-0.02018l0.01216,-0.01548l0.0716,-0.08818l0.00498,-0.00636l0.00387,-0.0047l0.03815,-0.04699l0.00249,-0.00304l0.03981,-0.04948l0.0047,-0.00553l0.00553,-0.00663l0.07049,-0.08708l0.01299,-0.01576l0.01576,-0.0188l0.0528,-0.06496l0.02101,-0.02543l0.02543,-0.02986l0.03594,-0.04395l0.02875,-0.03483l0.03483,-0.04064l0.01963,-0.02377l0.03649,-0.0434l0.04312,-0.05114l0.00414,-0.00498l0.02211,-0.02599l0.02156,-0.02571l0.04036,-0.04755l0.01106,-0.01299l0.03953,-0.04699l0.034,-0.03925l0.02598,-0.03013l0.03179,-0.03759l0.02764,-0.03179l0.03981,-0.04589l0.02488,-0.02875l0.02129,-0.0246l0.05335,-0.06082l0.01769,-0.02073l0.01576,-0.01797l0.06579,-0.07464l0.01161,-0.01299l0.08763,-0.09924l0.00553,-0.00608l0.00498,-0.00553l0.08625,-0.09675l0.00249,-0.00276l0.00028,-0.00028l0.08901,-0.09896l0.0047,-0.00553l0.00553,-0.00581l0.07961,-0.08791l0.0094,-0.01051l0.08127,-0.08901l0.01354,-0.01465l0.01493,-0.01603l0.06303,-0.06856l0.01742,-0.0188l0.0188,-0.02046l0.05584,-0.06026l0.02101,-0.02239l0.02267,-0.02405l0.04921,-0.0528l0.02405,-0.02571l0.06939,-0.07353l0.02709,-0.02875l0.02875,-0.03041l0.03843,-0.04036l0.02986,-0.03124l0.03124,-0.03262l0.034,-0.03538l0.03179,-0.03345l0.03345,-0.03456l0.03041,-0.03124l0.034,-0.03511l0.06248,-0.06441l0.03538,-0.03621l0.03649,-0.03732l0.02516,-0.02571l0.03677,-0.03732l0.03732,-0.03815l0.02377,-0.02377l0.03759,-0.03815l0.03815,-0.03815l0.02294,-0.02322l0.03815,-0.03815l0.06137,-0.06109l0.03815,-0.03815l0.03787,-0.03759l0.02405,-0.02377l0.03787,-0.03732l0.03759,-0.03676l0.02543,-0.02516l0.03732,-0.03649l0.03649,-0.03538l0.0282,-0.02737l0.03621,-0.03511l0.06634,-0.06441l0.03456,-0.03317l0.03345,-0.03207l0.03538,-0.034l0.03262,-0.03124l0.03124,-0.02986l0.04036,-0.03815l0.03041,-0.02875l0.02847,-0.02709l0.04616,-0.04368l0.02737,-0.02571l0.07878,-0.07353l0.02405,-0.02267l0.02239,-0.02073l0.06026,-0.05612l0.02018,-0.0188l0.01907,-0.01742l0.06856,-0.06303l0.01576,-0.01465l0.01493,-0.01354l0.07768,-0.07104l0.01133,-0.01051l0.09813,-0.08901l0.00608,-0.00525l0.00553,-0.00498l0.09896,-0.08901l0.00028,-0.00028l0.00276,-0.00249l0.09648,-0.08625l0.00553,-0.00498l0.00636,-0.00525l0.09924,-0.08791l0.08763,-0.07741l0.01797,-0.01548l0.02073,-0.01797l0.08542,-0.07464l0.07464,-0.06524l0.03179,-0.02709l0.03759,-0.03179l0.06939,-0.05999l0.05999,-0.05197l0.04727,-0.03926l0.05694,-0.04755l0.05059,-0.04368l0.04368,-0.03759l0.06469,-0.0528l0.07878,-0.06441l0.02958,-0.02571l0.02571,-0.02101l0.06496,-0.0528l0.01852,-0.01576l0.01603,-0.01299l0.08708,-0.07049l0.00664,-0.00553l0.00553,-0.0047l0.04921,-0.03981l0.00332,-0.00249l0.04672,-0.03815l0.00498,-0.00387l0.00636,-0.00498l0.08818,-0.0716l0.01548,-0.01189l0.02018,-0.01576l0.06358,-0.05169l0.02626,-0.02129l0.03511,-0.02626l0.03787,-0.03124l0.03787,-0.03041l0.05114,-0.03787l0.05999,-0.04976l0.04976,-0.03704l0.01714,-0.01244l0.04478,-0.03732l0.03732,-0.02792l0.04672,-0.034l0.02847,-0.0246l0.02433,-0.01824l0.07713,-0.05667l0.01161,-0.01051l0.08293,-0.06192l0.02709,-0.02073l0.00359,-0.00249l0.00608,-0.00359"/><path d="M218.60026,174.32203l-0.02598,0.06662l-0.02046,0.0528l-0.01824,0.04672l-0.03456,0.09012l-0.00276,0.00636l-0.00111,0.00276l-0.00249,0.00636l-0.02488,0.06192l-0.01354,0.03096l-0.01493,0.03981l-0.0141,0.034l-0.01078,0.02571l-0.01493,0.03787l-0.01824,0.04312l-0.00774,0.01824l-0.01852,0.04478l-0.00304,0.00691l-0.02156,0.04782l-0.00829,0.02184l-0.01161,0.02764l-0.01023,0.02488l-0.00774,0.01714l-0.00415,0.00774l-0.00802,0.0199l-0.01797,0.04146l-0.0188,0.03787l-0.01161,0.03124l-0.02875,0.06607l-0.00111,0.00221l-0.00028,0.00083l-0.00083,0.00221l-0.02184,0.04644l-0.00857,0.01963l-0.01327,0.03013l-0.00608,0.01465l-0.01133,0.0235l-0.00553,0.01161l-0.01437,0.03096l-0.00829,0.01852l-0.00276,0.00746l-0.00746,0.01659l-0.00829,0.01742l-0.0047,0.00829l-0.01161,0.02516l-0.01134,0.0246l-0.01354,0.03179l-0.00608,0.01189l-0.00359,0.00581l-0.00719,0.01686l-0.00525,0.01106l-0.01133,0.02184l-0.0047,0.01189l-0.00608,0.01299l-0.00553,0.01244l-0.00415,0.00829l-0.00221,0.00415l-0.00581,0.01216l-0.00802,0.01714l-0.01161,0.02046l-0.01797,0.04202l-0.00276,0.0047l-0.00194,0.00276l-0.00387,0.00857l-0.01051,0.02211l-0.00581,0.01272l-0.00359,0.00636l-0.00691,0.0141l-0.00553,0.01078l-0.00857,0.0199l-0.00193,0.00304l-0.00138,0.00194l-0.00304,0.00636l-0.01244,0.0246l-0.01437,0.01852l-0.00249,0.01437l-0.0141,0.03262l-0.00166,0.00111l-0.00194,0.00166l-0.00636,0.00995l-0.01051,0.01907l-0.00995,0.00138l-0.00166,-0.00553l-0.01769,-0.0199l-0.00111,-0.00387l-0.00028,-0.00111l-0.00083,-0.00249l-0.01493,-0.03013l-0.00774,-0.01216l-0.00166,-0.00498l-0.00746,-0.01548l-0.00442,-0.0094l-0.01133,-0.01935l-0.00138,-0.00387l-0.00055,-0.00138l-0.00249,-0.0047l-0.01354,-0.02681l-0.00664,-0.01189l-0.00304,-0.00636l-0.00719,-0.01465l-0.01465,-0.02681l-0.00249,-0.00581l-0.00083,-0.00249l-0.00415,-0.00746l-0.01189,-0.02267l-0.00857,-0.01935l-0.00857,-0.01354l-0.01327,-0.02405l-0.00359,-0.00857l-0.00166,-0.00359l-0.00581,-0.01106l-0.01963,-0.0387l-0.00719,-0.01161l-0.01189,-0.02101l-0.00802,-0.01714l-0.0141,-0.02709l-0.01189,-0.02239l-0.01548,-0.02681l-0.00774,-0.0152l-0.01714,-0.03234l-0.01327,-0.02516l-0.00442,-0.00691l-0.00719,-0.01244l-0.01023,-0.0199l-0.00525,-0.01023l-0.01244,-0.02184l-0.00719,-0.01354l-0.00774,-0.01437l-0.00691,-0.01133l-0.01327,-0.02488l-0.00691,-0.01354l-0.01078,-0.01852l-0.01548,-0.02792l-0.00166,-0.00304l-0.00055,-0.00111l-0.00083,-0.00138l-0.02571,-0.04727l-0.00884,-0.01521l-0.01521,-0.02654l-0.00414,-0.00802l-0.01631,-0.02903l-0.0293,-0.05031l-0.01023,-0.0199l-0.01437,-0.0246l-0.01824,-0.03179l-0.02322,-0.04285l-0.03317,-0.05418l-0.01631,-0.02903l-0.00857,-0.01631l-0.02792,-0.04644l-0.00884,-0.01521l-0.02156,-0.03759l-0.00636,-0.00995l-0.00968,-0.01576l-0.04257,-0.07381l-0.02184,-0.03511l-0.03511,-0.05805l-0.00359,-0.00608l-0.03566,-0.05999l-0.02377,-0.03926l-0.03621,-0.0575l-0.01576,-0.02626l-0.05059,-0.08183l-0.02046,-0.03317l-0.00498,-0.00774l-0.00774,-0.01161l-0.04948,-0.07989l-0.01935,-0.03041l-0.03041,-0.04727l-0.01354,-0.02184l-0.03345,-0.05225l-0.05225,-0.07989l-0.02599,-0.04064l-0.01631,-0.02598l-0.05722,-0.08653l-0.00498,-0.00774l-0.01935,-0.0293l-0.04948,-0.07491l-0.01023,-0.01521l-0.01521,-0.02239l-0.06496,-0.0962l-0.04423,-0.06496l-0.03621,-0.05336l-0.05335,-0.07768l-0.02764,-0.03981l-0.0199,-0.02792l-0.06164,-0.08929l-0.04727,-0.06718l-0.02986,-0.04202l-0.00498,-0.00746l-0.00746,-0.01023l-0.07574,-0.10532l-0.05584,-0.07574l-0.02764,-0.03925l-0.03926,-0.05474l-0.04478,-0.05999l-0.03456,-0.04478l-0.05004,-0.06939l-0.06939,-0.09371l-0.01576,-0.0199l-0.01161,-0.01576l-0.07187,-0.09565l-0.00166,-0.00194l-0.01106,-0.0141l-0.0669,-0.0868l-0.00857,-0.01134l-0.01134,-0.01493l-0.0575,-0.07326l-0.01852,-0.02322l-0.02322,-0.03124l-0.03594,-0.04478l-0.02764,-0.03594l-0.03594,-0.04534l-0.01465,-0.01824l-0.03815,-0.04616l-0.04091,-0.05308l-0.00553,-0.00719l-0.04202,-0.05003l-0.03317,-0.04202l-0.02405,-0.03068l-0.03179,-0.03704l-0.02516,-0.03179l-0.04257,-0.05252l-0.02129,-0.02543l-0.01797,-0.02129l-0.05999,-0.07326l-0.01244,-0.01382l-0.00995,-0.01216l-0.07685,-0.09261l-0.00332,-0.00359l-0.00276,-0.00332l-0.03345,-0.03926l-0.05114,-0.05999l-0.00387,-0.00498l-0.00498,-0.00581l-0.04091,-0.04755l-0.03566,-0.04119l-0.01023,-0.01216l-0.01244,-0.01465l-0.06358,-0.07243l-0.01659,-0.01935l-0.01907,-0.02239l-0.02709,-0.03041l-0.02433,-0.02709l-0.02211,-0.02599l-0.02599,-0.02958l-0.03953,-0.04396l-0.02792,-0.03179l-0.03179,-0.03594l-0.01493,-0.01659l-0.01382,-0.01493l-0.03317,-0.03732l-0.03759,-0.04202l-0.01852,-0.0199l-0.03815,-0.04257l-0.04257,-0.04672l-0.00498,-0.00525l-0.00442,-0.00498l-0.04285,-0.04699l-0.04699,-0.05114l-0.00111,-0.00111l-0.01299,-0.0141l-0.03428,-0.03704l-0.04534,-0.0481l-0.00581,-0.00636l-0.04506,-0.0481l-0.04257,-0.04506l-0.01161,-0.01244l-0.04229,-0.04451l-0.04036,-0.04229l-0.01659,-0.01769l-0.04008,-0.04174l-0.0387,-0.04008l-0.02074,-0.02156l-0.03815,-0.03953l-0.03732,-0.03815l-0.02377,-0.0246l-0.03704,-0.03787l-0.03621,-0.03677l-0.02626,-0.02654l-0.03594,-0.03676l-0.03594,-0.03621l-0.12661,-0.12661l-0.03621,-0.03594l-0.03677,-0.03594l-0.02654,-0.02626l-0.03677,-0.03621l-0.03787,-0.03704l-0.0246,-0.02377l-0.03815,-0.03732l-0.03953,-0.03815l-0.02156,-0.02073l-0.04008,-0.0387l-0.04174,-0.04008l-0.01769,-0.01659l-0.04229,-0.04036l-0.04451,-0.04229l-0.01244,-0.01161l-0.04506,-0.04257l-0.0481,-0.04506l-0.00636,-0.00581l-0.0481,-0.04534l-0.03704,-0.03428l-0.0141,-0.01299l-0.00111,-0.00111l-0.05114,-0.04699l-0.04699,-0.04285l-0.01023,-0.0094l-0.04672,-0.04257l-0.04257,-0.03815l-0.00968,-0.00884l-0.01023,-0.00968l-0.04202,-0.03759l-0.03732,-0.03317l-0.03151,-0.02875l-0.03594,-0.03179l-0.03179,-0.02792l-0.04395,-0.03953l-0.02958,-0.02599l-0.02599,-0.02211l-0.0575,-0.05142l-0.02239,-0.01907l-0.01935,-0.01659l-0.03373,-0.02986l-0.0387,-0.03373l-0.01465,-0.01244l-0.01216,-0.01023l-0.08874,-0.07657l-0.00581,-0.00498l-0.00498,-0.00387l-0.05999,-0.05114l-0.03925,-0.03345l-0.00332,-0.00276l-0.00359,-0.00332l-0.09261,-0.07685l-0.01216,-0.00995l-0.01382,-0.01244l-0.07326,-0.05999l-0.02129,-0.01797l-0.02543,-0.02129l-0.05252,-0.04257l-0.03179,-0.02516l-0.03704,-0.03179l-0.03069,-0.02405l-0.04202,-0.03317l-0.05003,-0.04202l-0.00719,-0.00553l-0.05308,-0.04091l-0.04616,-0.03815l-0.01824,-0.01465l-0.04534,-0.03594l-0.03594,-0.02764l-0.04478,-0.03594l-0.03124,-0.02322l-0.02322,-0.01852l-0.07326,-0.0575l-0.01493,-0.01133l-0.01133,-0.00857l-0.0868,-0.0669l-0.0141,-0.01106l-0.09758,-0.0727l-0.01576,-0.01244l-0.0199,-0.01576l-0.09371,-0.06939l-0.06939,-0.05004l-0.04478,-0.03456l-0.05999,-0.04478l-0.05473,-0.03926l-0.03926,-0.02764l-0.07574,-0.05584l-0.10532,-0.07574l-0.01769,-0.01244l-0.04202,-0.02986l-0.06718,-0.04727l-0.08929,-0.06164l-0.02792,-0.0199l-0.03981,-0.02764l-0.07768,-0.05335l-0.05335,-0.03621l-0.06496,-0.04423l-0.0962,-0.06496l-0.02239,-0.01521l-0.0152,-0.01023l-0.07491,-0.04948l-0.0293,-0.01935l-0.00774,-0.00498l-0.08653,-0.05722l-0.02599,-0.01631l-0.03981,-0.02598l-0.03373,-0.02211l-0.04699,-0.03013l-0.05225,-0.03345l-0.02184,-0.01354l-0.04727,-0.03041l-0.03041,-0.01935l-0.07989,-0.04948l-0.01161,-0.00774l-0.00774,-0.00525l-0.03317,-0.02018l-0.08183,-0.05059l-0.02626,-0.01576l-0.0575,-0.03621l-0.03925,-0.02377l-0.05999,-0.03566l-0.00608,-0.00359l-0.05805,-0.03511l-0.03511,-0.02184l-0.07381,-0.04257l-0.01576,-0.00968l-0.00995,-0.00636l-0.03759,-0.02156l-0.0152,-0.00885l-0.04644,-0.02792l-0.01631,-0.00857l-0.02903,-0.01631l-0.05418,-0.03317l-0.04285,-0.02322l-0.03179,-0.01824l-0.0246,-0.01437l-0.01991,-0.01023l-0.05031,-0.02931l-0.02903,-0.01631l-0.00802,-0.00415l-0.02654,-0.01521l-0.0152,-0.00884l-0.04727,-0.02571l-0.00138,-0.00083l-0.00111,-0.00055l-0.00304,-0.00166l-0.02792,-0.01548l-0.01852,-0.01078l-0.01354,-0.00691l-0.02488,-0.01327l-0.01133,-0.00691l-0.04976,-0.02737l-0.03013,-0.01548l-0.01216,-0.00719l-0.00719,-0.00442l-0.02516,-0.01327l-0.03234,-0.01714l-0.01521,-0.00774l-0.02681,-0.01548l-0.02239,-0.01189l-0.02709,-0.0141l-0.01714,-0.00802l-0.02101,-0.01189l-0.01161,-0.00719l-0.0387,-0.01963l-0.01106,-0.00581l-0.00359,-0.00166l-0.00857,-0.00359l-0.03759,-0.02184l-0.01935,-0.00857l-0.02267,-0.01189l-0.00746,-0.00414l-0.00249,-0.00083l-0.00581,-0.00249l-0.02681,-0.01465l-0.01465,-0.00995l-0.01824,-0.00691l-0.02681,-0.01354l-0.0047,-0.00249l-0.00138,-0.00055l-0.00387,-0.00138l-0.01935,-0.01133l-0.0094,-0.00442l-0.01548,-0.00746l-0.00498,-0.00166l-0.01216,-0.00774l-0.03013,-0.01493l-0.00249,-0.00083l-0.00111,-0.00028l-0.00387,-0.00111l-0.0199,-0.01769l-0.00553,-0.00166l0.00138,-0.00995l0.01907,-0.01051l0.00995,-0.00636l0.00166,-0.00193l0.00111,-0.00166l0.03262,-0.0141l0.01437,-0.00249l0.01852,-0.01437l0.0246,-0.01244l0.00636,-0.00304l0.00193,-0.00138l0.00304,-0.00194l0.0199,-0.00857l0.01078,-0.00553l0.0141,-0.00442l0.01907,-0.01189l0.00581,-0.00249l0.01631,-0.00802l0.00857,-0.00442l0.00276,-0.00138l0.0047,-0.00276l0.04202,-0.01797l0.02046,-0.01161l0.01714,-0.00802l0.01216,-0.00581l0.00415,-0.00221l0.00829,-0.00414l0.01244,-0.00553l0.01299,-0.00608l0.01189,-0.0047l0.02184,-0.01133l0.01106,-0.00525l0.01686,-0.00719l0.00581,-0.00359l0.01189,-0.00608l0.03179,-0.01354l0.0246,-0.01133l0.04976,-0.0246l0.01797,-0.00719l0.00719,-0.00221l0.01852,-0.00912l0.03096,-0.01437l0.01161,-0.00553l0.0235,-0.01133l0.01465,-0.00608l0.01133,-0.00525l0.01852,-0.00857l0.0199,-0.00802l0.04644,-0.02184l0.00221,-0.00083l0.00083,-0.00028l0.00249,-0.00111l0.03124,-0.01382l0.01603,-0.00663l0.01852,-0.00829l0.03124,-0.0141l0.00995,-0.00442l0.02792,-0.01189l0.04146,-0.01797l0.01991,-0.00857l0.00774,-0.00359l0.01686,-0.00774l0.05335,-0.02156l0.02129,-0.00857l0.05225,-0.02184l0.04727,-0.02018l0.01824,-0.00884l0.04312,-0.01824l0.03787,-0.01493l0.06026,-0.02433l0.03925,-0.01548l0.03096,-0.01354l0.06192,-0.02488l0.00636,-0.00249l0.00276,-0.00111l0.00636,-0.00276l0.06496,-0.02516l0.02516,-0.0094l0.04616,-0.0188l0.01189,-0.00442l0.04147,-0.01548l0.06662,-0.02599"/><path d="M196.911,187.8l-0.01714,-0.01051l-0.02405,-0.01521l-0.02571,-0.01576l-0.01299,-0.00802l-0.02239,-0.01465l-0.01437,-0.00884l-0.04036,-0.02626l-0.00553,-0.00359l-0.00359,-0.00249l-0.01852,-0.01216l-0.03732,-0.02516l-0.04368,-0.03013l-0.01521,-0.01051l-0.02156,-0.01521l-0.03649,-0.02599l-0.02599,-0.01907l-0.03151,-0.02294l-0.04229,-0.03151l-0.01465,-0.01078l-0.01106,-0.00857l-0.04506,-0.03483l-0.05418,-0.04257l-0.00138,-0.00111l-0.00166,-0.00138l-0.05308,-0.0434l-0.04312,-0.03621l-0.01078,-0.00884l-0.01272,-0.01106l-0.04091,-0.03511l-0.03511,-0.03096l-0.01742,-0.01548l-0.01935,-0.01769l-0.03262,-0.02958l-0.02986,-0.02792l-0.02156,-0.02018l-0.02267,-0.02156l-0.02819,-0.02709l-0.02681,-0.02681l-0.02294,-0.02266l-0.02267,-0.02294l-0.02681,-0.02681l-0.02709,-0.0282l-0.02156,-0.02267l-0.02018,-0.02156l-0.02792,-0.02986l-0.02958,-0.03262l-0.01769,-0.01935l-0.01548,-0.01741l-0.03096,-0.03511l-0.03511,-0.04091l-0.01106,-0.01272l-0.00912,-0.01078l-0.02958,-0.03538l-0.00636,-0.00774l-0.0434,-0.05308l-0.00138,-0.00166l-0.00111,-0.00138l-0.04257,-0.05418l-0.03483,-0.04506l-0.00857,-0.01106l-0.01078,-0.01465l-0.03151,-0.04229l-0.02294,-0.03151l-0.01907,-0.02599l-0.02599,-0.03649l-0.0152,-0.02156l-0.01051,-0.01521l-0.03013,-0.04368l-0.02516,-0.03732l-0.01216,-0.01852l-0.00249,-0.00359l-0.00359,-0.00553l-0.02626,-0.04036l-0.00884,-0.01437l-0.01465,-0.02239l-0.00802,-0.01299l-0.01576,-0.02571l-0.02571,-0.04174"/><path d="M216.84461,164.35509l0.01714,0.01051l0.02405,0.01521l0.02571,0.01576l0.01299,0.00829l0.02239,0.0141l0.0141,0.00912l0.04064,0.02626l0.00553,0.00387l0.00359,0.00221l0.01824,0.01244l0.03151,0.02073l0.00608,0.00442l0.04368,0.02986l0.01521,0.01051l0.02156,0.01548l0.03649,0.02571l0.02598,0.01907l0.03151,0.02294l0.04229,0.03151l0.01465,0.01106l0.01078,0.00829l0.04534,0.03483l0.04257,0.03345l0.01161,0.0094l0.00138,0.00111l0.00166,0.00111l0.04644,0.03815l0.00663,0.00525l0.00746,0.00636l0.03566,0.02986l0.01078,0.00912l0.01272,0.01078l0.04064,0.03511l0.03511,0.03096l0.01769,0.01576l0.01935,0.01742l0.03262,0.02986l0.02986,0.02764l0.02156,0.02018l0.02239,0.02156l0.02819,0.02709l0.02709,0.02681l0.02294,0.02267l0.02267,0.02294l0.02681,0.02709l0.02709,0.0282l0.02156,0.02239l0.02018,0.02156l0.02764,0.02986l0.02986,0.03262l0.01741,0.01935l0.01576,0.01769l0.03096,0.03511l0.03511,0.04064l0.01078,0.01271l0.00912,0.01078l0.03621,0.04312l0.0434,0.05335l0.00221,0.00276l0.0094,0.01161l0.03345,0.04257l0.03483,0.04534l0.00829,0.01078l0.01106,0.01465l0.03151,0.04229l0.02294,0.03151l0.01907,0.02599l0.02571,0.03649l0.01548,0.02156l0.01051,0.0152l0.02986,0.04368l0.02516,0.03759l0.01244,0.01824l0.00221,0.00359l0.00387,0.00553l0.02626,0.04064l0.00885,0.01437l0.01437,0.02211l0.00829,0.01299l0.01576,0.02571l0.02571,0.04174"/><path d="M218.60026,186.0438l-0.02571,0.04174l-0.01631,0.02571l-0.02211,0.03538l-0.00885,0.01437l-0.02626,0.04036l-0.00387,0.00553l-0.00249,0.00359l-0.01216,0.01852l-0.02516,0.03732l-0.00608,0.00912l-0.02377,0.03456l-0.01051,0.01521l-0.01548,0.02211l-0.00857,0.01216l-0.01714,0.02377l-0.01852,0.02599l-0.00525,0.00719l-0.01824,0.02433l-0.01327,0.01824l-0.01824,0.02433l-0.01106,0.01437l-0.00829,0.01106l-0.03483,0.04506l-0.03345,0.04257l-0.0094,0.01161l-0.00111,0.00138l-0.00111,0.00166l-0.03815,0.04672l-0.00525,0.00636l-0.00636,0.00774l-0.02986,0.03538l-0.00912,0.01078l-0.01078,0.01272l-0.03511,0.04091l-0.03096,0.03511l-0.01576,0.01741l-0.01741,0.01935l-0.02986,0.03262l-0.02764,0.02986l-0.02018,0.02156l-0.02156,0.02267l-0.00525,0.00553l-0.02184,0.02267l-0.02681,0.02681l-0.02267,0.02294l-0.02681,0.02681l-0.02322,0.02267l-0.02267,0.02184l-0.00525,0.00525l-0.02267,0.02156l-0.02156,0.02018l-0.02986,0.02792l-0.03262,0.02958l-0.01935,0.01769l-0.01769,0.01548l-0.03511,0.03096l-0.04064,0.03511l-0.01272,0.01106l-0.01078,0.00912l-0.03566,0.02958l-0.00746,0.00636l-0.00663,0.00525l-0.04644,0.03815l-0.00166,0.00138l-0.00138,0.00111l-0.05418,0.04257l-0.04534,0.03483l-0.01078,0.00857l-0.01465,0.01078l-0.04229,0.03151l-0.03151,0.02294l-0.02598,0.01907l-0.03649,0.02599l-0.03677,0.02571l-0.04368,0.03013l-0.03759,0.02516l-0.01824,0.01216l-0.0094,0.00608l-0.05473,0.03511l-0.02211,0.01465l-0.01299,0.00802l-0.02571,0.01576l-0.04174,0.02571"/><path d="M195.15535,166.1113l0.04202,-0.06745l0.02211,-0.03511l0.03511,-0.05473l0.00359,-0.00581l0.00249,-0.00359l0.01216,-0.01824l0.02516,-0.03759l0.03013,-0.04368l0.01051,-0.0152l0.0152,-0.02184l0.00885,-0.01244l0.01714,-0.02377l0.01907,-0.02599l0.05446,-0.07381l0.01078,-0.01465l0.00857,-0.01078l0.03483,-0.04534l0.04257,-0.05418l0.00111,-0.00138l0.00138,-0.00138l0.0434,-0.05335l0.03621,-0.04312l0.00884,-0.01078l0.01106,-0.01271l0.02239,-0.02626l0.01272,-0.01437l0.01437,-0.01659l0.01659,-0.01852l0.01548,-0.01769l0.01769,-0.01935l0.01133,-0.01272l0.01824,-0.0199l0.02792,-0.02986l0.02018,-0.02156l0.02156,-0.02239l0.05391,-0.05529l0.02267,-0.02294l0.02294,-0.02267l0.02681,-0.02681l0.02819,-0.02709l0.02267,-0.02156l0.02156,-0.02018l0.06248,-0.0575l0.01935,-0.01742l0.01742,-0.01576l0.0188,-0.01659l0.01631,-0.01437l0.01465,-0.01272l0.02626,-0.02239l0.01272,-0.01078l0.01078,-0.00912l0.04312,-0.03621l0.05308,-0.0434l0.00166,-0.00111l0.00138,-0.00111l0.01161,-0.0094l0.04257,-0.03345l0.04506,-0.03483l0.01106,-0.00829l0.01465,-0.01106l0.04229,-0.03151l0.03151,-0.02294l0.02599,-0.01907l0.03649,-0.02571l0.02156,-0.01548l0.01521,-0.01051l0.03456,-0.02377l0.00912,-0.00608l0.03732,-0.02516l0.01852,-0.01216l0.0094,-0.00636l0.05446,-0.03511l0.03538,-0.02212l0.06745,-0.04202"/><path d="M202.82676,181.51935l-0.07519,-0.03096l-0.04616,-0.01935l-0.01852,-0.00829l-0.03787,-0.01852l-0.09537,-0.04727l-0.04699,-0.02654l-0.07989,-0.04506l-0.10836,-0.06966l-0.01051,-0.00663l-0.00221,-0.00138l-0.00304,-0.00221l-0.09399,-0.06883l-0.01741,-0.01327l-0.08183,-0.06828l-0.02654,-0.02211l-0.02792,-0.02626l-0.07436,-0.06994l-0.06994,-0.07436l-0.02626,-0.02792l-0.02211,-0.02654l-0.06828,-0.08183l-0.01327,-0.01742l-0.06883,-0.09399l-0.00221,-0.00304l-0.00138,-0.00221l-0.00663,-0.01051l-0.06966,-0.10836l-0.01935,-0.03262l-0.02709,-0.04727l-0.02516,-0.04699l-0.04727,-0.09537l-0.01852,-0.03787l-0.00774,-0.01852l-0.0199,-0.04616l-0.03096,-0.07519l-0.02737,-0.07741l-0.02488,-0.06911l-0.02681,-0.08708l-0.01161,-0.04229l-0.00719,-0.02377l-0.0199,-0.07574l-0.00359,-0.01631l-0.01493,-0.068l-0.00276,-0.01493l-0.0047,-0.02239l-0.02294,-0.13103l-0.00746,-0.04534l-0.00802,-0.06054l-0.00802,-0.06939l-0.00498,-0.06883l-0.00857,-0.0821l-0.00194,-0.03234l-0.00442,-0.08404l-0.00055,-0.01023l-0.00194,-0.081v-0.00829l-0.00028,-0.00802v-0.08321l0.00028,-0.00802v-0.00829l0.00166,-0.08127l0.00055,-0.00968l0.00028,-0.01078l0.00332,-0.07464l0.00111,-0.0141l0.00055,-0.01576l0.00415,-0.06358l0.00194,-0.0199l0.00166,-0.02322l0.00387,-0.04865l0.00331,-0.02737l0.00276,-0.03345l0.00304,-0.02958l0.00525,-0.03649l0.00442,-0.04616l0.00083,-0.00636l0.00746,-0.04672l0.00442,-0.04064l0.00359,-0.02184l0.00636,-0.03704l0.00332,-0.02709l0.0094,-0.05418l0.00331,-0.01797l0.00166,-0.01271l0.01299,-0.07077l0.00304,-0.01576l0.00083,-0.00387l0.01548,-0.0763l0.00498,-0.01935l0.00746,-0.03179l0.02433,-0.11058l0.01382,-0.05612l0.02267,-0.09288l0.00249,-0.01078l0.00415,-0.01631l0.02294,-0.07878l0.00802,-0.03096l0.00802,-0.02931l0.01354,-0.03925l0.0094,-0.03732l0.01106,-0.03566l0.00885,-0.02626l0.00359,-0.0141l0.01382,-0.04561l0.01023,-0.02958l0.00442,-0.00995l0.00608,-0.02073l0.01437,-0.04368l0.01189,-0.03511l0.00276,-0.00884l0.01078,-0.02986l0.00415,-0.01078l0.00857,-0.0235l0.0094,-0.02626l0.00415,-0.01272l0.01271,-0.03538l0.00055,-0.00166l0.01354,-0.03538l0.00581,-0.0141l0.01216,-0.03234l0.0094,-0.02571l0.00802,-0.02211l0.00829,-0.01935l0.01189,-0.02958l0.02626,-0.06634l0.00138,-0.00332l0.00194,-0.00581l0.01935,-0.04395l0.00885,-0.02156l0.01189,-0.0282l0.00968,-0.02543l0.00746,-0.01659l0.00415,-0.00746l0.0094,-0.02129l0.01437,-0.02847l0.0141,-0.04257l0.01963,-0.03732l0.00968,-0.01935l0.02046,-0.04976h0.00028l0.01603,-0.03345l0.01023,-0.01631l0.00553,-0.01742l0.01299,-0.02736l0.00249,-0.0047l0.00028,-0.00194l0.00194,-0.00553l0.01465,-0.02764l0.01299,-0.01465l0.01824,-0.04589l0.00166,-0.00387v-0.00194l0.00221,-0.01437l0.01852,-0.01465l0.0094,0.00304l0.00553,0.01189l-0.01078,0.01603l0.02681,0.00636l0.01299,0.03041l0.00249,0.01299l0.01493,0.01935l0.01189,0.02267l0.00331,0.00774l0.00194,0.00194l0.00221,0.00304l0.02018,0.04451l0.01189,0.01769l0.01769,0.03206l0.01631,0.03317l0.00857,0.01659l0.0246,0.04064l0.00276,0.00608l0.00636,0.01189l0.02184,0.04064l0.00719,0.01161l0.01161,0.01852l0.00995,0.01963l0.01437,0.02543l0.01078,0.02405l0.02571,0.0387l0.03262,0.05473l0.00332,0.00608l0.00111,0.00138l0.00138,0.00221l0.03538,0.06026l0.01437,0.02239l0.00719,0.01299l0.01603,0.02654l0.01437,0.02322l0.01216,0.01852l0.01133,0.01963l0.00719,0.01161l0.03096,0.04865l0.00055,0.00055l0.00111,0.00194l0.0293,0.0481l0.0188,0.02654l0.02792,0.04478l0.01686,0.02792l0.05446,0.07906l0.00774,0.01271l0.0047,0.00774l0.02764,0.03981l0.00774,0.01161l0.03179,0.04782l0.00829,0.01161l0.01161,0.01521l0.04893,0.07243l0.02101,0.02958l0.02931,0.03926l0.02101,0.03068l0.03262,0.04561l0.04008,0.05363l0.00581,0.00719l0.03898,0.05308l0.02875,0.03926l0.03151,0.04008l0.02488,0.034l0.01935,0.02516l0.05501,0.06966l0.01272,0.01686l0.00995,0.01271l0.07685,0.09565l0.00166,0.00221l0.0141,0.01742l0.068,0.08348l0.00691,0.00857l0.00857,0.00968l0.08183,0.09869l0.06911,0.08183l0.02267,0.02516l0.02516,0.02764l0.06773,0.07823l0.05999,0.06773l0.034,0.03677l0.03704,0.03953l0.05833,0.06386l0.05446,0.05833l0.04174,0.04396l0.04396,0.04534l0.05391,0.05584l0.0528,0.05363l0.04589,0.04616l0.04616,0.04589l0.05363,0.0528l0.05584,0.05391l0.04534,0.04395l0.04395,0.04174l0.05833,0.05446l0.06386,0.05833l0.03953,0.03704l0.03677,0.034l0.06773,0.05999l0.07823,0.06773l0.02764,0.02516l0.02516,0.02267l0.08183,0.06911l0.09869,0.08183l0.00968,0.00857l0.00857,0.00746l0.08348,0.06745l0.01741,0.0141l0.00221,0.00166l0.09565,0.07685l0.01272,0.00995l0.01686,0.01272l0.06966,0.05501l0.02516,0.01935l0.034,0.02488l0.04008,0.03151l0.03926,0.02875l0.05308,0.03898l0.00719,0.00581l0.05363,0.04008l0.04561,0.03262l0.03069,0.02101l0.03925,0.0293l0.02958,0.02101l0.07243,0.04893l0.0152,0.01161l0.01161,0.00829l0.06054,0.04064l0.04644,0.03124l0.09178,0.06524l0.0763,0.04174l0.0716,0.05059l0.05059,0.03096l0.01161,0.00636l0.02046,0.01133l0.04091,0.02654l0.02654,0.01852l0.03538,0.01907l0.06026,0.03538l0.00221,0.00138l0.00138,0.00111l0.00608,0.00331l0.05474,0.03262l0.0387,0.02571l0.02405,0.01078l0.02543,0.01437l0.01963,0.00995l0.01852,0.01161l0.01161,0.00719l0.04064,0.02184l0.01189,0.00636l0.00608,0.00276l0.04064,0.0246l0.01659,0.00857l0.03317,0.01631l0.03207,0.01769l0.01769,0.01189l0.04451,0.02018l0.00304,0.00221l0.00194,0.00194l0.00774,0.00332l0.02267,0.01189l0.01935,0.01493l0.01299,0.00249l0.03041,0.01299l0.00636,0.02681l0.01603,-0.01078l0.01189,0.00553l0.00304,0.0094l-0.01465,0.01852l-0.01437,0.00221h-0.00194l-0.00387,0.00166l-0.04589,0.01824l-0.01465,0.01299l-0.02764,0.01465l-0.00746,0.00221l-0.0047,0.00249l-0.02737,0.01299l-0.01742,0.00553l-0.01631,0.01023l-0.03345,0.01603v0.00028l-0.03428,0.01521l-0.01548,0.00525l-0.01935,0.00968l-0.03732,0.01963l-0.03124,0.01133l-0.01133,0.00276l-0.02847,0.01437l-0.02129,0.0094l-0.00746,0.00414l-0.01659,0.00746l-0.02543,0.00968l-0.01797,0.00829l-0.00968,0.00415l-0.02212,0.00829l-0.01299,0.00636l-0.03096,0.01299l-0.00581,0.00194l-0.00332,0.00138l-0.06634,0.02626l-0.02958,0.00857l-0.04147,0.01963l-0.02571,0.0094l-0.03234,0.01216l-0.0141,0.00581l-0.03538,0.01354l-0.00166,0.00055l-0.03538,0.01272l-0.01271,0.00332l-0.02626,0.01023l-0.03428,0.01272l-0.0387,0.01078l-0.03511,0.01465l-0.04368,0.01437l-0.02073,0.00691l-0.00995,0.00359l-0.02958,0.01023l-0.04561,0.01382l-0.0141,0.00359l-0.02626,0.00884l-0.03566,0.01106l-0.03732,0.0094l-0.04008,0.01244l-0.05943,0.01714l-0.07878,0.02294l-0.01631,0.00414l-0.01078,0.00249l-0.09288,0.02267l-0.05612,0.01382l-0.11058,0.02433l-0.03179,0.00746l-0.01991,0.0047l-0.07961,0.01659l-0.01576,0.00304l-0.07077,0.01299l-0.01272,0.00166l-0.01797,0.00332l-0.05418,0.0094l-0.02709,0.00331l-0.03704,0.00636l-0.02184,0.00359l-0.04064,0.00442l-0.04672,0.00746l-0.00636,0.00083l-0.04617,0.00442l-0.03649,0.00525l-0.02958,0.00304l-0.03345,0.00276l-0.02737,0.00332l-0.04865,0.00387l-0.02322,0.00166l-0.0199,0.00194l-0.06358,0.00415l-0.01576,0.00055l-0.0141,0.00111l-0.07464,0.00331l-0.01078,0.00028l-0.00968,0.00055l-0.08127,0.00166h-0.00829l-0.00802,0.00028h-0.08321l-0.00802,-0.00028h-0.00829l-0.081,-0.00194l-0.01023,-0.00055l-0.08404,-0.00442l-0.03234,-0.00194l-0.0821,-0.00857l-0.06883,-0.00498l-0.06939,-0.00802l-0.06054,-0.0094l-0.04534,-0.00608l-0.13103,-0.02294l-0.02239,-0.0047l-0.01493,-0.00276l-0.068,-0.01493l-0.01631,-0.00359l-0.07574,-0.01991l-0.02377,-0.00719l-0.04229,-0.01161l-0.08708,-0.02681l-0.06911,-0.02488l-0.0774,-0.02736"/><path d="M210.78234,181.5716l-0.08708,0.02681l-0.04257,0.01244l-0.0235,0.00636l-0.07574,0.01991l-0.01659,0.00359l-0.06773,0.01493l-0.01493,0.00276l-0.02239,0.0047l-0.13103,0.02294l-0.04534,0.00608l-0.06082,0.0094l-0.06911,0.00802l-0.06883,0.00498l-0.08238,0.00857l-0.03207,0.00194l-0.08431,0.00138l-0.09095,0.00525l-0.01659,0.00028l-0.09095,-0.00359l-0.08929,0.00166l-0.02129,-0.00083l-0.08818,-0.00774l-0.07906,-0.00138l-0.04451,-0.00415l-0.07519,-0.00968l-0.0622,-0.00332l-0.03704,-0.00442l-0.0481,-0.00636l-0.05114,-0.00636l-0.04064,-0.00442l-0.02184,-0.00359l-0.03704,-0.00636l-0.02709,-0.00331l-0.05418,-0.0094l-0.01797,-0.00332l-0.01299,-0.00166l-0.07049,-0.01299l-0.01603,-0.00304l-0.00387,-0.00083l-0.07602,-0.01548l-0.01935,-0.00498l-0.03179,-0.00746l-0.11058,-0.02433l-0.05639,-0.01382l-0.09261,-0.02267l-0.01078,-0.00249l-0.01659,-0.00414l-0.07851,-0.02294l-0.03096,-0.00802l-0.02958,-0.00802l-0.03704,-0.01078l-0.00194,-0.00055l-0.03759,-0.01161l-0.03538,-0.01106l-0.02626,-0.00802l-0.0141,-0.00442l-0.03566,-0.01106l-0.0094,-0.00276l-0.03013,-0.01023l-0.01023,-0.00359l-0.02046,-0.00691l-0.04368,-0.01437l-0.03511,-0.01465l-0.0387,-0.01078l-0.03456,-0.01272l-0.02598,-0.01023l-0.01272,-0.00332l-0.03566,-0.01272l-0.00138,-0.00055l-0.03538,-0.01354l-0.01437,-0.00581l-0.03207,-0.01216l-0.02571,-0.0094l-0.04146,-0.01963l-0.02958,-0.00857l-0.06634,-0.02626l-0.00332,-0.00138l-0.00581,-0.00194l-0.04396,-0.01935l-0.02211,-0.00829l-0.00968,-0.00415l-0.01797,-0.00829l-0.02543,-0.00968l-0.01659,-0.00746l-0.00746,-0.00359l-0.01935,-0.00802l-0.00802,-0.00331l-0.02239,-0.01133l-0.01189,-0.00415l-0.02792,-0.01161l-0.00995,-0.00553l-0.00884,-0.00359l-0.01603,-0.00719l-0.00608,-0.00249l-0.0141,-0.00608l-0.0047,-0.00249l-0.01521,-0.00719l-0.0094,-0.00442l-0.02488,-0.01078l-0.00028,-0.00028l-0.0246,-0.01216l-0.00884,-0.00387l-0.01603,-0.00719l-0.00359,-0.00138l-0.01437,-0.00691l-0.00691,-0.00415l-0.02018,-0.00912l-0.0047,-0.00249l-0.00719,-0.00221l-0.02764,-0.01465l-0.01465,-0.01299l-0.04616,-0.01824l-0.00359,-0.00166h-0.00194l-0.01465,-0.00221l-0.01437,-0.01852l0.00276,-0.0094l0.01216,-0.00553l0.01603,0.01078l0.00636,-0.02681l0.03041,-0.01299l0.01299,-0.00249l0.01935,-0.01493l0.02267,-0.01189l0.00746,-0.00332l0.00221,-0.00194l0.00276,-0.00221l0.04478,-0.02018l0.01769,-0.01189l0.03179,-0.01769h0.00028l0.03317,-0.01631l0.01631,-0.00857l0.04091,-0.0246l0.00608,-0.00276l0.01189,-0.00636l0.04064,-0.02184l0.01161,-0.00719l0.01852,-0.01161l0.01963,-0.00995l0.02543,-0.01437l0.02405,-0.01078l0.0387,-0.02571l0.05474,-0.03262l0.00608,-0.00359l0.00138,-0.00083l0.00194,-0.00138l0.09593,-0.05446l0.02654,-0.01852l0.04064,-0.02654l0.02073,-0.01133l0.01133,-0.00636l0.04948,-0.03234l0.00166,-0.00111l0.04838,-0.02931l0.02654,-0.0188l0.04478,-0.02792l0.02792,-0.01686l0.07906,-0.05446l0.01272,-0.00774l0.00746,-0.0047l0.04008,-0.02764l0.01161,-0.00774l0.04782,-0.03179l0.01134,-0.00857l0.0152,-0.01133l0.0727,-0.04893l0.02903,-0.02129l0.03981,-0.02903l0.03068,-0.02101l0.04561,-0.03262l0.05363,-0.04008l0.00719,-0.00581l0.05363,-0.03843l0.03843,-0.02681l0.07436,-0.05888l0.09426,-0.07436l0.01742,-0.01272l0.01271,-0.0094l0.09786,-0.07906l0.01741,-0.0141l0.08348,-0.06745l0.00857,-0.00746l0.00968,-0.00857l0.09841,-0.08183l0.0821,-0.06911l0.02516,-0.02267l0.02764,-0.02516l0.07796,-0.06773l0.06773,-0.05999l0.03704,-0.034l0.03925,-0.03704l0.06413,-0.05833l0.05833,-0.05446l0.04395,-0.04174l0.04506,-0.04395l0.05584,-0.05391l0.05391,-0.0528l0.04616,-0.04589l0.04589,-0.04616l0.0528,-0.05363l0.05363,-0.05584l0.04396,-0.04534l0.04202,-0.04396l0.05446,-0.05833l0.05833,-0.06386l0.03704,-0.03953l0.034,-0.03677l0.05999,-0.06773l0.06773,-0.07823l0.02516,-0.02764l0.02267,-0.02516l0.06911,-0.08183l0.08183,-0.09869l0.00857,-0.00968l0.00746,-0.00857l0.06718,-0.08348l0.01437,-0.01742l0.07906,-0.09786l0.00912,-0.01271l0.01272,-0.01742l0.07436,-0.09426l0.05888,-0.07409l0.02681,-0.0387l0.0387,-0.05363l0.00581,-0.00719l0.04008,-0.05363l0.03262,-0.04561l0.02101,-0.03068l0.02931,-0.03926l0.02101,-0.02958l0.04893,-0.07243l0.01133,-0.01521l0.00829,-0.01161l0.04091,-0.06054l0.02626,-0.0387l0.00498,-0.00774l0.06496,-0.09178l0.01465,-0.02736l0.02736,-0.04893l0.05059,-0.0716l0.03096,-0.05059l0.01769,-0.03207l0.02654,-0.04091l0.01576,-0.02654l0.00746,-0.01299l0.0141,-0.02239l0.00885,-0.0141l0.02654,-0.04616l0.00166,-0.00221l0.00083,-0.00138l0.00359,-0.00608l0.03262,-0.05473l0.01106,-0.02073l0.01133,-0.01797l0.0141,-0.02405l0.01437,-0.02543l0.00995,-0.01963l0.01161,-0.01852l0.00719,-0.01161l0.02184,-0.04064l0.00608,-0.01189l0.00276,-0.00608l0.02488,-0.04064l0.02488,-0.04976l0.01769,-0.03206l0.01189,-0.01769l0.02018,-0.04451l0.00194,-0.00304l0.00221,-0.00194l0.00331,-0.00774l0.01189,-0.02267l0.01493,-0.01935l0.00249,-0.01299l0.01299,-0.03041l0.02681,-0.00636l-0.01106,-0.01603l0.00553,-0.01189l0.0094,-0.00304l0.0188,0.01465l0.00194,0.01437l0.00166,0.00581l0.01852,0.04589l0.01272,0.01465l0.01493,0.02764l0.00221,0.00746l0.00249,0.0047l0.01299,0.02736l0.00553,0.01742l0.01023,0.01631l0.01603,0.03345h0.00028l0.01521,0.03428l0.00525,0.01548l0.00968,0.01935l0.01935,0.03732l0.01161,0.03124l0.00249,0.01133l0.01437,0.02847l0.00968,0.02129l0.00387,0.00746l0.00774,0.01659l0.00968,0.02543l0.00829,0.01797l0.00414,0.00968l0.00802,0.02211l0.00636,0.01299l0.01327,0.03096l0.00194,0.00581l0.00138,0.00332l0.02626,0.06634l0.01189,0.02958l0.00802,0.01935l0.00829,0.02211l0.0094,0.02571l0.01216,0.03234l0.00553,0.0141l0.01382,0.03538l0.00055,0.00166l0.01272,0.03538l0.00304,0.01272l0.01051,0.02626l0.01244,0.03428l0.01106,0.0387l0.01465,0.03511l0.01437,0.04368l0.00608,0.02073l0.01437,0.03953l0.0141,0.04561l0.00331,0.0141l0.00912,0.02626l0.01106,0.03566l0.0094,0.03732l0.01327,0.03925l0.00829,0.02931l0.00774,0.03096l0.02322,0.07878l0.00415,0.01631l0.00083,0.00415l0.00166,0.00663l0.02239,0.09288l0.01382,0.05612l0.00968,0.04312l0.01493,0.06745l0.00746,0.03179l0.0047,0.01991l0.01659,0.07961l0.00304,0.01576l0.01271,0.07077l0.00194,0.01271l0.00332,0.01797l0.00912,0.05418l0.00359,0.02709l0.00636,0.03704l0.00331,0.02184l0.0047,0.04064l0.00636,0.05114l0.01078,0.08542l0.00636,0.0622l0.00663,0.07491l0.00387,0.04451l0.00166,0.07906l0.00746,0.08846l0.00111,0.02101l-0.00166,0.08929l0.00332,0.09095v0.01686l-0.00553,0.09095l-0.00111,0.08404l-0.00194,0.03234l-0.00884,0.0821l-0.0047,0.06883l-0.00802,0.06939l-0.0094,0.06054l-0.00608,0.04534l-0.02294,0.13103l-0.0047,0.02239l-0.00276,0.01493l-0.01493,0.068l-0.00387,0.01631l-0.0199,0.07574l-0.00691,0.02377l-0.01189,0.04229l-0.02654,0.08708l-0.02488,0.06911l-0.02737,0.07741l-0.03096,0.07519l-0.01935,0.04616l-0.00857,0.01852l-0.01852,0.03981l-0.01991,0.04119l-0.02709,0.05225l-0.02516,0.04699l-0.02709,0.04727l-0.01935,0.03262l-0.06966,0.10836l-0.00663,0.01051l-0.00138,0.00221l-0.00221,0.00304l-0.0821,0.11141l-0.06828,0.08183l-0.02211,0.02654l-0.02626,0.02792l-0.06994,0.07436l-0.07436,0.06994l-0.0282,0.02626l-0.02626,0.02211l-0.0821,0.06828l-0.1114,0.0821l-0.00304,0.00221l-0.00221,0.00138l-0.01023,0.00663l-0.10836,0.06966l-0.03262,0.01935l-0.04727,0.02709l-0.04727,0.02516l-0.09537,0.04727l-0.03759,0.01852l-0.01852,0.00829l-0.04644,0.01935l-0.07491,0.03096l-0.0774,0.02736l-0.06911,0.02488"/><path d="M212.01193,175.56296l-0.00829,0.01797l-0.00968,0.02543l-0.00774,0.01659l-0.00387,0.00746l-0.00968,0.02129l-0.01437,0.02847l-0.00249,0.01161l-0.01161,0.03096l-0.01935,0.03732l-0.00968,0.01963l-0.00525,0.0152l-0.01521,0.03428h-0.00028v0.00028l-0.01603,0.03345l-0.01023,0.01603l-0.00553,0.01769l-0.01299,0.02736l-0.00249,0.0047l-0.00221,0.00719l-0.01493,0.02764l-0.01272,0.01465l-0.01852,0.04616l-0.00138,0.00359l-0.00028,0.00194l-0.00194,0.01465l-0.0188,0.01437l-0.0094,-0.00276l-0.00553,-0.01216l0.01106,-0.01603l-0.02681,-0.00636l-0.01134,-0.03207l-0.00414,-0.01133l-0.01493,-0.01935l-0.01189,-0.02267l-0.00331,-0.00746l-0.00221,-0.00221l-0.00194,-0.00276l-0.02018,-0.04478l-0.01189,-0.01769l-0.01769,-0.03179v-0.00028l-0.01659,-0.03317l-0.00829,-0.01631l-0.02488,-0.04091l-0.00276,-0.00608l-0.00608,-0.01189l-0.02184,-0.04064l-0.00719,-0.01161l-0.01161,-0.01852l-0.00995,-0.01963l-0.01437,-0.02543l-0.01078,-0.02405l-0.02571,-0.0387l-0.03262,-0.05473l-0.00359,-0.00608l-0.00083,-0.00138l-0.00166,-0.00194l-0.03539,-0.06054l-0.0188,-0.03538l-0.01852,-0.02654l-0.01437,-0.02322l-0.01216,-0.01852l-0.01161,-0.01963l-0.00691,-0.01133l-0.03124,-0.04893l-0.00028,-0.00055l-0.00111,-0.00166l-0.02931,-0.04838l-0.0188,-0.02654l-0.02736,-0.04534l-0.01742,-0.02736l-0.05473,-0.07906l-0.00746,-0.01271l-0.00498,-0.00746l-0.02626,-0.03898l-0.04091,-0.06054l-0.00829,-0.01133l-0.01133,-0.01465l-0.06994,-0.10283l-0.02931,-0.03926l-0.02101,-0.03068l-0.03317,-0.04506l-0.0246,-0.03345l-0.01493,-0.02074l-0.00581,-0.00719l-0.0387,-0.05363l-0.02903,-0.03843l-0.03151,-0.04036l-0.02516,-0.034l-0.07436,-0.09426l-0.01272,-0.01742l-0.00968,-0.01272l-0.07685,-0.09565l-0.00166,-0.00221l-0.01437,-0.01742l-0.06718,-0.08348l-0.00746,-0.00857l-0.00857,-0.00968l-0.08183,-0.09841l-0.06911,-0.0821l-0.02267,-0.02516l-0.02516,-0.02764l-0.06773,-0.07796l-0.05999,-0.06773l-0.034,-0.03704l-0.03704,-0.03926l-0.05833,-0.06413l-0.05446,-0.05833l-0.04202,-0.04395l-0.04396,-0.04506l-0.05363,-0.05584l-0.0528,-0.05391l-0.04589,-0.04616l-0.04616,-0.04589l-0.05391,-0.0528l-0.05584,-0.05363l-0.04506,-0.04395l-0.04395,-0.04202l-0.05833,-0.05446l-0.06413,-0.05833l-0.03925,-0.03704l-0.03704,-0.034l-0.06773,-0.05999l-0.07796,-0.06773l-0.02764,-0.02516l-0.02516,-0.02267l-0.0821,-0.06911l-0.09841,-0.08183l-0.00968,-0.00857l-0.00857,-0.00746l-0.08348,-0.06718l-0.01741,-0.01437l-0.00221,-0.00166l-0.09565,-0.07685l-0.01271,-0.00968l-0.01686,-0.01271l-0.06966,-0.05529l-0.02543,-0.0188l-0.03373,-0.02543l-0.04036,-0.03151l-0.03898,-0.02875l-0.05308,-0.03898l-0.00719,-0.00581l-0.05363,-0.04008l-0.04561,-0.03262l-0.03068,-0.02101l-0.03926,-0.0293l-0.02958,-0.02101l-0.0727,-0.04893l-0.0152,-0.01133l-0.01134,-0.00829l-0.06054,-0.04091l-0.03898,-0.02626l-0.00746,-0.00498l-0.09178,-0.06496l-0.02737,-0.01465l-0.04893,-0.02737l-0.07187,-0.05059l-0.05059,-0.03096l-0.01133,-0.00608l-0.02073,-0.01161l-0.04064,-0.02654l-0.02654,-0.01576l-0.01299,-0.00746l-0.02239,-0.0141l-0.01437,-0.00884l-0.04589,-0.02654l-0.00221,-0.00166l-0.00138,-0.00111l-0.00608,-0.00331l-0.05474,-0.03262l-0.0387,-0.02571l-0.02405,-0.01078l-0.02543,-0.01437l-0.01963,-0.00995l-0.01852,-0.01161l-0.01161,-0.00719l-0.04064,-0.02184l-0.01189,-0.00608l-0.00608,-0.00276l-0.04091,-0.02488l-0.01631,-0.00829l-0.03317,-0.01659h-0.00028l-0.03179,-0.01769l-0.01769,-0.01189l-0.04478,-0.02018l-0.00276,-0.00194l-0.00221,-0.00221l-0.00746,-0.00332l-0.02267,-0.01189l-0.01935,-0.01493l-0.01299,-0.00249l-0.03041,-0.01299l-0.00636,-0.02681l-0.01603,0.01106l-0.01216,-0.00553l-0.00276,-0.0094l0.01437,-0.0188l0.01465,-0.00194l0.00553,-0.00166l0.04616,-0.01852l0.01465,-0.01272l0.02764,-0.01493l0.00719,-0.00221l0.0047,-0.00249l0.02737,-0.01299l0.01769,-0.00553l0.01603,-0.01023l0.03345,-0.01603h0.00028v-0.00028l0.03428,-0.01521l0.01521,-0.00525l0.01963,-0.00968l0.03732,-0.01935l0.03096,-0.01161l0.01161,-0.00249l0.02847,-0.01437l0.02129,-0.00968l0.00774,-0.00387l0.01631,-0.00774l0.02543,-0.00968l0.02819,-0.01189l0.02156,-0.00857l0.04396,-0.01963l0.00581,-0.00193l0.00332,-0.00138l0.06634,-0.02626l0.02958,-0.01189l0.01935,-0.00802l0.02211,-0.00829l0.02571,-0.0094l0.03207,-0.01216l0.01437,-0.00553l0.03538,-0.01382l0.00138,-0.00055l0.03566,-0.01272l0.01272,-0.00304l0.02598,-0.01051l0.03456,-0.01244l0.02986,-0.01106l0.00885,-0.00276l0.03511,-0.01189l0.04368,-0.01437l0.02046,-0.00608l0.03981,-0.01437l0.04561,-0.0141l0.0141,-0.00332l0.02626,-0.00912l0.03538,-0.01106l0.03759,-0.0094l0.03898,-0.01327l0.02958,-0.00829l0.03096,-0.00774l0.07851,-0.02322l0.01659,-0.00415l0.00415,-0.00083l0.00691,-0.00194l0.068,-0.01742l0.02433,-0.00581l0.04036,-0.00995l0.01521,-0.00387l0.04395,-0.00857l0.03677,-0.00995l0.03234,-0.00664l0.03013,-0.00581l0.01935,-0.00498l0.03041,-0.00636l0.04561,-0.00912l0.00387,-0.00083l0.01603,-0.00304l0.07049,-0.01272l0.01299,-0.00194l0.01797,-0.00332l0.05418,-0.00912l0.02709,-0.00359l0.03704,-0.00636l0.02184,-0.00332l0.04064,-0.0047l0.04672,-0.00746l0.00636,-0.00083l0.04616,-0.00442l0.03649,-0.00525l0.02931,-0.00304l0.03345,-0.00249l0.02736,-0.00359l0.04865,-0.00387l0.0235,-0.00166l0.01963,-0.00194l0.06386,-0.00415l0.01576,-0.00055l0.01382,-0.00111l0.07491,-0.00331l0.01051,-0.00028l0.00995,-0.00055l0.08127,-0.00166h0.00829l0.00774,-0.00028l0.08348,0.00028h0.01631l0.08072,0.00221l0.01023,0.00028l0.08431,0.00442l0.03207,0.00194l0.08238,0.00636l0.06883,0.00719l0.06911,0.00802l0.06082,0.00802l0.04534,0.00746l0.13103,0.02294l0.02239,0.0047l0.01493,0.00276l0.06773,0.01493l0.01659,0.00387l0.07574,0.01991l0.0235,0.00691l0.04257,0.01189l0.08708,0.02654l0.06911,0.02488l0.0774,0.02736l0.07491,0.03096l0.04644,0.0199l0.01852,0.00802l0.03981,0.01852l0.04091,0.0199l0.05225,0.02709l0.04727,0.02516l0.04727,0.02709l0.03262,0.01935l0.10836,0.06966l0.01023,0.00664l0.00221,0.00138l0.00332,0.00221l0.09399,0.06884l0.01714,0.01327l0.0821,0.06828l0.02626,0.02212l0.0282,0.02626l0.07436,0.06994l0.06994,0.07436l0.02626,0.0282l0.02211,0.02626l0.06828,0.0821l0.01327,0.01714l0.06883,0.09399l0.00221,0.00331l0.00138,0.00221l0.00663,0.01023l0.06966,0.10836l0.04506,0.07989l0.02654,0.04727l0.04699,0.09537l0.01852,0.03759l0.00857,0.01852l0.01935,0.04644l0.03096,0.07491l0.02737,0.07741l0.02488,0.06911l0.02654,0.08708l0.01272,0.04257l0.00608,0.0235l0.0199,0.07574l0.00387,0.01659l0.01493,0.06773l0.00276,0.01493l0.0047,0.02239l0.02294,0.13103l0.00608,0.04534l0.0094,0.06082l0.00802,0.06911l0.0047,0.06883l0.00884,0.08238l0.00111,0.01686l0.00083,0.01521l0.00442,0.08431l0.00028,0.01023l0.00221,0.08072v0.00829l-0.00028,0.00829l0.00028,0.09095v0.00829l-0.00166,0.08127l-0.00055,0.00995l-0.00028,0.01051l-0.00332,0.07491l-0.00111,0.01382l-0.00055,0.01576l-0.00414,0.06386l-0.00194,0.01963l-0.00249,0.02433l-0.00663,0.07519l-0.00249,0.03345l-0.00304,0.0293l-0.00525,0.03649l-0.00442,0.04616l-0.00083,0.00636l-0.00746,0.04672l-0.0047,0.04064l-0.00331,0.02184l-0.00636,0.03704l-0.01354,0.0821l-0.00249,0.01714l-0.00194,0.01299l-0.01271,0.07049l-0.00304,0.01603l-0.00083,0.00387l-0.01548,0.07602l-0.00498,0.01935l-0.00746,0.03179l-0.01493,0.06745l-0.00968,0.04312l-0.01382,0.05639l-0.02239,0.09261l-0.00166,0.00663l-0.00083,0.00415l-0.00415,0.01659l-0.02322,0.07851l-0.00774,0.03096l-0.00829,0.02958l-0.01327,0.03898l-0.0094,0.03759l-0.01106,0.03538l-0.00912,0.02626l-0.00331,0.0141l-0.01106,0.03566l-0.00304,0.0094l-0.00995,0.03013l-0.00359,0.01023l-0.00691,0.02046l-0.01437,0.04368l-0.01465,0.03511l-0.01106,0.0387l-0.01244,0.03456l-0.01051,0.02599l-0.00304,0.01272l-0.01272,0.03566l-0.00055,0.00138l-0.01382,0.03538l-0.00719,0.01437l-0.01051,0.03207l-0.0094,0.02571l-0.01963,0.04146l-0.00857,0.02958l-0.00829,0.02018l-0.01797,0.04616l-0.00138,0.00331l-0.00194,0.00581l-0.01327,0.03096l-0.00636,0.01299l-0.00802,0.02211l-0.00414,0.00968"/><path d="M202.49586,175.17263l-0.00802,0.01078l-0.0293,0.04838l-0.00111,0.00166l-0.03234,0.04948l-0.00636,0.01133l-0.01133,0.02074l-0.02654,0.04064l-0.01852,0.02654l-0.01907,0.03538l-0.03538,0.06054l-0.00138,0.00194l-0.00111,0.00138l-0.00332,0.00608l-0.03262,0.05473l-0.02571,0.0387l-0.01078,0.02405l-0.01437,0.02543l-0.00995,0.01963l-0.01161,0.01852l-0.00968,0.01161l-0.01935,0.04064l-0.00636,0.01189l-0.00276,0.00608l-0.0246,0.04091l-0.00857,0.01631l-0.01631,0.03317v0.00028l-0.01769,0.03179l-0.01189,0.01769l-0.02018,0.04478l-0.00221,0.00276l-0.00194,0.00221l-0.00331,0.00746l-0.01189,0.02267l-0.01493,0.01935l-0.00249,0.01299l-0.01299,0.03041l-0.02681,0.00636l0.01078,0.01603l-0.00553,0.01216l-0.0094,0.00276l-0.01852,-0.01437l-0.00221,-0.01465v-0.00194l-0.00166,-0.00359l-0.01824,-0.04616l-0.01299,-0.01465l-0.01465,-0.02764l-0.00221,-0.00719l-0.00249,-0.0047l-0.01299,-0.02736l-0.00553,-0.01769l-0.01023,-0.01603l-0.01603,-0.03345l-0.00028,-0.00028l-0.0152,-0.03428l-0.00525,-0.0152l-0.00968,-0.01963l-0.01963,-0.03732l-0.01134,-0.03096l-0.00276,-0.01161l-0.01437,-0.02847l-0.0094,-0.02129l-0.00387,-0.00774l-0.00774,-0.01631l-0.00968,-0.02543l-0.00829,-0.01797l-0.00414,-0.00968l-0.00829,-0.02211l-0.01935,-0.04395l-0.00194,-0.00581l-0.00138,-0.00331l-0.02626,-0.06634l-0.01189,-0.02958l-0.00829,-0.01935l-0.00802,-0.02211l-0.0094,-0.02571l-0.01216,-0.03207l-0.00581,-0.01437l-0.01354,-0.03538l-0.00055,-0.00138l-0.01271,-0.03566l-0.00332,-0.01272l-0.01023,-0.02599l-0.01272,-0.03456l-0.01078,-0.02986l-0.00276,-0.00884l-0.01189,-0.03511l-0.01437,-0.04368l-0.00691,-0.02046l-0.00359,-0.01023l-0.01023,-0.02958l-0.01382,-0.04561l-0.00359,-0.0141l-0.00885,-0.02626l-0.01106,-0.03538l-0.01161,-0.03759l-0.00055,-0.00193l-0.01078,-0.03704l-0.00802,-0.02958l-0.00802,-0.03096l-0.02294,-0.07851l-0.00415,-0.01659l-0.00249,-0.01078l-0.02267,-0.09261l-0.01382,-0.05639l-0.0094,-0.04312l-0.01493,-0.06745l-0.00746,-0.03179l-0.00498,-0.01935l-0.01548,-0.07602l-0.00083,-0.00387l-0.00304,-0.01603l-0.01299,-0.07049l-0.00166,-0.01299l-0.00331,-0.01797l-0.0094,-0.05418l-0.00332,-0.02709l-0.00636,-0.03704l-0.00359,-0.02184l-0.00442,-0.04064l-0.00636,-0.05114l-0.01078,-0.08514l-0.00332,-0.0622l-0.00968,-0.07519l-0.00415,-0.04451l-0.00498,-0.07906l-0.00414,-0.08818l-0.00083,-0.02129l0.00166,-0.08929l-0.00359,-0.09095l0.00028,-0.01659l0.00221,-0.09095l0.00442,-0.08431l0.00194,-0.03207l0.00857,-0.08238l0.00498,-0.06883l0.00802,-0.06911l0.00802,-0.06082l0.00746,-0.04534l0.02294,-0.13103l0.0047,-0.02239l0.00276,-0.01493l0.01493,-0.06248l0.0235,-0.09758l0.00719,-0.0235l0.01161,-0.04257l0.02681,-0.08708l0.02488,-0.06911l0.02737,-0.07741l0.03096,-0.07491l0.0199,-0.04644l0.00774,-0.01852l0.01852,-0.03759l0.04727,-0.09537l0.02654,-0.04727l0.04506,-0.07989l0.06966,-0.10836l0.00663,-0.01023l0.00138,-0.00221l0.00221,-0.00304l0.0821,-0.11141l0.06828,-0.0821l0.02211,-0.02626l0.02626,-0.0282l0.06994,-0.07436l0.07436,-0.06994l0.02792,-0.02626l0.02654,-0.02212l0.08183,-0.06828l0.1114,-0.0821l0.00304,-0.00221l0.00221,-0.00138l0.01051,-0.00664l0.10836,-0.06966l0.07989,-0.04506l0.04699,-0.02654l0.09537,-0.04699l0.03787,-0.01852l0.01852,-0.00802l0.04616,-0.0199l0.07519,-0.03096l0.0774,-0.02736l0.06911,-0.02488l0.08708,-0.02654l0.04229,-0.01189l0.02377,-0.00691l0.09758,-0.02377l0.06248,-0.01493l0.01493,-0.00276l0.02239,-0.0047l0.13103,-0.02294l0.04534,-0.00746l0.06054,-0.00802l0.06939,-0.00802l0.06883,-0.0047l0.0821,-0.00884l0.03234,-0.00194l0.08404,-0.00442l0.09095,-0.00221h0.01686l0.09095,0.00331l0.08929,-0.00166l0.02101,0.00111l0.08846,0.00387l0.07906,0.00525l0.04451,0.00387l0.07491,0.00968l0.0622,0.00331l0.03732,0.00442l0.0481,0.00636l0.05114,0.00636l0.04064,0.0047l0.02184,0.00332l0.03704,0.00636l0.02709,0.00359l0.05418,0.00912l0.01797,0.00332l0.01272,0.00194l0.07077,0.01272l0.01576,0.00304l0.07961,0.01659l0.01991,0.0047l0.02986,0.00581l0.03262,0.00664l0.03677,0.00995l0.04395,0.00857l0.01521,0.00387l0.04008,0.00995l0.0246,0.00581l0.06801,0.01742l0.00691,0.00194l0.00415,0.00083l0.01631,0.00415l0.07878,0.02322l0.03096,0.00774l0.0293,0.00829l0.03926,0.01327l0.03732,0.0094l0.03566,0.01106l0.02626,0.00912l0.0141,0.00332l0.03566,0.01106l0.0094,0.00304l0.03013,0.00995l0.00995,0.00359l0.02073,0.00691l0.04368,0.01437l0.03511,0.01465l0.0387,0.01106l0.03428,0.01244l0.02626,0.01051l0.01271,0.00304l0.03538,0.01272l0.00166,0.00055l0.03538,0.01382l0.0141,0.00553l0.03234,0.01216l0.02571,0.0094l0.04147,0.01963l0.02958,0.00857l0.06634,0.02626l0.00332,0.00138l0.00581,0.00193l0.04395,0.01963l0.02156,0.00857l0.0282,0.01189l0.02543,0.00968l0.01659,0.00774l0.00746,0.00387l0.02129,0.00968l0.02847,0.01437l0.01133,0.00249l0.03124,0.01161l0.03732,0.01935l0.01935,0.00968l0.01548,0.00525l0.03428,0.01521v0.00028l0.03345,0.01603l0.01631,0.01023l0.01742,0.00553l0.02737,0.01299l0.0047,0.00249l0.00746,0.00221l0.02764,0.01493l0.01465,0.01272l0.04589,0.01852l0.00387,0.00138l0.00194,0.00028l0.01437,0.00194l0.01465,0.0188l-0.00304,0.0094l-0.01189,0.00553l-0.01603,-0.01106l-0.00636,0.02681l-0.03041,0.01299l-0.01299,0.00249l-0.01935,0.01493l-0.02267,0.01189l-0.00774,0.00332l-0.00194,0.00221l-0.00304,0.00194l-0.04451,0.02018l-0.01769,0.01189l-0.03207,0.01769l-0.04976,0.02488l-0.04064,0.02488l-0.00608,0.00276l-0.01189,0.00608l-0.04064,0.02184l-0.01161,0.00719l-0.01852,0.01161l-0.01963,0.00995l-0.02543,0.01437l-0.02405,0.01078l-0.0387,0.02571l-0.05474,0.03262l-0.00608,0.00331l-0.00138,0.00111l-0.00221,0.00166l-0.06026,0.03538l-0.03538,0.0188l-0.02654,0.01852l-0.04091,0.02654l-0.02046,0.01161l-0.01161,0.00608l-0.05059,0.03096l-0.0716,0.05059l-0.04893,0.02737l-0.02737,0.01465l-0.09178,0.06496l-0.00774,0.00498l-0.0387,0.02626l-0.06054,0.04091l-0.01161,0.00829l-0.01437,0.01133l-0.10283,0.06994l-0.03925,0.0293l-0.03069,0.02101l-0.04561,0.03262l-0.05363,0.04008l-0.00719,0.00581l-0.05363,0.0387l-0.0387,0.02903l-0.04008,0.03151l-0.034,0.02516l-0.09426,0.07436l-0.01741,0.01271l-0.01272,0.00968l-0.09565,0.07685l-0.00221,0.00166l-0.01741,0.01437l-0.08348,0.06718l-0.00857,0.00746l-0.00968,0.00857l-0.09869,0.08183l-0.08183,0.06911l-0.02516,0.02267l-0.02764,0.02516l-0.07823,0.06773l-0.06773,0.05999l-0.03677,0.034l-0.03953,0.03704l-0.06386,0.05833l-0.05833,0.05446l-0.04395,0.04202l-0.04534,0.04395l-0.05584,0.05363l-0.05363,0.0528l-0.04616,0.04589l-0.04589,0.04616l-0.0528,0.05391l-0.05391,0.05584l-0.04396,0.04506l-0.04174,0.04395l-0.05446,0.05833l-0.05833,0.06413l-0.03704,0.03926l-0.034,0.03704l-0.05999,0.06773l-0.06773,0.07796l-0.02516,0.02764l-0.02267,0.02516l-0.06911,0.0821l-0.08183,0.09841l-0.00857,0.00968l-0.00746,0.00857l-0.06745,0.08348l-0.0141,0.01742l-0.00166,0.00221l-0.07685,0.09565l-0.00995,0.01272l-0.01272,0.01686l-0.05501,0.06966l-0.01935,0.02516l-0.02488,0.034l-0.03151,0.04036l-0.0293,0.03843l-0.03843,0.05363l-0.00581,0.00719l-0.04008,0.05363l-0.03649,0.04561l-0.04644,0.06994l-0.02101,0.02958l-0.04893,0.0727l-0.01161,0.01521l-0.00829,0.01133l-0.03179,0.04782l-0.00774,0.01161l-0.02764,0.04008l-0.0047,0.00774l-0.00774,0.01244l-0.05446,0.07906l-0.01686,0.02792l-0.02792,0.04478l-0.01078,0.01576"/></g></g><g stroke-miterlimit="10"><path d="M220.15347,168.27007c0,0 0.1791,-0.88271 0.97617,-1.03434c0.21978,-0.04181 1.0349,-0.08019 1.23694,0.85972c0.12373,0.57561 0.00109,0.9091 -0.19867,1.10134c-0.32641,0.31411 -0.85874,0.25112 -0.85874,0.25112c0,0 1.42279,0.10914 0.96168,1.5784c-0.32548,1.03711 -1.54712,0.93467 -2.00335,0.68232c-0.35566,-0.19672 -0.46992,-0.708 -0.46992,-0.708" fill="none" stroke="url(#color-1)" stroke-width="1" stroke-linecap="round"/><path d="M217.02855,171.52131c0,0 -1.27861,-6.29951 -1.60158,-7.99799c-0.0895,-0.47072 -0.19082,-0.81836 -0.37801,-1.0172c-0.43252,-0.45945 -1.02623,-0.4048 -1.02623,-0.4048l0.0519,-0.28323l3.91984,-0.00543l-0.07772,0.31261c0,0 -0.896,-0.1066 -1.19599,0.46286c-0.26446,0.50199 0.01521,1.87179 0.28699,3.28129c0.18844,0.97725 0.6722,3.79787 0.6722,3.79787c0,0 2.89,-4.52641 4.12308,-6.60144c0.21547,-0.36258 0.04156,-0.63703 -0.21903,-0.7899c-0.32771,-0.19223 -0.79251,-0.17704 -0.79251,-0.17704l0.10566,-0.29891l3.1475,0.00052l-0.07034,0.29018c0,0 -1.00554,0.14635 -1.62876,0.96583c-1.15733,1.52178 -5.317,8.46478 -5.317,8.46478z" fill="url(#color-2)" stroke="none" stroke-width="0" stroke-linecap="butt"/></g></g></g></g></svg>