<svg version="1.1" xmlns="http://www.w3.org/2000/svg" xmlns:xlink="http://www.w3.org/1999/xlink" width="480" height="153.25894" viewBox="0,0,480,153.25894"><g transform="translate(0.0015,-206.74113)"><g data-paper-data="{&quot;isPaintingLayer&quot;:true}" fill-rule="nonzero" stroke-linejoin="miter" stroke-miterlimit="10" stroke-dasharray="" stroke-dashoffset="0" style="mix-blend-mode: normal"><path d="M-0.0015,360.00008v-153.25894h480v153.25894z" fill-opacity="0.72157" fill="#f5efcb" stroke="none" stroke-width="0" stroke-linecap="butt"/><path d="" fill-opacity="0.91765" fill="#fff6d1" stroke="none" stroke-width="1" stroke-linecap="butt"/><path d="" fill-opacity="0.91765" fill="#fff6d1" stroke="none" stroke-width="1" stroke-linecap="butt"/><path d="" fill-opacity="0.91765" fill="#fff6d1" stroke="none" stroke-width="1" stroke-linecap="butt"/><path d="" fill-opacity="0.91765" fill="#fff6d1" stroke="none" stroke-width="1" stroke-linecap="butt"/><path d="" fill-opacity="0.91765" fill="#fff6d1" stroke="none" stroke-width="1" stroke-linecap="butt"/><path d="" fill-opacity="0.91765" fill="#fff6d1" stroke="none" stroke-width="1" stroke-linecap="butt"/><path d="" fill-opacity="0.91765" fill="#fff6d1" stroke="none" stroke-width="1" stroke-linecap="butt"/><g fill="#2197ff" stroke="none"><path d="M17.58704,212.4742l3.30635,3.22244l-1.42848,0.02499l0.03614,6.91935l-3.68011,0.03975l0.05217,-7.00349l-1.44312,-0.00691l2.83047,-2.8655z" stroke-width="0" stroke-linecap="round"/><path d="M13.40694,214.41918c-0.48894,-0.40965 -1.12323,-0.84574 -2.23327,-0.84574c-1.21574,0 -1.92933,0.79288 -1.92933,1.57253c0,0.58145 0.37001,0.96467 0.46251,1.04396c0.39644,0.34358 0.60787,0.39644 1.37432,0.58145c1.21575,0.30394 1.65183,0.42287 2.2729,1.08361c0.29072,0.31716 0.70037,0.95144 0.70037,1.8104c0,1.45362 -1.21574,2.7883 -2.96006,2.7883c-0.83252,0 -1.88969,-0.18501 -3.05257,-0.91181l0.19821,-1.07039c1.11003,0.93824 2.29935,1.07039 2.84114,1.07039c1.20253,0 1.92934,-0.87216 1.92934,-1.74434c0,-0.56823 -0.29072,-1.00431 -0.55501,-1.22896c-0.37002,-0.33037 -0.50216,-0.37001 -1.6254,-0.64753c-0.77966,-0.18499 -1.36112,-0.34358 -1.91613,-0.93823c-0.52858,-0.55501 -0.71359,-1.11004 -0.71359,-1.67827c0,-1.30824 1.14967,-2.60329 2.98649,-2.60329c0.96467,0 1.69147,0.22466 2.41828,0.66075z" stroke-width="1" stroke-linecap="butt"/></g><g stroke-linecap="butt"><path d="M91.55746,263.0272c-6.7336,0 -28.27729,0 -32.63067,0c-1.51414,0 -2.51026,-0.95831 -2.51026,-2.4908c0,-5.38467 0,-17.85811 0,-20.75669c0,-1.17748 0.83864,-2.32476 2.27173,-2.32476c4.30441,0 26.35938,0 32.92602,0c1.18062,0 2.16929,0.87327 2.16929,1.82658c0,2.7465 0,16.26468 0,21.58696c0,1.33855 -0.9369,2.1587 -2.22611,2.1587z" data-paper-data="{&quot;index&quot;:null}" fill-opacity="0.91765" fill="#fff6d1" stroke="#d0d0d0" stroke-width="0.5"/><path d="M131.55746,263.0272c-6.7336,0 -28.27729,0 -32.63067,0c-1.51414,0 -2.51026,-0.95831 -2.51026,-2.4908c0,-5.38467 0,-17.85811 0,-20.75669c0,-1.17748 0.83864,-2.32476 2.27173,-2.32476c4.30441,0 26.35938,0 32.92602,0c1.18062,0 2.16929,0.87327 2.16929,1.82658c0,2.7465 0,16.26468 0,21.58696c0,1.33855 -0.9369,2.1587 -2.22611,2.1587z" data-paper-data="{&quot;index&quot;:null}" fill-opacity="0.91765" fill="#fff6d1" stroke="#d0d0d0" stroke-width="0.5"/><path d="M171.55746,263.0272c-6.7336,0 -28.27729,0 -32.63067,0c-1.51414,0 -2.51026,-0.95831 -2.51026,-2.4908c0,-5.38467 0,-17.85811 0,-20.75669c0,-1.17748 0.83864,-2.32476 2.27173,-2.32476c4.30441,0 26.35938,0 32.92602,0c1.18062,0 2.16929,0.87327 2.16929,1.82658c0,2.7465 0,16.26468 0,21.58696c0,1.33855 -0.9369,2.1587 -2.22611,2.1587z" data-paper-data="{&quot;index&quot;:null}" fill-opacity="0.91765" fill="#fff6d1" stroke="#d0d0d0" stroke-width="0.5"/><path d="M91.55746,293.0272c-6.7336,0 -28.27729,0 -32.63067,0c-1.51414,0 -2.51026,-0.95831 -2.51026,-2.4908c0,-5.38467 0,-17.85811 0,-20.75669c0,-1.17748 0.83864,-2.32476 2.27173,-2.32476c4.30441,0 26.35938,0 32.92602,0c1.18062,0 2.16929,0.87327 2.16929,1.82658c0,2.7465 0,16.26468 0,21.58696c0,1.33855 -0.9369,2.1587 -2.22611,2.1587z" data-paper-data="{&quot;index&quot;:null}" fill-opacity="0.91765" fill="#fff6d1" stroke="#d0d0d0" stroke-width="0.5"/><path d="M131.55746,293.0272c-6.7336,0 -28.27729,0 -32.63067,0c-1.51414,0 -2.51026,-0.95831 -2.51026,-2.4908c0,-5.38467 0,-17.85811 0,-20.75669c0,-1.17748 0.83864,-2.32476 2.27173,-2.32476c4.30441,0 26.35938,0 32.92602,0c1.18062,0 2.16929,0.87327 2.16929,1.82658c0,2.7465 0,16.26468 0,21.58696c0,1.33855 -0.9369,2.1587 -2.22611,2.1587z" data-paper-data="{&quot;index&quot;:null}" fill-opacity="0.91765" fill="#fff6d1" stroke="#d0d0d0" stroke-width="0.5"/><path d="M171.55746,293.0272c-6.7336,0 -28.27729,0 -32.63067,0c-1.51414,0 -2.51026,-0.95831 -2.51026,-2.4908c0,-5.38467 0,-17.85811 0,-20.75669c0,-1.17748 0.83864,-2.32476 2.27173,-2.32476c4.30441,0 26.35938,0 32.92602,0c1.18062,0 2.16929,0.87327 2.16929,1.82658c0,2.7465 0,16.26468 0,21.58696c0,1.33855 -0.9369,2.1587 -2.22611,2.1587z" data-paper-data="{&quot;index&quot;:null}" fill-opacity="0.91765" fill="#fff6d1" stroke="#d0d0d0" stroke-width="0.5"/><path d="M91.55746,323.0272c-6.7336,0 -28.27729,0 -32.63067,0c-1.51414,0 -2.51026,-0.95831 -2.51026,-2.4908c0,-5.38467 0,-17.85811 0,-20.75669c0,-1.17748 0.83864,-2.32476 2.27173,-2.32476c4.30441,0 26.35938,0 32.92602,0c1.18062,0 2.16929,0.87327 2.16929,1.82658c0,2.7465 0,16.26468 0,21.58696c0,1.33855 -0.9369,2.1587 -2.22611,2.1587z" data-paper-data="{&quot;index&quot;:null}" fill-opacity="0.91765" fill="#fff6d1" stroke="#d0d0d0" stroke-width="0.5"/><path d="M131.55746,323.0272c-6.7336,0 -28.27729,0 -32.63067,0c-1.51414,0 -2.51026,-0.95831 -2.51026,-2.4908c0,-5.38467 0,-17.85811 0,-20.75669c0,-1.17748 0.83864,-2.32476 2.27173,-2.32476c4.30441,0 26.35938,0 32.92602,0c1.18062,0 2.16929,0.87327 2.16929,1.82658c0,2.7465 0,16.26468 0,21.58696c0,1.33855 -0.9369,2.1587 -2.22611,2.1587z" data-paper-data="{&quot;index&quot;:null}" fill-opacity="0.91765" fill="#fff6d1" stroke="#d0d0d0" stroke-width="0.5"/><path d="M171.55746,323.0272c-6.7336,0 -28.27729,0 -32.63067,0c-1.51414,0 -2.51026,-0.95831 -2.51026,-2.4908c0,-5.38467 0,-17.85811 0,-20.75669c0,-1.17748 0.83864,-2.32476 2.27173,-2.32476c4.30441,0 26.35938,0 32.92602,0c1.18062,0 2.16929,0.87327 2.16929,1.82658c0,2.7465 0,16.26468 0,21.58696c0,1.33855 -0.9369,2.1587 -2.22611,2.1587z" data-paper-data="{&quot;index&quot;:null}" fill-opacity="0.91765" fill="#fff6d1" stroke="#d0d0d0" stroke-width="0.5"/><path d="M91.55746,353.02733c-6.7336,0 -28.27729,0 -32.63067,0c-1.51414,0 -2.51026,-0.95831 -2.51026,-2.4908c0,-5.38467 0,-17.85811 0,-20.75669c0,-1.17748 0.83864,-2.32476 2.27173,-2.32476c4.30441,0 26.35938,0 32.92602,0c1.18062,0 2.16929,0.87327 2.16929,1.82658c0,2.7465 0,16.26468 0,21.58696c0,1.33855 -0.9369,2.1587 -2.22611,2.1587z" data-paper-data="{&quot;index&quot;:null}" fill-opacity="0.91765" fill="#fff6d1" stroke="#d0d0d0" stroke-width="0.5"/><path d="M131.55746,353.02733c-6.7336,0 -28.27729,0 -32.63067,0c-1.51414,0 -2.51026,-0.95831 -2.51026,-2.4908c0,-5.38467 0,-17.85811 0,-20.75669c0,-1.17748 0.83864,-2.32476 2.27173,-2.32476c4.30441,0 26.35938,0 32.92602,0c1.18062,0 2.16929,0.87327 2.16929,1.82658c0,2.7465 0,16.26468 0,21.58696c0,1.33855 -0.9369,2.1587 -2.22611,2.1587z" data-paper-data="{&quot;index&quot;:null}" fill-opacity="0.91765" fill="#fff6d1" stroke="#d0d0d0" stroke-width="0.5"/><path d="M171.55746,353.02733c-6.7336,0 -28.27729,0 -32.63067,0c-1.51414,0 -2.51026,-0.95831 -2.51026,-2.4908c0,-5.38467 0,-17.85811 0,-20.75669c0,-1.17748 0.83864,-2.32476 2.27173,-2.32476c4.30441,0 26.35938,0 32.92602,0c1.18062,0 2.16929,0.87327 2.16929,1.82658c0,2.7465 0,16.26468 0,21.58696c0,1.33855 -0.9369,2.1587 -2.22611,2.1587z" data-paper-data="{&quot;index&quot;:null}" fill-opacity="0.91765" fill="#fff6d1" stroke="#d0d0d0" stroke-width="0.5"/><g fill="#000000" stroke="none" stroke-width="1"><path d="M63.13013,310.38428c0,0.22074 0,0.28206 -0.1349,0.28206c-0.03678,0 -0.12262,0 -0.13489,-0.09811c-0.02453,-0.38016 -0.09811,-1.52061 -1.43477,-1.52061c-1.10367,0 -1.36119,0.56409 -1.36119,0.94425c0,0.73578 0.8952,0.90745 1.26309,0.98104c0.80935,0.14716 1.14046,0.22073 1.58192,0.60089c0.11037,0.11037 0.51505,0.50279 0.51505,1.16498c0,0.96877 -0.63767,1.68003 -1.92529,1.68003c-0.20848,0 -0.87067,0 -1.33667,-0.57636c-0.18395,0.19621 -0.18394,0.22074 -0.24526,0.30657c-0.20848,0.25752 -0.22074,0.26979 -0.28205,0.26979c-0.12263,0 -0.12262,-0.06131 -0.12262,-0.28204v-1.66775c0,-0.22073 0,-0.28206 0.13489,-0.28206c0.03678,0 0.08584,0 0.11036,0.04906c0.01226,0.01226 0.01226,0.02453 0.06131,0.24526c0.26979,1.2263 0.85841,1.69229 1.66776,1.69229c1.07914,0 1.38572,-0.58862 1.38572,-1.11593c0,-0.34336 -0.15942,-0.61314 -0.38015,-0.79709c-0.30657,-0.24526 -0.466,-0.28204 -1.14046,-0.41694c-0.56409,-0.11036 -0.98104,-0.19621 -1.37345,-0.53957c-0.46599,-0.42921 -0.46599,-0.85841 -0.46599,-0.9933c0,-0.67446 0.44147,-1.48382 1.92529,-1.48382c0.39242,0 0.77257,0.07357 1.15272,0.38015c0.08584,-0.11037 0.31884,-0.38015 0.41694,-0.38015c0.12262,0 0.12262,0.06131 0.12262,0.28204z"/><path d="M65.35919,307.33083c-0.29431,0 -0.58862,-0.23299 -0.58862,-0.60089c0,-0.33111 0.26979,-0.58862 0.58862,-0.58862c0.34337,0 0.6009,0.28204 0.6009,0.60089c0,0.26979 -0.22074,0.58862 -0.6009,0.58862zM65.93555,308.88822v4.51277c0,0.47825 0.04905,0.53957 0.84614,0.53957v0.35563c-0.41694,-0.02453 -1.1282,-0.02453 -1.26309,-0.02453c-0.35563,0 -0.94425,0 -1.28762,0.02453v-0.35563c0.7971,0 0.93199,0.00001 0.93199,-0.55183v-3.33553c0,-0.6009 -0.11037,-0.67446 -0.8952,-0.67446v-0.35563z"/><path d="M72.60592,313.57268c0.01226,0.36789 0.31884,0.36788 0.93199,0.36788v0.35563c-0.31884,-0.02453 -0.98104,-0.02453 -1.33667,-0.02453c-0.34336,0 -1.00556,0 -1.3244,0.02453v-0.35563c0.7971,0 0.93199,0.00001 0.93199,-0.55183v-2.88179c0,-0.74804 -0.17168,-1.37346 -0.93199,-1.37346c-0.76031,0 -1.60645,0.68673 -1.60645,1.97433v2.28092c0,0.55184 0.14716,0.55183 0.93199,0.55183v0.35563c-0.31884,-0.02453 -0.98104,-0.02453 -1.33666,-0.02453c-0.34337,0 -1.00556,0 -1.3244,0.02453v-0.35563c0.79709,0 0.93199,0.00001 0.93199,-0.55183v-3.32326c0,-0.60089 -0.09811,-0.68672 -0.93199,-0.68672v-0.35563l1.66776,-0.13489v1.26309h0.01226c0.09811,-0.24526 0.56409,-1.26309 1.7536,-1.26309c0.41694,0 0.9933,0.07357 1.34893,0.55184c0.28206,0.3924 0.28206,0.73578 0.28206,1.87623z"/><path d="M79.25191,313.57268c0.01226,0.36789 0.31884,0.36788 0.93199,0.36788v0.35563c-0.31884,-0.02453 -0.98104,-0.02453 -1.33667,-0.02453c-0.34336,0 -1.00556,0 -1.3244,0.02453v-0.35563c0.7971,0 0.93199,0.00001 0.93199,-0.55183v-2.88179c0,-0.74804 -0.17168,-1.37346 -0.93199,-1.37346c-0.76031,0 -1.60645,0.68673 -1.60645,1.97433v2.28092c0,0.55184 0.14716,0.55183 0.93199,0.55183v0.35563c-0.31884,-0.02453 -0.98104,-0.02453 -1.33666,-0.02453c-0.34337,0 -1.00556,0 -1.3244,0.02453v-0.35563c0.79709,0 0.93199,0.00001 0.93199,-0.55183v-6.4258c0,-0.60089 -0.09811,-0.68672 -0.93199,-0.68672v-0.35563l1.70456,-0.1349v4.27978h0.01226c0.17167,-0.38016 0.6622,-1.17724 1.71681,-1.17724c0.41694,0 0.9933,0.07357 1.34893,0.55184c0.28206,0.3924 0.28206,0.73578 0.28206,1.87623z"/><path d="M81.52525,307.10965c-0.14476,0 -0.29806,0 -0.29806,-0.17032c0,-0.17032 0.15329,-0.17031 0.29806,-0.17031h4.60714c0.14476,0 0.29806,-0.00001 0.29806,0.17031c0,0.17032 -0.15329,0.17032 -0.29806,0.17032z"/><path d="M89.62305,308.39563c0,0.31509 0.02554,0.40876 0.79198,0.40876h0.27252v0.26399c-0.29807,-0.02555 -1.03895,-0.02555 -1.37959,-0.02555c-0.34064,0 -1.08153,0 -1.37959,0.02555v-0.26399h0.27251c0.76643,0 0.79198,-0.10219 0.79198,-0.40876v-4.41126c-0.44283,0.22142 -0.94527,0.22142 -1.11559,0.22142v-0.26399c0.27251,0 1.02192,0 1.54991,-0.54502c0.19587,0 0.19587,0.01703 0.19587,0.22141z"/></g><g fill="#000000" stroke="none" stroke-width="1"><path d="M101.44472,309.09668c-0.61314,0 -1.6555,0.50279 -1.6555,2.53844c0,1.86397 0.9933,2.5139 1.74134,2.5139c0.6622,0 1.3244,-0.36789 1.59419,-1.23856c0.03679,-0.14715 0.04906,-0.18394 0.15942,-0.18394c0.03679,0 0.12263,-0.00001 0.12263,0.11036c0,0.11037 -0.36789,1.58192 -1.98661,1.58192c-1.38572,0 -2.56296,-1.20177 -2.56296,-2.77143c0,-1.54514 1.14045,-2.82048 2.57523,-2.82048c0.9933,0 1.85171,0.58861 1.85171,1.41024c0,0.35563 -0.23299,0.52731 -0.51505,0.52731c-0.29431,0 -0.50277,-0.20848 -0.50277,-0.50279c0,-0.50278 0.45373,-0.50278 0.60089,-0.50278c-0.28204,-0.47825 -0.95651,-0.6622 -1.4225,-0.6622z"/><path d="M106.73698,314.41878c-1.39798,0 -2.62428,-1.17724 -2.62428,-2.74691c0,-1.54514 1.16498,-2.845 2.63654,-2.845c1.4225,0 2.62428,1.26308 2.62428,2.845c0,1.54514 -1.18951,2.74691 -2.63653,2.74691zM108.12271,313.32741c0.31884,-0.57636 0.31884,-1.33665 0.31884,-1.76587c0,-0.45373 0,-1.2263 -0.38015,-1.7904c-0.33111,-0.47825 -0.84616,-0.69898 -1.3244,-0.69898c-0.42921,0 -0.96878,0.19621 -1.31214,0.72352c-0.38015,0.55182 -0.38015,1.29987 -0.38015,1.76587c0,0.51505 0.01226,1.23855 0.34336,1.79039c0.35563,0.60089 0.90746,0.79709 1.36119,0.79709c0.46599,0 1.03009,-0.23299 1.37346,-0.82162z"/><path d="M113.74891,310.38428c0,0.22074 0,0.28206 -0.1349,0.28206c-0.03678,0 -0.12262,0 -0.13489,-0.09811c-0.02453,-0.38016 -0.09811,-1.52061 -1.43477,-1.52061c-1.10367,0 -1.36119,0.56409 -1.36119,0.94425c0,0.73578 0.8952,0.90745 1.26309,0.98104c0.80936,0.14716 1.14046,0.22073 1.58192,0.60089c0.11037,0.11037 0.51505,0.50279 0.51505,1.16498c0,0.96877 -0.63767,1.68003 -1.92529,1.68003c-0.20848,0 -0.87067,0 -1.33667,-0.57636c-0.18395,0.19621 -0.18395,0.22074 -0.24526,0.30657c-0.20848,0.25752 -0.22073,0.26979 -0.28204,0.26979c-0.12262,0 -0.12263,-0.06131 -0.12263,-0.28204v-1.66775c0,-0.22073 0,-0.28206 0.1349,-0.28206c0.03679,0 0.08584,0 0.11036,0.04906c0.01226,0.01226 0.01226,0.02453 0.06131,0.24526c0.26979,1.2263 0.85841,1.69229 1.66777,1.69229c1.07915,0 1.38572,-0.58862 1.38572,-1.11593c0,-0.34336 -0.15942,-0.61314 -0.38016,-0.79709c-0.30657,-0.24526 -0.46599,-0.28204 -1.14045,-0.41694c-0.56409,-0.11036 -0.98104,-0.19621 -1.37346,-0.53957c-0.46599,-0.42921 -0.46599,-0.85841 -0.46599,-0.9933c0,-0.67446 0.44147,-1.48382 1.92529,-1.48382c0.39242,0 0.77257,0.07357 1.15272,0.38015c0.08584,-0.11037 0.31884,-0.38015 0.41694,-0.38015c0.12262,0 0.12262,0.06131 0.12262,0.28204z"/><path d="M119.90212,313.57268c0.01226,0.36789 0.31884,0.36788 0.93199,0.36788v0.35563c-0.31884,-0.02453 -0.98104,-0.02453 -1.33667,-0.02453c-0.34336,0 -1.00556,0 -1.3244,0.02453v-0.35563c0.7971,0 0.93199,0.00001 0.93199,-0.55183v-2.88179c0,-0.74804 -0.17168,-1.37346 -0.93199,-1.37346c-0.76031,0 -1.60645,0.68673 -1.60645,1.97433v2.28092c0,0.55184 0.14716,0.55183 0.93199,0.55183v0.35563c-0.31884,-0.02453 -0.98104,-0.02453 -1.33666,-0.02453c-0.34337,0 -1.00557,0 -1.32441,0.02453v-0.35563c0.79709,0 0.93199,0.00001 0.93199,-0.55183v-6.4258c0,-0.60089 -0.09811,-0.68672 -0.93199,-0.68672v-0.35563l1.70456,-0.1349v4.27978h0.01226c0.17167,-0.38016 0.6622,-1.17724 1.71681,-1.17724c0.41694,0 0.99329,0.07357 1.34892,0.55184c0.28206,0.3924 0.28206,0.73578 0.28206,1.87623z"/><path d="M122.18059,307.10965c-0.14476,0 -0.29805,0 -0.29805,-0.17032c0,-0.17032 0.15329,-0.17031 0.29805,-0.17031h4.60714c0.14476,0 0.29805,-0.00001 0.29805,0.17031c0,0.17032 -0.15329,0.17032 -0.29805,0.17032z"/><path d="M130.27837,308.39563c0,0.31509 0.02554,0.40876 0.79198,0.40876h0.27251v0.26399c-0.29807,-0.02555 -1.03895,-0.02555 -1.37959,-0.02555c-0.34065,0 -1.08153,0 -1.37959,0.02555v-0.26399h0.27252c0.76643,0 0.79198,-0.10219 0.79198,-0.40876v-4.41126c-0.44283,0.22142 -0.94527,0.22142 -1.11559,0.22142v-0.26399c0.27251,0 1.02192,0 1.54991,-0.54502c0.19587,0 0.19587,0.01703 0.19587,0.22141z"/></g><g fill="#000000" stroke="none" stroke-width="1"><path d="M139.95904,312.80012c0,0.20848 0,1.34893 0.83388,1.34893c0.47825,0 0.83388,-0.51505 0.83388,-1.39798v-0.67446h0.26979v0.69898c0,0.88294 -0.40468,1.64324 -1.17724,1.64324c-0.64994,0 -1.5574,-0.28204 -1.5574,-1.64324v-3.4091h-1.04236v-0.24526c1.11593,-0.03679 1.5574,-1.21404 1.56966,-2.36676h0.26979v2.25639h1.72908v0.35563h-1.72908z"/><path d="M147.28499,313.16796c0,0.18395 0,0.83387 0.466,0.83387c0.17167,0 0.46599,-0.09811 0.46599,-0.79709v-0.68673h0.26979v0.68673c0,0.98104 -0.71126,1.15272 -0.96878,1.15272c-0.52731,0 -0.90746,-0.44147 -0.95651,-1.01782c-0.23299,0.58862 -0.78483,1.07914 -1.5942,1.07914c-0.74804,0 -1.87624,-0.30657 -1.87624,-1.27535c0,-0.94425 0.93199,-1.97434 3.39685,-2.01114v-0.49052c0,-1.10366 -0.72352,-1.56966 -1.28761,-1.56966c-0.49052,0 -1.07914,0.22073 -1.36119,0.73578c0.18395,0 0.62542,0 0.62542,0.50279c0,0.29431 -0.20848,0.50277 -0.50279,0.50277c-0.28204,0 -0.51505,-0.17168 -0.51505,-0.52731c0,-0.79709 0.77257,-1.45929 1.77813,-1.45929c0.53957,0 1.0914,0.17167 1.52061,0.56409c0.53957,0.47825 0.53957,0.96877 0.53957,1.63098zM146.4879,311.35303c-0.44147,0.02453 -2.52618,0.17168 -2.52618,1.7904c0,0.58862 0.50279,1.03008 1.10367,1.03008c0.52731,0 1.4225,-0.40468 1.4225,-1.60645z"/><path d="M153.98948,313.57268c0.01226,0.36789 0.31884,0.36788 0.93199,0.36788v0.35563c-0.31884,-0.02453 -0.98104,-0.02453 -1.33667,-0.02453c-0.34336,0 -1.00556,0 -1.3244,0.02453v-0.35563c0.7971,0 0.93199,0.00001 0.93199,-0.55183v-2.88179c0,-0.74804 -0.17168,-1.37346 -0.93199,-1.37346c-0.76031,0 -1.60645,0.68673 -1.60645,1.97433v2.28092c0,0.55184 0.14716,0.55183 0.93199,0.55183v0.35563c-0.31884,-0.02453 -0.98104,-0.02453 -1.33666,-0.02453c-0.34337,0 -1.00556,0 -1.3244,0.02453v-0.35563c0.79709,0 0.93199,0.00001 0.93199,-0.55183v-3.32326c0,-0.60089 -0.09811,-0.68672 -0.93199,-0.68672v-0.35563l1.66776,-0.13489v1.26309h0.01226c0.09811,-0.24526 0.56409,-1.26309 1.7536,-1.26309c0.41694,0 0.9933,0.07357 1.34893,0.55184c0.28206,0.3924 0.28206,0.73578 0.28206,1.87623z"/><path d="M160.63547,313.57268c0.01226,0.36789 0.31884,0.36788 0.93199,0.36788v0.35563c-0.31884,-0.02453 -0.98104,-0.02453 -1.33667,-0.02453c-0.34336,0 -1.00556,0 -1.3244,0.02453v-0.35563c0.7971,0 0.93199,0.00001 0.93199,-0.55183v-2.88179c0,-0.74804 -0.17168,-1.37346 -0.93199,-1.37346c-0.76031,0 -1.60645,0.68673 -1.60645,1.97433v2.28092c0,0.55184 0.14716,0.55183 0.93199,0.55183v0.35563c-0.31884,-0.02453 -0.98104,-0.02453 -1.33666,-0.02453c-0.34337,0 -1.00556,0 -1.3244,0.02453v-0.35563c0.79709,0 0.93199,0.00001 0.93199,-0.55183v-6.4258c0,-0.60089 -0.09811,-0.68672 -0.93199,-0.68672v-0.35563l1.70456,-0.1349v4.27978h0.01226c0.17167,-0.38016 0.6622,-1.17724 1.71681,-1.17724c0.41694,0 0.9933,0.07357 1.34893,0.55184c0.28206,0.3924 0.28206,0.73578 0.28206,1.87623z"/><path d="M162.91907,307.10972c-0.14476,0 -0.29806,0 -0.29806,-0.17032c0,-0.17032 0.15329,-0.17031 0.29806,-0.17031h4.60714c0.14476,0 0.29805,-0.00001 0.29805,0.17031c0,0.17032 -0.15329,0.17032 -0.29805,0.17032z"/><path d="M171.016,308.39563c0,0.31509 0.02554,0.40876 0.79198,0.40876h0.27252v0.26399c-0.29807,-0.02555 -1.03895,-0.02555 -1.37959,-0.02555c-0.34065,0 -1.08153,0 -1.37959,0.02555v-0.26399h0.27252c0.76643,0 0.79197,-0.10219 0.79197,-0.40876v-4.41126c-0.44283,0.22142 -0.94527,0.22142 -1.11559,0.22142v-0.26399c0.27251,0 1.02192,0 1.54991,-0.54502c0.19587,0 0.19587,0.01703 0.19587,0.22141z"/></g><g fill="#000000" stroke="none" stroke-width="1"><path d="M61.47848,339.09676c-0.61314,0 -1.6555,0.50279 -1.6555,2.53844c0,1.86397 0.9933,2.5139 1.74134,2.5139c0.6622,0 1.32441,-0.36789 1.59419,-1.23856c0.03679,-0.14715 0.04906,-0.18394 0.15942,-0.18394c0.03679,0 0.12263,-0.00001 0.12263,0.11036c0,0.11037 -0.36789,1.58192 -1.98661,1.58192c-1.38572,0 -2.56296,-1.20177 -2.56296,-2.77143c0,-1.54514 1.14045,-2.82048 2.57523,-2.82048c0.9933,0 1.8517,0.58861 1.8517,1.41024c0,0.35563 -0.23299,0.52731 -0.51505,0.52731c-0.29432,0 -0.50277,-0.20848 -0.50277,-0.50279c0,-0.50278 0.45372,-0.50278 0.60089,-0.50278c-0.28204,-0.47825 -0.95651,-0.6622 -1.4225,-0.6622z"/><path d="M66.77075,344.41889c-1.39798,0 -2.62428,-1.17724 -2.62428,-2.74691c0,-1.54514 1.16497,-2.845 2.63654,-2.845c1.4225,0 2.62428,1.26308 2.62428,2.845c0,1.54514 -1.18951,2.74691 -2.63653,2.74691zM68.15646,343.32748c0.31884,-0.57636 0.31884,-1.33665 0.31884,-1.76587c0,-0.45373 0,-1.2263 -0.38016,-1.7904c-0.33111,-0.47825 -0.84615,-0.69898 -1.3244,-0.69898c-0.42921,0 -0.96877,0.19621 -1.31214,0.72352c-0.38015,0.55182 -0.38016,1.29987 -0.38016,1.76587c0,0.51505 0.01226,1.23855 0.34336,1.79039c0.35563,0.60089 0.90746,0.79709 1.36119,0.79709c0.46599,0 1.03009,-0.23299 1.37345,-0.82162z"/><path d="M71.81973,342.80018c0,0.20848 0,1.34893 0.83388,1.34893c0.47825,0 0.83387,-0.51505 0.83387,-1.39798v-0.67446h0.26979v0.69898c0,0.88294 -0.40468,1.64324 -1.17724,1.64324c-0.64994,0 -1.5574,-0.28204 -1.5574,-1.64324v-3.4091h-1.04236v-0.24526c1.11593,-0.03679 1.5574,-1.21404 1.56966,-2.36676h0.26979v2.25639h1.72908v0.35563h-1.72908z"/><path d="M79.86835,343.57274c0.01226,0.36789 0.31884,0.36788 0.93199,0.36788v0.35563c-0.31884,-0.02453 -0.98104,-0.02453 -1.33666,-0.02453c-0.34336,0 -1.00557,0 -1.32441,0.02453v-0.35563c0.79711,0 0.93199,0.00001 0.93199,-0.55183v-2.88179c0,-0.74804 -0.17169,-1.37346 -0.93199,-1.37346c-0.76031,0 -1.60645,0.68673 -1.60645,1.97433v2.28092c0,0.55184 0.14716,0.55183 0.93199,0.55183v0.35563c-0.31884,-0.02453 -0.98104,-0.02453 -1.33666,-0.02453c-0.34337,0 -1.00556,0 -1.3244,0.02453v-0.35563c0.79709,0 0.93199,0.00001 0.93199,-0.55183v-6.4258c0,-0.60089 -0.09811,-0.68672 -0.93199,-0.68672v-0.35563l1.70456,-0.1349v4.27978h0.01226c0.17167,-0.38016 0.6622,-1.17724 1.71681,-1.17724c0.41694,0 0.9933,0.07357 1.34893,0.55184c0.28206,0.3924 0.28206,0.73578 0.28206,1.87623z"/><path d="M82.14682,337.10979c-0.14476,0 -0.29805,0 -0.29805,-0.17032c0,-0.17032 0.15329,-0.17031 0.29805,-0.17031h4.60714c0.14476,0 0.29805,-0.00001 0.29805,0.17031c0,0.17032 -0.15329,0.17032 -0.29805,0.17032z"/><path d="M90.24461,338.39571c0,0.31509 0.02554,0.40876 0.79198,0.40876h0.27251v0.26399c-0.29807,-0.02555 -1.03895,-0.02555 -1.37959,-0.02555c-0.34064,0 -1.08153,0 -1.37959,0.02555v-0.26399h0.27251c0.76643,0 0.79198,-0.10219 0.79198,-0.40876v-4.41126c-0.44283,0.22142 -0.94527,0.22142 -1.11559,0.22142v-0.26399c0.27251,0 1.02192,0 1.54991,-0.54502c0.19587,0 0.19587,0.01703 0.19587,0.22141z"/></g><g fill="#000000" stroke="none" stroke-width="1"><path d="M101.9452,339.09676c-0.61314,0 -1.6555,0.50279 -1.6555,2.53844c0,1.86397 0.9933,2.5139 1.74134,2.5139c0.6622,0 1.32441,-0.36789 1.59419,-1.23856c0.03679,-0.14715 0.04906,-0.18394 0.15942,-0.18394c0.03679,0 0.12263,-0.00001 0.12263,0.11036c0,0.11037 -0.36789,1.58192 -1.98661,1.58192c-1.38572,0 -2.56297,-1.20177 -2.56297,-2.77143c0,-1.54514 1.14045,-2.82048 2.57523,-2.82048c0.9933,0 1.85171,0.58861 1.85171,1.41024c0,0.35563 -0.23299,0.52731 -0.51505,0.52731c-0.29431,0 -0.50277,-0.20848 -0.50277,-0.50279c0,-0.50278 0.45373,-0.50278 0.60089,-0.50278c-0.28204,-0.47825 -0.95651,-0.6622 -1.4225,-0.6622z"/><path d="M108.26757,340.38437c0,0.22074 0,0.28206 -0.1349,0.28206c-0.03678,0 -0.12262,0 -0.13489,-0.09811c-0.02453,-0.38016 -0.09811,-1.52061 -1.43477,-1.52061c-1.10367,0 -1.36119,0.56409 -1.36119,0.94425c0,0.73578 0.8952,0.90745 1.26309,0.98104c0.80936,0.14716 1.14046,0.22073 1.58192,0.60089c0.11037,0.11037 0.51505,0.50279 0.51505,1.16498c0,0.96877 -0.63767,1.68003 -1.92529,1.68003c-0.20848,0 -0.87067,0 -1.33667,-0.57636c-0.18395,0.19621 -0.18395,0.22074 -0.24526,0.30657c-0.20847,0.25752 -0.22074,0.26979 -0.28205,0.26979c-0.12262,0 -0.12262,-0.06131 -0.12262,-0.28204v-1.66775c0,-0.22073 -0.00001,-0.28206 0.13489,-0.28206c0.03678,0 0.08584,0 0.11037,0.04906c0.01226,0.01226 0.01226,0.02453 0.06131,0.24526c0.26979,1.2263 0.8584,1.69229 1.66776,1.69229c1.07915,0 1.38572,-0.58862 1.38572,-1.11593c0,-0.34336 -0.15942,-0.61314 -0.38016,-0.79709c-0.30657,-0.24526 -0.466,-0.28204 -1.14046,-0.41694c-0.56409,-0.11036 -0.98104,-0.19621 -1.37345,-0.53957c-0.466,-0.42921 -0.46599,-0.85841 -0.46599,-0.9933c0,-0.67446 0.44147,-1.48382 1.92529,-1.48382c0.39242,0 0.77257,0.07357 1.15272,0.38015c0.08584,-0.11037 0.31884,-0.38015 0.41694,-0.38015c0.12262,0 0.12262,0.06131 0.12262,0.28204z"/><path d="M111.98043,339.09676c-0.61314,0 -1.6555,0.50279 -1.6555,2.53844c0,1.86397 0.99329,2.5139 1.74134,2.5139c0.6622,0 1.32441,-0.36789 1.59419,-1.23856c0.03679,-0.14715 0.04906,-0.18394 0.15942,-0.18394c0.03679,0 0.12264,-0.00001 0.12264,0.11036c0,0.11037 -0.36789,1.58192 -1.98661,1.58192c-1.38572,0 -2.56296,-1.20177 -2.56296,-2.77143c0,-1.54514 1.14045,-2.82048 2.57523,-2.82048c0.9933,0 1.8517,0.58861 1.8517,1.41024c0,0.35563 -0.23299,0.52731 -0.51505,0.52731c-0.29431,0 -0.50278,-0.20848 -0.50278,-0.50279c0,-0.50278 0.45373,-0.50278 0.60089,-0.50278c-0.28204,-0.47825 -0.95651,-0.6622 -1.4225,-0.6622z"/><path d="M119.40421,343.57274c0.01226,0.36789 0.31884,0.36788 0.93199,0.36788v0.35563c-0.31884,-0.02453 -0.98104,-0.02453 -1.33667,-0.02453c-0.34336,0 -1.00556,0 -1.3244,0.02453v-0.35563c0.79711,0 0.93199,0.00001 0.93199,-0.55183v-2.88179c0,-0.74804 -0.17168,-1.37346 -0.93199,-1.37346c-0.76031,0 -1.60645,0.68673 -1.60645,1.97433v2.28092c0,0.55184 0.14716,0.55183 0.93199,0.55183v0.35563c-0.31884,-0.02453 -0.98104,-0.02453 -1.33665,-0.02453c-0.34337,0 -1.00557,0 -1.32441,0.02453v-0.35563c0.79709,0 0.93199,0.00001 0.93199,-0.55183v-6.4258c0,-0.60089 -0.09811,-0.68672 -0.93199,-0.68672v-0.35563l1.70456,-0.1349v4.27978h0.01226c0.17167,-0.38016 0.6622,-1.17724 1.71681,-1.17724c0.41694,0 0.9933,0.07357 1.34893,0.55184c0.28206,0.3924 0.28206,0.73578 0.28206,1.87623z"/><path d="M121.6801,337.10978c-0.14476,0 -0.29805,0 -0.29805,-0.17032c0,-0.17032 0.15329,-0.17031 0.29805,-0.17031h4.60714c0.14476,0 0.29805,-0.00001 0.29805,0.17031c0,0.17032 -0.15329,0.17032 -0.29805,0.17032z"/><path d="M129.7779,338.3957c0,0.31509 0.02554,0.40876 0.79198,0.40876h0.27251v0.26399c-0.29807,-0.02555 -1.03895,-0.02555 -1.37959,-0.02555c-0.34064,0 -1.08153,0 -1.37959,0.02555v-0.26399h0.27251c0.76643,0 0.79198,-0.10219 0.79198,-0.40876v-4.41126c-0.44283,0.22142 -0.94527,0.22142 -1.11559,0.22142v-0.26399c0.27251,0 1.02192,0 1.54991,-0.54502c0.19587,0 0.19587,0.01703 0.19587,0.22141z"/></g><g fill="#000000" stroke="none" stroke-width="1"><path d="M142.96302,340.38437c0,0.22074 0,0.28206 -0.1349,0.28206c-0.03678,0 -0.12262,0 -0.13489,-0.09811c-0.02453,-0.38016 -0.09811,-1.52061 -1.43477,-1.52061c-1.10367,0 -1.36119,0.56409 -1.36119,0.94425c0,0.73578 0.8952,0.90745 1.26309,0.98104c0.80936,0.14716 1.14046,0.22073 1.58192,0.60089c0.11037,0.11037 0.51505,0.50279 0.51505,1.16498c0,0.96877 -0.63767,1.68003 -1.92529,1.68003c-0.20848,0 -0.87067,0 -1.33667,-0.57636c-0.18395,0.19621 -0.18395,0.22074 -0.24526,0.30657c-0.20847,0.25752 -0.22074,0.26979 -0.28204,0.26979c-0.12262,0 -0.12262,-0.06131 -0.12262,-0.28204v-1.66775c0,-0.22073 0,-0.28206 0.1349,-0.28206c0.03678,0 0.08584,0 0.11036,0.04906c0.01226,0.01226 0.01226,0.02453 0.06131,0.24526c0.26979,1.2263 0.85841,1.69229 1.66776,1.69229c1.07915,0 1.38571,-0.58862 1.38571,-1.11593c0,-0.34336 -0.15942,-0.61314 -0.38016,-0.79709c-0.30657,-0.24526 -0.46599,-0.28204 -1.14045,-0.41694c-0.56409,-0.11036 -0.98104,-0.19621 -1.37346,-0.53957c-0.466,-0.42921 -0.46599,-0.85841 -0.46599,-0.9933c0,-0.67446 0.44147,-1.48382 1.92529,-1.48382c0.39242,0 0.77257,0.07357 1.15272,0.38015c0.08584,-0.11037 0.31884,-0.38015 0.41694,-0.38015c0.12262,0 0.12262,0.06131 0.12262,0.28204z"/><path d="M144.95909,341.45125v0.23299c0,2.1215 1.23856,2.46485 1.7536,2.46485c0.51505,0 1.33667,-0.28205 1.65551,-1.31214c0.02452,-0.06131 0.04905,-0.12262 0.14715,-0.12262c0.07358,0 0.13489,0.04906 0.13489,0.12262c0,0.25752 -0.55183,1.58192 -2.01112,1.58192c-1.36119,0 -2.61202,-1.1895 -2.61202,-2.80822c0,-1.52061 1.07914,-2.78369 2.47713,-2.78369c1.48383,0 2.14602,1.15272 2.14602,2.39127c0,0.23299 -0.02452,0.23299 -0.29431,0.23299zM147.88994,341.21824c-0.01226,-0.41694 -0.08584,-2.14602 -1.39799,-2.14602c-0.34336,0 -1.4225,0.22073 -1.52062,2.14602z"/><path d="M151.99269,339.09676c-0.61314,0 -1.6555,0.50279 -1.6555,2.53844c0,1.86397 0.9933,2.5139 1.74134,2.5139c0.6622,0 1.3244,-0.36789 1.59419,-1.23856c0.03679,-0.14715 0.04906,-0.18394 0.15942,-0.18394c0.03679,0 0.12263,-0.00001 0.12263,0.11036c0,0.11037 -0.36789,1.58192 -1.98661,1.58192c-1.38572,0 -2.56297,-1.20177 -2.56297,-2.77143c0,-1.54514 1.14045,-2.82048 2.57523,-2.82048c0.9933,0 1.85171,0.58861 1.85171,1.41024c0,0.35563 -0.23299,0.52731 -0.51505,0.52731c-0.29431,0 -0.50277,-0.20848 -0.50277,-0.50279c0,-0.50278 0.45373,-0.50278 0.60089,-0.50278c-0.28204,-0.47825 -0.95651,-0.6622 -1.4225,-0.6622z"/><path d="M159.41647,343.57274c0.01226,0.36789 0.31884,0.36788 0.93199,0.36788v0.35563c-0.31884,-0.02453 -0.98104,-0.02453 -1.33667,-0.02453c-0.34336,0 -1.00556,0 -1.3244,0.02453v-0.35563c0.79711,0 0.93199,0.00001 0.93199,-0.55183v-2.88179c0,-0.74804 -0.17169,-1.37346 -0.93199,-1.37346c-0.76031,0 -1.60645,0.68673 -1.60645,1.97433v2.28092c0,0.55184 0.14716,0.55183 0.93199,0.55183v0.35563c-0.31884,-0.02453 -0.98104,-0.02453 -1.33666,-0.02453c-0.34337,0 -1.00557,0 -1.32441,0.02453v-0.35563c0.79709,0 0.93199,0.00001 0.93199,-0.55183v-6.4258c0,-0.60089 -0.09811,-0.68672 -0.93199,-0.68672v-0.35563l1.70456,-0.1349v4.27978h0.01226c0.17167,-0.38016 0.66219,-1.17724 1.71681,-1.17724c0.41694,0 0.9933,0.07357 1.34893,0.55184c0.28206,0.3924 0.28206,0.73578 0.28206,1.87623z"/><path d="M161.69238,337.10978c-0.14476,0 -0.29806,0 -0.29806,-0.17032c0,-0.17032 0.15329,-0.17031 0.29806,-0.17031h4.60714c0.14476,0 0.29805,-0.00001 0.29805,0.17031c0,0.17032 -0.15329,0.17032 -0.29805,0.17032z"/><path d="M169.79016,338.3957c0,0.31509 0.02554,0.40876 0.79198,0.40876h0.27252v0.26399c-0.29807,-0.02555 -1.03895,-0.02555 -1.37959,-0.02555c-0.34064,0 -1.08153,0 -1.37959,0.02555v-0.26399h0.27252c0.76643,0 0.79197,-0.10219 0.79197,-0.40876v-4.41126c-0.44283,0.22142 -0.94527,0.22142 -1.11559,0.22142v-0.26399c0.27251,0 1.02192,0 1.54991,-0.54502c0.19587,0 0.19587,0.01703 0.19587,0.22141z"/></g><g fill="#000000" stroke="none" stroke-width="1"><path d="M67.70508,250.55162c0,0.24298 0,0.31048 -0.14849,0.31048c-0.04049,0 -0.13498,0 -0.14848,-0.10799c-0.027,-0.41846 -0.10799,-1.67382 -1.57933,-1.67382c-1.21487,0 -1.49834,0.62092 -1.49834,1.03939c0,0.80991 0.9854,0.99888 1.39035,1.07988c0.89091,0.16199 1.25537,0.24298 1.74131,0.66143c0.12149,0.12149 0.56694,0.55345 0.56694,1.28236c0,1.06639 -0.70192,1.8493 -2.11927,1.8493c-0.22948,0 -0.9584,0 -1.47135,-0.63443c-0.20248,0.21598 -0.20248,0.24298 -0.26997,0.33746c-0.22948,0.28347 -0.24298,0.29697 -0.31046,0.29697c-0.13498,0 -0.13498,-0.06749 -0.13498,-0.31046v-1.83579c0,-0.24298 0,-0.31048 0.14849,-0.31048c0.0405,0 0.09449,0 0.12148,0.054c0.0135,0.0135 0.0135,0.02699 0.06749,0.26997c0.29697,1.34986 0.9449,1.8628 1.8358,1.8628c1.18788,0 1.52534,-0.64793 1.52534,-1.22836c0,-0.37795 -0.17548,-0.67492 -0.41846,-0.8774c-0.33746,-0.26997 -0.51295,-0.31046 -1.25537,-0.45895c-0.62093,-0.12148 -1.07988,-0.21598 -1.51183,-0.59393c-0.51294,-0.47245 -0.51294,-0.9449 -0.51294,-1.09337c0,-0.74242 0.48595,-1.63332 2.11927,-1.63332c0.43196,0 0.85041,0.08099 1.26886,0.41846c0.09449,-0.12149 0.35096,-0.41846 0.45895,-0.41846c0.13498,0 0.13498,0.06749 0.13498,0.31046z"/><path d="M70.15872,247.19048c-0.32396,0 -0.64793,-0.25647 -0.64793,-0.66143c0,-0.36447 0.29696,-0.64793 0.64793,-0.64793c0.37797,0 0.66143,0.31046 0.66143,0.66143c0,0.29697 -0.24297,0.64793 -0.66143,0.64793zM70.79316,248.9048v4.96746c0,0.52644 0.05399,0.59393 0.93139,0.59393v0.39146c-0.45895,-0.027 -1.24186,-0.027 -1.39035,-0.027c-0.39146,0 -1.03939,0 -1.41735,0.027v-0.39146c0.87741,0 1.02589,0 1.02589,-0.60744v-3.6716c0,-0.66143 -0.12149,-0.74242 -0.9854,-0.74242v-0.39146z"/><path d="M78.1356,254.06123c0.01349,0.40496 0.35096,0.40496 1.02589,0.40496v0.39146c-0.35096,-0.027 -1.07989,-0.027 -1.47135,-0.027c-0.37795,0 -1.10688,0 -1.45784,0.027v-0.39146c0.87741,0 1.02589,0 1.02589,-0.60744v-3.17215c0,-0.82341 -0.18899,-1.51184 -1.02589,-1.51184c-0.83691,0 -1.76831,0.75592 -1.76831,2.17326v2.51073c0,0.60744 0.16199,0.60744 1.02589,0.60744v0.39146c-0.35096,-0.027 -1.07988,-0.027 -1.47134,-0.027c-0.37797,0 -1.10688,0 -1.45784,0.027v-0.39146c0.8774,0 1.02589,0 1.02589,-0.60744v-3.6581c0,-0.66143 -0.10799,-0.75591 -1.02589,-0.75591v-0.39146l1.8358,-0.14849v1.39035h0.0135c0.10799,-0.26998 0.62093,-1.39035 1.93029,-1.39035c0.45895,0 1.09338,0.08098 1.48484,0.60744c0.31048,0.43194 0.31048,0.80991 0.31048,2.06527z"/><path d="M85.45121,254.06123c0.01349,0.40496 0.35096,0.40496 1.02589,0.40496v0.39146c-0.35096,-0.027 -1.07989,-0.027 -1.47135,-0.027c-0.37795,0 -1.10688,0 -1.45784,0.027v-0.39146c0.87741,0 1.02589,0 1.02589,-0.60744v-3.17215c0,-0.82341 -0.18898,-1.51184 -1.02589,-1.51184c-0.83691,0 -1.76831,0.75592 -1.76831,2.17326v2.51073c0,0.60744 0.16199,0.60744 1.02589,0.60744v0.39146c-0.35096,-0.027 -1.07988,-0.027 -1.47134,-0.027c-0.37797,0 -1.10688,0 -1.45784,0.027v-0.39146c0.8774,0 1.02589,0 1.02589,-0.60744v-7.07323c0,-0.66143 -0.10799,-0.75591 -1.02589,-0.75591v-0.39146l1.8763,-0.14849v4.71099h0.0135c0.18897,-0.41845 0.72892,-1.29585 1.88979,-1.29585c0.45895,0 1.09338,0.08098 1.48484,0.60744c0.31048,0.43194 0.31048,0.80991 0.31048,2.06527z"/></g><g fill="#000000" stroke="none" stroke-width="1"><path d="M105.85314,249.13427c-0.67492,0 -1.8223,0.55345 -1.8223,2.7942c0,2.05177 1.09338,2.76719 1.91679,2.76719c0.72891,0 1.45784,-0.40496 1.75481,-1.36335c0.0405,-0.16198 0.054,-0.20248 0.17548,-0.20248c0.0405,0 0.13499,-0.00001 0.13499,0.12148c0,0.12149 -0.40496,1.74131 -2.18677,1.74131c-1.52534,0 -2.8212,-1.32286 -2.8212,-3.05067c0,-1.70081 1.25536,-3.10466 2.8347,-3.10466c1.09338,0 2.03827,0.64793 2.03827,1.55233c0,0.39146 -0.25647,0.58044 -0.56694,0.58044c-0.32396,0 -0.55343,-0.22948 -0.55343,-0.55345c0,-0.55343 0.49944,-0.55344 0.66143,-0.55344c-0.31046,-0.52644 -1.05288,-0.72892 -1.56583,-0.72892z"/><path d="M111.6777,254.99263c-1.53883,0 -2.88869,-1.29585 -2.88869,-3.02367c0,-1.70081 1.28235,-3.13165 2.90219,-3.13165c1.56583,0 2.88869,1.39034 2.88869,3.13165c0,1.70081 -1.30936,3.02367 -2.90218,3.02367zM113.20303,253.79126c0.35096,-0.63443 0.35096,-1.47133 0.35096,-1.94379c0,-0.49944 0,-1.34986 -0.41846,-1.97079c-0.36447,-0.52644 -0.9314,-0.76941 -1.45784,-0.76941c-0.47245,0 -1.06639,0.21597 -1.44434,0.79642c-0.41846,0.60743 -0.41845,1.43084 -0.41845,1.94379c0,0.56694 0.01349,1.36335 0.37795,1.97078c0.39146,0.66143 0.99889,0.8774 1.49834,0.8774c0.51294,0 1.13388,-0.25647 1.51183,-0.9044z"/><path d="M119.3961,250.55162c0,0.24298 0,0.31048 -0.14849,0.31048c-0.04049,0 -0.13498,0 -0.14848,-0.10799c-0.027,-0.41846 -0.10799,-1.67382 -1.57933,-1.67382c-1.21487,0 -1.49834,0.62092 -1.49834,1.03939c0,0.80991 0.9854,0.99888 1.39035,1.07988c0.89091,0.16199 1.25537,0.24298 1.74131,0.66143c0.12149,0.12149 0.56694,0.55345 0.56694,1.28236c0,1.06639 -0.70192,1.8493 -2.11927,1.8493c-0.22948,0 -0.95839,0 -1.47134,-0.63443c-0.20248,0.21598 -0.20248,0.24298 -0.26997,0.33746c-0.22947,0.28347 -0.24298,0.29697 -0.31046,0.29697c-0.13498,0 -0.13498,-0.06749 -0.13498,-0.31046v-1.83579c0,-0.24298 -0.00001,-0.31048 0.14848,-0.31048c0.04049,0 0.09449,0 0.12149,0.054c0.0135,0.0135 0.0135,0.02699 0.06749,0.26997c0.29697,1.34986 0.94489,1.8628 1.8358,1.8628c1.18788,0 1.52534,-0.64793 1.52534,-1.22836c0,-0.37795 -0.17548,-0.67492 -0.41846,-0.8774c-0.33746,-0.26997 -0.51295,-0.31046 -1.25537,-0.45895c-0.62093,-0.12148 -1.07988,-0.21598 -1.51183,-0.59393c-0.51295,-0.47245 -0.51294,-0.9449 -0.51294,-1.09337c0,-0.74242 0.48595,-1.63332 2.11927,-1.63332c0.43196,0 0.85041,0.08099 1.26886,0.41846c0.09449,-0.12149 0.35096,-0.41846 0.45895,-0.41846c0.13498,0 0.13498,0.06749 0.13498,0.31046z"/><path d="M126.16928,254.06123c0.01349,0.40496 0.35096,0.40496 1.02589,0.40496v0.39146c-0.35096,-0.027 -1.07989,-0.027 -1.47135,-0.027c-0.37795,0 -1.10688,0 -1.45784,0.027v-0.39146c0.87742,0 1.02589,0 1.02589,-0.60744v-3.17215c0,-0.82341 -0.18898,-1.51184 -1.02589,-1.51184c-0.83691,0 -1.76831,0.75592 -1.76831,2.17326v2.51073c0,0.60744 0.16199,0.60744 1.02589,0.60744v0.39146c-0.35096,-0.027 -1.07988,-0.027 -1.47134,-0.027c-0.37797,0 -1.10689,0 -1.45785,0.027v-0.39146c0.8774,0 1.02589,0 1.02589,-0.60744v-7.07323c0,-0.66143 -0.10799,-0.75591 -1.02589,-0.75591v-0.39146l1.8763,-0.14849v4.71099h0.0135c0.18897,-0.41845 0.72891,-1.29585 1.88978,-1.29585c0.45895,0 1.09338,0.08098 1.48484,0.60744c0.31048,0.43194 0.31048,0.80991 0.31048,2.06527z"/></g><g fill="#000000" stroke="none" stroke-width="1"><path d="M144.21965,253.21081c0,0.22948 0,1.48484 0.9179,1.48484c0.52644,0 0.9179,-0.56694 0.9179,-1.53883v-0.74241h0.29697v0.76941c0,0.9719 -0.44545,1.8088 -1.29586,1.8088c-0.71543,0 -1.71432,-0.31046 -1.71432,-1.8088v-3.75259h-1.14738v-0.26997c1.22837,-0.0405 1.71432,-1.33636 1.72781,-2.60522h0.29697v2.48373h1.9033v0.39146h-1.9033z"/><path d="M152.28279,253.61578c0,0.20248 0,0.91789 0.51295,0.91789c0.18897,0 0.51294,-0.10799 0.51294,-0.8774v-0.75593h0.29697v0.75593c0,1.07988 -0.78292,1.26886 -1.06638,1.26886c-0.58044,0 -0.99889,-0.48595 -1.05288,-1.12037c-0.25647,0.64793 -0.8639,1.18787 -1.75481,1.18787c-0.82341,0 -2.06528,-0.33746 -2.06528,-1.40384c0,-1.03939 1.02588,-2.17327 3.7391,-2.21377v-0.53994c0,-1.21486 -0.79642,-1.72781 -1.41734,-1.72781c-0.53994,0 -1.18788,0.24297 -1.49834,0.80991c0.20248,0 0.68843,0 0.68843,0.55345c0,0.32397 -0.22948,0.55343 -0.55345,0.55343c-0.31046,0 -0.56694,-0.18898 -0.56694,-0.58044c0,-0.8774 0.85041,-1.60632 1.95729,-1.60632c0.59393,0 1.20137,0.18897 1.67382,0.62093c0.59393,0.52644 0.59393,1.06638 0.59393,1.79531zM151.40539,251.61799c-0.48595,0.027 -2.7807,0.18899 -2.7807,1.97079c0,0.64793 0.55345,1.13387 1.21487,1.13387c0.58044,0 1.56583,-0.44545 1.56583,-1.7683z"/><path d="M159.66374,254.06123c0.01349,0.40496 0.35096,0.40496 1.02589,0.40496v0.39146c-0.35096,-0.027 -1.07989,-0.027 -1.47135,-0.027c-0.37795,0 -1.10688,0 -1.45784,0.027v-0.39146c0.87742,0 1.02589,0 1.02589,-0.60744v-3.17215c0,-0.82341 -0.18898,-1.51184 -1.02589,-1.51184c-0.83691,0 -1.76831,0.75592 -1.76831,2.17326v2.51073c0,0.60744 0.16199,0.60744 1.02589,0.60744v0.39146c-0.35096,-0.027 -1.07988,-0.027 -1.47134,-0.027c-0.37797,0 -1.10689,0 -1.45785,0.027v-0.39146c0.8774,0 1.02589,0 1.02589,-0.60744v-3.6581c0,-0.66143 -0.10799,-0.75591 -1.02589,-0.75591v-0.39146l1.83581,-0.14849v1.39035h0.0135c0.10799,-0.26998 0.62093,-1.39035 1.93029,-1.39035c0.45895,0 1.09337,0.08098 1.48483,0.60744c0.31048,0.43194 0.31048,0.80991 0.31048,2.06527z"/><path d="M166.97935,254.06123c0.01349,0.40496 0.35096,0.40496 1.02589,0.40496v0.39146c-0.35096,-0.027 -1.07989,-0.027 -1.47135,-0.027c-0.37795,0 -1.10688,0 -1.45784,0.027v-0.39146c0.87742,0 1.02589,0 1.02589,-0.60744v-3.17215c0,-0.82341 -0.18898,-1.51184 -1.02589,-1.51184c-0.83691,0 -1.76831,0.75592 -1.76831,2.17326v2.51073c0,0.60744 0.16199,0.60744 1.02589,0.60744v0.39146c-0.35096,-0.027 -1.07988,-0.027 -1.47134,-0.027c-0.37797,0 -1.10689,0 -1.45785,0.027v-0.39146c0.8774,0 1.02589,0 1.02589,-0.60744v-7.07323c0,-0.66143 -0.10799,-0.75591 -1.02589,-0.75591v-0.39146l1.8763,-0.14849v4.71099h0.0135c0.18897,-0.41845 0.72892,-1.29585 1.88979,-1.29585c0.45895,0 1.09338,0.08098 1.48484,0.60744c0.31048,0.43194 0.31048,0.80991 0.31048,2.06527z"/></g><g fill="#000000" stroke="none" stroke-width="1"><path d="M66.40215,279.13419c-0.67492,0 -1.8223,0.55345 -1.8223,2.7942c0,2.05177 1.09337,2.76719 1.91679,2.76719c0.72892,0 1.45785,-0.40496 1.75481,-1.36335c0.0405,-0.16198 0.054,-0.20248 0.17548,-0.20248c0.0405,0 0.135,-0.00001 0.135,0.12148c0,0.12149 -0.40496,1.74131 -2.18677,1.74131c-1.52534,0 -2.82119,-1.32286 -2.82119,-3.05067c0,-1.70081 1.25536,-3.10466 2.8347,-3.10466c1.09338,0 2.03827,0.64793 2.03827,1.55233c0,0.39146 -0.25646,0.58044 -0.56694,0.58044c-0.32396,0 -0.55344,-0.22948 -0.55344,-0.55345c0,-0.55343 0.49945,-0.55344 0.66143,-0.55344c-0.31046,-0.52644 -1.05288,-0.72892 -1.56583,-0.72892z"/><path d="M73.36152,280.55161c0,0.24298 0,0.31048 -0.14849,0.31048c-0.04049,0 -0.13498,0 -0.14847,-0.10799c-0.027,-0.41846 -0.10799,-1.67382 -1.57933,-1.67382c-1.21487,0 -1.49834,0.62092 -1.49834,1.03939c0,0.80991 0.9854,0.99888 1.39035,1.07988c0.89091,0.16199 1.25537,0.24298 1.74131,0.66143c0.12149,0.12149 0.56693,0.55345 0.56693,1.28236c0,1.06639 -0.70192,1.8493 -2.11927,1.8493c-0.22948,0 -0.9584,0 -1.47135,-0.63443c-0.20248,0.21598 -0.20248,0.24298 -0.26997,0.33746c-0.22947,0.28347 -0.24298,0.29697 -0.31046,0.29697c-0.13498,0 -0.13498,-0.06749 -0.13498,-0.31046v-1.83579c0,-0.24298 0,-0.31048 0.14849,-0.31048c0.04049,0 0.09449,0 0.12148,0.054c0.0135,0.0135 0.0135,0.02699 0.06749,0.26997c0.29697,1.34986 0.9449,1.8628 1.8358,1.8628c1.18788,0 1.52534,-0.64793 1.52534,-1.22836c0,-0.37795 -0.17548,-0.67492 -0.41845,-0.8774c-0.33746,-0.26997 -0.51295,-0.31046 -1.25537,-0.45895c-0.62093,-0.12148 -1.07988,-0.21598 -1.51184,-0.59393c-0.51295,-0.47245 -0.51294,-0.9449 -0.51294,-1.09337c0,-0.74242 0.48595,-1.63332 2.11927,-1.63332c0.43196,0 0.85041,0.08099 1.26886,0.41846c0.09449,-0.12149 0.35096,-0.41846 0.45895,-0.41846c0.13498,0 0.13498,0.06749 0.13498,0.31046z"/><path d="M77.44849,279.13419c-0.67492,0 -1.8223,0.55345 -1.8223,2.7942c0,2.05177 1.09338,2.76719 1.91679,2.76719c0.72892,0 1.45784,-0.40496 1.75481,-1.36335c0.0405,-0.16198 0.054,-0.20248 0.17548,-0.20248c0.0405,0 0.13499,-0.00001 0.13499,0.12148c0,0.12149 -0.40496,1.74131 -2.18677,1.74131c-1.52534,0 -2.8212,-1.32286 -2.8212,-3.05067c0,-1.70081 1.25536,-3.10466 2.8347,-3.10466c1.09338,0 2.03828,0.64793 2.03828,1.55233c0,0.39146 -0.25647,0.58044 -0.56694,0.58044c-0.32396,0 -0.55343,-0.22948 -0.55343,-0.55345c0,-0.55343 0.49945,-0.55344 0.66143,-0.55344c-0.31046,-0.52644 -1.05288,-0.72892 -1.56583,-0.72892z"/><path d="M85.62024,284.0612c0.01349,0.40496 0.35096,0.40496 1.02589,0.40496v0.39146c-0.35096,-0.027 -1.07989,-0.027 -1.47135,-0.027c-0.37795,0 -1.10688,0 -1.45784,0.027v-0.39146c0.87742,0 1.02589,0 1.02589,-0.60744v-3.17215c0,-0.82341 -0.18899,-1.51184 -1.02589,-1.51184c-0.83691,0 -1.76831,0.75592 -1.76831,2.17326v2.51073c0,0.60744 0.16199,0.60744 1.02589,0.60744v0.39146c-0.35096,-0.027 -1.07988,-0.027 -1.47134,-0.027c-0.37797,0 -1.10689,0 -1.45785,0.027v-0.39146c0.8774,0 1.02589,0 1.02589,-0.60744v-7.07323c0,-0.66143 -0.10799,-0.75591 -1.02589,-0.75591v-0.39146l1.8763,-0.14849v4.71099h0.0135c0.18897,-0.41845 0.72891,-1.29585 1.88979,-1.29585c0.45895,0 1.09338,0.08098 1.48484,0.60744c0.31048,0.43194 0.31048,0.80991 0.31048,2.06527z"/></g><g fill="#000000" stroke="none" stroke-width="1"><path d="M107.52301,280.55161c0,0.24298 0,0.31048 -0.14849,0.31048c-0.04049,0 -0.13498,0 -0.14847,-0.10799c-0.027,-0.41846 -0.10799,-1.67382 -1.57933,-1.67382c-1.21487,0 -1.49834,0.62092 -1.49834,1.03939c0,0.80991 0.9854,0.99888 1.39035,1.07988c0.89091,0.16199 1.25536,0.24298 1.74131,0.66143c0.12149,0.12149 0.56694,0.55345 0.56694,1.28236c0,1.06639 -0.70192,1.8493 -2.11927,1.8493c-0.22948,0 -0.9584,0 -1.47135,-0.63443c-0.20248,0.21598 -0.20248,0.24298 -0.26997,0.33746c-0.22947,0.28347 -0.24298,0.29697 -0.31047,0.29697c-0.13498,0 -0.13498,-0.06749 -0.13498,-0.31046v-1.83579c0,-0.24298 0,-0.31048 0.14849,-0.31048c0.04049,0 0.09449,0 0.12148,0.054c0.0135,0.0135 0.0135,0.02699 0.06749,0.26997c0.29697,1.34986 0.9449,1.8628 1.8358,1.8628c1.18788,0 1.52534,-0.64793 1.52534,-1.22836c0,-0.37795 -0.17548,-0.67492 -0.41846,-0.8774c-0.33746,-0.26997 -0.51295,-0.31046 -1.25537,-0.45895c-0.62093,-0.12148 -1.07988,-0.21598 -1.51183,-0.59393c-0.51295,-0.47245 -0.51295,-0.9449 -0.51295,-1.09337c0,-0.74242 0.48595,-1.63332 2.11927,-1.63332c0.43196,0 0.85041,0.08099 1.26886,0.41846c0.09449,-0.12149 0.35096,-0.41846 0.45895,-0.41846c0.13498,0 0.13498,0.06749 0.13498,0.31046z"/><path d="M109.72019,281.72596v0.25647c0,2.33525 1.36335,2.7132 1.93029,2.7132c0.56694,0 1.47135,-0.31046 1.82231,-1.44434c0.02699,-0.06749 0.05399,-0.13498 0.16198,-0.13498c0.08099,0 0.14849,0.054 0.14849,0.13498c0,0.28347 -0.60744,1.74131 -2.21376,1.74131c-1.49834,0 -2.8752,-1.30936 -2.8752,-3.09116c0,-1.67382 1.18787,-3.06416 2.72671,-3.06416c1.63333,0 2.36224,1.26886 2.36224,2.6322c0,0.25647 -0.02699,0.25647 -0.32396,0.25647zM112.94634,281.46943c-0.0135,-0.45895 -0.09449,-2.36224 -1.53884,-2.36224c-0.37795,0 -1.56583,0.24297 -1.67382,2.36224z"/><path d="M117.46246,279.13419c-0.67492,0 -1.8223,0.55345 -1.8223,2.7942c0,2.05177 1.09338,2.76719 1.91679,2.76719c0.72892,0 1.45785,-0.40496 1.75481,-1.36335c0.0405,-0.16198 0.054,-0.20248 0.17548,-0.20248c0.0405,0 0.135,-0.00001 0.135,0.12148c0,0.12149 -0.40496,1.74131 -2.18677,1.74131c-1.52534,0 -2.82119,-1.32286 -2.82119,-3.05067c0,-1.70081 1.25536,-3.10466 2.8347,-3.10466c1.09338,0 2.03827,0.64793 2.03827,1.55233c0,0.39146 -0.25646,0.58044 -0.56694,0.58044c-0.32396,0 -0.55344,-0.22948 -0.55344,-0.55345c0,-0.55343 0.49945,-0.55344 0.66143,-0.55344c-0.31046,-0.52644 -1.05288,-0.72892 -1.56583,-0.72892z"/><path d="M125.63328,284.0612c0.01349,0.40496 0.35096,0.40496 1.02589,0.40496v0.39146c-0.35096,-0.027 -1.07989,-0.027 -1.47135,-0.027c-0.37795,0 -1.10688,0 -1.45784,0.027v-0.39146c0.87742,0 1.02589,0 1.02589,-0.60744v-3.17215c0,-0.82341 -0.18898,-1.51184 -1.02589,-1.51184c-0.83691,0 -1.76831,0.75592 -1.76831,2.17326v2.51073c0,0.60744 0.16199,0.60744 1.02589,0.60744v0.39146c-0.35096,-0.027 -1.07988,-0.027 -1.47133,-0.027c-0.37797,0 -1.10689,0 -1.45785,0.027v-0.39146c0.8774,0 1.02589,0 1.02589,-0.60744v-7.07323c0,-0.66143 -0.10799,-0.75591 -1.02589,-0.75591v-0.39146l1.8763,-0.14849v4.71099h0.0135c0.18897,-0.41845 0.72891,-1.29585 1.88978,-1.29585c0.45895,0 1.09338,0.08098 1.48484,0.60744c0.31048,0.43194 0.31048,0.80991 0.31048,2.06527z"/></g><g fill="#000000" stroke="none" stroke-width="1"><path d="M145.88982,279.13426c-0.67492,0 -1.8223,0.55345 -1.8223,2.7942c0,2.05177 1.09338,2.76719 1.91679,2.76719c0.72892,0 1.45785,-0.40496 1.75481,-1.36335c0.0405,-0.16198 0.054,-0.20248 0.17548,-0.20248c0.0405,0 0.135,-0.00001 0.135,0.12148c0,0.12149 -0.40496,1.74131 -2.18677,1.74131c-1.52534,0 -2.82119,-1.32286 -2.82119,-3.05067c0,-1.70081 1.25536,-3.10466 2.8347,-3.10466c1.09338,0 2.03827,0.64793 2.03827,1.55233c0,0.39146 -0.25646,0.58044 -0.56694,0.58044c-0.32396,0 -0.55344,-0.22948 -0.55344,-0.55345c0,-0.55343 0.49945,-0.55344 0.66143,-0.55344c-0.31046,-0.52644 -1.05288,-0.72892 -1.56583,-0.72892z"/><path d="M151.71437,284.99262c-1.53883,0 -2.88869,-1.29585 -2.88869,-3.02367c0,-1.70081 1.28235,-3.13165 2.90218,-3.13165c1.56583,0 2.88869,1.39034 2.88869,3.13165c0,1.70081 -1.30936,3.02367 -2.90218,3.02367zM153.23971,283.79125c0.35096,-0.63443 0.35096,-1.47133 0.35096,-1.94379c0,-0.49944 0,-1.34986 -0.41845,-1.97079c-0.36447,-0.52644 -0.93141,-0.76941 -1.45785,-0.76941c-0.47245,0 -1.06638,0.21597 -1.44434,0.79642c-0.41846,0.60743 -0.41846,1.43084 -0.41846,1.94379c0,0.56694 0.01349,1.36335 0.37795,1.97078c0.39146,0.66143 0.99889,0.8774 1.49834,0.8774c0.51294,0 1.13388,-0.25647 1.51184,-0.9044z"/><path d="M157.27301,283.21079c0,0.22948 0,1.48484 0.91789,1.48484c0.52644,0 0.9179,-0.56694 0.9179,-1.53883v-0.74241h0.29697v0.76941c0,0.9719 -0.44545,1.8088 -1.29585,1.8088c-0.71543,0 -1.71432,-0.31046 -1.71432,-1.8088v-3.75259h-1.14738v-0.26997c1.22837,-0.0405 1.71432,-1.33636 1.72781,-2.60522h0.29697v2.48373h1.90329v0.39146h-1.90329z"/><path d="M166.13257,284.0612c0.01349,0.40496 0.35096,0.40496 1.02589,0.40496v0.39146c-0.35096,-0.027 -1.07989,-0.027 -1.47135,-0.027c-0.37795,0 -1.10688,0 -1.45784,0.027v-0.39146c0.87742,0 1.02589,0 1.02589,-0.60744v-3.17215c0,-0.82341 -0.18899,-1.51184 -1.02589,-1.51184c-0.83691,0 -1.76831,0.75592 -1.76831,2.17326v2.51073c0,0.60744 0.16199,0.60744 1.02589,0.60744v0.39146c-0.35096,-0.027 -1.07988,-0.027 -1.47134,-0.027c-0.37797,0 -1.10688,0 -1.45784,0.027v-0.39146c0.8774,0 1.02589,0 1.02589,-0.60744v-7.07323c0,-0.66143 -0.10799,-0.75591 -1.02589,-0.75591v-0.39146l1.8763,-0.14849v4.71099h0.0135c0.18897,-0.41845 0.72892,-1.29585 1.88979,-1.29585c0.45895,0 1.09338,0.08098 1.48484,0.60744c0.31048,0.43194 0.31047,0.80991 0.31047,2.06527z"/></g></g><g stroke-linecap="butt"><path d="M221.55746,263.0272c-6.7336,0 -28.27729,0 -32.63067,0c-1.51414,0 -2.51026,-0.95831 -2.51026,-2.4908c0,-5.38467 0,-17.85811 0,-20.75669c0,-1.17748 0.83864,-2.32476 2.27173,-2.32476c4.30441,0 26.35938,0 32.92602,0c1.18062,0 2.16929,0.87327 2.16929,1.82658c0,2.7465 0,16.26468 0,21.58696c0,1.33855 -0.9369,2.1587 -2.22611,2.1587z" data-paper-data="{&quot;index&quot;:null}" fill-opacity="0.91765" fill="#fff6d1" stroke="#d0d0d0" stroke-width="0.5"/><path d="M261.55746,263.0272c-6.7336,0 -28.27729,0 -32.63067,0c-1.51414,0 -2.51026,-0.95831 -2.51026,-2.4908c0,-5.38467 0,-17.85811 0,-20.75669c0,-1.17748 0.83864,-2.32476 2.27173,-2.32476c4.30441,0 26.35938,0 32.92602,0c1.18062,0 2.16929,0.87327 2.16929,1.82658c0,2.7465 0,16.26468 0,21.58696c0,1.33855 -0.9369,2.1587 -2.22611,2.1587z" data-paper-data="{&quot;index&quot;:null}" fill-opacity="0.91765" fill="#fff6d1" stroke="#d0d0d0" stroke-width="0.5"/><path d="M301.55746,263.0272c-6.7336,0 -28.27729,0 -32.63067,0c-1.51414,0 -2.51026,-0.95831 -2.51026,-2.4908c0,-5.38467 0,-17.85811 0,-20.75669c0,-1.17748 0.83864,-2.32476 2.27173,-2.32476c4.30441,0 26.35938,0 32.92602,0c1.18062,0 2.16929,0.87327 2.16929,1.82658c0,2.7465 0,16.26468 0,21.58696c0,1.33855 -0.9369,2.1587 -2.22611,2.1587z" data-paper-data="{&quot;index&quot;:null}" fill-opacity="0.91765" fill="#fff6d1" stroke="#d0d0d0" stroke-width="0.5"/><path d="M221.55746,293.0272c-6.7336,0 -28.27729,0 -32.63067,0c-1.51414,0 -2.51026,-0.95831 -2.51026,-2.4908c0,-5.38467 0,-17.85811 0,-20.75669c0,-1.17748 0.83864,-2.32476 2.27173,-2.32476c4.30441,0 26.35938,0 32.92602,0c1.18062,0 2.16929,0.87327 2.16929,1.82658c0,2.7465 0,16.26468 0,21.58696c0,1.33855 -0.9369,2.1587 -2.22611,2.1587z" data-paper-data="{&quot;index&quot;:null}" fill-opacity="0.91765" fill="#fff6d1" stroke="#d0d0d0" stroke-width="0.5"/><path d="M261.55746,293.0272c-6.7336,0 -28.27729,0 -32.63067,0c-1.51414,0 -2.51026,-0.95831 -2.51026,-2.4908c0,-5.38467 0,-17.85811 0,-20.75669c0,-1.17748 0.83864,-2.32476 2.27173,-2.32476c4.30441,0 26.35938,0 32.92602,0c1.18062,0 2.16929,0.87327 2.16929,1.82658c0,2.7465 0,16.26468 0,21.58696c0,1.33855 -0.9369,2.1587 -2.22611,2.1587z" data-paper-data="{&quot;index&quot;:null}" fill-opacity="0.91765" fill="#fff6d1" stroke="#d0d0d0" stroke-width="0.5"/><path d="M301.55746,293.0272c-6.7336,0 -28.27729,0 -32.63067,0c-1.51414,0 -2.51026,-0.95831 -2.51026,-2.4908c0,-5.38467 0,-17.85811 0,-20.75669c0,-1.17748 0.83864,-2.32476 2.27173,-2.32476c4.30441,0 26.35938,0 32.92602,0c1.18062,0 2.16929,0.87327 2.16929,1.82658c0,2.7465 0,16.26468 0,21.58696c0,1.33855 -0.9369,2.1587 -2.22611,2.1587z" data-paper-data="{&quot;index&quot;:null}" fill-opacity="0.91765" fill="#fff6d1" stroke="#d0d0d0" stroke-width="0.5"/><path d="M221.55746,323.0272c-6.7336,0 -28.27729,0 -32.63067,0c-1.51414,0 -2.51026,-0.95831 -2.51026,-2.4908c0,-5.38467 0,-17.85811 0,-20.75669c0,-1.17748 0.83864,-2.32476 2.27173,-2.32476c4.30441,0 26.35938,0 32.92602,0c1.18062,0 2.16929,0.87327 2.16929,1.82658c0,2.7465 0,16.26468 0,21.58696c0,1.33855 -0.9369,2.1587 -2.22611,2.1587z" data-paper-data="{&quot;index&quot;:null}" fill-opacity="0.91765" fill="#fff6d1" stroke="#d0d0d0" stroke-width="0.5"/><path d="M261.55746,323.0272c-6.7336,0 -28.27729,0 -32.63067,0c-1.51414,0 -2.51026,-0.95831 -2.51026,-2.4908c0,-5.38467 0,-17.85811 0,-20.75669c0,-1.17748 0.83864,-2.32476 2.27173,-2.32476c4.30441,0 26.35938,0 32.92602,0c1.18062,0 2.16929,0.87327 2.16929,1.82658c0,2.7465 0,16.26468 0,21.58696c0,1.33855 -0.9369,2.1587 -2.22611,2.1587z" data-paper-data="{&quot;index&quot;:null}" fill-opacity="0.91765" fill="#fff6d1" stroke="#d0d0d0" stroke-width="0.5"/><path d="M301.55746,323.0272c-6.7336,0 -28.27729,0 -32.63067,0c-1.51414,0 -2.51026,-0.95831 -2.51026,-2.4908c0,-5.38467 0,-17.85811 0,-20.75669c0,-1.17748 0.83864,-2.32476 2.27173,-2.32476c4.30441,0 26.35938,0 32.92602,0c1.18062,0 2.16929,0.87327 2.16929,1.82658c0,2.7465 0,16.26468 0,21.58696c0,1.33855 -0.9369,2.1587 -2.22611,2.1587z" data-paper-data="{&quot;index&quot;:null}" fill-opacity="0.91765" fill="#fff6d1" stroke="#d0d0d0" stroke-width="0.5"/><path d="M221.55746,353.0273c-6.7336,0 -28.27729,0 -32.63067,0c-1.51414,0 -2.51026,-0.95831 -2.51026,-2.4908c0,-5.38467 0,-17.85811 0,-20.75669c0,-1.17748 0.83864,-2.32476 2.27173,-2.32476c4.30441,0 26.35938,0 32.92602,0c1.18062,0 2.16929,0.87327 2.16929,1.82658c0,2.7465 0,16.26468 0,21.58696c0,1.33855 -0.9369,2.1587 -2.22611,2.1587z" data-paper-data="{&quot;index&quot;:null}" fill-opacity="0.91765" fill="#fff6d1" stroke="#d0d0d0" stroke-width="0.5"/><path d="M261.55746,353.0273c-6.7336,0 -28.27729,0 -32.63067,0c-1.51414,0 -2.51026,-0.95831 -2.51026,-2.4908c0,-5.38467 0,-17.85811 0,-20.75669c0,-1.17748 0.83864,-2.32476 2.27173,-2.32476c4.30441,0 26.35938,0 32.92602,0c1.18062,0 2.16929,0.87327 2.16929,1.82658c0,2.7465 0,16.26468 0,21.58696c0,1.33855 -0.9369,2.1587 -2.22611,2.1587z" data-paper-data="{&quot;index&quot;:null}" fill-opacity="0.91765" fill="#fff6d1" stroke="#d0d0d0" stroke-width="0.5"/><path d="M301.55746,353.0273c-6.7336,0 -28.27729,0 -32.63067,0c-1.51414,0 -2.51026,-0.95831 -2.51026,-2.4908c0,-5.38467 0,-17.85811 0,-20.75669c0,-1.17748 0.83864,-2.32476 2.27173,-2.32476c4.30441,0 26.35938,0 32.92602,0c1.18062,0 2.16929,0.87327 2.16929,1.82658c0,2.7465 0,16.26468 0,21.58696c0,1.33855 -0.9369,2.1587 -2.22611,2.1587z" data-paper-data="{&quot;index&quot;:null}" fill-opacity="0.91765" fill="#fff6d1" stroke="#d0d0d0" stroke-width="0.5"/><path d="M245.44342,283.32476c0.49823,0.16159 1.27924,0.4309 1.27924,1.3735c0,0.70021 -0.59249,1.60241 -1.45429,1.60241c-0.67328,0 -1.25231,-0.51169 -1.25231,-0.64635c0,-0.02694 0.02694,-0.13466 0.13466,-0.13466c0.06733,0 0.09426,0.02694 0.14812,0.0808c0.33665,0.33665 0.70022,0.4309 0.96954,0.4309c0.49823,0 0.78101,-0.52516 0.78101,-0.91566c0,-0.64635 -0.52516,-0.82141 -1.07726,-1.00993c-0.17505,-0.06732 -0.60595,-0.21545 -0.78101,-0.26932c-0.70021,-0.24238 -1.92559,-0.67328 -1.92559,-2.51808c0,-2.51808 1.96599,-5.03617 3.52801,-5.8441c-0.16159,-0.28278 -0.16159,-0.56556 -0.16159,-0.68674c0,-0.10773 0,-0.60596 0.21545,-0.60596c0.06733,0 0.13466,0.05386 0.13466,0.13466c0,0.0404 -0.05386,0.22892 -0.05386,0.4713c0,0.20199 0.0404,0.39051 0.1212,0.56556c0.35011,-0.14813 0.57903,-0.14813 0.84834,-0.14813c0.4309,0 1.03686,0.01345 1.03686,0.33663c0,0.39051 -0.82141,0.39051 -1.15806,0.39051c-0.25584,0 -0.56556,0 -0.80794,-0.22891c-1.65628,0.95606 -3.01632,3.42028 -3.01632,5.26508c0,1.00993 0.45784,1.61587 1.25231,1.92559zM246.78999,275.66274c0.56556,0 0.67328,-0.0404 0.83487,-0.10773c-0.26931,-0.06732 -0.30971,-0.0808 -0.74061,-0.0808c-0.22891,0 -0.41743,0 -0.61942,0.09426c0.14813,0.09426 0.24238,0.09426 0.52516,0.09426z" fill="#000000" stroke="none" stroke-width="1"/><g fill="#000000" stroke="none" stroke-width="1"><path d="M237.93066,333.73501v13.06869c0,0.25459 -0.00001,0.50917 -0.28288,0.50917c-0.28287,0 -0.28287,-0.29702 -0.28287,-0.50917v-13.12528c0,-0.45261 0.05658,-0.50911 0.50917,-0.50911h2.48927c0.21215,0 0.50916,0 0.50916,0.28285c0,0.28285 -0.29701,0.28285 -0.50916,0.28285z"/><path d="M247.17263,337.82249c-0.6506,0 -1.13149,0.62232 -1.34365,1.47095l-0.49502,1.92352c-0.2263,0.93348 -0.28289,1.15978 -0.28289,1.47093c0,0.5799 0.26873,0.94763 0.76376,0.94763c0.63646,0 1.45679,-0.57989 1.83866,-1.82453c0.04243,-0.11316 0.05658,-0.18387 0.18386,-0.18387c0.08487,0 0.14144,0.05657 0.14144,0.12729c0,0.31117 -0.76375,2.16397 -2.20639,2.16397c-0.52331,0 -1.23049,-0.28287 -1.45679,-1.11735c-0.29702,0.57988 -0.7779,1.11735 -1.45679,1.11735c-0.60818,0 -1.27293,-0.26873 -1.27293,-0.86276c0,-0.45259 0.36773,-0.74961 0.70718,-0.74961c0.26873,0 0.48089,0.16971 0.48089,0.45258c0,0.16973 -0.11315,0.59404 -0.62231,0.69304c0.29701,0.18387 0.65061,0.18386 0.72133,0.18386c0.74962,0 1.15978,-0.7779 1.37193,-1.62651l0.48089,-1.93767c0.16972,-0.6789 0.25458,-1.00419 0.25458,-1.31536c0,-0.33945 -0.1273,-0.93348 -0.76375,-0.93348c-0.41017,0 -1.35779,0.29702 -1.83868,1.86696c-0.02829,0.05657 -0.05656,0.14144 -0.16972,0.14144c-0.09901,0 -0.15559,-0.07072 -0.15559,-0.12729c0,-0.31117 0.76375,-2.16397 2.2064,-2.16397c0.25459,0 1.1315,0.05657 1.45679,1.11734c0.1273,-0.26873 0.60818,-1.11734 1.47094,-1.11734c0.59403,0 1.27292,0.26873 1.27292,0.86276c0,0.38187 -0.29702,0.74961 -0.72132,0.74961c-0.19801,0 -0.46675,-0.11316 -0.46675,-0.45258c0,-0.26873 0.16973,-0.60818 0.62233,-0.69304c-0.29702,-0.18387 -0.69305,-0.18387 -0.72133,-0.18387z"/><path d="M252.8352,346.8038c0,0.25459 -0.00001,0.50917 -0.28288,0.50917c-0.28287,0 -0.28287,-0.29702 -0.28287,-0.50917v-13.06869h-2.4327c-0.21215,0 -0.50917,0 -0.50917,-0.28285c0,-0.28285 0.29702,-0.28285 0.50917,-0.28285h2.50342c0.4526,0 0.49503,0.04239 0.49503,0.50911z"/></g><g fill="#000000" stroke="none" stroke-width="1"><path d="M197.87456,347.31294c-0.4526,0 -0.50917,-0.05658 -0.50917,-0.50917v-13.12528c0,-0.21216 -0.00001,-0.50911 0.28287,-0.50911c0.28288,0 0.28288,0.25455 0.28288,0.50911v13.0687h2.43269c0.21215,0 0.50917,0.00002 0.50917,0.28288c0,0.28287 -0.29702,0.28287 -0.50917,0.28287z"/><path d="M207.1731,337.82249c-0.6506,0 -1.13149,0.62232 -1.34365,1.47095l-0.49502,1.92352c-0.2263,0.93348 -0.28289,1.15978 -0.28289,1.47093c0,0.5799 0.26873,0.94763 0.76376,0.94763c0.63646,0 1.45679,-0.57989 1.83866,-1.82453c0.04243,-0.11316 0.05658,-0.18387 0.18386,-0.18387c0.08487,0 0.14144,0.05657 0.14144,0.12729c0,0.31117 -0.76375,2.16397 -2.20639,2.16397c-0.52331,0 -1.23049,-0.28287 -1.45679,-1.11735c-0.29702,0.57988 -0.7779,1.11735 -1.45679,1.11735c-0.60818,0 -1.27293,-0.26873 -1.27293,-0.86276c0,-0.45259 0.36773,-0.74961 0.70718,-0.74961c0.26873,0 0.48089,0.16971 0.48089,0.45258c0,0.16973 -0.11315,0.59404 -0.62231,0.69304c0.29701,0.18387 0.65061,0.18386 0.72133,0.18386c0.74962,0 1.15978,-0.7779 1.37193,-1.62651l0.48089,-1.93767c0.16972,-0.6789 0.25459,-1.00419 0.25459,-1.31536c0,-0.33945 -0.1273,-0.93348 -0.76376,-0.93348c-0.41017,0 -1.35779,0.29702 -1.83868,1.86696c-0.02829,0.05657 -0.05656,0.14144 -0.16972,0.14144c-0.09901,0 -0.15559,-0.07072 -0.15559,-0.12729c0,-0.31117 0.76375,-2.16397 2.2064,-2.16397c0.25459,0 1.1315,0.05657 1.45679,1.11734c0.1273,-0.26873 0.60818,-1.11734 1.47094,-1.11734c0.59403,0 1.27292,0.26873 1.27292,0.86276c0,0.38187 -0.29702,0.74961 -0.72132,0.74961c-0.19801,0 -0.46675,-0.11316 -0.46675,-0.45258c0,-0.26873 0.16973,-0.60818 0.62233,-0.69304c-0.29702,-0.18387 -0.69305,-0.18387 -0.72133,-0.18387z"/><path d="M212.83471,346.8038c0,0.46674 -0.04243,0.50917 -0.49503,0.50917h-2.50342c-0.21215,0 -0.50917,0.00001 -0.50917,-0.28287c0,-0.28287 0.29702,-0.28288 0.50917,-0.28288h2.4327v-13.0687c0,-0.21216 -0.00001,-0.50911 0.28287,-0.50911c0.28288,0 0.28288,0.25455 0.28288,0.50911z"/></g><g fill="#000000" stroke="none" stroke-width="1"><path d="M273.66638,343.05718c0,0.38111 0.02118,0.49756 0.794,0.49756h0.21172v0.30701c-0.24348,-0.02118 -0.99513,-0.02118 -1.28097,-0.02118c-0.31759,0 -0.89986,0 -1.19627,0.02118v-0.30701c0.68812,0 0.80457,0 0.80457,-0.47639v-2.86895c0,-0.51873 -0.0847,-0.59285 -0.80457,-0.59285v-0.30701l1.41859,-0.11645v1.17511h0.01059c0.06352,-0.20114 0.37054,-1.17511 1.27038,-1.17511c0.45523,0 0.74106,0.29642 0.74106,0.61402c0,0.28582 -0.21173,0.42345 -0.42346,0.42345c-0.16938,0 -0.41287,-0.11644 -0.41287,-0.42345c0,-0.28585 0.16938,-0.34936 0.25408,-0.3917c-0.04235,-0.01059 -0.06352,-0.01059 -0.14821,-0.01059c-0.81516,0 -1.23863,0.96338 -1.23863,1.99027z"/><path d="M278.49811,343.96761c-1.20687,0 -2.26552,-1.0163 -2.26552,-2.37137c0,-1.3339 1.00572,-2.45607 2.27611,-2.45607c1.22804,0 2.26551,1.0904 2.26551,2.45607c0,1.3339 -1.0269,2.37137 -2.27611,2.37137zM279.69439,343.02542c0.27525,-0.49756 0.27525,-1.15392 0.27525,-1.52446c0,-0.3917 0,-1.05864 -0.32818,-1.54563c-0.28585,-0.41287 -0.73047,-0.60343 -1.14335,-0.60343c-0.37054,0 -0.83634,0.16938 -1.13276,0.62462c-0.32819,0.47638 -0.32819,1.12216 -0.32819,1.52446c0,0.44463 0.01058,1.06924 0.29642,1.54563c0.30701,0.51874 0.7834,0.68812 1.17511,0.68812c0.40229,0 0.88926,-0.20114 1.18569,-0.70929z"/><path d="M285.78933,339.19311v3.76879c0,0.51874 0.0847,0.59285 0.80457,0.59285v0.30701l-1.47153,0.10587v-0.95279c0,0 -0.16938,0.40229 -0.47639,0.64578c-0.35995,0.30701 -0.69871,0.30701 -0.87869,0.30701c-0.53991,0 -0.97396,-0.12704 -1.22803,-0.40229c-0.31761,-0.34935 -0.31759,-0.73047 -0.31759,-1.38683v-1.58797c0,-0.9422 0,-0.97396 -0.80458,-0.97396v-0.30701l1.4927,-0.11645v3.50413c0,0.56109 0.05292,1.05864 0.92103,1.05864c0.794,0 1.27038,-0.75163 1.27038,-1.65149v-1.89498c0,-0.51873 -0.0847,-0.59285 -0.80458,-0.59285v-0.30701z"/><path d="M291.52675,343.23716c0.01058,0.31759 0.27525,0.31759 0.80457,0.31759v0.30701c-0.27525,-0.02118 -0.84692,-0.02118 -1.15394,-0.02118c-0.29642,0 -0.8681,0 -1.14335,0.02118v-0.30701c0.68812,0 0.80457,0 0.80457,-0.47639v-2.48782c0,-0.64578 -0.14821,-1.1857 -0.80457,-1.1857c-0.65636,0 -1.38683,0.59285 -1.38683,1.70444v1.96908c0,0.47639 0.12704,0.47639 0.80457,0.47639v0.30701c-0.27525,-0.02118 -0.84692,-0.02118 -1.15393,-0.02118c-0.29643,0 -0.8681,0 -1.14335,0.02118v-0.30701c0.68812,0 0.80457,0 0.80457,-0.47639v-2.86895c0,-0.51873 -0.0847,-0.59285 -0.80457,-0.59285v-0.30701l1.43977,-0.11645v1.09041h0.01059c0.0847,-0.21173 0.48697,-1.09041 1.51387,-1.09041c0.35995,0 0.8575,0.06352 1.16451,0.47639c0.24349,0.33877 0.24349,0.63519 0.24349,1.61972z"/><path d="M297.20066,336.51471v6.44718c0,0.51874 0.0847,0.59285 0.80458,0.59285v0.30701l-1.4927,0.10587v-0.73047c-0.14821,0.20114 -0.61402,0.73047 -1.41859,0.73047c-1.16451,0 -2.17023,-1.03748 -2.17023,-2.38196c0,-1.35507 1.05865,-2.39255 2.2867,-2.39255c0.64577,0 1.101,0.37052 1.32331,0.67754v-2.33962c0,-0.51873 -0.0847,-0.59283 -0.80457,-0.59283v-0.30701zM296.51254,340.44232c0,-0.19056 0,-0.21173 -0.12704,-0.3917c-0.10587,-0.16938 -0.47639,-0.64578 -1.13276,-0.64578c-0.52933,0 -0.95279,0.32818 -1.16451,0.65637c-0.2329,0.34935 -0.35995,0.77281 -0.35995,1.53504c0,2.05379 1.14335,2.15964 1.4186,2.15964c0.52933,0 0.96337,-0.30701 1.21745,-0.67754c0.14821,-0.2329 0.14821,-0.26466 0.14821,-0.45521z"/></g><g fill="#000000" stroke="none" stroke-width="1"><path d="M276.54059,311.04913v0.24365c0,2.21849 1.29518,2.57754 1.83378,2.57754c0.53859,0 1.39778,-0.29494 1.73119,-1.37212c0.02564,-0.06412 0.0513,-0.12823 0.15388,-0.12823c0.07695,0 0.14107,0.0513 0.14107,0.12823c0,0.26929 -0.57706,1.65425 -2.10306,1.65425c-1.42342,0 -2.73143,-1.24389 -2.73143,-2.93661c0,-1.59013 1.12848,-2.91095 2.59036,-2.91095c1.55165,0 2.24412,1.20542 2.24412,2.50059c0,0.24365 -0.02564,0.24365 -0.30776,0.24365zM279.60542,310.80548c-0.01283,-0.436 -0.08976,-2.24412 -1.46188,-2.24412c-0.35905,0 -1.48754,0.23082 -1.59013,2.24412z"/><path d="M282.88267,313.04965c0,0.46165 0.02564,0.60271 0.96177,0.60271h0.25648v0.37188c-0.29494,-0.02564 -1.20542,-0.02564 -1.55165,-0.02564c-0.3847,0 -1.09,0 -1.44906,0.02564v-0.37188c0.83354,0 0.97459,0 0.97459,-0.57706v-3.4752c0,-0.62835 -0.10259,-0.71812 -0.97459,-0.71812v-0.37188l1.71836,-0.14107v1.42342h0.01283c0.07695,-0.24365 0.44883,-1.42342 1.53882,-1.42342c0.55142,0 0.89766,0.35906 0.89766,0.74377c0,0.34623 -0.25649,0.51294 -0.51295,0.51294c-0.20517,0 -0.50012,-0.14106 -0.50012,-0.51294c0,-0.34624 0.20517,-0.42319 0.30776,-0.47447c-0.0513,-0.01283 -0.07695,-0.01283 -0.17953,-0.01283c-0.98742,0 -1.50036,1.16696 -1.50036,2.41083z"/><path d="M287.81121,313.04965c0,0.46165 0.02564,0.60271 0.96177,0.60271h0.25648v0.37188c-0.29494,-0.02564 -1.20542,-0.02564 -1.55166,-0.02564c-0.3847,0 -1.09,0 -1.44906,0.02564v-0.37188c0.83353,0 0.9746,0 0.9746,-0.57706v-4.20614h-1.00024v-0.37188h1.00024v-1.50036c0,-1.30801 1.01305,-2.00046 1.91071,-2.00046c0.61554,0 1.07717,0.37187 1.07717,0.84634c0,0.30776 -0.20517,0.51293 -0.51294,0.51293c-0.29494,0 -0.50012,-0.20516 -0.50012,-0.50012c0,-0.37188 0.32058,-0.48729 0.37188,-0.50013c-0.15389,-0.07695 -0.34624,-0.10258 -0.44883,-0.10258c-0.52577,0 -1.11565,0.58989 -1.11565,1.74401v1.50036h1.47472v0.37188h-1.44907z"/><path d="M292.58231,308.587c-0.64118,0 -1.73118,0.52577 -1.73118,2.65449c0,1.94918 1.03871,2.62883 1.82095,2.62883c0.69247,0 1.38494,-0.3847 1.66706,-1.29518c0.03847,-0.15388 0.0513,-0.19235 0.1667,-0.19235c0.03847,0 0.12824,-0.00001 0.12824,0.11541c0,0.11542 -0.38471,1.65425 -2.07742,1.65425c-1.44907,0 -2.68013,-1.25672 -2.68013,-2.89813c0,-1.61577 1.19259,-2.94942 2.69295,-2.94942c1.03871,0 1.93636,0.61553 1.93636,1.47471c0,0.37188 -0.24364,0.55142 -0.53859,0.55142c-0.30776,0 -0.52577,-0.21801 -0.52577,-0.52577c0,-0.52577 0.47447,-0.52577 0.62835,-0.52577c-0.29494,-0.50012 -1.00023,-0.69248 -1.48754,-0.69248z"/></g><g fill="#000000" stroke="none" stroke-width="1"><path d="M287.25287,248.79142c0,0.28287 -0.00001,0.3253 -0.19802,0.3253c-0.16972,0 -0.16972,-0.04243 -0.198,-0.21215c-0.28288,-2.12154 -1.58409,-3.38032 -3.06917,-3.38032c-1.01833,0 -3.67734,0.62231 -3.67734,4.70981c0,4.12993 2.70142,4.72397 3.69149,4.72397c1.37193,0 3.01259,-0.99005 3.13988,-3.23889c0,-0.099 0.01415,-0.16972 0.15558,-0.16972c0.15558,0 0.15559,0.08485 0.15559,0.24044c0,1.55579 -1.31536,3.57834 -3.63491,3.57834c-2.55999,0 -4.82297,-2.20641 -4.82297,-5.13414c0,-2.88529 2.23469,-5.11996 4.82297,-5.11996c1.01833,0 1.9801,0.49501 2.61656,1.28705l0.69304,-1.11735c0.08486,-0.14141 0.09901,-0.1697 0.18387,-0.1697c0.14144,0 0.14144,0.07068 0.14144,0.32528z"/><path d="M289.76444,247.03761c-0.33944,0 -0.67889,-0.26873 -0.67889,-0.69303c0,-0.38189 0.31115,-0.6789 0.67889,-0.6789c0.39603,0 0.69305,0.32529 0.69305,0.69303c0,0.31116 -0.25459,0.6789 -0.69305,0.6789zM290.42919,248.83384v5.20485c0,0.5516 0.05658,0.62232 0.97591,0.62232v0.41017c-0.48089,-0.02829 -1.30122,-0.02829 -1.45679,-0.02829c-0.41017,0 -1.08906,0 -1.48508,0.02829v-0.41017c0.91934,0 1.07492,0 1.07492,-0.63646v-3.84706c0,-0.69305 -0.1273,-0.7779 -1.03249,-0.7779v-0.41017z"/></g><g fill="#000000" stroke="none" stroke-width="1"><path d="M243.67893,249.5693c0.5516,0.14144 1.18806,0.29702 1.71138,0.93348c0.38189,0.46673 0.70719,1.1032 0.70719,1.96596c0,1.55579 -1.14563,2.89945 -2.72972,2.89945c-1.21635,0 -2.10739,-0.48089 -2.61656,-1.04663c-0.11316,0.21215 -0.41017,0.73546 -0.46675,0.84862c-0.099,0.16972 -0.11316,0.19801 -0.198,0.19801c-0.14144,0 -0.14143,-0.07072 -0.14143,-0.3253v-2.85701c0,-0.25459 0,-0.32531 0.15557,-0.32531c0.02829,0 0.14143,0 0.15558,0.11315c0.01415,0.46675 0.07072,1.48508 0.89105,2.22055c0.69304,0.60817 1.56995,0.76376 2.20641,0.76376c1.17392,0 1.92352,-1.0042 1.92352,-2.06497c0,-0.79204 -0.43845,-1.55581 -1.10319,-1.88111c-0.19801,-0.08487 -0.97591,-0.28287 -1.47095,-0.39601c-1.0042,-0.25458 -1.49922,-0.38189 -1.99425,-0.93349c-0.52331,-0.56575 -0.76375,-1.18806 -0.76375,-1.86695c0,-1.44265 1.14563,-2.7014 2.71556,-2.7014c0.62232,0 1.55581,0.1697 2.23469,1.0466l0.46675,-0.86276c0.099,-0.18384 0.15559,-0.18384 0.198,-0.18384c0.14145,0 0.14145,0.07068 0.14145,0.32528v2.85701c0,0.25458 0,0.3253 -0.15559,0.3253c-0.14144,0 -0.14143,-0.05657 -0.16972,-0.22628c-0.08486,-0.60818 -0.39602,-2.89944 -2.71558,-2.89944c-1.1032,0 -1.89525,0.89104 -1.89525,1.88109c0,0.90519 0.63646,1.61238 1.35779,1.79624z"/><path d="M248.61442,247.0376c-0.33944,0 -0.67889,-0.26873 -0.67889,-0.69303c0,-0.38189 0.31115,-0.6789 0.67889,-0.6789c0.39603,0 0.69305,0.32529 0.69305,0.69303c0,0.31116 -0.25459,0.6789 -0.69305,0.6789zM249.27917,248.83381v5.20485c0,0.5516 0.05657,0.62232 0.9759,0.62232v0.41017c-0.48089,-0.02829 -1.30121,-0.02829 -1.45678,-0.02829c-0.41017,0 -1.08907,0 -1.48509,0.02829v-0.41017c0.91934,0 1.07493,0 1.07493,-0.63646v-3.84706c0,-0.69305 -0.1273,-0.7779 -1.0325,-0.7779v-0.41017z"/></g><g fill="#000000" stroke="none" stroke-width="1"><path d="M206.86991,255.05704h-7.87799v-0.41017h0.28288c1.01834,0 1.06077,-0.14144 1.06077,-0.66475v-7.48197c0,-0.52331 -0.04243,-0.66475 -1.06077,-0.66475h-0.28288v-0.41017h7.69413l0.36774,3.15402h-0.31116c-0.21215,-2.03668 -0.65061,-2.74385 -2.72972,-2.74385h-1.8811c-0.62232,0 -0.65061,0.09901 -0.65061,0.56574v3.45104h1.28708c1.35779,0 1.51336,-0.43846 1.51336,-1.6548h0.31117v3.71976h-0.31117c0,-1.21635 -0.15558,-1.6548 -1.51336,-1.6548h-1.28708v3.81877c0,0.46674 0.02829,0.56575 0.65061,0.56575h1.92353c2.39028,0 2.72972,-1.0042 3.06917,-3.21061h0.31115z"/><path d="M209.56751,247.02346c-0.33944,0 -0.67889,-0.26873 -0.67889,-0.69303c0,-0.38189 0.31115,-0.6789 0.67889,-0.6789c0.39603,0 0.69304,0.32529 0.69304,0.69303c0,0.31116 -0.25458,0.6789 -0.69304,0.6789zM210.23228,248.81972v5.20485c0,0.5516 0.05657,0.62232 0.9759,0.62232v0.41017c-0.48089,-0.02829 -1.30121,-0.02829 -1.45678,-0.02829c-0.41017,0 -1.08906,0 -1.48508,0.02829v-0.41017c0.91934,0 1.07492,0 1.07492,-0.63646v-3.84706c0,-0.69305 -0.1273,-0.7779 -1.03249,-0.7779v-0.41017z"/></g><g fill="#000000" stroke="none" stroke-width="1"><path d="M283.51874,283.95129c0,0.60596 0.16159,0.60595 1.0234,0.60595v0.39051c-0.37705,-0.02693 -1.05032,-0.02693 -1.45429,-0.02693c-0.40398,0 -1.06379,0 -1.44083,0.02693v-0.39051c0.87527,0 1.0234,0 1.0234,-0.60595v-7.05602c0,-0.65982 -0.10772,-0.75407 -1.0234,-0.75407v-0.39051l1.87174,-0.14813z"/><path d="M286.91243,276.90639c-0.33944,0 -0.67889,-0.26873 -0.67889,-0.69303c0,-0.38189 0.31115,-0.6789 0.67889,-0.6789c0.39603,0 0.69305,0.32529 0.69305,0.69303c0,0.31116 -0.25459,0.6789 -0.69305,0.6789zM287.57718,278.70259v5.20485c0,0.5516 0.05657,0.62232 0.9759,0.62232v0.41017c-0.48089,-0.02829 -1.30121,-0.02829 -1.45678,-0.02829c-0.41017,0 -1.08907,0 -1.48509,0.02829v-0.41017c0.91934,0 1.07493,0 1.07493,-0.63646v-3.84706c0,-0.69305 -0.1273,-0.7779 -1.0325,-0.7779v-0.41017z"/></g><g fill="#000000" stroke="none" stroke-width="1"><path d="M213.93604,278.74222h-0.29624c-0.18853,-1.8852 -0.53863,-2.61234 -2.3969,-2.61234h-1.44083c-0.59249,0 -0.61942,0.09426 -0.61942,0.53863v7.20413c0,0.48477 0.02694,0.64636 1.19846,0.64636h0.40397v0.39051c-0.39051,-0.02693 -1.57548,-0.02693 -2.04679,-0.02693c-0.40398,0 -1.60241,0 -1.92559,0.02693v-0.39051h0.26931c0.96952,0 1.00993,-0.13466 1.00993,-0.63288v-7.12335c0,-0.49823 -0.0404,-0.63288 -1.00993,-0.63288h-0.26931v-0.39051h6.77325z"/><path d="M198.13578,283.91724c0,0.60596 0.16159,0.60595 1.0234,0.60595v0.39051c-0.37705,-0.02693 -1.05032,-0.02693 -1.45429,-0.02693c-0.40398,0 -1.06379,0 -1.44083,0.02693v-0.39051c0.87527,0 1.0234,0 1.0234,-0.60595v-7.05602c0,-0.65982 -0.10772,-0.75407 -1.0234,-0.75407v-0.39051l1.87174,-0.14813z"/><path d="M205.46129,284.11924c0.01346,0.40397 0.35011,0.40397 1.0234,0.40397v0.39051c-0.35011,-0.02693 -1.07726,-0.02693 -1.46777,-0.02693c-0.37703,0 -1.10419,0 -1.45429,0.02693v-0.39051c0.87527,0 1.02339,0 1.02339,-0.60595v-3.16443c0,-0.82141 -0.18852,-1.50816 -1.02339,-1.50816c-0.83487,0 -1.76401,0.75408 -1.76401,2.16797v2.50462c0,0.60596 0.16159,0.60595 1.0234,0.60595v0.39051c-0.35011,-0.02693 -1.07725,-0.02693 -1.46776,-0.02693c-0.37705,0 -1.10419,0 -1.4543,0.02693v-0.39051c0.87527,0 1.0234,0 1.0234,-0.60595v-3.6492c0,-0.65982 -0.10773,-0.75407 -1.0234,-0.75407v-0.39051l1.83134,-0.14813v1.38696h0.01347c0.10773,-0.26932 0.61942,-1.38696 1.92559,-1.38696c0.45783,0 1.09072,0.08078 1.48123,0.60596c0.30972,0.4309 0.30972,0.80794 0.30972,2.06024z"/></g><g fill="#000000" stroke="none" stroke-width="1"><path d="M205.75772,308.90261c0.5516,0.14144 1.18806,0.29702 1.71138,0.93348c0.38189,0.46673 0.70719,1.1032 0.70719,1.96596c0,1.55579 -1.14563,2.89945 -2.72972,2.89945c-1.21635,0 -2.10739,-0.48089 -2.61656,-1.04663c-0.11316,0.21215 -0.41017,0.73546 -0.46675,0.84862c-0.099,0.16972 -0.11316,0.19801 -0.198,0.19801c-0.14144,0 -0.14143,-0.07072 -0.14143,-0.3253v-2.85701c0,-0.25459 0,-0.32531 0.15557,-0.32531c0.02829,0 0.14143,0 0.15558,0.11315c0.01415,0.46675 0.07072,1.48508 0.89105,2.22055c0.69304,0.60817 1.56995,0.76376 2.20641,0.76376c1.17392,0 1.92352,-1.0042 1.92352,-2.06497c0,-0.79204 -0.43845,-1.55581 -1.10319,-1.88111c-0.19801,-0.08487 -0.97591,-0.28287 -1.47095,-0.39601c-1.0042,-0.25458 -1.49922,-0.38189 -1.99425,-0.93349c-0.52331,-0.56575 -0.76375,-1.18806 -0.76375,-1.86695c0,-1.44265 1.14563,-2.7014 2.71556,-2.7014c0.62232,0 1.55581,0.1697 2.23469,1.0466l0.46675,-0.86276c0.099,-0.18384 0.15559,-0.18384 0.198,-0.18384c0.14145,0 0.14145,0.07068 0.14145,0.32528v2.85701c0,0.25458 0,0.3253 -0.15559,0.3253c-0.14144,0 -0.14143,-0.05657 -0.16972,-0.22628c-0.08486,-0.60818 -0.39602,-2.89944 -2.71558,-2.89944c-1.1032,0 -1.89525,0.89104 -1.89525,1.88109c0,0.90519 0.63646,1.61238 1.35779,1.79624z"/><path d=""/></g><g fill="#000000" stroke="none" stroke-width="1"><path d="M249.32898,308.12469c0,0.28287 -0.00001,0.3253 -0.19802,0.3253c-0.16972,0 -0.16972,-0.04243 -0.198,-0.21215c-0.28288,-2.12154 -1.58409,-3.38032 -3.06917,-3.38032c-1.01833,0 -3.67734,0.62231 -3.67734,4.70981c0,4.12993 2.70142,4.72397 3.69149,4.72397c1.37193,0 3.01259,-0.99005 3.13988,-3.23889c0,-0.099 0.01415,-0.16972 0.15558,-0.16972c0.15558,0 0.15559,0.08485 0.15559,0.24044c0,1.55579 -1.31536,3.57834 -3.63491,3.57834c-2.55999,0 -4.82297,-2.20641 -4.82297,-5.13414c0,-2.88529 2.23469,-5.11996 4.82297,-5.11996c1.01833,0 1.9801,0.49501 2.61656,1.28705l0.69304,-1.11735c0.08486,-0.14141 0.09901,-0.1697 0.18387,-0.1697c0.14144,0 0.14144,0.07068 0.14144,0.32528z"/><path d=""/></g></g><g stroke-linecap="butt"><path d="M351.55747,263.06336c-6.7336,0 -28.27729,0 -32.63067,0c-1.51414,0 -2.51026,-0.95831 -2.51026,-2.4908c0,-5.38467 0,-17.85811 0,-20.75669c0,-1.17748 0.83864,-2.32476 2.27173,-2.32476c4.30441,0 26.35938,0 32.92602,0c1.18062,0 2.16929,0.87327 2.16929,1.82658c0,2.7465 0,16.26468 0,21.58696c0,1.33855 -0.9369,2.1587 -2.22611,2.1587z" data-paper-data="{&quot;index&quot;:null}" fill-opacity="0.91765" fill="#fff6d1" stroke="#d0d0d0" stroke-width="0.5"/><path d="M351.55747,293.06336c-6.7336,0 -28.27729,0 -32.63067,0c-1.51414,0 -2.51026,-0.95831 -2.51026,-2.4908c0,-5.38467 0,-17.85811 0,-20.75669c0,-1.17748 0.83864,-2.32476 2.27173,-2.32476c4.30441,0 26.35938,0 32.92602,0c1.18062,0 2.16929,0.87327 2.16929,1.82658c0,2.7465 0,16.26468 0,21.58696c0,1.33855 -0.9369,2.1587 -2.22611,2.1587z" data-paper-data="{&quot;index&quot;:null}" fill-opacity="0.91765" fill="#fff6d1" stroke="#d0d0d0" stroke-width="0.5"/><path d="M351.55747,323.06336c-6.7336,0 -28.27729,0 -32.63067,0c-1.51414,0 -2.51026,-0.95831 -2.51026,-2.4908c0,-5.38467 0,-17.85811 0,-20.75669c0,-1.17748 0.83864,-2.32476 2.27173,-2.32476c4.30441,0 26.35938,0 32.92602,0c1.18062,0 2.16929,0.87327 2.16929,1.82658c0,2.7465 0,16.26468 0,21.58696c0,1.33855 -0.9369,2.1587 -2.22611,2.1587z" data-paper-data="{&quot;index&quot;:null}" fill-opacity="0.91765" fill="#fff6d1" stroke="#d0d0d0" stroke-width="0.5"/><path d="M351.55747,353.06343c-6.7336,0 -28.27729,0 -32.63067,0c-1.51414,0 -2.51026,-0.95831 -2.51026,-2.4908c0,-5.38467 0,-17.85811 0,-20.75669c0,-1.17748 0.83864,-2.32476 2.27173,-2.32476c4.30441,0 26.35938,0 32.92602,0c1.18062,0 2.16929,0.87327 2.16929,1.82658c0,2.7465 0,16.26468 0,21.58696c0,1.33855 -0.9369,2.1587 -2.22611,2.1587z" data-paper-data="{&quot;index&quot;:null}" fill-opacity="0.91765" fill="#fff6d1" stroke="#d0d0d0" stroke-width="0.5"/><path d="M391.55747,263.06336c-6.7336,0 -28.27729,0 -32.63067,0c-1.51414,0 -2.51026,-0.95831 -2.51026,-2.4908c0,-5.38467 0,-17.85811 0,-20.75669c0,-1.17748 0.83864,-2.32476 2.27173,-2.32476c4.30441,0 26.35938,0 32.92602,0c1.18062,0 2.16929,0.87327 2.16929,1.82658c0,2.7465 0,16.26468 0,21.58696c0,1.33855 -0.9369,2.1587 -2.22611,2.1587z" data-paper-data="{&quot;index&quot;:null}" fill-opacity="0.91765" fill="#fff6d1" stroke="#d0d0d0" stroke-width="0.5"/><path d="M391.55747,293.06336c-6.7336,0 -28.27729,0 -32.63067,0c-1.51414,0 -2.51026,-0.95831 -2.51026,-2.4908c0,-5.38467 0,-17.85811 0,-20.75669c0,-1.17748 0.83864,-2.32476 2.27173,-2.32476c4.30441,0 26.35938,0 32.92602,0c1.18062,0 2.16929,0.87327 2.16929,1.82658c0,2.7465 0,16.26468 0,21.58696c0,1.33855 -0.9369,2.1587 -2.22611,2.1587z" data-paper-data="{&quot;index&quot;:null}" fill-opacity="0.91765" fill="#fff6d1" stroke="#d0d0d0" stroke-width="0.5"/><path d="M391.55747,323.06336c-6.7336,0 -28.27729,0 -32.63067,0c-1.51414,0 -2.51026,-0.95831 -2.51026,-2.4908c0,-5.38467 0,-17.85811 0,-20.75669c0,-1.17748 0.83864,-2.32476 2.27173,-2.32476c4.30441,0 26.35938,0 32.92602,0c1.18062,0 2.16929,0.87327 2.16929,1.82658c0,2.7465 0,16.26468 0,21.58696c0,1.33855 -0.9369,2.1587 -2.22611,2.1587z" data-paper-data="{&quot;index&quot;:null}" fill-opacity="0.91765" fill="#fff6d1" stroke="#d0d0d0" stroke-width="0.5"/><path d="M391.55747,353.06341c-6.7336,0 -28.27729,0 -32.63067,0c-1.51414,0 -2.51026,-0.95831 -2.51026,-2.4908c0,-5.38467 0,-17.85811 0,-20.75669c0,-1.17748 0.83864,-2.32476 2.27173,-2.32476c4.30441,0 26.35938,0 32.92602,0c1.18062,0 2.16929,0.87327 2.16929,1.82658c0,2.7465 0,16.26468 0,21.58696c0,1.33855 -0.9369,2.1587 -2.22611,2.1587z" data-paper-data="{&quot;index&quot;:null}" fill-opacity="0.91765" fill="#fff6d1" stroke="#d0d0d0" stroke-width="0.5"/><g fill="#000000" stroke="none" stroke-width="1"><path d="M372.48775,253.8299c0.01295,0.3873 0.33565,0.3873 0.98114,0.3873v0.37439c-0.33565,-0.02582 -1.03279,-0.02582 -1.40714,-0.02582c-0.36148,0 -1.05861,0 -1.39427,0.02582v-0.37439c0.83914,0 0.98115,0 0.98115,-0.58094v-3.0338c0,-0.7875 -0.18074,-1.44591 -0.98115,-1.44591c-0.80042,0 -1.69118,0.72295 -1.69118,2.07849v2.40124c0,0.58094 0.15491,0.58094 0.98114,0.58094v0.37439c-0.33565,-0.02582 -1.03279,-0.02582 -1.40717,-0.02582c-0.36147,0 -1.05861,0 -1.39426,0.02582v-0.37439c0.83915,0 0.98115,0 0.98115,-0.58094v-3.0338c0,-0.7875 -0.18075,-1.44591 -0.98115,-1.44591c-0.80041,0 -1.69118,0.72295 -1.69118,2.07849v2.40124c0,0.58094 0.15492,0.58094 0.98114,0.58094v0.37439c-0.33565,-0.02582 -1.03278,-0.02582 -1.40717,-0.02582c-0.36148,0 -1.05861,0 -1.39426,0.02582v-0.37439c0.83914,0 0.98115,0 0.98115,-0.58094v-3.49858c0,-0.63258 -0.10328,-0.72295 -0.98115,-0.72295v-0.37439l1.75574,-0.14202v1.32971h0.01291c0.10328,-0.2582 0.59385,-1.32971 1.84611,-1.32971c0.81333,0 1.51046,0.28401 1.69119,1.27807c0.20656,-0.50348 0.74877,-1.27807 1.82029,-1.27807c0.43894,0 1.0457,0.07746 1.42009,0.58095c0.2969,0.4131 0.2969,0.77458 0.2969,1.9752z"/><path d="M378.70902,253.40389c0,0.19365 0,0.87788 0.49058,0.87788c0.18074,0 0.49057,-0.10328 0.49057,-0.83914v-0.72296h0.28403v0.72296c0,1.03278 -0.74877,1.21353 -1.01989,1.21353c-0.55513,0 -0.95533,-0.46476 -1.00697,-1.07152c-0.24529,0.61967 -0.82624,1.13606 -1.67829,1.13606c-0.7875,0 -1.97521,-0.32275 -1.97521,-1.34262c0,-0.99406 0.98114,-2.07849 3.57603,-2.11722v-0.51639c0,-1.16188 -0.7617,-1.65246 -1.35555,-1.65246c-0.5164,0 -1.13607,0.23237 -1.433,0.77458c0.19365,0 0.65841,0 0.65841,0.52932c0,0.30984 -0.21947,0.5293 -0.52931,0.5293c-0.29692,0 -0.54221,-0.18074 -0.54221,-0.55512c0,-0.83914 0.81333,-1.53627 1.87194,-1.53627c0.56803,0 1.14898,0.18073 1.60082,0.59385c0.56803,0.50348 0.56803,1.01989 0.56803,1.71702zM377.86988,251.4932c-0.46475,0.02583 -2.65943,0.18074 -2.65943,1.88485c0,0.61967 0.52931,1.08443 1.16189,1.08443c0.55513,0 1.49755,-0.42602 1.49755,-1.69118z"/><path d="M385.32914,253.77826c0.30984,0.41312 0.54221,0.43894 1.22645,0.43894v0.37439c-0.7746,-0.02582 -0.80042,-0.02582 -1.22645,-0.02582c-0.36148,0 -0.99406,0 -1.32971,0.02582v-0.37439c0.34858,-0.01291 0.45185,-0.21946 0.45185,-0.32275c0,-0.07747 0,-0.10328 -0.21947,-0.3873l-1.05861,-1.38135c-0.30984,0.40022 -0.73586,0.92951 -0.9295,1.20061c-0.1291,0.16782 -0.21947,0.27111 -0.21947,0.47767c0,0.18074 0.05165,0.37439 0.36148,0.41312v0.37439c-0.64549,-0.02582 -0.67132,-0.02582 -1.16188,-0.02582c-0.55513,0 -0.58094,0 -1.07152,0.02582v-0.37439c0.55513,-0.01291 1.12315,-0.15491 1.69118,-0.85205c0.1291,-0.16782 1.13607,-1.43299 1.13607,-1.47171c0,-0.03873 -0.05165,-0.1162 -0.07746,-0.14202l-1.51045,-1.97522c-0.27111,-0.34858 -0.5164,-0.37439 -1.1748,-0.37439v-0.37438c0.7875,0.02581 0.81332,0.02581 1.23935,0.02581c0.34858,0 1.00697,0 1.32971,-0.02581v0.37438c-0.3873,0.01291 -0.45184,0.2453 -0.45184,0.32275c0,0.09038 0.07747,0.20655 0.11619,0.25821l1.00698,1.32971l0.82623,-1.04571c0.07746,-0.10328 0.19366,-0.24528 0.19366,-0.46475c0,-0.29692 -0.20655,-0.37439 -0.37438,-0.40022v-0.37439c0.64549,0.02581 0.67132,0.02582 1.16189,0.02582c0.50348,0 0.5293,-0.00001 1.08443,-0.02582v0.37439c-0.41311,0 -1.01988,0.09036 -1.54919,0.68422c-0.24529,0.27111 -0.7875,0.96824 -1.16188,1.45882z"/></g><g fill="#000000" stroke="none" stroke-width="1"><path d="M333.79025,253.80809c0.01295,0.3873 0.33565,0.3873 0.98113,0.3873v0.37439c-0.33565,-0.02582 -1.03279,-0.02582 -1.40714,-0.02582c-0.36148,0 -1.05861,0 -1.39426,0.02582v-0.37439c0.83914,0 0.98114,0 0.98114,-0.58094v-3.0338c0,-0.7875 -0.18073,-1.44591 -0.98114,-1.44591c-0.80042,0 -1.69119,0.72295 -1.69119,2.07849v2.40124c0,0.58094 0.15491,0.58094 0.98115,0.58094v0.37439c-0.33565,-0.02582 -1.03279,-0.02582 -1.40717,-0.02582c-0.36147,0 -1.05861,0 -1.39426,0.02582v-0.37439c0.83915,0 0.98114,0 0.98114,-0.58094v-3.0338c0,-0.7875 -0.18074,-1.44591 -0.98114,-1.44591c-0.80041,0 -1.69119,0.72295 -1.69119,2.07849v2.40124c0,0.58094 0.15493,0.58094 0.98115,0.58094v0.37439c-0.33565,-0.02582 -1.03278,-0.02582 -1.40717,-0.02582c-0.36148,0 -1.05861,0 -1.39426,0.02582v-0.37439c0.83914,0 0.98114,0 0.98114,-0.58094v-3.49858c0,-0.63258 -0.10328,-0.72295 -0.98114,-0.72295v-0.37439l1.75574,-0.14202v1.32971h0.01291c0.10328,-0.2582 0.59385,-1.32971 1.84611,-1.32971c0.81333,0 1.51046,0.28401 1.69118,1.27807c0.20656,-0.50348 0.74877,-1.27807 1.8203,-1.27807c0.43894,0 1.0457,0.07746 1.42008,0.58095c0.2969,0.4131 0.2969,0.77458 0.2969,1.9752z"/><path d="M336.64203,247.23697c-0.30984,0 -0.61967,-0.24529 -0.61967,-0.63258c0,-0.34858 0.28402,-0.61968 0.61967,-0.61968c0.36148,0 0.63258,0.29691 0.63258,0.63258c0,0.28402 -0.23237,0.61968 -0.63258,0.61968zM337.24881,248.87652v4.75083c0,0.50348 0.05164,0.56803 0.89077,0.56803v0.37439c-0.43894,-0.02582 -1.18771,-0.02582 -1.32971,-0.02582c-0.37439,0 -0.99406,0 -1.35554,0.02582v-0.37439c0.83914,0 0.98115,0 0.98115,-0.58094v-3.51148c0,-0.63259 -0.1162,-0.71004 -0.94243,-0.71004v-0.37439z"/><path d="M344.27193,253.80809c0.0129,0.3873 0.33566,0.3873 0.98115,0.3873v0.37439c-0.33565,-0.02582 -1.03279,-0.02582 -1.40718,-0.02582c-0.36147,0 -1.05861,0 -1.39426,0.02582v-0.37439c0.83915,0 0.98115,0 0.98115,-0.58094v-3.0338c0,-0.7875 -0.18075,-1.44591 -0.98115,-1.44591c-0.80041,0 -1.69118,0.72295 -1.69118,2.07849v2.40124c0,0.58094 0.15492,0.58094 0.98115,0.58094v0.37439c-0.33565,-0.02582 -1.03278,-0.02582 -1.40717,-0.02582c-0.36148,0 -1.05861,0 -1.39427,0.02582v-0.37439c0.83914,0 0.98115,0 0.98115,-0.58094v-3.49858c0,-0.63258 -0.10328,-0.72295 -0.98115,-0.72295v-0.37439l1.75575,-0.14202v1.32971h0.01291c0.10328,-0.2582 0.59385,-1.32971 1.84611,-1.32971c0.43893,0 1.0457,0.07746 1.42008,0.58095c0.29694,0.4131 0.29694,0.77458 0.29694,1.9752z"/></g><g fill="#000000" stroke="none" stroke-width="1"><path d="M372.55016,314.31478c-1.51877,0 -2.85103,-1.27896 -2.85103,-2.98425c0,-1.67865 1.26564,-3.09082 2.86435,-3.09082c1.54542,0 2.85102,1.37221 2.85102,3.09082c0,1.67865 -1.29229,2.98425 -2.86434,2.98425zM374.05561,313.12906c0.34639,-0.62615 0.34638,-1.45216 0.34638,-1.91845c0,-0.49293 0.00001,-1.33226 -0.413,-1.9451c-0.35972,-0.51958 -0.91926,-0.75939 -1.43884,-0.75939c-0.46629,0 -1.05249,0.21316 -1.42552,0.78604c-0.41301,0.59951 -0.413,1.41219 -0.413,1.91845c0,0.55955 0.01331,1.34556 0.37303,1.94509c0.38636,0.65281 0.98587,0.86597 1.47881,0.86597c0.50625,0 1.11909,-0.25313 1.49212,-0.89261z"/><path d="M378.02298,313.169c0,0.4796 0.02665,0.62616 0.9992,0.62616h0.26645v0.38636c-0.30642,-0.02665 -1.25231,-0.02665 -1.61203,-0.02665c-0.39967,0 -1.13242,0 -1.50545,0.02665v-0.38636c0.86597,0 1.01251,0 1.01251,-0.59951v-3.61042c0,-0.65281 -0.10658,-0.74605 -1.01251,-0.74605v-0.38636l1.78522,-0.14656v1.4788h0.01333c0.07994,-0.25313 0.46629,-1.4788 1.5987,-1.4788c0.57287,0 0.93259,0.37303 0.93259,0.77271c0,0.3597 -0.26646,0.5329 -0.53291,0.5329c-0.21316,0 -0.51958,-0.14654 -0.51958,-0.5329c0,-0.35972 0.21315,-0.43965 0.31974,-0.49293c-0.0533,-0.01333 -0.07993,-0.01333 -0.18652,-0.01333c-1.02584,0 -1.55875,1.21236 -1.55875,2.50465z"/></g><g fill="#000000" stroke="none" stroke-width="1"><path d="M329.6599,313.10785c0,0.19983 0,0.90594 0.50626,0.90594c0.18651,0 0.50625,-0.10657 0.50625,-0.86596v-0.74607h0.29311v0.74607c0,1.0658 -0.77271,1.25231 -1.05249,1.25231c-0.57287,0 -0.98587,-0.47961 -1.03915,-1.10577c-0.25313,0.63948 -0.85265,1.17238 -1.73194,1.17238c-0.81268,0 -2.03835,-0.33306 -2.03835,-1.38554c0,-1.02584 1.01251,-2.14494 3.69035,-2.18491v-0.5329c0,-1.19903 -0.78604,-1.70529 -1.39887,-1.70529c-0.53291,0 -1.1724,0.23981 -1.47881,0.79935c0.19983,0 0.67946,0 0.67946,0.54624c0,0.31974 -0.22649,0.54622 -0.54623,0.54622c-0.30642,0 -0.55955,-0.18652 -0.55955,-0.57287c0,-0.86596 0.83932,-1.58539 1.93178,-1.58539c0.58619,0 1.18571,0.18652 1.652,0.61283c0.58619,0.51958 0.58619,1.05249 0.58619,1.77191zM328.79394,311.13615c-0.4796,0.02666 -2.74444,0.18652 -2.74444,1.94511c0,0.63948 0.54623,1.11909 1.19903,1.11909c0.57287,0 1.54542,-0.43965 1.54542,-1.74525z"/><path d="M336.9437,313.54751c0.01332,0.39968 0.34638,0.39968 1.01252,0.39968v0.38636c-0.34639,-0.02665 -1.06582,-0.02665 -1.45217,-0.02665c-0.37303,0 -1.09244,0 -1.43884,0.02665v-0.38636c0.86597,0 1.01252,0 1.01252,-0.59951v-3.13079c0,-0.81268 -0.18652,-1.49213 -1.01252,-1.49213c-0.826,0 -1.74525,0.74606 -1.74525,2.14493v2.47799c0,0.59951 0.15988,0.59951 1.01252,0.59951v0.38636c-0.34639,-0.02665 -1.0658,-0.02665 -1.45216,-0.02665c-0.37304,0 -1.09245,0 -1.43884,0.02665v-0.38636c0.86596,0 1.01252,0 1.01252,-0.59951v-3.61042c0,-0.65281 -0.10658,-0.74605 -1.01252,-0.74605v-0.38636l1.81187,-0.14656v1.37222h0.01333c0.10659,-0.26645 0.61283,-1.37222 1.90512,-1.37222c0.45297,0 1.07913,0.07993 1.46548,0.59952c0.30643,0.42631 0.30643,0.79936 0.30643,2.03834z"/><path d="M344.08401,305.0877v8.11343c0,0.65281 0.10658,0.74607 1.01252,0.74607v0.38636l-1.87848,0.13323v-0.91926c-0.18652,0.25313 -0.77271,0.91926 -1.78523,0.91926c-1.46547,0 -2.73112,-1.30562 -2.73112,-2.99757c0,-1.7053 1.33226,-3.0109 2.87768,-3.0109c0.81267,0 1.38554,0.46628 1.66532,0.85264v-2.94429c0,-0.65281 -0.10658,-0.74605 -1.01252,-0.74605v-0.38636zM343.21803,310.03038c0,-0.2398 0,-0.26645 -0.15988,-0.49294c-0.13323,-0.21316 -0.59951,-0.81268 -1.42551,-0.81268c-0.66614,0 -1.19903,0.413 -1.46547,0.826c-0.2931,0.43965 -0.45297,0.97254 -0.45297,1.93177c0,2.58459 1.43884,2.7178 1.78522,2.7178c0.66614,0 1.21235,-0.38636 1.5321,-0.85264c0.18652,-0.29309 0.18652,-0.33305 0.18652,-0.57286z"/></g><g fill="#000000" stroke="none" stroke-width="1"><path d="M371.78486,283.77128c0.01332,0.39968 0.34638,0.39968 1.01252,0.39968v0.38636c-0.34639,-0.02665 -1.06581,-0.02665 -1.45216,-0.02665c-0.37303,0 -1.09245,0 -1.43884,0.02665v-0.38636c0.86597,0 1.01252,0 1.01252,-0.59951v-3.13079c0,-0.81268 -0.18652,-1.49213 -1.01252,-1.49213c-0.826,0 -1.74525,0.74606 -1.74525,2.14493v2.47799c0,0.59951 0.15988,0.59951 1.01252,0.59951v0.38636c-0.34639,-0.02665 -1.0658,-0.02665 -1.45216,-0.02665c-0.37304,0 -1.09245,0 -1.43884,0.02665v-0.38636c0.86596,0 1.01251,0 1.01251,-0.59951v-3.61042c0,-0.65281 -0.10658,-0.74605 -1.01251,-0.74605v-0.38636l1.81187,-0.14656v1.37222h0.01333c0.10659,-0.26645 0.61283,-1.37222 1.90512,-1.37222c0.45297,0 1.07913,0.07993 1.46548,0.59952c0.30643,0.42631 0.30643,0.79936 0.30643,2.03834z"/><path d="M376.32632,284.69052c-1.51877,0 -2.85104,-1.27896 -2.85104,-2.98425c0,-1.67865 1.26564,-3.09082 2.86435,-3.09082c1.54542,0 2.85102,1.37221 2.85102,3.09082c0,1.67865 -1.29229,2.98425 -2.86435,2.98425zM377.83175,283.50485c0.34639,-0.62615 0.34639,-1.45216 0.34639,-1.91845c0,-0.49293 0,-1.33226 -0.41301,-1.9451c-0.35972,-0.51958 -0.91926,-0.75939 -1.43884,-0.75939c-0.46629,0 -1.05249,0.21316 -1.42551,0.78604c-0.41301,0.59951 -0.41301,1.41219 -0.41301,1.91845c0,0.55955 0.01332,1.34556 0.37303,1.94509c0.38636,0.65281 0.98587,0.86597 1.47881,0.86597c0.50625,0 1.11909,-0.25313 1.49212,-0.89261z"/><path d="M381.81249,282.93197c0,0.22649 0,1.46548 0.90594,1.46548c0.51958,0 0.90593,-0.55955 0.90593,-1.51877v-0.73274h0.2931v0.75938c0,0.95922 -0.43964,1.78523 -1.27897,1.78523c-0.7061,0 -1.69197,-0.30642 -1.69197,-1.78523v-3.70367h-1.13242v-0.26645c1.21235,-0.03997 1.69197,-1.31894 1.70528,-2.57125h0.29311v2.45135h1.87847v0.38636h-1.87847z"/></g><g fill="#000000" stroke="none" stroke-width="1"><path d="M332.46212,277.39955c-0.31974,0 -0.63948,-0.25313 -0.63948,-0.65281c0,-0.35972 0.29309,-0.63949 0.63948,-0.63949c0.37303,0 0.65281,0.30642 0.65281,0.65281c0,0.29311 -0.2398,0.63949 -0.65281,0.63949zM333.08827,279.09155v4.9027c0,0.51958 0.05329,0.58619 0.91925,0.58619v0.38636c-0.45297,-0.02665 -1.22568,-0.02665 -1.37222,-0.02665c-0.38636,0 -1.02584,0 -1.39887,0.02665v-0.38636c0.86597,0 1.01252,0 1.01252,-0.59951v-3.62373c0,-0.65281 -0.11991,-0.73274 -0.97255,-0.73274v-0.38636z"/><path d="M336.69886,283.95426c0,0.4796 0.02664,0.62616 0.99919,0.62616h0.26645v0.38636c-0.30642,-0.02665 -1.25231,-0.02665 -1.61203,-0.02665c-0.39967,0 -1.13241,0 -1.50544,0.02665v-0.38636c0.86597,0 1.01252,0 1.01252,-0.59951v-4.3698h-1.03917v-0.38635h1.03917v-1.55875c0,-1.35889 1.05247,-2.0783 1.98505,-2.0783c0.63949,0 1.11909,0.38634 1.11909,0.87928c0,0.31974 -0.21316,0.5329 -0.53291,0.5329c-0.30642,0 -0.51958,-0.21315 -0.51958,-0.51958c0,-0.38636 0.33306,-0.50625 0.38636,-0.51958c-0.15988,-0.07993 -0.35972,-0.10658 -0.46629,-0.10658c-0.54623,0 -1.15907,0.61284 -1.15907,1.81187v1.55875h1.5321v0.38636h-1.50545z"/></g><path d="M375.38293,345.83989c0,0.25459 -0.00001,0.50917 -0.28288,0.50917c-0.28287,0 -0.28286,-0.25458 -0.28286,-0.50917v-13.12528c0,-0.25456 -0.00002,-0.50911 0.28286,-0.50911c0.28288,0 0.28288,0.25455 0.28288,0.50911z" fill="#000000" stroke="none" stroke-width="1"/><g><path d="M391.5408,352.88625c-6.7336,0 -28.27729,0 -32.63067,0c-1.51414,0 -2.51026,-0.95831 -2.51026,-2.4908c0,-5.38467 0,-17.85811 0,-20.75669c0,-1.17748 0.83864,-2.32476 2.27173,-2.32476c4.30441,0 26.35938,0 32.92602,0c1.18062,0 2.16929,0.87327 2.16929,1.82658c0,2.7465 0,16.26468 0,21.58696c0,1.33855 -0.9369,2.1587 -2.22611,2.1587z" data-paper-data="{&quot;index&quot;:null}" fill-opacity="0.91765" fill="#d1e4ff" stroke="#d0d0d0" stroke-width="0.5"/><path d="M375.74386,335.02711c1.15873,1.11391 4.84349,4.54298 4.86665,4.58665c0.06952,0.10921 0.06952,0.19657 0.06952,0.24024c0,0.24024 -0.18539,0.43683 -0.46347,0.43683c-0.13906,0 -0.30128,-0.10921 -0.34762,-0.13105l-4.79715,-4.52113l-4.61172,4.34642c-0.27809,0.26209 -0.32445,0.30578 -0.50986,0.30578c-0.23174,0 -0.46347,-0.19657 -0.46347,-0.43683c0,-0.15289 0.04635,-0.19657 0.30128,-0.43683l4.63491,-4.39008l0.67208,-0.61154z" fill="#000000" stroke="none" stroke-width="1"/><path d="M370.03526,344.15156c-0.25711,0 -0.54852,0 -0.54852,-0.44434c0,-0.42094 0.30855,-0.42094 0.54852,-0.42094h10.09621c0.25712,0 0.54857,0 0.54857,0.44434c0,0.42094 -0.30859,0.42096 -0.54857,0.42096z" fill="#000000" stroke="none" stroke-width="1"/></g><g fill="#000000" stroke="none" stroke-width="1"><path d="M328.92464,340.29991c0.02263,-0.02262 0.07919,-0.0792 0.07919,-0.11314c0,-0.02262 -0.03394,-0.11314 -0.05657,-0.19232c-0.28284,-0.78062 -0.38466,-1.54993 -0.38466,-2.08166c0,-1.18791 0.79193,-1.7988 1.48204,-1.7988c0.9277,0 0.93901,1.31232 0.93901,1.42546c0,0.8485 -1.04082,1.96852 -1.33498,2.28529c0.52042,1.35761 1.67438,2.82832 1.8667,3.06591c0.04527,-0.05657 0.39597,-0.48648 0.80325,-1.14264c0.28284,-0.46385 0.5883,-0.97295 0.81457,-1.39154c0.04527,-0.09051 0.04526,-0.15838 0.04526,-0.20364c0,-0.31677 -0.31678,-0.49778 -0.79194,-0.49778v-0.32809c0.2602,0.02262 0.98426,0.02262 1.28973,0.02262c0.37333,0 0.74668,-0.0113 1.12002,-0.02262v0.32809c-0.98427,0.01132 -1.22185,0.4299 -1.61781,1.12001c-0.5883,0.99558 -0.97295,1.66306 -1.50468,2.31923c0.47516,0.55436 0.98426,1.0182 1.53861,1.0182c0.55436,0 1.25579,-0.41859 1.27841,-1.27841h0.24893c-0.02264,0.96163 -0.72408,1.60649 -1.57258,1.60649c-0.96164,0 -1.66306,-0.62223 -1.9459,-0.87113c-0.57698,0.54305 -1.25578,0.87113 -2.01377,0.87113c-1.06345,0 -2.00246,-0.70142 -2.00246,-1.68568c0,-0.45253 0.22627,-0.82587 0.41859,-1.04082zM330.73477,337.55078c0,-0.22626 -0.04527,-1.21053 -0.66749,-1.21053c-0.40727,0 -0.83719,0.39597 -0.83719,1.31235c0,0.49779 0.10183,1.2671 0.33941,1.92327c0.23758,-0.27152 1.16527,-1.28972 1.16527,-2.02508zM328.41554,341.21629c-0.30547,0.41859 -0.35072,0.89375 -0.35072,1.18789c0,0.69011 0.31678,1.70832 1.24448,1.70832c0.32809,0 1.0182,-0.0792 1.71962,-0.73537c-0.72405,-0.80325 -1.47074,-1.91195 -1.92327,-2.94146c-0.0905,0.10182 -0.6788,0.74668 -0.69011,0.78061z"/><path d="M337.12351,340.29991c0.02263,-0.02262 0.07919,-0.0792 0.07919,-0.11314c0,-0.02262 -0.03394,-0.11314 -0.05657,-0.19232c-0.28284,-0.78062 -0.38466,-1.54993 -0.38466,-2.08166c0,-1.18791 0.79193,-1.7988 1.48204,-1.7988c0.9277,0 0.93901,1.31232 0.93901,1.42546c0,0.8485 -1.04082,1.96852 -1.33498,2.28529c0.52042,1.35761 1.67438,2.82832 1.8667,3.06591c0.04527,-0.05657 0.39597,-0.48648 0.80325,-1.14264c0.28284,-0.46385 0.5883,-0.97295 0.81457,-1.39154c0.04527,-0.09051 0.04526,-0.15838 0.04526,-0.20364c0,-0.31677 -0.31678,-0.49778 -0.79194,-0.49778v-0.32809c0.2602,0.02262 0.98426,0.02262 1.28973,0.02262c0.37333,0 0.74668,-0.0113 1.12002,-0.02262v0.32809c-0.98427,0.01132 -1.22185,0.4299 -1.61781,1.12001c-0.5883,0.99558 -0.97295,1.66306 -1.50468,2.31923c0.47516,0.55436 0.98426,1.0182 1.53861,1.0182c0.55436,0 1.25579,-0.41859 1.27841,-1.27841h0.24893c-0.02264,0.96163 -0.72408,1.60649 -1.57258,1.60649c-0.96164,0 -1.66306,-0.62223 -1.9459,-0.87113c-0.57698,0.54305 -1.25578,0.87113 -2.01377,0.87113c-1.06345,0 -2.00246,-0.70142 -2.00246,-1.68568c0,-0.45253 0.22627,-0.82587 0.41859,-1.04082zM338.93365,337.55078c0,-0.22626 -0.04527,-1.21053 -0.66749,-1.21053c-0.40727,0 -0.83719,0.39597 -0.83719,1.31235c0,0.49779 0.10183,1.2671 0.33941,1.92327c0.23758,-0.27152 1.16527,-1.28972 1.16527,-2.02508zM336.61441,341.21629c-0.30547,0.41859 -0.35072,0.89375 -0.35072,1.18789c0,0.69011 0.31678,1.70832 1.24448,1.70832c0.32809,0 1.0182,-0.0792 1.71962,-0.73537c-0.72405,-0.80325 -1.47074,-1.91195 -1.92327,-2.94146c-0.0905,0.10182 -0.6788,0.74668 -0.69011,0.78061z"/></g></g></g></g></svg>