<svg version="1.1" xmlns="http://www.w3.org/2000/svg" xmlns:xlink="http://www.w3.org/1999/xlink" width="11.50577" height="23.97298" viewBox="0,0,11.50577,23.97298"><g transform="translate(-234.31785,-172.17376)"><g data-paper-data="{&quot;isPaintingLayer&quot;:true}" fill-rule="nonzero" stroke="none" stroke-width="1" stroke-linecap="butt" stroke-linejoin="miter" stroke-miterlimit="10" stroke-dasharray="" stroke-dashoffset="0" style="mix-blend-mode: normal"><text transform="translate(234.388,194.4304) scale(0.1403,0.1403)" font-size="40" xml:space="preserve" fill="#000000" fill-rule="nonzero" stroke="none" stroke-width="1" stroke-linecap="butt" stroke-linejoin="miter" stroke-miterlimit="10" stroke-dasharray="" stroke-dashoffset="0" font-family="Sans Serif" font-weight="normal" text-anchor="start" style="mix-blend-mode: normal"><tspan x="0" dy="0">绘图</tspan></text><g fill="#ff9400"><path d="M239.68065,177.32979c-0.08537,0.5122 -0.92195,5.05361 -1.22926,6.36823c-0.18781,0.85365 -0.90488,3.97801 -2.64632,3.97801c-0.66584,0 -1.41706,-0.3756 -1.41706,-1.10974c0,-0.64877 0.51219,-0.93902 0.85365,-0.93902c0.32438,0 0.58048,0.20487 0.58048,0.54634c0,0.01706 0,0.76829 -0.87073,0.83658c0.30731,0.32439 0.80242,0.32439 0.85365,0.32439c0.85365,0 1.10974,-1.24633 1.39999,-2.73167c0.39268,-1.82681 1.09267,-5.68531 1.39999,-7.27311h-1.09267c-0.34145,0 -0.4439,0 -0.4439,-0.18781c0,-0.30731 0.17073,-0.30731 0.49512,-0.30731h1.14389c0.39269,-2.23656 0.56341,-2.8512 0.87073,-3.44874c0.34145,-0.66584 1.05852,-1.21216 1.79267,-1.21216c0.75121,0 1.46828,0.39266 1.46828,1.10971c0,0.64878 -0.51219,0.93902 -0.85365,0.93902c-0.32438,0 -0.58048,-0.20487 -0.58048,-0.54634c0,-0.29024 0.20488,-0.78535 0.87073,-0.85365c-0.17073,-0.15364 -0.52926,-0.30731 -0.88779,-0.30731c-0.4439,0 -0.80242,0.39268 -0.90487,0.80242c-0.13658,0.54634 -0.3756,1.75852 -0.70001,3.51705h1.38293c0.30731,0 0.4439,0 0.4439,0.17073c0,0.32439 -0.13658,0.32439 -0.47805,0.32439z"/><path d="M244.57359,182.90818c-0.5249,0 -0.91286,0.50207 -1.08402,1.18672l-0.39938,1.55187c-0.18258,0.75311 -0.22821,0.93569 -0.22821,1.18672c0,0.46784 0.2168,0.76453 0.61618,0.76453c0.51348,0 1.1753,-0.46784 1.4834,-1.472c0.03422,-0.09128 0.04564,-0.14833 0.14834,-0.14833c0.06847,0 0.11411,0.04563 0.11411,0.10269c0,0.25103 -0.61618,1.74586 -1.78008,1.74586c-0.4222,0 -0.99274,-0.22822 -1.1753,-0.90146c-0.23962,0.46784 -0.62759,0.90146 -1.1753,0.90146c-0.49067,0 -1.02696,-0.21682 -1.02696,-0.69605c0,-0.36515 0.29667,-0.60476 0.57054,-0.60476c0.21682,0 0.38796,0.13693 0.38796,0.36515c0,0.13693 -0.09128,0.47925 -0.50207,0.55913c0.23962,0.14833 0.5249,0.14834 0.58195,0.14834c0.60476,0 0.93569,-0.62759 1.10684,-1.31224l0.38796,-1.56328c0.13692,-0.54772 0.20539,-0.81016 0.20539,-1.06121c0,-0.27387 -0.1027,-0.75311 -0.61617,-0.75311c-0.33092,0 -1.09544,0.23962 -1.4834,1.50621c-0.02282,0.04564 -0.04564,0.11412 -0.13693,0.11412c-0.07988,0 -0.12553,-0.05706 -0.12553,-0.1027c0,-0.25103 0.61618,-1.74584 1.78008,-1.74584c0.20539,0 0.91287,0.04564 1.17532,0.90146c0.1027,-0.21682 0.49067,-0.90146 1.18674,-0.90146c0.47926,0 1.02695,0.2168 1.02695,0.69607c0,0.30808 -0.23962,0.60475 -0.58195,0.60475c-0.15975,0 -0.37655,-0.09128 -0.37655,-0.36513c0,-0.21682 0.13693,-0.49067 0.50208,-0.55913c-0.23962,-0.14833 -0.55913,-0.14834 -0.58195,-0.14834z"/></g></g></g></svg>