<svg version="1.1" xmlns="http://www.w3.org/2000/svg" xmlns:xlink="http://www.w3.org/1999/xlink" width="17" height="35.33333" viewBox="0,0,17,35.33333"><g transform="translate(-231.50001,-162.33336)"><g data-paper-data="{&quot;isPaintingLayer&quot;:true}" fill-rule="nonzero" stroke="none" stroke-linecap="butt" stroke-linejoin="miter" stroke-miterlimit="10" stroke-dasharray="" stroke-dashoffset="0" style="mix-blend-mode: normal"><path d="M231.50001,197.66669v-35.33333h17v35.33333z" fill="none" stroke-width="0"/><path d="M235.71156,183.35915v-0.60019l5.94381,-9.08033c0.1549,-0.23234 0.21298,-0.23233 0.38723,-0.23233c0.30976,0 0.30976,0.11615 0.30976,0.50337v8.80928h1.9361v0.60019h-1.9361v1.68441c0,0.697 0.03872,0.90998 1.47143,0.90998h0.40659v0.60019c-0.7938,-0.05808 -1.81992,-0.05809 -2.63308,-0.05809c-0.81315,0 -1.81993,0 -2.61373,0.05809v-0.60019h0.40658c1.43272,0 1.47143,-0.21297 1.47143,-0.90998v-1.68441zM240.97774,175.5373l-4.72408,7.22167h4.72408z" fill="#ff0000" stroke-width="1"/></g></g></svg>