<svg version="1.1" xmlns="http://www.w3.org/2000/svg" xmlns:xlink="http://www.w3.org/1999/xlink" width="113.43722" height="155.02375" viewBox="0,0,113.43722,155.02375"><g transform="translate(-177.21814,-102.356)"><g data-paper-data="{&quot;isPaintingLayer&quot;:true}" fill-rule="nonzero" stroke="none" stroke-linecap="butt" stroke-linejoin="miter" stroke-miterlimit="10" stroke-dasharray="" stroke-dashoffset="0" style="mix-blend-mode: normal"><path d="M285.98323,181.30129c0,0 -0.0487,0.40022 -0.26418,0.86959c0.1154,2.36882 -0.6062,4.95499 -1.15413,7.09271c-0.9746,3.80247 -2.32748,7.65366 -4.01178,11.32754c0.20079,3.07199 -0.44124,6.28855 -1.5331,8.63799c-1.31211,2.82342 -2.82994,5.58272 -6.25388,6.00847c-0.64846,0.68937 -1.63731,0.99617 -2.58638,0.75359c-0.00835,0.00433 -0.01666,0.00863 -0.02498,0.01287c-3.73113,1.90436 -9.33436,0.5938 -11.98498,-2.72398c-0.85667,-1.07229 -0.92928,-2.58286 -1.39392,-3.87429l0.01222,-0.5006c-2.43547,-2.59153 -4.83476,-5.47493 -6.83254,-8.37291c-2.39262,-3.47074 -3.79923,-7.21011 -4.54621,-11.19948c-0.4221,0.05214 -0.86281,0.00326 -1.28681,-0.16216c-1.14734,-0.44763 -1.80689,-1.60611 -1.67123,-2.77471l0.26808,-2.88188l0.1585,0.01474c0.01055,-0.34287 0.0554,-0.68395 0.14504,-1.02263c0.28625,-1.08153 1.28268,-1.77226 2.31726,-2.38314c0.39218,-1.03508 1.16946,-2.00105 2.71954,-3.08363c2.29648,-1.60384 7.20633,-1.16556 9.93015,-1.60331c3.81879,-0.61372 7.41117,-2.52171 11.10553,-3.87902c1.21597,-0.60146 2.41592,-1.08455 3.50278,-1.36095c1.5183,-0.3861 3.2656,-0.9393 4.69093,-0.28914c0.14199,0.06478 0.27395,0.14051 0.39714,0.22587c1.35737,0.06817 2.71146,0.2989 3.7884,1.04604c0.20615,0.14301 0.40753,0.29974 0.60215,0.46843c1.60929,-0.48743 2.75388,0.99223 2.75388,0.99223l1.21122,2.20228c0.2236,2.1416 0.19007,4.32064 -0.05876,6.45945zM258.43625,181.7415c-0.13995,0.0105 -0.2799,0.02153 -0.41985,0.0331c0.13325,0.02298 0.266,0.04639 0.39816,0.07005c0.007,-0.03436 0.01423,-0.06875 0.02167,-0.10316z" data-paper-data="{&quot;index&quot;:null}" fill="#ffc100" stroke-width="0.5"/><path d="M195.78979,193.1422c-1.92125,-0.3736 -5.73088,-1.84521 -7.83726,-4.96716c-1.16524,-1.73738 -2.23501,-4.62447 -0.70975,-8.53382l12.96091,-33.2199c1.52276,-3.90295 4.25511,-5.29924 6.28159,-5.79136c4.49664,-1.08393 8.67695,1.35799 9.14281,1.64299c13.99314,8.5927 20.96191,23.18091 23.30327,29.05592l1.63473,4.08802l3.9713,-1.9008c5.70141,-2.73707 20.70835,-8.75136 36.83832,-5.59136c0.52579,0.1093 5.25033,1.13428 7.82479,4.97704c1.15775,1.73448 2.22257,4.61225 0.69981,8.51521l-12.96091,33.2199c-1.52775,3.91576 -4.27008,5.31552 -6.30153,5.79835c-3.65662,0.87349 -7.45627,-0.6237 -9.12287,-1.64992c-13.99314,-8.5927 -20.9619,-23.18092 -23.30325,-29.05593l-1.62727,-4.0851l-3.9713,1.90078c-5.70141,2.73707 -20.71084,8.75776 -36.82336,5.59721zM265.47627,213.1133c0.36621,0.20923 1.61447,0.71835 2.4196,0.50905c0.79514,-0.20582 1.32668,-1.28122 1.56882,-1.90185l12.96091,-33.2199c0.24215,-0.62063 0.57934,-1.77184 0.13367,-2.46177c-0.45063,-0.69924 -1.72883,-1.17583 -2.1001,-1.26169c-13.58576,-2.66129 -26.65825,2.61115 -31.64918,5.00616l-5.44715,2.61512l2.24683,5.6096c2.04279,5.13926 8.0956,17.8809 19.86658,25.10531zM228.34308,181.27135l5.44465,-2.60873l-2.24435,-5.61599c-2.04279,-5.13926 -8.0956,-17.8809 -19.85909,-25.10238c-0.36872,-0.20283 -1.62446,-0.71489 -2.42708,-0.51198c-0.79515,0.20584 -1.32668,1.28122 -1.56882,1.90185l-12.96091,33.2199c-0.24213,0.62062 -0.57934,1.77185 -0.13368,2.4618c0.45063,0.69924 1.72135,1.17289 2.10012,1.2617c13.58327,2.66769 26.65825,-2.61115 31.64918,-5.00616z" data-paper-data="{&quot;index&quot;:null}" fill="#000000" stroke-width="1"/><path d="M177.21814,257.37975v-155.02375h110.57889v155.02375z" fill="none" stroke-width="0"/></g></g></svg>