<svg version="1.1" xmlns="http://www.w3.org/2000/svg" xmlns:xlink="http://www.w3.org/1999/xlink" width="901.78364" height="824.07426" viewBox="0,0,901.78364,824.07426"><defs><linearGradient x1="-87.31064" y1="341.36187" x2="567.3107" y2="18.63812" gradientUnits="userSpaceOnUse" id="color-1"><stop offset="0" stop-color="#fdffb6" stop-opacity="0.91765"/><stop offset="1" stop-color="#a3fffc" stop-opacity="0.96471"/></linearGradient><linearGradient x1="327.83827" y1="591.26632" x2="343.90075" y2="591.26632" gradientUnits="userSpaceOnUse" id="color-2"><stop offset="0" stop-color="#29e0fc" stop-opacity="0.81176"/><stop offset="1" stop-color="#6eff45"/></linearGradient><linearGradient x1="359.85163" y1="616.33603" x2="368.16175" y2="616.33603" gradientUnits="userSpaceOnUse" id="color-3"><stop offset="0" stop-color="#29e0fc" stop-opacity="0.81176"/><stop offset="1" stop-color="#6eff45"/></linearGradient><linearGradient x1="66.93493" y1="588.29299" x2="94.7514" y2="588.29299" gradientUnits="userSpaceOnUse" id="color-4"><stop offset="0" stop-color="#29e0fc" stop-opacity="0.81176"/><stop offset="1" stop-color="#6eff45"/></linearGradient><linearGradient x1="66.93493" y1="566.8868" x2="194.36094" y2="566.8868" gradientUnits="userSpaceOnUse" id="color-5"><stop offset="0" stop-color="#29e0fc" stop-opacity="0.81176"/><stop offset="1" stop-color="#6eff45"/></linearGradient><linearGradient x1="66.93493" y1="566.8868" x2="194.36094" y2="566.8868" gradientUnits="userSpaceOnUse" id="color-6"><stop offset="0" stop-color="#29e0fc" stop-opacity="0.81176"/><stop offset="1" stop-color="#6eff45"/></linearGradient><linearGradient x1="66.93493" y1="566.8868" x2="194.36094" y2="566.8868" gradientUnits="userSpaceOnUse" id="color-7"><stop offset="0" stop-color="#29e0fc" stop-opacity="0.81176"/><stop offset="1" stop-color="#6eff45"/></linearGradient><linearGradient x1="66.93493" y1="566.8868" x2="194.36094" y2="566.8868" gradientUnits="userSpaceOnUse" id="color-8"><stop offset="0" stop-color="#29e0fc" stop-opacity="0.81176"/><stop offset="1" stop-color="#6eff45"/></linearGradient><linearGradient x1="624.86125" y1="568.82142" x2="658.19921" y2="568.82142" gradientUnits="userSpaceOnUse" id="color-9"><stop offset="0" stop-color="#29e0fc" stop-opacity="0.81176"/><stop offset="1" stop-color="#6eff45"/></linearGradient><linearGradient x1="66.93493" y1="338.62426" x2="244.9953" y2="338.62426" gradientUnits="userSpaceOnUse" id="color-10"><stop offset="0" stop-color="#29e0fc" stop-opacity="0.81176"/><stop offset="1" stop-color="#6eff45"/></linearGradient><linearGradient x1="630.29907" y1="374.13037" x2="658.19921" y2="374.13037" gradientUnits="userSpaceOnUse" id="color-11"><stop offset="0" stop-color="#29e0fc" stop-opacity="0.81176"/><stop offset="1" stop-color="#6eff45"/></linearGradient><linearGradient x1="625.0425" y1="296.73567" x2="658.19921" y2="296.73567" gradientUnits="userSpaceOnUse" id="color-12"><stop offset="0" stop-color="#29e0fc" stop-opacity="0.81176"/><stop offset="1" stop-color="#6eff45"/></linearGradient><linearGradient x1="628.55616" y1="54.66597" x2="658.19921" y2="54.66597" gradientUnits="userSpaceOnUse" id="color-13"><stop offset="0" stop-color="#29e0fc" stop-opacity="0.81176"/><stop offset="1" stop-color="#6eff45"/></linearGradient><linearGradient x1="66.93493" y1="42.45182" x2="82.34901" y2="42.45182" gradientUnits="userSpaceOnUse" id="color-14"><stop offset="0" stop-color="#29e0fc" stop-opacity="0.81176"/><stop offset="1" stop-color="#6eff45"/></linearGradient><linearGradient x1="505.15969" y1="53.89909" x2="551.23469" y2="53.89909" gradientUnits="userSpaceOnUse" id="color-15"><stop offset="0" stop-color="#29e0fc" stop-opacity="0.81176"/><stop offset="1" stop-color="#6eff45"/></linearGradient><linearGradient x1="375.48188" y1="564.52346" x2="532.68338" y2="564.52346" gradientUnits="userSpaceOnUse" id="color-16"><stop offset="0" stop-color="#29e0fc" stop-opacity="0.81176"/><stop offset="1" stop-color="#6eff45"/></linearGradient><linearGradient x1="375.48188" y1="564.52346" x2="532.68338" y2="564.52346" gradientUnits="userSpaceOnUse" id="color-17"><stop offset="0" stop-color="#29e0fc" stop-opacity="0.81176"/><stop offset="1" stop-color="#6eff45"/></linearGradient><linearGradient x1="375.48188" y1="564.52346" x2="532.68338" y2="564.52346" gradientUnits="userSpaceOnUse" id="color-18"><stop offset="0" stop-color="#29e0fc" stop-opacity="0.81176"/><stop offset="1" stop-color="#6eff45"/></linearGradient><linearGradient x1="375.48188" y1="564.52346" x2="532.68338" y2="564.52346" gradientUnits="userSpaceOnUse" id="color-19"><stop offset="0" stop-color="#29e0fc" stop-opacity="0.81176"/><stop offset="1" stop-color="#6eff45"/></linearGradient><linearGradient x1="402.68486" y1="609.04029" x2="410.20018" y2="609.04029" gradientUnits="userSpaceOnUse" id="color-20"><stop offset="0" stop-color="#29e0fc" stop-opacity="0.81176"/><stop offset="1" stop-color="#6eff45"/></linearGradient><linearGradient x1="536.81754" y1="602.3755" x2="565.39392" y2="602.3755" gradientUnits="userSpaceOnUse" id="color-21"><stop offset="0" stop-color="#29e0fc" stop-opacity="0.81176"/><stop offset="1" stop-color="#6eff45"/></linearGradient><linearGradient x1="652.69865" y1="616.82054" x2="658.19921" y2="616.82054" gradientUnits="userSpaceOnUse" id="color-22"><stop offset="0" stop-color="#29e0fc" stop-opacity="0.81176"/><stop offset="1" stop-color="#6eff45"/></linearGradient><linearGradient x1="66.93493" y1="339.31793" x2="85.59776" y2="339.31793" gradientUnits="userSpaceOnUse" id="color-23"><stop offset="0" stop-color="#29e0fc" stop-opacity="0.81176"/><stop offset="1" stop-color="#6eff45"/></linearGradient><linearGradient x1="66.93493" y1="230.31075" x2="173.4184" y2="230.31075" gradientUnits="userSpaceOnUse" id="color-24"><stop offset="0" stop-color="#29e0fc" stop-opacity="0.81176"/><stop offset="1" stop-color="#6eff45"/></linearGradient><linearGradient x1="103.81443" y1="38.81966" x2="123.38358" y2="38.81966" gradientUnits="userSpaceOnUse" id="color-25"><stop offset="0" stop-color="#29e0fc" stop-opacity="0.81176"/><stop offset="1" stop-color="#6eff45"/></linearGradient><linearGradient x1="108.89668" y1="84.69593" x2="216.33529" y2="84.69593" gradientUnits="userSpaceOnUse" id="color-26"><stop offset="0" stop-color="#29e0fc" stop-opacity="0.81176"/><stop offset="1" stop-color="#6eff45"/></linearGradient><linearGradient x1="649.51965" y1="324.51035" x2="658.19921" y2="324.51035" gradientUnits="userSpaceOnUse" id="color-27"><stop offset="0" stop-color="#29e0fc" stop-opacity="0.81176"/><stop offset="1" stop-color="#6eff45"/></linearGradient><linearGradient x1="98.7949" y1="611.03765" x2="118.09915" y2="611.03765" gradientUnits="userSpaceOnUse" id="color-28"><stop offset="0" stop-color="#29e0fc" stop-opacity="0.81176"/><stop offset="1" stop-color="#6eff45"/></linearGradient><linearGradient x1="475.05655" y1="614.22714" x2="478.36801" y2="614.22714" gradientUnits="userSpaceOnUse" id="color-29"><stop offset="0" stop-color="#29e0fc" stop-opacity="0.81176"/><stop offset="1" stop-color="#6eff45"/></linearGradient><linearGradient x1="480.41069" y1="28.70741" x2="482.32789" y2="28.70741" gradientUnits="userSpaceOnUse" id="color-30"><stop offset="0" stop-color="#29e0fc" stop-opacity="0.81176"/><stop offset="1" stop-color="#6eff45"/></linearGradient><linearGradient x1="89.45999" y1="615.88288" x2="95.27428" y2="615.88288" gradientUnits="userSpaceOnUse" id="color-31"><stop offset="0" stop-color="#29e0fc" stop-opacity="0.81176"/><stop offset="1" stop-color="#6eff45"/></linearGradient><linearGradient x1="125.26589" y1="602.91579" x2="148.5718" y2="602.91579" gradientUnits="userSpaceOnUse" id="color-32"><stop offset="0" stop-color="#29e0fc" stop-opacity="0.81176"/><stop offset="1" stop-color="#6eff45"/></linearGradient><linearGradient x1="421.766" y1="603.80466" x2="427.76152" y2="603.80466" gradientUnits="userSpaceOnUse" id="color-33"><stop offset="0" stop-color="#29e0fc" stop-opacity="0.81176"/><stop offset="1" stop-color="#6eff45"/></linearGradient><linearGradient x1="66.93493" y1="81.18229" x2="110.13762" y2="81.18229" gradientUnits="userSpaceOnUse" id="color-34"><stop offset="0" stop-color="#29e0fc" stop-opacity="0.81176"/><stop offset="1" stop-color="#6eff45"/></linearGradient><linearGradient x1="380.14583" y1="85.91945" x2="511.00885" y2="85.91945" gradientUnits="userSpaceOnUse" id="color-35"><stop offset="0" stop-color="#29e0fc" stop-opacity="0.81176"/><stop offset="1" stop-color="#6eff45"/></linearGradient><linearGradient x1="200.9142" y1="614.68377" x2="210.49312" y2="614.68377" gradientUnits="userSpaceOnUse" id="color-36"><stop offset="0" stop-color="#29e0fc" stop-opacity="0.81176"/><stop offset="1" stop-color="#6eff45"/></linearGradient><linearGradient x1="66.93493" y1="437.52269" x2="132.80911" y2="437.52269" gradientUnits="userSpaceOnUse" id="color-37"><stop offset="0" stop-color="#29e0fc" stop-opacity="0.81176"/><stop offset="1" stop-color="#6eff45"/></linearGradient><linearGradient x1="446.96816" y1="41.53158" x2="455.09" y2="41.53158" gradientUnits="userSpaceOnUse" id="color-38"><stop offset="0" stop-color="#29e0fc" stop-opacity="0.81176"/><stop offset="1" stop-color="#6eff45"/></linearGradient><linearGradient x1="351.77859" y1="68.81474" x2="378.43782" y2="68.81474" gradientUnits="userSpaceOnUse" id="color-39"><stop offset="0" stop-color="#29e0fc" stop-opacity="0.81176"/><stop offset="1" stop-color="#6eff45"/></linearGradient><linearGradient x1="452.21075" y1="607.65993" x2="466.62796" y2="607.65993" gradientUnits="userSpaceOnUse" id="color-40"><stop offset="0" stop-color="#29e0fc" stop-opacity="0.81176"/><stop offset="1" stop-color="#6eff45"/></linearGradient><linearGradient x1="426.4718" y1="43.42784" x2="443.62877" y2="43.42784" gradientUnits="userSpaceOnUse" id="color-41"><stop offset="0" stop-color="#29e0fc" stop-opacity="0.81176"/><stop offset="1" stop-color="#6eff45"/></linearGradient><linearGradient x1="113.52579" y1="40.9425" x2="143.86597" y2="40.9425" gradientUnits="userSpaceOnUse" id="color-42"><stop offset="0" stop-color="#29e0fc" stop-opacity="0.81176"/><stop offset="1" stop-color="#6eff45"/></linearGradient><linearGradient x1="398.50194" y1="29.52656" x2="399.53371" y2="29.52656" gradientUnits="userSpaceOnUse" id="color-43"><stop offset="0" stop-color="#29e0fc" stop-opacity="0.81176"/><stop offset="1" stop-color="#6eff45"/></linearGradient><linearGradient x1="138.60247" y1="603.63036" x2="167.65292" y2="603.63036" gradientUnits="userSpaceOnUse" id="color-44"><stop offset="0" stop-color="#29e0fc" stop-opacity="0.81176"/><stop offset="1" stop-color="#6eff45"/></linearGradient><linearGradient x1="149.84761" y1="561.79759" x2="237.34056" y2="561.79759" gradientUnits="userSpaceOnUse" id="color-45"><stop offset="0" stop-color="#29e0fc" stop-opacity="0.81176"/><stop offset="1" stop-color="#6eff45"/></linearGradient><linearGradient x1="66.93493" y1="355.74291" x2="100.17529" y2="355.74291" gradientUnits="userSpaceOnUse" id="color-46"><stop offset="0" stop-color="#29e0fc" stop-opacity="0.81176"/><stop offset="1" stop-color="#6eff45"/></linearGradient><linearGradient x1="66.93493" y1="312.02431" x2="84.53111" y2="312.02431" gradientUnits="userSpaceOnUse" id="color-47"><stop offset="0" stop-color="#29e0fc" stop-opacity="0.81176"/><stop offset="1" stop-color="#6eff45"/></linearGradient><linearGradient x1="66.93493" y1="312.02431" x2="84.53111" y2="312.02431" gradientUnits="userSpaceOnUse" id="color-48"><stop offset="0" stop-color="#29e0fc" stop-opacity="0.81176"/><stop offset="1" stop-color="#6eff45"/></linearGradient><linearGradient x1="66.93493" y1="72.99768" x2="190.18497" y2="72.99768" gradientUnits="userSpaceOnUse" id="color-49"><stop offset="0" stop-color="#29e0fc" stop-opacity="0.81176"/><stop offset="1" stop-color="#6eff45"/></linearGradient><linearGradient x1="66.93493" y1="30.56183" x2="70.56708" y2="30.56183" gradientUnits="userSpaceOnUse" id="color-50"><stop offset="0" stop-color="#29e0fc" stop-opacity="0.81176"/><stop offset="1" stop-color="#6eff45"/></linearGradient><linearGradient x1="642.58292" y1="608.23858" x2="658.19921" y2="608.23858" gradientUnits="userSpaceOnUse" id="color-51"><stop offset="0" stop-color="#29e0fc" stop-opacity="0.81176"/><stop offset="1" stop-color="#6eff45"/></linearGradient><linearGradient x1="651.52045" y1="247.11915" x2="658.19921" y2="247.11915" gradientUnits="userSpaceOnUse" id="color-52"><stop offset="0" stop-color="#29e0fc" stop-opacity="0.81176"/><stop offset="1" stop-color="#6eff45"/></linearGradient><linearGradient x1="511.76177" y1="617.03318" x2="520.08583" y2="617.03318" gradientUnits="userSpaceOnUse" id="color-53"><stop offset="0" stop-color="#29e0fc" stop-opacity="0.81176"/><stop offset="1" stop-color="#6eff45"/></linearGradient><linearGradient x1="163.56759" y1="35.02713" x2="171.84284" y2="35.02713" gradientUnits="userSpaceOnUse" id="color-54"><stop offset="0" stop-color="#29e0fc" stop-opacity="0.81176"/><stop offset="1" stop-color="#6eff45"/></linearGradient><linearGradient x1="323.57867" y1="308.61521" x2="566.76033" y2="308.61521" gradientUnits="userSpaceOnUse" id="color-55"><stop offset="0" stop-color="#29e0fc" stop-opacity="0.81176"/><stop offset="1" stop-color="#6eff45"/></linearGradient><linearGradient x1="105.7316" y1="363.2931" x2="147.61669" y2="363.2931" gradientUnits="userSpaceOnUse" id="color-56"><stop offset="0" stop-color="#29e0fc" stop-opacity="0.81176"/><stop offset="1" stop-color="#6eff45"/></linearGradient><linearGradient x1="87.82865" y1="344.27121" x2="167.91783" y2="344.27121" gradientUnits="userSpaceOnUse" id="color-57"><stop offset="0" stop-color="#29e0fc" stop-opacity="0.81176"/><stop offset="1" stop-color="#6eff45"/></linearGradient><linearGradient x1="84.8518" y1="309.68884" x2="171.20146" y2="309.68884" gradientUnits="userSpaceOnUse" id="color-58"><stop offset="0" stop-color="#29e0fc" stop-opacity="0.81176"/><stop offset="1" stop-color="#6eff45"/></linearGradient><linearGradient x1="414.09729" y1="293.65775" x2="479.5044" y2="293.65775" gradientUnits="userSpaceOnUse" id="color-59"><stop offset="0" stop-color="#29e0fc" stop-opacity="0.81176"/><stop offset="1" stop-color="#6eff45"/></linearGradient><linearGradient x1="228.87711" y1="65.40915" x2="254.56728" y2="65.40915" gradientUnits="userSpaceOnUse" id="color-60"><stop offset="0" stop-color="#29e0fc" stop-opacity="0.81176"/><stop offset="1" stop-color="#6eff45"/></linearGradient><linearGradient x1="489.22971" y1="423.73297" x2="518.79607" y2="423.73297" gradientUnits="userSpaceOnUse" id="color-61"><stop offset="0" stop-color="#29e0fc" stop-opacity="0.81176"/><stop offset="1" stop-color="#6eff45"/></linearGradient><linearGradient x1="483.72218" y1="33.31559" x2="484.99101" y2="33.31559" gradientUnits="userSpaceOnUse" id="color-62"><stop offset="0" stop-color="#29e0fc" stop-opacity="0.81176"/><stop offset="1" stop-color="#6eff45"/></linearGradient><linearGradient x1="86.72019" y1="609.29128" x2="87.11059" y2="609.29128" gradientUnits="userSpaceOnUse" id="color-63"><stop offset="0" stop-color="#29e0fc" stop-opacity="0.81176"/><stop offset="1" stop-color="#6eff45"/></linearGradient><linearGradient x1="454.20462" y1="56.77139" x2="454.94361" y2="56.77139" gradientUnits="userSpaceOnUse" id="color-64"><stop offset="0" stop-color="#29e0fc" stop-opacity="0.81176"/><stop offset="1" stop-color="#6eff45"/></linearGradient><linearGradient x1="467.08108" y1="595.70372" x2="467.24146" y2="595.70372" gradientUnits="userSpaceOnUse" id="color-65"><stop offset="0" stop-color="#29e0fc" stop-opacity="0.81176"/><stop offset="1" stop-color="#6eff45"/></linearGradient><linearGradient x1="410.65331" y1="597.29671" x2="410.78581" y2="597.29671" gradientUnits="userSpaceOnUse" id="color-66"><stop offset="0" stop-color="#29e0fc" stop-opacity="0.81176"/><stop offset="1" stop-color="#6eff45"/></linearGradient><linearGradient x1="175.963" y1="306.84444" x2="176.47197" y2="306.84444" gradientUnits="userSpaceOnUse" id="color-67"><stop offset="0" stop-color="#29e0fc" stop-opacity="0.81176"/><stop offset="1" stop-color="#6eff45"/></linearGradient><linearGradient x1="35.33244" y1="25.75703" x2="35.33244" y2="46.57441" gradientUnits="userSpaceOnUse" id="color-68"><stop offset="0" stop-color="#ff871f"/><stop offset="1" stop-color="#ffca00"/></linearGradient><linearGradient x1="53.31975" y1="25.75707" x2="53.31975" y2="49.51599" gradientUnits="userSpaceOnUse" id="color-69"><stop offset="0" stop-color="#ff871f"/><stop offset="1" stop-color="#ffca00"/></linearGradient><linearGradient x1="72.61037" y1="26.35102" x2="72.61037" y2="45.98041" gradientUnits="userSpaceOnUse" id="color-70"><stop offset="0" stop-color="#ff871f"/><stop offset="1" stop-color="#ffca00"/></linearGradient><linearGradient x1="100.15837" y1="26.01162" x2="100.15837" y2="46.23497" gradientUnits="userSpaceOnUse" id="color-71"><stop offset="0" stop-color="#ff871f"/><stop offset="1" stop-color="#ffca00"/></linearGradient><linearGradient x1="114.93269" y1="33.1393" x2="114.93269" y2="45.98042" gradientUnits="userSpaceOnUse" id="color-72"><stop offset="0" stop-color="#ff871f"/><stop offset="1" stop-color="#ffca00"/></linearGradient><linearGradient x1="124.86023" y1="32.99788" x2="124.86023" y2="46.26327" gradientUnits="userSpaceOnUse" id="color-73"><stop offset="0" stop-color="#ff871f"/><stop offset="1" stop-color="#ffca00"/></linearGradient><linearGradient x1="139.61044" y1="33.1393" x2="139.61044" y2="51.4676" gradientUnits="userSpaceOnUse" id="color-74"><stop offset="0" stop-color="#ff871f"/><stop offset="1" stop-color="#ffca00"/></linearGradient><linearGradient x1="153.1574" y1="26.35105" x2="153.1574" y2="45.98044" gradientUnits="userSpaceOnUse" id="color-75"><stop offset="0" stop-color="#ff871f"/><stop offset="1" stop-color="#ffca00"/></linearGradient><linearGradient x1="163.47992" y1="26.77529" x2="163.47992" y2="45.98042" gradientUnits="userSpaceOnUse" id="color-76"><stop offset="0" stop-color="#ff871f"/><stop offset="1" stop-color="#ffca00"/></linearGradient><linearGradient x1="172.9677" y1="32.99787" x2="172.9677" y2="46.26326" gradientUnits="userSpaceOnUse" id="color-77"><stop offset="0" stop-color="#ff871f"/><stop offset="1" stop-color="#ffca00"/></linearGradient><linearGradient x1="197.29017" y1="26.03992" x2="197.29017" y2="46.23497" gradientUnits="userSpaceOnUse" id="color-78"><stop offset="0" stop-color="#ff871f"/><stop offset="1" stop-color="#ffca00"/></linearGradient><linearGradient x1="211.99092" y1="32.99788" x2="211.99092" y2="46.26327" gradientUnits="userSpaceOnUse" id="color-79"><stop offset="0" stop-color="#ff871f"/><stop offset="1" stop-color="#ffca00"/></linearGradient><linearGradient x1="222.30047" y1="26.35102" x2="222.30047" y2="45.98042" gradientUnits="userSpaceOnUse" id="color-80"><stop offset="0" stop-color="#ff871f"/><stop offset="1" stop-color="#ffca00"/></linearGradient><linearGradient x1="231.78822" y1="32.99787" x2="231.78822" y2="46.26326" gradientUnits="userSpaceOnUse" id="color-81"><stop offset="0" stop-color="#ff871f"/><stop offset="1" stop-color="#ffca00"/></linearGradient><linearGradient x1="244.88499" y1="33.42215" x2="244.88499" y2="46.26327" gradientUnits="userSpaceOnUse" id="color-82"><stop offset="0" stop-color="#ff871f"/><stop offset="1" stop-color="#ffca00"/></linearGradient><linearGradient x1="255.20752" y1="26.35102" x2="255.20752" y2="45.98042" gradientUnits="userSpaceOnUse" id="color-83"><stop offset="0" stop-color="#ff871f"/><stop offset="1" stop-color="#ffca00"/></linearGradient><linearGradient x1="264.59628" y1="32.99788" x2="264.59628" y2="46.26327" gradientUnits="userSpaceOnUse" id="color-84"><stop offset="0" stop-color="#ff871f"/><stop offset="1" stop-color="#ffca00"/></linearGradient><linearGradient x1="276.51806" y1="29.83004" x2="276.51806" y2="46.26329" gradientUnits="userSpaceOnUse" id="color-85"><stop offset="0" stop-color="#ff871f"/><stop offset="1" stop-color="#ffca00"/></linearGradient><linearGradient x1="288.53376" y1="32.99786" x2="288.53376" y2="46.26326" gradientUnits="userSpaceOnUse" id="color-86"><stop offset="0" stop-color="#ff871f"/><stop offset="1" stop-color="#ffca00"/></linearGradient><linearGradient x1="300.24508" y1="33.1393" x2="300.24508" y2="45.98042" gradientUnits="userSpaceOnUse" id="color-87"><stop offset="0" stop-color="#ff871f"/><stop offset="1" stop-color="#ffca00"/></linearGradient></defs><g transform="translate(210.89181,232.03713)"><g data-paper-data="{&quot;isPaintingLayer&quot;:true}" fill-rule="nonzero" stroke="none" stroke-linejoin="miter" stroke-dasharray="" stroke-dashoffset="0" style="mix-blend-mode: normal"><path d="M36.2705,592.03713l-247.16231,-501.35051l654.62133,-322.72375l247.16231,501.35051z" fill="url(#color-1)" stroke-width="0" stroke-linecap="butt" stroke-miterlimit="10"/><g stroke-width="0"><path d="" fill="url(#color-2)" stroke-linecap="square" stroke-miterlimit="3.25"/><path d="" fill="url(#color-3)" stroke-linecap="square" stroke-miterlimit="3.25"/><path d="" fill="url(#color-4)" stroke-linecap="square" stroke-miterlimit="3.25"/><path d="" fill="url(#color-5)" stroke-linecap="butt" stroke-miterlimit="10"/><path d="" fill="url(#color-6)" stroke-linecap="butt" stroke-miterlimit="10"/><path d="" fill="url(#color-7)" stroke-linecap="butt" stroke-miterlimit="10"/><path d="" fill="url(#color-8)" stroke-linecap="butt" stroke-miterlimit="10"/><path d="" fill="url(#color-9)" stroke-linecap="square" stroke-miterlimit="3.25"/><path d="" fill="url(#color-10)" stroke-linecap="square" stroke-miterlimit="3.25"/><path d="" fill="url(#color-11)" stroke-linecap="square" stroke-miterlimit="3.25"/><path d="" fill="url(#color-12)" stroke-linecap="square" stroke-miterlimit="3.25"/><path d="" fill="url(#color-13)" stroke-linecap="square" stroke-miterlimit="3.25"/><path d="" fill="url(#color-14)" stroke-linecap="square" stroke-miterlimit="3.25"/><path d="" fill="url(#color-15)" stroke-linecap="square" stroke-miterlimit="3.25"/><path d="" fill="url(#color-16)" stroke-linecap="butt" stroke-miterlimit="10"/><path d="" fill="url(#color-17)" stroke-linecap="butt" stroke-miterlimit="10"/><path d="" fill="url(#color-18)" stroke-linecap="butt" stroke-miterlimit="10"/><path d="" fill="url(#color-19)" stroke-linecap="butt" stroke-miterlimit="10"/><path d="" fill="url(#color-20)" stroke-linecap="square" stroke-miterlimit="3.25"/><path d="" fill="url(#color-21)" stroke-linecap="square" stroke-miterlimit="3.25"/><path d="" fill="url(#color-22)" stroke-linecap="square" stroke-miterlimit="3.25"/><path d="" fill="url(#color-23)" stroke-linecap="square" stroke-miterlimit="3.25"/><path d="" fill="url(#color-24)" stroke-linecap="square" stroke-miterlimit="3.25"/><path d="" fill="url(#color-25)" stroke-linecap="square" stroke-miterlimit="3.25"/><path d="" fill="url(#color-26)" stroke-linecap="square" stroke-miterlimit="3.25"/><path d="" fill="url(#color-27)" stroke-linecap="square" stroke-miterlimit="3.25"/><path d="" fill="url(#color-28)" stroke-linecap="square" stroke-miterlimit="3.25"/><path d="" fill="url(#color-29)" stroke-linecap="square" stroke-miterlimit="3.25"/><path d="" fill="url(#color-30)" stroke-linecap="square" stroke-miterlimit="3.25"/><path d="" fill="url(#color-31)" stroke-linecap="square" stroke-miterlimit="3.25"/><path d="" fill="url(#color-32)" stroke-linecap="square" stroke-miterlimit="3.25"/><path d="" fill="url(#color-33)" stroke-linecap="square" stroke-miterlimit="3.25"/><path d="" fill="url(#color-34)" stroke-linecap="square" stroke-miterlimit="3.25"/><path d="" fill="url(#color-35)" stroke-linecap="square" stroke-miterlimit="3.25"/><path d="" fill="url(#color-36)" stroke-linecap="square" stroke-miterlimit="3.25"/><path d="" fill="url(#color-37)" stroke-linecap="square" stroke-miterlimit="3.25"/><path d="" fill="url(#color-38)" stroke-linecap="square" stroke-miterlimit="3.25"/><path d="" fill="url(#color-39)" stroke-linecap="square" stroke-miterlimit="3.25"/><path d="" fill="url(#color-40)" stroke-linecap="square" stroke-miterlimit="3.25"/><path d="" fill="url(#color-41)" stroke-linecap="square" stroke-miterlimit="3.25"/><path d="" fill="url(#color-42)" stroke-linecap="square" stroke-miterlimit="3.25"/><path d="" fill="url(#color-43)" stroke-linecap="square" stroke-miterlimit="3.25"/><path d="" fill="url(#color-44)" stroke-linecap="square" stroke-miterlimit="3.25"/><path d="" fill="url(#color-45)" stroke-linecap="square" stroke-miterlimit="3.25"/><path d="" fill="url(#color-46)" stroke-linecap="square" stroke-miterlimit="3.25"/><path d="" fill="url(#color-47)" stroke-linecap="square" stroke-miterlimit="3.25"/><path d="" fill="url(#color-48)" stroke-linecap="square" stroke-miterlimit="3.25"/><path d="" fill="url(#color-49)" stroke-linecap="square" stroke-miterlimit="3.25"/><path d="" fill="url(#color-50)" stroke-linecap="square" stroke-miterlimit="3.25"/><path d="" fill="url(#color-51)" stroke-linecap="square" stroke-miterlimit="3.25"/><path d="" fill="url(#color-52)" stroke-linecap="square" stroke-miterlimit="3.25"/><path d="" fill="url(#color-53)" stroke-linecap="square" stroke-miterlimit="3.25"/><path d="" fill="url(#color-54)" stroke-linecap="square" stroke-miterlimit="3.25"/><path d="M368.61492,422.16088l-1.51283,-0.6135l-0.89236,-0.45314l-0.3207,-0.16034l-0.94117,-0.55772l-1.33854,-0.94116l-0.6344,-0.40436l-0.41132,-0.30674l-1.42917,-1.1782l-1.56162,-1.42917l-0.17429,-0.15338l-0.15337,-0.1464l-1.49888,-1.52677l-1.34551,-1.49888l-0.23704,-0.24399l-0.24399,-0.27189l-1.2758,-1.5198l-1.01088,-1.28277l-0.47406,-0.56469l-0.55772,-0.7111l-0.87843,-1.16425l-0.64137,-0.8854l-0.77385,-1.02483l-1.0318,-1.42917l-0.35554,-0.50892l-0.23704,-0.35555l-1.12939,-1.60345l-0.25795,-0.37647l-0.89933,-1.34551l-0.17429,-0.25795l-0.26492,-0.40436l-1.0527,-1.60345l-0.67624,-1.05272l-0.62743,-0.96906l-0.96208,-1.51283l-0.32765,-0.51589l-0.20218,-0.32765l-0.89933,-1.4222l-0.18125,-0.29281l-0.05577,-0.09063l-0.92025,-1.51283l-0.27189,-0.4671l-0.4671,-0.78082l-0.78082,-1.29672l-0.46011,-0.77384l-0.77385,-1.31065l-0.98996,-1.69409l-0.18125,-0.3207l-0.04881,-0.09063l-0.08366,-0.16034l-1.10848,-1.96597l-0.62046,-1.10151l-0.55772,-1.03876l-1.03876,-1.91717l-0.13247,-0.23703l-0.06971,-0.13247l-0.23704,-0.43921l-0.82265,-1.6174l-0.65532,-1.26185l-0.45314,-0.94814l-0.94814,-1.959l-0.13943,-0.27886l-0.07669,-0.13943l-0.18823,-0.39737l-0.77384,-1.74986l-0.48801,-1.08757l-0.03485,-0.08366l-0.4671,-1.15728l-0.69018,-1.70106l-0.17429,-0.46709l-0.06971,-0.21612l-0.22308,-0.60652l-0.29978,-0.83659l-0.3207,-1.03876l-0.22308,-0.62046l-0.18125,-0.63441l-0.16034,-0.55772l-0.13247,-0.4671l-0.06274,-0.27886l-0.27886,-1.15031l-0.05577,-0.23704l-0.25795,-1.34551l-0.06972,-0.31371l-0.07669,-0.46012l-0.16034,-1.19911l-0.06274,-0.97602l-0.07669,-0.6832l-0.02092,-0.78778l-0.00697,-0.87843l0.06971,-0.94117l0.02789,-0.71807l0.06972,-0.62047l0.1464,-1.03876l0.33463,-1.51979l0.02789,-0.13943l0.02092,-0.09063l0.09063,-0.2928l0.38344,-1.28277l0.34857,-0.92722l0.29978,-0.73203l0.62744,-1.30368l0.11155,-0.244l0.06274,-0.11155l0.23006,-0.40436l0.92025,-1.58951l0.86448,-1.32459l0.48103,-0.65532l0.65532,-0.82265l0.78778,-1.05968l0.63441,-0.78778l0.8854,-1.01088l1.01088,-1.08757l0.57166,-0.64835l0.53681,-0.57166l1.1015,-1.11546l1.11546,-1.08757l0.55772,-0.5647l0.57167,-0.55772l1.12939,-1.05968l1.05968,-0.96905l0.66926,-0.62744l0.73202,-0.66229l1.01088,-0.91327l0.91327,-0.80174l0.85054,-0.75293l0.97602,-0.85751l0.80174,-0.69018l0.69017,-0.59954l1.09454,-0.94117l1.28973,-1.08757l0.50195,-0.43222l0.43222,-0.36949l1.3734,-1.15031l1.64528,-1.37339l0.16732,-0.13943l0.13943,-0.11851l1.47797,-1.21306l0.20217,-0.16732l1.63831,-1.34551l0.18822,-0.1464l0.244,-0.18823l1.59649,-1.29672l1.29672,-1.04573l0.55772,-0.42526l0.72504,-0.55772l1.12939,-0.9063l0.9063,-0.71808l0.96906,-0.72504l1.30368,-0.96905l0.58561,-0.4671l0.4671,-0.36252l1.44312,-1.05272l1.58951,-1.15031l0.28582,-0.20915l0.04881,-0.03485l0.07669,-0.04881l1.88928,-1.31065l1.31065,-0.9063l0.67624,-0.42526l1.08757,-0.67624l0.93418,-0.62743l0.62046,-0.41132l1.43614,-0.85052l1.13637,-0.67624l0.75293,-0.43222l0.20914,-0.11155l0.42526,-0.21612l1.73592,-0.94117l0.94814,-0.50892l0.4392,-0.20914l0.82265,-0.39738l1.52677,-0.73202l0.5368,-0.23703l0.20914,-0.07669l0.5647,-0.21612l1.79865,-0.74596l0.74596,-0.33463l1.65225,-0.57166l0.01394,-0.00697h0.01393l1.64528,-0.54378l0.8854,-0.23703l2.1821,-0.63441l0.25097,-0.06274l0.16732,-0.01394l0.85751,-0.17429l1.88231,-0.41829l0.41829,-0.13943l0.69018,-0.13247l1.73591,-0.20217l0.89236,-0.25097l1.26185,-0.11851h0.79476l1.26185,-0.16034l1.55465,-0.12549l0.11155,0.01394l0.1464,0.02789l1.51283,-0.0976l0.06971,0.01394l1.57557,-0.04881h0.01393l0.02789,0.00697l1.62436,-0.02091h0.00697l0.46011,-0.00697l-0.46011,-0.0488l-0.29978,-1.30369v-0.30674l-0.42526,-0.72504l-0.09063,-0.11851l-0.46011,-0.81569l-0.17429,-0.21611l-0.20915,-0.35555l-0.35555,-0.73202l-0.11851,-0.35555l-0.38344,-0.80174l-0.02789,-0.09063l-0.34857,-0.77385l-0.15338,-0.27189l-0.19521,-0.55772l-0.07669,-0.17429l-0.20218,-0.45314l-0.0488,-0.20217l-0.12549,-0.37647l-0.26491,-0.64137l-0.18823,-0.59954l-0.01394,-0.04183l-0.21611,-0.59954l-0.16034,-0.62047l-0.1464,-0.4392l-0.07669,-0.21612l-0.21612,-0.80174l-0.1464,-0.49498l-0.02092,-0.15337l-0.02092,-0.18126l-0.36948,-1.47797l-0.244,-0.8575l-0.09759,-0.80174l-0.13943,-1.03876l-0.1464,-0.62047l-0.0976,-0.38343l-0.13943,-1.28277l-0.18125,-1.60346l-0.01394,-0.05577l-0.00697,-0.03485l-0.04183,-0.43223l-0.23006,-2.61433v-0.4671l-0.15337,-2.70496l0.00697,-0.3904l0.02092,-0.36252l-0.06275,-2.53068l0.01394,-0.42526l0.02789,-0.37647l0.02092,-2.59342l0.02789,-0.35554l0.02789,-0.29978l0.11155,-2.83045l0.02091,-0.18822l0.01394,-0.15338l0.15337,-2.20998l0.06275,-0.89933v-0.06275l0.00697,-0.06274l0.27189,-2.92108l0.01393,-0.33463l0.03485,-0.38343l0.26492,-2.28667l0.05577,-0.65532l0.08366,-0.78778l0.20914,-1.52677l0.11852,-1.00391l0.16732,-1.28277l0.10456,-0.64835l0.18823,-1.39431l0.23006,-1.50586l0.04881,-0.34858l0.23704,-1.46402l0.18125,-1.04574l0.23704,-1.46402l0.1464,-0.8087l0.10458,-0.55772l0.50195,-2.71193l0.01393,-0.05577l0.00697,-0.03486l0.03486,-0.16732l0.5368,-2.57948l0.13247,-0.5368l0.17429,-0.85054l0.30674,-1.32459l0.30674,-1.15032l0.35555,-1.51283l0.11155,-0.41132l0.3904,-1.39431l0.22308,-0.78778l0.26491,-0.87841l0.51589,-1.64528l0.00697,-0.00697v-0.01393l0.43222,-1.22003l0.16732,-0.43222l0.27886,-0.77385l0.07669,-0.18823l0.29281,-0.69715l0.41131,-0.96906l0.21612,-0.47406l0.10458,-0.21611l0.31371,-0.64137l0.12549,-0.25795l0.06971,-0.13245l0.34858,-0.63441l0.17429,-0.30674l0.30674,-0.51589v-0.00697l0.32766,-0.50195l0.22308,-0.32766l0.27886,-0.39737l0.18822,-0.244l0.64137,-0.78082l0.11155,-0.12548l0.12549,-0.11155l0.7111,-0.71808l0.71111,-0.57166l0.21612,-0.15338l0.3904,-0.21612l0.65532,-0.40435l0.40436,-0.18823l0.66228,-0.244l0.11852,-0.04182l0.0488,-0.01394l0.06972,-0.01393l0.75991,-0.18126l0.50195,-0.07669l0.32766,-0.03486l0.36948,-0.00697l0.46012,-0.02092l0.45314,0.01394l0.37646,0.02789l0.30674,0.04182l0.52287,0.06275l0.71808,0.13245l0.18125,0.04183l0.27886,0.06971l0.48801,0.12549l0.16732,0.04881l0.37646,0.11851l0.28584,0.09063l0.33463,0.11155l0.24399,0.08366l0.25097,0.0976l0.11155,0.04182l0.29281,0.11851h0.00697l0.29281,0.11852l0.12548,0.0488l0.29978,0.13247l0.16034,0.06972l0.36948,0.16732l0.62046,0.2928l0.13943,0.06274l0.55772,0.27886l0.3416,0.17429l0.20218,0.11155l0.38343,0.20217l0.244,0.12548l0.44618,0.25795l0.38344,0.20217l0.41829,0.244l0.25795,0.15337l0.75293,0.43921l0.23704,0.1464l0.1464,0.09063l0.92722,0.57863l0.58561,0.36948l0.43223,0.27886l0.65532,0.43223l0.34858,0.22308l0.22308,0.1464l0.77384,0.52287l0.34858,0.23006l0.5368,0.36948l0.10458,0.06972l0.13943,0.10458l1.4222,0.98299l0.3904,0.27886l0.55076,0.39737l0.71807,0.50195l0.66229,0.49498l0.94814,0.66229l0.04881,0.03485l0.92722,0.69715l0.73202,0.51588l0.55772,0.41132l0.63441,0.47406l0.47406,0.33463l1.14333,0.85054l0.29281,0.22308l0.22308,0.15337l1.45705,1.08757l0.20217,0.1464l0.02789,0.02789l0.04183,0.02789l1.58951,1.18517l0.27188,0.20217l0.35555,0.27189l1.03876,0.76687l0.50195,0.38344l0.68321,0.50892l0.47406,0.34858l0.74596,0.56469l0.91327,0.67624l0.98996,0.74596l0.66926,0.49498l0.66229,0.49498l0.57166,0.42526l0.42526,0.32069l1.47797,1.09454l1.40825,1.03876l0.43921,0.32766l0.06274,0.0488l0.09063,0.06275l1.50586,1.11546l0.31371,0.23006l0.42526,0.31371l0.92025,0.67624l0.57166,0.41829l0.76688,0.57167l1.15031,0.83659l0.83659,0.60652l1.08059,0.79476l1.49191,1.08059l0.43223,0.31371l0.31371,0.23006l1.6174,1.16425l0.32069,0.22308l1.38734,0.99694l0.22308,0.16732l0.3207,0.22308l1.11546,0.80174l0.50195,0.35554l0.7111,0.50892l0.44618,0.31371l0.78778,0.55772l0.87145,0.62046l0.23703,0.16732l0.83659,0.59258l0.59258,0.41132l1.35946,0.9551l0.29978,0.20915l1.65923,1.15031v0.00697l0.01394,0.00697l1.94506,1.35247l1.36643,0.93419l0.59954,0.41829l0.89236,0.60651l0.16732,0.11155l0.91328,0.63441l0.74596,0.50195l0.6135,0.41132l0.62046,0.42526l0.42526,0.28582l1.41523,0.94814l0.1464,0.10458l0.10458,0.06274l0.49498,0.33463l1.39431,0.93419l1.42917,0.94814l0.56469,0.37646l0.86448,0.5647l1.13637,0.75293l0.75991,0.49496l1.25488,0.81569l1.96598,1.25488l0.05577,0.04182l0.04182,0.02789l0.17429,0.11155l1.8126,1.15728l0.51589,0.32765l0.81567,0.52287l0.69715,0.44618l0.96906,0.59258l0.1464,0.0976l0.92025,0.58561l0.59258,0.36252l1.15728,0.7111l0.30674,0.19521l0.19521,0.11852l0.8087,0.49496l0.02789,0.01394l0.82265,0.51588l0.20218,0.11852l0.3416,0.20217l1.12242,0.69018l0.59955,0.37646l1.01784,0.59258l0.04183,0.02789l1.01088,0.62744l0.64835,0.37646l1.08059,0.63441l0.36252,0.21612l0.21612,0.13247l0.84356,0.49496l0.82265,0.48104l0.20915,0.12548l0.36252,0.20915l1.08757,0.64137l0.64835,0.36948l0.85054,0.488l0.16033,0.0976l0.11852,0.06274l0.96207,0.57863l0.57863,0.32069l1.36643,0.75991l0.18125,0.11851l0.50892,0.27886l1.26881,0.72504l0.3416,0.20217l0.64137,0.3416l0.67624,0.3904l0.82265,0.43921l0.02092,0.01394l0.81567,0.46709l0.65532,0.34858l0.64137,0.36252l0.36252,0.20914l0.7111,0.37647l0.52984,0.28582l0.42526,0.244l0.11852,0.06274l0.23703,0.11851l1.30369,0.73899l0.58561,0.33463l1.07362,0.54377l0.09063,0.04183l1.01088,0.56469l0.55772,0.3207l0.52287,0.25795l0.98299,0.52287l0.09759,0.05577l0.06275,0.03485l0.19521,0.10458l1.46402,0.81567l0.41132,0.23006l0.85052,0.41829l0.25097,0.1464l0.14641,0.07669l0.48103,0.25795l0.45314,0.244l0.20217,0.10458l0.52287,0.2928l0.3416,0.19521l0.48801,0.25097l0.17429,0.09063l0.41829,0.24399l0.244,0.13247l0.80174,0.43223l0.02789,0.01393h0.00697l0.00697,0.00697l0.81567,0.4671l0.23704,0.12549l0.43921,0.23703l0.15337,0.0976l0.20217,0.11155l0.27189,0.15337l0.35555,0.20915l0.47406,0.25795l0.21612,0.13943l0.13943,0.08366l0.52285,0.29978l0.30674,0.18822l0.08366,0.04183l0.13943,0.08366l0.37647,0.23006l0.23006,0.15338l0.28582,0.16033l0.46012,0.28584l0.09063,0.05577l0.15338,0.09759l0.31371,0.20217l0.36252,0.25097l0.35555,0.22308l0.27188,0.19521l0.20218,0.16034l0.6832,0.47406l0.08366,0.06274l0.06274,0.06275l0.39738,0.29977l0.19521,0.16732l0.23703,0.20915l0.02092,0.00697l0.02092,0.02092l0.78778,0.8087l0.01393,0.00697l0.01394,0.01394l0.06971,0.09759l0.26492,0.36948l0.05577,0.0976l0.1464,0.26491l0.06274,0.20218l0.11155,0.5368v0.09063l-0.02789,0.11851l-0.13943,0.45315l-0.1464,0.25795l-0.42526,0.38344l-0.22308,0.22308l-0.32766,0.23006l-0.27886,0.13247l-0.46011,0.23703l-0.36949,0.15338l-0.69715,0.30674l-0.09759,0.03485l-0.03485,0.00697l-0.06972,0.02789l-0.51588,0.17429l-0.244,0.05577l-0.3904,0.13943l-0.07669,0.02092l-0.36252,0.09063l-0.20914,0.06972l-0.57167,0.15337l-0.08366,0.02092l-0.11851,0.03485l-0.68321,0.15338l-0.20914,0.05577l-0.32766,0.07669l-0.2928,0.05577l-0.3904,0.09759l-0.06275,0.01394l-0.37646,0.06971l-0.244,0.06274l-0.42526,0.08366l-0.16034,0.02789l-0.64137,0.13247l-0.16034,0.02789l-0.02789,0.00697l-0.04182,0.00697l-1.33854,0.23703l-0.27886,0.04881l-0.39737,0.06971l-0.43921,0.07669l-0.29978,0.05577l-0.52984,0.05577l-0.73899,0.15338l-0.15338,0.02789l-0.36948,0.06274l-0.39737,0.06274l-0.66926,0.10458l-0.38344,0.05577l-0.60652,0.06971l-0.44618,0.09063l-0.89933,0.13245l-0.31371,0.03486l-0.23704,0.0488l-1.40128,0.20915h-0.02789l-0.01394,0.00697l-0.12548,0.01394l-1.5198,0.20914l-1.27579,0.17429l-0.38344,0.04881l-0.50195,0.06972l-1.15728,0.16033l-0.88539,0.11852l-0.78082,0.10456l-1.01785,0.13247l-0.64137,0.09063l-0.488,0.06275l-1.17122,0.16033l-1.53375,0.20218l-0.12549,0.02091l-0.09759,0.00697l-0.74596,0.09759l-0.72504,0.0976l-0.09063,0.01393l-0.12549,0.01394l-1.25488,0.16033l-0.28582,0.04183l-0.36948,0.04881l-0.81569,0.10456l-0.47406,0.06275l-0.62046,0.08366l-0.36948,0.04182l-0.66926,0.0976l-0.80174,0.09759l-0.06971,0.00697l-0.7878,0.11155l-0.6135,0.06972l-0.50892,0.06971l-0.54377,0.07669l-0.41829,0.04881l-0.94814,0.12548l-0.29281,0.03486l-0.22308,0.02789l-1.39431,0.18125l-0.04182,0.00697l-0.3207,0.04183l-1.18516,0.15337l-0.15338,0.02789l-0.20914,0.02789l-1.10151,0.13943l-0.35555,0.04881l-0.46011,0.06274l-0.65532,0.08366l-0.54377,0.0976l-0.71111,0.06971l-0.20914,0.02789l-0.71111,0.09063h-0.02789l-0.72504,0.10456l-0.24399,0.03486l-0.69018,0.09063l-0.52984,0.06971l-0.29978,0.04183l-0.3904,0.04182l-0.04881,0.00697l-0.39737,0.06274l-0.32766,0.04182l-0.50195,0.06972l-0.65532,0.09063l-0.17429,0.02092l-0.13943,0.01393l-1.07362,0.13943l-0.3904,0.05577l-0.05577,0.00697l-0.07669,0.01393l-0.75293,0.10458l-0.57166,0.07669l-0.25795,0.04182l-0.33463,0.03485l-0.14641,0.02092l-0.34857,0.05577l-0.38344,0.04183l-0.08366,0.01393l-0.36252,0.05577l-0.27886,0.02789l-0.32069,0.04881l-0.23704,0.03485l-0.17429,0.01394l-0.55076,0.07669l-0.10458,0.02092l-0.67624,0.08366l-0.13247,0.02092h-0.02091l-0.02789,0.00697l-0.68321,0.09063l-0.11851,0.02789l-0.16034,0.01394l-0.44618,0.06274l-0.22308,0.04183l-0.2928,0.02789l-0.21612,0.02789l-0.3207,0.05577l-0.41131,0.04182h-0.00697l-0.41131,0.07669l-0.31373,0.02789l-0.24399,0.03485l-0.27189,0.04881l-0.21612,0.01393l-0.47406,0.06972l-0.1464,0.02092l-0.10458,0.00697l-0.70413,0.09759h-0.03485l-0.0976,0.01394l-0.71808,0.11155l-0.6344,0.08366l-0.19521,0.03485l-0.27886,0.04881l-0.55076,0.07669l-0.42526,0.0488l-0.40436,0.06275l-0.54377,0.07669l-0.28584,0.03486l-0.23006,0.02091l-0.59954,0.08366l-0.78082,0.0976l-0.0976,0.00697l-0.37646,0.04183l-0.41132,0.06971l-0.06972,0.00697l-0.59954,0.08366l-0.16034,0.04183l-0.20914,0.00697l-0.36252,0.04881l-0.25795,0.06971l-0.33463,0.00697l-0.1464,0.01393l-0.34857,0.0976h-0.38344l-0.07669,0.01393l-0.36948,0.0976l-0.27886,-0.00697l-0.3207,0.04881l-0.23006,0.06274l-0.18125,-0.01393l-0.54378,0.07669l-0.10458,0.02789l-0.09063,-0.00697l-0.73899,0.08366h-0.02092l-0.70413,0.11155l-0.11155,0.0976l-0.33463,0.13247l-0.85751,0.12548l-0.4671,0.244l-0.3904,-0.31371l-0.04881,-0.00697l-0.05577,0.10458l0.14641,0.33463l0.34857,0.04183l0.0976,0.05577l0.49496,0.1464l0.23704,0.11155l0.11851,0.06274l0.244,0.05577l0.05577,0.02092l0.11155,0.03485l0.29978,0.09063l0.16033,0.05577l0.25795,0.10458l0.11851,0.05577l0.23703,0.06274l0.06275,0.01394l0.11851,0.04182l0.44618,0.14641l0.26491,0.03485l0.34858,0.18125l0.19521,0.06275l0.28582,0.09063l0.1464,0.04881l0.37647,0.1464l0.30674,0.07669l0.57863,0.16732l0.25097,0.08366l0.52285,0.18822l0.30674,0.10458l0.13943,0.06972l0.36252,0.13943l0.32766,0.09063l0.56469,0.17429l0.26492,0.09063l0.83659,0.29281l0.13247,0.04881l0.32765,0.13245l0.36949,0.10458l0.17429,0.06972l0.35555,0.11851l0.29977,0.08366l0.3207,0.13247l0.27886,0.09063l0.23006,0.06971l0.11155,0.04881l0.30674,0.11155l0.41132,0.12549l0.52984,0.17429l0.29978,0.09759l0.62046,0.22308l0.20914,0.06972l0.10458,0.04182l0.25795,0.0976l0.4671,0.1464l0.23704,0.09063l0.27188,0.09063l0.3207,0.09759l0.2928,0.11851l0.37647,0.12549l0.16732,0.04881l0.07669,0.03485l0.21611,0.07669l0.11852,0.04182l0.28582,0.09063l0.13247,0.04881l0.27188,0.0976l0.20915,0.06971l0.34857,0.10458l0.70414,0.25097l0.12548,0.04881l0.05577,0.02091l0.16034,0.05577l0.6135,0.20218l0.4671,0.16033l1.12242,0.39738l0.10458,0.04182l0.09063,0.03485l1.54071,0.49498l0.8087,0.31371l0.02092,0.00697l0.00697,0.00697l0.01394,0.00697l0.8087,0.27189l0.41131,0.1464l0.41829,0.1464l0.73899,0.26492l0.06971,0.02092l0.02092,0.00697l0.04881,0.01393l1.15728,0.41132l0.45315,0.13943l0.77384,0.29281l0.17429,0.06274l0.7111,0.23703l0.3416,0.13247l0.93419,0.3416l0.2928,0.0976l0.0976,0.03485l0.20217,0.06972l1.45705,0.51588l0.68321,0.25795l0.97602,0.34858l0.244,0.09759l0.64137,0.23704l0.57166,0.20914l0.20217,0.06972l0.44618,0.16732l0.5647,0.20914l0.65532,0.244l0.55076,0.20915l0.8854,0.32765l0.22308,0.09063l0.35554,0.13245l0.94117,0.36252l0.36252,0.14641l0.81567,0.30674l0.02092,0.01393l0.82265,0.32766l0.36252,0.1464l0.91327,0.36252l0.3904,0.16034l0.26492,0.10458l0.79476,0.32765l0.59955,0.26492l1.49191,0.63441l0.16732,0.06971l0.06972,0.02789l0.15337,0.06972l1.43614,0.6832l0.6832,0.29281l0.58561,0.2928l0.39738,0.18823l0.13245,0.06971l0.27189,0.13247l0.42526,0.23006l0.3904,0.20915l0.43921,0.23006l0.29281,0.16034l0.33463,0.20217l0.98996,0.59258l0.04183,0.02092l0.00697,0.00697l0.02092,0.00697l0.80173,0.55074l0.17429,0.11155l0.23703,0.17429l0.41829,0.3416l0.27886,0.20914l0.3207,0.27886l0.23006,0.23007l0.30674,0.2928l0.27886,0.30674l0.244,0.3416l0.21611,0.27189l0.13943,0.21612l0.06275,0.11851l0.09759,0.19521l0.15338,0.34858l0.06274,0.16732l0.02092,0.07669l0.08366,0.45315l0.0488,0.25097l0.00697,0.0488v0.05577l-0.05577,0.77385l-0.11155,0.41829l-0.08366,0.22308l-0.06972,0.18823l-0.15337,0.31371l-0.03486,0.06972l-0.09063,0.16033l-0.17429,0.28584l-0.11851,0.15337l-0.29281,0.38344l-0.21612,0.29978l-0.32069,0.33463l-0.23006,0.25795l-0.23007,0.23703l-0.36948,0.32766l-0.26491,0.23704l-0.28584,0.26491l-0.27886,0.21612l-0.3416,0.27189l-0.41829,0.3416l-0.06971,0.04881l-0.45315,0.32765l-0.62046,0.45315l-0.35555,0.23703l-0.23006,0.16034l-0.64137,0.43222l-0.11851,0.07669l-0.41132,0.25795l-0.488,0.30674l-0.11155,0.08366l-0.16732,0.10458l-1.38734,0.82265l-0.52287,0.31371l-0.85052,0.52984l-0.28584,0.16034l-0.39737,0.23006l-0.55076,0.32069l-0.7111,0.39738l-0.9551,0.55074l-0.45315,0.25097l-0.25097,0.13943l-0.81567,0.46012l-0.09063,0.04881l-0.75991,0.41829l-0.21612,0.12548l-0.3904,0.21612l-1.05272,0.57863l-0.70413,0.37646l-0.9551,0.5368l-0.29978,0.16732l-0.87843,0.48104l-2.1333,1.1782l-0.00697,0.00697h-0.00697l-0.00697,0.00697l-2.12632,1.1782l-0.85054,0.47406l-0.33463,0.18822l-0.94116,0.52984l-1.69409,0.94117l-0.43223,0.25795l-0.25795,0.14641l-0.94814,0.54377l-0.9063,0.51589l-1.46403,0.88539l-0.63441,0.33463l-1.13636,0.63441l-0.95511,0.59955l-0.59258,0.39737l-1.49888,0.83659l-0.85052,0.51588l-0.97602,0.60652l-0.244,0.12549l-0.42526,0.24399l-1.62436,1.02483l-1.02483,0.70413l-1.02483,0.57167l-1.6662,1.01784l-0.37646,0.26492l-0.25795,0.18823l-1.16425,0.7111l-0.60652,0.3904l-1.54768,1.05968l-0.46012,0.25097l-0.75293,0.46012l-1.24791,0.86448l-0.86448,0.6344l-1.13636,0.68321l-1.74986,1.13637l-0.25097,0.18822l-0.18126,0.13943l-0.92722,0.59955l-0.87841,0.59258l-1.5198,1.08059l-0.44618,0.27189l-0.7111,0.45314l-1.26185,0.89933l-0.89933,0.66229l-1.08059,0.6832l-1.62436,1.07362l-0.35555,0.26491l-0.26491,0.18823l-1.33157,0.8854l-0.3904,0.26491l-1.59649,1.12243l-0.36948,0.23006l-0.55772,0.36948l-1.41523,0.97602l-0.98299,0.67624l-1.01088,0.65532l-1.55465,1.01088l-0.44618,0.30674l-0.30674,0.20217l-1.40129,0.89236l-0.31371,0.20915l-1.61043,1.05968l-0.3904,0.25795l-0.62046,0.39737l-1.40128,0.89934l-0.9063,0.56469l-1.14333,0.7111l-1.88928,1.14333l-0.18126,0.11155l-0.10458,0.06275l-0.41829,0.23703l-1.53375,0.96208l-1.37339,0.81567l-0.70413,0.43222l-1.19911,0.70414l-0.89933,0.51588l-0.51589,0.27886l-1.61043,0.91328l-0.22308,0.11851l-1.49191,0.85751l-0.39737,0.23703l-0.69018,0.39738l-1.43614,0.80173l-0.79476,0.41132l-1.35946,0.75293l-1.26881,0.66229l-0.69715,0.3904l-0.18823,0.11155l-0.3416,0.18823l-1.80563,0.98299l-0.98299,0.50195l-1.19214,0.64835l-1.94506,1.00391l-0.18823,0.10458l-0.1464,0.08366l-2.06357,1.10848l-1.1015,0.55074l-0.00697,0.00697l-1.06665,0.58561l-2.06357,1.06665l-0.13247,0.06274l-0.06274,0.03485l-0.18823,0.09063l-1.9102,1.0318l-1.22003,0.62743l-0.9551,0.52287l-1.79866,0.9551l-0.37646,0.18823l-0.19521,0.09063l-0.59258,0.31371l-1.38037,0.75293l-0.59258,0.31373l-0.75293,0.39737l-0.8087,0.45314l-1.49888,0.8087l-0.66926,0.34858l-0.34857,0.18125l-1.14333,0.62046l-0.66229,0.36252l-1.51283,0.81569l-0.63441,0.36252l-1.13637,0.6344l-1.01088,0.54378l-0.54378,0.28582l-1.59649,0.8854l-0.25795,0.13943l-1.46403,0.8087l-0.42526,0.23006l-0.76687,0.42526l-1.38037,0.75293l-0.74596,0.41132l-0.92025,0.50195l-0.48103,0.25795l-1.13637,0.6135l-0.78778,0.41829l-0.244,0.12549l-0.46011,0.244l-1.72197,0.89236l-0.89236,0.46709l-1.30369,0.65532l-1.41521,0.69715l-0.60652,0.2928l-0.22308,0.0976l-0.50892,0.21612l-1.78472,0.80173l-0.80174,0.35555l-1.2758,0.50195l-0.27886,0.11155l-0.35555,0.13247l-1.41521,0.488l-0.71808,0.20915l-2.58645,0.7111h-0.02789l-0.06971,0.01394l-2.83742,0.40435l-0.40436,0.04881l-0.47406,0.02092l-2.45398,-0.08366l-0.3904,-0.02092l-0.32765,-0.04182l-1.40825,-0.32766l-1.31065,-0.27886l-0.27886,-0.09063l-0.59258,-0.23007" fill="url(#color-55)" stroke-linecap="square" stroke-miterlimit="3.25"/><path d="" fill="url(#color-56)" stroke-linecap="square" stroke-miterlimit="3.25"/><path d="" fill="url(#color-57)" stroke-linecap="square" stroke-miterlimit="3.25"/><path d="" fill="url(#color-58)" stroke-linecap="square" stroke-miterlimit="3.25"/><path d="M442.24142,301.46937l-1.33854,-0.23006l-0.27886,-0.06971l-0.43222,-0.08366l-1.22699,-0.25795l-0.82265,-0.13943h-0.00697l-0.01394,-0.00697l-0.81567,-0.19521l-0.50195,-0.13247l-0.89236,-0.23006l-0.26491,-0.07669l-0.15338,-0.04182l-0.55772,-0.15338l-0.11851,-0.03485l-0.60652,-0.19521l-0.23006,-0.06971l-0.43921,-0.13943l-0.58561,-0.19521l-0.63441,-0.25795l-0.58561,-0.17429l-0.77384,-0.2928l-0.29978,-0.12549l-0.13247,-0.04182l-0.33463,-0.13247l-0.82962,-0.36252l-0.36252,-0.18823l-0.79476,-0.32069l-0.03485,-0.01394l-0.11155,-0.05577l-0.71808,-0.38344l-0.73202,-0.33463l-0.59955,-0.33463l-0.33463,-0.21611l-1.24791,-0.70414l-0.51588,-0.29977l-0.20217,-0.10458l-1.35248,-0.96906l-0.43921,-0.25795l-0.6344,-0.43921l-0.58561,-0.51588l-0.66926,-0.47406l-0.82962,-0.66926l-0.16732,-0.18126l-0.68321,-0.79476l-0.9551,-0.68321l-0.02092,-0.02789l-0.8087,-0.82265l-0.02091,-0.02092l-0.73203,-0.78778l-0.02789,-0.06972l-0.06971,-0.07669l-0.62046,-0.6832l-0.04881,-0.16732l-0.16034,-0.16732l-0.4671,-0.50195l-0.02789,-0.33463l-0.2928,-1.28277l1.40128,0.17429l0.21612,-0.07669l0.10458,-0.02789l1.2967,0.15338l0.25795,0.02092l0.20915,-0.07669l1.09454,0.1464l0.35555,0.04183l0.3416,-0.05577l0.85054,0.13245l0.47406,0.06972l0.50892,-0.03485l0.54377,0.09759l0.60652,0.10458l0.76688,0.18125l0.89236,0.00697l0.94814,0.0488l0.7111,0.15338l0.44618,0.11851l1.22003,0.0976l1.50586,0.18822l0.15337,0.04183l0.10458,0.01393l0.65532,0.0976l0.76687,0.13943l0.13247,0.02789l0.17429,0.00697l1.09454,0.22308l0.3904,0.05577l0.53681,0.08366l0.48103,0.10458l0.64137,0.11155l0.45314,0.08366l0.31371,0.06274l0.16034,0.02789l0.73899,0.15338l0.2928,0.0488l0.19521,0.04183l0.3416,0.08366l0.34858,0.06274l0.16034,0.02789l0.32069,0.07669l0.19521,0.04881l0.63441,0.11851l0.35555,0.07669l0.38343,0.09063l0.09063,0.01393l0.13245,0.02789l1.12243,0.27189l0.40435,0.07669l0.6135,0.13247l0.34858,0.08366l0.6135,0.13245l0.09063,0.02092l0.64137,0.16732l0.47406,0.10458l0.54377,0.16034l0.31373,0.06274l0.51588,0.11155l0.16732,0.03485l0.64835,0.15338h0.01394l0.00697,0.00697l0.03485,0.00697l0.7878,0.20915l0.488,0.13245l0.3416,0.07669l0.55772,0.13247l0.27189,0.07669l0.16034,0.0488l0.66926,0.15338h0.00697l0.64835,0.18125l0.18126,0.04881l0.30674,0.07669l0.52287,0.1464l0.30674,0.06972l0.2928,0.07669l0.23006,0.06972l0.12549,0.03485l0.49498,0.12549l0.16732,0.0488l0.04182,0.01394l0.08366,0.02092l0.74596,0.21611l0.41132,0.12549l0.41829,0.10458l0.71807,0.18822l0.11155,0.02789l0.06275,0.02092l0.25097,0.06274l0.52285,0.16034l0.50892,0.16034l0.32069,0.07669l0.54378,0.1464l0.28582,0.09063l0.16034,0.03485l0.57862,0.16034l0.06972,0.02092l0.02092,0.00697l0.03485,0.01394l0.37646,0.11155l0.20915,0.06274l0.20914,0.06971l0.37647,0.09063l0.06274,0.02091l0.3904,0.13247l0.244,0.06274l0.48103,0.13247l0.10458,0.03485l0.26491,0.07669l0.42526,0.13943l0.13943,0.04183l0.25795,0.06971l0.57166,0.18823l0.3207,0.07669l0.27886,0.08366l0.23703,0.07669l0.54378,0.15338l0.21612,0.06971l0.06971,0.02092l0.12549,0.03485l0.4392,0.13943l0.26492,0.0976l0.37646,0.09063l0.11155,0.03485l0.3416,0.12549l0.77384,0.21612l0.04183,0.01393l0.01393,0.00697l0.02789,0.00697l0.80174,0.27188l0.3904,0.13943l0.43921,0.11852l0.82962,0.23703l0.02789,0.00697l0.10456,0.02789l0.69715,0.25097l0.42526,0.15338l0.41131,0.11155l0.72504,0.20914l0.10458,0.03486l0.04881,0.01393l0.21612,0.05577l0.56469,0.21612l0.27189,0.05577l0.21611,0.06971l0.3416,0.15338l0.27886,0.05577l0.3904,0.11851l0.16033,0.06274l0.08366,0.01394l0.29281,0.08366l0.45314,0.19521l0.45314,0.18823l0.37647,0.10456l0.67624,0.18126l0.23704,0.08366l0.37646,0.07669l0.25795,0.11155l0.11852,0.04182l0.20914,0.06274l0.29978,0.10458l0.32069,0.08366l0.06275,0.01394l0.23703,0.11155l0.33463,0.11155l0.19521,0.10456l0.09063,-0.00697l0.3207,0.07669l0.09063,0.01393l0.17429,0.15338l-0.07669,0.44618l-0.41132,0.04182l-0.18823,-0.18125l-0.11851,0.25795l-0.71111,0.11155h-0.00697l-0.75293,0.07669l-0.06971,-0.00697l-0.69715,0.06971l-0.13943,0.00697l-0.15338,0.01394l-0.67624,0.07669l-0.52984,0.06971l-0.65532,0.05577l-0.47406,0.06274l-0.35554,0.04881l-1.05272,0.11155l-0.25097,0.03485l-0.18823,0.02789l-0.64137,0.06972l-0.81567,0.09759h-0.02789l-0.12549,0.02092l-1.40825,0.11851l-0.11851,-0.00697l-0.13247,0.02092l-0.69715,0.06274l-0.57863,0.04881l-0.25097,0.01393l-0.30674,0.04881l-0.19521,0.01394l-0.32766,0.00697l-0.38343,0.05577h-0.05577l-0.3904,0.00697l-0.38344,0.05577h-0.06972l-0.37646,0.00697l-0.33463,0.04183l-0.17429,0.01393l-0.3207,0.00697l-0.27886,0.03485l-0.2928,0.01393l-0.25795,0.00697l-0.23703,0.02789l-0.3904,0.02091h-0.20915l-0.18125,0.02092l-0.48801,0.02789h-0.16033l-0.14641,0.00697l-0.6832,0.03486l-0.10458,0.00697l-0.64835,0.02789h-0.07669l-0.06971,0.00697l-0.71808,0.02789h-0.04183l-0.8087,0.02789h-0.04182l-0.8087,-0.04182l-0.81567,0.07669h-0.03486l-0.8087,0.00697h-1.66619l-0.81569,-0.01394h-0.02091l-0.82265,-0.06971l-0.91328,-0.02789l-1.42917,-0.06275l-0.97602,-0.0488l-1.10848,-0.07669l-1.02481,-0.08366l-1.19214,-0.10458l-1.45009,-0.16034l-0.36948,-0.04182l-1.25488,-0.16034l-0.244,-0.04182l-0.04881,-0.00697" fill="url(#color-59)" stroke-linecap="square" stroke-miterlimit="3.25"/><path d="" fill="url(#color-60)" stroke-linecap="square" stroke-miterlimit="3.25"/><path d="" fill="url(#color-61)" stroke-linecap="square" stroke-miterlimit="3.25"/><path d="" fill="url(#color-62)" stroke-linecap="square" stroke-miterlimit="3.25"/><path d="" fill="url(#color-63)" stroke-linecap="square" stroke-miterlimit="3.25"/><path d="" fill="url(#color-64)" stroke-linecap="square" stroke-miterlimit="3.25"/><path d="" fill="url(#color-65)" stroke-linecap="square" stroke-miterlimit="3.25"/><path d="" fill="url(#color-66)" stroke-linecap="square" stroke-miterlimit="3.25"/><path d="" fill="url(#color-67)" stroke-linecap="square" stroke-miterlimit="3.25"/></g><g fill-opacity="0.78039" fill="#000000" stroke-width="1" stroke-linecap="butt" stroke-miterlimit="10"><path d="M215.77449,331.7839v4.71631h3.55068c0.21519,0 0.4304,-0.01793 0.64558,-0.01793h2.3492v1.21942h-8.08767v-12.40943h7.85454v1.12977h-3.2279c-0.21519,0 -0.4304,-0.01794 -0.64558,-0.01794h-2.43885v4.30385h5.8102v1.07596z"/><path d="M230.64336,337.70171h-1.36289v-5.27221c0,-0.62764 -0.0538,-1.79327 -1.72155,-1.79327c-1.36288,0 -1.77534,1.48842 -1.77534,2.60024v4.46525h-1.36289v-8.05178h1.27322v1.21942c0.68145,-0.86077 1.54223,-1.30909 2.54646,-1.30909c2.16985,0 2.40299,1.64981 2.40299,2.7437z"/><path d="M235.2239,327.06762h-1.54223v-1.54222h1.54223zM231.17109,339.6743c0.17933,0.19726 0.66351,0.55591 1.36289,0.55591c0.26899,0 1.36289,-0.07173 1.36289,-1.29116v-9.19947h1.32703v9.02014c0,1.66775 -1.07596,2.60023 -2.20574,2.60023c-0.82491,0 -1.54222,-0.26898 -2.11606,-0.6097z"/><path d="M240.99035,337.88105c-2.04434,0 -3.83761,-1.77534 -3.83761,-4.12453c0,-2.38504 1.73948,-4.28591 3.85555,-4.28591c2.06226,0 3.8376,1.865 3.8376,4.28591c0,2.31332 -1.73947,4.12453 -3.85554,4.12453zM243.48296,333.57719c0,-2.09812 -1.25529,-3.03062 -2.49265,-3.03062c-1.12976,0 -2.47472,0.86077 -2.47472,3.03062c0,2.11606 1.20149,3.19202 2.49265,3.19202c1.20149,0 2.47472,-0.98629 2.47472,-3.19202z"/><path d="M248.8907,339.38738c-0.7711,1.97258 -1.61395,1.97258 -2.04433,1.97258c-0.57385,0 -1.16563,-0.12552 -1.27323,-0.14346l-0.1076,-1.16562c0.55591,0.21519 1.12977,0.26898 1.38082,0.26898c0.32278,0 0.59178,-0.08965 0.98629,-0.98629l0.62765,-1.63187l-3.33549,-7.96211h1.41669l1.27323,3.13822c0.14346,0.35865 1.09389,2.72578 1.18356,3.7838h0.01793c0.07173,-1.29115 1.45256,-4.80595 2.27746,-6.92201h1.34496z"/><path d="M261.79542,335.29873c0,0.62764 0.1076,1.47048 0.89664,1.47048c0.3228,0 0.98631,-0.07173 1.61396,-0.62764l0.26898,1.0401c-0.55591,0.28692 -1.38081,0.69938 -2.58231,0.69938c-1.23736,0 -1.47048,-1.23736 -1.47048,-2.27745v-4.82389h-1.47049v-1.0401h1.50636v-2.27746h1.23735v2.27746h2.47473v1.0401h-2.47473z"/><path d="M272.6495,337.70171h-1.36289v-5.27221c0,-0.62764 -0.0538,-1.79327 -1.72155,-1.79327c-1.36289,0 -1.77534,1.48842 -1.77534,2.60024v4.46525h-1.36289v-12.4453h1.32702v5.54121c0.43038,-0.53797 1.25529,-1.23736 2.49266,-1.23736c2.16986,0 2.40299,1.64981 2.40299,2.7437z"/><path d="M275.84936,333.66686c0.03587,1.90085 1.21943,3.13822 2.60025,3.13822c0.53798,0 1.59601,-0.12553 2.65404,-1.02216c0,0.07173 0.03587,0.46625 0.05381,0.48418c0,0.03586 0.05379,0.59178 0.05379,0.66351c-0.9863,0.71731 -1.97261,0.95043 -2.7975,0.95043c-2.0802,0 -3.80175,-1.84707 -3.80175,-4.21418c0,-2.33125 1.61395,-4.19625 3.55068,-4.19625c0.52005,0 1.77536,0.14346 2.51059,1.38082c0.57384,0.95043 0.64557,2.04431 0.64557,2.81543zM280.26084,332.69849c-0.30486,-1.90087 -1.54223,-2.15192 -2.09814,-2.15192c-1.05803,0 -1.90086,0.95043 -2.20572,2.15192z"/><path d="M290.37381,330.56449c1.11183,-0.89664 2.25952,-1.00423 2.77957,-1.00423c1.66774,0 2.8513,1.93673 2.8513,4.14246c0,2.43884 -1.56015,4.17831 -3.26376,4.17831c-0.62765,0 -1.50636,-0.19726 -2.33125,-0.9863v0.80697h-1.3629v-12.4453h1.32703zM290.40968,335.37045c0,0.30486 0.07173,0.62764 0.50211,1.00423c0.32278,0.25106 0.66351,0.43038 1.16563,0.43038c1.09389,0 2.56438,-0.77111 2.56438,-3.10235c0,-2.24159 -1.29117,-3.0665 -2.38506,-3.0665c-0.87871,0 -1.52428,0.52005 -1.84707,1.02217z"/><path d="M298.93904,333.66686c0.03587,1.90085 1.21943,3.13822 2.60025,3.13822c0.53798,0 1.59601,-0.12553 2.65404,-1.02216c0,0.07173 0.03587,0.46625 0.05381,0.48418c0,0.03586 0.05379,0.59178 0.05379,0.66351c-0.9863,0.71731 -1.97261,0.95043 -2.7975,0.95043c-2.0802,0 -3.80175,-1.84707 -3.80175,-4.21418c0,-2.33125 1.61395,-4.19625 3.55068,-4.19625c0.52005,0 1.77536,0.14346 2.51059,1.38082c0.57384,0.95043 0.64557,2.04431 0.64557,2.81543zM303.35049,332.69849c-0.30486,-1.90087 -1.54223,-2.15192 -2.09814,-2.15192c-1.05803,0 -1.90086,0.95043 -2.20572,2.15192z"/><path d="M311.89608,337.70171h-1.32702v-0.66351c-0.66351,0.55591 -1.9188,0.84284 -2.90511,0.84284c-1.52428,0 -1.99053,-1.45255 -1.99053,-2.24158c0,-0.89664 0.69938,-1.56015 1.90088,-1.9726c1.07596,-0.35866 2.15193,-0.41245 2.9589,-0.44832v-0.73524c0,-1.30909 -0.71731,-1.9726 -1.54223,-1.9726c-1.0401,0 -1.86499,0.32278 -2.65404,0.89664l-0.1076,-1.18357c0.8787,-0.50211 1.68567,-0.75316 2.76164,-0.75316c1.66774,0 2.90511,1.25529 2.90511,2.97683zM310.53321,334.13309c-1.09391,0 -3.58656,0.26899 -3.58656,1.48842c0,0.66351 0.66353,1.18356 1.63188,1.18356c0.26899,0 0.87871,-0.0538 1.3629,-0.35865c0.59178,-0.35866 0.59178,-0.78904 0.59178,-1.14769z"/><path d="M320.86237,337.70171h-1.32702v-0.89663c-1.09391,0.9863 -2.51058,1.07596 -3.01271,1.07596c-1.47048,0 -1.88294,-0.8787 -1.88294,-2.16985v-5.97159h1.36289v5.89986c0,0.78903 0.12554,1.25528 1.38082,1.25528c1.16562,0 2.11607,-0.66351 2.11607,-2.0264v-5.12874h1.36289z"/><path d="M325.29988,335.29873c0,0.62764 0.1076,1.47048 0.89664,1.47048c0.3228,0 0.98631,-0.07173 1.61396,-0.62764l0.26898,1.0401c-0.55591,0.28692 -1.38081,0.69938 -2.58231,0.69938c-1.23737,0 -1.47048,-1.23736 -1.47048,-2.27745v-4.82389h-1.47049v-1.0401h1.50636v-2.27746h1.23735v2.27746h2.47473v1.0401h-2.47473z"/><path d="M332.07933,339.38738c-0.77111,1.97258 -1.61396,1.97258 -2.04434,1.97258c-0.57385,0 -1.16563,-0.12552 -1.27323,-0.14346l-0.1076,-1.16562c0.55591,0.21519 1.12977,0.26898 1.38082,0.26898c0.32279,0 0.59178,-0.08965 0.9863,-0.98629l0.62765,-1.63187l-3.33549,-7.96211h1.41669l1.27323,3.13822c0.14346,0.35865 1.09389,2.72578 1.18356,3.7838h0.01793c0.07173,-1.29115 1.45255,-4.80595 2.27747,-6.92201h1.34496z"/><path d="M346.29349,337.88105c-2.04433,0 -3.83761,-1.77534 -3.83761,-4.12453c0,-2.38504 1.73948,-4.28591 3.85555,-4.28591c2.06226,0 3.8376,1.865 3.8376,4.28591c0,2.31332 -1.73947,4.12453 -3.85554,4.12453zM348.78615,333.57719c0,-2.09812 -1.25529,-3.03062 -2.49266,-3.03062c-1.12975,0 -2.47471,0.86077 -2.47471,3.03062c0,2.11606 1.20148,3.19202 2.49265,3.19202c1.20148,0 2.47472,-0.98629 2.47472,-3.19202z"/><path d="M353.76676,337.70171h-1.32702v-6.92201h-1.30909v-1.0401h1.30909v-1.61395c0,-1.73947 1.21943,-3.04856 2.92303,-3.04856c0.66352,0 1.2553,0.14346 1.38083,0.17932v1.18356c-0.21519,-0.08965 -0.77111,-0.28692 -1.39875,-0.28692c-0.59178,0 -1.61396,0.21519 -1.61396,1.43463v2.15192h1.95468v1.0401h-1.91881z"/><path d="M374.36252,337.70171h-1.36289v-5.27221c0,-0.66351 -0.08967,-1.79327 -1.73947,-1.79327c-1.30909,0 -1.77534,1.41669 -1.77534,2.60024v4.46525h-1.3629v-5.27221c0,-0.66351 -0.08965,-1.79327 -1.73947,-1.79327c-1.30908,0 -1.77534,1.41669 -1.77534,2.60024v4.46525h-1.36289v-8.05178h1.27322v1.23736c0.30486,-0.37659 1.07596,-1.32703 2.54646,-1.32703c0.9325,0 1.9188,0.3228 2.24158,1.45255c0.269,-0.39451 1.11185,-1.45255 2.63612,-1.45255c2.09814,0 2.42092,1.50636 2.42092,2.7437z"/><path d="M382.70811,337.70171h-1.32702v-0.66351c-0.66351,0.55591 -1.9188,0.84284 -2.90511,0.84284c-1.52428,0 -1.99053,-1.45255 -1.99053,-2.24158c0,-0.89664 0.69938,-1.56015 1.90088,-1.9726c1.07596,-0.35866 2.15193,-0.41245 2.9589,-0.44832v-0.73524c0,-1.30909 -0.71732,-1.9726 -1.54223,-1.9726c-1.0401,0 -1.86499,0.32278 -2.65404,0.89664l-0.1076,-1.18357c0.8787,-0.50211 1.68567,-0.75316 2.76164,-0.75316c1.66774,0 2.90511,1.25529 2.90511,2.97683zM381.34523,334.13309c-1.09391,0 -3.58656,0.26899 -3.58656,1.48842c0,0.66351 0.66352,1.18356 1.63188,1.18356c0.26899,0 0.87871,-0.0538 1.3629,-0.35865c0.59178,-0.35866 0.59178,-0.78904 0.59178,-1.14769z"/><path d="M387.13738,335.29873c0,0.62764 0.1076,1.47048 0.89664,1.47048c0.3228,0 0.98631,-0.07173 1.61396,-0.62764l0.26898,1.0401c-0.55591,0.28692 -1.38081,0.69938 -2.58231,0.69938c-1.23736,0 -1.47048,-1.23736 -1.47048,-2.27745v-4.82389h-1.47049v-1.0401h1.50636v-2.27746h1.23735v2.27746h2.47473v1.0401h-2.47473z"/><path d="M397.99089,337.70171h-1.36289v-5.27221c0,-0.62764 -0.05381,-1.79327 -1.72155,-1.79327c-1.36289,0 -1.77534,1.48842 -1.77534,2.60024v4.46525h-1.36289v-12.4453h1.32702v5.54121c0.43038,-0.53797 1.25529,-1.23736 2.49266,-1.23736c2.16985,0 2.40299,1.64981 2.40299,2.7437z"/><path d="M401.19105,333.66686c0.03587,1.90085 1.21943,3.13822 2.60025,3.13822c0.53797,0 1.59601,-0.12553 2.65404,-1.02216c0,0.07173 0.03586,0.46625 0.0538,0.48418c0,0.03586 0.05379,0.59178 0.05379,0.66351c-0.98629,0.71731 -1.9726,0.95043 -2.7975,0.95043c-2.0802,0 -3.80175,-1.84707 -3.80175,-4.21418c0,-2.33125 1.61395,-4.19625 3.55068,-4.19625c0.52005,0 1.77535,0.14346 2.5106,1.38082c0.57384,0.95043 0.64557,2.04431 0.64557,2.81543zM405.60252,332.69849c-0.30486,-1.90087 -1.54223,-2.15192 -2.09814,-2.15192c-1.05802,0 -1.90086,0.95043 -2.20572,2.15192z"/><path d="M419.63553,337.70171h-1.36289v-5.27221c0,-0.66351 -0.08967,-1.79327 -1.73947,-1.79327c-1.30909,0 -1.77534,1.41669 -1.77534,2.60024v4.46525h-1.3629v-5.27221c0,-0.66351 -0.08965,-1.79327 -1.73947,-1.79327c-1.30908,0 -1.77534,1.41669 -1.77534,2.60024v4.46525h-1.36289v-8.05178h1.27322v1.23736c0.30486,-0.37659 1.07596,-1.32703 2.54646,-1.32703c0.9325,0 1.9188,0.3228 2.24158,1.45255c0.269,-0.39451 1.11185,-1.45255 2.63612,-1.45255c2.09814,0 2.42092,1.50636 2.42092,2.7437z"/><path d="M427.98112,337.70171h-1.32702v-0.66351c-0.66351,0.55591 -1.9188,0.84284 -2.90511,0.84284c-1.52428,0 -1.99053,-1.45255 -1.99053,-2.24158c0,-0.89664 0.69938,-1.56015 1.90088,-1.9726c1.07596,-0.35866 2.15193,-0.41245 2.9589,-0.44832v-0.73524c0,-1.30909 -0.71731,-1.9726 -1.54222,-1.9726c-1.0401,0 -1.86499,0.32278 -2.65404,0.89664l-0.1076,-1.18357c0.8787,-0.50211 1.68567,-0.75316 2.76164,-0.75316c1.66775,0 2.90511,1.25529 2.90511,2.97683zM426.61824,334.13309c-1.0939,0 -3.58656,0.26899 -3.58656,1.48842c0,0.66351 0.66352,1.18356 1.63188,1.18356c0.26899,0 0.87871,-0.0538 1.3629,-0.35865c0.59178,-0.35866 0.59178,-0.78904 0.59178,-1.14769z"/><path d="M432.41038,335.29873c0,0.62764 0.1076,1.47048 0.89664,1.47048c0.3228,0 0.98631,-0.07173 1.61395,-0.62764l0.26898,1.0401c-0.55592,0.28692 -1.38081,0.69938 -2.58231,0.69938c-1.23737,0 -1.47048,-1.23736 -1.47048,-2.27745v-4.82389h-1.47049v-1.0401h1.50636v-2.27746h1.23735v2.27746h2.47473v1.0401h-2.47473z"/><path d="M438.49526,327.06762h-1.54222v-1.54222h1.54222zM438.38769,337.70171h-1.32703v-7.96211h1.32703z"/><path d="M447.00328,336.26711c0.01794,0.07173 0.07173,0.62764 0.07173,0.68144c-0.98629,0.71731 -1.99053,0.9325 -2.86923,0.9325c-2.15193,0 -3.80175,-1.88293 -3.80175,-4.17831c0,-2.04433 1.39875,-4.23212 3.87348,-4.23212c1.05803,0 1.64981,0.14346 2.68991,0.75316l-0.21519,1.16563c-0.77111,-0.52005 -1.27323,-0.80697 -2.47472,-0.80697c-1.79328,0 -2.51059,1.63187 -2.51059,3.12029c0,1.73947 0.96837,3.06649 2.45679,3.06649c1.00424,0 1.9188,-0.34072 2.74371,-1.00423z"/><path d="M453.36108,331.19213c-0.78903,-0.44832 -1.54221,-0.66351 -2.49264,-0.66351c-0.23313,0 -1.48842,0 -1.48842,1.11183c0,0.89664 0.91456,1.07596 1.56015,1.2015c1.09389,0.21519 1.63188,0.32278 2.29539,1.00423c0.07173,0.08965 0.62764,0.66351 0.62764,1.57807c0,1.05804 -0.55591,2.45679 -2.86925,2.45679c-1.6498,0 -2.86924,-0.73524 -2.9589,-0.78904l0.21519,-1.21943c0.96837,0.69938 2.00847,0.89664 2.72578,0.89664c0.25106,0 1.64981,0 1.64981,-1.23736c0,-0.95043 -1.0401,-1.16562 -1.63188,-1.29115c-1.05802,-0.21519 -1.50635,-0.30486 -2.15193,-0.86077c-0.26899,-0.25105 -0.69938,-0.78903 -0.69938,-1.57807c0,-2.33125 2.49265,-2.33125 2.90511,-2.33125c0.41246,0 1.38083,0.01792 2.52852,0.55591z"/><path d="M457.41358,337.70171h-1.45255v-1.45255h1.45255z"/></g><g fill="#000000" stroke-width="1" stroke-linecap="butt" stroke-miterlimit="10"><path d="M27.78437,330.66312c1.11183,-0.89664 2.25953,-1.00423 2.77958,-1.00423c1.66774,0 2.85131,1.93673 2.85131,4.14246c0,2.43884 -1.56015,4.17831 -3.26376,4.17831c-0.62765,0 -1.50636,-0.19726 -2.33126,-0.9863v0.80697h-1.3629v-12.4453h1.32703zM27.82025,335.46911c0,0.30486 0.07173,0.62764 0.50211,1.00423c0.32279,0.25106 0.66351,0.43038 1.16564,0.43038c1.09389,0 2.56439,-0.77111 2.56439,-3.10235c0,-2.24159 -1.29117,-3.0665 -2.38506,-3.0665c-0.87871,0 -1.52428,0.52005 -1.84707,1.02217z"/><path d="M37.56253,339.48604c-0.77111,1.97258 -1.61396,1.97258 -2.04434,1.97258c-0.57385,0 -1.16563,-0.12552 -1.27323,-0.14346l-0.1076,-1.16562c0.55591,0.21519 1.12977,0.26898 1.38082,0.26898c0.32279,0 0.59178,-0.08965 0.9863,-0.98629l0.62765,-1.63187l-3.33549,-7.96211h1.41669l1.27323,3.13822c0.14346,0.35865 1.09389,2.72578 1.18356,3.7838h0.01792c0.07173,-1.29115 1.45256,-4.80595 2.27747,-6.92201h1.34496z"/><path d="M55.28999,327.30973c-0.64557,-0.57385 -1.45254,-1.16563 -2.97682,-1.16563c-1.57809,0 -2.56439,1.05804 -2.56439,2.15192c0,0.80697 0.48418,1.25529 0.7173,1.50636c0.39453,0.37657 0.84285,0.48417 2.06227,0.78903c1.20149,0.30486 1.86501,0.48418 2.68991,1.3629c0.39453,0.4483 0.95044,1.30908 0.95044,2.45677c0,1.99053 -1.63188,3.76587 -3.94521,3.76587c-0.82491,0 -2.40298,-0.16139 -4.03487,-1.23736l0.26899,-1.45255c1.05803,0.96837 2.45678,1.48842 3.76588,1.48842c1.54221,0 2.56439,-1.14769 2.56439,-2.38506c0,-0.62764 -0.269,-1.20148 -0.57385,-1.52427c-0.57384,-0.59178 -0.82489,-0.66352 -2.34918,-1.0401c-1.14769,-0.28693 -1.75741,-0.44832 -2.63612,-1.34496c-0.08967,-0.08967 -0.86078,-0.91458 -0.86078,-2.18779c0,-1.79327 1.56015,-3.51482 3.96314,-3.51482c1.59601,0 2.49265,0.48418 3.22789,0.87871z"/><path d="M68.57711,340.04192h-1.8112l-1.50635,-2.16986c-0.23313,0.08966 -0.91458,0.30486 -1.66775,0.30486c-2.95891,0 -5.50536,-2.81543 -5.50536,-6.56336c0,-3.74793 2.52852,-6.63511 5.50536,-6.63511c2.9051,0 5.48742,2.83337 5.48742,6.63511c0,2.20571 -0.82491,4.16039 -2.60025,5.595zM62.80278,334.3214h1.56015l1.39875,1.88293c0.91457,-0.75318 1.81121,-2.29538 1.81121,-4.59077c0,-3.35342 -1.90086,-5.52327 -3.999,-5.52327c-2.02639,0 -3.98108,2.11606 -3.98108,5.52327c0,3.33548 1.91881,5.45153 3.99901,5.45153c0.50211,0 0.64557,-0.03586 1.00423,-0.16139z"/><path d="M76.56655,332.81505v4.98529h-1.50636v-4.98529l-4.9853,-7.46h1.79327l3.04857,4.57284c0.77111,1.16563 0.96837,1.52428 1.02218,1.61395c0.28692,-0.48418 0.64557,-1.0401 0.98629,-1.54222l3.08443,-4.64457h1.54221z"/></g><g fill-opacity="0.70196" fill="#a3a3a3" stroke-width="1" stroke-linecap="butt" stroke-miterlimit="10"><path d="M41.2398,30.43403c-1.01823,-0.9051 -2.29102,-1.83849 -4.6952,-1.83849c-2.48905,0 -4.0447,1.6688 -4.0447,3.39412c0,1.2728 0.76367,1.97991 1.13137,2.37591c0.62228,0.59394 1.32938,0.76366 3.25272,1.2445c1.89505,0.48084 2.9416,0.76368 4.24268,2.14964c0.62228,0.70708 1.49908,2.06475 1.49908,3.87495c0,3.13957 -2.57389,5.93973 -6.2226,5.93973c-1.30109,0 -3.79011,-0.25455 -6.36401,-1.95163l0.42426,-2.29104c1.66878,1.52737 3.87496,2.34761 5.93975,2.34761c2.43245,0 4.0447,-1.8102 4.0447,-3.76185c0,-0.98995 -0.42428,-1.89504 -0.9051,-2.40416c-0.90509,-0.93339 -1.30106,-1.04654 -3.70526,-1.6405c-1.8102,-0.45256 -2.77188,-0.70712 -4.15783,-2.12134c-0.14143,-0.14143 -1.35767,-1.44253 -1.35767,-3.4507c0,-2.82844 2.46076,-5.54376 6.25088,-5.54376c2.51732,0 3.93154,0.76368 5.0912,1.38595z"/><path d="M62.19698,50.51599h-2.85672l-2.3759,-3.42242c-0.36771,0.14142 -1.44253,0.48084 -2.63045,0.48084c-4.66697,0 -8.68335,-4.44065 -8.68335,-10.35209c0,-5.91144 3.98812,-10.46525 8.68335,-10.46525c4.58207,0 8.65506,4.46894 8.65506,10.46525c0,3.47897 -1.30109,6.56199 -4.10126,8.82474zM53.08937,41.49325h2.46075l2.20618,2.96986c1.44251,-1.18796 2.85672,-3.6204 2.85672,-7.24081c0,-5.28919 -2.99814,-8.7116 -6.30744,-8.7116c-3.19613,0 -6.27916,3.33757 -6.27916,8.7116c0,5.2609 3.02645,8.59845 6.30745,8.59845c0.79196,0 1.01823,-0.05656 1.58393,-0.25456z"/><path d="M74.79834,39.11735v7.86307h-2.37592v-7.86307l-7.86308,-11.76631h2.82845l4.80837,7.21253c1.21623,1.8385 1.52737,2.40418 1.61223,2.54561c0.45255,-0.76367 1.01823,-1.64051 1.55563,-2.43248l4.86493,-7.32567h2.43246z"/><path d="M108.54064,45.87732c-1.78192,0.9051 -3.79013,1.35766 -5.77004,1.35766c-5.45892,0 -8.99448,-5.00634 -8.99448,-10.09755c0,-5.03462 3.53556,-10.12581 8.93791,-10.12581c2.14963,0 3.70529,0.42426 5.60032,1.38594l-0.42428,2.31933c-1.55564,-1.27279 -2.94158,-1.92333 -5.09121,-1.92333c-4.29923,0 -6.59028,4.55378 -6.59028,8.34389c0,3.93155 2.37588,8.31562 6.44888,8.31562c1.38594,0 2.5456,-0.28285 3.70529,-0.56568v-4.75178h-3.677v-1.72536h5.85489z"/><path d="M114.63162,46.98042h-2.09306v-12.6997h1.95163v2.48901c0.76368,-1.10309 2.26276,-2.60215 4.83664,-2.63045v1.89507c-2.5456,0.02829 -4.69521,1.89507 -4.69521,4.7518z"/><path d="M130.76759,46.98042h-2.09305v-1.04652c-1.04652,0.87681 -3.02643,1.32937 -4.58209,1.32937c-2.40417,0 -3.13957,-2.29104 -3.13957,-3.53554c0,-1.41423 1.1031,-2.46075 2.99817,-3.11129c1.69708,-0.5657 3.39414,-0.65053 4.66693,-0.70711v-1.15967c0,-2.06477 -1.13138,-3.11129 -2.43249,-3.11129c-1.6405,0 -2.94158,0.50911 -4.1861,1.41423l-0.16971,-1.86679c1.38594,-0.79196 2.65872,-1.18793 4.35581,-1.18793c2.63045,0 4.5821,1.97991 4.5821,4.69522zM128.61798,41.35182c-1.72538,0 -5.65691,0.42427 -5.65691,2.34762c0,1.04653 1.04656,1.86677 2.57389,1.86677c0.42428,0 1.38596,-0.08486 2.14964,-0.56568c0.93339,-0.5657 0.93339,-1.24452 0.93339,-1.8102z"/><path d="M137.27288,52.4676h-2.14964v-18.04544h2.09306v1.32935c1.47078,-1.24451 3.281,-1.61222 4.44066,-1.61222c2.63046,0 4.44066,3.11129 4.44066,6.53372c0,3.84667 -2.43249,6.59025 -5.14778,6.59025c-1.52737,0 -2.71532,-0.67882 -3.67699,-1.55564zM137.27288,43.30345c0,0.45255 0.08484,0.96165 0.79196,1.58393c0.50912,0.39599 1.04653,0.67882 1.83851,0.67882c2.09305,0 4.04469,-2.03647 4.04469,-4.86493c0,-2.68701 -1.69706,-4.80835 -3.79014,-4.80835c-1.15966,0 -2.23448,0.62228 -2.88501,1.58393z"/><path d="M159.06478,46.98042h-2.14963v-8.31562c0,-0.98995 -0.08487,-2.82844 -2.71532,-2.82844c-2.14962,0 -2.80016,2.34761 -2.80016,4.10124v7.04283h-2.14962v-19.6294h2.09304v8.7399c0.67882,-0.84851 1.97992,-1.95163 3.93155,-1.95163c3.42242,0 3.79012,2.60217 3.79012,4.32751z"/><path d="M165.69615,30.20776h-2.43247v-2.43248h2.43247zM165.52646,46.98042h-2.09306v-12.55827h2.09306z"/><path d="M179.11548,44.71767c0.0283,0.11313 0.11313,0.98995 0.11313,1.0748c-1.55564,1.13138 -3.13957,1.47079 -4.52551,1.47079c-3.39414,0 -5.99632,-2.96985 -5.99632,-6.59025c0,-3.22443 2.20618,-6.67513 6.10946,-6.67513c1.66878,0 2.60217,0.22628 4.24267,1.18792l-0.3394,1.8385c-1.21624,-0.82025 -2.00821,-1.2728 -3.90327,-1.2728c-2.82846,0 -3.95984,2.57388 -3.95984,4.92149c0,2.74359 1.52737,4.83663 3.87499,4.83663c1.58392,0 3.02643,-0.5374 4.32752,-1.58392z"/><path d="M205.50273,45.67933c-2.29104,1.38593 -2.91331,1.55564 -5.74176,1.55564c-4.12955,0 -8.68336,-3.90326 -8.68336,-10.09755c0,-5.85488 4.12955,-10.09752 8.93789,-10.09752c1.95165,0 3.33758,0.25454 5.17607,0.96166l-0.42428,2.31933c-1.41423,-0.96168 -2.82843,-1.52736 -4.69523,-1.52736c-4.29923,0 -6.59027,4.49722 -6.59027,8.31561c0,4.55378 2.80016,8.37217 6.47714,8.37217c2.46076,0 3.64871,-0.48085 5.37409,-1.75362z"/><path d="M217.89827,46.98042h-2.09305v-1.04652c-1.04653,0.87681 -3.02644,1.32937 -4.5821,1.32937c-2.40418,0 -3.13957,-2.29104 -3.13957,-3.53554c0,-1.41423 1.1031,-2.46075 2.99817,-3.11129c1.69708,-0.5657 3.39415,-0.65053 4.66694,-0.70711v-1.15967c0,-2.06477 -1.13138,-3.11129 -2.43249,-3.11129c-1.6405,0 -2.94158,0.50911 -4.18609,1.41423l-0.16971,-1.86679c1.38593,-0.79196 2.65873,-1.18793 4.35581,-1.18793c2.63045,0 4.5821,1.97991 4.5821,4.69522zM215.74868,41.35182c-1.72538,0 -5.65692,0.42427 -5.65692,2.34762c0,1.04653 1.04656,1.86677 2.57389,1.86677c0.42428,0 1.38596,-0.08486 2.14964,-0.56568c0.93339,-0.5657 0.93339,-1.24452 0.93339,-1.8102z"/><path d="M224.34702,46.98042h-2.09306v-19.6294h2.09306z"/><path d="M237.93603,44.71767c0.0283,0.11313 0.11313,0.98995 0.11313,1.0748c-1.55564,1.13138 -3.13957,1.47079 -4.5255,1.47079c-3.39414,0 -5.99633,-2.96985 -5.99633,-6.59025c0,-3.22443 2.20618,-6.67513 6.10946,-6.67513c1.66877,0 2.60217,0.22628 4.24266,1.18792l-0.33941,1.8385c-1.21622,-0.82025 -2.00821,-1.2728 -3.90325,-1.2728c-2.82846,0 -3.95985,2.57388 -3.95985,4.92149c0,2.74359 1.52737,4.83663 3.87498,4.83663c1.58392,0 3.02644,-0.5374 4.32753,-1.58392z"/><path d="M250.79236,46.98042h-2.09305v-1.41421c-1.72536,1.55564 -3.95982,1.69706 -4.75179,1.69706c-2.31932,0 -2.96988,-1.38593 -2.96988,-3.4224v-9.41871h2.14962v9.30558c0,1.2445 0.19801,1.97989 2.1779,1.97989c1.83848,0 3.33758,-1.04653 3.33758,-3.19615v-8.08932h2.14963z"/><path d="M257.25404,46.98042h-2.09306v-19.6294h2.09306z"/><path d="M270.50365,46.98042h-2.09305v-1.04652c-1.04652,0.87681 -3.02644,1.32937 -4.5821,1.32937c-2.40418,0 -3.13957,-2.29104 -3.13957,-3.53554c0,-1.41423 1.10311,-2.46075 2.99818,-3.11129c1.69708,-0.5657 3.39414,-0.65053 4.66694,-0.70711v-1.15967c0,-2.06477 -1.13138,-3.11129 -2.43249,-3.11129c-1.6405,0 -2.94158,0.50911 -4.18609,1.41423l-0.16971,-1.86679c1.38594,-0.79196 2.65872,-1.18793 4.3558,-1.18793c2.63045,0 4.5821,1.97991 4.5821,4.69522zM268.35402,41.35182c-1.72537,0 -5.65692,0.42427 -5.65692,2.34762c0,1.04653 1.04656,1.86677 2.57389,1.86677c0.42428,0 1.38596,-0.08486 2.14964,-0.56568c0.93339,-0.5657 0.93339,-1.24452 0.93339,-1.8102z"/><path d="M277.48976,43.19032c0,0.98995 0.16971,2.31932 1.41423,2.31932c0.50914,0 1.55566,-0.11313 2.54563,-0.98994l0.42425,1.6405c-0.87681,0.45255 -2.17789,1.1031 -4.07296,1.1031c-1.95163,0 -2.31932,-1.95163 -2.31932,-3.59212v-7.6085h-2.31934v-1.6405h2.37592v-3.59213h1.95162v3.59213h3.90328v1.6405h-3.90328z"/><path d="M289.51962,47.26326c-3.22445,0 -6.05289,-2.80016 -6.05289,-6.50543c0,-3.76181 2.7436,-6.75997 6.08118,-6.75997c3.25271,0 6.05287,2.94158 6.05287,6.75997c0,3.64869 -2.7436,6.50543 -6.08116,6.50543zM293.45117,40.47499c0,-3.30927 -1.97992,-4.78006 -3.93156,-4.78006c-1.78192,0 -3.90326,1.35766 -3.90326,4.78006c0,3.33756 1.89506,5.03462 3.93156,5.03462c1.89506,0 3.90326,-1.55563 3.90326,-5.03462z"/><path d="M299.94401,46.98042h-2.09307v-12.6997h1.95163v2.48901c0.76367,-1.10309 2.26276,-2.60215 4.83664,-2.63045v1.89507c-2.54559,0.02829 -4.6952,1.89507 -4.6952,4.7518z"/></g><g stroke-width="1" stroke-linecap="butt" stroke-miterlimit="10"><path d="M40.2398,29.43403c-1.01823,-0.90511 -2.29102,-1.83849 -4.6952,-1.83849c-2.48905,0 -4.04469,1.6688 -4.04469,3.39412c0,1.2728 0.76367,1.97991 1.13136,2.37591c0.62227,0.59395 1.32939,0.76366 3.25272,1.2445c1.89506,0.48084 2.94159,0.76367 4.24267,2.14964c0.62227,0.70708 1.49909,2.06475 1.49909,3.87495c0,3.13957 -2.57389,5.93973 -6.2226,5.93973c-1.30109,0 -3.79011,-0.25455 -6.36402,-1.95163l0.42427,-2.29104c1.66878,1.52737 3.87497,2.34762 5.93975,2.34762c2.43246,0 4.04469,-1.8102 4.04469,-3.76185c0,-0.98995 -0.42428,-1.89504 -0.90511,-2.40416c-0.90509,-0.93339 -1.30106,-1.04654 -3.70525,-1.6405c-1.8102,-0.45256 -2.77188,-0.70711 -4.15783,-2.12134c-0.14143,-0.14143 -1.35767,-1.44253 -1.35767,-3.4507c0,-2.82844 2.46075,-5.54376 6.25088,-5.54376c2.51731,0 3.93154,0.76367 5.0912,1.38595z" fill="url(#color-68)"/><path d="M61.19698,49.51599h-2.85672l-2.3759,-3.42242c-0.36771,0.14142 -1.44253,0.48084 -2.63045,0.48084c-4.66697,0 -8.68335,-4.44065 -8.68335,-10.35209c0,-5.91144 3.98812,-10.46526 8.68335,-10.46526c4.58207,0 8.65506,4.46894 8.65506,10.46526c0,3.47897 -1.30109,6.56199 -4.10126,8.82474zM52.08936,40.49325h2.46075l2.20618,2.96986c1.44251,-1.18796 2.85672,-3.6204 2.85672,-7.24081c0,-5.2892 -2.99814,-8.7116 -6.30744,-8.7116c-3.19613,0 -6.27916,3.33756 -6.27916,8.7116c0,5.2609 3.02645,8.59845 6.30746,8.59845c0.79196,0 1.01823,-0.05656 1.58393,-0.25455z" fill="url(#color-69)"/><path d="M73.79834,38.11735v7.86307h-2.37591v-7.86307l-7.86309,-11.76632h2.82844l4.80837,7.21253c1.21624,1.83849 1.52737,2.40418 1.61224,2.54561c0.45255,-0.76367 1.01823,-1.6405 1.55563,-2.43247l4.86493,-7.32567h2.43246z" fill="url(#color-70)"/><path d="M107.54062,44.87732c-1.78192,0.90511 -3.79013,1.35765 -5.77004,1.35765c-5.45892,0 -8.99448,-5.00635 -8.99448,-10.09755c0,-5.03463 3.53556,-10.12581 8.93791,-10.12581c2.14962,0 3.70529,0.42427 5.60033,1.38593l-0.42428,2.31934c-1.55565,-1.2728 -2.94158,-1.92334 -5.0912,-1.92334c-4.29923,0 -6.59027,4.55379 -6.59027,8.3439c0,3.93154 2.37588,8.31562 6.44887,8.31562c1.38593,0 2.54559,-0.28285 3.70529,-0.56568v-4.75178h-3.67701v-1.72536h5.85489z" fill="url(#color-71)"/><path d="M113.63162,45.98042h-2.09306v-12.6997h1.95163v2.48902c0.76367,-1.10308 2.26276,-2.60215 4.83663,-2.63045v1.89507c-2.54559,0.0283 -4.6952,1.89507 -4.6952,4.75179z" fill="url(#color-72)"/><path d="M129.76759,45.98042h-2.09305v-1.04652c-1.04652,0.87681 -3.02644,1.32937 -4.5821,1.32937c-2.40418,0 -3.13957,-2.29104 -3.13957,-3.53554c0,-1.41423 1.1031,-2.46075 2.99817,-3.11129c1.69708,-0.5657 3.39414,-0.65054 4.66694,-0.70711v-1.15966c0,-2.06477 -1.13138,-3.11129 -2.43249,-3.11129c-1.6405,0 -2.94158,0.50911 -4.1861,1.41423l-0.16971,-1.86679c1.38593,-0.79196 2.65873,-1.18792 4.35581,-1.18792c2.63045,0 4.5821,1.97991 4.5821,4.69522zM127.61798,40.35182c-1.72537,0 -5.65692,0.42427 -5.65692,2.34762c0,1.04652 1.04656,1.86678 2.57389,1.86678c0.42428,0 1.38596,-0.08486 2.14964,-0.56568c0.93339,-0.5657 0.93339,-1.24452 0.93339,-1.8102z" fill="url(#color-73)"/><path d="M136.27288,51.4676h-2.14964v-18.04544h2.09306v1.32936c1.47077,-1.24452 3.281,-1.61222 4.44066,-1.61222c2.63047,0 4.44066,3.11129 4.44066,6.53371c0,3.84667 -2.43249,6.59026 -5.14778,6.59026c-1.52737,0 -2.71532,-0.67882 -3.67699,-1.55565zM136.27288,42.30345c0,0.45255 0.08484,0.96165 0.79196,1.58393c0.50912,0.39599 1.04652,0.67882 1.83851,0.67882c2.09305,0 4.04469,-2.03647 4.04469,-4.86493c0,-2.68701 -1.69706,-4.80835 -3.79014,-4.80835c-1.15966,0 -2.23448,0.62227 -2.885,1.58393z" fill="url(#color-74)"/><path d="M158.06478,45.98042h-2.14962v-8.31562c0,-0.98995 -0.08487,-2.82844 -2.71532,-2.82844c-2.14962,0 -2.80016,2.34762 -2.80016,4.10124v7.04283h-2.14962v-19.6294h2.09305v8.7399c0.67882,-0.84852 1.97991,-1.95163 3.93154,-1.95163c3.42242,0 3.79013,2.60217 3.79013,4.32751z" fill="url(#color-75)"/><path d="M164.69615,29.20776h-2.43247v-2.43247h2.43247zM164.52646,45.98042h-2.09306v-12.55827h2.09306z" fill="url(#color-76)"/><path d="M178.11547,43.71767c0.0283,0.11314 0.11314,0.98995 0.11314,1.0748c-1.55565,1.13138 -3.13957,1.47079 -4.52551,1.47079c-3.39414,0 -5.99633,-2.96986 -5.99633,-6.59026c0,-3.22443 2.20618,-6.67513 6.10946,-6.67513c1.66878,0 2.60217,0.22627 4.24267,1.18792l-0.33941,1.83849c-1.21624,-0.82025 -2.00821,-1.2728 -3.90326,-1.2728c-2.82846,0 -3.95984,2.57387 -3.95984,4.92149c0,2.74359 1.52737,4.83663 3.87498,4.83663c1.58393,0 3.02644,-0.5374 4.32753,-1.58393z" fill="url(#color-77)"/><path d="M204.50273,44.67933c-2.29104,1.38593 -2.91331,1.55565 -5.74176,1.55565c-4.12955,0 -8.68335,-3.90326 -8.68335,-10.09755c0,-5.85488 4.12955,-10.09752 8.93789,-10.09752c1.95165,0 3.33758,0.25454 5.17608,0.96165l-0.42428,2.31934c-1.41423,-0.96168 -2.82843,-1.52737 -4.69523,-1.52737c-4.29923,0 -6.59027,4.49722 -6.59027,8.31562c0,4.55379 2.80016,8.37218 6.47714,8.37218c2.46075,0 3.64871,-0.48084 5.37408,-1.75362z" fill="url(#color-78)"/><path d="M216.89827,45.98042h-2.09305v-1.04652c-1.04652,0.87681 -3.02644,1.32937 -4.5821,1.32937c-2.40418,0 -3.13957,-2.29104 -3.13957,-3.53554c0,-1.41423 1.1031,-2.46075 2.99817,-3.11129c1.69708,-0.5657 3.39414,-0.65054 4.66694,-0.70711v-1.15966c0,-2.06477 -1.13138,-3.11129 -2.43249,-3.11129c-1.6405,0 -2.94158,0.50911 -4.1861,1.41423l-0.16971,-1.86679c1.38593,-0.79196 2.65873,-1.18792 4.35581,-1.18792c2.63045,0 4.5821,1.97991 4.5821,4.69522zM214.74864,40.35182c-1.72537,0 -5.65692,0.42427 -5.65692,2.34762c0,1.04652 1.04656,1.86678 2.57389,1.86678c0.42428,0 1.38596,-0.08486 2.14964,-0.56568c0.93339,-0.5657 0.93339,-1.24452 0.93339,-1.8102z" fill="url(#color-79)"/><path d="M223.34702,45.98042h-2.09306v-19.6294h2.09306z" fill="url(#color-80)"/><path d="M236.936,43.71767c0.0283,0.11314 0.11314,0.98995 0.11314,1.0748c-1.55565,1.13138 -3.13957,1.47079 -4.52551,1.47079c-3.39414,0 -5.99633,-2.96986 -5.99633,-6.59026c0,-3.22443 2.20618,-6.67513 6.10946,-6.67513c1.66877,0 2.60217,0.22627 4.24266,1.18792l-0.33941,1.83849c-1.21622,-0.82025 -2.00821,-1.2728 -3.90325,-1.2728c-2.82846,0 -3.95985,2.57387 -3.95985,4.92149c0,2.74359 1.52737,4.83663 3.87498,4.83663c1.58393,0 3.02644,-0.5374 4.32753,-1.58393z" fill="url(#color-81)"/><path d="M249.79236,45.98042h-2.09305v-1.41421c-1.72536,1.55565 -3.95982,1.69706 -4.75179,1.69706c-2.31932,0 -2.96988,-1.38593 -2.96988,-3.42241v-9.41872h2.14962v9.30558c0,1.2445 0.19801,1.9799 2.1779,1.9799c1.83848,0 3.33758,-1.04652 3.33758,-3.19615v-8.08933h2.14962z" fill="url(#color-82)"/><path d="M256.25404,45.98042h-2.09306v-19.6294h2.09306z" fill="url(#color-83)"/><path d="M269.50365,45.98042h-2.09305v-1.04652c-1.04652,0.87681 -3.02644,1.32937 -4.5821,1.32937c-2.40418,0 -3.13957,-2.29104 -3.13957,-3.53554c0,-1.41423 1.1031,-2.46075 2.99817,-3.11129c1.69708,-0.5657 3.39414,-0.65054 4.66694,-0.70711v-1.15966c0,-2.06477 -1.13138,-3.11129 -2.43249,-3.11129c-1.6405,0 -2.94158,0.50911 -4.1861,1.41423l-0.16971,-1.86679c1.38593,-0.79196 2.65873,-1.18792 4.35581,-1.18792c2.63045,0 4.5821,1.97991 4.5821,4.69522zM267.35402,40.35182c-1.72537,0 -5.65692,0.42427 -5.65692,2.34762c0,1.04652 1.04656,1.86678 2.57389,1.86678c0.42428,0 1.38596,-0.08486 2.14964,-0.56568c0.93339,-0.5657 0.93339,-1.24452 0.93339,-1.8102z" fill="url(#color-84)"/><path d="M276.48976,42.19032c0,0.98995 0.16971,2.31932 1.41423,2.31932c0.50914,0 1.55566,-0.11314 2.54563,-0.98995l0.42425,1.6405c-0.87681,0.45255 -2.17789,1.1031 -4.07296,1.1031c-1.95163,0 -2.31932,-1.95163 -2.31932,-3.59212v-7.6085h-2.31934v-1.6405h2.37591v-3.59213h1.95162v3.59213h3.90328v1.6405h-3.90328z" fill="url(#color-85)"/><path d="M288.51962,46.26326c-3.22444,0 -6.05289,-2.80016 -6.05289,-6.50543c0,-3.76181 2.7436,-6.75997 6.08118,-6.75997c3.25271,0 6.05287,2.94158 6.05287,6.75997c0,3.64869 -2.7436,6.50543 -6.08117,6.50543zM292.45117,39.47499c0,-3.30927 -1.97991,-4.78006 -3.93156,-4.78006c-1.78192,0 -3.90326,1.35765 -3.90326,4.78006c0,3.33756 1.89506,5.03463 3.93156,5.03463c1.89506,0 3.90326,-1.55563 3.90326,-5.03463z" fill="url(#color-86)"/><path d="M298.94401,45.98042h-2.09306v-12.6997h1.95163v2.48902c0.76367,-1.10308 2.26276,-2.60215 4.83663,-2.63045v1.89507c-2.54559,0.0283 -4.6952,1.89507 -4.6952,4.75179z" fill="url(#color-87)"/></g><g fill-opacity="0.81569" fill="#9b9b9b" stroke-width="1" stroke-linecap="butt" stroke-miterlimit="10"><path d="M35.74385,70.97654h-1.61394l-4.73425,-12.4453h1.61395l2.86923,7.69313c0.43039,1.14769 1.00423,2.65405 1.16563,3.42515h0.01794c0.19725,-0.87871 1.09389,-3.24582 1.8112,-5.16462l2.24158,-5.95366h1.3629z"/><path d="M42.04375,66.94167c0.03586,1.90085 1.21943,3.13822 2.60025,3.13822c0.53797,0 1.59601,-0.12553 2.65404,-1.02216c0,0.07173 0.03587,0.46625 0.05381,0.48418c0,0.03586 0.05379,0.59178 0.05379,0.66351c-0.98629,0.71731 -1.9726,0.95043 -2.7975,0.95043c-2.0802,0 -3.80175,-1.84707 -3.80175,-4.21418c0,-2.33125 1.61395,-4.19625 3.55068,-4.19625c0.52005,0 1.77535,0.14346 2.51059,1.38082c0.57384,0.95043 0.64557,2.04431 0.64557,2.81543zM46.4552,65.97332c-0.30486,-1.90087 -1.54222,-2.15192 -2.09814,-2.15192c-1.05803,0 -1.90086,0.95043 -2.20572,2.15192z"/><path d="M50.71639,70.97654h-1.32703v-8.05178h1.23736v1.57807c0.48419,-0.69937 1.43462,-1.6498 3.0665,-1.66774v1.2015c-1.61394,0.01794 -2.97683,1.2015 -2.97683,3.0127z"/><path d="M59.74532,64.46695c-0.78903,-0.44832 -1.54221,-0.66351 -2.49264,-0.66351c-0.23313,0 -1.48842,0 -1.48842,1.11183c0,0.89664 0.91456,1.07596 1.56015,1.2015c1.09389,0.21519 1.63188,0.32278 2.29539,1.00423c0.07173,0.08965 0.62765,0.66351 0.62765,1.57807c0,1.05804 -0.55592,2.45679 -2.86924,2.45679c-1.64981,0 -2.86924,-0.73524 -2.9589,-0.78904l0.21519,-1.21943c0.96837,0.69938 2.00847,0.89664 2.72578,0.89664c0.25105,0 1.64981,0 1.64981,-1.23736c0,-0.95043 -1.0401,-1.16562 -1.63188,-1.29115c-1.05803,-0.21519 -1.50635,-0.30486 -2.15193,-0.86077c-0.26899,-0.25105 -0.69938,-0.78903 -0.69938,-1.57807c0,-2.33125 2.49265,-2.33125 2.90511,-2.33125c0.41246,0 1.38082,0.01792 2.52852,0.55591z"/><path d="M63.47348,60.34245h-1.54222v-1.54222h1.54222zM63.36589,70.97654h-1.32703v-7.96211h1.32703z"/><path d="M69.13169,71.15585c-2.04433,0 -3.83761,-1.77534 -3.83761,-4.12453c0,-2.38504 1.73948,-4.28591 3.85555,-4.28591c2.06226,0 3.8376,1.865 3.8376,4.28591c0,2.31332 -1.73947,4.12453 -3.85554,4.12453zM71.62435,66.85201c0,-2.09812 -1.25529,-3.03062 -2.49266,-3.03062c-1.12976,0 -2.47471,0.86077 -2.47471,3.03062c0,2.11606 1.20148,3.19202 2.49266,3.19202c1.20148,0 2.47471,-0.98629 2.47471,-3.19202z"/><path d="M81.10609,70.97654h-1.36289v-5.27221c0,-0.62764 -0.05381,-1.79327 -1.72155,-1.79327c-1.36289,0 -1.77534,1.48842 -1.77534,2.60024v4.46525h-1.36289v-8.05178h1.27322v1.21942c0.68145,-0.86077 1.54223,-1.30909 2.54646,-1.30909c2.16985,0 2.40298,1.64981 2.40298,2.7437z"/><path d="M94.87406,70.97654h-1.41669v-3.08443h-4.64459v-1.07596l4.44732,-7.58554h1.61396v7.58554h1.73947v1.07596h-1.73947zM93.54704,66.81615v-6.77855c0,0.66351 -1.16562,2.86922 -1.38081,3.28167c-0.75318,1.43463 -1.45256,2.58232 -1.97261,3.49688z"/></g></g></g></svg>