<svg version="1.1" xmlns="http://www.w3.org/2000/svg" xmlns:xlink="http://www.w3.org/1999/xlink" width="16.71429" height="35.33333" viewBox="0,0,16.71429,35.33333"><g transform="translate(-231.64286,-162.33335)"><g data-paper-data="{&quot;isPaintingLayer&quot;:true}" fill-rule="nonzero" stroke="none" stroke-linecap="butt" stroke-linejoin="miter" stroke-miterlimit="10" stroke-dasharray="" stroke-dashoffset="0" style="mix-blend-mode: normal"><path d="M231.64286,197.66668v-35.33333h16.71429v35.33333z" fill="none" stroke-width="0"/><path d="M237.66823,190.11804c0,-0.06163 -0.00001,-0.10272 0.34924,-0.45198c2.05443,-2.07497 3.20492,-5.46478 3.20492,-9.65581c0,-3.98558 -0.96557,-7.4165 -3.34871,-9.84068c-0.20543,-0.18488 -0.20543,-0.22598 -0.20543,-0.2877c0,-0.1233 0.10273,-0.16425 0.18489,-0.16425c0.26707,0 1.95171,1.47914 2.95837,3.49248c1.04777,2.07497 1.52027,4.27321 1.52027,6.80015c0,1.82844 -0.28761,4.27321 -1.35592,6.47145c-1.21211,2.46531 -2.89675,3.80069 -3.12274,3.80069c-0.08217,0 -0.18489,-0.04111 -0.18489,-0.16436z" data-paper-data="{&quot;index&quot;:null}" fill="#ff0000" stroke-width="1"/></g></g></svg>