<svg version="1.1" xmlns="http://www.w3.org/2000/svg" xmlns:xlink="http://www.w3.org/1999/xlink" width="301" height="133" viewBox="0,0,301,133"><g transform="translate(-94.69443,-121.21179)"><g data-paper-data="{&quot;isPaintingLayer&quot;:true}" fill-rule="nonzero" stroke-width="0" stroke-linecap="butt" stroke-linejoin="miter" stroke-miterlimit="10" stroke-dasharray="" stroke-dashoffset="0" style="mix-blend-mode: normal"><path d="M193.7856,193v-26h125.32608v26z" fill-opacity="0.00392" fill="#ffffff" stroke="#005fff"/><path d="M195.99381,187.35029c0,-2.31969 0,-11.85355 0,-13.4196c0,-0.42506 0.32781,-0.78939 0.66968,-0.78939c1.11765,0 7.15712,0 7.15712,0l3.69826,3.57856c0,0 0.04328,9.16032 0.04973,10.52512c0.00156,0.32957 -0.23571,0.61373 -0.64306,0.61373c-2.17098,0 -9.13478,0 -10.31468,0c-0.33248,0 -0.61706,-0.18339 -0.61706,-0.50842zM202.91625,176.78468l-0.03756,-2.37299l-5.73798,0.00199l0.00579,2.35522c0.22698,0.03779 5.76975,0.01578 5.76975,0.01578zM201.61033,184.61374c0.72661,0 1.31565,-0.58904 1.31565,-1.31565c0,-0.72661 -0.58904,-1.31565 -1.31565,-1.31565c-0.72661,0 -1.31565,0.58904 -1.31565,1.31565c0,0.72661 0.58904,1.31565 1.31565,1.31565z" fill-opacity="0.51765" fill="#7c7c7c" stroke="none"/><path d="M195.5938,186.85029c0,-2.31969 0,-11.85355 0,-13.4196c0,-0.42506 0.32781,-0.78939 0.66968,-0.78939c1.11765,0 7.15712,0 7.15712,0l3.69826,3.57856c0,0 0.04328,9.16032 0.04973,10.52512c0.00156,0.32957 -0.23571,0.61373 -0.64306,0.61373c-2.17098,0 -9.13478,0 -10.31468,0c-0.33248,0 -0.61706,-0.18339 -0.61706,-0.50842zM202.51625,176.28468l-0.03756,-2.37299l-5.73798,0.00199l0.00579,2.35522c0.22698,0.03779 5.76975,0.01578 5.76975,0.01578zM201.21033,184.11374c0.72661,0 1.31565,-0.58904 1.31565,-1.31565c0,-0.72661 -0.58904,-1.31565 -1.31565,-1.31565c-0.72661,0 -1.31565,0.58904 -1.31565,1.31565c0,0.72661 0.58904,1.31565 1.31565,1.31565z" fill="#464646" stroke="none"/><text transform="translate(226.78561,183.48432) scale(0.29036,0.29036)" font-size="40" xml:space="preserve" fill="#000000" fill-rule="nonzero" stroke-opacity="0" stroke="#000000" stroke-width="0" stroke-linecap="butt" stroke-linejoin="miter" stroke-miterlimit="10" stroke-dasharray="" stroke-dashoffset="0" font-family="&quot;Microsoft YaHei&quot;, &quot;微软雅黑&quot;, STXihei, &quot;华文细黑&quot;" font-weight="normal" text-anchor="start" style="mix-blend-mode: normal"><tspan x="0" dy="0">保存</tspan></text><path d="M94.69444,254.21179v-133h301v133z" fill="none" stroke="none"/></g></g></svg>