<svg version="1.1" xmlns="http://www.w3.org/2000/svg" xmlns:xlink="http://www.w3.org/1999/xlink" width="17" height="35.33333" viewBox="0,0,17,35.33333"><g transform="translate(-231.50001,-162.33335)"><g data-paper-data="{&quot;isPaintingLayer&quot;:true}" fill-rule="nonzero" stroke="none" stroke-linecap="butt" stroke-linejoin="miter" stroke-miterlimit="10" stroke-dasharray="" stroke-dashoffset="0" style="mix-blend-mode: normal"><path d="M231.50001,197.66668v-35.33333h17v35.33333z" fill="none" stroke-width="0"/><path d="M240.73765,178.91811c1.18022,-0.68846 1.94738,-1.63264 1.94738,-2.75387c0,-1.41628 -1.2589,-2.43916 -2.69486,-2.43916c-1.39659,0 -2.67517,0.82618 -2.67517,2.02608c0,0.33441 0.07867,1.00319 0.98352,1.59332zM243.11778,180.60979c0.74747,0.82617 0.96384,1.71135 0.96384,2.41947c0,2.10476 -1.86868,3.73741 -4.09145,3.73741c-2.06539,0 -4.07179,-1.31792 -4.07179,-3.403c0,-1.94738 1.69165,-3.04894 2.83255,-3.61938c-0.49176,-0.33441 -1.21956,-0.82618 -1.43594,-1.06223c-0.82617,-0.92451 -0.86551,-1.80968 -0.86551,-2.16374c0,-1.82937 1.5933,-3.28499 3.56035,-3.28499c1.79002,0 3.54069,1.12123 3.54069,2.93091c0,1.29826 -0.96386,2.32112 -2.38013,3.04894c1.25891,0.78681 1.57364,0.98352 1.94737,1.39661zM236.90191,183.36367c0,1.63265 1.41626,2.85223 3.10792,2.85223c1.61299,0 3.08827,-1.02287 3.08827,-2.4785c0,-1.1999 -0.92452,-1.79002 -1.47529,-2.16376l-2.41947,-1.5343c-1.67199,0.92452 -2.30144,2.18343 -2.30144,3.32433z" fill="#ff0000" stroke-width="1"/></g></g></svg>