<svg version="1.1" xmlns="http://www.w3.org/2000/svg" xmlns:xlink="http://www.w3.org/1999/xlink" width="330.74508" height="367.61443" viewBox="0,0,330.74508,367.61443"><defs><linearGradient x1="149.39718" y1="179.02986" x2="373.86795" y2="179.02986" gradientUnits="userSpaceOnUse" id="color-1"><stop offset="0" stop-color="#252523" stop-opacity="0.79216"/><stop offset="1" stop-color="#252523" stop-opacity="0"/></linearGradient><linearGradient x1="201.15743" y1="125.70841" x2="308.53677" y2="125.70841" gradientTransform="translate(-749.32805,-456.73652) scale(3.72509,3.72509)" gradientUnits="userSpaceOnUse" id="color-2"><stop offset="0" stop-color="#ff0000"/><stop offset="1" stop-color="#cc00ff"/></linearGradient><linearGradient x1="244.1536" y1="37.39452" x2="244.1536" y2="43.10275" gradientUnits="userSpaceOnUse" id="color-3"><stop offset="0" stop-color="#ff871f"/><stop offset="1" stop-color="#ffca00"/></linearGradient><linearGradient x1="249.08581" y1="37.39453" x2="249.08581" y2="43.90935" gradientUnits="userSpaceOnUse" id="color-4"><stop offset="0" stop-color="#ff871f"/><stop offset="1" stop-color="#ffca00"/></linearGradient><linearGradient x1="254.37539" y1="37.5574" x2="254.37539" y2="42.93988" gradientUnits="userSpaceOnUse" id="color-5"><stop offset="0" stop-color="#ff871f"/><stop offset="1" stop-color="#ffca00"/></linearGradient><linearGradient x1="261.92919" y1="37.46433" x2="261.92919" y2="43.00968" gradientUnits="userSpaceOnUse" id="color-6"><stop offset="0" stop-color="#ff871f"/><stop offset="1" stop-color="#ffca00"/></linearGradient><linearGradient x1="265.98039" y1="39.41877" x2="265.98039" y2="42.93988" gradientUnits="userSpaceOnUse" id="color-7"><stop offset="0" stop-color="#ff871f"/><stop offset="1" stop-color="#ffca00"/></linearGradient><linearGradient x1="268.70257" y1="39.38" x2="268.70257" y2="43.01744" gradientUnits="userSpaceOnUse" id="color-8"><stop offset="0" stop-color="#ff871f"/><stop offset="1" stop-color="#ffca00"/></linearGradient><linearGradient x1="272.74715" y1="39.41877" x2="272.74715" y2="44.44449" gradientUnits="userSpaceOnUse" id="color-9"><stop offset="0" stop-color="#ff871f"/><stop offset="1" stop-color="#ffca00"/></linearGradient><linearGradient x1="276.4618" y1="37.55741" x2="276.4618" y2="42.93988" gradientUnits="userSpaceOnUse" id="color-10"><stop offset="0" stop-color="#ff871f"/><stop offset="1" stop-color="#ffca00"/></linearGradient><linearGradient x1="279.29228" y1="37.67374" x2="279.29228" y2="42.93988" gradientUnits="userSpaceOnUse" id="color-11"><stop offset="0" stop-color="#ff871f"/><stop offset="1" stop-color="#ffca00"/></linearGradient><linearGradient x1="281.89388" y1="39.38" x2="281.89388" y2="43.01743" gradientUnits="userSpaceOnUse" id="color-12"><stop offset="0" stop-color="#ff871f"/><stop offset="1" stop-color="#ffca00"/></linearGradient><linearGradient x1="288.56322" y1="37.47209" x2="288.56322" y2="43.00968" gradientUnits="userSpaceOnUse" id="color-13"><stop offset="0" stop-color="#ff871f"/><stop offset="1" stop-color="#ffca00"/></linearGradient><linearGradient x1="292.59425" y1="39.38" x2="292.59425" y2="43.01744" gradientUnits="userSpaceOnUse" id="color-14"><stop offset="0" stop-color="#ff871f"/><stop offset="1" stop-color="#ffca00"/></linearGradient><linearGradient x1="295.42118" y1="37.5574" x2="295.42118" y2="42.93988" gradientUnits="userSpaceOnUse" id="color-15"><stop offset="0" stop-color="#ff871f"/><stop offset="1" stop-color="#ffca00"/></linearGradient><linearGradient x1="298.02276" y1="39.38" x2="298.02276" y2="43.01743" gradientUnits="userSpaceOnUse" id="color-16"><stop offset="0" stop-color="#ff871f"/><stop offset="1" stop-color="#ffca00"/></linearGradient><linearGradient x1="301.61397" y1="39.49634" x2="301.61397" y2="43.01744" gradientUnits="userSpaceOnUse" id="color-17"><stop offset="0" stop-color="#ff871f"/><stop offset="1" stop-color="#ffca00"/></linearGradient><linearGradient x1="304.44445" y1="37.5574" x2="304.44445" y2="42.93988" gradientUnits="userSpaceOnUse" id="color-18"><stop offset="0" stop-color="#ff871f"/><stop offset="1" stop-color="#ffca00"/></linearGradient><linearGradient x1="307.0189" y1="39.38" x2="307.0189" y2="43.01744" gradientUnits="userSpaceOnUse" id="color-19"><stop offset="0" stop-color="#ff871f"/><stop offset="1" stop-color="#ffca00"/></linearGradient><linearGradient x1="310.28791" y1="38.51136" x2="310.28791" y2="43.01744" gradientUnits="userSpaceOnUse" id="color-20"><stop offset="0" stop-color="#ff871f"/><stop offset="1" stop-color="#ffca00"/></linearGradient><linearGradient x1="313.58268" y1="39.37999" x2="313.58268" y2="43.01743" gradientUnits="userSpaceOnUse" id="color-21"><stop offset="0" stop-color="#ff871f"/><stop offset="1" stop-color="#ffca00"/></linearGradient><linearGradient x1="316.79398" y1="39.41877" x2="316.79398" y2="42.93988" gradientUnits="userSpaceOnUse" id="color-22"><stop offset="0" stop-color="#ff871f"/><stop offset="1" stop-color="#ffca00"/></linearGradient><linearGradient x1="249.12804" y1="49.0282" x2="249.12804" y2="65.46381" gradientUnits="userSpaceOnUse" id="color-23"><stop offset="0" stop-color="#ffc400"/><stop offset="1" stop-color="#ff7b00"/></linearGradient><linearGradient x1="263.19392" y1="49.02829" x2="263.19392" y2="65.46388" gradientUnits="userSpaceOnUse" id="color-24"><stop offset="0" stop-color="#ffc400"/><stop offset="1" stop-color="#ff7b00"/></linearGradient><linearGradient x1="279.0698" y1="49.02827" x2="279.0698" y2="65.46385" gradientUnits="userSpaceOnUse" id="color-25"><stop offset="0" stop-color="#ffc400"/><stop offset="1" stop-color="#ff7b00"/></linearGradient></defs><g transform="translate(-149.25497,4.77736)"><g data-paper-data="{&quot;isPaintingLayer&quot;:true}" fill-rule="nonzero" stroke-linejoin="miter" stroke-miterlimit="10" stroke-dasharray="" stroke-dashoffset="0" style="mix-blend-mode: normal"><path d="M149.25498,362.83707v-367.61443h210.89974v367.61443z" fill="#000000" stroke="none" stroke-width="0" stroke-linecap="butt"/><path d="M149.39718,362.83707v-367.61443h224.47069v367.61443z" fill="url(#color-1)" stroke="none" stroke-width="0" stroke-linecap="butt"/><path d="M284.54426,362.83707v-367.61443h195.4558v367.61443z" fill="none" stroke="none" stroke-width="0" stroke-linecap="butt"/><text transform="translate(215.67915,82.89) scale(0.21322,0.21322)" font-size="40" xml:space="preserve" fill="#ffffff" fill-rule="nonzero" stroke="none" stroke-width="1" stroke-linecap="butt" stroke-linejoin="miter" stroke-miterlimit="10" stroke-dasharray="" stroke-dashoffset="0" font-family="Sans Serif" font-weight="normal" text-anchor="start" style="mix-blend-mode: normal"><tspan x="0" dy="0">稽何计算器 V4</tspan></text><text transform="translate(201.15712,122.61092) scale(0.26845,0.26845)" font-size="40" xml:space="preserve" fill="url(#color-2)" fill-rule="nonzero" stroke="none" stroke-width="1" stroke-linecap="butt" stroke-linejoin="miter" stroke-miterlimit="10" stroke-dasharray="" stroke-dashoffset="0" font-family="Sans Serif" font-weight="normal" text-anchor="start" style="mix-blend-mode: normal"><tspan x="0" dy="0">新一代图形计算器，</tspan><tspan x="0" dy="46.15px">超强性能，震撼来袭！</tspan></text><text transform="translate(195.85608,311.79883) scale(0.17685,0.17685)" font-size="40" xml:space="preserve" fill="#008aff" fill-rule="nonzero" stroke="none" stroke-width="1" stroke-linecap="butt" stroke-linejoin="miter" stroke-miterlimit="10" stroke-dasharray="" stroke-dashoffset="0" font-family="Sans Serif" font-weight="normal" text-anchor="start" style="mix-blend-mode: normal"><tspan x="0" dy="0">感谢：</tspan><tspan x="0" dy="46.15px">obdopqo   四万字中文画笔字库</tspan><tspan x="0" dy="46.15px">-6                科学计算器(一小部分代码)</tspan><tspan x="0" dy="46.15px">Au               arch图形计算器</tspan></text><text transform="translate(193.99728,155.89434) scale(0.17897,0.17897)" font-size="40" xml:space="preserve" fill="#bdbdbd" fill-rule="nonzero" stroke="none" stroke-width="1" stroke-linecap="butt" stroke-linejoin="miter" stroke-miterlimit="10" stroke-dasharray="" stroke-dashoffset="0" font-family="&quot;CMU Sans Serif&quot;, Sans Serif" font-weight="normal" text-anchor="start" style="mix-blend-mode: normal"><tspan x="0" dy="0">新一代隐函数绘制技术，纵享新丝滑！</tspan><tspan x="0" dy="46.15px">UI重新设计，更美观简洁！</tspan><tspan x="0" dy="46.15px">自定义函数，嵌套随心所欲！</tspan></text><path d="M364.16591,361.7803v-366.36637h66.06607v366.36637z" fill="none" stroke="none" stroke-width="NaN" stroke-linecap="butt"/><text transform="translate(179.50382,25.24846) scale(0.39851,0.39851)" font-size="40" xml:space="preserve" fill="#ffffff" fill-rule="nonzero" stroke-opacity="0" stroke="#000000" stroke-width="0" stroke-linecap="butt" stroke-linejoin="miter" stroke-miterlimit="10" stroke-dasharray="" stroke-dashoffset="0" font-family="Sans Serif" font-weight="normal" text-anchor="start" style="mix-blend-mode: normal"><tspan x="0" dy="0">关于</tspan></text><text transform="translate(277.17915,82.89) scale(0.21322,0.21322)" font-size="40" xml:space="preserve" fill="#afafaf" fill-rule="nonzero" stroke="none" stroke-width="1" stroke-linecap="butt" stroke-linejoin="miter" stroke-miterlimit="10" stroke-dasharray="" stroke-dashoffset="0" font-family="&quot;CMU Sans Serif&quot;, Sans Serif" font-weight="normal" text-anchor="start" style="mix-blend-mode: normal"><tspan x="0" dy="0">sc版</tspan></text><text transform="translate(216.17915,95.90332) scale(0.17655,0.17655)" font-size="40" xml:space="preserve" fill="#afafaf" fill-rule="nonzero" stroke="none" stroke-width="1" stroke-linecap="butt" stroke-linejoin="miter" stroke-miterlimit="10" stroke-dasharray="" stroke-dashoffset="0" font-family="&quot;CMU Sans Serif&quot;, Sans Serif" font-weight="normal" text-anchor="start" style="mix-blend-mode: normal"><tspan x="0" dy="0">基于SQY V3计算引擎</tspan></text><text transform="translate(193.30294,278.89434) scale(0.17897,0.17897)" font-size="40" xml:space="preserve" fill="#ff0000" fill-rule="nonzero" stroke="none" stroke-width="1" stroke-linecap="butt" stroke-linejoin="miter" stroke-miterlimit="10" stroke-dasharray="" stroke-dashoffset="0" font-family="&quot;CMU Sans Serif&quot;, Sans Serif" font-weight="normal" text-anchor="start" style="mix-blend-mode: normal"><tspan x="0" dy="0">本作品由SQY制作，SQY保留所有权利.</tspan><tspan x="0" dy="46.15px">未经允许，严禁转载.</tspan><tspan x="0" dy="46.15px">All rights reserved.</tspan></text><g stroke="none" stroke-width="1" stroke-linecap="butt"><path d="M245.49922,38.40277c-0.2792,-0.24818 -0.62821,-0.50412 -1.28744,-0.50412c-0.68251,0 -1.10907,0.45759 -1.10907,0.93068c0,0.34901 0.2094,0.5429 0.31023,0.65149c0.17063,0.16286 0.36452,0.2094 0.89191,0.34125c0.51963,0.13185 0.8066,0.2094 1.16336,0.58944c0.17063,0.19389 0.41106,0.56617 0.41106,1.06253c0,0.86089 -0.70577,1.6287 -1.70627,1.6287c-0.35676,0 -1.03927,-0.06979 -1.74505,-0.53514l0.11634,-0.62821c0.45759,0.41882 1.06254,0.64373 1.62871,0.64373c0.667,0 1.10907,-0.49636 1.10907,-1.03152c0,-0.27145 -0.11634,-0.51962 -0.24819,-0.65923c-0.24818,-0.25594 -0.35675,-0.28697 -1.016,-0.44984c-0.49636,-0.12409 -0.76006,-0.19389 -1.1401,-0.58169c-0.03878,-0.03878 -0.37228,-0.39554 -0.37228,-0.94619c0,-0.77558 0.67475,-1.52013 1.71402,-1.52013c0.69026,0 1.07805,0.2094 1.39603,0.38003z" fill="url(#color-3)"/><path d="M251.24578,43.90935h-0.78332l-0.65149,-0.93845c-0.10083,0.03878 -0.39554,0.13185 -0.72128,0.13185c-1.27971,0 -2.38102,-1.21765 -2.38102,-2.83859c0,-1.62094 1.09356,-2.86962 2.38102,-2.86962c1.25643,0 2.37326,1.22541 2.37326,2.86962c0,0.95395 -0.35676,1.79933 -1.12458,2.41979zM248.74843,41.43527h0.67476l0.60494,0.81435c0.39554,-0.32574 0.78333,-0.99273 0.78333,-1.98546c0,-1.45032 -0.82211,-2.38876 -1.72953,-2.38876c-0.8764,0 -1.72178,0.91517 -1.72178,2.38876c0,1.44257 0.82987,2.35774 1.72953,2.35774c0.21716,0 0.27921,-0.01551 0.43433,-0.0698z" fill="url(#color-4)"/><path d="M254.70114,40.78379v2.15609h-0.65148v-2.15609l-2.1561,-3.22639h0.77557l1.31848,1.97772c0.3335,0.50413 0.41881,0.65924 0.44208,0.69802c0.12409,-0.2094 0.2792,-0.44984 0.42656,-0.66699l1.33399,-2.00874h0.66699z" fill="url(#color-5)"/><path d="M263.95344,42.6374c-0.48861,0.24818 -1.03928,0.37228 -1.58218,0.37228c-1.49686,0 -2.46633,-1.37277 -2.46633,-2.7688c0,-1.38052 0.96947,-2.77655 2.45082,-2.77655c0.58943,0 1.01601,0.11634 1.53564,0.38003l-0.11634,0.63597c-0.42657,-0.34901 -0.8066,-0.52739 -1.39603,-0.52739c-1.17887,0 -1.80709,1.24867 -1.80709,2.28794c0,1.07805 0.65148,2.28019 1.76832,2.28019c0.38003,0 0.69801,-0.07756 1.01601,-0.15511v-1.30297h-1.00826v-0.4731h1.60544z" fill="url(#color-6)"/><path d="M265.62363,42.93988h-0.57393v-3.48233h0.53515v0.6825c0.2094,-0.30247 0.62046,-0.71352 1.32623,-0.72128v0.51964c-0.69801,0.00776 -1.28745,0.51964 -1.28745,1.30297z" fill="url(#color-7)"/><path d="M270.04819,42.93988h-0.57392v-0.28696c-0.28696,0.24043 -0.82986,0.36452 -1.25644,0.36452c-0.65924,0 -0.86088,-0.62821 -0.86088,-0.96946c0,-0.38779 0.30248,-0.67475 0.82211,-0.85313c0.46535,-0.15512 0.93069,-0.17838 1.2797,-0.19389v-0.31799c0,-0.56617 -0.31023,-0.85312 -0.667,-0.85312c-0.44984,0 -0.8066,0.13959 -1.14785,0.38778l-0.04654,-0.51188c0.38003,-0.21716 0.72904,-0.32573 1.19439,-0.32573c0.72128,0 1.25643,0.5429 1.25643,1.28746zM269.45876,41.39649c-0.4731,0 -1.55115,0.11634 -1.55115,0.64373c0,0.28696 0.28698,0.51188 0.70578,0.51188c0.11634,0 0.38003,-0.02327 0.58944,-0.15511c0.25594,-0.15512 0.25594,-0.34126 0.25594,-0.49637z" fill="url(#color-8)"/><path d="M271.83197,44.44449h-0.58944v-4.94815h0.57393v0.36452c0.4033,-0.34125 0.89966,-0.44208 1.21765,-0.44208c0.72129,0 1.21765,0.85313 1.21765,1.79158c0,1.05478 -0.667,1.80709 -1.41154,1.80709c-0.41881,0 -0.74455,-0.18613 -1.00825,-0.42656zM271.83197,41.93163c0,0.12409 0.02326,0.26369 0.21716,0.43433c0.13961,0.10858 0.28696,0.18614 0.50413,0.18614c0.57392,0 1.10907,-0.55841 1.10907,-1.33399c0,-0.7368 -0.46534,-1.31847 -1.03927,-1.31847c-0.31799,0 -0.61271,0.17063 -0.79108,0.43432z" fill="url(#color-9)"/><path d="M277.80742,42.93988h-0.58943v-2.28019c0,-0.27145 -0.02327,-0.77557 -0.74455,-0.77557c-0.58943,0 -0.76783,0.64373 -0.76783,1.12458v1.93118h-0.58943v-5.38249h0.57392v2.39652c0.18613,-0.23267 0.5429,-0.53514 1.07805,-0.53514c0.93845,0 1.03927,0.71353 1.03927,1.18663z" fill="url(#color-10)"/><path d="M279.62577,38.34073h-0.66699v-0.66699h0.66699zM279.57925,42.93988h-0.57393v-3.44354h0.57393z" fill="url(#color-11)"/><path d="M283.30543,42.31942c0.00776,0.03102 0.03102,0.27145 0.03102,0.29472c-0.42657,0.31023 -0.86088,0.40329 -1.24092,0.40329c-0.93069,0 -1.64422,-0.81434 -1.64422,-1.80708c0,-0.88415 0.60495,-1.83035 1.67525,-1.83035c0.45759,0 0.71353,0.06205 1.16336,0.32574l-0.09307,0.50412c-0.3335,-0.22492 -0.55066,-0.34901 -1.07029,-0.34901c-0.77558,0 -1.08581,0.70577 -1.08581,1.3495c0,0.7523 0.41881,1.32623 1.06254,1.32623c0.43432,0 0.82987,-0.14735 1.18663,-0.43432z" fill="url(#color-12)"/><path d="M290.54094,42.58311c-0.62822,0.38003 -0.79884,0.42657 -1.57441,0.42657c-1.13234,0 -2.38102,-1.0703 -2.38102,-2.7688c0,-1.60544 1.13234,-2.76879 2.45081,-2.76879c0.53515,0 0.91518,0.0698 1.41931,0.26369l-0.11634,0.63597c-0.38779,-0.26369 -0.77557,-0.41881 -1.28746,-0.41881c-1.17887,0 -1.80708,1.23316 -1.80708,2.28018c0,1.24867 0.76782,2.2957 1.77606,2.2957c0.67475,0 1.0005,-0.13186 1.4736,-0.48086z" fill="url(#color-13)"/><path d="M293.93986,42.93988h-0.57393v-0.28696c-0.28696,0.24043 -0.82986,0.36452 -1.25643,0.36452c-0.65924,0 -0.86088,-0.62821 -0.86088,-0.96946c0,-0.38779 0.30248,-0.67475 0.82211,-0.85313c0.46535,-0.15512 0.93069,-0.17838 1.2797,-0.19389v-0.31799c0,-0.56617 -0.31023,-0.85312 -0.667,-0.85312c-0.44984,0 -0.8066,0.13959 -1.14785,0.38778l-0.04654,-0.51188c0.38003,-0.21716 0.72904,-0.32573 1.19439,-0.32573c0.72128,0 1.25643,0.5429 1.25643,1.28746zM293.35042,41.39649c-0.4731,0 -1.55115,0.11634 -1.55115,0.64373c0,0.28696 0.28698,0.51188 0.70578,0.51188c0.11634,0 0.38003,-0.02327 0.58944,-0.15511c0.25594,-0.15512 0.25594,-0.34126 0.25594,-0.49637z" fill="url(#color-14)"/><path d="M295.70814,42.93988h-0.57393v-5.38248h0.57393z" fill="url(#color-15)"/><path d="M299.43431,42.31942c0.00776,0.03102 0.03102,0.27145 0.03102,0.29472c-0.42657,0.31023 -0.86088,0.40329 -1.24091,0.40329c-0.93069,0 -1.64423,-0.81434 -1.64423,-1.80708c0,-0.88415 0.60495,-1.83035 1.67524,-1.83035c0.45758,0 0.71353,0.06205 1.16336,0.32574l-0.09307,0.50412c-0.3335,-0.22492 -0.55066,-0.34901 -1.07029,-0.34901c-0.77558,0 -1.08581,0.70577 -1.08581,1.3495c0,0.7523 0.41881,1.32623 1.06254,1.32623c0.43432,0 0.82987,-0.14735 1.18663,-0.43432z" fill="url(#color-16)"/><path d="M302.95959,42.93988h-0.57393v-0.38778c-0.4731,0.42657 -1.0858,0.46534 -1.30296,0.46534c-0.63597,0 -0.81436,-0.38003 -0.81436,-0.93845v-2.58266h0.58944v2.55164c0,0.34125 0.0543,0.5429 0.59719,0.5429c0.50412,0 0.91519,-0.28696 0.91519,-0.8764v-2.21814h0.58943z" fill="url(#color-17)"/><path d="M304.73142,42.93988h-0.57393v-5.38248h0.57393z" fill="url(#color-18)"/><path d="M308.36453,42.93988h-0.57393v-0.28696c-0.28696,0.24043 -0.82986,0.36452 -1.25644,0.36452c-0.65924,0 -0.86089,-0.62821 -0.86089,-0.96946c0,-0.38779 0.30248,-0.67475 0.82212,-0.85313c0.46535,-0.15512 0.93068,-0.17838 1.2797,-0.19389v-0.31799c0,-0.56617 -0.31023,-0.85312 -0.667,-0.85312c-0.44984,0 -0.8066,0.13959 -1.14785,0.38778l-0.04654,-0.51188c0.38003,-0.21716 0.72904,-0.32573 1.19439,-0.32573c0.72128,0 1.25644,0.5429 1.25644,1.28746zM307.77509,41.39649c-0.4731,0 -1.55115,0.11634 -1.55115,0.64373c0,0.28696 0.28697,0.51188 0.70577,0.51188c0.11634,0 0.38004,-0.02327 0.58944,-0.15511c0.25594,-0.15512 0.25594,-0.34126 0.25594,-0.49637z" fill="url(#color-19)"/><path d="M310.28015,41.90061c0,0.27145 0.04653,0.63597 0.38779,0.63597c0.13961,0 0.42657,-0.03102 0.69802,-0.27144l0.11634,0.44983c-0.24043,0.12409 -0.59719,0.30248 -1.11683,0.30248c-0.53515,0 -0.63597,-0.53514 -0.63597,-0.98497v-2.08629h-0.63597v-0.44984h0.65148v-0.98498h0.53515v0.98498h1.0703v0.44984h-1.0703z" fill="url(#color-20)"/><path d="M313.5788,43.01743c-0.88416,0 -1.65973,-0.76781 -1.65973,-1.78382c0,-1.03151 0.75231,-1.85362 1.66749,-1.85362c0.89191,0 1.65973,0.8066 1.65973,1.85362c0,1.00049 -0.75232,1.78382 -1.66749,1.78382zM314.65685,41.15606c0,-0.90742 -0.5429,-1.31072 -1.07806,-1.31072c-0.48861,0 -1.07029,0.37228 -1.07029,1.31072c0,0.91517 0.51963,1.38052 1.07805,1.38052c0.51963,0 1.0703,-0.42656 1.0703,-1.38052z" fill="url(#color-21)"/><path d="M316.43722,42.93988h-0.57393v-3.48233h0.53515v0.6825c0.2094,-0.30247 0.62046,-0.71352 1.32623,-0.72128v0.51964c-0.69801,0.00776 -1.28744,0.51964 -1.28744,1.30297z" fill="url(#color-22)"/></g><g stroke="none" stroke-width="1" stroke-linecap="butt"><path d="M254.52339,54.21962c-0.09067,0.36272 -0.11335,0.43075 -0.31739,0.43075c-0.068,0 -0.24937,0 -0.24937,-0.20402c0,-0.09067 0.11335,-0.70274 0.11335,-1.29218c0,-2.15362 -1.04278,-3.5138 -3.26444,-3.5138c-2.15362,0 -4.08053,1.94961 -4.08053,3.85386c0,0.77078 0.29471,1.31486 0.68009,1.70021c0.40806,0.36272 0.61209,0.43073 2.13092,0.83878c2.08563,0.54407 2.49368,0.65742 2.96974,1.13348c0.86147,0.83878 1.08816,1.67757 1.08816,2.62968c0,2.83373 -2.67502,5.66746 -5.59941,5.66746c-2.10829,0 -3.28713,-0.90678 -3.83121,-1.72288l-1.04279,1.36017c-0.27204,0.34006 -0.29473,0.36272 -0.3854,0.36272c-0.04534,0 -0.22671,0 -0.22671,-0.20402c0,-0.02266 0.09065,-0.31738 0.09065,-0.34006l1.15615,-4.64729c0.09067,-0.38538 0.11335,-0.43073 0.31739,-0.43073c0.18135,0 0.22671,0.11335 0.22671,0.20403c0,0.04534 -0.02267,0.15869 -0.02267,0.22671c-0.068,0.22671 -0.15869,0.7708 -0.15869,1.20152c0,2.53904 2.06294,3.33243 3.92187,3.33243c2.26694,0 4.21656,-2.17629 4.21656,-4.2846c0,-1.06547 -0.45337,-1.58686 -0.54407,-1.70021c-0.47607,-0.49871 -0.7708,-0.58942 -1.92691,-0.90679c-0.68009,-0.1587 -2.01759,-0.52141 -2.26694,-0.61209c-1.11082,-0.38538 -2.13098,-1.38285 -2.13098,-3.0831c0,-2.56168 2.60702,-5.1914 5.48608,-5.1914c0.95212,0 2.44832,0.24937 3.19642,1.7229c0.02265,-0.02266 0.95212,-1.20151 1.08816,-1.36017c0.27204,-0.34005 0.29472,-0.36272 0.38539,-0.36272c0.04534,0 0.20405,0.00001 0.20405,0.20403z" fill="url(#color-23)"/><path d="M269.65485,55.01309c-0.09067,0.40807 -0.11335,0.43071 -0.36272,0.43071c-0.068,0 -0.29471,0.00003 -0.29471,-0.20402c0,-0.31737 0.09067,-0.81612 0.09067,-1.17882c0,-2.08563 -0.95214,-4.37525 -3.62717,-4.37525c-1.99494,0 -4.10325,1.11082 -5.53142,2.74304c-2.19898,2.5617 -2.74304,6.03015 -2.74304,7.54903c0,3.92187 2.83373,4.82867 4.5793,4.82867c1.33751,0 3.12841,-0.52141 3.98989,-1.79092c0.43075,-0.6801 0.86145,-2.96975 0.86145,-2.99242c0,-0.34006 0.00001,-0.52141 -1.79092,-0.52141h-0.56676c0,-0.02266 -0.18135,-0.02268 -0.18135,-0.24938c0,-0.40807 0.27204,-0.40805 0.47604,-0.40805c0.92946,0 1.92691,0.04534 2.87906,0.04534h1.22416c0.40807,0 0.83878,-0.04534 1.22416,-0.04534c0.068,0 0.29471,0 0.29471,0.22671c0,0.43075 -0.27204,0.43071 -0.36271,0.43071c-1.24683,0.02266 -1.29217,0.09067 -1.51886,0.95212c-0.1587,0.6801 -0.24937,0.99746 -0.43075,1.74558l-0.36271,1.45085c-0.11335,0.40807 -0.29472,1.20151 -0.31739,1.24685c-0.02265,0 -0.04534,0.068 -0.15869,0.068c-0.1587,0 -0.65741,-0.61209 -0.90679,-1.47352c-1.13349,1.4282 -3.19645,1.97229 -4.82867,1.97229c-3.40048,0 -5.9848,-2.40301 -5.9848,-6.14352c0,-5.35005 5.1007,-10.29206 9.95203,-10.29206c0.34006,0 1.31487,0 2.28964,0.61209c0.88411,0.52141 1.33754,1.31486 1.45088,1.49621l1.56419,-1.88159c0.18135,-0.22671 0.27204,-0.22671 0.31737,-0.22671c0.04534,0 0.20404,0.00001 0.20404,0.20403z" fill="url(#color-24)"/><path d="M285.54203,55.01309c-0.09067,0.40807 -0.11336,0.43071 -0.36272,0.43071c-0.068,0 -0.29473,0.00003 -0.29473,-0.20402c0,-0.09067 0.06802,-0.58941 0.06802,-1.17882c0,-2.31233 -1.11082,-4.37525 -3.60451,-4.37525c-2.15362,0 -4.2846,1.26954 -5.53142,2.72039c-2.56167,2.96974 -2.78839,6.91426 -2.78839,7.6397c0,3.21909 2.08563,4.76064 4.48862,4.76064c2.26695,0 5.32738,-1.7002 6.3702,-5.23672c0.04534,-0.09067 0.068,-0.22671 0.27204,-0.22671c0.068,0 0.24937,0 0.24937,0.20402c0,0.18135 -0.5894,2.38033 -2.56167,4.03522c-1.31487,1.11082 -2.90171,1.88159 -4.71532,1.88159c-3.3098,0 -5.96215,-2.35767 -5.96215,-6.14352c0,-5.3274 5.07803,-10.29206 9.97469,-10.29206c1.7002,0 2.94706,0.77079 3.74051,2.13097l1.56423,-1.90426c0.18135,-0.22671 0.27204,-0.22671 0.31739,-0.22671c0.04534,0 0.20402,0 0.20402,0.20405z" fill="url(#color-25)"/></g><g><path d="M209.27442,59.03539c0,-4.91568 3.98495,-8.90063 8.90063,-8.90063c4.91568,0 8.90063,3.98495 8.90063,8.90063c0,4.91568 -3.98495,8.90063 -8.90063,8.90063c-4.91568,0 -8.90063,-3.98495 -8.90063,-8.90063z" fill-opacity="0.40392" fill="#6dff00" stroke="none" stroke-width="0" stroke-linecap="butt"/><path d="M233.27379,38.25587c0,0 -5.63611,24.57778 -12.5886,24.57778c-6.9525,0 -12.58861,-24.57778 -12.58861,-24.57778z" fill-opacity="0.1451" fill="#ff0000" stroke="none" stroke-width="0" stroke-linecap="butt"/><path d="M230.33808,70.90289c0,0 -2.69279,-30.29433 -8.87448,-10.14228c-6.36163,20.73859 -10.70572,-21.83406 -10.70572,-21.83406" fill="none" stroke="#006bff" stroke-width="0.5" stroke-linecap="round"/></g></g></g></svg>