<svg version="1.1" xmlns="http://www.w3.org/2000/svg" xmlns:xlink="http://www.w3.org/1999/xlink" width="480" height="153.25894" viewBox="0,0,480,153.25894"><g transform="translate(0,-206.74107)"><g data-paper-data="{&quot;isPaintingLayer&quot;:true}" fill-rule="nonzero" stroke-linejoin="miter" stroke-miterlimit="10" stroke-dasharray="" stroke-dashoffset="0" style="mix-blend-mode: normal"><path d="M0,360.00002v-153.25894h480v153.25894z" fill-opacity="0.84314" fill="#252525" stroke="none" stroke-width="0" stroke-linecap="butt"/><path d="" fill-opacity="0.91765" fill="#fff6d1" stroke="none" stroke-width="1" stroke-linecap="butt"/><path d="" fill-opacity="0.91765" fill="#fff6d1" stroke="none" stroke-width="1" stroke-linecap="butt"/><path d="" fill-opacity="0.91765" fill="#fff6d1" stroke="none" stroke-width="1" stroke-linecap="butt"/><path d="" fill-opacity="0.91765" fill="#fff6d1" stroke="none" stroke-width="1" stroke-linecap="butt"/><path d="" fill-opacity="0.91765" fill="#fff6d1" stroke="none" stroke-width="1" stroke-linecap="butt"/><path d="" fill-opacity="0.91765" fill="#fff6d1" stroke="none" stroke-width="1" stroke-linecap="butt"/><path d="" fill-opacity="0.91765" fill="#fff6d1" stroke="none" stroke-width="1" stroke-linecap="butt"/><g><path d="M389.43421,353.11947c-6.38671,0 -26.82055,0 -30.94966,0c-1.43613,0 -2.38095,-0.95831 -2.38095,-2.4908c0,-5.38467 0,-17.85811 0,-20.75669c0,-1.17748 0.79545,-2.32476 2.15471,-2.32476c4.08267,0 25.00144,0 31.2298,0c1.11979,0 2.05755,0.87327 2.05755,1.82658c0,2.7465 0,16.26468 0,21.58696c0,1.33855 -0.88864,2.1587 -2.11143,2.1587z" data-paper-data="{&quot;index&quot;:null}" fill="#d0d0d0" stroke="#d0d0d0" stroke-width="0.5" stroke-linecap="butt"/><path d="M395.22553,352.95279c-1.22279,0 -2.11143,-0.82015 -2.11143,-2.1587c0,-5.32228 0,-18.84046 0,-21.58696c0,-0.95331 0.93776,-1.82658 2.05755,-1.82658c6.22836,0 27.14713,0 31.2298,0c1.35926,0 2.15471,1.14728 2.15471,2.32476c0,2.89858 0,15.37202 0,20.75669c0,1.53249 -0.94482,2.4908 -2.38095,2.4908c-4.12911,0 -24.56295,0 -30.94966,0z" data-paper-data="{&quot;index&quot;:null}" fill="#d0d0d0" stroke="#d0d0d0" stroke-width="0.5" stroke-linecap="butt"/><path d="M89.74711,322.9528c-6.38671,0 -26.82055,0 -30.94966,0c-1.43613,0 -2.38095,-0.95831 -2.38095,-2.4908c0,-5.38467 0,-17.85811 0,-20.75669c0,-1.17748 0.79545,-2.32476 2.15471,-2.32476c4.08267,0 25.00144,0 31.2298,0c1.11979,0 2.05755,0.87327 2.05755,1.82658c0,2.7465 0,16.26468 0,21.58696c0,1.33855 -0.88864,2.1587 -2.11143,2.1587z" data-paper-data="{&quot;index&quot;:null}" fill="#d0d0d0" stroke="#d0d0d0" stroke-width="0.5" stroke-linecap="butt"/><path d="M127.47077,323.02727c-6.38671,0 -26.82055,0 -30.94966,0c-1.43613,0 -2.38095,-0.95831 -2.38095,-2.4908c0,-5.38467 0,-17.85811 0,-20.75669c0,-1.17748 0.79545,-2.32476 2.15471,-2.32476c4.08267,0 25.00144,0 31.2298,0c1.11979,0 2.05755,0.87327 2.05755,1.82658c0,2.7465 0,16.26468 0,21.58696c0,1.33855 -0.88864,2.1587 -2.11143,2.1587z" data-paper-data="{&quot;index&quot;:null}" fill-opacity="0.91765" fill="#ffffff" stroke="#d0d0d0" stroke-width="0.5" stroke-linecap="butt"/><path d="M146.22591,293.02727c-6.38671,0 -26.82055,0 -30.94966,0c-1.43613,0 -2.38095,-0.95831 -2.38095,-2.4908c0,-5.38467 0,-17.85811 0,-20.75669c0,-1.17748 0.79545,-2.32476 2.15471,-2.32476c4.08267,0 25.00144,0 31.2298,0c1.11979,0 2.05755,0.87327 2.05755,1.82658c0,2.7465 0,16.26468 0,21.58696c0,1.33855 -0.88864,2.1587 -2.11143,2.1587z" data-paper-data="{&quot;index&quot;:null}" fill-opacity="0.91765" fill="#ffffff" stroke="#d0d0d0" stroke-width="0.5" stroke-linecap="butt"/><path d="M108.78553,293.02727c-6.38671,0 -26.82055,0 -30.94966,0c-1.43613,0 -2.38095,-0.95831 -2.38095,-2.4908c0,-5.38467 0,-17.85811 0,-20.75669c0,-1.17748 0.79545,-2.32476 2.15471,-2.32476c4.08267,0 25.00144,0 31.2298,0c1.11979,0 2.05755,0.87327 2.05755,1.82658c0,2.7465 0,16.26468 0,21.58696c0,1.33855 -0.88864,2.1587 -2.11143,2.1587z" data-paper-data="{&quot;index&quot;:null}" fill-opacity="0.91765" fill="#ffffff" stroke="#d0d0d0" stroke-width="0.5" stroke-linecap="butt"/><path d="M202.12038,263.02725c-6.38671,0 -26.82055,0 -30.94966,0c-1.43613,0 -2.38095,-0.95831 -2.38095,-2.4908c0,-5.38467 0,-17.85811 0,-20.75669c0,-1.17748 0.79545,-2.32476 2.15471,-2.32476c4.08267,0 25.00144,0 31.2298,0c1.11979,0 2.05755,0.87327 2.05755,1.82658c0,2.7465 0,16.26468 0,21.58696c0,1.33855 -0.88864,2.1587 -2.11143,2.1587z" data-paper-data="{&quot;index&quot;:null}" fill-opacity="0.91765" fill="#ffffff" stroke="#d0d0d0" stroke-width="0.5" stroke-linecap="butt"/><path d="M164.68,263.0272c-6.38671,0 -26.82055,0 -30.94966,0c-1.43613,0 -2.38095,-0.95831 -2.38095,-2.4908c0,-5.38467 0,-17.85811 0,-20.75669c0,-1.17748 0.79545,-2.32476 2.15471,-2.32476c4.08267,0 25.00144,0 31.2298,0c1.11979,0 2.05755,0.87327 2.05755,1.82658c0,2.7465 0,16.26468 0,21.58696c0,1.33855 -0.88864,2.1587 -2.11143,2.1587z" data-paper-data="{&quot;index&quot;:null}" fill-opacity="0.91765" fill="#ffffff" stroke="#d0d0d0" stroke-width="0.5" stroke-linecap="butt"/><path d="M276.8545,263.02727c-6.38671,0 -26.82055,0 -30.94966,0c-1.43613,0 -2.38095,-0.95831 -2.38095,-2.4908c0,-5.38467 0,-17.85811 0,-20.75669c0,-1.17748 0.79545,-2.32476 2.15471,-2.32476c4.08267,0 25.00144,0 31.2298,0c1.11979,0 2.05755,0.87327 2.05755,1.82658c0,2.7465 0,16.26468 0,21.58696c0,1.33855 -0.88864,2.1587 -2.11143,2.1587z" data-paper-data="{&quot;index&quot;:null}" fill-opacity="0.91765" fill="#ffffff" stroke="#d0d0d0" stroke-width="0.5" stroke-linecap="butt"/><path d="M239.41411,263.02725c-6.38671,0 -26.82055,0 -30.94966,0c-1.43613,0 -2.38095,-0.95831 -2.38095,-2.4908c0,-5.38467 0,-17.85811 0,-20.75669c0,-1.17748 0.79545,-2.32476 2.15471,-2.32476c4.08267,0 25.00144,0 31.2298,0c1.11979,0 2.05755,0.87327 2.05755,1.82658c0,2.7465 0,16.26468 0,21.58696c0,1.33855 -0.88864,2.1587 -2.11143,2.1587z" data-paper-data="{&quot;index&quot;:null}" fill-opacity="0.91765" fill="#ffffff" stroke="#d0d0d0" stroke-width="0.5" stroke-linecap="butt"/><path d="M351.71059,263.02727c-6.38671,0 -26.82055,0 -30.94966,0c-1.43613,0 -2.38095,-0.95831 -2.38095,-2.4908c0,-5.38467 0,-17.85811 0,-20.75669c0,-1.17748 0.79545,-2.32476 2.15471,-2.32476c4.08267,0 25.00144,0 31.2298,0c1.11979,0 2.05755,0.87327 2.05755,1.82658c0,2.7465 0,16.26468 0,21.58696c0,1.33855 -0.88864,2.1587 -2.11143,2.1587z" data-paper-data="{&quot;index&quot;:null}" fill-opacity="0.91765" fill="#ffffff" stroke="#d0d0d0" stroke-width="0.5" stroke-linecap="butt"/><path d="M314.27021,263.02725c-6.38671,0 -26.82055,0 -30.94966,0c-1.43613,0 -2.38095,-0.95831 -2.38095,-2.4908c0,-5.38467 0,-17.85811 0,-20.75669c0,-1.17748 0.79545,-2.32476 2.15471,-2.32476c4.08267,0 25.00144,0 31.2298,0c1.11979,0 2.05755,0.87327 2.05755,1.82658c0,2.7465 0,16.26468 0,21.58696c0,1.33855 -0.88864,2.1587 -2.11143,2.1587z" data-paper-data="{&quot;index&quot;:null}" fill-opacity="0.91765" fill="#ffffff" stroke="#d0d0d0" stroke-width="0.5" stroke-linecap="butt"/><path d="M426.44471,263.02727c-6.38671,0 -26.82055,0 -30.94966,0c-1.43613,0 -2.38095,-0.95831 -2.38095,-2.4908c0,-5.38467 0,-17.85811 0,-20.75669c0,-1.17748 0.79545,-2.32476 2.15471,-2.32476c4.08267,0 25.00144,0 31.2298,0c1.11979,0 2.05755,0.87327 2.05755,1.82658c0,2.7465 0,16.26468 0,21.58696c0,1.33855 -0.88864,2.1587 -2.11143,2.1587z" data-paper-data="{&quot;index&quot;:null}" fill-opacity="0.91765" fill="#ffffff" stroke="#d0d0d0" stroke-width="0.5" stroke-linecap="butt"/><path d="M389.00432,263.02725c-6.38671,0 -26.82055,0 -30.94966,0c-1.43613,0 -2.38095,-0.95831 -2.38095,-2.4908c0,-5.38467 0,-17.85811 0,-20.75669c0,-1.17748 0.79545,-2.32476 2.15471,-2.32476c4.08267,0 25.00144,0 31.2298,0c1.11979,0 2.05755,0.87327 2.05755,1.82658c0,2.7465 0,16.26468 0,21.58696c0,1.33855 -0.88864,2.1587 -2.11143,2.1587z" data-paper-data="{&quot;index&quot;:null}" fill-opacity="0.91765" fill="#ffffff" stroke="#d0d0d0" stroke-width="0.5" stroke-linecap="butt"/><path d="M127.18753,263.02727c-6.38671,0 -26.82055,0 -30.94966,0c-1.43613,0 -2.38095,-0.95831 -2.38095,-2.4908c0,-5.38467 0,-17.85811 0,-20.75669c0,-1.17748 0.79545,-2.32476 2.15471,-2.32476c4.08267,0 25.00144,0 31.2298,0c1.11979,0 2.05755,0.87327 2.05755,1.82658c0,2.7465 0,16.26468 0,21.58696c0,1.33855 -0.88864,2.1587 -2.11143,2.1587z" data-paper-data="{&quot;index&quot;:null}" fill-opacity="0.91765" fill="#ffffff" stroke="#d0d0d0" stroke-width="0.5" stroke-linecap="butt"/><path d="M89.74715,263.02727c-6.38671,0 -26.82055,0 -30.94966,0c-1.43613,0 -2.38095,-0.95831 -2.38095,-2.4908c0,-5.38467 0,-17.85811 0,-20.75669c0,-1.17748 0.79545,-2.32476 2.15471,-2.32476c4.08267,0 25.00144,0 31.2298,0c1.11979,0 2.05755,0.87327 2.05755,1.82658c0,2.7465 0,16.26468 0,21.58696c0,1.33855 -0.88864,2.1587 -2.11143,2.1587z" data-paper-data="{&quot;index&quot;:null}" fill-opacity="0.91765" fill="#ffffff" stroke="#d0d0d0" stroke-width="0.5" stroke-linecap="butt"/><path d="M221.15876,293.02725c-6.38671,0 -26.82055,0 -30.94966,0c-1.43613,0 -2.38095,-0.95831 -2.38095,-2.4908c0,-5.38467 0,-17.85811 0,-20.75669c0,-1.17748 0.79545,-2.32476 2.15471,-2.32476c4.08267,0 25.00144,0 31.2298,0c1.11979,0 2.05755,0.87327 2.05755,1.82658c0,2.7465 0,16.26468 0,21.58696c0,1.33855 -0.88864,2.1587 -2.11143,2.1587z" data-paper-data="{&quot;index&quot;:null}" fill-opacity="0.91765" fill="#ffffff" stroke="#d0d0d0" stroke-width="0.5" stroke-linecap="butt"/><path d="M183.71838,293.0272c-6.38671,0 -26.82055,0 -30.94966,0c-1.43613,0 -2.38095,-0.95831 -2.38095,-2.4908c0,-5.38467 0,-17.85811 0,-20.75669c0,-1.17748 0.79545,-2.32476 2.15471,-2.32476c4.08267,0 25.00144,0 31.2298,0c1.11979,0 2.05755,0.87327 2.05755,1.82658c0,2.7465 0,16.26468 0,21.58696c0,1.33855 -0.88864,2.1587 -2.11143,2.1587z" data-paper-data="{&quot;index&quot;:null}" fill-opacity="0.91765" fill="#ffffff" stroke="#d0d0d0" stroke-width="0.5" stroke-linecap="butt"/><path d="M295.89287,293.02727c-6.38671,0 -26.82055,0 -30.94966,0c-1.43613,0 -2.38095,-0.95831 -2.38095,-2.4908c0,-5.38467 0,-17.85811 0,-20.75669c0,-1.17748 0.79545,-2.32476 2.15471,-2.32476c4.08267,0 25.00144,0 31.2298,0c1.11979,0 2.05755,0.87327 2.05755,1.82658c0,2.7465 0,16.26468 0,21.58696c0,1.33855 -0.88864,2.1587 -2.11143,2.1587z" data-paper-data="{&quot;index&quot;:null}" fill-opacity="0.91765" fill="#ffffff" stroke="#d0d0d0" stroke-width="0.5" stroke-linecap="butt"/><path d="M258.45249,293.02725c-6.38671,0 -26.82055,0 -30.94966,0c-1.43613,0 -2.38095,-0.95831 -2.38095,-2.4908c0,-5.38467 0,-17.85811 0,-20.75669c0,-1.17748 0.79545,-2.32476 2.15471,-2.32476c4.08267,0 25.00144,0 31.2298,0c1.11979,0 2.05755,0.87327 2.05755,1.82658c0,2.7465 0,16.26468 0,21.58696c0,1.33855 -0.88864,2.1587 -2.11143,2.1587z" data-paper-data="{&quot;index&quot;:null}" fill-opacity="0.91765" fill="#ffffff" stroke="#d0d0d0" stroke-width="0.5" stroke-linecap="butt"/><path d="M370.74897,293.02727c-6.38671,0 -26.82055,0 -30.94966,0c-1.43613,0 -2.38095,-0.95831 -2.38095,-2.4908c0,-5.38467 0,-17.85811 0,-20.75669c0,-1.17748 0.79545,-2.32476 2.15471,-2.32476c4.08267,0 25.00144,0 31.2298,0c1.11979,0 2.05755,0.87327 2.05755,1.82658c0,2.7465 0,16.26468 0,21.58696c0,1.33855 -0.88864,2.1587 -2.11143,2.1587z" data-paper-data="{&quot;index&quot;:null}" fill-opacity="0.91765" fill="#ffffff" stroke="#d0d0d0" stroke-width="0.5" stroke-linecap="butt"/><path d="M333.30859,293.02725c-6.38671,0 -26.82055,0 -30.94966,0c-1.43613,0 -2.38095,-0.95831 -2.38095,-2.4908c0,-5.38467 0,-17.85811 0,-20.75669c0,-1.17748 0.79545,-2.32476 2.15471,-2.32476c4.08267,0 25.00144,0 31.2298,0c1.11979,0 2.05755,0.87327 2.05755,1.82658c0,2.7465 0,16.26468 0,21.58696c0,1.33855 -0.88864,2.1587 -2.11143,2.1587z" data-paper-data="{&quot;index&quot;:null}" fill-opacity="0.91765" fill="#ffffff" stroke="#d0d0d0" stroke-width="0.5" stroke-linecap="butt"/><path d="M408.0427,293.02725c-6.38671,0 -26.82055,0 -30.94966,0c-1.43613,0 -2.38095,-0.95831 -2.38095,-2.4908c0,-5.38467 0,-17.85811 0,-20.75669c0,-1.17748 0.79545,-2.32476 2.15471,-2.32476c4.08267,0 25.00144,0 31.2298,0c1.11979,0 2.05755,0.87327 2.05755,1.82658c0,2.7465 0,16.26468 0,21.58696c0,1.33855 -0.88864,2.1587 -2.11143,2.1587z" data-paper-data="{&quot;index&quot;:null}" fill-opacity="0.91765" fill="#ffffff" stroke="#d0d0d0" stroke-width="0.5" stroke-linecap="butt"/><path d="M164.91115,323.02727c-6.38671,0 -26.82055,0 -30.94966,0c-1.43613,0 -2.38095,-0.95831 -2.38095,-2.4908c0,-5.38467 0,-17.85811 0,-20.75669c0,-1.17748 0.79545,-2.32476 2.15471,-2.32476c4.08267,0 25.00144,0 31.2298,0c1.11979,0 2.05755,0.87327 2.05755,1.82658c0,2.7465 0,16.26468 0,21.58696c0,1.33855 -0.88864,2.1587 -2.11143,2.1587z" data-paper-data="{&quot;index&quot;:null}" fill-opacity="0.91765" fill="#ffffff" stroke="#d0d0d0" stroke-width="0.5" stroke-linecap="butt"/><path d="M239.844,323.02725c-6.38671,0 -26.82055,0 -30.94966,0c-1.43613,0 -2.38095,-0.95831 -2.38095,-2.4908c0,-5.38467 0,-17.85811 0,-20.75669c0,-1.17748 0.79545,-2.32476 2.15471,-2.32476c4.08267,0 25.00144,0 31.2298,0c1.11979,0 2.05755,0.87327 2.05755,1.82658c0,2.7465 0,16.26468 0,21.58696c0,1.33855 -0.88864,2.1587 -2.11143,2.1587z" data-paper-data="{&quot;index&quot;:null}" fill-opacity="0.91765" fill="#ffffff" stroke="#d0d0d0" stroke-width="0.5" stroke-linecap="butt"/><path d="M202.40362,323.0272c-6.38671,0 -26.82055,0 -30.94966,0c-1.43613,0 -2.38095,-0.95831 -2.38095,-2.4908c0,-5.38467 0,-17.85811 0,-20.75669c0,-1.17748 0.79545,-2.32476 2.15471,-2.32476c4.08267,0 25.00144,0 31.2298,0c1.11979,0 2.05755,0.87327 2.05755,1.82658c0,2.7465 0,16.26468 0,21.58696c0,1.33855 -0.88864,2.1587 -2.11143,2.1587z" data-paper-data="{&quot;index&quot;:null}" fill-opacity="0.91765" fill="#ffffff" stroke="#d0d0d0" stroke-width="0.5" stroke-linecap="butt"/><path d="M314.57812,323.02727c-6.38671,0 -26.82055,0 -30.94966,0c-1.43613,0 -2.38095,-0.95831 -2.38095,-2.4908c0,-5.38467 0,-17.85811 0,-20.75669c0,-1.17748 0.79545,-2.32476 2.15471,-2.32476c4.08267,0 25.00144,0 31.2298,0c1.11979,0 2.05755,0.87327 2.05755,1.82658c0,2.7465 0,16.26468 0,21.58696c0,1.33855 -0.88864,2.1587 -2.11143,2.1587z" data-paper-data="{&quot;index&quot;:null}" fill-opacity="0.91765" fill="#ffffff" stroke="#d0d0d0" stroke-width="0.5" stroke-linecap="butt"/><path d="M277.13773,323.02725c-6.38671,0 -26.82055,0 -30.94966,0c-1.43613,0 -2.38095,-0.95831 -2.38095,-2.4908c0,-5.38467 0,-17.85811 0,-20.75669c0,-1.17748 0.79545,-2.32476 2.15471,-2.32476c4.08267,0 25.00144,0 31.2298,0c1.11979,0 2.05755,0.87327 2.05755,1.82658c0,2.7465 0,16.26468 0,21.58696c0,1.33855 -0.88864,2.1587 -2.11143,2.1587z" data-paper-data="{&quot;index&quot;:null}" fill-opacity="0.91765" fill="#ffffff" stroke="#d0d0d0" stroke-width="0.5" stroke-linecap="butt"/><path d="M389.43421,323.02727c-6.38671,0 -26.82055,0 -30.94966,0c-1.43613,0 -2.38095,-0.95831 -2.38095,-2.4908c0,-5.38467 0,-17.85811 0,-20.75669c0,-1.17748 0.79545,-2.32476 2.15471,-2.32476c4.08267,0 25.00144,0 31.2298,0c1.11979,0 2.05755,0.87327 2.05755,1.82658c0,2.7465 0,16.26468 0,21.58696c0,1.33855 -0.88864,2.1587 -2.11143,2.1587z" data-paper-data="{&quot;index&quot;:null}" fill-opacity="0.91765" fill="#ffffff" stroke="#d0d0d0" stroke-width="0.5" stroke-linecap="butt"/><path d="M351.99383,323.02725c-6.38671,0 -26.82055,0 -30.94966,0c-1.43613,0 -2.38095,-0.95831 -2.38095,-2.4908c0,-5.38467 0,-17.85811 0,-20.75669c0,-1.17748 0.79545,-2.32476 2.15471,-2.32476c4.08267,0 25.00144,0 31.2298,0c1.11979,0 2.05755,0.87327 2.05755,1.82658c0,2.7465 0,16.26468 0,21.58696c0,1.33855 -0.88864,2.1587 -2.11143,2.1587z" data-paper-data="{&quot;index&quot;:null}" fill-opacity="0.91765" fill="#ffffff" stroke="#d0d0d0" stroke-width="0.5" stroke-linecap="butt"/><path d="M372.42701,316.00935c-1.69653,0 -1.8581,-2.50441 -1.8581,-3.24765c0,-3.55464 2.40746,-8.28876 4.6695,-8.28876c1.32491,0 1.84194,1.59958 1.84194,3.24763c0,3.66773 -2.45593,8.28876 -4.65334,8.28876zM375.59387,309.99877c0.46855,-1.80964 0.51704,-2.61751 0.51704,-3.19918c0,-1.55111 -0.35547,-2.00352 -0.88866,-2.00352c-0.71092,0 -1.27643,0.77555 -1.80964,1.74501c-0.64629,1.14718 -0.98561,2.5044 -1.22796,3.45769zM372.05539,310.48348c-0.25853,1.0664 -0.51703,2.16509 -0.51703,3.21533c0,1.59959 0.40393,1.98736 0.90481,1.98736c0.67861,0 1.24412,-0.7594 1.71269,-1.58342c0.58166,-1.01793 0.92097,-2.03583 1.32491,-3.61926z" fill="#000000" stroke="none" stroke-width="1" stroke-linecap="butt"/><g fill="none" stroke="#000000" stroke-width="0.5" stroke-linecap="round"><path d="M79.06737,310.25876h-9.33333"/><path d="M72.92198,313.09525l-3.71429,-2.87332l3.85714,-2.98383"/></g><path d="M395.22553,322.95279c-1.22279,0 -2.11143,-0.82015 -2.11143,-2.1587c0,-5.32228 0,-18.84046 0,-21.58696c0,-0.95331 0.93776,-1.82658 2.05755,-1.82658c6.22836,0 27.14713,0 31.2298,0c1.35926,0 2.15471,1.14728 2.15471,2.32476c0,2.89858 0,15.37202 0,20.75669c0,1.53249 -0.94482,2.4908 -2.38095,2.4908c-4.12911,0 -24.56295,0 -30.94966,0z" data-paper-data="{&quot;index&quot;:null}" fill="#d0d0d0" stroke="#d0d0d0" stroke-width="0.5" stroke-linecap="butt"/><g data-paper-data="{&quot;index&quot;:null}" fill="none" stroke="#000000" stroke-width="0.5" stroke-linecap="round"><path d="M415.23862,310.25876h-9.33333"/><path d="M411.90783,307.2381l3.85714,2.98383l-3.71429,2.87332"/></g><g fill="none" stroke="#000000" stroke-width="0.75" stroke-linecap="round"><path d="M408.35957,345.04289l-3.73443,-3.60892l3.83536,-3.38052"/><path d="M417.04512,335.29046c0,0 0,2.69952 0,3.83142c0,0.36556 0,0.83401 0,1.26163c0,0.62608 -0.84448,1.16463 -1.62316,1.16463c-1.99837,0 -10.69036,0 -10.69036,0"/></g><g><path d="M365.90678,340.41848l5.10829,-5.10829h10.72741v10.0463h-10.89769l-4.42718,-4.42718z" fill="none" stroke="#000000" stroke-width="0.5" stroke-linecap="round"/><path d="M377.91432,337.61057c0.13253,-0.13253 0.18072,-0.18072 0.27709,-0.18072c0.14457,0 0.24094,0.10843 0.24094,0.24095c0,0.08433 -0.04818,0.13253 -0.06023,0.15663c-0.06023,0.07229 -0.24095,0.22891 -0.30119,0.3012l-2.20474,2.20473c0.60238,0.61444 2.51798,2.50593 2.53003,2.53003c0.03614,0.06023 0.03613,0.10843 0.03613,0.13252c0,0.13253 -0.09638,0.24096 -0.24094,0.24096c-0.07229,0 -0.15662,-0.06023 -0.18072,-0.07229l-2.49388,-2.49388l-2.39749,2.39751c-0.14457,0.14458 -0.16867,0.16867 -0.26506,0.16867c-0.12048,0 -0.24094,-0.10843 -0.24094,-0.24096c0,-0.08433 0.0241,-0.10843 0.15662,-0.24095l2.40954,-2.4216l-2.40954,-2.42159c-0.13253,-0.13253 -0.15662,-0.15663 -0.15662,-0.24096c0,-0.13253 0.12048,-0.24095 0.24094,-0.24095c0.09638,0 0.12049,0.0241 0.26506,0.16867l2.40954,2.39751z" fill="#000000" stroke="none" stroke-width="1" stroke-linecap="butt"/></g><g data-paper-data="{&quot;index&quot;:null}" stroke-linecap="butt"><path d="M58.52797,352.98638c-1.22279,0 -2.11143,-0.82015 -2.11143,-2.1587c0,-5.32228 0,-18.84046 0,-21.58696c0,-0.95331 0.93776,-1.82658 2.05755,-1.82658c6.22836,0 27.14713,0 31.2298,0c1.35926,0 2.15471,1.14728 2.15471,2.32476c0,2.89858 0,15.37202 0,20.75669c0,1.53249 -0.94482,2.4908 -2.38095,2.4908c-4.12911,0 -24.56295,0 -30.94966,0z" data-paper-data="{&quot;index&quot;:null}" fill-opacity="0.91765" fill="#d1e4ff" stroke="#d0d0d0" stroke-width="0.5"/><g fill="#000000" stroke="none" stroke-width="1"><path d="M74.12595,334.66557l0.67208,0.61154l4.63491,4.39008c0.25493,0.24026 0.30128,0.28394 0.30128,0.43683c0,0.24026 -0.23173,0.43683 -0.46347,0.43683c-0.18541,0 -0.23177,-0.04369 -0.50986,-0.30578l-4.61172,-4.34642l-4.79715,4.52113c-0.04634,0.02184 -0.20856,0.13105 -0.34762,0.13105c-0.27808,0 -0.46347,-0.19659 -0.46347,-0.43683c0,-0.04367 0,-0.13103 0.06952,-0.24024c0.02316,-0.04367 3.70792,-3.47274 4.86665,-4.58665z"/><path d="M69.08949,344.40162c-0.23998,0 -0.54857,-0.00002 -0.54857,-0.42096c0,-0.44434 0.29145,-0.44434 0.54857,-0.44434h10.09621c0.23997,0 0.54852,0 0.54852,0.42094c0,0.44434 -0.29141,0.44434 -0.54852,0.44434z"/></g></g><g><path d="M97.0127,352.88628c-1.66357,0 -2.87254,-0.82015 -2.87254,-2.1587c0,-5.32228 0,-18.84046 0,-21.58696c0,-0.95331 1.27579,-1.82658 2.79923,-1.82658c8.47349,0 248.71259,0 254.26694,0c1.84923,0 2.93142,1.14728 2.93142,2.32476c0,2.89858 0,15.37202 0,20.75669c0,1.53249 -1.2854,2.4908 -3.23921,2.4908c-5.61753,0 -253.88585,-0.00001 -253.88585,-0.00001z" data-paper-data="{&quot;index&quot;:null}" fill-opacity="0.91765" fill="#ffffff" stroke="#d0d0d0" stroke-width="0.5" stroke-linecap="butt"/><path d="M237.13896,339.10016v4h-26v-4" fill="none" stroke="#000000" stroke-width="1" stroke-linecap="round"/></g><path d="M75.02938,257.13115c-0.01635,0.09819 -0.04908,0.18 -0.04908,0.29456c0,0.16364 0,0.26181 0.83454,0.26181c0.22909,0 0.39273,0 0.39273,0.19637c0,0.31091 -0.21273,0.31091 -0.3109,0.31091c-0.52363,0 -1.11273,-0.04908 -1.65273,-0.04908c-0.54,0 -1.11273,0.04908 -1.63636,0.04908c-0.11454,0 -0.21273,-0.04908 -0.21273,-0.19637c0,-0.31091 0.18,-0.31091 0.39273,-0.31091c1.04727,-0.01637 1.06363,-0.08181 1.24363,-0.78545l0.63817,-2.56911c-0.45817,0.44182 -1.06363,0.86728 -1.73454,0.86728c-1.22727,0 -1.98,-1.14546 -1.98,-2.53637c0,-2.3891 1.9309,-4.87638 3.74727,-4.87638c0.78546,0 1.21092,0.57273 1.40727,1.04727c0.26182,-0.45818 0.85092,-1.03091 1.03092,-1.03091c0.04908,0 0.18,0.03273 0.18,0.18c0,0.03273 -0.03273,0.16364 -0.04909,0.21273zM75.78212,249.88206c0.03273,-0.09819 0.04909,-0.16364 0.04909,-0.21273c0,-0.31091 -0.16363,-0.78546 -0.32727,-1.04727c-0.29455,-0.45819 -0.6709,-0.47456 -0.80182,-0.47456c-0.6709,0 -1.42363,0.81819 -1.83273,1.81637c-0.29454,0.68727 -0.80181,2.60183 -0.80181,3.42001c0,0.49091 0.1309,1.45637 0.9,1.45637c0.9,0 1.89817,-1.30909 2.02909,-1.81637z" fill="#000000" stroke="none" stroke-width="1" stroke-linecap="butt"/><path d="M112.34706,248.78757c0.03273,-0.13091 0.14727,-0.57273 0.62182,-0.57273c0.32727,0 0.45817,0.24546 0.45817,0.42546c0,0.06546 -0.16363,0.72 -0.26181,1.08l-0.68728,2.7491c-0.18,0.72 -0.19635,1.11272 -0.19635,1.26c0,0.68727 0.26181,1.35818 1.07998,1.35818c0.75273,0 1.27636,-0.67091 1.63636,-1.52183c0.27819,-0.67091 0.80182,-2.38909 0.80182,-3.04364c0,-0.34364 -0.04909,-0.86727 -0.44182,-1.29272c-0.09817,-0.11456 -0.21271,-0.2291 -0.21271,-0.44183c0,-0.37637 0.40908,-0.75273 0.78544,-0.75273c0.47455,0 0.6709,0.50727 0.6709,1.08c0,0.86727 -0.63817,3.38728 -1.12908,4.50001c-0.49092,1.16182 -1.17819,1.83274 -2.16,1.83274c-0.96546,0 -1.62,-0.44182 -1.86546,-1.04728c-0.4909,0.83455 -1.06363,1.04728 -1.58727,1.04728c-0.27817,0 -1.01454,-0.04909 -1.53817,-0.50727c-0.42546,-0.39273 -0.55636,-0.94909 -0.55636,-1.50546c0,-0.44181 0,-0.86727 0.81817,-3.09274c0.22909,-0.63818 0.39273,-1.08 0.39273,-1.47272c0,-0.42546 -0.18,-0.47456 -0.36,-0.47456c-0.94909,0 -1.3909,1.55456 -1.52182,2.06183c-0.06544,0.2291 -0.08181,0.26181 -0.29454,0.26181c-0.08181,0 -0.24545,0 -0.24545,-0.16364c0,-0.09818 0.57272,-2.52001 2.09455,-2.52001c0.70363,0 1.24363,0.50727 1.24363,1.32546c0,0.31091 -0.08182,0.55637 -0.19636,0.86727c-0.50727,1.34183 -0.93273,2.55274 -0.93273,3.43638c0,0.21273 0,1.42364 1.14546,1.42364c0.86727,0 1.37454,-1.35818 1.37454,-1.53818c0,-0.2291 0.01636,-0.57273 0.1309,-1.03092z" fill="#000000" stroke="none" stroke-width="1" stroke-linecap="butt"/><path d="M147.58134,251.48747c-0.11455,0.44183 -0.27819,1.17819 -0.27819,1.80001c0,0.63818 0.18,1.80001 1.24363,1.80001c0.27819,0 1.73455,-0.06545 2.94546,-1.60364c0.1309,-0.16364 0.14727,-0.18 0.21273,-0.18c0.1309,0 0.26181,0.18 0.26181,0.26181c0,0.24546 -1.35817,1.88183 -3.45271,1.88183c-1.55455,0 -2.34,-1.39091 -2.34,-2.86364c0,-2.89637 2.34,-4.54911 4.05817,-4.54911c1.04727,0 1.65273,0.63819 1.65273,1.39092c0,0.11454 0,1.17818 -1.29273,1.70182c-0.78546,0.31091 -1.88182,0.36 -2.37273,0.36zM148.02315,251.12749c0.54,0 3.24,0 3.24,-1.73455c0,-0.55637 -0.37636,-0.99819 -1.0309,-0.99819c-0.16363,0 -1.84909,0.0491 -2.55273,2.73274z" fill="#000000" stroke="none" stroke-width="1" stroke-linecap="butt"/><path d="M300.6079,253.58208c-0.11455,0.45819 -0.11455,0.72001 -0.11455,0.83455c0,0.22909 0,0.67091 0.42546,0.67091c0.55636,0 0.86727,-1.03091 1.09636,-1.94728c0.09817,-0.36 0.11454,-0.37637 0.3109,-0.37637c0.11455,0 0.24546,0 0.24546,0.16364c0,0.03273 -0.19636,0.98182 -0.4909,1.60364c-0.24546,0.50727 -0.58909,0.91637 -1.19455,0.91637c-0.3109,0 -1.01454,-0.09818 -1.30908,-0.98182c-0.39273,0.49091 -0.94909,0.98182 -1.81636,0.98182c-0.88363,0 -1.83273,-0.47455 -1.83273,-1.89818c0,-0.85092 0.42544,-2.06183 0.8509,-3.20729c0.22909,-0.63818 0.39273,-1.08 0.39273,-1.47272c0,-0.42546 -0.18,-0.47456 -0.36,-0.47456c-0.94909,0 -1.3909,1.55456 -1.52182,2.06183c-0.06544,0.2291 -0.08181,0.26181 -0.29454,0.26181c-0.08181,0 -0.24545,0 -0.24545,-0.16364c0,-0.09818 0.57272,-2.52001 2.09455,-2.52001c0.70363,0 1.24363,0.50727 1.24363,1.32546c0,0.31091 -0.08182,0.54 -0.21273,0.88364c-0.40909,1.11273 -0.94909,2.58547 -0.94909,3.58365c0,0.54 0.14727,1.26 0.88363,1.26c0.72,0 1.19455,-0.49091 1.50546,-0.94909c0.14727,-0.21273 0.14727,-0.24545 0.22909,-0.54001l1.19454,-4.77819c0.03273,-0.13091 0.14727,-0.60546 0.63817,-0.60546c0.32728,0 0.45819,0.24546 0.45819,0.42546c0,0.0491 -0.01636,0.13091 -0.04909,0.2291z" fill="#000000" stroke="none" stroke-width="1" stroke-linecap="butt"/><path d="M260.71311,255.61029c-0.88363,0 -1.83273,-0.47455 -1.83273,-1.89818c0,-0.85092 0.42544,-2.06183 0.8509,-3.20729c0.22909,-0.63818 0.39273,-1.08 0.39273,-1.47272c0,-0.42546 -0.18,-0.47456 -0.36,-0.47456c-0.94909,0 -1.3909,1.55456 -1.52182,2.06183c-0.06544,0.2291 -0.08181,0.26181 -0.29454,0.26181c-0.08181,0 -0.24545,0 -0.24545,-0.16364c0,-0.09818 0.57272,-2.52001 2.09455,-2.52001c0.70363,0 1.24363,0.50727 1.24363,1.32546c0,0.31091 -0.08182,0.54 -0.21273,0.88364c-0.40909,1.11273 -0.94909,2.58547 -0.94909,3.58365c0,0.54 0.14727,1.26 0.88363,1.26c0.96546,0 1.62,-0.98182 1.73455,-1.45637l1.19454,-4.81092c0.03273,-0.13091 0.14727,-0.60546 0.63817,-0.60546c0.32728,0 0.45819,0.24546 0.45819,0.42546c0,0.0491 -0.03273,0.13091 -0.04909,0.2291l-1.60363,6.44729c-0.40909,1.62001 -1.89817,3.30546 -3.6,3.30546c-0.9,0 -1.5709,-0.55637 -1.5709,-1.40727c0,-0.91636 0.63817,-1.01455 0.83454,-1.01455c0.29455,0 0.55636,0.18 0.55636,0.52364c0,0.26181 -0.19636,0.70364 -0.70363,0.78546c-0.11454,0.01635 -0.1309,0.03272 -0.1309,0.04908c0,0.08183 0.22909,0.70364 1.01454,0.70364c0.81819,0 2.02909,-0.72 2.6509,-3.42c-0.21271,0.21273 -0.72,0.60546 -1.47271,0.60546z" fill="#000000" stroke="none" stroke-width="1" stroke-linecap="butt"/><path d="M184.98898,254.84205c-0.03271,0.13091 -0.14727,0.60546 -0.63817,0.60546c-0.32727,0 -0.45817,-0.24546 -0.45817,-0.42546c0,-0.04909 0.01635,-0.13091 0.04908,-0.22909l1.22727,-4.9091c0.06546,-0.26183 0.11455,-0.57273 0.11455,-0.83454c0,-0.18 0,-0.65456 -0.42546,-0.65456c-0.50727,0 -0.81817,0.80183 -1.11273,1.94728c-0.08181,0.36 -0.09817,0.37637 -0.3109,0.37637c-0.08181,0 -0.24545,0 -0.24545,-0.16364c0,-0.03273 0.21272,-0.99818 0.52364,-1.65274c0.26181,-0.49091 0.58908,-0.86727 1.17817,-0.86727c0.54,0 1.17817,0.31092 1.35817,1.17819c0.26182,-0.36 0.85092,-1.17819 1.98,-1.17819c0.54,0 1.60363,0.18 1.60363,1.03092c0,0.63818 -0.50727,0.86727 -0.80181,0.86727c-0.42546,0 -0.57273,-0.31092 -0.57273,-0.52364c0,-0.08183 0.04909,-0.60546 0.62182,-0.78546c-0.32728,-0.2291 -0.78546,-0.2291 -0.86728,-0.2291c-1.40727,0 -2.14363,2.11093 -2.16,2.16001z" fill="#000000" stroke="none" stroke-width="1" stroke-linecap="butt"/><path d="M223.0518,254.08754c-0.11454,0.45819 -0.11454,0.72001 -0.11454,0.83455c0,0.26182 0,0.67091 0.44181,0.67091c0.93273,0 1.58727,-1.22728 1.88182,-2.01274c0.1309,-0.29454 0.1309,-0.31091 0.32727,-0.31091c0.11454,0 0.24546,0 0.24546,0.16364c0,0.08183 -0.83455,2.52001 -2.48728,2.52001c-0.8509,0 -1.3909,-0.65455 -1.3909,-1.47273c0,-0.2291 0.06546,-0.49091 0.08182,-0.55637l1.17817,-4.69638h-1.30909c-0.26181,0 -0.40908,0 -0.40908,-0.19635c0,-0.31092 0.18,-0.31092 0.45818,-0.31092h1.3909l0.63819,-2.60182c0.06544,-0.24546 0.22909,-0.5891 0.63817,-0.5891c0.16363,0 0.44182,0.08183 0.44182,0.42546c0,0.08181 0,0.11454 -0.06546,0.34364l-0.60544,2.42182h1.30908c0.26182,0 0.40909,0 0.40909,0.19637c0,0.31091 -0.18,0.31091 -0.45817,0.31091h-1.39092z" fill="#000000" stroke="none" stroke-width="1" stroke-linecap="butt"/><path d="M336.05191,255.94846c-0.8509,0 -1.24363,-0.67091 -1.24363,-1.30909c0,-0.32727 0.06546,-0.50728 0.29455,-1.12909c0.19636,-0.54 0.39271,-1.08 0.60544,-1.62l0.49092,-1.35819c0.11454,-0.31091 0.29454,-0.78545 0.29454,-1.17818c0,-0.37637 -0.18,-0.45819 -0.36,-0.45819c-0.94909,0 -1.37454,1.52183 -1.52182,2.06183c-0.06544,0.2291 -0.08181,0.26181 -0.29454,0.26181c-0.08181,0 -0.24545,0 -0.24545,-0.16364c0,-0.08181 0.55636,-2.52001 2.09455,-2.52001c0.60544,0 1.22727,0.4091 1.22727,1.3091c0,0.31091 -0.03273,0.44183 -0.19636,0.91637l-1.04727,2.79818c-0.21273,0.60546 -0.42546,1.14546 -0.42546,1.57092c0,0.44182 0.22909,0.45818 0.36,0.45818c0.94909,0 1.3909,-1.57091 1.52182,-2.04547c0.06544,-0.24545 0.06544,-0.27818 0.27817,-0.27818c0.11455,0 0.24546,0 0.24546,0.16364c0,0.06546 -0.54,2.52001 -2.07819,2.52001zM337.26283,246.35932c-0.22909,0 -0.55636,-0.13091 -0.55636,-0.54c0,-0.45818 0.44181,-0.78545 0.78544,-0.78545c0.22909,0 0.55636,0.13091 0.55636,0.54c0,0.47454 -0.45817,0.78545 -0.78544,0.78545z" fill="#000000" stroke="none" stroke-width="1" stroke-linecap="butt"/><path d="M372.51929,255.44751c-1.35819,0 -2.38909,-1.01455 -2.38909,-2.70001c0,-2.3891 2.1109,-4.71274 4.14,-4.71274c1.42363,0 2.38909,1.1291 2.38909,2.68364c0,2.40547 -2.11092,4.72911 -4.14,4.72911zM374.63019,253.45117c0.52363,-0.98181 0.88363,-2.66728 0.88363,-3.37092c0,-0.96546 -0.45817,-1.68547 -1.26,-1.68547c-0.63817,0 -1.42363,0.49092 -2.02909,1.4891c-0.52363,0.88364 -0.94908,2.70001 -0.94908,3.51819c0,1.17819 0.60544,1.68547 1.24363,1.68547c0.80181,0 1.63636,-0.73637 2.1109,-1.63637z" fill="#000000" stroke="none" stroke-width="1" stroke-linecap="butt"/><path d="M91.66232,285.4475c-1.22727,0 -1.98,-1.14546 -1.98,-2.53637c0,-2.3891 1.9309,-4.87638 3.74727,-4.87638c0.52363,0 1.04727,0.26183 1.35819,0.96546c0.01636,-0.08183 0.1309,-0.63819 0.65454,-0.63819c0.16363,0 0.44182,0.08183 0.44182,0.42546c0,0.08183 0,0.11454 -0.06546,0.34364l-1.11273,4.45092c-0.11454,0.45819 -0.11454,0.72001 -0.11454,0.83455c0,0.22909 0,0.67091 0.42544,0.67091c0.55636,0 0.86728,-1.03091 1.09636,-1.94728c0.09819,-0.36 0.11455,-0.37637 0.31092,-0.37637c0.11454,0 0.24544,0 0.24544,0.16364c0,0.03273 -0.19636,0.98182 -0.4909,1.60364c-0.24546,0.50727 -0.58909,0.91637 -1.19454,0.91637c-0.57273,0 -1.17819,-0.34364 -1.35819,-1.14546c-0.65454,0.80182 -1.37454,1.14546 -1.96363,1.14546zM94.55868,279.93291c0,-0.68727 -0.40909,-1.53819 -1.12909,-1.53819c-0.6709,0 -1.42363,0.81819 -1.83273,1.81637c-0.29454,0.68727 -0.80181,2.60183 -0.80181,3.42001c0,0.49091 0.1309,1.45637 0.9,1.45637c0.9,0 1.91454,-1.32546 2.04546,-1.8491l0.76908,-3.09272c0.03273,-0.09819 0.04909,-0.18 0.04909,-0.21273z" fill="#000000" stroke="none" stroke-width="1" stroke-linecap="butt"/><path d="M409.88604,250.12024c0.11455,-0.45818 0.11455,-0.72 0.11455,-0.81818c0,-0.18 0,-0.65456 -0.42546,-0.65456c-0.50727,0 -0.81817,0.80183 -1.11273,1.94728c-0.08181,0.36 -0.09817,0.37637 -0.3109,0.37637c-0.08181,0 -0.24545,0 -0.24545,-0.16364c0,-0.03273 0.21272,-0.99818 0.52364,-1.65274c0.26181,-0.49091 0.58908,-0.86727 1.17817,-0.86727c0.40909,0 1.14546,0.19637 1.34181,1.14546c0.47455,-0.55637 1.17819,-1.14546 1.98,-1.14546c0.98182,0 1.96363,0.80183 1.96363,2.55274c0,2.43818 -1.94727,4.86001 -3.7309,4.86001c-0.8509,0 -1.26,-0.67091 -1.37454,-0.94909l-0.58909,2.3891c-0.06544,0.26183 -0.18,0.68727 -0.18,0.78546c0,0.16364 0,0.26181 0.83455,0.26181c0.22908,0 0.39271,0 0.39271,0.19637c0,0.31091 -0.21271,0.31091 -0.3109,0.31091c-0.50727,0 -1.06363,-0.04908 -1.58727,-0.04908c-0.45818,0 -0.93273,0.04908 -1.37454,0.04908c-0.11454,0 -0.19636,-0.08181 -0.19636,-0.19637c0,-0.31091 0.19636,-0.31091 0.34364,-0.31091c0.63818,-0.01637 0.76909,-0.06546 0.9,-0.57273zM410.08241,253.58935c-0.03273,0.13091 -0.04908,0.18 -0.04908,0.22908c0,0.13092 0.16363,1.52183 1.11271,1.52183c0.83455,0 1.53819,-1.14546 1.73455,-1.55454c0.47454,-1.04727 0.91636,-2.99456 0.91636,-3.68184c0,-0.52364 -0.16363,-1.45637 -0.9,-1.45637c-0.9,0 -1.91455,1.29273 -2.04546,1.8491z" fill="#000000" stroke="none" stroke-width="1" stroke-linecap="butt"/><path d="M129.08632,280.45662c0,-0.85091 0.6709,-2.42183 2.58546,-2.42183c1.08,0 1.7509,0.63819 1.7509,1.39092c0,0.70364 -0.42546,0.9 -0.70363,0.9c-0.39273,0 -0.49092,-0.27819 -0.49092,-0.45819c0,-0.16364 0.13092,-0.60546 0.65455,-0.67091c-0.18,-0.63819 -0.78546,-0.80183 -1.22727,-0.80183c-1.30909,0 -1.65273,1.11273 -1.65273,1.50546c0,0.70364 0.58909,0.83454 1.04727,0.93273c0.6709,0.14727 1.94727,0.44181 1.94727,1.86545c0,0.75273 -0.62181,2.7491 -3.07636,2.7491c-1.16181,0 -2.1109,-0.58909 -2.1109,-1.58728c0,-0.73636 0.45819,-1.01456 0.83454,-1.01456c0.34365,0 0.55636,0.21273 0.55636,0.52365c0,0.03272 0,0.72 -0.83454,0.80181c0.26182,0.83455 1.2109,0.91637 1.5709,0.91637c1.68546,0 2.12727,-1.30909 2.12727,-1.83274c0,-0.88364 -0.73636,-1.04727 -1.45636,-1.21091c-0.45817,-0.09818 -1.52181,-0.32727 -1.52181,-1.58727z" fill="#000000" stroke="none" stroke-width="1" stroke-linecap="butt"/><path d="M169.41789,283.72566c-0.09817,0.39273 -0.09817,0.63818 -0.09817,0.75273c0,0.22909 0,0.67091 0.42544,0.67091c0.55636,0 0.86728,-1.03091 1.09636,-1.94728c0.09819,-0.36 0.11455,-0.37637 0.31092,-0.37637c0.11454,0 0.24544,0 0.24544,0.16364c0,0.03273 -0.19636,0.98182 -0.4909,1.60364c-0.24546,0.50727 -0.58909,0.91637 -1.19454,0.91637c-0.57273,0 -1.17819,-0.34364 -1.35819,-1.14546c-0.65454,0.80182 -1.37454,1.14546 -1.96363,1.14546c-1.22727,0 -1.98,-1.14546 -1.98,-2.53637c0,-2.3891 1.9309,-4.87638 3.74727,-4.87638c0.68727,0 1.12909,0.44183 1.37455,0.9491l0.94908,-3.82911c0,-0.01637 0.04909,-0.22908 0.04909,-0.27818c0,-0.16364 -0.03273,-0.27819 -0.81817,-0.27819c-0.22909,0 -0.39273,0 -0.39273,-0.18c0,-0.31091 0.18,-0.32727 0.37636,-0.34364l1.62,-0.13091c0.04908,-0.01637 0.21271,-0.03273 0.26181,-0.03273c0.1309,0 0.22909,0.0491 0.22909,0.19637c0,0.03273 -0.03273,0.16364 -0.04909,0.21273zM169.23789,280.19115c0.03273,-0.09819 0.04909,-0.16364 0.04909,-0.21273c0,-0.31091 -0.16363,-0.78546 -0.32727,-1.04727c-0.29455,-0.45819 -0.6709,-0.47456 -0.80182,-0.47456c-0.6709,0 -1.42363,0.81819 -1.83273,1.81637c-0.29454,0.68727 -0.80181,2.60183 -0.80181,3.42001c0,0.49091 0.1309,1.45637 0.9,1.45637c0.9,0 1.89817,-1.30909 2.02909,-1.81637z" fill="#000000" stroke="none" stroke-width="1" stroke-linecap="butt"/><path d="M205.44282,285.16113c-0.11454,0.58909 -0.78546,4.02546 -2.48727,4.02546c-0.60545,0 -1.30909,-0.34364 -1.30909,-1.08c0,-0.57272 0.40909,-0.9 0.81818,-0.9c0.26182,0 0.55636,0.16363 0.55636,0.52363c0,0.32729 -0.22909,0.72 -0.72,0.80183c0.18,0.24546 0.49091,0.29454 0.65455,0.29454c0.58909,0 0.80182,-0.85091 0.93273,-1.40727c0.09817,-0.34363 0.26181,-1.01455 0.45817,-2.02909l1.19455,-6.10366h-1.01455c-0.24544,0 -0.40908,0 -0.40908,-0.18c0,-0.32727 0.18,-0.32727 0.44181,-0.32727h1.08l0.34363,-1.80001c0.11454,-0.55637 0.52363,-2.68364 2.12727,-2.68364c0.67092,0 1.34182,0.37637 1.34182,1.08c0,0.57273 -0.40909,0.9 -0.81819,0.9c-0.26181,0 -0.55636,-0.16364 -0.55636,-0.52364c0,-0.32727 0.22909,-0.72 0.72,-0.80181c-0.21271,-0.26183 -0.55635,-0.29456 -0.68727,-0.29456c-0.58908,0 -0.76908,0.86727 -0.9,1.47273c-0.24544,1.14546 -0.29454,1.44 -0.52363,2.65091h1.27636c0.27819,0 0.40909,0 0.40909,0.21273c0,0.29454 -0.16363,0.29454 -0.44182,0.29454h-1.34181z" fill="#000000" stroke="none" stroke-width="1" stroke-linecap="butt"/><path d="M242.22109,285.3469c-1.22727,0 -1.99636,-1.11273 -1.99636,-2.50364c0,-2.30728 1.88181,-4.72911 3.71454,-4.72911c0.70363,0 1.14546,0.45819 1.37455,0.93273c0.06544,-0.47454 0.44181,-0.60546 0.63817,-0.60546c0.16363,0 0.44182,0.08183 0.44182,0.42546c0,0.06546 0,0.09819 -0.06546,0.34364l-1.78363,7.1673c-0.3109,1.24363 -1.55454,2.32364 -3.27273,2.32364c-1.37454,0 -1.98,-0.29454 -1.98,-0.94908c0,-0.63819 0.50727,-0.86729 0.80182,-0.86729c0.42544,0 0.57273,0.31092 0.57273,0.52365c0,0.27818 -0.19636,0.62181 -0.52365,0.75272c0.44182,0.18 0.94909,0.18 1.16182,0.18c0.24546,0 0.9,0 1.55454,-0.76908c0.45819,-0.55637 0.55636,-0.90001 0.75273,-1.71819l0.34363,-1.37455c-0.19636,0.19636 -0.9,0.86728 -1.73454,0.86728zM245.06835,279.9796c0,-0.13091 -0.14727,-1.50546 -1.12909,-1.50546c-0.63817,0 -1.35817,0.73637 -1.76727,1.62c-0.34363,0.7691 -0.83454,2.68364 -0.83454,3.46911c0,0.18 0.03273,1.42364 0.91636,1.42364c0.9,0 1.89817,-1.27637 2.02908,-1.80001l0.73636,-2.97818z" fill="#000000" stroke="none" stroke-width="1" stroke-linecap="butt"/><path d="M279.05602,279.16024c0.50727,-0.49091 1.08,-1.06364 2.17636,-1.06364c0.80181,0 1.70181,0.36 1.70181,1.70183c0,0.9491 -0.6709,2.78182 -0.99817,3.64909c-0.1309,0.39274 -0.29454,0.81819 -0.29454,1.22728c0,0.22909 0.01636,0.47455 0.36,0.47455c0.94908,0 1.3909,-1.60364 1.52181,-2.04547c0.06546,-0.24545 0.06546,-0.27818 0.27819,-0.27818c0.11454,0 0.24544,0 0.24544,0.16364c0,0.08183 -0.55636,2.52001 -2.07817,2.52001c-0.78546,0 -1.24363,-0.58909 -1.24363,-1.30909c0,-0.34364 0.04908,-0.49091 0.26181,-1.04728c0.22909,-0.65454 0.94909,-2.60182 0.94909,-3.61638c0,-0.34364 -0.03273,-1.08 -0.75273,-1.08c-1.14544,0 -1.84909,1.03092 -2.17636,1.55456c-0.29454,0.52364 -0.3109,0.55637 -0.45817,1.14545c-0.08182,0.36 -0.18,0.70364 -0.26182,1.06364c-0.11454,0.45819 -0.63817,2.58547 -0.70363,2.83092c-0.04908,0.18 -0.26181,0.45818 -0.60544,0.45818c-0.31092,0 -0.45819,-0.24546 -0.45819,-0.42546c0,-0.03273 0.01636,-0.18 0.03273,-0.21273l2.42181,-9.65458c0,-0.01637 0.04909,-0.22908 0.04909,-0.27818c0,-0.16364 -0.03273,-0.27819 -0.81817,-0.27819c-0.22909,0 -0.39273,0 -0.39273,-0.18c0,-0.31091 0.18,-0.32727 0.37636,-0.34364l1.62,-0.13091c0.04909,-0.01637 0.21273,-0.03273 0.26181,-0.03273c0.13092,0 0.22909,0.0491 0.22909,0.19637c0,0.03273 -0.03273,0.16364 -0.04909,0.21273z" fill="#000000" stroke="none" stroke-width="1" stroke-linecap="butt"/><path d="M318.71356,286.33114c-0.34363,1.39091 -1.65273,2.45455 -2.89637,2.45455c-0.72,0 -1.32545,-0.34364 -1.32545,-0.94908c0,-0.63819 0.50727,-0.86729 0.80182,-0.86729c0.42546,0 0.57273,0.31092 0.57273,0.52365c0,0.08181 -0.04909,0.60545 -0.62182,0.78545c0.03273,0.01637 0.26182,0.14727 0.55636,0.14727c1.01454,0 1.65273,-1.27637 1.86545,-2.14364l1.55455,-6.23456c0.06544,-0.26183 0.11454,-0.57273 0.11454,-0.83454c0,-0.29456 -0.03273,-0.65456 -0.44181,-0.65456c-0.85092,0 -1.50546,1.01456 -1.91455,2.04547c-0.09817,0.26181 -0.09817,0.27818 -0.3109,0.27818c-0.08181,0 -0.24545,0 -0.24545,-0.16364c0,-0.11454 0.86728,-2.52001 2.48728,-2.52001c0.91635,0 1.40727,0.70364 1.40727,1.47273c0,0.2291 -0.06546,0.49091 -0.08182,0.54zM320.10446,276.022c-0.39273,0 -0.55636,-0.32727 -0.55636,-0.54c0,-0.39272 0.39273,-0.78545 0.80182,-0.78545c0.19635,0 0.55635,0.09818 0.55635,0.55637c0,0.40908 -0.40908,0.76908 -0.80181,0.76908z" fill="#000000" stroke="none" stroke-width="1" stroke-linecap="butt"/><path d="M353.70758,281.05842c0.57271,-0.27819 0.83454,-0.54 1.76727,-1.62c0.55636,-0.65456 1.26,-1.34183 2.12727,-1.34183c0.73636,0 1.0309,0.55637 1.0309,0.98183c0,0.62181 -0.45817,0.91637 -0.81817,0.91637c-0.42546,0 -0.57273,-0.31092 -0.57273,-0.52364c0,-0.13092 0.08182,-0.70364 0.76909,-0.81819c-0.01636,-0.01637 -0.13092,-0.19637 -0.44182,-0.19637c-0.81817,0 -1.45636,0.75273 -2.30727,1.7182c-0.44182,0.50727 -0.78546,0.85091 -1.16182,1.08c1.03092,0.14727 2.17636,0.58908 2.17636,1.70182c0,0.21273 0,0.2291 -0.08181,0.57273c-0.01636,0.08183 -0.1309,0.54 -0.1309,0.91637c0,0.32727 0.03271,0.70364 0.47454,0.70364c0.72,0 1.0309,-1.11273 1.24363,-1.94728c0.09817,-0.36 0.11454,-0.37637 0.3109,-0.37637c0.11455,0 0.24546,0 0.24546,0.16364c0,0.0491 -0.22909,1.04728 -0.58909,1.6691c-0.18,0.31091 -0.54,0.85091 -1.26,0.85091c-0.60544,0 -1.37454,-0.40909 -1.37454,-1.58728c0,-0.16363 0,-0.27819 0.06544,-0.55636c0.04909,-0.2291 0.04909,-0.29454 0.04909,-0.4091c0,-0.94908 -1.04727,-1.29273 -1.65273,-1.37454l-0.83454,3.32183c-0.03273,0.14727 -0.14727,0.60546 -0.63817,0.60546c-0.31092,0 -0.45819,-0.24546 -0.45819,-0.42546c0,-0.03273 0.01636,-0.18 0.03273,-0.21273l2.42181,-9.65458c0,-0.01637 0.04909,-0.22908 0.04909,-0.27818c0,-0.16364 -0.03273,-0.27819 -0.81817,-0.27819c-0.22909,0 -0.39273,0 -0.39273,-0.18c0,-0.31091 0.18,-0.32727 0.37636,-0.34364l1.62,-0.13091c0.04909,-0.01637 0.21273,-0.03273 0.26181,-0.03273c0.13092,0 0.22909,0.0491 0.22909,0.19637c0,0.03273 -0.03273,0.16364 -0.04909,0.21273z" fill="#000000" stroke="none" stroke-width="1" stroke-linecap="butt"/><path d="M391.77858,283.72569c-0.09817,0.39273 -0.09817,0.63818 -0.09817,0.75273c0,0.22909 0,0.67091 0.42546,0.67091c0.45817,0 0.76908,-0.68728 1.04727,-1.83274l0.11454,-0.4091c0.04909,-0.08181 0.14727,-0.08181 0.22909,-0.08181c0.11454,0 0.24544,0 0.24544,0.16364c0,0.0491 -0.22908,1.09637 -0.50727,1.6691c-0.21273,0.40909 -0.54,0.85091 -1.16181,0.85091c-0.78546,0 -1.37455,-0.60546 -1.37455,-1.47273c0,-0.24545 0.08182,-0.57273 0.09819,-0.63818l2.04544,-8.18185c0,-0.01637 0.04909,-0.22908 0.04909,-0.27818c0,-0.16364 -0.03273,-0.27819 -0.81817,-0.27819c-0.22909,0 -0.39273,0 -0.39273,-0.18c0,-0.31091 0.18,-0.32727 0.37636,-0.34364l1.62,-0.13091c0.04909,-0.01637 0.21273,-0.03273 0.26181,-0.03273c0.13092,0 0.22909,0.0491 0.22909,0.19637c0,0.03273 -0.03273,0.16364 -0.04909,0.21273z" fill="#000000" stroke="none" stroke-width="1" stroke-linecap="butt"/><path d="M111.02664,312.87844c-0.45819,0.45819 -0.80182,0.86727 -0.91636,0.99819c0.08181,-0.01637 0.21273,-0.01637 0.29454,-0.01637c0.32727,0 0.52363,0.06546 1.01454,0.27818c0.32728,0.14727 0.58909,0.26182 0.91636,0.26182c0.70363,0 1.48909,-0.55637 1.78363,-1.37456c0.06546,-0.21272 0.08182,-0.26181 0.27819,-0.26181c0.04909,0 0.24546,0 0.24546,0.16364c0,0.39273 -0.88365,2.52001 -2.47092,2.52001c-0.50727,0 -0.75273,-0.31091 -1.01454,-0.63818c-0.29454,-0.40909 -0.42546,-0.58909 -0.78546,-0.58909c-0.62181,0 -1.06363,0.73637 -1.29271,1.08c-0.06546,0.11455 -0.08182,0.14727 -0.26182,0.14727c-0.09818,0 -0.24546,0 -0.24546,-0.16364c0,-0.16364 0.78545,-1.37455 1.70182,-2.27455l2.68363,-2.66729c0.26181,-0.26181 0.40909,-0.44181 0.65454,-0.72c-0.24544,0 -0.42544,0 -0.96544,-0.24545c-0.36,-0.16364 -0.65455,-0.29456 -0.98182,-0.29456c-0.60546,0 -1.08,0.4091 -1.2109,0.7691c-0.08182,0.19637 -0.09819,0.2291 -0.29455,0.2291c-0.1309,0 -0.24544,-0.03273 -0.24544,-0.18c0,-0.32727 0.70363,-1.86547 1.91454,-1.86547c0.52363,0 0.80182,0.37637 0.99819,0.63819c0.3109,0.42545 0.47454,0.58908 0.76908,0.58908c0.26182,0 0.47455,-0.08181 1.01455,-1.01454c0.09817,-0.19637 0.11454,-0.21273 0.3109,-0.21273c0.09817,0 0.22909,0 0.22909,0.16364c0,0.14729 -0.78546,1.39092 -1.75092,2.34001z" fill="#000000" stroke="none" stroke-width="1" stroke-linecap="butt"/><path d="M151.66611,308.39479c-0.76909,0 -1.2109,0.9 -1.44,1.75093c-0.1309,0.54 -0.37636,1.55454 -0.55636,2.24182c-0.1309,0.55637 -0.3109,1.26 -0.3109,1.65273c0,0.85091 0.44181,1.04728 0.76908,1.04728c0.68728,0 1.50546,-0.63818 1.94727,-2.04547c0.08182,-0.26181 0.09819,-0.27818 0.29455,-0.27818c0.11454,0 0.24544,0 0.24544,0.16364c0,0.32727 -0.83454,2.52001 -2.51998,2.52001c-0.42546,0 -1.22728,-0.18 -1.55455,-1.11273c-0.27817,0.49091 -0.81817,1.11273 -1.60363,1.11273c-0.75273,0 -1.44,-0.37636 -1.44,-1.01455c0,-0.54 0.40909,-0.88363 0.81819,-0.88363c0.21271,0 0.55636,0.09818 0.55636,0.52363c0,0.24545 -0.14728,0.65455 -0.63819,0.78546c0.27819,0.22909 0.6709,0.22909 0.72,0.22909c0.98182,0 1.32546,-1.30909 1.58727,-2.37274c0.18,-0.75273 0.19636,-0.81818 0.37636,-1.48908c0.14727,-0.60546 0.34363,-1.40729 0.34363,-1.80001c0,-0.65456 -0.3109,-1.03092 -0.78544,-1.03092c-0.65455,0 -1.50546,0.63819 -1.94728,2.04547c-0.08181,0.26181 -0.08181,0.27818 -0.29454,0.27818c-0.08181,0 -0.24545,0 -0.24545,-0.16364c0,-0.37637 0.88364,-2.52001 2.51999,-2.52001c0.40909,0 1.21092,0.13092 1.57092,1.11273c0.16363,-0.31091 0.70363,-1.11273 1.60363,-1.11273c0.47454,0 1.42363,0.19637 1.42363,1.03092c0,0.63818 -0.50727,0.86727 -0.80182,0.86727c-0.42544,0 -0.57273,-0.31092 -0.57273,-0.52364c0,-0.01637 0,-0.62183 0.65455,-0.78546c-0.26182,-0.2291 -0.6709,-0.2291 -0.72,-0.2291z" fill="#000000" stroke="none" stroke-width="1" stroke-linecap="butt"/><path d="M260.64452,309.29719c0.55636,-0.52364 1.11273,-0.86727 1.73454,-0.86727c0.98182,0 1.96363,0.80183 1.96363,2.55274c0,2.40547 -1.91454,4.86001 -3.74727,4.86001c-1.19454,0 -1.88181,-1.11273 -1.88181,-2.48728c0,-0.62183 0.16363,-1.29273 0.18,-1.34183l1.61998,-6.46365c0,-0.01637 0.04909,-0.22908 0.04909,-0.27818c0,-0.16364 -0.03273,-0.27819 -0.81817,-0.27819c-0.22909,0 -0.39273,0 -0.39273,-0.18c0,-0.31091 0.18,-0.32727 0.37636,-0.34364l1.62,-0.13091c0.04909,-0.01637 0.21273,-0.03273 0.26181,-0.03273c0.13092,0 0.22909,0.0491 0.22909,0.19637c0,0.03273 -0.03273,0.16364 -0.04909,0.21273zM262.32996,313.92807c0.47455,-1.04727 0.91636,-2.99456 0.91636,-3.68184c0,-0.52364 -0.16363,-1.45637 -0.9,-1.45637c-0.62181,0 -1.24363,0.55637 -1.71817,1.21092c-0.24546,0.32727 -0.24546,0.36 -0.36,0.75272c-0.47455,1.86547 -0.62182,2.4382 -0.62182,3.1582c0,1.22727 0.54,1.57091 0.94909,1.57091c0.83454,0 1.53817,-1.14546 1.73454,-1.55454z" fill="#000000" stroke="none" stroke-width="1" stroke-linecap="butt"/><path d="M188.00495,308.39472c-0.73636,0 -1.55455,0.57273 -2.14363,1.63637c-0.42546,0.78546 -0.86727,2.50364 -0.86727,3.37092c0,0.9491 0.40908,1.68547 1.29271,1.68547c0.27819,0 1.73455,-0.06545 2.94546,-1.60364c0.1309,-0.16364 0.14727,-0.18 0.21273,-0.18c0.1309,0 0.26181,0.18 0.26181,0.26181c0,0.24546 -1.35817,1.88183 -3.45271,1.88183c-1.44,0 -2.40546,-1.08 -2.40546,-2.70001c0,-2.3891 2.1109,-4.71274 4.14,-4.71274c1.04727,0 1.7509,0.60546 1.7509,1.40727c0,0.62183 -0.39273,0.98183 -0.83454,0.98183c-0.37636,0 -0.55636,-0.26183 -0.55636,-0.52364c0,-0.03273 0,-0.70364 0.81817,-0.80183c-0.24544,-0.67091 -0.98181,-0.70364 -1.16181,-0.70364z" fill="#000000" stroke="none" stroke-width="1" stroke-linecap="butt"/><path d="M331.92515,315.02204c-0.11455,0.31091 -0.39273,0.42546 -0.58909,0.42546c-0.32727,0 -0.45817,-0.24546 -0.45817,-0.42546c0,-0.04909 0.01635,-0.13091 0.04908,-0.22909l1.22727,-4.9091c0.06546,-0.26183 0.11455,-0.57273 0.11455,-0.83454c0,-0.18 0,-0.65456 -0.42546,-0.65456c-0.50727,0 -0.81817,0.80183 -1.11273,1.94728c-0.08181,0.36 -0.09817,0.37637 -0.3109,0.37637c-0.08181,0 -0.24545,0 -0.24545,-0.16364c0,-0.03273 0.21272,-0.99818 0.52364,-1.65274c0.26181,-0.49091 0.58908,-0.86727 1.17817,-0.86727c0.70363,0 1.26,0.49092 1.37454,1.29273c0.55636,-0.75273 1.35819,-1.29273 2.34,-1.29273c0.73636,0 1.58727,0.31092 1.71819,1.44c0.4909,-0.72 1.30908,-1.44 2.45454,-1.44c0.76909,0 1.71817,0.32727 1.71817,1.70183c0,0.9491 -0.6709,2.78182 -0.99817,3.64909c-0.1309,0.39274 -0.29454,0.81819 -0.29454,1.22728c0,0.22909 0.01636,0.47455 0.36,0.47455c0.94908,0 1.3909,-1.60364 1.52181,-2.04547c0.06546,-0.24545 0.06546,-0.27818 0.27819,-0.27818c0.11454,0 0.24544,0 0.24544,0.16364c0,0.08183 -0.55636,2.52001 -2.07817,2.52001c-0.78546,0 -1.24363,-0.58909 -1.24363,-1.30909c0,-0.34364 0.04908,-0.49091 0.26181,-1.04728c0.22909,-0.65454 0.94909,-2.60182 0.94909,-3.61638c0,-0.24545 0,-1.08 -0.75273,-1.08c-1.12909,0 -1.83273,0.9491 -2.30727,1.76728c-0.19636,0.34365 -0.19636,0.37637 -0.40909,1.17819c-0.08181,0.36 -0.18,0.70364 -0.26181,1.06364l-0.65455,2.61819c-0.11454,0.31091 -0.39271,0.42546 -0.58908,0.42546c-0.32727,0 -0.45819,-0.24546 -0.45819,-0.42546c0,-0.04909 0.01636,-0.13091 0.04909,-0.22909l1.06363,-4.25456c0.03273,-0.14727 0.14727,-0.62181 0.14727,-1.06364c0,-0.24545 0,-1.08 -0.75273,-1.08c-1.12908,0 -1.83271,0.9491 -2.30727,1.76728c-0.19636,0.34365 -0.19636,0.37637 -0.40908,1.17819c-0.08182,0.36 -0.18,0.70364 -0.26182,1.06364z" fill="#000000" stroke="none" stroke-width="1" stroke-linecap="butt"/><path d="M296.60398,315.02206c-0.11455,0.31091 -0.39273,0.42546 -0.58909,0.42546c-0.32727,0 -0.45817,-0.24546 -0.45817,-0.42546c0,-0.04909 0.01635,-0.13091 0.04908,-0.22909l1.22727,-4.9091c0.06546,-0.26183 0.11455,-0.57273 0.11455,-0.83454c0,-0.18 0,-0.65456 -0.42546,-0.65456c-0.50727,0 -0.81817,0.80183 -1.11273,1.94728c-0.08181,0.36 -0.09817,0.37637 -0.3109,0.37637c-0.08181,0 -0.24545,0 -0.24545,-0.16364c0,-0.03273 0.21272,-0.99818 0.52364,-1.65274c0.26181,-0.49091 0.58908,-0.86727 1.17817,-0.86727c0.70363,0 1.26,0.49092 1.37454,1.29273c0.21273,-0.31091 0.99819,-1.29273 2.34,-1.29273c0.80182,0 1.70182,0.36 1.70182,1.70183c0,0.9491 -0.67092,2.78182 -0.99819,3.64909c-0.1309,0.39274 -0.29454,0.81819 -0.29454,1.22728c0,0.22909 0.01636,0.47455 0.36,0.47455c0.94909,0 1.3909,-1.60364 1.52181,-2.04547c0.06546,-0.24545 0.06546,-0.27818 0.27819,-0.27818c0.11454,0 0.24546,0 0.24546,0.16364c0,0.08183 -0.55636,2.52001 -2.07819,2.52001c-0.78544,0 -1.24363,-0.58909 -1.24363,-1.30909c0,-0.34364 0.04909,-0.49091 0.26182,-1.04728c0.22908,-0.65454 0.94908,-2.60182 0.94908,-3.61638c0,-0.34364 -0.03273,-1.08 -0.75271,-1.08c-1.24365,0 -1.98,1.22727 -2.20909,1.62c-0.27819,0.47456 -0.27819,0.49092 -0.4909,1.32546c-0.08182,0.36 -0.18,0.70364 -0.26182,1.06364z" fill="#000000" stroke="none" stroke-width="1" stroke-linecap="butt"/><path d="M224.08715,315.44748c-0.96546,0 -2.01273,-0.47455 -2.01273,-1.96364c0,-0.7691 0.32727,-1.75091 0.83454,-3.14183c0.22909,-0.63818 0.39273,-1.08 0.39273,-1.47272c0,-0.42546 -0.18,-0.47456 -0.36,-0.47456c-0.94909,0 -1.3909,1.55456 -1.52182,2.06183c-0.06544,0.2291 -0.08181,0.26181 -0.29454,0.26181c-0.08181,0 -0.24545,0 -0.24545,-0.16364c0,-0.09818 0.57272,-2.52001 2.09455,-2.52001c0.70363,0 1.24363,0.50727 1.24363,1.32546c0,0.31091 -0.09819,0.55637 -0.18,0.81818c-0.44182,1.17819 -0.96546,2.60183 -0.96546,3.55093c0,0.54 0.18,1.35818 1.06363,1.35818c1.88182,0 2.65092,-4.10728 2.65092,-4.56547c0,-0.34364 -0.04909,-0.86727 -0.44182,-1.29272c-0.09817,-0.11456 -0.21273,-0.2291 -0.21273,-0.44183c0,-0.37637 0.40909,-0.75273 0.78546,-0.75273c0.47454,0 0.6709,0.50727 0.6709,1.08c0,0.42546 -0.75273,6.33275 -3.50181,6.33275z" fill="#000000" stroke="none" stroke-width="1" stroke-linecap="butt"/></g></g></g></svg>