<svg version="1.1" xmlns="http://www.w3.org/2000/svg" xmlns:xlink="http://www.w3.org/1999/xlink" width="1019.15916" height="1025.52552" viewBox="0,0,1019.15916,1025.52552"><g transform="translate(270.15015,332.76277)"><g data-paper-data="{&quot;isPaintingLayer&quot;:true}" fill-rule="nonzero" stroke="none" stroke-linecap="butt" stroke-linejoin="miter" stroke-miterlimit="10" stroke-dasharray="" stroke-dashoffset="0" style="mix-blend-mode: normal"><path d="M-270.15015,692.76276v-984.01574h1019.15916v984.01574z" fill="none" stroke-width="0"/><path d="M-105.34535,-151.08108v-43.54354h133.63363v43.54354z" fill="none" stroke-width="0"/><path d="M-241.98198,-179.60961v-153.15315h139.63964v153.15315z" fill="none" stroke-width="0"/><path d="M176.28707,182.65092c-0.52364,1.12909 -1.55454,1.80001 -2.7491,1.80001c-0.93273,0 -2.17636,-0.44182 -2.8309,-2.01274c-0.49091,-1.19455 -0.55636,-2.38909 -0.55636,-3.68182c0,-1.3091 0.08182,-2.66727 0.62182,-3.86183c0.67091,-1.45637 1.81637,-1.89818 2.78181,-1.89818c0.83456,0 1.96364,0.39273 2.63456,1.62c0.68727,1.32545 0.75271,2.84727 0.75271,4.14001c0,1.75091 -0.16363,2.83092 -0.65454,3.89456zM175.3707,181.70182c0.29454,-1.03091 0.29454,-2.06181 0.29454,-3.14182c0,-1.01456 0,-2.11091 -0.3109,-3.02728c-0.11454,-0.29456 -0.54,-1.53819 -1.81637,-1.53819c-1.32545,0 -1.73454,1.34183 -1.83272,1.65273c-0.27819,0.90001 -0.27819,1.88183 -0.27819,2.91274c0,1.27637 0.01637,2.16001 0.27819,3.09274c0.32727,1.17818 0.99818,1.8 1.84908,1.8c0.52364,0 1.39091,-0.26182 1.81637,-1.75092z" fill="#ff0000" stroke-width="1"/><path d="M182.50866,183.14183h2.04544v0.94909h-5.38363v-0.94909h2.04546v-8.50911c-0.81819,0.34364 -1.60363,0.37636 -2.14363,0.39273v-0.9491c0.78546,-0.03273 2.14363,-0.08182 3.10909,-1.08h0.32727z" fill="#ff0000" stroke-width="1"/><path d="M189.87419,179.85274c0.96546,-0.98183 1.89819,-1.91456 1.89819,-3.30547c0,-1.27637 -0.83455,-2.50365 -2.37273,-2.50365c-1.4891,0 -1.94727,1.27637 -2.27455,2.53638c-0.16363,-0.22909 -0.32727,-0.44182 -0.36,-0.47454c-0.03273,-0.0491 -0.11454,-0.14729 -0.3109,-0.42547c0.39272,-1.40728 1.30909,-2.68364 3.17453,-2.68364c2.16,0 3.48546,1.63637 3.48546,3.51818c0,1.39091 -0.88363,2.2582 -1.62,2.99457c-0.3109,0.29454 -1.14546,0.98181 -1.45636,1.27635c-0.50727,0.47456 -1.7509,1.70183 -2.27454,2.16001h1.78364c0.19637,0 0.39273,-0.01636 0.58909,-0.01636h2.97817v1.16182h-6.52908v-1.04728l2.02909,-2.0291z" fill="#ff0000" stroke-width="1"/><path d="M194.83428,174.79636c0.68727,-1.14547 1.88181,-1.8 3.14181,-1.8c1.62,0 2.97819,1.08 2.97819,2.48727c0,1.03091 -0.57273,2.14364 -1.81637,2.81455c1.11273,0.34364 2.25817,1.3582 2.25817,2.84728c0,1.71819 -1.44,3.30547 -3.43636,3.30547c-0.65454,0 -2.15998,-0.16364 -3.35453,-1.70182l0.18,-0.98182c0.71999,1.11273 2.01272,1.68546 3.14182,1.68546c1.26,0 2.01271,-1.04728 2.01271,-2.32363c0,-0.8182 -0.36,-2.34001 -2.12727,-2.34001h-1.16181v-0.99819c1.16181,-0.09818 1.19454,-0.09818 1.29273,-0.11454c0.99818,-0.22909 1.66908,-1.19456 1.66908,-2.19274c0,-1.04728 -0.80181,-1.53818 -1.65273,-1.53818c-0.99818,0 -2.06181,0.58908 -2.53635,1.73454z" fill="#ff0000" stroke-width="1"/><path d="M208.15618,184.09092h-1.29273v-2.79818h-4.33636v-0.9982l4.13999,-6.9382h1.48909v6.9382h1.62v0.9982h-1.62zM206.96164,180.29455v-6.21819c0,0.93273 -2.30727,4.81092 -3.15819,6.21819z" fill="#ff0000" stroke-width="1"/><path d="M212.72354,177.77454c0.47454,-0.42545 1.09637,-0.67091 1.75091,-0.67091c1.68546,0 3.09273,1.62 3.09273,3.66547c0,2.06182 -1.63637,3.68183 -3.58364,3.68183c-1.32546,0 -2.45454,-0.67092 -3.12545,-1.60365l0.54,-0.91637c0.47455,0.88364 1.47272,1.52183 2.56909,1.52183c0.14727,0 2.14363,0 2.14363,-2.71637c0,-1.96364 -0.88363,-2.63456 -1.65273,-2.63456c-0.94908,0 -1.55454,0.63819 -1.83272,1.29273h-1.08001v-6.0382h5.48182v1.04728h-4.30364z" fill="#ff0000" stroke-width="1"/><path d="M225.1633,174.28908c-0.57273,-0.22909 -1.09636,-0.34363 -1.71817,-0.34363c-1.50546,0 -2.79819,1.30908 -3.0109,3.94365c0.99818,-1.22729 2.24181,-1.3582 2.76545,-1.3582c1.5709,0 2.6509,1.83274 2.6509,3.92728c0,1.29273 -0.31091,2.04547 -1.04727,2.88001c-0.63817,0.73636 -1.3418,1.11273 -2.32363,1.11273c-1.3909,0 -3.42,-0.99819 -3.42,-5.62912c0,-3.51819 2.06182,-5.82546 4.36909,-5.82546c0.22909,0 0.9,0 1.73453,0.32727zM222.47967,183.45274c0.93273,0 1.35819,-0.55637 1.63636,-1.01456c0.39273,-0.67091 0.39273,-1.42364 0.39273,-1.98001c0,-0.73636 -0.03273,-1.30908 -0.37636,-1.91454c-0.32727,-0.60546 -0.78546,-1.01454 -1.57091,-1.01454c-1.35819,0 -2.09456,1.30909 -2.09456,2.52001c-0.01637,0.19635 -0.01637,0.22908 -0.01637,0.45817c0.0491,0.54 0.29456,2.94546 2.0291,2.94546z" fill="#ff0000" stroke-width="1"/><path d="M227.21067,174.51817v-1.16181h6.79089v1.06364c-1.27636,1.44 -3.61636,4.94182 -3.61636,9.85093h-1.37454c0,-3.8291 1.45636,-7.10183 3.87819,-9.76912h-1.98c-0.19637,0 -0.39273,0.01636 -0.58909,0.01636z" fill="#ff0000" stroke-width="1"/><path d="M242.15256,181.14546c0,1.73456 -1.45637,3.30547 -3.40364,3.30547c-1.88181,0 -3.38727,-1.52182 -3.38727,-3.30547c0,-1.42364 1.06364,-2.45455 2.24183,-2.86364c-1.45637,-0.47454 -2.01273,-1.55455 -2.01273,-2.42182c0,-1.50547 1.3418,-2.86364 3.17453,-2.86364c1.76727,0 3.15819,1.32545 3.15819,2.86364c0,0.86728 -0.55637,1.94728 -2.01273,2.42182c1.09636,0.37637 2.24181,1.37456 2.24181,2.86364zM240.77802,175.85999c0,-1.06364 -0.73636,-1.91454 -2.02909,-1.91454c-1.21091,0 -2.01271,0.78544 -2.01271,1.91454c0,1.1291 0.76908,1.93092 2.02908,1.93092c1.17819,0 2.01273,-0.75274 2.01273,-1.93092zM240.82711,181.12911c0,-1.68547 -1.1291,-2.34001 -2.07819,-2.34001c-0.88364,0 -2.0618,0.62182 -2.0618,2.34001c0,1.53818 0.94907,2.32363 2.07817,2.32363c1.04727,0 2.06182,-0.73637 2.06182,-2.32363z" fill="#ff0000" stroke-width="1"/><path d="M244.51084,182.83092c0.58908,0.49091 1.12908,0.62182 1.68544,0.62182c1.29273,0 2.55273,-1.25999 2.73273,-3.89456c-0.70364,0.88364 -1.75091,1.35819 -2.76546,1.35819c-1.5709,0 -2.6509,-1.83274 -2.6509,-3.92728c0,-0.70364 0.03273,-1.78364 1.06363,-2.89637c0.57273,-0.60546 1.24363,-1.09636 2.38909,-1.09636c1.3909,0 3.33817,1.0309 3.33817,5.61274c0,3.56728 -1.98,5.84183 -4.12363,5.84183c-1.01454,0 -1.62,-0.34364 -2.17636,-0.75273zM246.96538,173.94545c-0.85091,0 -1.3091,0.45818 -1.63637,0.93272c-0.45817,0.72 -0.47454,1.39092 -0.47454,2.11093c0,0.70364 0.01637,1.30908 0.37637,1.94727c0.34364,0.60544 0.80181,0.98182 1.5709,0.98182c1.29273,0 2.09454,-1.21091 2.09454,-2.55274c0,-0.11454 0,-0.27818 -0.01637,-0.39272c-0.03273,-0.80183 -0.3109,-3.02728 -1.91454,-3.02728z" fill="#ff0000" stroke-width="1"/><path d="M253.92183,184.09092h-1.35819v-1.35818h1.35819z" fill="#ff0000" stroke-width="1"/><path d="M257.76305,186.13639h-0.67091l0.4091,-2.04547h-0.4091v-1.35818h1.35818v1.34182z" fill="#ff0000" stroke-width="1"/><path d="M260.21337,180.93274v-0.9491h4.33637v0.9491z" fill="#ff0000" stroke-width="1"/><path d="M270.90059,171.81816c-0.54,0.54 -1.47273,1.52183 -2.14363,3.42001c-0.67092,1.93093 -0.72,3.84547 -0.72,4.76184c0,5.28546 2.07817,7.39639 2.86363,8.18184h-0.99819c-0.78544,-0.72 -3.14181,-2.89637 -3.14181,-8.18184c0,-1.19456 0.11455,-2.92911 0.76909,-4.68002c0.75272,-2.01274 1.84908,-3.01091 2.37272,-3.50183z" fill="#ff0000" stroke-width="1"/><path d="M272.72472,188.18184c0.54,-0.54 1.47273,-1.52182 2.14364,-3.42001c0.67091,-1.93092 0.72,-3.84546 0.72,-4.76183c0,-5.28548 -2.07817,-7.39639 -2.86363,-8.18185h0.99818c0.78546,0.72 3.14182,2.89637 3.14182,8.18185c0,1.19455 -0.11455,2.92909 -0.76909,4.68001c-0.75273,2.01273 -1.84909,3.01092 -2.37273,3.50183z" fill="#ff0000" stroke-width="1"/><path d="M281.14189,178.93637v5.15456h-1.45637v-11.3073h7.06909v1.06363h-2.88c-0.19637,0 -0.39273,-0.01637 -0.58909,-0.01637h-2.14364v4.10729h4.94182v0.99819z" fill="#ff0000" stroke-width="1"/><path d="M290.45812,179.36182v4.72911h-1.45636v-11.3564h4.07455c2.25817,0 3.87817,1.55457 3.87817,3.30548c0,1.83274 -1.73454,3.32182 -3.76364,3.32182zM290.40902,173.65089v4.76184h2.30728c1.88181,0 2.91271,-1.08 2.91271,-2.37273c0,-1.39091 -1.11271,-2.3891 -2.91271,-2.3891z" fill="#ff0000" stroke-width="1"/><path d="M305.21047,174.5018c-0.60546,-0.50727 -1.3909,-1.04728 -2.76546,-1.04728c-1.50545,0 -2.38908,0.98183 -2.38908,1.94727c0,0.72 0.45818,1.19456 0.57272,1.29273c0.49092,0.42546 0.75273,0.49091 1.70182,0.72c1.50546,0.37637 2.04546,0.52363 2.81453,1.34183c0.36,0.39273 0.86727,1.17818 0.86727,2.24182c0,1.80001 -1.50544,3.45274 -3.66544,3.45274c-1.03091,0 -2.34,-0.2291 -3.78,-1.1291l0.24545,-1.32546c1.37455,1.16182 2.84728,1.32546 3.51818,1.32546c1.4891,0 2.38909,-1.08 2.38909,-2.16001c0,-0.70364 -0.36,-1.24364 -0.68727,-1.52182c-0.45819,-0.40909 -0.62183,-0.45819 -2.01273,-0.80183c-0.96546,-0.22908 -1.68546,-0.42545 -2.37273,-1.16181c-0.65454,-0.68727 -0.88364,-1.37456 -0.88364,-2.0782c0,-1.62 1.42363,-3.22365 3.69817,-3.22365c1.19455,0 2.09455,0.27819 2.99455,0.8182z" fill="#ff0000" stroke-width="1"/><path d="M309.84929,178.18364h-1.35819v-1.3582h1.35819zM309.84929,182.73274v1.35819h-1.35819v-1.35819z" fill="#ff0000" stroke-width="1"/></g></g></svg>