<svg version="1.1" xmlns="http://www.w3.org/2000/svg" xmlns:xlink="http://www.w3.org/1999/xlink" width="110.57889" height="155.02375" viewBox="0,0,110.57889,155.02375"><g transform="translate(-177.21814,-102.356)"><g data-paper-data="{&quot;isPaintingLayer&quot;:true}" fill-rule="nonzero" stroke="none" stroke-linecap="butt" stroke-linejoin="miter" stroke-miterlimit="10" stroke-dasharray="" stroke-dashoffset="0" style="mix-blend-mode: normal"><path d="M255.09253,224.98298c0,0 -0.39055,0.1001 -0.90613,0.06996c-2.16486,0.96851 -4.83644,1.23625 -7.02711,1.5028c-3.89664,0.47414 -7.97617,0.61358 -12.01096,0.37983c-2.78891,1.30363 -6.01883,1.87464 -8.60444,1.71141c-3.10723,-0.19614 -6.22951,-0.60724 -7.87062,-3.64225c-0.87793,-0.35355 -1.52315,-1.16325 -1.64212,-2.13558c-0.00707,-0.00619 -0.01409,-0.01238 -0.02108,-0.0186c-3.13026,-2.78375 -3.94596,-8.48012 -1.81851,-12.15536c0.68758,-1.18782 2.06844,-1.80451 3.10266,-2.70676l0.4708,-0.17057c1.52906,-3.21084 3.34318,-6.49407 5.31682,-9.40853c2.36372,-3.4905 5.33607,-6.16005 8.78109,-8.30596c-0.20199,-0.37427 -0.31664,-0.80261 -0.31664,-1.25774c0,-1.23158 0.83951,-2.26708 1.97749,-2.56546l2.78222,-0.79773l0.04387,0.15302c0.32326,-0.11479 0.6573,-0.19698 1.00541,-0.23657c1.1116,-0.12643 2.11726,0.55078 3.0624,1.29258c1.10683,-0.01087 2.28926,0.36215 3.86119,1.41273c2.32885,1.55645 3.70514,6.2898 5.10297,8.66823c1.95975,3.33453 5.04298,5.98772 7.65024,8.93607c1.00229,0.9142 1.88849,1.85647 2.54102,2.76854c0.91154,1.27412 2.062,2.70085 1.97438,4.26501c-0.00873,0.15584 -0.03132,0.30629 -0.06607,0.45208c0.42987,1.28931 0.70707,2.63466 0.40249,3.9095c-0.0583,0.24403 -0.13111,0.4886 -0.21752,0.73123c1.03903,1.32205 0.07658,2.92617 0.07658,2.92617l-1.61142,1.92885c-1.91386,0.98672 -3.95605,1.7475 -6.03902,2.29308zM244.66992,199.48007c-0.06066,-0.12656 -0.12179,-0.25294 -0.18343,-0.3791c0.02703,0.13249 0.05347,0.26467 0.07945,0.3964c0.03456,-0.00596 0.06923,-0.01173 0.10398,-0.0173z" data-paper-data="{&quot;index&quot;:null}" fill="#ffc100" stroke-width="0.5"/><path d="M211.2788,145.2621c-0.35027,-1.92563 -0.364,-6.00959 1.77882,-9.10665c1.19503,-1.71703 3.49583,-3.76301 7.69219,-3.76301h35.65876c4.18949,0 6.48341,2.03797 7.67845,3.74697c2.64419,3.79511 1.88871,8.57709 1.79255,9.11467c-2.91891,16.15929 -13.97643,27.95381 -18.5986,32.27044l-3.21424,3.0088l3.21424,3.0088c4.62217,4.31663 15.67969,16.11114 18.5986,32.28648c0.08929,0.52955 0.85164,5.30352 -1.79255,9.09862c-1.19504,1.709 -3.48896,3.74697 -7.67845,3.74697h-35.65876c-4.20323,0 -6.50402,-2.04599 -7.69219,-3.76301c-2.14282,-3.08904 -2.12909,-7.17299 -1.77882,-9.09862c2.91891,-16.15929 13.97643,-27.9538 18.59861,-32.27043l3.21423,-3.00078l-3.21423,-3.00881c-4.62217,-4.31663 -15.68657,-16.11115 -18.59861,-32.27043zM218.0026,217.44132c-0.06181,0.41722 -0.08241,1.76516 0.40521,2.43913c0.48076,0.66595 1.6758,0.77025 2.34199,0.77025h35.65876c0.6662,0 1.86123,-0.1043 2.34199,-0.77025c0.48763,-0.67397 0.46703,-2.03796 0.41208,-2.41506c-2.45875,-13.62387 -12.12206,-23.8859 -16.16732,-27.66496l-4.41614,-4.12407l-4.40927,4.13209c-4.04527,3.77104 -13.71544,14.04109 -16.16732,27.63287zM234.16992,171.27422l4.40927,4.12407l4.41614,-4.13209c4.04527,-3.77104 13.71544,-14.04108 16.16732,-27.62483c0.05494,-0.41722 0.07555,-1.7732 -0.40521,-2.44717c-0.48077,-0.66595 -1.6758,-0.77025 -2.342,-0.77025h-35.65876c-0.66619,0 -1.86124,0.1043 -2.342,0.77025c-0.48763,0.67397 -0.46702,2.02994 -0.41208,2.41507c2.45188,13.62387 12.12206,23.8859 16.16732,27.66496z" data-paper-data="{&quot;index&quot;:null}" fill="#000000" stroke-width="1"/><path d="M177.21814,257.37975v-155.02375h110.57889v155.02375z" fill="none" stroke-width="0"/></g></g></svg>