<svg version="1.1" xmlns="http://www.w3.org/2000/svg" xmlns:xlink="http://www.w3.org/1999/xlink" width="37.86704" height="26.07225" viewBox="0,0,37.86704,26.07225"><g transform="translate(-221.06648,-166.96391)"><g data-paper-data="{&quot;isPaintingLayer&quot;:true}" fill-rule="nonzero" stroke-linecap="butt" stroke-linejoin="miter" stroke-miterlimit="10" stroke-dasharray="" stroke-dashoffset="0" style="mix-blend-mode: normal"><path d="M256.45741,192.78616c-6.7336,0 -28.27729,0 -32.63067,0c-1.51414,0 -2.51026,-0.95831 -2.51026,-2.4908c0,-5.38467 0,-17.85811 0,-20.75669c0,-1.17748 0.83864,-2.32476 2.27173,-2.32476c4.30441,0 26.35938,0 32.92602,0c1.18062,0 2.16929,0.87327 2.16929,1.82658c0,2.7465 0,16.26468 0,21.58696c0,1.33855 -0.9369,2.1587 -2.22611,2.1587z" data-paper-data="{&quot;index&quot;:null}" fill-opacity="0.91765" fill="#fff6d1" stroke="#d0d0d0" stroke-width="0.5"/><g fill="#000000" stroke="none" stroke-width="1"><path d="M227.62969,183.04673c0,0.41233 0.02291,0.53832 0.85904,0.53832h0.22907v0.33216c-0.26343,-0.02291 -1.07665,-0.02291 -1.38591,-0.02291c-0.34361,0 -0.97357,0 -1.29427,0.02291v-0.33216c0.7445,0 0.87048,0 0.87048,-0.51542v-3.10397c0,-0.56123 -0.09163,-0.64141 -0.87048,-0.64141v-0.33216l1.5348,-0.12599v1.27137h0.01146c0.06872,-0.21762 0.40089,-1.27137 1.37445,-1.27137c0.49252,0 0.80177,0.3207 0.80177,0.66432c0,0.30924 -0.22908,0.45814 -0.45815,0.45814c-0.18326,0 -0.44669,-0.12598 -0.44669,-0.45814c0,-0.30926 0.18326,-0.37798 0.27489,-0.42379c-0.04582,-0.01146 -0.06872,-0.01146 -0.16035,-0.01146c-0.88194,0 -1.3401,1.0423 -1.3401,2.15331z"/><path d="M232.85724,184.03175c-1.30573,0 -2.45111,-1.09956 -2.45111,-2.56564c0,-1.44317 1.08811,-2.65727 2.46256,-2.65727c1.32864,0 2.4511,1.17973 2.4511,2.65727c0,1.44317 -1.11102,2.56564 -2.46256,2.56564zM234.15151,183.01236c0.2978,-0.53832 0.2978,-1.24845 0.2978,-1.64934c0,-0.42379 0,-1.14537 -0.35506,-1.67225c-0.30926,-0.4467 -0.79031,-0.65286 -1.23701,-0.65286c-0.40089,0 -0.90485,0.18326 -1.22555,0.67578c-0.35507,0.51541 -0.35507,1.21409 -0.35507,1.64934c0,0.48106 0.01145,1.15683 0.3207,1.67224c0.33216,0.56124 0.84758,0.7445 1.27137,0.7445c0.43524,0 0.96211,-0.21762 1.28282,-0.7674z"/><path d="M240.74575,178.86611v4.07753c0,0.56124 0.09163,0.64141 0.87048,0.64141v0.33216l-1.59207,0.11454v-1.03084c0,0 -0.18326,0.43525 -0.51542,0.69868c-0.38943,0.33216 -0.75595,0.33216 -0.95067,0.33216c-0.58414,0 -1.05375,-0.13745 -1.32863,-0.43524c-0.34362,-0.37797 -0.34361,-0.79031 -0.34361,-1.50044v-1.71805c0,-1.01939 0,-1.05375 -0.87049,-1.05375v-0.33216l1.61498,-0.12599v3.79119c0,0.60705 0.05726,1.14537 0.99648,1.14537c0.85904,0 1.37445,-0.81321 1.37445,-1.78678v-2.05022c0,-0.56123 -0.09163,-0.64141 -0.87049,-0.64141v-0.33216z"/><path d="M246.95318,183.24144c0.01145,0.34361 0.2978,0.34361 0.87048,0.34361v0.33216c-0.2978,-0.02291 -0.9163,-0.02291 -1.24847,-0.02291c-0.3207,0 -0.93921,0 -1.23701,0.02291v-0.33216c0.7445,0 0.87048,0 0.87048,-0.51542v-2.69162c0,-0.69868 -0.16035,-1.28283 -0.87048,-1.28283c-0.71013,0 -1.50044,0.64141 -1.50044,1.84406v2.13039c0,0.51542 0.13745,0.51542 0.87048,0.51542v0.33216c-0.2978,-0.02291 -0.9163,-0.02291 -1.24846,-0.02291c-0.32071,0 -0.93921,0 -1.23701,0.02291v-0.33216c0.7445,0 0.87048,0 0.87048,-0.51542v-3.10397c0,-0.56123 -0.09163,-0.64141 -0.87048,-0.64141v-0.33216l1.55771,-0.12599v1.17974h0.01146c0.09163,-0.22908 0.52687,-1.17974 1.63788,-1.17974c0.38943,0 0.92775,0.06872 1.25991,0.51542c0.26344,0.36652 0.26344,0.68722 0.26344,1.75241z"/><path d="M253.09189,175.96831v6.97533c0,0.56124 0.09163,0.64141 0.87049,0.64141v0.33216l-1.61498,0.11454v-0.79031c-0.16035,0.21762 -0.66432,0.79031 -1.5348,0.79031c-1.25991,0 -2.34802,-1.12247 -2.34802,-2.57709c0,-1.46608 1.14538,-2.58855 2.47402,-2.58855c0.69867,0 1.19119,0.40087 1.43172,0.73304v-2.53128c0,-0.56123 -0.09163,-0.6414 -0.87048,-0.6414v-0.33216zM252.3474,180.21765c0,-0.20617 0,-0.22908 -0.13745,-0.42379c-0.11454,-0.18326 -0.51542,-0.69868 -1.22555,-0.69868c-0.57269,0 -1.03084,0.35506 -1.25991,0.71014c-0.25198,0.37797 -0.38943,0.83612 -0.38943,1.66079c0,2.22203 1.23701,2.33656 1.53481,2.33656c0.57269,0 1.04229,-0.33216 1.31718,-0.73304c0.16035,-0.25198 0.16035,-0.28634 0.16035,-0.49251z"/></g></g></g></svg>