<svg version="1.1" xmlns="http://www.w3.org/2000/svg" xmlns:xlink="http://www.w3.org/1999/xlink" width="23.25" height="45.75" viewBox="0,0,23.25,45.75"><g transform="translate(-228.375,-157.125)"><g data-paper-data="{&quot;isPaintingLayer&quot;:true}" fill-rule="nonzero" stroke="none" stroke-linecap="butt" stroke-linejoin="miter" stroke-miterlimit="10" stroke-dasharray="" stroke-dashoffset="0" style="mix-blend-mode: normal"><path d="M237.60275,184.10729c0.58908,0.49091 1.12908,0.62182 1.68544,0.62182c1.29273,0 2.55273,-1.25999 2.73273,-3.89456c-0.70364,0.88364 -1.75091,1.35819 -2.76546,1.35819c-1.5709,0 -2.6509,-1.83274 -2.6509,-3.92728c0,-0.70364 0.03273,-1.78364 1.06363,-2.89637c0.57273,-0.60546 1.24363,-1.09636 2.38909,-1.09636c1.3909,0 3.33817,1.0309 3.33817,5.61274c0,3.56728 -1.98,5.84183 -4.12363,5.84183c-1.01454,0 -1.62,-0.34364 -2.17636,-0.75273zM240.05729,175.22182c-0.85091,0 -1.3091,0.45818 -1.63637,0.93272c-0.45817,0.72 -0.47454,1.39092 -0.47454,2.11093c0,0.70364 0.01637,1.30908 0.37637,1.94727c0.34364,0.60544 0.80181,0.98182 1.5709,0.98182c1.29273,0 2.09454,-1.21091 2.09454,-2.55274c0,-0.11454 0,-0.27818 -0.01637,-0.39272c-0.03273,-0.80183 -0.3109,-3.02728 -1.91454,-3.02728z" fill="#ff0000" stroke-width="1"/><path d="M228.375,202.875v-45.75h23.25v45.75z" fill="none" stroke-width="0"/></g></g></svg>