<svg version="1.1" xmlns="http://www.w3.org/2000/svg" xmlns:xlink="http://www.w3.org/1999/xlink" width="119.45762" height="75.78204" viewBox="0,0,119.45762,75.78204"><g transform="translate(-222.8369,-164.59325)"><g data-paper-data="{&quot;isPaintingLayer&quot;:true}" fill-rule="nonzero" stroke="none" stroke-width="0" stroke-linecap="butt" stroke-linejoin="miter" stroke-miterlimit="10" stroke-dasharray="" stroke-dashoffset="0" style="mix-blend-mode: normal"><path d="M222.83691,237.12803c0,-11.75405 0,-60.62827 0,-68.41953c0,-1.98991 2.64925,-4.11524 5.20921,-4.11524c11.39323,0 92.16673,0 109.89333,0c2.15545,0 4.35508,1.86284 4.35508,3.59345c0,7.40786 0,56.65361 0,68.0107c0,1.41462 -2.27798,4.17789 -4.01057,4.17789c-9.51788,0 -91.2699,0 -110.52021,0c-0.9049,0 -2.26331,-0.42751 -2.86881,-0.64733c-1.07988,-0.39203 -2.05802,-1.58888 -2.05802,-2.59993z" fill-opacity="0.11373" fill="#000000"/><path d="M223.43691,168.56543c0,-1.93998 2.0218,-3.56521 4.54747,-3.56521c11.24063,0 92.51083,0 110,0c2.12658,0 3.31014,1.36934 3.31014,3.05651c0,7.22196 0,55.73093 0,66.803c0,2.74086 -1.26743,4.02076 -2.97681,4.02076c-9.3904,0 -92.00753,0 -111,0c-0.89278,0 -4.05102,-0.90638 -3.8808,-3.42403c0,0 0,-59.29529 0,-66.89102z" fill="#ffffff"/></g></g></svg>