<svg version="1.1" xmlns="http://www.w3.org/2000/svg" xmlns:xlink="http://www.w3.org/1999/xlink" width="23.25" height="45.75" viewBox="0,0,23.25,45.75"><g transform="translate(-228.375,-157.125)"><g data-paper-data="{&quot;isPaintingLayer&quot;:true}" fill-rule="nonzero" stroke="none" stroke-linecap="butt" stroke-linejoin="miter" stroke-miterlimit="10" stroke-dasharray="" stroke-dashoffset="0" style="mix-blend-mode: normal"><path d="M242.70817,175.56545c-0.57273,-0.22909 -1.09636,-0.34363 -1.71817,-0.34363c-1.50546,0 -2.79819,1.30908 -3.0109,3.94365c0.99818,-1.22729 2.24181,-1.3582 2.76545,-1.3582c1.5709,0 2.6509,1.83274 2.6509,3.92728c0,1.29273 -0.31091,2.04547 -1.04727,2.88001c-0.63817,0.73636 -1.3418,1.11273 -2.32363,1.11273c-1.3909,0 -3.42,-0.99819 -3.42,-5.62912c0,-3.51819 2.06182,-5.82546 4.36909,-5.82546c0.22909,0 0.9,0 1.73453,0.32727zM240.02454,184.72911c0.93273,0 1.35819,-0.55637 1.63636,-1.01456c0.39273,-0.67091 0.39273,-1.42364 0.39273,-1.98001c0,-0.73636 -0.03273,-1.30908 -0.37636,-1.91454c-0.32727,-0.60546 -0.78546,-1.01454 -1.57091,-1.01454c-1.35819,0 -2.09456,1.30909 -2.09456,2.52001c-0.01637,0.19635 -0.01637,0.22908 -0.01637,0.45817c0.0491,0.54 0.29456,2.94546 2.0291,2.94546z" fill="#ff0000" stroke-width="1"/><path d="M228.375,202.875v-45.75h23.25v45.75z" fill="none" stroke-width="0"/></g></g></svg>