<svg version="1.1" xmlns="http://www.w3.org/2000/svg" xmlns:xlink="http://www.w3.org/1999/xlink" width="17" height="35.33333" viewBox="0,0,17,35.33333"><g transform="translate(-231.50001,-162.33334)"><g data-paper-data="{&quot;isPaintingLayer&quot;:true}" fill-rule="nonzero" stroke="none" stroke-linecap="butt" stroke-linejoin="miter" stroke-miterlimit="10" stroke-dasharray="" stroke-dashoffset="0" style="mix-blend-mode: normal"><path d="M231.50001,197.66667v-35.33333h17v35.33333z" fill="none" stroke-width="0"/><path d="M243.35913,184.41433c-0.85188,1.8393 -2.32331,2.24587 -3.36879,2.24587c-0.94868,0 -2.36205,-0.38722 -3.19456,-1.95546c-0.7938,-1.47145 -0.87125,-3.21394 -0.87125,-4.66602c0,-1.54889 0.09681,-3.05903 0.71636,-4.39495c0.7938,-1.80058 2.20716,-2.30395 3.36881,-2.30395c0.81316,0 2.40076,0.30977 3.29137,2.16843c0.67763,1.43271 0.77443,2.98158 0.77443,4.53047c0,1.52952 -0.09681,3.03969 -0.71636,4.37561zM242.25558,183.81412c0.21297,-1.23911 0.21297,-2.55565 0.21297,-4.00773c0,-1.21974 0,-2.69118 -0.1936,-3.7754c-0.36787,-1.91674 -1.64568,-2.26524 -2.2846,-2.26524c-0.48401,0 -1.9361,0.17426 -2.30395,2.47821c-0.15488,1.0455 -0.15489,2.32332 -0.15489,3.56243c0,1.1423 0,2.92353 0.21297,4.08518c0.34849,1.85867 1.49079,2.34269 2.24587,2.34269c0.87124,0 1.97482,-0.58084 2.26524,-2.42014z" fill="#ff0000" stroke-width="1"/></g></g></svg>