<svg version="1.1" xmlns="http://www.w3.org/2000/svg" xmlns:xlink="http://www.w3.org/1999/xlink" width="23.25" height="45.75" viewBox="0,0,23.25,45.75"><g transform="translate(-228.375,-157.125)"><g data-paper-data="{&quot;isPaintingLayer&quot;:true}" fill-rule="nonzero" stroke="none" stroke-linecap="butt" stroke-linejoin="miter" stroke-miterlimit="10" stroke-dasharray="" stroke-dashoffset="0" style="mix-blend-mode: normal"><path d="M238.51092,178.87091c0.47454,-0.42545 1.09637,-0.67091 1.75091,-0.67091c1.68546,0 3.09273,1.62 3.09273,3.66547c0,2.06182 -1.63637,3.68183 -3.58364,3.68183c-1.32546,0 -2.45454,-0.67092 -3.12545,-1.60365l0.54,-0.91637c0.47455,0.88364 1.47272,1.52183 2.56909,1.52183c0.14727,0 2.14363,0 2.14363,-2.71637c0,-1.96364 -0.88363,-2.63456 -1.65273,-2.63456c-0.94908,0 -1.55454,0.63819 -1.83272,1.29273h-1.08001v-6.0382h5.48182v1.04728h-4.30364z" fill="#ff0000" stroke-width="1"/><path d="M228.375,202.875v-45.75h23.25v45.75z" fill="none" stroke-width="0"/></g></g></svg>