<svg version="1.1" xmlns="http://www.w3.org/2000/svg" xmlns:xlink="http://www.w3.org/1999/xlink" width="110.57889" height="155.02375" viewBox="0,0,110.57889,155.02375"><g transform="translate(-177.21814,-102.356)"><g data-paper-data="{&quot;isPaintingLayer&quot;:true}" fill-rule="nonzero" stroke="none" stroke-linejoin="miter" stroke-miterlimit="10" stroke-dasharray="" stroke-dashoffset="0" style="mix-blend-mode: normal"><path d="M216.10094,223.18985v-15.48323h46.16553v15.48323z" fill="#ffc100" stroke-width="0" stroke-linecap="butt"/><path d="M217.04532,152.61224l43.06491,-0.16219l-19.28496,30.81706l-21.31496,-30.16828" fill="#ffc100" stroke-width="0" stroke-linecap="round"/><path d="M211.2788,215.80453c2.91204,-16.15928 13.97644,-27.9538 18.59861,-32.27043l3.21423,-3.00881l-3.21423,-3.00078c-4.62218,-4.31663 -15.6797,-16.11114 -18.59861,-32.27043c-0.35027,-1.92563 -0.364,-6.00958 1.77882,-9.09862c1.18817,-1.71702 3.48896,-3.76301 7.69219,-3.76301h35.65876c4.18949,0 6.48341,2.03797 7.67845,3.74697c2.64419,3.7951 1.88184,8.56907 1.79255,9.09862c-2.91891,16.17534 -13.97643,27.96985 -18.5986,32.28648l-3.21424,3.0088l3.21424,3.0088c4.62217,4.31663 15.67969,16.11115 18.5986,32.27044c0.09616,0.53758 0.85164,5.31956 -1.79255,9.11467c-1.19504,1.709 -3.48896,3.74697 -7.67845,3.74697h-35.65876c-4.19636,0 -6.49716,-2.04598 -7.69219,-3.76301c-2.14282,-3.09706 -2.12909,-7.18102 -1.77882,-9.10665zM218.00258,143.62532c2.45188,13.59178 12.12205,23.86183 16.16732,27.63287l4.40927,4.13209l4.41614,-4.12407c4.04526,-3.77906 13.70857,-14.04109 16.16732,-27.66496c0.05495,-0.3771 0.07555,-1.74109 -0.41208,-2.41506c-0.48076,-0.66595 -1.67579,-0.77025 -2.34199,-0.77025h-35.65876c-0.66619,0 -1.86123,0.1043 -2.34199,0.77025c-0.48762,0.67397 -0.46702,2.02191 -0.40521,2.43913zM234.16992,189.79241c-4.04526,3.77906 -13.71544,14.04109 -16.16732,27.66496c-0.05494,0.38513 -0.07555,1.7411 0.41208,2.41507c0.48076,0.66595 1.67581,0.77025 2.342,0.77025h35.65876c0.6662,0 1.86123,-0.1043 2.342,-0.77025c0.48076,-0.67397 0.46015,-2.02995 0.40521,-2.44717c-2.45188,-13.58375 -12.12205,-23.85379 -16.16732,-27.62483l-4.41614,-4.13209l-4.40927,4.12407z" fill="#000000" stroke-width="1" stroke-linecap="butt"/><path d="M177.21814,257.37975v-155.02375h110.57889v155.02375z" fill="none" stroke-width="0" stroke-linecap="butt"/></g></g></svg>