<svg version="1.1" xmlns="http://www.w3.org/2000/svg" xmlns:xlink="http://www.w3.org/1999/xlink" width="395.5" height="188.5" viewBox="0,0,395.5,188.5"><g transform="translate(-43.25,-88.9)"><g data-paper-data="{&quot;isPaintingLayer&quot;:true}" fill-rule="nonzero" stroke-linejoin="miter" stroke-miterlimit="10" stroke-dasharray="" stroke-dashoffset="0" style="mix-blend-mode: normal"><path d="M43.25,277.4v-188.5h395.5v188.5z" fill="none" stroke="#005fff" stroke-width="0" stroke-linecap="butt"/><path d="M185.24969,181.98333c0,-2.50234 2.02854,-4.53088 4.53088,-4.53088c2.50234,0 4.53088,2.02854 4.53088,4.53088c0,2.50234 -2.02854,4.53089 -4.53088,4.53089c-2.50234,0 -4.53088,-2.02854 -4.53088,-4.53089z" fill-opacity="0.54118" fill="#0008ff" stroke="#0008ff" stroke-width="0.5" stroke-linecap="butt"/><text transform="translate(212.78561,183.48432) scale(0.29036,0.29036)" font-size="40" xml:space="preserve" fill="#000000" fill-rule="nonzero" stroke-opacity="0" stroke="#000000" stroke-width="0" stroke-linecap="butt" stroke-linejoin="miter" stroke-miterlimit="10" stroke-dasharray="" stroke-dashoffset="0" font-family="&quot;Microsoft YaHei&quot;, &quot;微软雅黑&quot;, STXihei, &quot;华文细黑&quot;" font-weight="normal" text-anchor="start" style="mix-blend-mode: normal"><tspan x="0" dy="0">切换模式</tspan></text><path d="M182.61391,173.5353c0,0 1.09199,16.9541 4.51627,6.10495c2.78506,-8.82395 4.98373,7.56172 4.98373,7.56172" fill="none" stroke="#ff0000" stroke-width="0.5" stroke-linecap="round"/><path d="M94.69443,254.21179v-133h301v133z" fill="none" stroke="none" stroke-width="0" stroke-linecap="butt"/><path d="M177.33334,193v-26h166.33333v26z" fill-opacity="0.00392" fill="#ffffff" stroke="#005fff" stroke-width="0" stroke-linecap="butt"/></g></g></svg>