<svg version="1.1" xmlns="http://www.w3.org/2000/svg" xmlns:xlink="http://www.w3.org/1999/xlink" width="480" height="153.25894" viewBox="0,0,480,153.25894"><g transform="translate(0.0015,-206.74106)"><g data-paper-data="{&quot;isPaintingLayer&quot;:true}" fill-rule="nonzero" stroke-linejoin="miter" stroke-miterlimit="10" stroke-dasharray="" stroke-dashoffset="0" style="mix-blend-mode: normal"><path d="M-0.0015,360v-153.25894h480v153.25894z" fill-opacity="0.72157" fill="#f5efcb" stroke="none" stroke-width="0" stroke-linecap="butt"/><path d="" fill-opacity="0.91765" fill="#fff6d1" stroke="none" stroke-width="1" stroke-linecap="butt"/><path d="" fill-opacity="0.91765" fill="#fff6d1" stroke="none" stroke-width="1" stroke-linecap="butt"/><path d="" fill-opacity="0.91765" fill="#fff6d1" stroke="none" stroke-width="1" stroke-linecap="butt"/><path d="" fill-opacity="0.91765" fill="#fff6d1" stroke="none" stroke-width="1" stroke-linecap="butt"/><path d="" fill-opacity="0.91765" fill="#fff6d1" stroke="none" stroke-width="1" stroke-linecap="butt"/><path d="" fill-opacity="0.91765" fill="#fff6d1" stroke="none" stroke-width="1" stroke-linecap="butt"/><path d="" fill-opacity="0.91765" fill="#fff6d1" stroke="none" stroke-width="1" stroke-linecap="butt"/><g fill="#2197ff" stroke="none"><path d="M17.58704,212.47417l3.30635,3.22244l-1.42848,0.02499l0.03614,6.91935l-3.68011,0.03975l0.05217,-7.00349l-1.44312,-0.00691l2.83047,-2.8655z" stroke-width="0" stroke-linecap="round"/><path d="M13.40694,214.41915c-0.48895,-0.40965 -1.12323,-0.84574 -2.23327,-0.84574c-1.21574,0 -1.92932,0.79289 -1.92932,1.57254c0,0.58144 0.37001,0.96468 0.46251,1.04396c0.39645,0.34358 0.60787,0.39644 1.37432,0.58144c1.21575,0.30394 1.65183,0.42286 2.2729,1.08361c0.29072,0.31715 0.70037,0.95145 0.70037,1.8104c0,1.45362 -1.21573,2.78829 -2.96006,2.78829c-0.83252,0 -1.88969,-0.18501 -3.05258,-0.91182l0.19822,-1.07039c1.11003,0.93824 2.29935,1.07039 2.84114,1.07039c1.20254,0 1.92933,-0.87216 1.92933,-1.74434c0,-0.56823 -0.29072,-1.00431 -0.55501,-1.22896c-0.37002,-0.33036 -0.50216,-0.37002 -1.6254,-0.64753c-0.77967,-0.185 -1.36111,-0.34358 -1.91612,-0.93823c-0.52858,-0.55501 -0.71359,-1.11004 -0.71359,-1.67827c0,-1.30825 1.14967,-2.60329 2.98649,-2.60329c0.96467,0 1.69147,0.22466 2.41828,0.66075z" stroke-width="1" stroke-linecap="butt"/></g><g><path d="M389.43421,353.11947c-6.38671,0 -26.82055,0 -30.94966,0c-1.43613,0 -2.38095,-0.95831 -2.38095,-2.4908c0,-5.38467 0,-17.85811 0,-20.75669c0,-1.17748 0.79545,-2.32476 2.15471,-2.32476c4.08267,0 25.00144,0 31.2298,0c1.11979,0 2.05755,0.87327 2.05755,1.82658c0,2.7465 0,16.26468 0,21.58696c0,1.33855 -0.88864,2.1587 -2.11143,2.1587z" data-paper-data="{&quot;index&quot;:null}" fill="#d0d0d0" stroke="#d0d0d0" stroke-width="0.5" stroke-linecap="butt"/><path d="M395.22553,352.95279c-1.22279,0 -2.11143,-0.82015 -2.11143,-2.1587c0,-5.32228 0,-18.84046 0,-21.58696c0,-0.95331 0.93776,-1.82658 2.05755,-1.82658c6.22836,0 27.14713,0 31.2298,0c1.35926,0 2.15471,1.14728 2.15471,2.32476c0,2.89858 0,15.37202 0,20.75669c0,1.53249 -0.94482,2.4908 -2.38095,2.4908c-4.12911,0 -24.56295,0 -30.94966,0z" data-paper-data="{&quot;index&quot;:null}" fill="#d0d0d0" stroke="#d0d0d0" stroke-width="0.5" stroke-linecap="butt"/><path d="M89.74711,322.9528c-6.38671,0 -26.82055,0 -30.94966,0c-1.43613,0 -2.38095,-0.95831 -2.38095,-2.4908c0,-5.38467 0,-17.85811 0,-20.75669c0,-1.17748 0.79545,-2.32476 2.15471,-2.32476c4.08267,0 25.00144,0 31.2298,0c1.11979,0 2.05755,0.87327 2.05755,1.82658c0,2.7465 0,16.26468 0,21.58696c0,1.33855 -0.88864,2.1587 -2.11143,2.1587z" data-paper-data="{&quot;index&quot;:null}" fill="#d0d0d0" stroke="#d0d0d0" stroke-width="0.5" stroke-linecap="butt"/><path d="M127.47077,323.02727c-6.38671,0 -26.82055,0 -30.94966,0c-1.43613,0 -2.38095,-0.95831 -2.38095,-2.4908c0,-5.38467 0,-17.85811 0,-20.75669c0,-1.17748 0.79545,-2.32476 2.15471,-2.32476c4.08267,0 25.00144,0 31.2298,0c1.11979,0 2.05755,0.87327 2.05755,1.82658c0,2.7465 0,16.26468 0,21.58696c0,1.33855 -0.88864,2.1587 -2.11143,2.1587z" data-paper-data="{&quot;index&quot;:null}" fill-opacity="0.91765" fill="#ffffff" stroke="#d0d0d0" stroke-width="0.5" stroke-linecap="butt"/><path d="M146.22591,293.02727c-6.38671,0 -26.82055,0 -30.94966,0c-1.43613,0 -2.38095,-0.95831 -2.38095,-2.4908c0,-5.38467 0,-17.85811 0,-20.75669c0,-1.17748 0.79545,-2.32476 2.15471,-2.32476c4.08267,0 25.00144,0 31.2298,0c1.11979,0 2.05755,0.87327 2.05755,1.82658c0,2.7465 0,16.26468 0,21.58696c0,1.33855 -0.88864,2.1587 -2.11143,2.1587z" data-paper-data="{&quot;index&quot;:null}" fill-opacity="0.91765" fill="#ffffff" stroke="#d0d0d0" stroke-width="0.5" stroke-linecap="butt"/><path d="M108.78553,293.02727c-6.38671,0 -26.82055,0 -30.94966,0c-1.43613,0 -2.38095,-0.95831 -2.38095,-2.4908c0,-5.38467 0,-17.85811 0,-20.75669c0,-1.17748 0.79545,-2.32476 2.15471,-2.32476c4.08267,0 25.00144,0 31.2298,0c1.11979,0 2.05755,0.87327 2.05755,1.82658c0,2.7465 0,16.26468 0,21.58696c0,1.33855 -0.88864,2.1587 -2.11143,2.1587z" data-paper-data="{&quot;index&quot;:null}" fill-opacity="0.91765" fill="#ffffff" stroke="#d0d0d0" stroke-width="0.5" stroke-linecap="butt"/><path d="M202.12038,263.02725c-6.38671,0 -26.82055,0 -30.94966,0c-1.43613,0 -2.38095,-0.95831 -2.38095,-2.4908c0,-5.38467 0,-17.85811 0,-20.75669c0,-1.17748 0.79545,-2.32476 2.15471,-2.32476c4.08267,0 25.00144,0 31.2298,0c1.11979,0 2.05755,0.87327 2.05755,1.82658c0,2.7465 0,16.26468 0,21.58696c0,1.33855 -0.88864,2.1587 -2.11143,2.1587z" data-paper-data="{&quot;index&quot;:null}" fill-opacity="0.91765" fill="#ffffff" stroke="#d0d0d0" stroke-width="0.5" stroke-linecap="butt"/><path d="M164.68,263.0272c-6.38671,0 -26.82055,0 -30.94966,0c-1.43613,0 -2.38095,-0.95831 -2.38095,-2.4908c0,-5.38467 0,-17.85811 0,-20.75669c0,-1.17748 0.79545,-2.32476 2.15471,-2.32476c4.08267,0 25.00144,0 31.2298,0c1.11979,0 2.05755,0.87327 2.05755,1.82658c0,2.7465 0,16.26468 0,21.58696c0,1.33855 -0.88864,2.1587 -2.11143,2.1587z" data-paper-data="{&quot;index&quot;:null}" fill-opacity="0.91765" fill="#ffffff" stroke="#d0d0d0" stroke-width="0.5" stroke-linecap="butt"/><path d="M276.8545,263.02727c-6.38671,0 -26.82055,0 -30.94966,0c-1.43613,0 -2.38095,-0.95831 -2.38095,-2.4908c0,-5.38467 0,-17.85811 0,-20.75669c0,-1.17748 0.79545,-2.32476 2.15471,-2.32476c4.08267,0 25.00144,0 31.2298,0c1.11979,0 2.05755,0.87327 2.05755,1.82658c0,2.7465 0,16.26468 0,21.58696c0,1.33855 -0.88864,2.1587 -2.11143,2.1587z" data-paper-data="{&quot;index&quot;:null}" fill-opacity="0.91765" fill="#ffffff" stroke="#d0d0d0" stroke-width="0.5" stroke-linecap="butt"/><path d="M239.41411,263.02725c-6.38671,0 -26.82055,0 -30.94966,0c-1.43613,0 -2.38095,-0.95831 -2.38095,-2.4908c0,-5.38467 0,-17.85811 0,-20.75669c0,-1.17748 0.79545,-2.32476 2.15471,-2.32476c4.08267,0 25.00144,0 31.2298,0c1.11979,0 2.05755,0.87327 2.05755,1.82658c0,2.7465 0,16.26468 0,21.58696c0,1.33855 -0.88864,2.1587 -2.11143,2.1587z" data-paper-data="{&quot;index&quot;:null}" fill-opacity="0.91765" fill="#ffffff" stroke="#d0d0d0" stroke-width="0.5" stroke-linecap="butt"/><path d="M351.71059,263.02727c-6.38671,0 -26.82055,0 -30.94966,0c-1.43613,0 -2.38095,-0.95831 -2.38095,-2.4908c0,-5.38467 0,-17.85811 0,-20.75669c0,-1.17748 0.79545,-2.32476 2.15471,-2.32476c4.08267,0 25.00144,0 31.2298,0c1.11979,0 2.05755,0.87327 2.05755,1.82658c0,2.7465 0,16.26468 0,21.58696c0,1.33855 -0.88864,2.1587 -2.11143,2.1587z" data-paper-data="{&quot;index&quot;:null}" fill-opacity="0.91765" fill="#ffffff" stroke="#d0d0d0" stroke-width="0.5" stroke-linecap="butt"/><path d="M314.27021,263.02725c-6.38671,0 -26.82055,0 -30.94966,0c-1.43613,0 -2.38095,-0.95831 -2.38095,-2.4908c0,-5.38467 0,-17.85811 0,-20.75669c0,-1.17748 0.79545,-2.32476 2.15471,-2.32476c4.08267,0 25.00144,0 31.2298,0c1.11979,0 2.05755,0.87327 2.05755,1.82658c0,2.7465 0,16.26468 0,21.58696c0,1.33855 -0.88864,2.1587 -2.11143,2.1587z" data-paper-data="{&quot;index&quot;:null}" fill-opacity="0.91765" fill="#ffffff" stroke="#d0d0d0" stroke-width="0.5" stroke-linecap="butt"/><path d="M426.44471,263.02727c-6.38671,0 -26.82055,0 -30.94966,0c-1.43613,0 -2.38095,-0.95831 -2.38095,-2.4908c0,-5.38467 0,-17.85811 0,-20.75669c0,-1.17748 0.79545,-2.32476 2.15471,-2.32476c4.08267,0 25.00144,0 31.2298,0c1.11979,0 2.05755,0.87327 2.05755,1.82658c0,2.7465 0,16.26468 0,21.58696c0,1.33855 -0.88864,2.1587 -2.11143,2.1587z" data-paper-data="{&quot;index&quot;:null}" fill-opacity="0.91765" fill="#ffffff" stroke="#d0d0d0" stroke-width="0.5" stroke-linecap="butt"/><path d="M389.00432,263.02725c-6.38671,0 -26.82055,0 -30.94966,0c-1.43613,0 -2.38095,-0.95831 -2.38095,-2.4908c0,-5.38467 0,-17.85811 0,-20.75669c0,-1.17748 0.79545,-2.32476 2.15471,-2.32476c4.08267,0 25.00144,0 31.2298,0c1.11979,0 2.05755,0.87327 2.05755,1.82658c0,2.7465 0,16.26468 0,21.58696c0,1.33855 -0.88864,2.1587 -2.11143,2.1587z" data-paper-data="{&quot;index&quot;:null}" fill-opacity="0.91765" fill="#ffffff" stroke="#d0d0d0" stroke-width="0.5" stroke-linecap="butt"/><path d="M127.18753,263.02727c-6.38671,0 -26.82055,0 -30.94966,0c-1.43613,0 -2.38095,-0.95831 -2.38095,-2.4908c0,-5.38467 0,-17.85811 0,-20.75669c0,-1.17748 0.79545,-2.32476 2.15471,-2.32476c4.08267,0 25.00144,0 31.2298,0c1.11979,0 2.05755,0.87327 2.05755,1.82658c0,2.7465 0,16.26468 0,21.58696c0,1.33855 -0.88864,2.1587 -2.11143,2.1587z" data-paper-data="{&quot;index&quot;:null}" fill-opacity="0.91765" fill="#ffffff" stroke="#d0d0d0" stroke-width="0.5" stroke-linecap="butt"/><path d="M89.74715,263.02727c-6.38671,0 -26.82055,0 -30.94966,0c-1.43613,0 -2.38095,-0.95831 -2.38095,-2.4908c0,-5.38467 0,-17.85811 0,-20.75669c0,-1.17748 0.79545,-2.32476 2.15471,-2.32476c4.08267,0 25.00144,0 31.2298,0c1.11979,0 2.05755,0.87327 2.05755,1.82658c0,2.7465 0,16.26468 0,21.58696c0,1.33855 -0.88864,2.1587 -2.11143,2.1587z" data-paper-data="{&quot;index&quot;:null}" fill-opacity="0.91765" fill="#ffffff" stroke="#d0d0d0" stroke-width="0.5" stroke-linecap="butt"/><path d="M221.15876,293.02725c-6.38671,0 -26.82055,0 -30.94966,0c-1.43613,0 -2.38095,-0.95831 -2.38095,-2.4908c0,-5.38467 0,-17.85811 0,-20.75669c0,-1.17748 0.79545,-2.32476 2.15471,-2.32476c4.08267,0 25.00144,0 31.2298,0c1.11979,0 2.05755,0.87327 2.05755,1.82658c0,2.7465 0,16.26468 0,21.58696c0,1.33855 -0.88864,2.1587 -2.11143,2.1587z" data-paper-data="{&quot;index&quot;:null}" fill-opacity="0.91765" fill="#ffffff" stroke="#d0d0d0" stroke-width="0.5" stroke-linecap="butt"/><path d="M183.71838,293.0272c-6.38671,0 -26.82055,0 -30.94966,0c-1.43613,0 -2.38095,-0.95831 -2.38095,-2.4908c0,-5.38467 0,-17.85811 0,-20.75669c0,-1.17748 0.79545,-2.32476 2.15471,-2.32476c4.08267,0 25.00144,0 31.2298,0c1.11979,0 2.05755,0.87327 2.05755,1.82658c0,2.7465 0,16.26468 0,21.58696c0,1.33855 -0.88864,2.1587 -2.11143,2.1587z" data-paper-data="{&quot;index&quot;:null}" fill-opacity="0.91765" fill="#ffffff" stroke="#d0d0d0" stroke-width="0.5" stroke-linecap="butt"/><path d="M295.89287,293.02727c-6.38671,0 -26.82055,0 -30.94966,0c-1.43613,0 -2.38095,-0.95831 -2.38095,-2.4908c0,-5.38467 0,-17.85811 0,-20.75669c0,-1.17748 0.79545,-2.32476 2.15471,-2.32476c4.08267,0 25.00144,0 31.2298,0c1.11979,0 2.05755,0.87327 2.05755,1.82658c0,2.7465 0,16.26468 0,21.58696c0,1.33855 -0.88864,2.1587 -2.11143,2.1587z" data-paper-data="{&quot;index&quot;:null}" fill-opacity="0.91765" fill="#ffffff" stroke="#d0d0d0" stroke-width="0.5" stroke-linecap="butt"/><path d="M258.45249,293.02725c-6.38671,0 -26.82055,0 -30.94966,0c-1.43613,0 -2.38095,-0.95831 -2.38095,-2.4908c0,-5.38467 0,-17.85811 0,-20.75669c0,-1.17748 0.79545,-2.32476 2.15471,-2.32476c4.08267,0 25.00144,0 31.2298,0c1.11979,0 2.05755,0.87327 2.05755,1.82658c0,2.7465 0,16.26468 0,21.58696c0,1.33855 -0.88864,2.1587 -2.11143,2.1587z" data-paper-data="{&quot;index&quot;:null}" fill-opacity="0.91765" fill="#ffffff" stroke="#d0d0d0" stroke-width="0.5" stroke-linecap="butt"/><path d="M370.74897,293.02727c-6.38671,0 -26.82055,0 -30.94966,0c-1.43613,0 -2.38095,-0.95831 -2.38095,-2.4908c0,-5.38467 0,-17.85811 0,-20.75669c0,-1.17748 0.79545,-2.32476 2.15471,-2.32476c4.08267,0 25.00144,0 31.2298,0c1.11979,0 2.05755,0.87327 2.05755,1.82658c0,2.7465 0,16.26468 0,21.58696c0,1.33855 -0.88864,2.1587 -2.11143,2.1587z" data-paper-data="{&quot;index&quot;:null}" fill-opacity="0.91765" fill="#ffffff" stroke="#d0d0d0" stroke-width="0.5" stroke-linecap="butt"/><path d="M333.30859,293.02725c-6.38671,0 -26.82055,0 -30.94966,0c-1.43613,0 -2.38095,-0.95831 -2.38095,-2.4908c0,-5.38467 0,-17.85811 0,-20.75669c0,-1.17748 0.79545,-2.32476 2.15471,-2.32476c4.08267,0 25.00144,0 31.2298,0c1.11979,0 2.05755,0.87327 2.05755,1.82658c0,2.7465 0,16.26468 0,21.58696c0,1.33855 -0.88864,2.1587 -2.11143,2.1587z" data-paper-data="{&quot;index&quot;:null}" fill-opacity="0.91765" fill="#ffffff" stroke="#d0d0d0" stroke-width="0.5" stroke-linecap="butt"/><path d="M408.0427,293.02725c-6.38671,0 -26.82055,0 -30.94966,0c-1.43613,0 -2.38095,-0.95831 -2.38095,-2.4908c0,-5.38467 0,-17.85811 0,-20.75669c0,-1.17748 0.79545,-2.32476 2.15471,-2.32476c4.08267,0 25.00144,0 31.2298,0c1.11979,0 2.05755,0.87327 2.05755,1.82658c0,2.7465 0,16.26468 0,21.58696c0,1.33855 -0.88864,2.1587 -2.11143,2.1587z" data-paper-data="{&quot;index&quot;:null}" fill-opacity="0.91765" fill="#ffffff" stroke="#d0d0d0" stroke-width="0.5" stroke-linecap="butt"/><path d="M164.91115,323.02727c-6.38671,0 -26.82055,0 -30.94966,0c-1.43613,0 -2.38095,-0.95831 -2.38095,-2.4908c0,-5.38467 0,-17.85811 0,-20.75669c0,-1.17748 0.79545,-2.32476 2.15471,-2.32476c4.08267,0 25.00144,0 31.2298,0c1.11979,0 2.05755,0.87327 2.05755,1.82658c0,2.7465 0,16.26468 0,21.58696c0,1.33855 -0.88864,2.1587 -2.11143,2.1587z" data-paper-data="{&quot;index&quot;:null}" fill-opacity="0.91765" fill="#ffffff" stroke="#d0d0d0" stroke-width="0.5" stroke-linecap="butt"/><path d="M239.844,323.02725c-6.38671,0 -26.82055,0 -30.94966,0c-1.43613,0 -2.38095,-0.95831 -2.38095,-2.4908c0,-5.38467 0,-17.85811 0,-20.75669c0,-1.17748 0.79545,-2.32476 2.15471,-2.32476c4.08267,0 25.00144,0 31.2298,0c1.11979,0 2.05755,0.87327 2.05755,1.82658c0,2.7465 0,16.26468 0,21.58696c0,1.33855 -0.88864,2.1587 -2.11143,2.1587z" data-paper-data="{&quot;index&quot;:null}" fill-opacity="0.91765" fill="#ffffff" stroke="#d0d0d0" stroke-width="0.5" stroke-linecap="butt"/><path d="M202.40362,323.0272c-6.38671,0 -26.82055,0 -30.94966,0c-1.43613,0 -2.38095,-0.95831 -2.38095,-2.4908c0,-5.38467 0,-17.85811 0,-20.75669c0,-1.17748 0.79545,-2.32476 2.15471,-2.32476c4.08267,0 25.00144,0 31.2298,0c1.11979,0 2.05755,0.87327 2.05755,1.82658c0,2.7465 0,16.26468 0,21.58696c0,1.33855 -0.88864,2.1587 -2.11143,2.1587z" data-paper-data="{&quot;index&quot;:null}" fill-opacity="0.91765" fill="#ffffff" stroke="#d0d0d0" stroke-width="0.5" stroke-linecap="butt"/><path d="M314.57812,323.02727c-6.38671,0 -26.82055,0 -30.94966,0c-1.43613,0 -2.38095,-0.95831 -2.38095,-2.4908c0,-5.38467 0,-17.85811 0,-20.75669c0,-1.17748 0.79545,-2.32476 2.15471,-2.32476c4.08267,0 25.00144,0 31.2298,0c1.11979,0 2.05755,0.87327 2.05755,1.82658c0,2.7465 0,16.26468 0,21.58696c0,1.33855 -0.88864,2.1587 -2.11143,2.1587z" data-paper-data="{&quot;index&quot;:null}" fill-opacity="0.91765" fill="#ffffff" stroke="#d0d0d0" stroke-width="0.5" stroke-linecap="butt"/><path d="M277.13773,323.02725c-6.38671,0 -26.82055,0 -30.94966,0c-1.43613,0 -2.38095,-0.95831 -2.38095,-2.4908c0,-5.38467 0,-17.85811 0,-20.75669c0,-1.17748 0.79545,-2.32476 2.15471,-2.32476c4.08267,0 25.00144,0 31.2298,0c1.11979,0 2.05755,0.87327 2.05755,1.82658c0,2.7465 0,16.26468 0,21.58696c0,1.33855 -0.88864,2.1587 -2.11143,2.1587z" data-paper-data="{&quot;index&quot;:null}" fill-opacity="0.91765" fill="#ffffff" stroke="#d0d0d0" stroke-width="0.5" stroke-linecap="butt"/><path d="M389.43421,323.02727c-6.38671,0 -26.82055,0 -30.94966,0c-1.43613,0 -2.38095,-0.95831 -2.38095,-2.4908c0,-5.38467 0,-17.85811 0,-20.75669c0,-1.17748 0.79545,-2.32476 2.15471,-2.32476c4.08267,0 25.00144,0 31.2298,0c1.11979,0 2.05755,0.87327 2.05755,1.82658c0,2.7465 0,16.26468 0,21.58696c0,1.33855 -0.88864,2.1587 -2.11143,2.1587z" data-paper-data="{&quot;index&quot;:null}" fill-opacity="0.91765" fill="#ffffff" stroke="#d0d0d0" stroke-width="0.5" stroke-linecap="butt"/><path d="M351.99383,323.02725c-6.38671,0 -26.82055,0 -30.94966,0c-1.43613,0 -2.38095,-0.95831 -2.38095,-2.4908c0,-5.38467 0,-17.85811 0,-20.75669c0,-1.17748 0.79545,-2.32476 2.15471,-2.32476c4.08267,0 25.00144,0 31.2298,0c1.11979,0 2.05755,0.87327 2.05755,1.82658c0,2.7465 0,16.26468 0,21.58696c0,1.33855 -0.88864,2.1587 -2.11143,2.1587z" data-paper-data="{&quot;index&quot;:null}" fill-opacity="0.91765" fill="#ffffff" stroke="#d0d0d0" stroke-width="0.5" stroke-linecap="butt"/><g fill="none" stroke="#000000" stroke-width="0.5" stroke-linecap="round"><path d="M79.06737,310.25876h-9.33333"/><path d="M72.92198,313.09525l-3.71429,-2.87332l3.85714,-2.98383"/></g><path d="M395.22553,322.95279c-1.22279,0 -2.11143,-0.82015 -2.11143,-2.1587c0,-5.32228 0,-18.84046 0,-21.58696c0,-0.95331 0.93776,-1.82658 2.05755,-1.82658c6.22836,0 27.14713,0 31.2298,0c1.35926,0 2.15471,1.14728 2.15471,2.32476c0,2.89858 0,15.37202 0,20.75669c0,1.53249 -0.94482,2.4908 -2.38095,2.4908c-4.12911,0 -24.56295,0 -30.94966,0z" data-paper-data="{&quot;index&quot;:null}" fill="#d0d0d0" stroke="#d0d0d0" stroke-width="0.5" stroke-linecap="butt"/><g data-paper-data="{&quot;index&quot;:null}" fill="none" stroke="#000000" stroke-width="0.5" stroke-linecap="round"><path d="M415.23862,310.25876h-9.33333"/><path d="M411.90783,307.2381l3.85714,2.98383l-3.71429,2.87332"/></g><g fill="none" stroke="#000000" stroke-width="0.75" stroke-linecap="round"><path d="M408.35957,345.04289l-3.73443,-3.60892l3.83536,-3.38052"/><path d="M417.04512,335.29046c0,0 0,2.69952 0,3.83142c0,0.36556 0,0.83401 0,1.26163c0,0.62608 -0.84448,1.16463 -1.62316,1.16463c-1.99837,0 -10.69036,0 -10.69036,0"/></g><g><path d="M365.90678,340.41848l5.10829,-5.10829h10.72741v10.0463h-10.89769l-4.42718,-4.42718z" fill="none" stroke="#000000" stroke-width="0.5" stroke-linecap="round"/><path d="M377.91432,337.61057c0.13253,-0.13253 0.18072,-0.18072 0.27709,-0.18072c0.14457,0 0.24094,0.10843 0.24094,0.24095c0,0.08433 -0.04818,0.13253 -0.06023,0.15663c-0.06023,0.07229 -0.24095,0.22891 -0.30119,0.3012l-2.20474,2.20473c0.60238,0.61444 2.51798,2.50593 2.53003,2.53003c0.03614,0.06023 0.03613,0.10843 0.03613,0.13252c0,0.13253 -0.09638,0.24096 -0.24094,0.24096c-0.07229,0 -0.15662,-0.06023 -0.18072,-0.07229l-2.49388,-2.49388l-2.39749,2.39751c-0.14457,0.14458 -0.16867,0.16867 -0.26506,0.16867c-0.12048,0 -0.24094,-0.10843 -0.24094,-0.24096c0,-0.08433 0.0241,-0.10843 0.15662,-0.24095l2.40954,-2.4216l-2.40954,-2.42159c-0.13253,-0.13253 -0.15662,-0.15663 -0.15662,-0.24096c0,-0.13253 0.12048,-0.24095 0.24094,-0.24095c0.09638,0 0.12049,0.0241 0.26506,0.16867l2.40954,2.39751z" fill="#000000" stroke="none" stroke-width="1" stroke-linecap="butt"/></g><g data-paper-data="{&quot;index&quot;:null}" stroke-linecap="butt"><path d="M58.52797,352.98638c-1.22279,0 -2.11143,-0.82015 -2.11143,-2.1587c0,-5.32228 0,-18.84046 0,-21.58696c0,-0.95331 0.93776,-1.82658 2.05755,-1.82658c6.22836,0 27.14713,0 31.2298,0c1.35926,0 2.15471,1.14728 2.15471,2.32476c0,2.89858 0,15.37202 0,20.75669c0,1.53249 -0.94482,2.4908 -2.38095,2.4908c-4.12911,0 -24.56295,0 -30.94966,0z" data-paper-data="{&quot;index&quot;:null}" fill-opacity="0.91765" fill="#d1e4ff" stroke="#d0d0d0" stroke-width="0.5"/><g fill="#000000" stroke="none" stroke-width="1"><path d="M74.12595,334.66557l0.67208,0.61154l4.63491,4.39008c0.25493,0.24026 0.30128,0.28394 0.30128,0.43683c0,0.24026 -0.23173,0.43683 -0.46347,0.43683c-0.18541,0 -0.23177,-0.04369 -0.50986,-0.30578l-4.61172,-4.34642l-4.79715,4.52113c-0.04634,0.02184 -0.20856,0.13105 -0.34762,0.13105c-0.27808,0 -0.46347,-0.19659 -0.46347,-0.43683c0,-0.04367 0,-0.13103 0.06952,-0.24024c0.02316,-0.04367 3.70792,-3.47274 4.86665,-4.58665z"/><path d="M69.08949,344.40162c-0.23998,0 -0.54857,-0.00002 -0.54857,-0.42096c0,-0.44434 0.29145,-0.44434 0.54857,-0.44434h10.09621c0.23997,0 0.54852,0 0.54852,0.42094c0,0.44434 -0.29141,0.44434 -0.54852,0.44434z"/></g></g><g><path d="M97.0127,352.88628c-1.66357,0 -2.87254,-0.82015 -2.87254,-2.1587c0,-5.32228 0,-18.84046 0,-21.58696c0,-0.95331 1.27579,-1.82658 2.79923,-1.82658c8.47349,0 248.71259,0 254.26694,0c1.84923,0 2.93142,1.14728 2.93142,2.32476c0,2.89858 0,15.37202 0,20.75669c0,1.53249 -1.2854,2.4908 -3.23921,2.4908c-5.61753,0 -253.88585,-0.00001 -253.88585,-0.00001z" data-paper-data="{&quot;index&quot;:null}" fill-opacity="0.91765" fill="#ffffff" stroke="#d0d0d0" stroke-width="0.5" stroke-linecap="butt"/><path d="M237.13896,339.10016v4h-26v-4" fill="none" stroke="#000000" stroke-width="1" stroke-linecap="round"/></g><path d="M95.60595,274.67749c0.09819,-0.18 0.16365,-0.29456 0.42546,-0.29456c0.26181,0 0.27817,0.0491 0.29454,0.4091l0.70363,10.24366c0.03273,0.42546 0.08182,0.55637 0.93273,0.55637c0.26182,0 0.39273,0 0.39273,0.21273c0,0.29455 -0.19636,0.29455 -0.29454,0.29455c-0.55636,0 -1.14546,-0.04909 -1.71819,-0.04909c-0.62181,0 -1.27636,0.04909 -1.88181,0.04909c-0.04909,0 -0.24546,0 -0.24546,-0.19636c0,-0.31091 0.19636,-0.31091 0.37636,-0.31091c0.70363,0 1.09636,-0.19636 1.09636,-0.52364l-0.18,-2.71637h-3.7309l-1.17819,2.06182c-0.14727,0.27819 -0.22909,0.47455 -0.22909,0.62183c0,0.50727 0.58909,0.54 0.68728,0.55637c0.1309,0.01636 0.26181,0.01636 0.26181,0.19636c0,0.31091 -0.21273,0.31091 -0.29454,0.31091c-0.49092,0 -1.01455,-0.04909 -1.52182,-0.04909c-0.42544,0 -0.9,0.04909 -1.30909,0.04909c-0.18,0 -0.19636,-0.14727 -0.19636,-0.19636c0,-0.01636 0.01636,-0.29455 0.19636,-0.31091c0.57272,-0.03273 1.27636,-0.09818 1.97999,-1.34183zM92.05505,281.84478h3.42l-0.37636,-5.35092z" fill="#000000" stroke="none" stroke-width="1" stroke-linecap="butt"/><path d="M260.27635,309.8402h2.15998c1.86546,0 3.12546,-1.66909 3.12546,-3.06001c0,-0.50727 -0.16363,-1.62 -1.53817,-1.62h-1.93092c-0.54,0 -0.65454,0 -0.80181,0.5891zM266.06906,312.24567c0,1.70182 -1.88181,3.58365 -4.20544,3.58365h-5.4c-0.26182,0 -0.40909,0 -0.40909,-0.19636c0,-0.31091 0.18,-0.31091 0.44182,-0.31091c1.11271,0 1.2109,-0.13091 1.34181,-0.68727l2.20909,-8.88548c0.06544,-0.2291 0.06544,-0.26181 0.06544,-0.31091c0,-0.27819 -0.44181,-0.27819 -0.94908,-0.27819c-0.31092,0 -0.44182,0 -0.44182,-0.19635c0,-0.31092 0.18,-0.31092 0.44182,-0.31092h5.08908c1.78363,0 2.74909,1.04727 2.74909,2.22547c0,1.26 -1.2109,2.66728 -3.20727,3.1091c1.17817,0.14727 2.27454,0.9 2.27454,2.25818zM264.61268,312.03294c0,-0.42545 -0.09817,-1.83274 -1.62,-1.83274h-2.81454l-1.14546,4.5982c-0.01635,0.09818 -0.06544,0.26182 -0.06544,0.36c0,0.11455 0,0.16364 0.50727,0.16364h2.02909c1.8,0 3.10908,-1.70183 3.10908,-3.2891z" fill="#000000" stroke="none" stroke-width="1" stroke-linecap="butt"/><path d="M191.1795,308.66199c-0.06546,0.27818 -0.11455,0.29454 -0.29455,0.29454c-0.08181,0 -0.24544,0 -0.24544,-0.16364c0,-0.0491 0.08181,-0.57273 0.08181,-0.99818c0,-1.42364 -0.58908,-2.99456 -2.32363,-2.99456c-1.26,0 -2.76544,0.75273 -3.87817,2.2582c-1.30909,1.80001 -1.71819,4.36911 -1.71819,5.38365c0,2.32364 1.44,3.24001 2.81455,3.24001c1.35817,0 3.40363,-1.04728 4.23817,-3.81274c0.04909,-0.13091 0.16363,-0.13091 0.26182,-0.13091c0.08181,0 0.24544,0 0.24544,0.16364c0,0.78546 -1.78363,4.28728 -4.97454,4.28728c-2.25817,0 -4.00909,-1.68546 -4.00909,-4.36911c0,-3.84546 3.51819,-7.52729 6.88909,-7.52729c0.81817,0 1.76727,0.26183 2.4709,1.39092l1.0309,-1.21092c0.14728,-0.18 0.22909,-0.18 0.26182,-0.18c0.16363,0 0.18,0.13092 0.18,0.16364c0,0.06546 -0.01636,0.16364 -0.03273,0.2291z" fill="#000000" stroke="none" stroke-width="1" stroke-linecap="butt"/><path d="M166.27608,275.74924c0.06546,-0.2291 0.06546,-0.26181 0.06546,-0.31091c0,-0.27819 -0.44182,-0.27819 -0.94909,-0.27819c-0.3109,0 -0.44182,0 -0.44182,-0.19635c0,-0.31092 0.18,-0.31092 0.44182,-0.31092h5.10544c2.11092,0 3.43636,1.6691 3.43636,4.00911c0,3.68182 -3.12544,7.16729 -6.21817,7.16729h-5.02363c-0.26182,0 -0.40909,0 -0.40909,-0.19636c0,-0.31091 0.18,-0.31091 0.44182,-0.31091c1.11273,0 1.21091,-0.13091 1.34181,-0.68727zM165.31062,284.79836c-0.01636,0.09818 -0.06544,0.26182 -0.06544,0.36c0,0.11455 0,0.16364 0.50727,0.16364h1.68546c1.30908,0 2.4709,-0.68727 3.27271,-1.62c1.39092,-1.63637 1.86546,-4.69638 1.86546,-5.66184c0,-2.14364 -1.29273,-2.88001 -2.61819,-2.88001h-1.58727c-0.54,0 -0.65454,0.01637 -0.80181,0.5891z" fill="#000000" stroke="none" stroke-width="1" stroke-linecap="butt"/><path d="M152.20631,255.54291c-0.11455,0.24545 -0.1309,0.26182 -0.45819,0.26182h-7.83817c-0.26182,0 -0.40909,0 -0.40909,-0.19636c0,-0.31091 0.18,-0.31091 0.44182,-0.31091c1.11273,0 1.21091,-0.13091 1.34181,-0.68727l2.19273,-8.77093c0.06546,-0.24546 0.06546,-0.36 0.06546,-0.37637c0,-0.14729 0,-0.27819 -0.94909,-0.27819c-0.32727,0 -0.44181,0 -0.44181,-0.21273c0,-0.29454 0.16363,-0.29454 0.44181,-0.29454h7.64182c0.34363,0 0.44181,0 0.39271,0.42546l-0.37636,2.89637c-0.03271,0.29454 -0.04908,0.36 -0.27817,0.36c-0.06546,0 -0.24546,0 -0.24546,-0.19637c0,-0.0491 0.01636,-0.19637 0.03273,-0.27819c0.04909,-0.39273 0.08182,-0.60545 0.08182,-1.04727c0,-1.16183 -0.40909,-1.65274 -2.17636,-1.65274h-2.04546c-0.54,0 -0.65454,0.01637 -0.78544,0.55637l-0.99819,4.02547h1.32546c1.32544,0 1.63636,-0.36 1.94727,-1.52183c0.09817,-0.34364 0.09817,-0.39273 0.3109,-0.39273c0.06546,0 0.26182,0 0.26182,0.19637c0,0.03273 -0.03273,0.16364 -0.04909,0.21273l-0.9,3.60001c-0.06546,0.29454 -0.11454,0.32727 -0.29454,0.32727c-0.09819,0 -0.26182,0 -0.26182,-0.19637c0,-0.04908 0.03273,-0.14727 0.03273,-0.18c0.1309,-0.47454 0.14727,-0.72 0.14727,-0.83454c0,-0.44183 -0.11454,-0.70364 -1.22727,-0.70364h-1.42363l-1.12909,4.50001c-0.01636,0.09818 -0.06544,0.26182 -0.06544,0.36c0,0.11455 0,0.16364 0.50727,0.16364h1.99636c2.60181,0 3.17454,-1.06364 4.12363,-3.32183c0.14727,-0.37637 0.16363,-0.39272 0.34363,-0.39272c0.04908,0 0.24544,0 0.24544,0.18c0,0.01635 -0.04908,0.16364 -0.06544,0.19635z" fill="#000000" stroke="none" stroke-width="1" stroke-linecap="butt"/><path d="M203.20326,284.61023c-0.06546,0.24545 -0.06546,0.27818 -0.06546,0.34364c0,0.21273 0,0.34364 1.19455,0.34364h0.16363c0.26181,0 0.40908,0 0.40908,0.19636c0,0.31091 -0.19635,0.31091 -0.34363,0.31091c-0.73636,0 -1.50544,-0.04909 -2.25817,-0.04909c-0.65454,0 -1.34182,0.04909 -1.99636,0.04909c-0.04909,0 -0.22909,0 -0.22909,-0.19636c0,-0.31091 0.18,-0.31091 0.44182,-0.31091c1.11273,0 1.21091,-0.13091 1.34181,-0.68727l2.19273,-8.77093c0.06546,-0.24546 0.06546,-0.36 0.06546,-0.37637c0,-0.14729 0,-0.27819 -0.94909,-0.27819c-0.32727,0 -0.44181,0 -0.44181,-0.21273c0,-0.29454 0.16363,-0.29454 0.44181,-0.29454h7.44545c0.34363,0 0.44181,0 0.39271,0.42546l-0.37635,2.89637c-0.03273,0.29454 -0.04909,0.36 -0.27819,0.36c-0.06546,0 -0.24546,0 -0.24546,-0.19637l0.01636,-0.26183c0.04909,-0.37637 0.09819,-0.68727 0.09819,-1.08c0,-1.1291 -0.36,-1.63637 -2.1109,-1.63637h-1.91455c-0.54,0 -0.65454,0.01637 -0.78544,0.55637l-1.04728,4.23819h1.27636c1.35819,0 1.62,-0.40908 1.91455,-1.57091c0.08181,-0.29454 0.09817,-0.34364 0.3109,-0.34364c0.04909,0 0.24546,0 0.24546,0.18c0,0.08183 -0.01636,0.16364 -0.03273,0.2291l-0.9,3.60001c-0.08182,0.31091 -0.13092,0.32727 -0.31092,0.32727c-0.06544,0 -0.24544,0 -0.24544,-0.19637c0,-0.0491 0.01636,-0.11454 0.04909,-0.2291c0.06544,-0.26181 0.1309,-0.52364 0.1309,-0.80181c0,-0.44183 -0.14727,-0.68727 -1.2109,-0.68727h-1.35819z" fill="#000000" stroke="none" stroke-width="1" stroke-linecap="butt"/><path d="M245.51018,285.53478c-0.04908,0.18 -0.08181,0.27818 -0.19636,0.27818c-0.18,0 -0.54,-0.58909 -0.68727,-0.98182c-0.47454,0.60546 -1.66909,1.35819 -3.17454,1.35819c-2.32363,0 -4.02546,-1.73455 -4.02546,-4.36911c0,-3.84546 3.51819,-7.52729 6.88909,-7.52729c0.81817,0 1.76727,0.26183 2.4709,1.39092l1.0309,-1.21092c0.14728,-0.18 0.22909,-0.18 0.26182,-0.18c0.16363,0 0.18,0.13092 0.18,0.16364c0,0.06546 -0.01636,0.16364 -0.03273,0.2291l-0.99817,3.97638c-0.06546,0.27818 -0.11455,0.29454 -0.29455,0.29454c-0.08181,0 -0.24544,0 -0.24544,-0.16364c0,-0.0491 0.08181,-0.57273 0.08181,-0.99818c0,-1.42364 -0.58908,-2.99456 -2.32363,-2.99456c-1.26,0 -2.76544,0.75273 -3.87817,2.2582c-1.32546,1.81637 -1.71819,4.41819 -1.71819,5.36729c0,2.17637 1.34182,3.25637 2.89636,3.25637c0.62182,0 1.52182,-0.19636 2.22546,-0.83455c0.4909,-0.45818 0.52363,-0.63818 0.88363,-2.09455c0.1309,-0.45818 0.1309,-0.49091 0.1309,-0.55637c0,-0.22908 -0.1309,-0.24545 -0.47454,-0.29454c-0.21273,-0.01637 -0.4909,-0.03273 -0.70363,-0.03273h-0.13092c-0.24544,0 -0.42544,0 -0.42544,-0.18c0,-0.32727 0.21273,-0.32727 0.34363,-0.32727c0.70363,0 1.44,0.0491 2.14363,0.0491c0.52363,0 1.08,-0.0491 1.58727,-0.0491c0.14727,0 0.21273,0.08181 0.21273,0.21273c0,0.29454 -0.18,0.29454 -0.39273,0.29454c-0.72,0 -0.75273,0.16364 -0.8509,0.54z" fill="#000000" stroke="none" stroke-width="1" stroke-linecap="butt"/><path d="M282.7542,284.66751c-0.06546,0.24545 -0.06546,0.36 -0.06546,0.37636c0,0.14727 0,0.27818 0.94909,0.27818c0.32727,0 0.44181,0 0.44181,0.21273c0,0.29455 -0.19636,0.29455 -0.3109,0.29455c-0.63819,0 -1.30909,-0.04909 -1.96363,-0.04909c-0.63819,0 -1.30909,0.04909 -1.9309,0.04909c-0.04909,0 -0.22909,0 -0.22909,-0.19636c0,-0.31091 0.18,-0.31091 0.44181,-0.31091c1.11273,0 1.21092,-0.13091 1.34182,-0.68727l1.08,-4.3691h-4.48363l-1.09636,4.45092c-0.06546,0.22909 -0.06546,0.26182 -0.06546,0.32727c0,0.14727 0,0.27818 0.94909,0.27818c0.32727,0 0.44182,0 0.44182,0.21273c0,0.29455 -0.19636,0.29455 -0.31092,0.29455c-0.63817,0 -1.30908,-0.04909 -1.96363,-0.04909c-0.63817,0 -1.30908,0.04909 -1.9309,0.04909c-0.04909,0 -0.22909,0 -0.22909,-0.19636c0,-0.31091 0.18,-0.31091 0.44182,-0.31091c1.11273,0 1.21091,-0.13091 1.34181,-0.68727l2.20909,-8.88548c0.06546,-0.2291 0.06546,-0.26181 0.06546,-0.31091c0,-0.27819 -0.44182,-0.27819 -0.94909,-0.27819c-0.3109,0 -0.44182,0 -0.44182,-0.19635c0,-0.31092 0.21273,-0.31092 0.31092,-0.31092c0.63817,0 1.30908,0.0491 1.96363,0.0491c0.63817,0 1.30909,-0.0491 1.9309,-0.0491c0.11454,0 0.22909,0.03273 0.22909,0.21273c0,0.29454 -0.14727,0.29454 -0.49092,0.29454c-1.0309,0 -1.16181,0.13092 -1.29271,0.65456l-0.98182,3.94365h4.48363l0.99819,-4.00911c0.06544,-0.2291 0.06544,-0.26181 0.06544,-0.31091c0,-0.27819 -0.44181,-0.27819 -0.94908,-0.27819c-0.31092,0 -0.44182,0 -0.44182,-0.19635c0,-0.31092 0.21273,-0.31092 0.3109,-0.31092c0.63819,0 1.30909,0.0491 1.96363,0.0491c0.63819,0 1.30909,-0.0491 1.93092,-0.0491c0.11454,0 0.22908,0.03273 0.22908,0.21273c0,0.29454 -0.14727,0.29454 -0.4909,0.29454c-1.0309,0 -1.16182,0.13092 -1.29273,0.65456z" fill="#000000" stroke="none" stroke-width="1" stroke-linecap="butt"/><path d="M335.6592,254.66754c-0.06546,0.24545 -0.06546,0.34364 -0.06546,0.36c0,0.18 0,0.29455 1.01455,0.29455c0.32727,0 0.45817,0 0.45817,0.19636c0,0.31091 -0.21273,0.31091 -0.32727,0.31091c-0.65454,0 -1.35819,-0.04909 -2.02909,-0.04909c-0.6709,0 -1.35817,0.04909 -2.01272,0.04909c-0.11454,0 -0.22909,-0.03273 -0.22909,-0.21273c0,-0.29455 0.14727,-0.29455 0.49091,-0.29455c1.09636,0 1.24363,-0.13091 1.37454,-0.67091l2.22546,-8.90185c0.01636,-0.0491 0.04909,-0.26181 0.04909,-0.31091c0,-0.27819 -0.47455,-0.27819 -1.03092,-0.27819c-0.32727,0 -0.44181,0 -0.44181,-0.21272c0,-0.29456 0.19636,-0.29456 0.3109,-0.29456c0.6709,0 1.37455,0.0491 2.04546,0.0491c0.6709,0 1.35817,-0.0491 2.01273,-0.0491c0.06544,0 0.22908,0 0.22908,0.19637c0,0.31091 -0.16363,0.31091 -0.50727,0.31091c-1.12909,0 -1.22727,0.14729 -1.35817,0.67092z" fill="#000000" stroke="none" stroke-width="1" stroke-linecap="butt"/><path d="M318.71357,283.29295c-0.36,1.4891 -1.86546,2.71637 -3.40363,2.71637c-1.04727,0 -1.93092,-0.65455 -1.93092,-1.76728c0,-1.26 0.96546,-1.26 1.01455,-1.26c0.34363,0 0.6709,0.21273 0.6709,0.63818c0,0.4091 -0.36,0.96546 -0.98181,0.96546c-0.11455,0 -0.14728,0 -0.18,-0.01636c0.1309,0.67091 0.70363,1.08 1.37454,1.08c0.9,0 1.83273,-1.14546 2.14363,-2.37274l1.89817,-7.62547c0.06546,-0.2291 0.06546,-0.26183 0.06546,-0.32727c0,-0.24546 -0.1309,-0.26183 -0.4909,-0.31092c-0.29455,-0.03273 -0.47455,-0.03273 -0.75273,-0.03273h-0.19636c-0.26182,0 -0.40909,0 -0.40909,-0.19635c0,-0.31092 0.19636,-0.31092 0.34363,-0.31092c0.72,0 1.48909,0.0491 2.22546,0.0491c0.55636,0 1.14546,-0.0491 1.68546,-0.0491c0.1309,0 0.22908,0.0491 0.22908,0.19637c0,0.31091 -0.18,0.31091 -0.42544,0.31091c-0.73636,0 -0.85092,0.13092 -0.96546,0.5891z" fill="#000000" stroke="none" stroke-width="1" stroke-linecap="butt"/><path d="M357.92938,284.68389c0.19636,0.50727 0.39273,0.62182 0.98182,0.63818c0.14727,0 0.29454,0 0.29454,0.19636c0,0.24546 -0.1309,0.31091 -0.27817,0.31091c-0.47454,0 -0.99819,-0.04909 -1.48909,-0.04909c-0.60544,0 -1.24363,0.04909 -1.83273,0.04909c-0.11454,0 -0.22908,-0.03273 -0.22908,-0.21273c0,-0.29455 0.19636,-0.29455 0.3109,-0.29455c0.21273,0 0.83454,-0.01636 0.83454,-0.54c0,-0.04909 0,-0.08182 -0.09817,-0.32727l-1.70182,-4.56547l-2.27454,1.88183l-0.57273,2.35636c-0.08181,0.29455 -0.21273,0.81819 -0.21273,0.91637c0,0.14727 0,0.27818 0.94909,0.27818c0.32727,0 0.44182,0 0.44182,0.21273c0,0.29455 -0.19636,0.29455 -0.31092,0.29455c-0.63817,0 -1.30908,-0.04909 -1.96363,-0.04909c-0.63817,0 -1.30908,0.04909 -1.9309,0.04909c-0.04909,0 -0.22909,0 -0.22909,-0.19636c0,-0.31091 0.18,-0.31091 0.44182,-0.31091c1.11273,0 1.21091,-0.13091 1.34181,-0.68727l2.20909,-8.88548c0.06546,-0.2291 0.06546,-0.26181 0.06546,-0.31091c0,-0.27819 -0.44182,-0.27819 -0.94909,-0.27819c-0.3109,0 -0.44182,0 -0.44182,-0.19635c0,-0.31092 0.21273,-0.31092 0.31092,-0.31092c0.63817,0 1.30908,0.0491 1.96363,0.0491c0.63817,0 1.30909,-0.0491 1.9309,-0.0491c0.11454,0 0.22909,0.03273 0.22909,0.21273c0,0.29454 -0.14727,0.29454 -0.49092,0.29454c-1.0309,0 -1.16181,0.13092 -1.29271,0.65456l-1.29273,5.22002l5.76,-4.79457c0.26181,-0.21272 0.54,-0.45818 0.54,-0.75272c0,-0.2291 -0.19636,-0.31092 -0.42546,-0.32729c-0.08181,0 -0.22909,-0.01635 -0.22909,-0.19635c0,-0.31092 0.21273,-0.31092 0.31092,-0.31092c0.55636,0 1.17817,0.0491 1.7509,0.0491c0.37636,0 0.78546,-0.0491 1.12909,-0.0491c0.11454,0 0.18,0.08183 0.18,0.19637c0,0.27819 -0.16363,0.29456 -0.29455,0.31091c-1.08,0.09819 -2.19271,1.03092 -2.56908,1.34183l-3.01092,2.50364z" fill="#000000" stroke="none" stroke-width="1" stroke-linecap="butt"/><path d="M390.9113,284.79841c-0.01636,0.09818 -0.06544,0.26182 -0.06544,0.36c0,0.11455 0,0.16364 0.50727,0.16364h1.32544c2.55273,0 3.25636,-1.89819 3.78,-3.35455c0.11455,-0.31092 0.13092,-0.36 0.32727,-0.36c0.04909,0 0.24546,0 0.24546,0.19635c0,0.01637 -0.06546,0.19637 -0.06546,0.21273l-1.24363,3.51819c-0.09817,0.27818 -0.11454,0.29455 -0.47454,0.29455h-7.00363c-0.26182,0 -0.40909,0 -0.40909,-0.19636c0,-0.31091 0.18,-0.31091 0.44182,-0.31091c1.11273,0 1.21091,-0.13091 1.34181,-0.68727l2.20909,-8.88548c0.06546,-0.2291 0.06546,-0.26181 0.06546,-0.31091c0,-0.27819 -0.44182,-0.27819 -0.94909,-0.27819c-0.3109,0 -0.44182,0 -0.44182,-0.19635c0,-0.31092 0.21273,-0.31092 0.31092,-0.31092c0.65454,0 1.34181,0.0491 2.01273,0.0491c0.75271,0 1.52181,-0.0491 2.25817,-0.0491c0.06546,0 0.24546,0 0.24546,0.19637c0,0.31091 -0.18,0.31091 -0.45819,0.31091h-0.16363c-1.32546,0 -1.42363,0.16365 -1.5709,0.73637z" fill="#000000" stroke="none" stroke-width="1" stroke-linecap="butt"/><path d="M340.04969,314.6675c-0.06546,0.24545 -0.06546,0.36 -0.06546,0.37636c0,0.14727 0,0.27818 0.94909,0.27818c0.32727,0 0.44181,0 0.44181,0.21273c0,0.29455 -0.19635,0.29455 -0.3109,0.29455c-0.60544,0 -1.27635,-0.04909 -1.89817,-0.04909c-0.62182,0 -1.26,0.04909 -1.86546,0.04909c-0.04909,0 -0.22909,0 -0.22909,-0.19636c0,-0.31091 0.18,-0.31091 0.44182,-0.31091c1.11273,0 1.2109,-0.13091 1.34182,-0.68727l2.30727,-9.26185h-0.01636l-6.10363,10.16185c-0.09819,0.18 -0.18,0.29455 -0.39273,0.29455c-0.24546,0 -0.24546,-0.11455 -0.27817,-0.39273l-0.99819,-9.9164h-0.01636l-2.17636,8.68912c-0.06544,0.26182 -0.06544,0.36 -0.06544,0.40909c0,0.24546 0.03271,0.67091 0.96544,0.70364c0.19636,0 0.31092,0.01636 0.31092,0.21273c0,0.29455 -0.19636,0.29455 -0.29455,0.29455c-0.50727,0 -1.08,-0.04909 -1.60363,-0.04909c-0.50727,0 -1.06363,0.04909 -1.55454,0.04909c-0.11455,0 -0.21273,-0.04909 -0.21273,-0.19636c0,-0.29455 0.18,-0.31091 0.31091,-0.31091c0.73636,-0.03273 1.35819,-0.22909 1.58727,-1.14546l2.09455,-8.4273c0.06544,-0.2291 0.06544,-0.26181 0.06544,-0.31091c0,-0.27819 -0.44181,-0.27819 -0.94908,-0.27819c-0.31092,0 -0.44182,0 -0.44182,-0.19635c0,-0.31092 0.18,-0.31092 0.44182,-0.31092h2.17636c0.39271,0 0.42544,0 0.45817,0.36l0.91636,9.18003l5.56363,-9.24547c0.18,-0.29456 0.22909,-0.29456 0.58909,-0.29456h2.09457c0.2781,0 0.40905,0 0.40905,0.21273c0,0.29454 -0.1473,0.29454 -0.49095,0.29454c-1.03086,0 -1.16176,0.13092 -1.29267,0.65456z" fill="#000000" stroke="none" stroke-width="1" stroke-linecap="butt"/><path d="M301.24309,315.50206c-0.08182,0.31091 -0.14728,0.32727 -0.32728,0.32727c-0.22908,0 -0.24544,-0.03273 -0.32727,-0.27818l-3.51817,-9.76912l-2.1109,8.4273c-0.06546,0.26182 -0.06546,0.36 -0.06546,0.40909c0,0.24546 0.03273,0.67091 0.96546,0.70364c0.19636,0 0.3109,0.01636 0.3109,0.21273c0,0.29455 -0.19636,0.29455 -0.29454,0.29455c-0.50728,0 -1.08,-0.04909 -1.60365,-0.04909c-0.50727,0 -1.06363,0.04909 -1.55454,0.04909c-0.11455,0 -0.21273,-0.04909 -0.21273,-0.19636c0,-0.29455 0.18,-0.31091 0.31091,-0.31091c0.75272,-0.03273 1.35818,-0.24545 1.58727,-1.14546l2.16,-8.67274c0.04908,-0.16365 0.04908,-0.19637 0.04908,-0.21273c0,-0.13092 -0.88363,-0.13092 -0.99817,-0.13092c-0.3109,0 -0.44182,0 -0.44182,-0.19635c0,-0.31092 0.18,-0.31092 0.44182,-0.31092h2.04546c0.34363,0 0.36,0.01637 0.45817,0.27819l3.06,8.50911l1.8,-7.18366c0.03273,-0.13091 0.06546,-0.24545 0.06546,-0.39272c0,-0.34365 -0.13092,-0.67092 -0.98182,-0.70365c-0.14727,0 -0.29454,-0.01635 -0.29454,-0.19635c0,-0.31092 0.21273,-0.31092 0.29454,-0.31092c0.50727,0 1.06363,0.0491 1.58727,0.0491c0.52363,0 1.06363,-0.0491 1.5709,-0.0491c0.14728,0 0.21273,0.08183 0.21273,0.21273c0,0.27819 -0.19636,0.29454 -0.24544,0.29454c-0.47455,0.01637 -1.39092,0.06546 -1.65273,1.11273z" fill="#000000" stroke="none" stroke-width="1" stroke-linecap="butt"/><path d="M371.92202,256.18933c-2.22546,0 -3.76363,-1.75091 -3.76363,-4.22182c0,-3.79638 3.38727,-7.67458 6.7418,-7.67458c2.06181,0 3.7309,1.58727 3.7309,4.27092c0,3.94366 -3.43636,7.62548 -6.70907,7.62548zM375.78382,252.98205c0.86727,-1.4891 1.45636,-3.66547 1.45636,-5.10548c0,-2.19272 -1.17819,-3.17455 -2.45454,-3.17455c-1.42365,0 -2.91273,1.19454 -3.78,2.73274c-1.14546,1.99637 -1.37455,4.28728 -1.37455,5.04002c0,1.94727 0.91636,3.2891 2.40546,3.2891c1.22727,0 2.68363,-0.96546 3.74727,-2.78182z" fill="#000000" stroke="none" stroke-width="1" stroke-linecap="butt"/><path d="M408.48696,254.71661c-0.06546,0.22909 -0.06546,0.26182 -0.06546,0.32727c0,0.14727 0,0.27818 0.94909,0.27818c0.32727,0 0.44182,0 0.44182,0.21273c0,0.29455 -0.19636,0.29455 -0.31092,0.29455c-0.63817,0 -1.30908,-0.04909 -1.96363,-0.04909c-0.63817,0 -1.30908,0.04909 -1.9309,0.04909c-0.04909,0 -0.22909,0 -0.22909,-0.19636c0,-0.31091 0.18,-0.31091 0.44182,-0.31091c1.11273,0 1.21091,-0.13091 1.34181,-0.68727l2.20909,-8.88548c0.06546,-0.2291 0.06546,-0.26181 0.06546,-0.31091c0,-0.27819 -0.44182,-0.27819 -0.94909,-0.27819c-0.3109,0 -0.44182,0 -0.44182,-0.19635c0,-0.31092 0.18,-0.31092 0.44182,-0.31092h4.90909c1.78363,0 2.89635,1.04727 2.89635,2.42183c0,1.91455 -2.20908,3.58365 -4.2709,3.58365h-2.53636zM409.55059,250.23296h2.06182c0.98181,0 1.79998,-0.31091 2.37271,-0.9491c0.62182,-0.72 0.86727,-2.32364 0.86727,-2.65091c0,-1.04727 -0.83454,-1.47273 -1.98,-1.47273h-1.40727c-0.54,0 -0.65454,0 -0.80181,0.5891z" fill="#000000" stroke="none" stroke-width="1" stroke-linecap="butt"/><path d="M75.67576,257.55843c0.60544,0 1.42363,-0.45819 1.8,-1.60364c0.03273,-0.11455 0.06544,-0.21273 0.19636,-0.21273c0.09817,0 0.18,0.08182 0.18,0.19636c0,0.03273 -0.67092,3.15819 -2.56909,3.15819c-0.94909,0 -1.29273,-0.60545 -1.29273,-1.50545c0,-0.2291 0.03273,-0.70364 0.16363,-1.55455c-0.34363,0.11455 -0.91636,0.24546 -1.48908,0.24546c-2.22546,0 -3.76363,-1.75091 -3.76363,-4.22182c0,-3.79638 3.38727,-7.67458 6.7418,-7.67458c2.06181,0 3.7309,1.58727 3.7309,4.27092c0,2.9291 -1.98,5.98911 -4.68,7.1673c0.03273,1.48909 0.42546,1.73455 0.98182,1.73455zM71.7485,255.21842c0,-0.78546 0.68727,-1.71819 1.58727,-1.71819c1.17817,0 1.27636,1.21092 1.30908,1.73456c2.63455,-1.6691 3.35455,-5.72728 3.35455,-7.16729c0,-1.94728 -0.96546,-3.27274 -2.4709,-3.27274c-1.21092,0 -2.60182,0.9 -3.6,2.42183c-1.22728,1.88182 -1.63636,4.35273 -1.63636,5.4c0,1.17819 0.37636,2.52001 1.53817,3.06002c-0.03273,-0.08182 -0.08181,-0.19636 -0.08181,-0.45818zM74.23576,255.03843c0,-0.42546 0,-1.17819 -0.88363,-1.17819c-0.72,0 -1.24363,0.7691 -1.24363,1.35819c0,0.65455 0.4909,0.65455 0.6709,0.65455c0.52363,0 1.04727,-0.18 1.44,-0.37636c0.01636,-0.13091 0.01636,-0.32727 0.01636,-0.45818z" fill="#000000" stroke="none" stroke-width="1" stroke-linecap="butt"/><path d="M185.33262,249.87293h1.65273c1.11271,0 1.9309,-0.37637 2.42181,-0.85091c0.88363,-0.88364 0.94909,-2.40547 0.94909,-2.50364c0,-1.53819 -1.60363,-1.53819 -2.65092,-1.53819c-0.3109,0 -0.83452,0 -0.94908,0.03273c-0.11455,0.03273 -0.24546,0.06546 -0.36,0.55637zM189.79989,252.00021c0,0.34364 -0.08182,1.06364 -0.1309,1.44c-0.04909,0.42546 -0.09819,0.81819 -0.09819,1.24364c0,0.52364 0.04909,0.96546 0.54,0.96546c0.50727,0 0.99819,-0.52364 1.27636,-1.44c0.04909,-0.19637 0.06544,-0.27818 0.27817,-0.27818c0.21273,0 0.24546,0.09818 0.24546,0.21272c0,0.13092 -0.4909,1.86547 -1.86546,1.86547c-1.0309,0 -2.02908,-0.52364 -2.02908,-1.73455c0,-0.31092 0.06544,-0.54 0.24544,-1.30909c0.22909,-0.91637 0.27819,-1.06364 0.27819,-1.29273c0,-1.17818 -0.8509,-1.44 -1.53819,-1.44h-1.76727l-1.06363,4.30365c-0.06544,0.22909 -0.06544,0.26182 -0.06544,0.32727c0,0.14727 0,0.27818 0.94908,0.27818c0.32727,0 0.44182,0 0.44182,0.21273c0,0.29455 -0.19636,0.29455 -0.3109,0.29455c-0.63819,0 -1.30909,-0.04909 -1.94728,-0.04909c-0.62181,0 -1.27635,0.04909 -1.89817,0.04909c-0.04909,0 -0.22909,0 -0.22909,-0.19636c0,-0.31091 0.18,-0.31091 0.44182,-0.31091c1.11273,0 1.21091,-0.13091 1.34181,-0.68727l2.20909,-8.88548c0.06546,-0.2291 0.06546,-0.26181 0.06546,-0.31091c0,-0.27819 -0.44182,-0.27819 -0.94909,-0.27819c-0.3109,0 -0.44182,0 -0.44182,-0.19635c0,-0.31092 0.18,-0.31092 0.44182,-0.31092h4.32c2.04544,0 3.28909,1.1291 3.28909,2.42183c0,1.19454 -1.11273,2.61818 -3.43636,3.20728c0.83454,0.29454 1.40727,0.98181 1.40727,1.89818z" fill="#000000" stroke="none" stroke-width="1" stroke-linecap="butt"/><path d="M134.29814,278.07298c-0.06544,0.27819 -0.11454,0.29456 -0.29454,0.29456c-0.08182,0 -0.24546,0 -0.24546,-0.16364l0.01636,-0.2291c0.06546,-0.36 0.08182,-0.47456 0.08182,-0.9c0,-1.21091 -0.45819,-2.32364 -1.99636,-2.32364c-1.3909,0 -2.6509,1.45637 -2.6509,2.79818c0,0.67091 0.27817,1.19454 0.83454,1.44c0.08182,0.03273 0.58909,0.18 0.9,0.26183c1.55454,0.45818 1.7509,0.50727 2.16,1.01454c0.42546,0.52364 0.54,1.19454 0.54,1.6691c0,2.06182 -1.81636,4.25455 -3.87817,4.25455c-0.85092,0 -1.89819,-0.24546 -2.50363,-1.12909c-0.16365,0.21273 -0.58909,0.73637 -0.76909,0.93273c-0.1309,0.16364 -0.14727,0.19636 -0.26182,0.19636c-0.09818,0 -0.18,-0.06545 -0.18,-0.16364c0,-0.04909 0.01636,-0.09818 0.04909,-0.21273l0.8509,-3.42001c0.06546,-0.24545 0.09819,-0.27818 0.29455,-0.27818c0.09817,0 0.24544,0 0.24544,0.18c0,0.03273 -0.01636,0.06545 -0.01636,0.09818c-0.04908,0.18 -0.1309,0.62183 -0.1309,0.99819c0,1.70182 1.22727,2.29091 2.45454,2.29091c1.45636,0 2.73273,-1.63637 2.73273,-3.12547c0,-0.58908 -0.18,-0.94908 -0.36,-1.17818c-0.27817,-0.29456 -0.40909,-0.34364 -1.26,-0.5891l-0.80181,-0.2291c-0.24546,-0.06545 -0.60546,-0.16364 -0.70363,-0.21272c-0.94909,-0.44183 -1.30909,-1.3091 -1.30909,-2.16001c0,-1.88183 1.78363,-3.89457 3.79636,-3.89457c0.32727,0 1.48908,0.01637 2.12727,1.11273l0.73636,-0.91637c0.14727,-0.18 0.16363,-0.19637 0.24544,-0.19637c0.16363,0 0.18,0.13092 0.18,0.16364c0,0.06546 -0.01636,0.16364 -0.03271,0.2291z" fill="#000000" stroke="none" stroke-width="1" stroke-linecap="butt"/><path d="M222.61817,254.58568c-0.06546,0.22909 -0.06546,0.26182 -0.06546,0.31091c0,0.22909 0.08182,0.29455 0.54,0.34364c0.04909,0 0.55636,0.03273 0.81819,0.03273h0.24544c0.24546,0 0.40909,0 0.40909,0.18c0,0.32727 -0.19636,0.32727 -0.34363,0.32727c-0.83454,0 -1.71817,-0.04909 -2.56909,-0.04909c-0.83454,0 -1.70181,0.04909 -2.53636,0.04909c-0.08181,0 -0.27817,0 -0.27817,-0.19636c0,-0.31091 0.18,-0.31091 0.45817,-0.31091h0.26182c1.44,0 1.58727,-0.16364 1.73454,-0.73637l2.19273,-8.7873c0.03273,-0.09819 0.06546,-0.24546 0.06546,-0.36c0,-0.11454 0,-0.18 -0.37636,-0.18h-0.55636c-2.1109,0 -2.56909,0.34364 -3.33819,2.65091c-0.16363,0.42546 -0.18,0.44183 -0.21271,0.47456c-0.04909,0.04908 -0.11455,0.04908 -0.18,0.04908c-0.04909,0 -0.24546,0 -0.24546,-0.18c0,-0.03273 0,-0.06545 0.08182,-0.27818l0.96544,-2.9291c0.09819,-0.29454 0.14727,-0.29454 0.47455,-0.29454h8.39453c0.26181,0 0.40908,0 0.40908,0.19637c0,0.06545 0,0.14727 -0.01635,0.21272l-0.49092,2.9291c-0.04908,0.29456 -0.08181,0.34364 -0.29454,0.34364c-0.08182,0 -0.24546,0 -0.24546,-0.21273c0,-0.03272 0,-0.06545 0.03273,-0.24545c0.16363,-0.96546 0.16363,-1.27637 0.16363,-1.47273c0,-1.01454 -0.37636,-1.24364 -2.07817,-1.24364c-0.27819,0 -0.72,0 -0.8509,0.03273c-0.13092,0.01637 -0.26182,0.04908 -0.37636,0.54z" fill="#000000" stroke="none" stroke-width="1" stroke-linecap="butt"/><path d="M300.59154,252.08204c-0.44181,1.80001 -2.25817,3.92728 -4.33636,3.92728c-1.53817,0 -2.91271,-1.11273 -2.91271,-3.07637c0,-0.16364 0,-0.52364 0.1309,-1.04727l1.5709,-6.31638c0.06546,-0.2291 0.06546,-0.26181 0.06546,-0.31091c0,-0.27819 -0.44182,-0.27819 -0.94909,-0.27819c-0.3109,0 -0.44182,0 -0.44182,-0.19635c0,-0.31092 0.21273,-0.31092 0.31092,-0.31092c0.63817,0 1.30908,0.0491 1.96363,0.0491c0.63817,0 1.30909,-0.0491 1.9309,-0.0491c0.11454,0 0.22909,0.03273 0.22909,0.21273c0,0.29454 -0.14727,0.29454 -0.49092,0.29454c-1.0309,0 -1.16181,0.13092 -1.29271,0.65456l-1.63636,6.5782c-0.08182,0.36 -0.16363,0.88364 -0.16363,1.24364c0,1.4891 0.9,2.04546 1.7509,2.04546c1.53817,0 3.27273,-1.4891 3.79636,-3.60001l1.45636,-5.82548c0.03273,-0.13091 0.06544,-0.24545 0.06544,-0.39272c0,-0.34365 -0.1309,-0.67092 -0.98181,-0.70365c-0.14727,0 -0.29455,-0.01635 -0.29455,-0.19635c0,-0.31092 0.21273,-0.31092 0.29455,-0.31092c0.50727,0 1.04727,0.0491 1.5709,0.0491c0.50727,0 1.04727,-0.0491 1.53817,-0.0491c0.14728,0 0.21273,0.08183 0.21273,0.21273c0,0.27819 -0.19636,0.29454 -0.24544,0.29454c-0.47455,0.01637 -1.39092,0.06546 -1.65273,1.11273z" fill="#000000" stroke="none" stroke-width="1" stroke-linecap="butt"/><path d="M221.86987,315.69841c-0.18,0.29455 -0.26181,0.31091 -0.45817,0.31091c-0.26182,0 -0.27819,-0.08182 -0.31092,-0.39273l-0.98181,-10.08003c-0.03273,-0.40908 -0.06546,-0.55637 -0.88363,-0.55637c-0.22909,0 -0.39273,0 -0.39273,-0.19635c0,-0.31092 0.21273,-0.31092 0.29454,-0.31092c0.54,0 1.11273,0.0491 1.66909,0.0491c0.62182,0 1.27636,-0.0491 1.88182,-0.0491c0.04908,0 0.22908,0 0.22908,0.19637c0,0.31091 -0.18,0.31091 -0.40908,0.31091c-0.16365,0 -1.03092,0.01637 -1.03092,0.50729l0.83455,8.57457l4.72908,-7.90366c0.06546,-0.11454 0.24546,-0.44183 0.24546,-0.65454c0,-0.39273 -0.39273,-0.50729 -0.65454,-0.52365c-0.13092,-0.01635 -0.26182,-0.01635 -0.26182,-0.19635c0,-0.31092 0.19636,-0.31092 0.29454,-0.31092c0.47455,0 1.01455,0.0491 1.50546,0.0491c0.40909,0 0.8509,-0.0491 1.24363,-0.0491c0.18,0 0.21273,0.14727 0.21273,0.18c0,0.31092 -0.18,0.31092 -0.3109,0.32727c-0.60546,0.0491 -1.17819,0.2291 -1.83273,1.32546z" fill="#000000" stroke="none" stroke-width="1" stroke-linecap="butt"/><path d="M111.98706,255.7148c-0.16363,0.29455 -0.29454,0.29455 -0.42546,0.29455c-0.27817,0 -0.27817,-0.09818 -0.29454,-0.40909l-0.36,-8.14911l-4.5,8.23093c-0.1309,0.24545 -0.18001,0.32727 -0.42546,0.32727c-0.24544,0 -0.27817,-0.06545 -0.29454,-0.40909l-0.45817,-10.09639c-0.01636,-0.39273 -0.01636,-0.52365 -0.75273,-0.52365c-0.22909,0 -0.39273,0 -0.39273,-0.19635c0,-0.31092 0.22909,-0.31092 0.29454,-0.31092c0.50728,0 1.08,0.0491 1.60363,0.0491c0.60546,0 1.24365,-0.0491 1.84909,-0.0491c0.04909,0 0.22909,0 0.22909,0.19637c0,0.31091 -0.18,0.31091 -0.40909,0.31091c-1.09636,0.01637 -1.08,0.42546 -1.06363,0.7691l0.36,8.00185l3.81273,-7.00366c0.09817,-0.16364 0.09817,-0.19637 0.09817,-0.32729c0,-0.01635 -0.04908,-1.03091 -0.06544,-1.09635c-0.03273,-0.24546 -0.09819,-0.34365 -0.78546,-0.34365c-0.16363,0 -0.34363,0 -0.34363,-0.19635c0,-0.31092 0.22909,-0.31092 0.29454,-0.31092c0.50727,0 1.08,0.0491 1.60363,0.0491c0.60546,0 1.24363,-0.0491 1.84909,-0.0491c0.09817,0 0.22909,0.03273 0.22909,0.18c0,0.32727 -0.19636,0.32727 -0.32727,0.32727c-1.06363,0.01637 -1.16182,0.32729 -1.16182,0.60546c0,0.06546 0,0.09819 0.01636,0.11454l0.36,8.05094l4.14003,-7.62548c0.0981,-0.18 0.18,-0.32727 0.18,-0.52364c0,-0.50727 -0.55635,-0.60546 -0.8346,-0.62183c-0.11445,0 -0.26175,-0.01635 -0.26175,-0.19635c0,-0.31092 0.2127,-0.31092 0.3108,-0.31092c0.52365,0 1.0965,0.0491 1.62,0.0491c0.39285,0 0.81825,-0.0491 1.1946,-0.0491c0.19635,0 0.19635,0.16364 0.19635,0.18c0,0.16364 -0.0654,0.31092 -0.22905,0.32727c-0.7854,0.06546 -1.17825,0.32729 -1.7346,1.34183z" fill="#000000" stroke="none" stroke-width="1" stroke-linecap="butt"/><path d="M152.13246,314.83115c0.11455,0.31091 0.18,0.49091 1.06363,0.49091c0.26182,0 0.39273,0 0.39273,0.21273c0,0.29455 -0.19636,0.29455 -0.29454,0.29455c-0.54,0 -1.12909,-0.04909 -1.68546,-0.04909c-0.62181,0 -1.27636,0.04909 -1.89817,0.04909c-0.04909,0 -0.24546,0 -0.24546,-0.19636c0,-0.24545 0.14727,-0.29455 0.26182,-0.31091c0.58908,-0.03273 0.93271,-0.32727 0.93271,-0.49091c0,-0.04909 -0.03271,-0.13091 -0.04908,-0.19636l-1.44,-3.91093l-3.14182,3.58365l-0.01636,0.03273c-0.01636,0.03273 -0.03271,0.06545 -0.06544,0.09818c-0.11455,0.16364 -0.13092,0.32727 -0.13092,0.39273c0,0.16364 0.08182,0.44182 0.57273,0.49091c0.03273,0 0.21273,0.01636 0.21273,0.18c0,0.32727 -0.22909,0.32727 -0.3109,0.32727c-0.54,0 -1.12909,-0.04909 -1.68546,-0.04909c-0.47454,0 -0.98181,0.04909 -1.43999,0.04909c-0.16364,0 -0.19636,-0.13091 -0.19636,-0.19636c0,-0.01636 0.01636,-0.29455 0.19636,-0.31091c0.54,-0.03273 1.45636,-0.08182 2.42182,-1.19456l3.40363,-3.87819l-1.68546,-4.56546c-0.1309,-0.36 -0.19636,-0.52365 -1.08,-0.52365c-0.22909,0 -0.39273,0 -0.39273,-0.19635c0,-0.31092 0.21273,-0.31092 0.31092,-0.31092c0.54,0 1.11271,0.0491 1.66908,0.0491c0.63819,0 1.29273,-0.0491 1.91455,-0.0491c0.11454,0 0.22908,0.03273 0.22908,0.21273c0,0.27819 -0.18,0.29454 -0.26181,0.29454c-0.60546,0.0491 -0.93273,0.36 -0.93273,0.47456c0,0.01637 0.06546,0.18 0.06546,0.19637l1.19454,3.25637l2.42182,-2.78183c0.29454,-0.34364 0.34363,-0.52364 0.34363,-0.65454c0,-0.44183 -0.47455,-0.47456 -0.58909,-0.49092c-0.04909,0 -0.19636,-0.01635 -0.19636,-0.19635c0,-0.31092 0.19636,-0.31092 0.29454,-0.31092c0.54,0 1.14546,0.0491 1.70182,0.0491c0.47454,0 0.96544,-0.0491 1.42363,-0.0491c0.09817,0 0.21273,0.0491 0.21273,0.19637c0,0.29456 -0.16363,0.29456 -0.34363,0.31091c-1.24363,0.08183 -1.84909,0.75273 -2.24182,1.17819l-0.19636,0.16364l-2.66727,3.06001z" fill="#000000" stroke="none" stroke-width="1" stroke-linecap="butt"/><path d="M260.39402,251.19842c-0.11455,0.13091 -0.11455,0.16364 -0.19636,0.44181c-0.16363,0.68729 -0.31092,1.22729 -0.50727,2.01274c-0.11455,0.47454 -0.31092,1.26001 -0.31092,1.39092c0,0.27818 0.44182,0.27818 0.94909,0.27818c0.3109,0 0.44182,0 0.44182,0.19636c0,0.31091 -0.21273,0.31091 -0.31092,0.31091c-0.62181,0 -1.30908,-0.04909 -1.94727,-0.04909c-0.62181,0 -1.27636,0.04909 -1.89817,0.04909c-0.04909,0 -0.22909,0 -0.22909,-0.19636c0,-0.31091 0.18,-0.31091 0.40909,-0.31091c1.2109,-0.01636 1.22727,-0.06545 1.44,-0.96546c0.08181,-0.31091 0.75273,-2.91274 0.75273,-2.99455c0,-0.06546 -0.03273,-0.16364 -0.06546,-0.24546l-1.73454,-5.46546c-0.11455,-0.37637 -0.27819,-0.49092 -1.04728,-0.49092c-0.22908,0 -0.39271,0 -0.39271,-0.19635c0,-0.31092 0.21271,-0.31092 0.3109,-0.31092c0.54,0 1.14544,0.0491 1.70181,0.0491c0.63819,0 1.29273,-0.0491 1.91455,-0.0491c0.06544,0 0.22908,0 0.22908,0.19637c0,0.31091 -0.18,0.31091 -0.36,0.31091c-0.21271,0 -0.91635,0.01637 -0.91635,0.39273c0,0.01637 0,0.0491 0.06544,0.21273l1.55454,4.90911l3.58365,-4.36911c0.03271,-0.0491 0.40908,-0.49091 0.40908,-0.7691c0,-0.26181 -0.22908,-0.36 -0.50727,-0.37637c-0.09817,0 -0.24546,-0.01635 -0.24546,-0.19635c0,-0.31092 0.19636,-0.31092 0.29455,-0.31092c0.4909,0 1.01454,0.0491 1.52181,0.0491c0.40909,0 0.85092,-0.0491 1.24363,-0.0491c0.19636,0 0.19636,0.16364 0.19636,0.18c0,0.31092 -0.16363,0.31092 -0.3109,0.32727c-0.78546,0.06546 -1.40727,0.4091 -2.17636,1.34183z" fill="#000000" stroke="none" stroke-width="1" stroke-linecap="butt"/><path d="M108.34302,315.27296h2.40544c2.84728,0 3.40363,-1.52182 4.00909,-3.40365c0.1309,-0.39273 0.14727,-0.4091 0.32727,-0.4091c0.09819,0 0.26182,0 0.26182,0.19637c0,0.01637 -0.06546,0.2291 -0.08182,0.26183l-1.11273,3.61637c-0.09817,0.29455 -0.11454,0.29455 -0.47454,0.29455h-6.54544c-0.26182,0 -0.37637,0 -0.37637,-0.14727c0,-0.19636 0.09818,-0.31091 0.18,-0.40909l8.46,-10.11276h-2.29092c-2.58544,0 -3.24,1.39092 -3.71454,2.88001c-0.08182,0.2291 -0.09817,0.29456 -0.29454,0.29456c-0.04909,0 -0.24546,0 -0.24546,-0.18c0,-0.01637 0.03273,-0.18 0.04909,-0.21273l0.88363,-2.96183c0.09817,-0.31091 0.11454,-0.32727 0.47454,-0.32727h6.33273c0.27817,0 0.37636,0 0.37636,0.14727c0,0.08183 -0.01636,0.21273 -0.19636,0.42546z" fill="#000000" stroke="none" stroke-width="1" stroke-linecap="butt"/></g><path d="M377.43835,307.03763c1.6265,0 2.67311,1.56994 2.67311,3.19645c0,1.65481 -1.07491,3.2106 -2.7297,3.2106c-0.72137,0 -1.51337,-0.25458 -2.30541,-0.89105c-0.43846,-0.3536 -0.60817,-0.56574 -1.37193,-1.52751c-0.69303,1.13148 -1.86696,2.41856 -3.49347,2.41856c-1.62651,0 -2.67314,-1.56994 -2.67314,-3.19645c0,-1.65481 1.07491,-3.2106 2.72972,-3.2106c0.72132,0 1.51336,0.25458 2.30541,0.89104c0.43846,0.3536 0.60817,0.56574 1.37193,1.52751c0.69303,-1.13148 1.86699,-2.41856 3.49349,-2.41856zM375.85424,311.87474c0.29702,0.29701 0.93353,0.89105 1.75378,0.89105c1.24467,0 2.1923,-1.14563 2.1923,-2.53171c0,-1.27292 -0.76376,-2.74385 -2.26299,-2.74385c-1.59822,0 -2.64486,1.42851 -3.22474,2.44684c0.86276,1.11734 1.18806,1.55579 1.54165,1.93768zM371.79504,308.60757c-0.29702,-0.29702 -0.93349,-0.89105 -1.75382,-0.89105c-1.24465,0 -2.19225,1.14563 -2.19225,2.53171c0,1.27292 0.76375,2.74385 2.26297,2.74385c1.59822,0 2.64486,-1.42851 3.22474,-2.44684c-0.86276,-1.11734 -1.18806,-1.55579 -1.54165,-1.93767z" fill="#000000" stroke="none" stroke-width="1" stroke-linecap="butt"/></g></g></svg>