<svg version="1.1" xmlns="http://www.w3.org/2000/svg" xmlns:xlink="http://www.w3.org/1999/xlink" width="31.25" height="16.02979" viewBox="0,0,31.25,16.02979"><g transform="translate(-224.375,-171.98512)"><g data-paper-data="{&quot;isPaintingLayer&quot;:true}" fill-rule="nonzero" stroke="none" stroke-linecap="butt" stroke-linejoin="miter" stroke-miterlimit="10" stroke-dasharray="" stroke-dashoffset="0" style="mix-blend-mode: normal"><path d="M224.375,188.01491v-16.02979h31.25v16.02979z" fill-opacity="0.00392" fill="#ffffff" stroke-width="0"/><g fill="#000000" stroke-width="1"><path d="M235.44152,184.19841h-1.0166v-0.50831c-0.50831,0.42587 -1.46996,0.64568 -2.22555,0.64568c-1.16773,0 -1.52492,-1.11278 -1.52492,-1.71724c0,-0.6869 0.53578,-1.1952 1.45623,-1.51118c0.82428,-0.27477 1.64856,-0.31597 2.26677,-0.34345v-0.56326c0,-1.00288 -0.54952,-1.51118 -1.18147,-1.51118c-0.79681,0 -1.42874,0.24728 -2.03322,0.6869l-0.08243,-0.90672c0.67316,-0.38466 1.29136,-0.57699 2.11564,-0.57699c1.27763,0 2.22555,0.96165 2.22555,2.28051zM234.39744,181.46454c-0.83802,0 -2.74761,0.20606 -2.74761,1.14025c0,0.50831 0.50831,0.90671 1.25016,0.90671c0.20607,0 0.67317,-0.04121 1.0441,-0.27477c0.45335,-0.27477 0.45335,-0.60447 0.45335,-0.87923z"/><path d="M238.57371,178.73068c0.85176,-0.6869 1.73099,-0.76934 2.12939,-0.76934c1.27763,0 2.18433,1.48371 2.18433,3.17349c0,1.86837 -1.1952,3.20095 -2.50031,3.20095c-0.48083,0 -1.15399,-0.15111 -1.78593,-0.75559v0.61821h-1.04409v-9.53419h1.01662zM238.60119,182.41247c0,0.23355 0.05495,0.48083 0.38466,0.76933c0.24728,0.19234 0.50831,0.32971 0.89298,0.32971c0.83801,0 1.96452,-0.59073 1.96452,-2.37667c0,-1.71725 -0.98914,-2.34921 -1.82715,-2.34921c-0.67317,0 -1.16773,0.3984 -1.41501,0.78307z"/><path d="M249.2706,183.09937c0.01374,0.05495 0.05496,0.48083 0.05496,0.52204c-0.75559,0.54952 -1.52491,0.71437 -2.19807,0.71437c-1.64855,0 -2.91245,-1.44249 -2.91245,-3.20095c0,-1.56614 1.07155,-3.24217 2.9674,-3.24217c0.81054,0 1.26388,0.1099 2.06069,0.57699l-0.16485,0.89298c-0.59073,-0.3984 -0.9754,-0.61821 -1.89584,-0.61821c-1.3738,0 -1.92332,1.25016 -1.92332,2.39042c0,1.33258 0.74185,2.34919 1.8821,2.34919c0.76932,0 1.46996,-0.26102 2.10191,-0.76933z"/></g></g></g></svg>