<svg version="1.1" xmlns="http://www.w3.org/2000/svg" xmlns:xlink="http://www.w3.org/1999/xlink" width="395.5" height="188.5" viewBox="0,0,395.5,188.5"><g transform="translate(-43.25,-88.9)"><g data-paper-data="{&quot;isPaintingLayer&quot;:true}" fill-rule="nonzero" stroke-width="0" stroke-linecap="butt" stroke-linejoin="miter" stroke-miterlimit="10" stroke-dasharray="" stroke-dashoffset="0" style="mix-blend-mode: normal"><path d="M43.25,277.4v-188.5h395.5v188.5z" fill="none" stroke="#005fff"/><text transform="translate(212.78561,183.48432) scale(0.29036,0.29036)" font-size="40" xml:space="preserve" fill="#000000" fill-rule="nonzero" stroke-opacity="0" stroke="#000000" stroke-width="0" stroke-linecap="butt" stroke-linejoin="miter" stroke-miterlimit="10" stroke-dasharray="" stroke-dashoffset="0" font-family="&quot;Microsoft YaHei&quot;, &quot;微软雅黑&quot;, STXihei, &quot;华文细黑&quot;" font-weight="normal" text-anchor="start" style="mix-blend-mode: normal"><tspan x="0" dy="0">素材集市</tspan></text><g fill="#464646" stroke="none"><path d="M181.6,186.33528c0,-1.3383 0,-3.69596 0,-4.44299c0,-0.44695 0.44104,-0.95207 0.84628,-0.95207c0.73041,0 3.1774,0 4.54878,0c0.56843,0 0.95207,0.57055 0.95207,1.05785c0,0.73961 0,2.912 0,4.23142c0,0.62446 -0.50512,1.05786 -0.95207,1.05786c-0.76714,0 -3.23277,0 -4.54878,0c-0.5092,0 -0.84628,-0.3843 -0.84628,-0.95207z"/><path d="M189.24541,186.33528c0,-1.3383 0,-3.69596 0,-4.44299c0,-0.44695 0.44104,-0.95207 0.84628,-0.95207c0.73041,0 3.1774,0 4.54878,0c0.56843,0 0.95207,0.57055 0.95207,1.05785c0,0.73961 0,2.912 0,4.23142c0,0.62446 -0.50512,1.05786 -0.95207,1.05786c-0.76714,0 -3.23277,0 -4.54878,0c-0.5092,0 -0.84628,-0.3843 -0.84628,-0.95207z"/><path d="M187.65846,179.57944c-0.42321,-1.26962 -1.16876,-3.50629 -1.405,-4.21499c-0.14134,-0.42402 0.11734,-1.04268 0.50178,-1.17083c0.69293,-0.23098 3.01434,-1.00478 4.31535,-1.43845c0.53926,-0.17975 1.08364,0.2402 1.23774,0.7025c0.23388,0.70165 0.92086,2.76257 1.33809,4.01428c0.19747,0.59241 -0.14467,1.1633 -0.56869,1.30464c-0.72777,0.24259 -3.06687,1.02229 -4.31535,1.43845c-0.48307,0.16102 -0.92438,-0.09696 -1.10393,-0.63559z"/></g><path d="M94.69443,254.21179v-133h301v133z" fill="none" stroke="none"/><path d="M177.33334,193v-26h166.33333v26z" fill-opacity="0.00392" fill="#ffffff" stroke="#005fff"/></g></g></svg>