<svg version="1.1" xmlns="http://www.w3.org/2000/svg" xmlns:xlink="http://www.w3.org/1999/xlink" width="26.95139" height="18.37525" viewBox="0,0,26.95139,18.37525"><g transform="translate(-226.52431,-170.81239)"><g data-paper-data="{&quot;isPaintingLayer&quot;:true}" fill-rule="nonzero" stroke="none" stroke-width="0" stroke-linecap="butt" stroke-linejoin="miter" stroke-miterlimit="10" stroke-dasharray="" stroke-dashoffset="0" style="mix-blend-mode: normal"><path d="M226.52431,188.42309c0,-2.98311 0,-14.66488 0,-16.61538c0,-0.53542 0.39345,-0.99532 0.89877,-0.99532c2.40028,0 20.84367,0 25.15385,0c0.57527,0 0.89877,0.4599 0.89877,0.99532c0,1.93414 0,13.51259 0,16.61538c0,0.48643 -0.39345,0.76455 -0.89877,0.76455c-2.40028,0 -20.99751,0 -25.30769,0c-0.57527,0 -0.74493,-0.32584 -0.74493,-0.76455z" fill="#ffca00"/><path d="M234.62808,186.3195c0,-0.46324 0,-1.35186 0,-1.65217c0,-0.22343 0.11487,-0.4211 0.35971,-0.4211c0.99657,0 7.72616,0 9.30435,0c0.21494,0 0.33594,0.15275 0.33594,0.37762c0,0.53206 0,1.46786 0,1.73913c0,0.14527 -0.10474,0.29992 -0.29247,0.29992c-1.50424,0 -8.33679,0 -9.30435,0c-0.22307,0 -0.40319,-0.13864 -0.40319,-0.3434z" fill="#ffffff"/><g fill="#ffffff"><path d="M228.62808,176.53689c0,-0.67456 0,-2.44991 0,-2.95652c0,-0.3063 0.2043,-0.41747 0.40319,-0.41747c0.42311,0 2.03822,0 2.82609,0c0.26576,0 0.4374,0.20073 0.4374,0.50443c0,0.81655 0,2.37747 0,2.78261c0,0.18889 -0.15293,0.37963 -0.39392,0.37963c-0.78284,0 -2.49497,0 -2.91304,0c-0.18033,0 -0.35971,-0.11124 -0.35971,-0.29268z"/><path d="M233.32374,176.5369c0,-0.67456 0,-2.44991 0,-2.95652c0,-0.3063 0.2043,-0.41747 0.40319,-0.41747c0.42311,0 2.03823,0 2.82609,0c0.26576,0 0.4374,0.20073 0.4374,0.50443c0,0.81655 0,2.37747 0,2.78261c0,0.1889 -0.15293,0.37963 -0.39392,0.37963c-0.78284,0 -2.49497,0 -2.91305,0c-0.18033,0 -0.3597,-0.11123 -0.3597,-0.29268z"/><path d="M238.01939,176.5369c0,-0.67456 0,-2.44991 0,-2.95652c0,-0.3063 0.2043,-0.41747 0.40319,-0.41747c0.42311,0 2.03823,0 2.82609,0c0.26576,0 0.4374,0.20073 0.4374,0.50443c0,0.81655 0,2.37747 0,2.78261c0,0.1889 -0.15293,0.37963 -0.39392,0.37963c-0.78284,0 -2.49497,0 -2.91305,0c-0.18033,0 -0.3597,-0.11123 -0.3597,-0.29268z"/><path d="M242.75852,176.5369c0,-0.67456 0,-2.44991 0,-2.95652c0,-0.3063 0.2043,-0.41747 0.40319,-0.41747c0.42311,0 2.03823,0 2.82609,0c0.26576,0 0.4374,0.20073 0.4374,0.50443c0,0.81655 0,2.37747 0,2.78261c0,0.1889 -0.15293,0.37963 -0.39392,0.37963c-0.78284,0 -2.49497,0 -2.91305,0c-0.18033,0 -0.3597,-0.11123 -0.3597,-0.29268z"/><path d="M247.67156,176.5369c0,-0.67456 0,-2.44991 0,-2.95652c0,-0.3063 0.2043,-0.41747 0.40319,-0.41747c0.42311,0 2.03823,0 2.82609,0c0.26576,0 0.4374,0.20073 0.4374,0.50443c0,0.81655 0,2.37747 0,2.78261c0,0.1889 -0.15293,0.37963 -0.39392,0.37963c-0.78284,0 -2.49497,0 -2.91304,0c-0.18033,0 -0.35971,-0.11123 -0.35971,-0.29268z"/></g><g fill="#ffffff"><path d="M228.64493,181.54068c0,-0.67456 0,-2.44991 0,-2.95652c0,-0.3063 0.2043,-0.41747 0.40319,-0.41747c0.42311,0 2.03823,0 2.82609,0c0.26576,0 0.4374,0.20073 0.4374,0.50443c0,0.81655 0,2.37747 0,2.78261c0,0.1889 -0.15293,0.37963 -0.39392,0.37963c-0.78284,0 -2.49497,0 -2.91305,0c-0.18033,0 -0.3597,-0.11123 -0.3597,-0.29268z"/><path d="M233.34058,181.54068c0,-0.67456 0,-2.44991 0,-2.95652c0,-0.3063 0.2043,-0.41747 0.40319,-0.41747c0.42311,0 2.03823,0 2.82609,0c0.26576,0 0.4374,0.20073 0.4374,0.50443c0,0.81655 0,2.37747 0,2.78261c0,0.1889 -0.15293,0.37963 -0.39392,0.37963c-0.78284,0 -2.49497,0 -2.91305,0c-0.18033,0 -0.3597,-0.11123 -0.3597,-0.29268z"/><path d="M238.03624,181.54068c0,-0.67456 0,-2.44991 0,-2.95652c0,-0.3063 0.2043,-0.41747 0.40319,-0.41747c0.42311,0 2.03823,0 2.82609,0c0.26576,0 0.4374,0.20073 0.4374,0.50443c0,0.81655 0,2.37747 0,2.78261c0,0.1889 -0.15293,0.37963 -0.39392,0.37963c-0.78284,0 -2.49497,0 -2.91304,0c-0.18033,0 -0.35971,-0.11123 -0.35971,-0.29268z"/><path d="M242.77537,181.54068c0,-0.67456 0,-2.44991 0,-2.95652c0,-0.3063 0.2043,-0.41747 0.40319,-0.41747c0.42311,0 2.03822,0 2.82608,0c0.26576,0 0.4374,0.20073 0.4374,0.50443c0,0.81655 0,2.37747 0,2.78261c0,0.1889 -0.15293,0.37963 -0.39392,0.37963c-0.78284,0 -2.49497,0 -2.91305,0c-0.18033,0 -0.3597,-0.11123 -0.3597,-0.29268z"/><path d="M247.68841,181.54068c0,-0.67456 0,-2.44991 0,-2.95652c0,-0.3063 0.2043,-0.41747 0.40319,-0.41747c0.42311,0 2.03823,0 2.82609,0c0.26577,0 0.4374,0.20073 0.4374,0.50443c0,0.81655 0,2.37747 0,2.78261c0,0.1889 -0.15293,0.37963 -0.39392,0.37963c-0.78284,0 -2.49497,0 -2.91304,0c-0.18033,0 -0.35971,-0.11123 -0.35971,-0.29268z"/></g></g></g></svg>