<svg version="1.1" xmlns="http://www.w3.org/2000/svg" xmlns:xlink="http://www.w3.org/1999/xlink" width="408.01985" height="210.47578" viewBox="0,0,408.01985,210.47578"><g transform="translate(-42.99972,-75)"><g data-paper-data="{&quot;isPaintingLayer&quot;:true}" fill="#9966ff" fill-rule="nonzero" stroke="none" stroke-width="0.5" stroke-linecap="butt" stroke-linejoin="miter" stroke-miterlimit="10" stroke-dasharray="" stroke-dashoffset="0" style="mix-blend-mode: normal"><path d="M81.99972,186.5c0,-1.08233 0.46857,-1.69608 1,-2.04412c0,-5.31863 0,-10.63725 0,-15.95588c0,-15 0,-30 0,-45c0,-7.67559 -0.48827,-15.52382 0.00629,-23.17722c0.33206,-5.13879 1.71679,-10.12707 1.9579,-15.26538c-2.28571,-0.36117 -4.57238,-0.72619 -6.86097,-1.08908c-10.89859,-1.72813 -21.51868,-3.97414 -32.60322,-3.96831c0,0 -2.5,0 -2.5,-2.5c0,-2.5 2.5,-2.5 2.5,-2.5c11.35805,0.0057 22.2295,2.26126 33.39678,4.03169c17.50388,2.77502 34.89761,5.69953 52.62216,5.96838c1.66036,-0.00002 3.32071,-0.00005 4.98107,-0.00007h1c0,0 2.5,0 2.5,2.5c0,2.5 -2.5,2.5 -2.5,2.5h-1c-1.67298,-0.00002 -3.34596,-0.00005 -5.01893,-0.00007c-13.99021,-0.21163 -27.77367,-2.04075 -41.56592,-4.16835c-0.34007,4.99041 -1.60077,9.84285 -1.92144,14.84565c-0.48298,7.53504 0.00629,15.26557 0.00629,22.82278c0,15 0,30 0,45c0,6 0,12 0,18l-3.5,2.5c0,0 -2.5,0 -2.5,-2.5z"/><path d="M278.99972,82.5c0,2.5 -2.5,2.5 -2.5,2.5l-0.61951,-0.02912c-12.66931,1.95096 -25.32659,3.9723 -37.98422,5.99752c-18.97279,3.05612 -38.05014,6.99718 -57.15438,9.08119c-9.03597,0.9857 -18.16831,0.95042 -27.2419,0.95042c0,0 -2.5,0 -2.5,-2.5c0,-2.5 2.5,-2.5 2.5,-2.5c8.89217,0 17.84419,0.04508 26.69968,-0.92093c19.01982,-2.0748 38.01488,-6.00482 56.90404,-9.04746c12.66815,-2.0269 25.33595,-4.0499 38.01578,-6.00248l1.38049,-0.02912c0,0 2.5,0 2.5,2.5z"/><path d="M352.14924,182.63447c-0.58977,-0.32832 -1.14952,-0.95152 -1.14952,-2.13447c0,-2.5 2.5,-2.5 2.5,-2.5l4.42536,3.10634c-0.40074,1.5124 -0.52827,3.1252 -1.20222,4.5372c-3.46279,7.25495 -12.47714,10.99862 -18.90572,14.98118c-8.2412,5.10549 -16.42514,10.24776 -24.82672,15.08764c-4.03596,2.32499 -9.41074,6.17363 -13.97135,7.22353c-0.38791,0.0893 -10.0235,-0.02715 -10.68547,-0.03366c-8.01111,-0.72502 -16.12558,-1.58873 -23.82684,-4.11828c-9.14357,-3.00328 -17.35811,-7.99476 -25.50922,-12.96425c-5.69702,-3.47331 -11.972,-8.14759 -16.08014,-13.8197c-19.70281,0 -39.40562,0 -59.10844,0c0.1327,1.35598 0.28433,2.71199 0.46108,4.06803c1.43688,11.02347 2.42258,22.04202 3.528,33.10119c0.99702,9.97468 2.61825,19.94297 3.13426,29.94719l0.06641,2.31252c0,0 0.07107,2.49899 -2.42792,2.57006c-2.49899,0.07107 -2.57006,-2.42792 -2.57006,-2.42792l-0.06192,-2.19958c-0.50167,-9.92136 -2.12723,-19.81296 -3.11598,-29.70498c-1.10046,-11.0096 -2.08041,-21.97822 -3.51085,-32.95221c-0.20485,-1.57153 -0.37627,-3.14295 -0.5238,-4.7143c-0.42949,0 -0.85898,0 -1.28847,0c0,0 -2.5,0 -2.5,-2.5c0,-2.5 2.5,-2.5 2.5,-2.5c0.29611,0 0.59223,0 0.88834,0c-0.46122,-6.73952 -0.66838,-13.47825 -1.37245,-20.21859c-1.84966,-17.70741 -6.82674,-34.99359 -13.81375,-51.29662c0,0 -0.9848,-2.29786 1.31306,-3.28266c2.29786,-0.9848 3.28266,1.31306 3.28266,1.31306c7.17837,16.74952 12.27529,34.51495 14.18625,52.70338c0.72786,6.92771 0.92171,13.8544 1.41,20.78141c18.90225,0 37.8045,0 56.70675,0c-2.76914,-7.28129 -0.9159,-16.68521 -0.4385,-24.11494c1.15139,-4.07212 1.90818,-9.47795 3.53596,-13.36092c0.12706,-0.30308 5.07204,-8.17918 5.29084,-8.55085c0.26807,-0.45537 4.79,-8.66568 4.97971,-8.93087c3.50449,-4.89881 8.39894,-9.44506 12.65675,-13.70358c11.16625,-11.16812 23.07173,-21.24176 35.39966,-31.11685c7.45508,-1.5745 15.14459,-1.60963 22.74557,-0.8942c1.81376,0.17072 3.68777,0.03067 5.43946,0.5311c2.06799,0.59079 6.16802,3.14523 8.24631,4.39358c12.37895,7.43555 21.9802,23.72793 22.04337,38.24753c0,0 0,2.5 -2.5,2.5c-2.5,0 -2.5,-2.5 -2.5,-2.5c0.06442,-12.70578 -8.78799,-27.51434 -19.60983,-33.95647c-1.41802,-0.84413 -5.6501,-3.4821 -7.04477,-3.87455c-1.45517,-0.40948 -3.01432,-0.23402 -4.52065,-0.36113c-6.63595,-0.55999 -13.60352,-0.77605 -20.15585,0.43133c-11.59756,9.88499 -23.22322,19.35251 -34.00773,30.13519c-4.06947,4.06878 -8.78283,8.40242 -12.13004,13.08321c-1.89523,2.65031 -3.0802,5.74447 -4.73315,8.55228c-1.59013,2.7011 -3.78656,5.07446 -4.9963,7.966c-1.50315,3.59286 -2.12462,8.49397 -3.21125,12.25432c-0.28412,4.87005 -0.55647,9.6831 -0.5838,14.56178c-0.02252,4.02058 -0.6315,4.88023 1.45531,8.42412c0.05589,0.09492 0.11246,0.18956 0.16968,0.28392c6.6228,0 13.24559,0 19.86839,0c2.33333,0 4.66667,0 7,0h1c0,0 2.5,0 2.5,2.5c0,2.5 -2.5,2.5 -2.5,2.5c-2.33333,0 -5.66667,0 -8,0c-5.3477,0 -10.6954,0 -16.0431,0c3.53178,3.80658 7.95769,7.0091 12.13982,9.5482c7.83727,4.75825 15.68508,9.59976 24.4706,12.48543c7.27576,2.38979 14.95023,3.18379 22.51667,3.87486c3.10485,0.02796 6.28781,0.85142 9.31365,0.15485c1.43472,-0.33029 2.60938,-1.36444 3.92249,-2.0302c2.9265,-1.48375 5.83149,-3.01453 8.67424,-4.65302c8.35381,-4.81493 16.49269,-9.92762 24.68822,-15.00483c6.21896,-3.85271 13.91632,-7.02296 16.96693,-13.74082z"/><path d="M364.87665,244.97142c-2.47142,0.37693 -2.84835,-2.0945 -2.84835,-2.0945l-0.31092,-2.13043c-0.86374,-3.29216 -2.10145,-6.49841 -2.683,-9.85194c-1.1322,-6.52883 -1.03375,-13.78432 -1.03466,-20.39455c-0.0013,-9.43226 -0.13011,-18.80139 0.62388,-28.20647c0.4534,-5.65564 1.69288,-7.40364 3.50694,-12.59165c0.36213,-1.03566 0.37431,-2.21577 0.67058,-3.26631c-18.06913,-2.16512 -36.121,-2.43557 -54.3014,-2.43557c0,0 -2.5,0 -2.5,-2.5c0,-2.5 2.5,-2.5 2.5,-2.5c18.8409,0 37.54501,0.30043 56.27148,2.63948l3.00571,0.37571c1.25027,0.13791 2.22282,1.19778 2.22282,2.48481c0,0.69036 -0.27982,1.31536 -0.73223,1.76777l-0.99813,0.99813c-0.50101,1.33119 -0.9423,2.68879 -1.40046,4.03222c-0.79697,2.3369 -2.49261,4.37021 -2.94133,6.79816c-1.33147,7.20443 -0.92785,15.11573 -0.92785,22.40372c0,9.65554 -0.70115,19.98437 0.96092,29.539c0.55917,3.21446 1.76485,6.28261 2.59302,9.43848l0.41748,2.64559c0,0 0.37693,2.47142 -2.0945,2.84835z"/><path d="M385.70915,247.12829c2.37171,-0.79057 3.16228,1.58114 3.16228,1.58114l1.02859,3.0916c1.33624,5.80215 5.56209,8.66745 9.93386,12.48568c4.85687,4.24191 10.08703,8.15746 15.66461,11.49708c1.80111,1.07843 7.1416,5.8558 9.90681,4.46849c2.38966,-1.1989 2.62336,-4.65935 3.92497,-6.99465c1.34871,-2.41982 3.11042,-4.58891 4.52857,-6.9687c3.37022,-5.65554 5.8369,-11.51318 8.27737,-17.60368c1.09992,-3.79267 3.17018,-7.86913 3.90862,-11.65801c0.60751,-3.11713 -0.04511,-6.35145 -0.04511,-9.52723c0,-5.75146 0.29115,-11.79257 -0.94118,-17.4609c-0.98305,-4.5217 -3.10061,-9.1074 -4.96363,-13.31267c-1.29746,-2.92867 -2.60954,-9.25161 -5.2497,-11.35223c-1.02652,-0.81674 -2.39853,-1.06865 -3.55565,-1.68661c-2.30984,-1.23356 -4.21898,-3.24433 -6.68421,-4.12729c-3.35964,-1.20332 -9.01334,-1.31647 -12.53088,-1.88147c-8.17166,-1.17814 -16.16111,-1.0877 -23.8522,-4.74397c-0.16116,-0.07661 -8.57107,-5.7975 -8.78282,-5.9749c-5.15161,-4.31601 -9.2335,-11.49692 -10.41556,-18.1132c-0.48933,-2.73889 -0.02677,-5.56449 -0.02416,-8.34675c0.01206,-12.86449 4.11948,-24.40664 10.43965,-35.44312c0.36099,-0.36407 7.21639,-7.30412 7.60205,-7.58749c1.27137,-0.93414 2.81448,-1.42645 4.22578,-2.13161c5.22655,-2.61146 11.42295,-6.20548 17.53798,-5.31905c9.83474,1.42563 18.15206,11.87628 21.99545,20.50361c0.57524,1.29125 0.55009,2.78573 1.04381,4.1103c0.5558,1.49112 1.71256,2.74667 2.08841,4.29298c0.72014,2.96282 0.06688,7.45034 0.06688,10.57438c0,0 0,2.5 -2.5,2.5c-2.5,0 -2.5,-2.5 -2.5,-2.5c0,-2.68122 0.72658,-6.87486 0.06688,-9.42562c-0.34812,-1.346 -1.42057,-2.40632 -1.91159,-3.70702c-0.47155,-1.24913 -0.41833,-2.66766 -0.95619,-3.8897c-3.01154,-6.84234 -10.12387,-16.39507 -18.00455,-17.49639c-3.48275,-0.48671 -7.27109,1.29189 -10.3167,2.65804c-2.68368,1.2038 -5.55292,2.14478 -7.91955,3.8913c-2.48343,1.83271 -4.34704,4.38282 -6.54008,6.55464c-5.66883,10.11161 -9.4297,20.68583 -9.41822,32.41475c0.00728,7.43377 0.74487,13.2994 5.49061,19.48756c2.1802,2.84285 4.16629,3.80188 7.08378,5.80365c1.26709,0.86938 2.39986,1.9692 3.7894,2.62534c7.22941,3.41374 14.77124,3.22966 22.46096,4.31884c3.84361,0.61722 9.84661,0.81747 13.46912,2.11853c0.90757,0.32596 5.86319,3.59776 7.41629,4.45849c1.4608,0.80957 3.17823,1.22423 4.44435,2.31339c3.42988,2.95051 4.75548,9.10526 6.51262,13.07641c1.99611,4.51124 4.2185,9.41146 5.27406,14.25869c1.31326,6.03065 1.05882,12.4181 1.05882,18.5391c0,0.58392 0.01374,10.16408 -0.04511,10.47277c-0.76022,3.98791 -2.92595,8.35645 -4.09138,12.34199c-2.56079,6.41267 -5.16267,12.58233 -8.70919,18.53373c-1.40338,2.355 -3.15132,4.49865 -4.48487,6.89389c-1.29143,2.31959 -3.32665,7.81694 -6.07503,9.00535c-5.78213,2.50021 -10.26643,-2.03016 -14.66812,-4.67647c-2.89576,-1.74094 -5.4365,-4.01489 -8.20465,-5.95233c-1.38374,-0.96848 -3.07522,-1.45018 -4.43169,-2.45651c-1.39165,-1.03244 -2.43617,-2.46948 -3.74261,-3.60783c-3.42326,-2.98279 -8.11404,-6.20408 -10.26326,-10.39711c-0.70141,-1.36842 -0.78959,-2.97233 -1.18439,-4.4585l-0.97141,-2.9084c0,0 -0.79057,-2.37171 1.58114,-3.16228z"/></g></g></svg>